<svg width="46" height="40" viewBox="0 0 46 40" fill="none" xmlns="http://www.w3.org/2000/svg">
<path fill-rule="evenodd" clip-rule="evenodd" d="M19.6859 32.9856L20.3579 32.6446C20.7289 32.4566 21.1599 32.4316 21.5419 32.5756C21.9029 32.7116 22.1779 32.9776 22.3179 33.3256L22.7799 34.4766L23.2419 33.3256C23.3819 32.9766 23.6579 32.7116 24.0179 32.5756C24.3999 32.4306 24.8319 32.4566 25.2019 32.6446L25.8739 32.9856C26.0779 33.0896 26.1779 33.3256 26.1109 33.5446C26.0429 33.7626 25.8289 33.8966 25.6009 33.8726C24.5219 33.7336 23.8979 34.4406 23.5669 35.0416L23.2319 35.8776C23.1589 36.0596 22.9819 36.1736 22.7949 36.1736C22.7899 36.1736 22.7849 36.1706 22.7799 36.1706C22.7749 36.1706 22.7699 36.1736 22.7649 36.1736C22.5779 36.1736 22.4019 36.0596 22.3289 35.8776L22.0039 35.0686C21.6739 34.4626 21.0439 33.7306 19.9589 33.8726C19.7289 33.8996 19.5169 33.7626 19.4499 33.5446C19.3819 33.3256 19.4819 33.0896 19.6859 32.9856ZM22.7799 37.0386C24.7689 37.0386 25.9549 36.4016 26.7499 35.2486C26.7829 35.0446 26.8039 34.8376 26.8039 34.6246C26.8039 32.4056 24.9989 30.5996 22.7799 30.5996C20.5609 30.5996 18.7559 32.4056 18.7559 34.6246C18.7559 34.8396 18.7779 35.0506 18.8109 35.2576C19.6029 36.4196 20.7829 37.0386 22.7799 37.0386Z" fill="#9DCB68"/>
<path fill-rule="evenodd" clip-rule="evenodd" d="M22.7802 37.9788C21.5732 37.9788 20.6192 37.7568 19.8462 37.3698C20.5812 38.1548 21.6232 38.6478 22.7802 38.6478C23.9292 38.6478 24.9652 38.1608 25.6992 37.3848C24.9292 37.7618 23.9792 37.9788 22.7802 37.9788Z" fill="#9DCB68"/>
<path fill-rule="evenodd" clip-rule="evenodd" d="M40.1838 16.7502C40.1838 16.8992 40.1798 17.0502 40.1708 17.2002C39.9128 21.7682 36.9738 24.9172 34.7408 26.6692C37.2408 25.9462 40.8338 24.3582 42.9448 20.9582C44.7428 18.0642 45.1168 14.3662 44.0568 9.96623C42.9798 5.49223 40.9808 2.64823 38.1148 1.51423C33.5998 -0.273767 28.1858 2.67823 26.9458 3.41623C27.1508 4.31823 28.1058 7.13023 32.2218 8.78623C33.6928 8.80323 35.1288 9.21923 36.3778 9.99123C38.6648 11.4022 40.0858 13.8232 40.1778 16.4702C40.1828 16.5572 40.1838 16.6522 40.1838 16.7502Z" fill="#9DCB68"/>
<path fill-rule="evenodd" clip-rule="evenodd" d="M5.40257 16.7502C5.40257 16.6542 5.40457 16.5612 5.40857 16.4672C5.50157 13.8222 6.92257 11.4012 9.20857 9.99122C10.4576 9.21922 11.8926 8.80322 13.3656 8.78622C17.4786 7.13122 18.4356 4.32022 18.6406 3.41722C17.6796 2.84522 14.2156 0.949219 10.6096 0.949219C9.55457 0.949219 8.48857 1.11122 7.46857 1.51522C4.60457 2.65022 2.60657 5.49422 1.52957 9.96622C0.469569 14.3662 0.843569 18.0642 2.64157 20.9582C4.75357 24.3582 8.34657 25.9462 10.8466 26.6692C8.61157 24.9162 5.67457 21.7672 5.41557 17.2022C5.40757 17.0492 5.40257 16.8992 5.40257 16.7502Z" fill="#9DCB68"/>
<path fill-rule="evenodd" clip-rule="evenodd" d="M26.602 8.42007C26.762 8.21507 27.057 8.17807 27.262 8.33707C27.467 8.49607 27.504 8.79207 27.345 8.99707C26.606 9.94707 24.82 10.5621 22.793 10.5621C20.767 10.5621 18.98 9.94707 18.243 8.99707C18.083 8.79207 18.12 8.49607 18.325 8.33707C18.53 8.17807 18.826 8.21507 18.985 8.42007C19.435 8.99807 20.817 9.62007 22.793 9.62007C24.769 9.62007 26.153 8.99807 26.602 8.42007ZM19.501 3.84807C19.164 5.08107 17.968 7.86907 13.915 9.57507L15.011 16.5491C15.654 16.4671 16.374 16.6821 16.977 17.1581C17.467 17.5451 17.819 18.0571 17.966 18.6001C18.125 19.1841 18.026 19.7601 17.695 20.1801C17.364 20.6001 16.853 20.8111 16.291 20.8111C16.087 20.8111 15.877 20.7741 15.666 20.7181L17.15 30.1571C17.409 31.4131 17.655 32.5081 17.964 33.4401C18.498 31.2731 20.452 29.6591 22.78 29.6591C25.115 29.6591 27.073 31.2811 27.6 33.4551C27.918 32.5081 28.162 31.3971 28.414 30.1381L29.898 20.6951C29.658 20.7681 29.417 20.8111 29.186 20.8111C28.625 20.8111 28.114 20.6001 27.783 20.1801C27.452 19.7601 27.352 19.1841 27.511 18.6001C27.659 18.0571 28.01 17.5451 28.502 17.1581C29.129 16.6611 29.886 16.4461 30.548 16.5591L31.647 9.56507C27.617 7.85907 26.425 5.08307 26.086 3.85107C23.966 3.59507 21.604 3.59507 19.501 3.84807Z" fill="#9DCB68"/>
<path fill-rule="evenodd" clip-rule="evenodd" d="M29.0854 17.8967C28.7554 18.1567 28.5124 18.5017 28.4194 18.8467C28.3724 19.0187 28.3234 19.3457 28.5214 19.5977C28.8084 19.9597 29.4814 19.9487 30.0694 19.6007L30.1244 19.2507C29.6104 19.3877 29.1124 19.2237 28.9894 18.8577C28.8574 18.4687 29.1954 18.0027 29.7414 17.8187C29.9554 17.7467 30.1694 17.7287 30.3594 17.7567L30.4014 17.4877C30.0024 17.4137 29.5034 17.5647 29.0854 17.8967Z" fill="#9DCB68"/>
<path fill-rule="evenodd" clip-rule="evenodd" d="M34.2778 10.0608C33.7718 9.90179 33.2488 9.79679 32.7168 9.75379C33.0638 9.93479 33.5648 10.0738 34.2778 10.0608Z" fill="white"/>
<path fill-rule="evenodd" clip-rule="evenodd" d="M34.1931 11.0061C33.4381 11.0061 32.8611 10.8591 32.4261 10.6611L31.8701 14.2031C31.8821 14.2201 31.8941 14.2371 31.9061 14.2551C33.5761 16.4901 36.6601 17.1831 39.1911 15.9391C38.9431 13.8411 37.7521 11.9611 35.9201 10.8171C35.7371 10.8431 35.5551 10.8691 35.3741 10.9001C34.9391 10.9741 34.5471 11.0061 34.1931 11.0061Z" fill="#9DCB68"/>
<path fill-rule="evenodd" clip-rule="evenodd" d="M12.87 9.75415C12.338 9.79715 11.816 9.90115 11.311 10.0612C12.023 10.0722 12.524 9.93415 12.87 9.75415Z" fill="white"/>
<path fill-rule="evenodd" clip-rule="evenodd" d="M16.9562 19.597C17.1542 19.346 17.1052 19.019 17.0582 18.847C16.9642 18.502 16.7222 18.157 16.3932 17.897C16.0012 17.587 15.5412 17.437 15.1572 17.478L15.1992 17.748C15.3642 17.739 15.5412 17.758 15.7202 17.819C16.2662 18.003 16.6032 18.469 16.4722 18.858C16.3562 19.2 15.9152 19.368 15.4392 19.279L15.4982 19.654C16.0672 19.956 16.6792 19.949 16.9562 19.597Z" fill="#9DCB68"/>
<path fill-rule="evenodd" clip-rule="evenodd" d="M10.211 10.8996C10.031 10.8696 9.84902 10.8426 9.66602 10.8166C7.83302 11.9616 6.64002 13.8446 6.39502 15.9376C8.92502 17.1816 12.01 16.4906 13.68 14.2536C13.685 14.2476 13.69 14.2406 13.694 14.2336L13.134 10.6716C12.703 10.8646 12.134 11.0056 11.394 11.0056C11.04 11.0056 10.647 10.9736 10.211 10.8996Z" fill="#9DCB68"/>
<path fill-rule="evenodd" clip-rule="evenodd" d="M18.9852 8.4201C18.8262 8.2151 18.5302 8.1781 18.3252 8.3371C18.1202 8.4961 18.0832 8.7921 18.2422 8.9971C18.9802 9.9471 20.7662 10.5621 22.7932 10.5621C24.8202 10.5621 26.6062 9.9471 27.3442 8.9971C27.5042 8.7921 27.4672 8.4961 27.2622 8.3371C27.0562 8.1781 26.7612 8.2151 26.6022 8.4201C26.1522 8.9981 24.7692 9.6201 22.7932 9.6201C20.8172 9.6201 19.4342 8.9981 18.9852 8.4201Z" fill="#333333"/>
<path fill-rule="evenodd" clip-rule="evenodd" d="M19.6285 3.23364C19.6245 3.27164 19.5975 3.49764 19.5015 3.84764C21.6045 3.59464 23.9655 3.59464 26.0865 3.85064C25.9895 3.49864 25.9615 3.27164 25.9585 3.23364L25.9275 2.94864L26.0085 2.89464C23.9255 2.65964 21.6415 2.65964 19.5745 2.89264L19.6595 2.94864L19.6285 3.23364Z" fill="#333333"/>
<path fill-rule="evenodd" clip-rule="evenodd" d="M31.1521 14.8166C31.0921 14.7366 31.0351 14.6556 30.9771 14.5736L31.7491 14.0336C31.7891 14.0906 31.8291 14.1476 31.8701 14.2036L32.4261 10.6616C32.1711 10.5456 31.9641 10.4106 31.7991 10.2786L32.2391 9.73058C32.2031 9.73058 32.1661 9.72658 32.1301 9.72658H32.0401L31.9571 9.69358C31.8501 9.65158 31.7491 9.60758 31.6471 9.56458L30.5481 16.5586C30.6541 16.5766 30.7591 16.6016 30.8601 16.6366L30.5481 17.5246C30.5011 17.5076 30.4521 17.4966 30.4021 17.4876L30.3591 17.7566C30.6541 17.7996 30.8901 17.9526 30.9691 18.1876C31.1011 18.5766 30.7631 19.0426 30.2171 19.2276C30.1861 19.2376 30.1551 19.2436 30.1241 19.2516L30.0691 19.6006C30.1351 19.5616 30.2001 19.5226 30.2621 19.4756L30.8271 20.2276C30.5321 20.4496 30.2151 20.6006 29.8981 20.6956L28.4141 30.1376C28.1611 31.3966 27.9181 32.5076 27.6001 33.4556C27.6911 33.8316 27.7451 34.2206 27.7451 34.6246C27.7451 34.9686 27.7091 35.3056 27.6421 35.6306C28.5581 34.2066 28.9431 32.2846 29.3401 30.3026L31.6761 15.4346C31.4911 15.2416 31.3161 15.0356 31.1521 14.8166Z" fill="#333333"/>
<path fill-rule="evenodd" clip-rule="evenodd" d="M17.9643 33.4397C17.6543 32.5077 17.4093 31.4137 17.1503 30.1577L15.6663 20.7177C15.3193 20.6267 14.9723 20.4697 14.6503 20.2277L15.2153 19.4757C15.3073 19.5437 15.4023 19.6017 15.4993 19.6537L15.4403 19.2787C15.3753 19.2657 15.3093 19.2497 15.2443 19.2277C14.6973 19.0427 14.3603 18.5767 14.4913 18.1877C14.5803 17.9257 14.8603 17.7687 15.1993 17.7487L15.1573 17.4777C15.0773 17.4857 15.0003 17.4997 14.9293 17.5247L14.6173 16.6367C14.7433 16.5917 14.8763 16.5667 15.0113 16.5487L13.9153 9.57568C13.8203 9.61468 13.7273 9.65568 13.6303 9.69368L13.5473 9.72668H13.4573C13.4203 9.72668 13.3843 9.73068 13.3473 9.73068L13.7873 10.2787C13.6173 10.4157 13.4023 10.5527 13.1343 10.6717L13.6943 14.2337C13.7423 14.1687 13.7903 14.1017 13.8383 14.0337L14.6093 14.5737C14.5513 14.6557 14.4943 14.7367 14.4353 14.8157C14.2653 15.0437 14.0813 15.2557 13.8863 15.4567L16.2243 30.3257C16.6253 32.2677 17.0173 34.1557 17.9083 35.5717C17.8483 35.2637 17.8153 34.9487 17.8153 34.6247C17.8153 34.2147 17.8703 33.8197 17.9643 33.4397Z" fill="#333333"/>
<path fill-rule="evenodd" clip-rule="evenodd" d="M25.699 37.385C26.246 36.808 26.622 36.07 26.75 35.248C25.955 36.402 24.769 37.038 22.78 37.038C20.782 37.038 19.603 36.419 18.811 35.258C18.94 36.068 19.309 36.796 19.846 37.369C20.619 37.757 21.574 37.979 22.78 37.979C23.979 37.979 24.929 37.762 25.699 37.385Z" fill="#333333"/>
<path fill-rule="evenodd" clip-rule="evenodd" d="M22.7799 38.6477C21.6229 38.6477 20.5809 38.1547 19.8459 37.3697C19.3089 36.7957 18.9399 36.0677 18.8109 35.2577C18.7779 35.0507 18.7559 34.8397 18.7559 34.6247C18.7559 32.4057 20.5609 30.5997 22.7799 30.5997C24.9989 30.5997 26.8039 32.4057 26.8039 34.6247C26.8039 34.8367 26.7819 35.0437 26.7499 35.2487C26.6219 36.0697 26.2459 36.8077 25.6989 37.3847C24.9649 38.1607 23.9289 38.6477 22.7799 38.6477ZM27.5999 33.4557C27.0719 31.2817 25.1139 29.6597 22.7799 29.6597C20.4509 29.6597 18.4979 31.2727 17.9639 33.4397C17.8699 33.8197 17.8149 34.2147 17.8149 34.6247C17.8149 34.9487 17.8479 35.2637 17.9079 35.5717C18.3519 37.8567 20.3659 39.5887 22.7799 39.5887C25.1729 39.5887 27.1749 37.8877 27.6419 35.6307C27.7089 35.3057 27.7449 34.9687 27.7449 34.6247C27.7449 34.2207 27.6909 33.8317 27.5999 33.4557Z" fill="#333333"/>
<path fill-rule="evenodd" clip-rule="evenodd" d="M23.2208 35.5881C23.2818 35.8271 23.1448 36.0731 22.9098 36.1501C22.8668 36.1631 22.8228 36.1691 22.7798 36.1701C22.7848 36.1701 22.7898 36.1731 22.7948 36.1731C22.9818 36.1731 23.1588 36.0601 23.2318 35.8771L23.5668 35.0411C23.8978 34.4411 24.5218 33.7341 25.6008 33.8721C25.8278 33.8971 26.0428 33.7631 26.1108 33.5441C26.1778 33.3251 26.0778 33.0901 25.8738 32.9851L25.2008 32.6451C24.8308 32.4561 24.3998 32.4311 24.0178 32.5751C23.6578 32.7111 23.3818 32.9771 23.2418 33.3251L22.7798 34.4771L22.8498 34.6511C23.0308 34.9851 23.1528 35.3171 23.2208 35.5881Z" fill="#333333"/>
<path fill-rule="evenodd" clip-rule="evenodd" d="M19.9589 33.8723C21.0439 33.7304 21.6739 34.4624 22.0039 35.0684L22.3289 35.8774C22.4019 36.0604 22.5779 36.1734 22.7649 36.1734C22.7699 36.1734 22.7749 36.1704 22.7799 36.1704C22.8229 36.1694 22.8669 36.1633 22.9099 36.1493C23.1459 36.0733 23.2819 35.8274 23.2209 35.5884C23.1529 35.3163 23.0309 34.9854 22.8509 34.6514L22.7799 34.4763L22.3179 33.3253C22.1779 32.9773 21.9029 32.7114 21.5419 32.5754C21.1599 32.4324 20.7289 32.4564 20.3579 32.6444L19.6859 32.9854C19.4819 33.0904 19.3819 33.3254 19.4499 33.5444C19.5169 33.7634 19.7299 33.8993 19.9589 33.8723Z" fill="#333333"/>
<path fill-rule="evenodd" clip-rule="evenodd" d="M17.6947 20.1799C18.0267 19.7599 18.1257 19.1839 17.9657 18.5999C17.8187 18.0569 17.4667 17.5449 16.9767 17.1589C16.3747 16.6819 15.6537 16.4669 15.0107 16.5489C14.8757 16.5669 14.7427 16.5919 14.6167 16.6369L14.9287 17.5249C15.0007 17.4989 15.0777 17.4859 15.1567 17.4779C15.5417 17.4369 16.0017 17.5869 16.3927 17.8969C16.7227 18.1569 16.9647 18.5019 17.0577 18.8469C17.1057 19.0189 17.1537 19.3459 16.9567 19.5969C16.6787 19.9489 16.0677 19.9559 15.4987 19.6539C15.4027 19.6019 15.3067 19.5439 15.2157 19.4759L14.6497 20.2279C14.9717 20.4699 15.3197 20.6269 15.6667 20.7179C15.8767 20.7739 16.0877 20.8109 16.2907 20.8109C16.8527 20.8109 17.3637 20.5999 17.6947 20.1799Z" fill="#333333"/>
<path fill-rule="evenodd" clip-rule="evenodd" d="M28.5016 17.1584C28.0096 17.5454 27.6586 18.0564 27.5106 18.5994C27.3526 19.1834 27.4516 19.7604 27.7826 20.1794C28.1136 20.5994 28.6246 20.8104 29.1856 20.8104C29.4176 20.8104 29.6576 20.7674 29.8976 20.6954C30.2146 20.6004 30.5316 20.4494 30.8276 20.2274L30.2616 19.4754C30.1996 19.5224 30.1346 19.5614 30.0696 19.6004C29.4816 19.9484 28.8086 19.9604 28.5216 19.5974C28.3226 19.3464 28.3726 19.0184 28.4186 18.8464C28.5126 18.5024 28.7546 18.1564 29.0846 17.8964C29.5026 17.5644 30.0026 17.4134 30.4016 17.4874C30.4516 17.4964 30.5016 17.5084 30.5476 17.5244L30.8596 16.6374C30.7596 16.6014 30.6546 16.5764 30.5476 16.5584C29.8856 16.4464 29.1286 16.6614 28.5016 17.1584Z" fill="#333333"/>
<path fill-rule="evenodd" clip-rule="evenodd" d="M12.87 9.75408C12.524 9.93408 12.023 10.0721 11.311 10.0611C10.749 10.2371 10.208 10.4801 9.70302 10.7921C9.69002 10.8001 9.67902 10.8091 9.66602 10.8161C9.84902 10.8431 10.032 10.8691 10.211 10.9001C10.647 10.9741 11.04 11.0061 11.394 11.0061C12.135 11.0061 12.703 10.8641 13.135 10.6721C13.402 10.5531 13.618 10.4151 13.787 10.2781L13.347 9.73108C13.187 9.73308 13.028 9.74008 12.87 9.75408Z" fill="#333333"/>
<path fill-rule="evenodd" clip-rule="evenodd" d="M14.4353 14.8156C14.4943 14.7366 14.5513 14.6556 14.6093 14.5736L13.8373 14.0336C13.7903 14.1016 13.7423 14.1696 13.6943 14.2336C13.6893 14.2406 13.6853 14.2476 13.6803 14.2536C12.0103 16.4906 8.92526 17.1816 6.39426 15.9376C6.37326 16.1256 6.35526 16.3126 6.34926 16.5026V16.5096C6.34526 16.5886 6.34326 16.6696 6.34326 16.7506C6.34326 16.8176 6.34726 16.8856 6.34926 16.9546C7.21226 17.3176 8.12126 17.4966 9.02126 17.4966C10.8303 17.4966 12.6013 16.7846 13.8863 15.4566C14.0813 15.2556 14.2653 15.0436 14.4353 14.8156Z" fill="#333333"/>
<path fill-rule="evenodd" clip-rule="evenodd" d="M10.8465 26.6692C8.34647 25.9462 4.75347 24.3582 2.64147 20.9582C0.844469 18.0652 0.470469 14.3662 1.52947 9.96616C2.60647 5.49416 4.60447 2.65016 7.46847 1.51516C8.48847 1.11116 9.55447 0.949162 10.6095 0.949162C14.2165 0.949162 17.6795 2.84516 18.6405 3.41716C18.4355 4.32016 17.4785 7.13116 13.3655 8.78616C11.8925 8.80316 10.4575 9.21916 9.20847 9.99116C6.92247 11.4012 5.50147 13.8222 5.40947 16.4672C5.40447 16.5612 5.40247 16.6542 5.40247 16.7502C5.40247 16.8992 5.40747 17.0492 5.41547 17.2022C5.67447 21.7672 8.61247 24.9162 10.8465 26.6692ZM6.34847 16.5102L6.34947 16.5022C6.35547 16.3132 6.37347 16.1252 6.39447 15.9382C6.64047 13.8452 7.83247 11.9622 9.66647 10.8162C9.67847 10.8092 9.69047 10.8002 9.70247 10.7922C10.2075 10.4802 10.7485 10.2372 11.3105 10.0612C11.8165 9.90116 12.3385 9.79716 12.8695 9.75416C13.0285 9.74016 13.1875 9.73316 13.3465 9.73116C13.3845 9.73116 13.4205 9.72716 13.4565 9.72716H13.5465L13.6295 9.69316C13.7275 9.65516 13.8205 9.61416 13.9145 9.57516C17.9685 7.86916 19.1635 5.08116 19.5015 3.84816C19.5975 3.49716 19.6245 3.27216 19.6285 3.23316L19.6595 2.94816L19.5745 2.89316L19.4195 2.79016C19.1465 2.61116 12.6855 -1.56084 7.12547 0.639162C3.95847 1.89316 1.76747 4.95716 0.615469 9.74516C-0.505531 14.3992 -0.0925308 18.3392 1.84247 21.4542C4.46547 25.6792 9.15847 27.2852 11.7215 27.8662C11.7775 27.8792 11.8325 27.8852 11.8885 27.8852C12.1705 27.8852 12.4275 27.7212 12.5455 27.4502C12.6865 27.1282 12.5825 26.7642 12.2935 26.5662C10.1925 25.1202 6.62847 21.9732 6.35447 17.1512C6.35147 17.0852 6.35147 17.0202 6.34947 16.9542C6.34747 16.8862 6.34347 16.8172 6.34347 16.7502C6.34347 16.6692 6.34547 16.5892 6.34847 16.5102Z" fill="#333333"/>
<path fill-rule="evenodd" clip-rule="evenodd" d="M32.4268 10.6613C32.8618 10.8583 33.4378 11.0063 34.1938 11.0063C34.5468 11.0063 34.9398 10.9733 35.3748 10.8993C35.5548 10.8693 35.7378 10.8433 35.9208 10.8163C35.9078 10.8083 35.8968 10.8013 35.8848 10.7933V10.7923C35.3798 10.4803 34.8388 10.2383 34.2778 10.0603C33.5648 10.0733 33.0638 9.93435 32.7178 9.75435C32.5588 9.74035 32.3998 9.73335 32.2398 9.73035L31.7998 10.2783C31.9648 10.4103 32.1718 10.5453 32.4268 10.6613Z" fill="#333333"/>
<path fill-rule="evenodd" clip-rule="evenodd" d="M39.2375 16.511C39.2315 16.319 39.2135 16.128 39.1915 15.939C36.6605 17.183 33.5765 16.49 31.9065 14.255C31.8945 14.238 31.8825 14.22 31.8695 14.203C31.8295 14.148 31.7885 14.091 31.7485 14.033L30.9775 14.574C31.0345 14.656 31.0925 14.737 31.1525 14.817C31.3155 15.035 31.4905 15.241 31.6765 15.435C32.9635 16.778 34.7455 17.496 36.5655 17.496C37.4655 17.496 38.3735 17.318 39.2375 16.954C39.2385 16.886 39.2425 16.818 39.2425 16.75C39.2425 16.669 39.2415 16.59 39.2375 16.511Z" fill="#333333"/>
<mask id="mask0" mask-type="alpha" maskUnits="userSpaceOnUse" x="25" y="0" width="21" height="28">
<path fill-rule="evenodd" clip-rule="evenodd" d="M25.9272 0H45.5862V27.8854H25.9272V0Z" fill="white"/>
</mask>
<g mask="url(#mask0)">
<path fill-rule="evenodd" clip-rule="evenodd" d="M36.3782 9.99144C35.1282 9.21944 33.6932 8.80344 32.2212 8.78644C28.1062 7.13044 27.1502 4.31844 26.9452 3.41644C28.1862 2.67844 33.5992 -0.27456 38.1142 1.51344C40.9812 2.64844 42.9802 5.49244 44.0572 9.96644C45.1162 14.3664 44.7422 18.0644 42.9452 20.9584C40.8342 24.3584 37.2402 25.9464 34.7412 26.6694C36.9742 24.9174 39.9122 21.7674 40.1712 17.2004C40.1792 17.0504 40.1842 16.8994 40.1842 16.7504C40.1842 16.6524 40.1822 16.5564 40.1772 16.4704C40.0862 13.8234 38.6652 11.4024 36.3782 9.99144ZM33.2952 26.5654C33.0042 26.7634 32.9002 27.1284 33.0412 27.4504C33.1592 27.7204 33.4172 27.8854 33.6982 27.8854C33.7532 27.8854 33.8092 27.8794 33.8642 27.8664C36.4282 27.2854 41.1212 25.6794 43.7442 21.4544C45.6792 18.3394 46.0922 14.3994 44.9712 9.74544C43.8182 4.95744 41.6282 1.89244 38.4612 0.63844C32.9022 -1.56156 26.4402 2.61144 26.1682 2.79044L26.0092 2.89444L25.9272 2.94844L25.9582 3.23344C25.9622 3.27144 25.9892 3.49844 26.0862 3.85044C26.4242 5.08344 27.6172 7.85944 31.6472 9.56444C31.7492 9.60744 31.8502 9.65144 31.9572 9.69344L32.0402 9.72644H32.1292C32.1662 9.72644 32.2032 9.73044 32.2392 9.73044C32.3992 9.73344 32.5582 9.74044 32.7172 9.75444C33.2492 9.79744 33.7722 9.90144 34.2772 10.0604C34.8382 10.2384 35.3792 10.4804 35.8842 10.7924V10.7934C35.8962 10.8014 35.9082 10.8084 35.9202 10.8164C37.7522 11.9614 38.9432 13.8414 39.1912 15.9384C39.2132 16.1284 39.2312 16.3184 39.2372 16.5114C39.2422 16.5904 39.2432 16.6694 39.2432 16.7504C39.2432 16.8174 39.2392 16.8864 39.2372 16.9544C39.2352 17.0194 39.2352 17.0844 39.2322 17.1484C38.9582 21.9734 35.3942 25.1204 33.2952 26.5654Z" fill="#333333"/>
</g>
<path fill-rule="evenodd" clip-rule="evenodd" d="M29.9485 18.4309C29.8775 18.4539 29.8335 18.5159 29.8505 18.5669C29.8675 18.6179 29.9395 18.6389 30.0105 18.6149C30.0815 18.5909 30.1255 18.5299 30.1085 18.4789C30.0915 18.4279 30.0195 18.4069 29.9485 18.4309Z" fill="#333333"/>
<path fill-rule="evenodd" clip-rule="evenodd" d="M30.0105 18.6145C29.9395 18.6385 29.8675 18.6175 29.8505 18.5665C29.8335 18.5155 29.8775 18.4545 29.9485 18.4305C30.0195 18.4065 30.0915 18.4275 30.1085 18.4785C30.1255 18.5295 30.0815 18.5915 30.0105 18.6145ZM29.7415 17.8185C29.1955 18.0035 28.8575 18.4685 28.9895 18.8575C29.1125 19.2235 29.6105 19.3875 30.1245 19.2515C30.1555 19.2435 30.1865 19.2375 30.2175 19.2275C30.7635 19.0425 31.1005 18.5765 30.9695 18.1875C30.8895 17.9525 30.6545 17.8005 30.3595 17.7575C30.1695 17.7285 29.9555 17.7465 29.7415 17.8185Z" fill="#333333"/>
<path fill-rule="evenodd" clip-rule="evenodd" d="M15.5129 18.4309C15.4419 18.4069 15.3699 18.4279 15.3519 18.4789C15.3349 18.5299 15.3799 18.5909 15.4509 18.6149C15.5219 18.6389 15.5939 18.6179 15.6109 18.5669C15.6279 18.5159 15.5839 18.4539 15.5129 18.4309Z" fill="#333333"/>
<path fill-rule="evenodd" clip-rule="evenodd" d="M15.4506 18.6145C15.3796 18.5915 15.3356 18.5295 15.3526 18.4785C15.3696 18.4275 15.4416 18.4065 15.5126 18.4305C15.5846 18.4545 15.6286 18.5155 15.6116 18.5665C15.5946 18.6175 15.5216 18.6385 15.4506 18.6145ZM16.4716 18.8575C16.6036 18.4685 16.2656 18.0035 15.7206 17.8185C15.5416 17.7585 15.3646 17.7385 15.1996 17.7485C14.8606 17.7685 14.5796 17.9265 14.4916 18.1875C14.3606 18.5765 14.6976 19.0425 15.2436 19.2275C15.3096 19.2495 15.3746 19.2655 15.4396 19.2785C15.9156 19.3685 16.3566 19.1995 16.4716 18.8575Z" fill="#333333"/>
</svg>