<svg width="36" height="41" viewBox="0 0 36 41" fill="none" xmlns="http://www.w3.org/2000/svg">
<path fill-rule="evenodd" clip-rule="evenodd" d="M9.07056 34.0704C8.89656 34.0464 8.72256 34.0144 8.54956 33.9714C8.72256 34.0144 8.89656 34.0474 9.07056 34.0704Z" fill="#333333"/>
<path fill-rule="evenodd" clip-rule="evenodd" d="M10.185 34.1065C10.104 34.1125 10.024 34.1155 9.94296 34.1185C10.024 34.1155 10.104 34.1125 10.185 34.1065Z" fill="#333333"/>
<path fill-rule="evenodd" clip-rule="evenodd" d="M12.0862 32.5001C12.1482 32.4601 12.2112 32.4201 12.2712 32.3761C12.2112 32.4201 12.1482 32.4601 12.0862 32.5001Z" fill="#333333"/>
<path fill-rule="evenodd" clip-rule="evenodd" d="M11.7714 32.6856C11.8424 32.6476 11.9144 32.6096 11.9844 32.5676C11.9144 32.6096 11.8424 32.6476 11.7714 32.6856Z" fill="#333333"/>
<path fill-rule="evenodd" clip-rule="evenodd" d="M12.3834 32.2873C12.4374 32.2453 12.4914 32.2053 12.5444 32.1603C12.4914 32.2053 12.4374 32.2453 12.3834 32.2873Z" fill="#333333"/>
<path fill-rule="evenodd" clip-rule="evenodd" d="M8.48945 33.959C8.30145 33.91 8.11445 33.848 7.93145 33.777C8.11445 33.848 8.30145 33.91 8.48945 33.959Z" fill="#333333"/>
<path fill-rule="evenodd" clip-rule="evenodd" d="M7.81548 33.7305C7.63048 33.6545 7.44748 33.5705 7.26948 33.4715C7.44748 33.5715 7.63048 33.6545 7.81548 33.7305Z" fill="#333333"/>
<path fill-rule="evenodd" clip-rule="evenodd" d="M11.4296 32.8488C11.5156 32.8128 11.6006 32.7758 11.6846 32.7338C11.6006 32.7758 11.5156 32.8128 11.4296 32.8488Z" fill="#333333"/>
<path fill-rule="evenodd" clip-rule="evenodd" d="M11.0771 32.9805C11.1771 32.9485 11.2761 32.9135 11.3741 32.8745C11.2761 32.9135 11.1771 32.9485 11.0771 32.9805Z" fill="#333333"/>
<path fill-rule="evenodd" clip-rule="evenodd" d="M12.7985 31.921C12.7545 31.966 12.7065 32.008 12.6605 32.051C12.7055 32.009 12.7525 31.968 12.7965 31.924C12.7975 31.923 12.7985 31.921 12.7985 31.921Z" fill="#333333"/>
<path fill-rule="evenodd" clip-rule="evenodd" d="M13.1157 32.9083C13.2347 32.8073 13.3507 32.7023 13.4617 32.5893C13.4727 32.5793 13.4827 32.5703 13.4927 32.5593C13.4937 32.5583 13.4947 32.5573 13.4957 32.5553C13.4897 32.5623 13.4837 32.5683 13.4767 32.5753L13.4747 32.5733C13.4657 32.5823 13.4577 32.5923 13.4487 32.5993C13.3427 32.7093 13.2297 32.8103 13.1157 32.9083Z" fill="#333333"/>
<path fill-rule="evenodd" clip-rule="evenodd" d="M12.4995 33.3536C12.4715 33.3716 12.4425 33.3886 12.4135 33.4056C12.4425 33.3886 12.4715 33.3716 12.4995 33.3536Z" fill="#333333"/>
<path fill-rule="evenodd" clip-rule="evenodd" d="M11.0545 32.9883C9.97252 33.3273 8.76752 33.2283 7.72852 32.6493C8.76752 33.2283 9.97252 33.3273 11.0545 32.9883Z" fill="#333333"/>
<path fill-rule="evenodd" clip-rule="evenodd" d="M12.0994 33.5782C12.0914 33.5822 12.0834 33.5862 12.0754 33.5892C12.0834 33.5862 12.0914 33.5822 12.0994 33.5782Z" fill="#333333"/>
<path fill-rule="evenodd" clip-rule="evenodd" d="M11.0056 33.9756C10.9696 33.9846 10.9346 33.9946 10.8986 34.0016C10.9346 33.9946 10.9696 33.9846 11.0056 33.9756Z" fill="#333333"/>
<path fill-rule="evenodd" clip-rule="evenodd" d="M10.6189 34.0528C10.5569 34.0638 10.4939 34.0738 10.4319 34.0798C10.4939 34.0728 10.5569 34.0638 10.6189 34.0528Z" fill="#333333"/>
<path fill-rule="evenodd" clip-rule="evenodd" d="M12.9044 33.0743C12.8604 33.1083 12.8154 33.1423 12.7704 33.1753C12.8154 33.1423 12.8604 33.1073 12.9044 33.0743Z" fill="#333333"/>
<path fill-rule="evenodd" clip-rule="evenodd" d="M8.03781 30.5733C7.91181 30.8013 7.99281 31.0873 8.21981 31.2143L8.67781 30.3923C8.45181 30.2653 8.16381 30.3463 8.03781 30.5733Z" fill="#333333"/>
<path fill-rule="evenodd" clip-rule="evenodd" d="M9.74325 34.1221C9.56025 34.1201 9.37725 34.1091 9.19425 34.0881C9.37725 34.1081 9.56025 34.1211 9.74325 34.1221Z" fill="#333333"/>
<path fill-rule="evenodd" clip-rule="evenodd" d="M15.9419 21.2999L15.9439 21.2989C15.9439 21.2989 15.9439 21.3009 15.9439 21.3019C15.9439 21.3009 15.9439 21.2979 15.9439 21.2979L15.9419 21.2999Z" fill="white"/>
<path fill-rule="evenodd" clip-rule="evenodd" d="M29.8378 10.5146C29.7537 10.6706 29.5928 10.7636 29.4228 10.7636C29.3738 10.7636 29.3238 10.7556 29.2747 10.7396L28.7908 10.5786C28.4838 10.4776 28.2327 10.2526 28.1027 9.96264C27.9798 9.68964 27.9757 9.37764 28.0918 9.10964L28.2548 8.73164L27.8767 8.89464C27.7467 8.95164 27.6068 8.97864 27.4657 8.97864C27.3158 8.97864 27.1648 8.94764 27.0238 8.88364C26.7338 8.75364 26.5087 8.50164 26.4067 8.19564L26.2467 7.71164C26.1748 7.49364 26.2698 7.25664 26.4718 7.14964C26.6748 7.03964 26.9248 7.09364 27.0648 7.27464C27.4587 7.78064 28.0188 7.74964 28.4218 7.63464L28.9778 7.39564C28.9798 7.39464 28.9818 7.39464 28.9827 7.39364C29.0308 7.37464 29.0808 7.36464 29.1318 7.36164C29.1427 7.36064 29.1517 7.35864 29.1617 7.35864C29.2037 7.35864 29.2438 7.36664 29.2847 7.37764C29.3028 7.38264 29.3217 7.38664 29.3387 7.39364C29.3507 7.39864 29.3628 7.39864 29.3748 7.40464C29.3948 7.41364 29.4078 7.43164 29.4258 7.44464C29.4488 7.46064 29.4718 7.47564 29.4918 7.49464C29.5107 7.51564 29.5258 7.53664 29.5417 7.55964C29.5548 7.57764 29.5717 7.59164 29.5828 7.61264C29.5887 7.62264 29.5878 7.63564 29.5928 7.64764C29.5998 7.66364 29.6027 7.68164 29.6077 7.69864C29.6198 7.74064 29.6298 7.78364 29.6287 7.82664C29.6287 7.83364 29.6278 7.84064 29.6267 7.84864C29.6238 7.90164 29.6138 7.95364 29.5918 8.00464C29.5918 8.00564 29.5918 8.00764 29.5907 8.00864L29.3628 8.53864C29.2428 8.94464 29.1997 9.52364 29.7118 9.92164C29.8927 10.0626 29.9457 10.3126 29.8378 10.5146ZM34.9527 7.26564C34.9527 7.24764 34.9447 7.23264 34.9468 7.21464C34.9808 6.78564 34.3417 5.50264 32.8197 3.98864C31.2687 2.50164 29.9688 1.88164 29.5407 1.93864C27.4287 1.95164 25.3287 2.63064 23.6427 3.85664C24.0357 4.28064 24.5697 4.24164 24.9528 4.12964L25.4838 3.90064H25.4858C25.5367 3.87864 25.5877 3.86864 25.6427 3.86564C25.6508 3.86564 25.6577 3.86364 25.6657 3.86364C25.7087 3.86364 25.7507 3.87064 25.7937 3.88364C25.8108 3.88864 25.8278 3.89164 25.8438 3.89864C25.8558 3.90364 25.8688 3.90364 25.8798 3.90964C25.9008 3.91964 25.9137 3.93664 25.9327 3.95064C25.9548 3.96564 25.9777 3.98164 25.9967 4.00064C26.0168 4.02064 26.0317 4.04164 26.0468 4.06564C26.0608 4.08364 26.0778 4.09664 26.0878 4.11764C26.0938 4.12864 26.0938 4.14164 26.0988 4.15364C26.1058 4.16964 26.1088 4.18564 26.1128 4.20264C26.1248 4.24464 26.1348 4.28864 26.1337 4.33364C26.1337 4.33964 26.1327 4.34564 26.1327 4.35164C26.1297 4.40564 26.1198 4.45864 26.0968 4.51164C26.0968 4.51264 26.0968 4.51364 26.0968 4.51364L25.8678 5.04364C25.7487 5.45064 25.7058 6.02964 26.2168 6.42664C26.3977 6.56764 26.4507 6.81864 26.3427 7.01964C26.2587 7.17664 26.0977 7.26864 25.9277 7.26864C25.8787 7.26864 25.8287 7.26064 25.7797 7.24464L25.2957 7.08464C24.9897 6.98364 24.7378 6.75864 24.6077 6.46764C24.4847 6.19464 24.4808 5.88364 24.5968 5.61564L24.7598 5.23764L24.3818 5.40064C24.2528 5.45564 24.1117 5.48464 23.9707 5.48464C23.8217 5.48464 23.6707 5.45264 23.5297 5.38964C23.2397 5.25964 23.0148 5.00864 22.9128 4.70164L22.8468 4.50064C22.6698 4.65864 22.4917 4.81464 22.3247 4.98564C21.2417 6.09364 20.4138 7.46064 19.9297 8.93664C19.7168 9.58464 19.4047 10.1816 19.0008 10.7116C17.3177 12.9176 15.1947 14.2696 13.8438 14.9736C15.5877 15.8396 17.8597 17.9426 18.5237 18.5766H18.5248C18.5308 18.5816 18.5528 18.6026 18.5578 18.6086C20.0238 20.0696 21.4467 21.9436 22.2577 23.2696C22.9028 21.9076 24.1798 19.7696 26.4307 17.9646C26.9497 17.5486 27.5388 17.2216 28.1818 16.9936C29.6458 16.4726 30.9918 15.6126 32.0748 14.5026C32.1808 14.3946 32.2738 14.2786 32.3738 14.1656C32.0697 14.0636 31.8218 13.8406 31.6928 13.5526C31.5698 13.2796 31.5658 12.9686 31.6817 12.7006L31.8447 12.3226L31.4667 12.4856C31.3377 12.5406 31.1968 12.5696 31.0557 12.5696C30.9067 12.5696 30.7558 12.5376 30.6147 12.4746C30.3247 12.3436 30.0997 12.0936 29.9977 11.7856L29.8378 11.3016C29.7658 11.0836 29.8608 10.8466 30.0627 10.7396C30.2647 10.6306 30.5148 10.6846 30.6548 10.8656C31.0528 11.3756 31.6318 11.3336 32.0378 11.2146L32.5678 10.9856H32.5688C32.6208 10.9636 32.6737 10.9516 32.7297 10.9496C32.7358 10.9496 32.7428 10.9486 32.7498 10.9486C32.7938 10.9476 32.8358 10.9556 32.8787 10.9686C32.8958 10.9736 32.9127 10.9766 32.9287 10.9836C32.9407 10.9886 32.9538 10.9886 32.9648 10.9936C32.9848 11.0046 32.9988 11.0216 33.0177 11.0356C33.0397 11.0506 33.0628 11.0666 33.0818 11.0846C33.1007 11.1056 33.1168 11.1276 33.1318 11.1506C33.1458 11.1686 33.1628 11.1826 33.1728 11.2016C33.1788 11.2136 33.1788 11.2266 33.1838 11.2386C33.1908 11.2546 33.1928 11.2706 33.1978 11.2876C33.2097 11.3296 33.2197 11.3736 33.2188 11.4186C33.2188 11.4246 33.2178 11.4296 33.2178 11.4366C33.2148 11.4906 33.2048 11.5436 33.1817 11.5966C33.1817 11.5976 33.1817 11.5986 33.1817 11.5986L32.9527 12.1286C32.8547 12.4616 32.8138 12.9106 33.0828 13.2816C34.3237 11.5396 34.9848 9.47164 34.9468 7.30764V7.30664V7.30564C34.9458 7.29164 34.9517 7.27964 34.9527 7.26564Z" fill="#2CA697"/>
<path fill-rule="evenodd" clip-rule="evenodd" d="M20.1726 21.9083C20.3796 27.7273 19.2946 31.9993 16.9356 34.6103C15.2606 36.4653 12.9946 37.4513 10.2016 37.5423C10.1206 37.5453 10.0406 37.5463 9.96061 37.5463C7.22061 37.5463 5.44161 36.0123 5.36461 35.9443C5.16961 35.7723 5.15061 35.4753 5.32161 35.2803C5.49261 35.0863 5.78961 35.0653 5.98461 35.2363C6.00161 35.2513 7.67861 36.6653 10.1706 36.6013C12.6986 36.5193 14.7396 35.6373 16.2376 33.9793C18.5926 31.3713 19.5776 26.8883 19.1686 20.6593C18.7686 20.1893 18.3456 19.7253 17.9126 19.2933V19.2943C17.2176 18.6293 16.5756 18.0643 15.9936 17.5883C16.4146 18.6813 16.7046 19.8213 16.8546 20.9963C16.8546 20.9963 16.8566 20.9993 16.8566 21.0013C16.8566 21.0033 16.8556 21.0053 16.8566 21.0073C16.8566 21.0113 16.8576 21.0143 16.8586 21.0183C17.0186 22.2863 17.6116 28.7953 13.4956 32.5553C13.4946 32.5573 13.4936 32.5583 13.4926 32.5593C13.4826 32.5703 13.4726 32.5793 13.4616 32.5893C13.3506 32.7023 13.2346 32.8073 13.1156 32.9083C13.0476 32.9673 12.9756 33.0193 12.9046 33.0743C12.8606 33.1073 12.8156 33.1423 12.7706 33.1753C12.6816 33.2383 12.5916 33.2973 12.4996 33.3533C12.4706 33.3713 12.4426 33.3883 12.4136 33.4053C12.3106 33.4673 12.2066 33.5253 12.0996 33.5783C12.0916 33.5823 12.0836 33.5863 12.0756 33.5893C11.7336 33.7583 11.3756 33.8873 11.0056 33.9753C10.9696 33.9843 10.9346 33.9943 10.8986 34.0023C10.8056 34.0223 10.7126 34.0383 10.6186 34.0533C10.5566 34.0633 10.4946 34.0723 10.4326 34.0803C10.3496 34.0913 10.2676 34.0993 10.1846 34.1063C10.1046 34.1123 10.0246 34.1153 9.94361 34.1183C9.89261 34.1193 9.84161 34.1253 9.79061 34.1253C9.77561 34.1253 9.75961 34.1223 9.74361 34.1223C9.56061 34.1213 9.37761 34.1083 9.19461 34.0883C9.15261 34.0833 9.11161 34.0763 9.07061 34.0703C8.89661 34.0473 8.72261 34.0143 8.54961 33.9713C8.52961 33.9673 8.50961 33.9643 8.48961 33.9593C8.30061 33.9103 8.11461 33.8473 7.93161 33.7773C7.89261 33.7623 7.85461 33.7463 7.81561 33.7303C7.63061 33.6543 7.44761 33.5713 7.26961 33.4713C5.23361 32.3373 4.50061 29.7573 5.63461 27.7213C6.56861 26.0463 8.68961 25.4433 10.3646 26.3763C11.0346 26.7503 11.5206 27.3623 11.7306 28.1013C11.9406 28.8403 11.8496 29.6163 11.4756 30.2873C11.1656 30.8453 10.6546 31.2493 10.0396 31.4253C9.42361 31.5983 8.77761 31.5243 8.21961 31.2143C7.99261 31.0873 7.91161 30.8013 8.03761 30.5733C8.16461 30.3463 8.45161 30.2653 8.67761 30.3923C9.01661 30.5803 9.40861 30.6273 9.78161 30.5193C10.1556 30.4133 10.4646 30.1683 10.6536 29.8293C10.9056 29.3783 10.9656 28.8553 10.8246 28.3583C10.6836 27.8613 10.3576 27.4493 9.90561 27.1983C8.68561 26.5173 7.13761 26.9583 6.45661 28.1793C5.57461 29.7623 6.14561 31.7673 7.72861 32.6493C8.76761 33.2283 9.97261 33.3273 11.0546 32.9883C11.0616 32.9863 11.0686 32.9823 11.0766 32.9803C11.1766 32.9483 11.2766 32.9133 11.3736 32.8743C11.3926 32.8663 11.4106 32.8563 11.4296 32.8483C11.5156 32.8123 11.6006 32.7753 11.6846 32.7333C11.7136 32.7193 11.7416 32.7013 11.7716 32.6853C11.8426 32.6473 11.9146 32.6093 11.9846 32.5673C12.0186 32.5473 12.0516 32.5223 12.0866 32.5003C12.1486 32.4603 12.2106 32.4203 12.2716 32.3763C12.3096 32.3483 12.3456 32.3163 12.3836 32.2873C12.4376 32.2453 12.4916 32.2053 12.5446 32.1603C12.5846 32.1253 12.6216 32.0873 12.6606 32.0513C12.7066 32.0083 12.7546 31.9663 12.7986 31.9213C12.8246 31.8863 12.8826 31.8093 12.9526 31.7173C13.1586 31.4423 13.2996 31.2563 13.4086 31.1303C13.4326 31.0943 13.4546 31.0573 13.4746 31.0193C14.1796 29.7553 14.3496 28.2973 13.9546 26.9093C13.5596 25.5213 12.6486 24.3713 11.3886 23.6703C8.07961 21.8263 3.88861 23.0183 2.04561 26.3263C0.913607 28.3573 0.641607 30.7073 1.27761 32.9433C1.91361 35.1793 3.38161 37.0333 5.41361 38.1643C7.97761 39.5943 10.9466 39.9373 13.7726 39.1353C16.5976 38.3313 18.9406 36.4753 20.3696 33.9103C21.9666 31.0433 22.4946 27.6973 21.8596 24.4843C21.5786 23.9123 20.9666 22.9553 20.1726 21.9083Z" fill="#2CA697"/>
<path fill-rule="evenodd" clip-rule="evenodd" d="M15.6485 19.6446C15.3785 18.5216 14.9715 17.4406 14.4265 16.4146C13.5835 15.8466 12.9875 15.5656 12.7085 15.5226C12.7975 16.0236 13.6775 17.5266 15.6485 19.6446Z" fill="#2CA697"/>
<path fill-rule="evenodd" clip-rule="evenodd" d="M32.3464 11.17C32.4004 11.081 32.4804 11.023 32.5694 10.985H32.5684L32.0374 11.215C31.6314 11.334 31.0534 11.376 30.6554 10.865C30.5144 10.685 30.2644 10.631 30.0624 10.739C29.8604 10.847 29.7654 11.084 29.8374 11.302L29.9974 11.786C30.0994 12.094 30.3244 12.344 30.6154 12.475C30.7554 12.538 30.9064 12.569 31.0554 12.569C31.1974 12.569 31.3374 12.541 31.4674 12.485L31.8444 12.322L32.0624 11.816C32.1404 11.562 32.2444 11.338 32.3464 11.17Z" fill="#333333"/>
<path fill-rule="evenodd" clip-rule="evenodd" d="M33.1732 11.2022C33.1622 11.1822 33.1452 11.1692 33.1322 11.1502C33.1522 11.1792 33.1712 11.2072 33.1832 11.2382C33.1782 11.2262 33.1792 11.2142 33.1732 11.2022Z" fill="#333333"/>
<path fill-rule="evenodd" clip-rule="evenodd" d="M32.9529 12.129L33.1819 11.599C33.1819 11.599 33.1819 11.598 33.1819 11.597C33.2039 11.544 33.2149 11.49 33.2179 11.437C33.2179 11.43 33.2189 11.425 33.2189 11.419C33.2199 11.374 33.2099 11.33 33.1979 11.288C33.1929 11.271 33.1899 11.255 33.1829 11.238C33.1709 11.207 33.1519 11.179 33.1319 11.15C33.1169 11.128 33.1009 11.106 33.0809 11.085C33.0619 11.067 33.0389 11.051 33.0169 11.035C32.9989 11.022 32.9849 11.005 32.9649 10.994C32.9529 10.988 32.9409 10.988 32.9289 10.983C32.9119 10.977 32.8959 10.974 32.8789 10.969C32.8359 10.956 32.7929 10.947 32.7489 10.948C32.7429 10.948 32.7359 10.949 32.7299 10.949C32.6739 10.952 32.6209 10.964 32.5689 10.985C32.4809 11.023 32.3999 11.081 32.3469 11.17C32.2449 11.338 32.1409 11.562 32.0629 11.817L31.8449 12.322L31.6819 12.7C31.5659 12.969 31.5699 13.279 31.6929 13.553C31.8219 13.841 32.0699 14.064 32.3729 14.166C32.6279 13.882 32.8639 13.587 33.0829 13.281C32.8129 12.91 32.8549 12.462 32.9529 12.129Z" fill="#333333"/>
<path fill-rule="evenodd" clip-rule="evenodd" d="M28.7566 7.57915C28.8106 7.49015 28.8926 7.43115 28.9826 7.39315C28.9816 7.39415 28.9796 7.39415 28.9776 7.39515L28.4216 7.63515C28.0186 7.75015 27.4586 7.78015 27.0646 7.27415C26.9246 7.09415 26.6746 7.04015 26.4716 7.14915C26.2696 7.25715 26.1746 7.49415 26.2466 7.71215L26.4066 8.19515C26.5086 8.50215 26.7336 8.75415 27.0236 8.88415C27.1646 8.94715 27.3156 8.97815 27.4656 8.97815C27.6066 8.97815 27.7466 8.95115 27.8766 8.89415L28.2546 8.73115L28.4726 8.22615C28.5506 7.97215 28.6546 7.74815 28.7566 7.57915Z" fill="#333333"/>
<path fill-rule="evenodd" clip-rule="evenodd" d="M29.5824 7.61239C29.5724 7.59139 29.5544 7.57839 29.5414 7.55939C29.5614 7.58839 29.5804 7.61639 29.5934 7.64739C29.5884 7.63539 29.5884 7.62339 29.5824 7.61239Z" fill="#333333"/>
<path fill-rule="evenodd" clip-rule="evenodd" d="M29.3625 8.53915L29.5915 8.00915C29.5915 8.00815 29.5915 8.00615 29.5915 8.00515C29.6135 7.95415 29.6235 7.90115 29.6265 7.84915C29.6275 7.84115 29.6285 7.83415 29.6285 7.82715C29.6295 7.78315 29.6195 7.74015 29.6075 7.69815C29.6025 7.68215 29.5995 7.66415 29.5925 7.64715C29.5805 7.61615 29.5605 7.58815 29.5415 7.56015C29.5265 7.53715 29.5105 7.51615 29.4915 7.49515C29.4715 7.47615 29.4485 7.46115 29.4255 7.44415C29.4075 7.43215 29.3945 7.41415 29.3745 7.40415C29.3625 7.39815 29.3505 7.39815 29.3395 7.39315C29.3215 7.38715 29.3025 7.38315 29.2845 7.37815C29.2435 7.36615 29.2035 7.35815 29.1615 7.35815C29.1525 7.35815 29.1425 7.36015 29.1325 7.36115C29.0805 7.36415 29.0305 7.37515 28.9825 7.39315C28.8925 7.43115 28.8105 7.49015 28.7565 7.57915C28.6545 7.74815 28.5505 7.97215 28.4725 8.22715L28.2545 8.73115L28.0915 9.10915C27.9755 9.37815 27.9795 9.68915 28.1025 9.96315C28.2325 10.2532 28.4835 10.4772 28.7905 10.5792L29.2745 10.7392C29.3235 10.7562 29.3735 10.7642 29.4225 10.7642C29.5925 10.7642 29.7535 10.6712 29.8375 10.5152C29.9455 10.3122 29.8925 10.0622 29.7115 9.92215C29.1995 9.52315 29.2425 8.94415 29.3625 8.53915Z" fill="#333333"/>
<path fill-rule="evenodd" clip-rule="evenodd" d="M22.9127 4.7012C23.0147 5.0092 23.2397 5.2602 23.5297 5.3892C23.6707 5.4532 23.8217 5.4842 23.9707 5.4842C24.1117 5.4842 24.2517 5.4562 24.3817 5.4002L24.7597 5.2372L24.9777 4.7312C25.0557 4.4762 25.1607 4.2532 25.2617 4.0852C25.3147 3.9962 25.3967 3.9372 25.4857 3.9002H25.4837L24.9527 4.1302C24.5697 4.2412 24.0357 4.2802 23.6417 3.8562C23.3677 4.0562 23.1027 4.2712 22.8467 4.5012L22.9127 4.7012Z" fill="#333333"/>
<path fill-rule="evenodd" clip-rule="evenodd" d="M26.0883 4.11725C26.0773 4.09625 26.0603 4.08425 26.0473 4.06525C26.0673 4.09425 26.0863 4.12225 26.0983 4.15325C26.0933 4.14125 26.0943 4.12925 26.0883 4.11725Z" fill="#333333"/>
<path fill-rule="evenodd" clip-rule="evenodd" d="M25.2619 4.08504C25.1599 4.25304 25.0559 4.47704 24.9779 4.73104L24.7599 5.23704L24.5969 5.61504C24.4809 5.88404 24.4849 6.19404 24.6079 6.46804C24.7379 6.75904 24.9899 6.98304 25.2959 7.08504L25.7799 7.24504C25.8289 7.26104 25.8789 7.26904 25.9279 7.26904C26.0969 7.26904 26.2589 7.17704 26.3429 7.02004C26.4509 6.81804 26.3979 6.56704 26.2169 6.42704C25.7049 6.02904 25.7479 5.45004 25.8679 5.04404L26.0959 4.51404C26.0969 4.51404 26.0959 4.51304 26.0969 4.51204C26.1189 4.45904 26.1299 4.40504 26.1329 4.35204C26.1329 4.34604 26.1339 4.34004 26.1339 4.33404C26.1349 4.28904 26.1249 4.24504 26.1129 4.20304C26.1079 4.18604 26.1049 4.17004 26.0979 4.15304C26.0859 4.12204 26.0669 4.09404 26.0469 4.06504C26.0319 4.04204 26.0159 4.02104 25.9959 4.00104C25.9779 3.98104 25.9549 3.96604 25.9319 3.95004C25.9139 3.93704 25.9009 3.92004 25.8799 3.90904C25.8679 3.90304 25.8559 3.90304 25.8439 3.89804C25.8269 3.89204 25.8099 3.88904 25.7929 3.88404C25.7499 3.87104 25.7089 3.86304 25.6649 3.86304C25.6579 3.86304 25.6499 3.86504 25.6429 3.86504C25.5879 3.86804 25.5359 3.87904 25.4859 3.90004C25.3969 3.93804 25.3149 3.99604 25.2619 4.08504Z" fill="#333333"/>
<path fill-rule="evenodd" clip-rule="evenodd" d="M18.5246 18.5772C18.5246 18.5772 18.5246 18.5762 18.5236 18.5762C18.5366 18.5882 18.5506 18.6022 18.5626 18.6132L17.9126 19.2932C18.3456 19.7252 18.7686 20.1892 19.1686 20.6592C19.1646 20.6072 19.1636 20.5572 19.1596 20.5062C19.1416 20.2462 19.3366 20.0212 19.5966 20.0042C19.8576 19.9892 20.0806 20.1812 20.0986 20.4402C20.1326 20.9412 20.1556 21.4292 20.1726 21.9082C20.9666 22.9552 21.5786 23.9122 21.8596 24.4842C21.8566 24.4652 21.8536 24.4452 21.8496 24.4262C21.8466 24.4132 21.8516 24.4012 21.8496 24.3892C21.8456 24.3562 21.8466 24.3262 21.8496 24.2942C21.8526 24.2622 21.8566 24.2312 21.8646 24.2012C21.8686 24.1892 21.8666 24.1772 21.8716 24.1642C21.9596 23.9342 22.0876 23.6272 22.2576 23.2692C21.4466 21.9432 20.0236 20.0692 18.5576 18.6082C18.5526 18.6022 18.5306 18.5822 18.5246 18.5772Z" fill="#333333"/>
<path fill-rule="evenodd" clip-rule="evenodd" d="M15.9189 21.2784L15.9239 21.2824C15.9219 21.2804 15.9199 21.2784 15.9189 21.2774V21.2784Z" fill="#333333"/>
<path fill-rule="evenodd" clip-rule="evenodd" d="M16.856 21.001C16.856 20.999 16.855 20.996 16.855 20.996C16.855 21 16.856 21.003 16.856 21.007C16.856 21.005 16.856 21.003 16.856 21.001Z" fill="#333333"/>
<path fill-rule="evenodd" clip-rule="evenodd" d="M15.9419 21.2999L15.9439 21.3019C15.9439 21.3009 15.9439 21.2989 15.9439 21.2989L15.9419 21.2999Z" fill="#333333"/>
<path fill-rule="evenodd" clip-rule="evenodd" d="M33.4652 3.30283C33.4642 3.30183 33.4622 3.30083 33.4612 3.29983C33.4672 3.30583 33.4742 3.31283 33.4812 3.31883C33.4752 3.31383 33.4702 3.30783 33.4652 3.30283Z" fill="#333333"/>
<path fill-rule="evenodd" clip-rule="evenodd" d="M35.3958 6.79895C35.6508 6.77795 35.8718 6.96995 35.8848 7.22795C35.9178 6.14595 34.6308 4.46395 33.4878 3.32495L32.8358 4.00295C32.8308 3.99795 32.8248 3.99295 32.8198 3.98795C34.3418 5.50295 34.9798 6.78595 34.9468 7.21495C34.9448 7.23295 34.9528 7.24795 34.9528 7.26595C34.9538 7.25195 34.9598 7.23995 34.9608 7.22795C34.9678 7.18895 34.9718 7.14995 34.9868 7.11295C35.0518 6.94095 35.2048 6.80695 35.3958 6.79895Z" fill="#333333"/>
<mask id="mask0" mask-type="alpha" maskUnits="userSpaceOnUse" x="34" y="6" width="2" height="2">
<path fill-rule="evenodd" clip-rule="evenodd" d="M34.9373 6.54382H35.8888V7.54382H34.9373V6.54382Z" fill="white"/>
</mask>
<g mask="url(#mask0)">
<path fill-rule="evenodd" clip-rule="evenodd" d="M35.8845 7.22761C35.8715 6.96961 35.6515 6.77761 35.3955 6.79861C35.2045 6.80661 35.0515 6.94061 34.9875 7.11361C35.0585 6.95061 35.2185 6.83261 35.4085 6.82961C35.6555 6.82561 35.8825 7.03161 35.8875 7.29061L35.8855 7.23161C35.8855 7.22961 35.8845 7.22861 35.8845 7.22761Z" fill="#333333"/>
</g>
<path fill-rule="evenodd" clip-rule="evenodd" d="M34.9466 7.30571V7.30671C34.9466 7.27971 34.9566 7.25471 34.9616 7.22771C34.9596 7.24071 34.9536 7.25171 34.9526 7.26571C34.9516 7.27971 34.9466 7.29171 34.9466 7.30571Z" fill="#333333"/>
<mask id="mask1" mask-type="alpha" maskUnits="userSpaceOnUse" x="21" y="6" width="15" height="19">
<path fill-rule="evenodd" clip-rule="evenodd" d="M21.8647 6.82922H35.8889V24.3823H21.8647V6.82922Z" fill="white"/>
</mask>
<g mask="url(#mask1)">
<path fill-rule="evenodd" clip-rule="evenodd" d="M27.0187 18.6983C27.4557 18.3483 27.9527 18.0733 28.4967 17.8803C30.0947 17.3123 31.5647 16.3723 32.7477 15.1603C34.8247 13.0333 35.9387 10.2393 35.8877 7.29328V7.29128C35.8817 7.03128 35.6547 6.82528 35.4087 6.82928C35.2187 6.83328 35.0587 6.95028 34.9867 7.11328C34.9717 7.14928 34.9677 7.18828 34.9607 7.22728C34.9567 7.25528 34.9457 7.27928 34.9467 7.30628V7.30728C34.9847 9.47128 34.3237 11.5403 33.0827 13.2813C32.8637 13.5873 32.6277 13.8823 32.3727 14.1663C32.2727 14.2783 32.1807 14.3943 32.0747 14.5033C30.9917 15.6123 29.6457 16.4723 28.1817 16.9933C27.5387 17.2213 26.9497 17.5493 26.4307 17.9653C24.1797 19.7693 22.9027 21.9073 22.2577 23.2693C22.0877 23.6273 21.9597 23.9343 21.8717 24.1643C21.8667 24.1773 21.8687 24.1893 21.8647 24.2013C21.9137 24.0403 22.0407 23.9073 22.2177 23.8713C22.4707 23.8203 22.7207 23.9853 22.7717 24.2393C22.7817 24.2873 22.7887 24.3353 22.7967 24.3823C22.8167 24.3333 22.8407 24.2763 22.8647 24.2183C23.3047 23.1703 24.5377 20.6883 27.0187 18.6983Z" fill="#333333"/>
</g>
<path fill-rule="evenodd" clip-rule="evenodd" d="M15.9246 21.1369C15.8606 20.6319 15.7666 20.1349 15.6486 19.6449C13.6776 17.5269 12.7986 16.0239 12.7086 15.5229C12.9876 15.5659 13.5836 15.8469 14.4266 16.4139C14.4086 16.3789 14.3916 16.3429 14.3736 16.3089L15.2006 15.8609C15.5036 16.4209 15.7666 16.9979 15.9936 17.5879C16.5756 18.0649 17.2176 18.6289 17.9126 19.2939V19.2929L18.5626 18.6139C18.5506 18.6029 18.5366 18.5879 18.5236 18.5759C17.8596 17.9429 15.5886 15.8399 13.8436 14.9739C13.3696 15.2209 12.9876 15.3889 12.7576 15.4849L12.3996 14.6149C12.4026 14.6129 12.4066 14.6109 12.4096 14.6099C12.2446 14.6369 12.1016 14.7039 11.9886 14.8199C10.7976 16.0399 15.0026 20.3639 15.9186 21.2779C15.9196 21.2789 15.9216 21.2809 15.9236 21.2829C15.9286 21.2879 15.9356 21.2949 15.9416 21.2999L15.9436 21.2979C15.9366 21.2389 15.9296 21.1829 15.9246 21.1369Z" fill="#333333"/>
<path fill-rule="evenodd" clip-rule="evenodd" d="M29.5406 1.93844C29.9686 1.88144 31.2686 2.50144 32.8196 3.98844C32.8246 3.99344 32.8306 3.99844 32.8356 4.00244L33.4876 3.32544C33.4856 3.32344 33.4826 3.32044 33.4806 3.31844C33.4746 3.31244 33.4676 3.30544 33.4606 3.29944C32.2946 2.18544 30.5846 0.956444 29.5056 1.00144L29.4946 1.42044L29.5406 1.93844Z" fill="#333333"/>
<mask id="mask2" mask-type="alpha" maskUnits="userSpaceOnUse" x="28" y="0" width="2" height="2">
<path fill-rule="evenodd" clip-rule="evenodd" d="M28.981 0.999703H29.981V1.7105H28.981V0.999703Z" fill="white"/>
</mask>
<g mask="url(#mask2)">
<path fill-rule="evenodd" clip-rule="evenodd" d="M29.506 1.00195V0.999949H29.457L29.456 1.00195L29.494 1.42095L29.506 1.00195Z" fill="#333333"/>
</g>
<path fill-rule="evenodd" clip-rule="evenodd" d="M12.7569 15.4844C12.9879 15.3884 13.3689 15.2204 13.8439 14.9734C15.1949 14.2694 17.3179 12.9184 19.0009 10.7124C19.4039 10.1814 19.7159 9.58544 19.9289 8.93644C20.4139 7.46144 21.2419 6.09344 22.3239 4.98544C22.4919 4.81444 22.6699 4.65844 22.8459 4.50144C23.1029 4.27144 23.3679 4.05644 23.6419 3.85644C25.3279 2.63044 27.4279 1.95244 29.5409 1.93844L29.4939 1.42144L29.4559 1.00244H29.4449C26.5019 1.02444 23.7249 2.20344 21.6509 4.32844C20.4689 5.53944 19.5639 7.03144 19.0349 8.64344C18.8559 9.19144 18.5919 9.69544 18.2519 10.1414C16.1299 12.9224 13.2569 14.2594 12.4099 14.6094C12.4059 14.6104 12.4019 14.6124 12.3989 14.6144L12.7569 15.4844Z" fill="#333333"/>
<mask id="mask3" mask-type="alpha" maskUnits="userSpaceOnUse" x="0" y="21" width="24" height="20">
<path fill-rule="evenodd" clip-rule="evenodd" d="M0 21.8705H23.0616V40.5007H0V21.8705Z" fill="white"/>
</mask>
<g mask="url(#mask3)">
<path fill-rule="evenodd" clip-rule="evenodd" d="M22.2176 23.8712C22.0406 23.9072 21.9136 24.0402 21.8646 24.2012C21.8566 24.2312 21.8526 24.2622 21.8496 24.2942C21.8466 24.3262 21.8456 24.3562 21.8496 24.3892C21.8516 24.4012 21.8466 24.4132 21.8496 24.4262C21.8536 24.4452 21.8566 24.4652 21.8606 24.4842C22.4946 27.6972 21.9676 31.0432 20.3696 33.9102C18.9406 36.4752 16.5976 38.3312 13.7726 39.1352C10.9466 39.9372 7.97757 39.5942 5.41357 38.1642C3.38257 37.0332 1.91357 35.1792 1.27757 32.9432C0.641571 30.7072 0.913571 28.3572 2.04557 26.3262C3.88857 23.0182 8.07957 21.8262 11.3886 23.6702C12.6486 24.3712 13.5596 25.5212 13.9546 26.9092C14.3496 28.2972 14.1796 29.7552 13.4746 31.0192C13.4546 31.0582 13.4326 31.0942 13.4086 31.1302C13.4136 31.1252 13.4196 31.1172 13.4246 31.1122C13.4276 31.1082 13.4306 31.1032 13.4346 31.0992L13.4356 31.1002L13.4366 31.0992C13.4426 31.0922 13.4496 31.0842 13.4566 31.0772C13.5756 30.9482 13.6556 30.9072 13.7496 30.9052C14.3306 30.1722 14.7706 29.3682 15.1006 28.5442C15.1156 27.9132 15.0366 27.2762 14.8596 26.6522C14.5986 25.7362 14.1416 24.9142 13.5326 24.2182C13.0586 23.6762 12.4946 23.2082 11.8456 22.8482C10.9996 22.3762 10.1006 22.0882 9.19457 21.9542C6.07357 21.4932 2.84657 22.9542 1.22357 25.8692C-0.0304288 28.1192 -0.332429 30.7232 0.372571 33.2002C1.07757 35.6782 2.70457 37.7322 4.95557 38.9862C6.75657 39.9892 8.73957 40.5012 10.7466 40.5012C11.8426 40.5012 12.9466 40.3482 14.0296 40.0402C17.0966 39.1672 19.6406 37.1532 21.1916 34.3682C22.8846 31.3292 23.4506 27.7892 22.7976 24.3822C22.7886 24.3352 22.7816 24.2872 22.7716 24.2392C22.7206 23.9852 22.4706 23.8202 22.2176 23.8712Z" fill="#333333"/>
</g>
<path fill-rule="evenodd" clip-rule="evenodd" d="M14.2681 31.3087C14.2851 31.4127 14.2611 31.5307 14.2101 31.6237C14.2061 31.6307 14.2021 31.6387 14.1971 31.6467C14.1741 31.6837 14.1531 31.7187 14.1311 31.7517L14.0881 31.8177C14.0841 31.8267 14.0621 31.8597 14.0371 31.8937C14.0361 31.8977 14.0161 31.9247 13.9961 31.9517L13.9671 31.9337C13.8841 32.0437 13.7861 32.1737 13.7041 32.2837C13.6031 32.4157 13.5241 32.5207 13.5091 32.5387C13.4981 32.5507 13.4861 32.5617 13.4751 32.5737L13.4761 32.5757C13.4831 32.5687 13.4891 32.5627 13.4961 32.5557C17.6121 28.7947 17.0181 22.2867 16.8581 21.0187C16.8571 21.0147 16.8561 21.0107 16.8561 21.0067C16.8551 21.0027 16.8551 20.9997 16.8541 20.9957C16.7041 19.8217 16.4141 18.6817 15.9941 17.5877C15.7671 16.9977 15.5031 16.4207 15.2001 15.8607L14.3731 16.3087C14.3921 16.3427 14.4081 16.3787 14.4271 16.4137C14.9711 17.4407 15.3791 18.5217 15.6481 19.6447C15.7661 20.1347 15.8601 20.6317 15.9241 21.1367C15.9301 21.1827 15.9361 21.2387 15.9431 21.2977C15.9431 21.2977 15.9431 21.3007 15.9441 21.3017C16.0041 21.8357 16.0891 22.9087 16.0121 24.2177C15.9341 25.5237 15.6931 27.0657 15.1011 28.5437C14.7701 29.3687 14.3301 30.1717 13.7491 30.9057C13.8011 30.9047 13.8561 30.9117 13.9261 30.9307C14.1041 30.9787 14.2371 31.1267 14.2681 31.3087Z" fill="#333333"/>
<path fill-rule="evenodd" clip-rule="evenodd" d="M12.7987 31.921C12.7987 31.921 12.7977 31.923 12.7967 31.924C12.7527 31.968 12.7057 32.009 12.6607 32.051C12.6217 32.087 12.5847 32.125 12.5447 32.16C12.4917 32.205 12.4377 32.245 12.3837 32.287C12.3457 32.317 12.3097 32.349 12.2717 32.376C12.2107 32.42 12.1487 32.46 12.0867 32.5C12.0517 32.523 12.0187 32.547 11.9847 32.567C11.9147 32.609 11.8427 32.648 11.7717 32.686C11.7417 32.701 11.7137 32.719 11.6847 32.733C11.6007 32.775 11.5157 32.813 11.4297 32.849C11.4107 32.857 11.3927 32.866 11.3737 32.874C11.2767 32.913 11.1767 32.948 11.0767 32.981C11.0697 32.983 11.0617 32.986 11.0547 32.988C9.97266 33.327 8.76766 33.229 7.72866 32.65C6.14566 31.768 5.57466 29.762 6.45666 28.18C7.13766 26.958 8.68566 26.518 9.90566 27.198C10.3577 27.449 10.6837 27.861 10.8247 28.358C10.9657 28.856 10.9057 29.378 10.6537 29.829C10.4657 30.168 10.1557 30.413 9.78166 30.52C9.40866 30.627 9.01666 30.58 8.67766 30.393L8.21966 31.214C8.77766 31.525 9.42366 31.599 10.0397 31.425C10.6547 31.249 11.1657 30.845 11.4757 30.287C11.8497 29.616 11.9407 28.84 11.7307 28.102C11.5207 27.362 11.0347 26.75 10.3647 26.376C8.68966 25.443 6.56866 26.046 5.63466 27.722C4.50066 29.757 5.23366 32.337 7.26966 33.472C7.44766 33.571 7.63066 33.654 7.81566 33.731C7.85466 33.746 7.89266 33.763 7.93166 33.777C8.11466 33.848 8.30066 33.91 8.48966 33.959C8.50966 33.964 8.52966 33.967 8.54966 33.972C8.72266 34.015 8.89666 34.047 9.07066 34.07C9.11166 34.076 9.15266 34.083 9.19466 34.088C9.37766 34.109 9.56066 34.121 9.74366 34.122C9.75966 34.122 9.77566 34.125 9.79066 34.125C9.84166 34.125 9.89266 34.119 9.94366 34.118C10.0247 34.115 10.1047 34.112 10.1847 34.107C10.2677 34.1 10.3497 34.091 10.4327 34.08C10.4947 34.072 10.5567 34.064 10.6187 34.053C10.7127 34.038 10.8057 34.023 10.8987 34.002C10.9347 33.994 10.9697 33.984 11.0057 33.976C11.3757 33.887 11.7337 33.758 12.0757 33.589C12.0837 33.586 12.0917 33.582 12.0997 33.578C12.2067 33.525 12.3107 33.467 12.4137 33.405C12.4427 33.389 12.4707 33.371 12.4997 33.354C12.5917 33.297 12.6817 33.238 12.7707 33.175C12.8157 33.143 12.8607 33.108 12.9047 33.074C12.9757 33.02 13.0477 32.967 13.1157 32.908C13.2297 32.811 13.3417 32.709 13.4487 32.6C13.4577 32.592 13.4657 32.582 13.4747 32.573C13.4867 32.562 13.4987 32.551 13.5087 32.539C13.5247 32.521 13.6037 32.416 13.7047 32.283C13.7867 32.174 13.8837 32.044 13.9677 31.934L13.9967 31.951C14.0157 31.925 14.0357 31.898 14.0367 31.894C14.0627 31.859 14.0847 31.826 14.0887 31.817L14.1317 31.752C14.1527 31.719 14.1747 31.684 14.1977 31.647C14.2017 31.639 14.2067 31.631 14.2107 31.624C14.2607 31.53 14.2857 31.412 14.2687 31.309C14.2377 31.127 14.1047 30.979 13.9267 30.931C13.8567 30.911 13.8017 30.904 13.7497 30.905C13.6557 30.907 13.5757 30.948 13.4567 31.077C13.4497 31.084 13.4427 31.092 13.4367 31.099L13.4357 31.1L13.4347 31.099C13.4307 31.104 13.4277 31.109 13.4237 31.112C13.4197 31.117 13.4137 31.125 13.4087 31.13C13.2997 31.256 13.1587 31.442 12.9527 31.717C12.8827 31.81 12.8247 31.886 12.7987 31.921Z" fill="#333333"/>
<path fill-rule="evenodd" clip-rule="evenodd" d="M16.2373 33.9796C14.7393 35.6366 12.6983 36.5196 10.1703 36.6016C7.67832 36.6656 6.00132 35.2506 5.98532 35.2366C5.78932 35.0656 5.49232 35.0856 5.32132 35.2806C5.15032 35.4756 5.16932 35.7726 5.36432 35.9446C5.44132 36.0116 7.22032 37.5456 9.96032 37.5456C10.0403 37.5456 10.1203 37.5446 10.2013 37.5426C12.9943 37.4516 15.2603 36.4646 16.9353 34.6106C19.2943 31.9996 20.3793 27.7276 20.1723 21.9086C20.1553 21.4286 20.1333 20.9416 20.0983 20.4406C20.0803 20.1816 19.8573 19.9896 19.5963 20.0036C19.3373 20.0216 19.1413 20.2466 19.1593 20.5056C19.1633 20.5576 19.1643 20.6076 19.1683 20.6596C19.5773 26.8886 18.5923 31.3716 16.2373 33.9796Z" fill="#333333"/>
</svg>