<svg width="50" height="50" viewBox="0 0 50 50" fill="none" xmlns="http://www.w3.org/2000/svg">
<rect width="50" height="50" rx="4" fill="#8DBEF6"/>
<mask id="mask0" mask-type="alpha" maskUnits="userSpaceOnUse" x="8" y="8" width="35" height="34">
<path fill-rule="evenodd" clip-rule="evenodd" d="M8.3335 8.35352H42.3828V41.9572H8.3335V8.35352Z" fill="white"/>
</mask>
<g mask="url(#mask0)">
<path fill-rule="evenodd" clip-rule="evenodd" d="M31.6062 37.0232C30.713 38.2594 29.3755 38.9053 27.9171 39.2687C23.2659 40.4276 19.1344 39.4709 15.5672 36.2566C13.064 34.0009 11.3559 31.2817 10.7507 27.9698C9.92926 23.4754 10.935 19.4062 13.8693 15.8432C15.8452 13.444 18.2862 11.7156 21.3322 10.8836C22.6077 10.5352 23.9066 10.354 25.279 10.3514C22.8547 11.0611 20.8945 12.2749 19.7486 14.5099C19.0795 15.8147 18.9723 17.235 19.0573 18.6762C19.1401 20.0784 19.5756 21.3465 20.5115 22.4209C21.6076 23.6792 23.0045 24.4563 24.6074 24.909C25.7037 25.2186 26.821 25.4835 27.8771 25.8978C29.7906 26.6484 31.4417 27.7707 32.2767 29.7276C33.3579 32.2613 33.2562 34.7396 31.6062 37.0232ZM27.3041 17.5079C27.3037 18.7421 26.3001 19.7035 25.0206 19.6952C23.7862 19.6872 22.7921 18.7101 22.7982 17.5107C22.804 16.3506 23.8737 15.3104 25.0477 15.3231C26.3185 15.337 27.3046 16.2917 27.3041 17.5079ZM25.3651 8.35353C16.1862 8.34033 8.34923 15.9546 8.33352 25.14C8.31793 34.2801 16.0498 42.0989 25.3336 41.9553C34.7063 42.1004 42.3759 34.262 42.3829 25.1865C42.3899 15.9883 34.5812 8.3668 25.3651 8.35353Z" fill="#FEFEFE"/>
</g>
<path fill-rule="evenodd" clip-rule="evenodd" d="M25.7432 35.6061C24.4887 35.5978 23.4819 34.5822 23.4849 33.3278C23.4879 32.0589 24.5074 31.0528 25.782 31.0607C27.0419 31.0685 28.033 32.0715 28.0303 33.3361C28.0278 34.5436 26.9494 35.614 25.7432 35.6061Z" fill="#FEFEFE"/>
<path fill-rule="evenodd" clip-rule="evenodd" d="M25.782 31.0607C24.5073 31.0528 23.4879 32.059 23.4849 33.3279C23.4819 34.5822 24.4886 35.5978 25.7432 35.6061C26.9493 35.614 28.0278 34.5437 28.0303 33.3361C28.033 32.0715 27.0419 31.0685 25.782 31.0607Z" fill="#FEFEFE"/>
</svg>