<?xml version="1.0" encoding="utf-8"?>
<!-- Generator: Adobe Illustrator 25.0.0, SVG Export Plug-In . SVG Version: 6.00 Build 0)  -->
<svg version="1.1" id="Layer_1" xmlns="http://www.w3.org/2000/svg" xmlns:xlink="http://www.w3.org/1999/xlink" x="0px" y="0px"
	 viewBox="0 0 32 32" style="enable-background:new 0 0 32 32;" xml:space="preserve">
<style type="text/css">
	.st0{fill:#DB4B33;}
	.st1{fill-rule:evenodd;clip-rule:evenodd;fill:#FFFFFF;}
</style>
<g>
	<circle class="st0" cx="16" cy="16" r="15.9"/>
	<path class="st1" d="M18.9,6.3v-1c0-0.5,0.4-1,1-1c0.5,0,1,0.4,1,1v1h1.9c1.6,0,2.9,1.3,2.9,2.9V13v9.7c0,1.6-1.3,2.9-2.9,2.9H9.2
		c-1.6,0-2.9-1.3-2.9-2.9V13V9.2c0-1.6,1.3-2.9,2.9-2.9h1.9v-1c0-0.5,0.4-1,1-1c0.5,0,1,0.4,1,1v1H18.9z M8.3,14v8.7
		c0,0.5,0.4,1,1,1h13.6c0.5,0,1-0.4,1-1V14H8.3z M23.7,12.1H8.3V9.2c0-0.5,0.4-1,1-1h1.9v1c0,0.5,0.4,1,1,1c0.5,0,1-0.4,1-1v-1h5.8
		v1c0,0.5,0.4,1,1,1c0.5,0,1-0.4,1-1v-1h1.9c0.5,0,1,0.4,1,1V12.1z"/>
</g>
</svg>
