<svg width="33" height="40" viewBox="0 0 33 40" fill="none" xmlns="http://www.w3.org/2000/svg">
<path fill-rule="evenodd" clip-rule="evenodd" d="M29.573 21.8132C29.804 21.6942 29.895 21.4112 29.776 21.1792C29.657 20.9492 29.374 20.8572 29.142 20.9772C28.969 21.0662 28.789 21.1482 28.604 21.2272C28.644 21.5472 28.675 21.8732 28.696 22.2052C28.998 22.0842 29.294 21.9572 29.573 21.8132Z" fill="#333333"/>
<path fill-rule="evenodd" clip-rule="evenodd" d="M30.1767 25.6473C30.4307 25.5893 30.5897 25.3373 30.5307 25.0853C30.4747 24.8313 30.2237 24.6743 29.9687 24.7303C29.5317 24.8293 29.0857 24.8863 28.6357 24.9173C28.6047 25.2293 28.5627 25.5463 28.5127 25.8693C29.0757 25.8413 29.6347 25.7713 30.1767 25.6473Z" fill="#333333"/>
<path fill-rule="evenodd" clip-rule="evenodd" d="M31.3044 11.8114L31.3344 11.7634C31.3394 11.0914 31.1584 8.61737 28.5514 5.14337L28.4984 5.07337L28.4744 4.98837C28.2394 4.15637 26.8624 2.79837 24.3934 1.78437C23.6034 1.45837 22.7894 1.21037 22.0074 1.05237L23.0244 2.79037C23.1214 2.95337 23.1334 3.15737 23.0534 3.33237C22.9694 3.51537 22.7974 3.64537 22.5934 3.68137L20.1504 4.12337C20.7734 4.53937 21.4994 4.92037 22.2894 5.24737C23.8344 5.87837 25.4404 6.21537 26.6904 6.16837L26.9374 6.16037L27.0844 6.35637C29.5894 9.69837 29.4964 11.0694 29.4524 11.7284L29.4464 11.8304C29.4364 12.0084 29.3624 12.1714 29.2394 12.2944C28.7694 13.0014 27.7664 14.0484 26.5514 15.1464C26.7044 15.4124 26.8544 15.6864 26.9984 15.9714C28.9704 14.3844 30.7214 12.7194 31.3044 11.8114Z" fill="#FF6E49"/>
<path fill-rule="evenodd" clip-rule="evenodd" d="M22.7946 18.9364C23.8536 18.3214 25.0606 17.4794 26.2346 16.5734C26.1036 16.3014 25.9656 16.0394 25.8236 15.7854C24.8386 16.6324 23.7676 17.4754 22.7466 18.1884C22.7726 18.4354 22.7876 18.6844 22.7946 18.9364Z" fill="#FF6E49"/>
<path fill-rule="evenodd" clip-rule="evenodd" d="M3.03706 12.2947C2.91506 12.1727 2.84106 12.0107 2.83006 11.8387L2.82306 11.7287C2.77906 11.0687 2.68606 9.69773 5.19106 6.35673L5.33906 6.15873L5.58506 6.16873C6.83906 6.21773 8.44206 5.87873 9.98806 5.24573C10.7771 4.91973 11.5041 4.53773 12.1261 4.12373L9.68006 3.68073C9.47806 3.64573 9.30706 3.51573 9.22306 3.33173C9.14206 3.15673 9.15406 2.95273 9.25406 2.78573L10.2681 1.05273C9.48606 1.21073 8.67306 1.45873 7.88306 1.78373C5.41406 2.79873 4.03706 4.15573 3.80106 4.98873L3.77706 5.07273L3.72506 5.14373C1.10906 8.62773 0.935059 11.1067 0.941059 11.7637L0.972059 11.8117C1.52306 12.6707 3.23006 14.3467 5.18506 15.9567C5.33706 15.6567 5.49606 15.3687 5.65806 15.0897C4.47306 14.0157 3.50206 12.9957 3.03706 12.2947Z" fill="#FF6E49"/>
<path fill-rule="evenodd" clip-rule="evenodd" d="M9.42036 18.1111C8.40136 17.3931 7.34736 16.5621 6.38336 15.7301C6.23236 16.0001 6.08536 16.2781 5.94336 16.5681C7.09736 17.4771 8.29536 18.3261 9.36736 18.9491C9.37436 18.6681 9.39036 18.3871 9.42036 18.1111Z" fill="#FF6E49"/>
<path fill-rule="evenodd" clip-rule="evenodd" d="M12.8557 38.2527C12.9527 38.4007 13.0647 38.4867 13.1887 38.5097C13.5337 38.5727 14.0107 38.1817 14.3847 37.5457C14.3947 37.5277 14.4107 37.5187 14.4227 37.5027C14.4437 37.4757 14.4637 37.4487 14.4907 37.4267C14.5147 37.4057 14.5417 37.3937 14.5677 37.3787C14.5867 37.3667 14.6017 37.3517 14.6237 37.3437C14.6317 37.3407 14.6407 37.3427 14.6487 37.3397C14.6807 37.3287 14.7127 37.3267 14.7467 37.3237C14.7737 37.3207 14.8007 37.3157 14.8277 37.3187C14.8587 37.3207 14.8877 37.3317 14.9187 37.3397C14.9477 37.3487 14.9757 37.3557 15.0027 37.3687C15.0107 37.3737 15.0207 37.3727 15.0287 37.3777C15.0487 37.3897 15.0607 37.4077 15.0777 37.4227C15.1017 37.4407 15.1247 37.4587 15.1447 37.4817C15.1677 37.5097 15.1837 37.5387 15.1997 37.5697C15.2087 37.5867 15.2227 37.5997 15.2297 37.6167C15.4467 38.1907 15.7817 38.5617 16.0827 38.5617C16.3847 38.5617 16.7197 38.1917 16.9367 37.6217C16.9437 37.6037 16.9587 37.5907 16.9667 37.5737C16.9827 37.5437 16.9987 37.5147 17.0217 37.4867C17.0427 37.4627 17.0657 37.4447 17.0907 37.4257C17.1067 37.4117 17.1187 37.3947 17.1377 37.3827C17.1457 37.3787 17.1547 37.3787 17.1627 37.3747C17.1917 37.3587 17.2227 37.3517 17.2547 37.3427C17.2827 37.3357 17.3087 37.3257 17.3367 37.3237C17.3657 37.3207 17.3947 37.3257 17.4237 37.3287C17.4567 37.3317 17.4877 37.3347 17.5187 37.3447C17.5267 37.3477 17.5357 37.3457 17.5437 37.3497C17.5637 37.3567 17.5767 37.3717 17.5947 37.3817C17.6237 37.3967 17.6507 37.4107 17.6767 37.4327C17.7027 37.4547 17.7227 37.4807 17.7427 37.5067C17.7547 37.5227 17.7717 37.5327 17.7817 37.5507C18.1537 38.1827 18.6307 38.5637 18.9717 38.5107C19.0957 38.4887 19.2087 38.4017 19.3067 38.2527C19.6167 37.7807 19.6757 36.8857 19.4567 35.9717C19.2987 35.3157 19.0207 34.7267 18.6817 34.3087C18.3717 34.5737 17.9827 34.7957 17.5347 34.9437C17.2937 35.0237 17.0427 35.0817 16.7897 35.1177C16.5617 35.1517 16.3217 35.1707 16.0817 35.1707C15.8417 35.1707 15.6057 35.1527 15.3777 35.1187C15.1247 35.0827 14.8717 35.0237 14.6317 34.9427C14.1867 34.7987 13.7987 34.5787 13.4877 34.3137C13.1497 34.7317 12.8707 35.3187 12.7127 35.9697C12.4907 36.8847 12.5467 37.7807 12.8557 38.2527Z" fill="#FF6E49"/>
<path fill-rule="evenodd" clip-rule="evenodd" d="M13.0348 24.3876C13.1008 24.1686 13.3148 24.0336 13.5428 24.0576C14.4958 24.1796 15.0518 23.5476 15.3448 23.0116L15.6368 22.2786C15.6748 22.1636 15.7538 22.0706 15.8648 22.0136C15.8748 22.0086 15.8838 22.0016 15.8938 21.9976C15.9078 21.9916 15.9178 21.9826 15.9308 21.9776C15.9558 21.9696 15.9798 21.9726 16.0048 21.9686C16.0298 21.9646 16.0538 21.9606 16.0788 21.9596C16.1058 21.9606 16.1308 21.9646 16.1568 21.9686C16.1808 21.9726 16.2038 21.9696 16.2278 21.9776C16.2418 21.9816 16.2518 21.9916 16.2648 21.9966C16.2748 22.0016 16.2848 22.0086 16.2948 22.0136C16.4058 22.0716 16.4838 22.1636 16.5228 22.2786L16.8038 22.9856C17.0958 23.5266 17.6558 24.1746 18.6168 24.0576C18.8458 24.0336 19.0578 24.1686 19.1248 24.3876C19.1908 24.6066 19.0908 24.8416 18.8858 24.9446L18.2738 25.2526C18.0758 25.3526 17.8598 25.4026 17.6448 25.4026C17.4808 25.4026 17.3168 25.3726 17.1618 25.3136C16.8228 25.1846 16.5648 24.9326 16.4338 24.6056L16.0798 23.7116L15.7248 24.6056C15.5948 24.9326 15.3358 25.1846 14.9968 25.3136C14.8428 25.3726 14.6788 25.4026 14.5138 25.4026C14.2998 25.4026 14.0838 25.3526 13.8868 25.2526L13.2738 24.9446C13.0688 24.8416 12.9678 24.6066 13.0348 24.3876ZM10.3018 19.1906C10.3018 19.2816 10.3138 19.3706 10.3168 19.4616H10.3178V19.4836C10.3568 20.6606 10.6188 21.8086 11.1038 22.8186L11.1318 22.8756C11.3268 23.2066 13.7778 27.4656 13.6698 32.8266C13.6698 33.0096 13.7348 33.1886 13.8618 33.3596C14.0788 33.6526 14.4568 33.8976 14.9258 34.0496C15.1158 34.1136 15.3118 34.1586 15.5138 34.1876C15.8848 34.2436 16.2808 34.2426 16.6528 34.1876C16.8558 34.1586 17.0518 34.1126 17.2408 34.0506C17.7108 33.8956 18.0888 33.6486 18.3038 33.3556C18.4198 33.2006 18.4688 33.0486 18.4688 32.8466C18.4688 32.8326 18.4688 32.8176 18.4688 32.7986L18.3888 32.7196L18.4728 32.5146C18.4648 27.3516 20.7878 23.2936 21.0208 22.8986L21.0388 22.8666C21.1558 22.6296 21.2768 22.3416 21.3858 22.0376C21.7018 21.1376 21.8628 20.1786 21.8628 19.1906C21.8628 18.2696 21.7228 17.3746 21.4478 16.5306C21.3268 16.1546 21.1798 15.7916 21.0068 15.4496C20.4398 14.3136 19.6318 13.3976 18.6688 12.8006L18.3098 12.5776L18.4888 12.2046L18.4928 12.1976C18.6468 11.8746 18.7258 11.5286 18.7258 11.1686C18.7258 10.7776 18.6298 10.3946 18.4468 10.0486L16.1668 11.3506L13.7588 9.97559C13.5498 10.3386 13.4398 10.7466 13.4398 11.1686C13.4398 11.5156 13.5138 11.8496 13.6578 12.1646C13.6758 12.1956 13.6888 12.2256 13.6998 12.2586L13.8518 12.5776L13.4948 12.8006C13.4898 12.8036 13.4848 12.8076 13.4798 12.8106C13.4698 12.8156 13.4618 12.8246 13.4518 12.8286C11.5078 14.0616 10.3018 16.4916 10.3018 19.1906Z" fill="#FF6E49"/>
<path fill-rule="evenodd" clip-rule="evenodd" d="M29.2392 12.2948C29.3622 12.1718 29.4362 12.0088 29.4462 11.8298L29.4532 11.7288C29.4972 11.0688 29.5902 9.69776 27.0852 6.35676L26.9372 6.15976L26.6902 6.16876C25.4402 6.21576 23.8352 5.87876 22.2902 5.24676C21.5002 4.92076 20.7732 4.53876 20.1502 4.12276L22.5932 3.68176C22.7982 3.64576 22.9692 3.51576 23.0532 3.33176C23.1342 3.15676 23.1222 2.95276 23.0242 2.79076L22.0082 1.05276C22.7902 1.21076 23.6032 1.45876 24.3932 1.78376C26.8622 2.79876 28.2392 4.15576 28.4742 4.98776L28.4992 5.07276L28.5522 5.14376C31.1592 8.61676 31.3402 11.0918 31.3352 11.7638L31.3042 11.8118C30.7212 12.7198 28.9702 14.3848 26.9992 15.9718C27.1412 16.2548 27.2792 16.5468 27.4102 16.8488C29.5002 15.1808 31.3792 13.3958 32.0602 12.3738C32.1912 12.2438 32.2672 12.0728 32.2722 11.8988C32.3042 11.1548 32.1862 8.44576 29.3532 4.64476C28.9272 3.34876 27.1362 1.89476 24.7522 0.913756C23.6602 0.465756 22.5232 0.150756 21.4662 0.00775551C21.2202 -0.0292445 20.9852 0.0747555 20.8502 0.273756C20.7232 0.459756 20.7142 0.697756 20.8282 0.899756L21.9632 2.83876L19.2092 3.33776C18.9672 3.38276 18.7732 3.56076 18.7162 3.78976C18.6602 4.01676 18.7412 4.24776 18.9242 4.39276C19.7312 5.04076 20.7702 5.63776 21.9322 6.11676C23.4942 6.75576 25.1282 7.11376 26.4642 7.11376H26.4752C28.6252 10.0328 28.5482 11.1718 28.5132 11.6648L28.4822 11.7328C28.1122 12.3108 27.2082 13.2728 26.0512 14.3278C26.2212 14.5898 26.3882 14.8628 26.5512 15.1468C27.7662 14.0488 28.7692 13.0018 29.2392 12.2948Z" fill="#333333"/>
<path fill-rule="evenodd" clip-rule="evenodd" d="M22.8046 19.1902C22.8046 19.4712 22.7916 19.7502 22.7686 20.0272C23.9296 19.4032 25.2946 18.4782 26.6296 17.4592C26.5046 17.1542 26.3736 16.8582 26.2356 16.5732C25.0606 17.4792 23.8536 18.3212 22.7946 18.9362C22.7966 19.0212 22.8046 19.1042 22.8046 19.1902Z" fill="#333333"/>
<path fill-rule="evenodd" clip-rule="evenodd" d="M22.747 18.1882C23.768 17.4752 24.839 16.6322 25.824 15.7852C25.666 15.5002 25.502 15.2282 25.335 14.9652C24.48 15.7082 23.535 16.4662 22.583 17.1522C22.657 17.4922 22.711 17.8372 22.747 18.1882Z" fill="#333333"/>
<path fill-rule="evenodd" clip-rule="evenodd" d="M9.36132 19.1902C9.36132 19.1092 9.36532 19.0292 9.36732 18.9492C8.29532 18.3262 7.09732 17.4772 5.94432 16.5682C5.80532 16.8522 5.67432 17.1482 5.54932 17.4522C6.88632 18.4912 8.25332 19.4272 9.40232 20.0432C9.37732 19.7602 9.36132 19.4762 9.36132 19.1902Z" fill="#333333"/>
<path fill-rule="evenodd" clip-rule="evenodd" d="M9.5913 17.079C8.6383 16.389 7.7083 15.64 6.8743 14.912C6.7073 15.174 6.5433 15.446 6.3833 15.73C7.3473 16.562 8.4013 17.393 9.4203 18.111C9.4583 17.761 9.5163 17.416 9.5913 17.079Z" fill="#333333"/>
<path fill-rule="evenodd" clip-rule="evenodd" d="M10.3169 19.4618C10.3169 19.4688 10.3179 19.4768 10.3179 19.4828V19.4618H10.3169Z" fill="#333333"/>
<path fill-rule="evenodd" clip-rule="evenodd" d="M0.215142 12.3729C0.906142 13.4129 2.74014 15.1849 4.77314 16.8349C4.90414 16.5329 5.04214 16.2399 5.18514 15.9569C3.23014 14.3469 1.52314 12.6709 0.971142 11.8109L0.941142 11.7639C0.935142 11.1059 1.10914 8.6279 3.72514 5.1439L3.77714 5.0729L3.80114 4.9889C4.03614 4.1559 5.41414 2.7989 7.88214 1.7839C8.67314 1.4589 9.48614 1.2109 10.2681 1.0529L9.25414 2.7859C9.15414 2.9529 9.14214 3.1569 9.22314 3.3319C9.30614 3.5159 9.47814 3.6449 9.68014 3.6809L12.1261 4.1239C11.5041 4.5379 10.7771 4.9199 9.98814 5.2459C8.44214 5.8789 6.83914 6.2179 5.58514 6.1689L5.33914 6.1589L5.19114 6.3559C2.68614 9.6979 2.77814 11.0689 2.82314 11.7279L2.83014 11.8389C2.84014 12.0109 2.91514 12.1729 3.03714 12.2949C3.50214 12.9959 4.47314 14.0159 5.65814 15.0899C5.82114 14.8079 5.98814 14.5339 6.15914 14.2729C5.02814 13.2349 4.15714 12.2999 3.79414 11.7329L3.76314 11.6859L3.76214 11.6649C3.72914 11.1719 3.65214 10.0329 5.80114 7.1139H5.81214C7.14814 7.1139 8.78114 6.7559 10.3451 6.1159C11.5061 5.6379 12.5451 5.0409 13.3481 4.3949C13.5351 4.2479 13.6151 4.0169 13.5591 3.7899C13.5021 3.5599 13.3091 3.3829 13.0651 3.3369L10.3131 2.8389L11.4511 0.893897C11.5621 0.697897 11.5521 0.459897 11.4261 0.273897C11.2911 0.0748965 11.0551 -0.0261035 10.8111 0.00689651C9.75214 0.150897 8.61614 0.465896 7.52514 0.913897C5.13914 1.8939 3.34914 3.3489 2.92314 4.6439C0.0891418 8.4479 -0.0278581 11.1549 0.00414194 11.8919C0.00814194 12.0719 0.0851419 12.2429 0.215142 12.3729Z" fill="#333333"/>
<path fill-rule="evenodd" clip-rule="evenodd" d="M9.59133 17.0789C9.51633 17.4159 9.45833 17.7609 9.42033 18.1109C9.38933 18.3879 9.37433 18.6679 9.36733 18.9489C9.36533 19.0289 9.36133 19.1089 9.36133 19.1899C9.36133 19.4759 9.37633 19.7609 9.40133 20.0429C9.46333 20.7489 9.60133 21.4399 9.81233 22.0999C9.99733 22.0739 10.1753 22.0469 10.3383 22.0109C10.5913 21.9559 10.8423 22.1149 10.8983 22.3689C10.9543 22.6229 10.7943 22.8739 10.5403 22.9299C10.4183 22.9559 10.2873 22.9779 10.1553 22.9999C10.1853 23.0669 10.2123 23.1359 10.2443 23.2019V23.2899L10.3273 23.3729C10.3363 23.3909 10.3473 23.4079 10.3573 23.4279L10.3613 23.4249C10.3323 23.3739 10.3123 23.3379 10.3103 23.3349L11.1173 22.8509C11.1193 22.8539 11.1283 22.8699 11.1313 22.8759L11.1043 22.8179H11.1033C10.6193 21.8079 10.3573 20.6609 10.3173 19.4829C10.3173 19.4759 10.3163 19.4689 10.3163 19.4619C10.3133 19.3709 10.3013 19.2809 10.3013 19.1899C10.3013 16.4919 11.5083 14.0609 13.4513 12.8289C13.2853 12.9029 13.0833 12.8789 12.9403 12.7469L12.5033 12.3459C11.0563 13.4379 10.0253 15.1299 9.59133 17.0789Z" fill="#333333"/>
<path fill-rule="evenodd" clip-rule="evenodd" d="M18.6691 12.8006C19.6321 13.3976 20.4401 14.3136 21.0061 15.4496C21.1791 15.7916 21.3271 16.1546 21.4481 16.5296C21.7231 17.3746 21.8631 18.2696 21.8631 19.1906C21.8631 20.1786 21.7021 21.1376 21.3851 22.0376C21.2771 22.3416 21.1561 22.6296 21.0391 22.8666L21.0211 22.8986C21.0281 22.8866 21.0401 22.8666 21.0441 22.8626L21.8481 23.3476L21.9161 23.2426V23.2126C21.9411 23.1596 21.9641 23.1036 21.9891 23.0486C21.8561 23.0276 21.7261 23.0046 21.6051 22.9786C21.3511 22.9226 21.1911 22.6706 21.2471 22.4176C21.3021 22.1636 21.5541 22.0076 21.8071 22.0596C21.9691 22.0946 22.1481 22.1226 22.3351 22.1466C22.5571 21.4636 22.7061 20.7546 22.7681 20.0276C22.7921 19.7496 22.8041 19.4716 22.8041 19.1906C22.8041 19.1046 22.7961 19.0216 22.7941 18.9366C22.7881 18.6846 22.7721 18.4356 22.7471 18.1886C22.7111 17.8376 22.6571 17.4916 22.5831 17.1526C22.5161 16.8436 22.4401 16.5376 22.3421 16.2396C22.2081 15.8206 22.0421 15.4116 21.8481 15.0286C21.3041 13.9376 20.5511 13.0296 19.6621 12.3556L19.2351 12.7466C19.0441 12.9236 18.7461 12.9096 18.5701 12.7186C18.4391 12.5746 18.4131 12.3716 18.4891 12.2046L18.3101 12.5776L18.6691 12.8006Z" fill="#333333"/>
<path fill-rule="evenodd" clip-rule="evenodd" d="M13.852 12.5779L13.7 12.2589C13.75 12.4139 13.725 12.5899 13.606 12.7189C13.569 12.7589 13.525 12.7859 13.48 12.8099C13.485 12.8069 13.49 12.8039 13.495 12.8009L13.852 12.5779Z" fill="#333333"/>
<path fill-rule="evenodd" clip-rule="evenodd" d="M21.8445 23.3543C21.8395 23.3633 21.8175 23.4033 21.7835 23.4613C21.7845 23.4613 21.7845 23.4623 21.7855 23.4623C21.8045 23.4263 21.8265 23.3913 21.8445 23.3543Z" fill="#333333"/>
<path fill-rule="evenodd" clip-rule="evenodd" d="M13.6573 12.1649C13.5133 11.8499 13.4393 11.5159 13.4393 11.1689C13.4393 10.7469 13.5493 10.3389 13.7583 9.97587L16.1673 11.3509L18.4463 10.0489C18.6293 10.3939 18.7253 10.7769 18.7253 11.1689C18.7253 11.5279 18.6473 11.8749 18.4923 12.1969L18.4893 12.2049C18.5143 12.1489 18.5513 12.0979 18.5983 12.0549L19.6593 11.0799C19.6423 10.4319 19.4423 9.80487 19.0723 9.26987C18.8903 8.99987 18.5223 8.91987 18.2353 9.08487L16.1673 10.2679L13.9773 9.01687C13.7023 8.86087 13.3413 8.93287 13.1543 9.18287C12.7453 9.73787 12.5263 10.3899 12.5063 11.0709L13.5773 12.0549C13.6123 12.0859 13.6343 12.1259 13.6573 12.1649Z" fill="#333333"/>
<path fill-rule="evenodd" clip-rule="evenodd" d="M15.1444 37.4822C15.1664 37.5072 15.1834 37.5392 15.2004 37.5702C15.1844 37.5392 15.1674 37.5092 15.1444 37.4822Z" fill="#333333"/>
<path fill-rule="evenodd" clip-rule="evenodd" d="M14.4226 37.5027C14.4106 37.5187 14.3946 37.5277 14.3846 37.5457C14.0106 38.1817 13.5336 38.5727 13.1886 38.5097C13.0646 38.4867 12.9526 38.4007 12.8556 38.2527C12.5476 37.7807 12.4906 36.8847 12.7126 35.9697C12.8706 35.3187 13.1496 34.7317 13.4876 34.3137C13.3436 34.1907 13.2126 34.0627 13.1076 33.9207C13.0216 33.8057 12.9546 33.6837 12.8976 33.5587C12.4036 34.0987 12.0106 34.8717 11.7976 35.7487C11.5096 36.9397 11.6096 38.0677 12.0686 38.7687C12.3106 39.1377 12.6416 39.3687 13.0266 39.4367C13.1036 39.4497 13.1816 39.4567 13.2596 39.4557C13.7626 39.4557 14.2756 39.1767 14.7256 38.6717C14.5816 38.4637 14.4536 38.2247 14.3496 37.9497C14.2896 37.7927 14.3276 37.6277 14.4226 37.5027Z" fill="#333333"/>
<path fill-rule="evenodd" clip-rule="evenodd" d="M14.8275 37.3192C14.8595 37.3212 14.8885 37.3322 14.9185 37.3402C14.8885 37.3322 14.8585 37.3212 14.8275 37.3192Z" fill="#333333"/>
<path fill-rule="evenodd" clip-rule="evenodd" d="M14.7468 37.324C14.7128 37.327 14.6808 37.329 14.6488 37.34C14.6818 37.329 14.7138 37.327 14.7468 37.324Z" fill="#333333"/>
<path fill-rule="evenodd" clip-rule="evenodd" d="M14.4908 37.4266C14.5138 37.4066 14.5408 37.3936 14.5678 37.3786C14.5408 37.3936 14.5148 37.4056 14.4908 37.4266Z" fill="#333333"/>
<path fill-rule="evenodd" clip-rule="evenodd" d="M15.0025 37.369C15.0295 37.383 15.0535 37.403 15.0775 37.423C15.0605 37.408 15.0485 37.39 15.0285 37.378C15.0205 37.373 15.0105 37.374 15.0025 37.369Z" fill="#333333"/>
<mask id="mask0" mask-type="alpha" maskUnits="userSpaceOnUse" x="14" y="37" width="4" height="3">
<path fill-rule="evenodd" clip-rule="evenodd" d="M14.3208 37.3181H17.4399V39.5024H14.3208V37.3181Z" fill="white"/>
</mask>
<g mask="url(#mask0)">
<path fill-rule="evenodd" clip-rule="evenodd" d="M16.9669 37.574C16.9579 37.591 16.9439 37.603 16.9369 37.622C16.7199 38.192 16.3839 38.561 16.0819 38.561C15.7809 38.561 15.4459 38.191 15.2299 37.617C15.2229 37.599 15.2089 37.587 15.1999 37.57C15.1829 37.539 15.1669 37.508 15.1439 37.482C15.1249 37.459 15.1019 37.441 15.0779 37.423C15.0529 37.403 15.0299 37.383 15.0029 37.369C14.9759 37.355 14.9469 37.348 14.9189 37.34C14.8879 37.332 14.8589 37.321 14.8269 37.319C14.7999 37.316 14.7739 37.321 14.7469 37.324C14.7139 37.327 14.6809 37.329 14.6489 37.34C14.6399 37.343 14.6319 37.341 14.6229 37.344C14.6019 37.351 14.5869 37.367 14.5679 37.379C14.5409 37.393 14.5139 37.407 14.4909 37.427C14.4639 37.449 14.4439 37.475 14.4229 37.503C14.3269 37.628 14.2899 37.793 14.3499 37.95C14.4529 38.224 14.5819 38.464 14.7249 38.672C15.0909 39.2 15.5679 39.503 16.0819 39.503C16.5969 39.503 17.0749 39.201 17.4399 38.676C17.2739 38.489 17.1149 38.274 16.9699 38.027C16.8849 37.882 16.8939 37.713 16.9669 37.574Z" fill="#333333"/>
</g>
<path fill-rule="evenodd" clip-rule="evenodd" d="M17.3369 37.324C17.3659 37.321 17.3949 37.326 17.4239 37.329C17.3949 37.326 17.3659 37.321 17.3369 37.324Z" fill="#333333"/>
<path fill-rule="evenodd" clip-rule="evenodd" d="M17.5186 37.3445C17.5456 37.3535 17.5696 37.3675 17.5946 37.3815C17.5766 37.3715 17.5626 37.3565 17.5436 37.3495C17.5356 37.3455 17.5266 37.3475 17.5186 37.3445Z" fill="#333333"/>
<path fill-rule="evenodd" clip-rule="evenodd" d="M17.255 37.3425C17.223 37.3515 17.192 37.3595 17.162 37.3745C17.192 37.3595 17.223 37.3515 17.255 37.3425Z" fill="#333333"/>
<path fill-rule="evenodd" clip-rule="evenodd" d="M17.6765 37.4325C17.7015 37.4535 17.7225 37.4805 17.7425 37.5065C17.7225 37.4805 17.7025 37.4545 17.6765 37.4325Z" fill="#333333"/>
<path fill-rule="evenodd" clip-rule="evenodd" d="M17.0217 37.4872C17.0417 37.4642 17.0657 37.4452 17.0907 37.4252C17.0657 37.4452 17.0427 37.4632 17.0217 37.4872Z" fill="#333333"/>
<path fill-rule="evenodd" clip-rule="evenodd" d="M18.6818 34.3085C19.0198 34.7265 19.2988 35.3165 19.4558 35.9715C19.6758 36.8855 19.6168 37.7815 19.3068 38.2525C19.2078 38.4025 19.0958 38.4895 18.9718 38.5105C18.6308 38.5635 18.1538 38.1825 17.7818 37.5505C17.7718 37.5335 17.7548 37.5225 17.7428 37.5065C17.7228 37.4805 17.7018 37.4545 17.6768 37.4325C17.6508 37.4115 17.6238 37.3965 17.5948 37.3815C17.5698 37.3685 17.5458 37.3535 17.5188 37.3445C17.4878 37.3345 17.4558 37.3315 17.4238 37.3295C17.3948 37.3265 17.3658 37.3215 17.3368 37.3245C17.3088 37.3265 17.2828 37.3355 17.2548 37.3425C17.2238 37.3515 17.1918 37.3595 17.1618 37.3745C17.1548 37.3785 17.1458 37.3785 17.1378 37.3825C17.1188 37.3945 17.1068 37.4125 17.0908 37.4255C17.0658 37.4455 17.0408 37.4635 17.0218 37.4875C16.9988 37.5145 16.9828 37.5435 16.9668 37.5745C16.8938 37.7125 16.8848 37.8815 16.9708 38.0275C17.1158 38.2745 17.2738 38.4895 17.4398 38.6755C17.8888 39.1785 18.3998 39.4575 18.9028 39.4575C18.9788 39.4575 19.0568 39.4515 19.1328 39.4375C19.5178 39.3705 19.8488 39.1405 20.0928 38.7705C20.5528 38.0715 20.6568 36.9425 20.3708 35.7515C20.1588 34.8675 19.7648 34.0875 19.2668 33.5475C19.2128 33.6745 19.1478 33.7975 19.0608 33.9145C18.9568 34.0565 18.8258 34.1855 18.6818 34.3085Z" fill="#333333"/>
<path fill-rule="evenodd" clip-rule="evenodd" d="M11.1315 22.8758C11.1285 22.8698 11.1195 22.8548 11.1175 22.8518L10.3105 23.3348C10.3125 23.3378 10.3325 23.3738 10.3615 23.4248L10.8215 23.2188C11.0595 23.1108 11.3365 23.2178 11.4435 23.4548C11.5495 23.6918 11.4435 23.9708 11.2065 24.0758L10.7895 24.2638C10.8265 24.3408 10.8615 24.4138 10.9015 24.4998C10.9805 24.4248 11.0575 24.3498 11.1265 24.2778C11.3055 24.0908 11.6035 24.0838 11.7915 24.2638C11.9795 24.4428 11.9855 24.7408 11.8055 24.9288C11.6585 25.0828 11.4845 25.2468 11.2925 25.4148C11.9895 27.1548 12.7915 29.8238 12.7295 32.8168L13.1995 32.8268H13.6695C13.7775 27.4658 11.3265 23.2068 11.1315 22.8758Z" fill="#333333"/>
<path fill-rule="evenodd" clip-rule="evenodd" d="M20.288 24.4462C20.475 24.2662 20.774 24.2732 20.954 24.4612C21.021 24.5322 21.098 24.6062 21.179 24.6822C21.241 24.5452 21.3 24.4172 21.356 24.2992C21.34 24.2912 21.321 24.2832 21.306 24.2752L20.934 24.0762C20.781 23.9982 20.675 23.8392 20.675 23.6552C20.675 23.3952 20.885 23.1842 21.144 23.1842H21.264L21.735 23.4382C21.751 23.4462 21.768 23.4542 21.784 23.4622C21.817 23.4032 21.84 23.3632 21.845 23.3542C21.846 23.3542 21.849 23.3482 21.849 23.3482V23.3472L21.044 22.8622C21.04 22.8672 21.028 22.8862 21.021 22.8982C20.788 23.2942 18.465 27.3512 18.474 32.5142L18.39 32.7192L18.469 32.7992C18.469 32.8172 18.469 32.8332 18.469 32.8462C18.469 33.0492 18.42 33.2002 18.304 33.3552C18.089 33.6482 17.711 33.8952 17.241 34.0502C17.052 34.1122 16.856 34.1582 16.653 34.1872C16.281 34.2432 15.885 34.2442 15.515 34.1872C15.312 34.1592 15.116 34.1132 14.926 34.0502C14.457 33.8972 14.08 33.6522 13.862 33.3592C13.735 33.1882 13.67 33.0092 13.67 32.8272H13.2H12.729C12.729 33.0782 12.79 33.3242 12.897 33.5582C12.955 33.6832 13.021 33.8052 13.107 33.9212C13.212 34.0622 13.344 34.1912 13.488 34.3132C13.799 34.5792 14.187 34.7992 14.632 34.9432C14.871 35.0242 15.124 35.0832 15.378 35.1192C15.605 35.1532 15.842 35.1712 16.082 35.1712C16.322 35.1712 16.561 35.1522 16.789 35.1182C17.043 35.0822 17.294 35.0232 17.535 34.9442C17.983 34.7962 18.372 34.5742 18.682 34.3082C18.826 34.1852 18.957 34.0562 19.061 33.9152C19.148 33.7982 19.213 33.6752 19.267 33.5482C19.359 33.3312 19.41 33.1002 19.41 32.8462C19.41 32.8112 19.411 32.7562 19.412 32.7082L19.415 32.7002V32.6152L19.422 32.4212L19.414 32.4142C19.428 29.6872 20.142 27.2582 20.794 25.5982C20.598 25.4292 20.421 25.2652 20.273 25.1112C20.094 24.9242 20.101 24.6262 20.288 24.4462Z" fill="#333333"/>
<path fill-rule="evenodd" clip-rule="evenodd" d="M22.335 22.1462C22.148 22.1232 21.97 22.0942 21.808 22.0592C21.555 22.0072 21.303 22.1642 21.247 22.4172C21.191 22.6702 21.352 22.9222 21.606 22.9782C21.727 23.0042 21.856 23.0272 21.989 23.0482C22.452 23.1222 22.979 23.1602 23.545 23.1602C24.85 23.1602 26.357 22.9562 27.757 22.5312C27.742 22.2052 27.716 21.8862 27.682 21.5732C25.856 22.1602 23.771 22.3312 22.335 22.1462Z" fill="#333333"/>
<path fill-rule="evenodd" clip-rule="evenodd" d="M21.7838 23.4618C21.7678 23.4538 21.7508 23.4458 21.7348 23.4388L21.2628 23.1848H21.1438C20.8848 23.1848 20.6748 23.3958 20.6748 23.6548C20.6748 23.8388 20.7808 23.9978 20.9338 24.0758L21.3048 24.2748C21.3208 24.2828 21.3398 24.2908 21.3558 24.2988C22.9168 25.0688 25.2218 25.7888 27.5468 25.8678C27.5968 25.5528 27.6398 25.2418 27.6728 24.9368C25.3158 24.8708 23.0158 24.0678 21.7858 23.4628C21.7848 23.4628 21.7848 23.4618 21.7838 23.4618Z" fill="#333333"/>
<path fill-rule="evenodd" clip-rule="evenodd" d="M28.8477 28.8905C28.8597 28.8915 28.8697 28.8915 28.8807 28.8915C29.1257 28.8915 29.3327 28.7025 29.3497 28.4535C29.3687 28.1955 29.1727 27.9705 28.9127 27.9525C28.6357 27.9325 28.3627 27.8995 28.0897 27.8605C28.0097 28.1615 27.9237 28.4645 27.8267 28.7725C28.1627 28.8245 28.5027 28.8675 28.8477 28.8905Z" fill="#333333"/>
<path fill-rule="evenodd" clip-rule="evenodd" d="M21.1783 24.6824C21.0973 24.6064 21.0213 24.5324 20.9533 24.4604C20.7743 24.2734 20.4753 24.2664 20.2873 24.4464C20.1003 24.6254 20.0933 24.9234 20.2733 25.1114C20.4203 25.2654 20.5973 25.4294 20.7933 25.5984C22.0473 26.6784 24.2633 27.9954 26.8873 28.5944C26.9863 28.2874 27.0733 27.9864 27.1533 27.6874C24.5013 27.0904 22.2593 25.6914 21.1783 24.6824Z" fill="#333333"/>
<path fill-rule="evenodd" clip-rule="evenodd" d="M2.92804 20.9773C2.69804 20.8573 2.41404 20.9493 2.29404 21.1793C2.17604 21.4113 2.26604 21.6943 2.49704 21.8133C2.80704 21.9723 3.13804 22.1113 3.47804 22.2413C3.49804 21.9103 3.52804 21.5853 3.56604 21.2673C3.34604 21.1763 3.13204 21.0813 2.92804 20.9773Z" fill="#333333"/>
<path fill-rule="evenodd" clip-rule="evenodd" d="M10.1555 22.9998C10.2875 22.9788 10.4185 22.9558 10.5405 22.9298C10.7945 22.8738 10.9545 22.6228 10.8985 22.3688C10.8425 22.1148 10.5925 21.9558 10.3385 22.0108C10.1765 22.0468 9.99746 22.0738 9.81246 22.0998C8.36646 22.2928 6.29846 22.1458 4.49146 21.5968C4.45846 21.9098 4.43246 22.2288 4.41846 22.5548C5.75946 22.9388 7.20246 23.1238 8.47446 23.1238C9.08646 23.1238 9.65546 23.0808 10.1555 22.9998Z" fill="#333333"/>
<path fill-rule="evenodd" clip-rule="evenodd" d="M10.7899 24.2635L11.2069 24.0765C11.4439 23.9705 11.5499 23.6925 11.4429 23.4545C11.3369 23.2175 11.0599 23.1115 10.8219 23.2185L10.3619 23.4245L10.3569 23.4275L10.3439 23.4335C9.13693 24.0355 6.85493 24.8445 4.50293 24.9315C4.53593 25.2375 4.57793 25.5485 4.62893 25.8635C6.94093 25.7665 9.22593 25.0425 10.7619 24.2765L10.7899 24.2635Z" fill="#333333"/>
<path fill-rule="evenodd" clip-rule="evenodd" d="M2.10257 24.7294C1.84957 24.6744 1.59757 24.8314 1.54057 25.0844C1.48157 25.3374 1.64157 25.5894 1.89457 25.6474C2.47157 25.7794 3.06557 25.8484 3.66457 25.8724C3.61457 25.5504 3.57257 25.2334 3.54057 24.9204C3.05557 24.8944 2.57357 24.8364 2.10257 24.7294Z" fill="#333333"/>
<path fill-rule="evenodd" clip-rule="evenodd" d="M3.15739 27.9519C2.89839 27.9709 2.70239 28.1949 2.72039 28.4539C2.73839 28.7019 2.94439 28.8909 3.18939 28.8909C3.20039 28.8909 3.21139 28.8909 3.22239 28.8899C3.60039 28.8649 3.97239 28.8129 4.34239 28.7499C4.24539 28.4429 4.16039 28.1399 4.08039 27.8409C3.77539 27.8899 3.46839 27.9309 3.15739 27.9519Z" fill="#333333"/>
<path fill-rule="evenodd" clip-rule="evenodd" d="M11.7912 24.2634C11.6042 24.0834 11.3062 24.0904 11.1262 24.2784C11.0572 24.3494 10.9802 24.4244 10.9012 24.4994C9.76518 25.5844 7.56618 27.0224 5.01318 27.6534C5.09218 27.9514 5.17818 28.2514 5.27518 28.5564C7.81218 27.9164 10.0172 26.5394 11.2922 25.4144C11.4842 25.2464 11.6592 25.0824 11.8062 24.9284C11.9852 24.7414 11.9792 24.4434 11.7912 24.2634Z" fill="#333333"/>
<path fill-rule="evenodd" clip-rule="evenodd" d="M18.489 12.2049C18.413 12.3719 18.439 12.5749 18.571 12.7189C18.746 12.9099 19.044 12.9239 19.235 12.7469L19.662 12.3549L21.076 11.0579C21.296 10.8559 21.692 10.8509 21.926 11.0459C22.754 11.7429 24.127 13.0629 25.335 14.9659C25.502 15.2279 25.666 15.4999 25.824 15.7849C25.966 16.0389 26.103 16.3019 26.235 16.5729C26.374 16.8579 26.505 17.1539 26.63 17.4589C27.133 18.6789 27.516 20.0499 27.681 21.5729C27.716 21.8869 27.742 22.2049 27.757 22.5309C27.791 23.2969 27.762 24.1009 27.673 24.9359C27.64 25.2419 27.597 25.5529 27.547 25.8679C27.451 26.4579 27.32 27.0639 27.153 27.6869C27.073 27.9859 26.986 28.2879 26.887 28.5949C26.345 30.2909 25.534 32.0959 24.371 34.0109C24.235 34.2319 24.306 34.5219 24.528 34.6569C24.605 34.7029 24.689 34.7259 24.772 34.7259C24.931 34.7259 25.087 34.6449 25.175 34.4989C26.405 32.4749 27.26 30.5649 27.827 28.7719C27.924 28.4649 28.01 28.1609 28.09 27.8599C28.272 27.1789 28.412 26.5159 28.512 25.8689C28.562 25.5469 28.604 25.2289 28.635 24.9169C28.732 23.9719 28.749 23.0659 28.696 22.2049C28.675 21.8729 28.644 21.5479 28.604 21.2269C28.403 19.6039 27.97 18.1419 27.41 16.8489C27.279 16.5469 27.141 16.2549 26.999 15.9719C26.854 15.6859 26.705 15.4119 26.552 15.1459C26.388 14.8629 26.221 14.5899 26.051 14.3279C24.794 12.3939 23.386 11.0469 22.531 10.3259C21.94 9.8289 21.002 9.8469 20.439 10.3639L19.66 11.0799L18.599 12.0549C18.551 12.0979 18.514 12.1489 18.489 12.2049Z" fill="#333333"/>
<path fill-rule="evenodd" clip-rule="evenodd" d="M5.18534 15.9569C5.04234 16.2399 4.90434 16.5329 4.77234 16.8349C4.20434 18.1419 3.76634 19.6219 3.56634 21.2679C3.52734 21.5859 3.49834 21.9099 3.47734 22.2409C3.42734 23.0929 3.44534 23.9869 3.54034 24.9209C3.57234 25.2329 3.61434 25.5509 3.66434 25.8719C3.76434 26.5109 3.90134 27.1669 4.08134 27.8409C4.16034 28.1409 4.24534 28.4429 4.34234 28.7499C4.90834 30.5499 5.76634 32.4669 7.00134 34.4989C7.08934 34.6449 7.24534 34.7259 7.40334 34.7259C7.48734 34.7259 7.57134 34.7029 7.64734 34.6569C7.86934 34.5219 7.94034 34.2319 7.80534 34.0109C6.63334 32.0809 5.81734 30.2639 5.27534 28.5569C5.17834 28.2519 5.09234 27.9509 5.01334 27.6529C4.85034 27.0409 4.72334 26.4449 4.62834 25.8629C4.57834 25.5489 4.53534 25.2369 4.50234 24.9319C4.41434 24.1059 4.38634 23.3119 4.41834 22.5549C4.43334 22.2279 4.45834 21.9099 4.49134 21.5969C4.65534 20.0609 5.04234 18.6809 5.54934 17.4519C5.67434 17.1479 5.80534 16.8529 5.94334 16.5679C6.08434 16.2779 6.23134 15.9999 6.38334 15.7299C6.54334 15.4459 6.70734 15.1739 6.87434 14.9119C8.07534 13.0389 9.43034 11.7359 10.2503 11.0459C10.4833 10.8509 10.8803 10.8559 11.1013 11.0579L12.5033 12.3459L12.9403 12.7469C13.0833 12.8789 13.2853 12.9029 13.4523 12.8289C13.4623 12.8239 13.4703 12.8149 13.4793 12.8109C13.5253 12.7859 13.5693 12.7589 13.6053 12.7189C13.7243 12.5899 13.7493 12.4139 13.7003 12.2589C13.6893 12.2259 13.6753 12.1949 13.6573 12.1649C13.6343 12.1259 13.6123 12.0859 13.5773 12.0549L12.5063 11.0709L11.7373 10.3639C11.1733 9.8469 10.2353 9.8289 9.64434 10.3259C8.79734 11.0399 7.40834 12.3679 6.15934 14.2729C5.98834 14.5339 5.82134 14.8079 5.65834 15.0899C5.49634 15.3689 5.33734 15.6569 5.18534 15.9569Z" fill="#333333"/>
<path fill-rule="evenodd" clip-rule="evenodd" d="M15.8649 22.0135C15.8749 22.0085 15.8839 22.0015 15.8939 21.9975C15.8839 22.0015 15.8749 22.0085 15.8649 22.0135Z" fill="#333333"/>
<path fill-rule="evenodd" clip-rule="evenodd" d="M13.2737 24.9442L13.8867 25.2532C14.0837 25.3522 14.2997 25.4022 14.5147 25.4022C14.6787 25.4022 14.8427 25.3732 14.9977 25.3132C15.3367 25.1842 15.5947 24.9322 15.7247 24.6052L16.0797 23.7122L15.9557 23.3982C15.7907 23.0902 15.6797 22.7872 15.6187 22.5382C15.5957 22.4482 15.6087 22.3602 15.6367 22.2782L15.3447 23.0112C15.0517 23.5482 14.4967 24.1792 13.5437 24.0572C13.3157 24.0332 13.1017 24.1692 13.0347 24.3872C12.9677 24.6062 13.0687 24.8412 13.2737 24.9442Z" fill="#333333"/>
<path fill-rule="evenodd" clip-rule="evenodd" d="M16.0045 21.9686C16.0295 21.9646 16.0545 21.9596 16.0785 21.9596C16.0535 21.9606 16.0295 21.9646 16.0045 21.9686Z" fill="#333333"/>
<path fill-rule="evenodd" clip-rule="evenodd" d="M16.5122 22.2518L16.5222 22.2778C16.4842 22.1638 16.4052 22.0708 16.2942 22.0138C16.3892 22.0648 16.4702 22.1448 16.5122 22.2518Z" fill="#333333"/>
<path fill-rule="evenodd" clip-rule="evenodd" d="M16.2279 21.9774C16.2049 21.9694 16.1809 21.9724 16.1569 21.9684C16.1939 21.9754 16.2309 21.9824 16.2649 21.9974C16.2519 21.9924 16.2419 21.9814 16.2279 21.9774Z" fill="#333333"/>
<path fill-rule="evenodd" clip-rule="evenodd" d="M15.6185 22.5378C15.6805 22.7868 15.7905 23.0908 15.9555 23.3978L16.0795 23.7118L16.4345 24.6048C16.5645 24.9328 16.8235 25.1838 17.1615 25.3128C17.3175 25.3728 17.4815 25.4018 17.6455 25.4018C17.8605 25.4018 18.0765 25.3518 18.2735 25.2528L18.8865 24.9438C19.0905 24.8418 19.1915 24.6058 19.1245 24.3878C19.0585 24.1688 18.8455 24.0328 18.6165 24.0578C17.6565 24.1748 17.0965 23.5258 16.8035 22.9848L16.5225 22.2778L16.5125 22.2518C16.4705 22.1438 16.3895 22.0638 16.2945 22.0138C16.2845 22.0088 16.2755 22.0018 16.2645 21.9968C16.2305 21.9818 16.1935 21.9758 16.1565 21.9688C16.1305 21.9648 16.1055 21.9608 16.0785 21.9598C16.0545 21.9598 16.0295 21.9648 16.0045 21.9688C15.9805 21.9728 15.9555 21.9698 15.9315 21.9768C15.9175 21.9818 15.9075 21.9918 15.8945 21.9978C15.8845 22.0018 15.8755 22.0088 15.8655 22.0138C15.7545 22.0698 15.6755 22.1638 15.6375 22.2778C15.6095 22.3598 15.5965 22.4478 15.6185 22.5378Z" fill="#333333"/>
</svg>