<svg width="37" height="38" viewBox="0 0 37 38" fill="none" xmlns="http://www.w3.org/2000/svg">
<mask id="mask0" mask-type="alpha" maskUnits="userSpaceOnUse" x="0" y="0" width="37" height="38">
<path fill-rule="evenodd" clip-rule="evenodd" d="M0 0.000488281H36.051V37.414H0V0.000488281Z" fill="white"/>
</mask>
<g mask="url(#mask0)">
<path fill-rule="evenodd" clip-rule="evenodd" d="M1.27264 16.7155C1.28964 16.4565 1.34064 16.1925 1.42464 15.9465C1.53464 15.6285 1.62564 15.6005 1.96464 15.6545C2.84764 15.7965 3.72964 15.9545 4.61664 16.0695C6.09364 16.2625 7.57864 16.3685 9.06764 16.1975C9.84364 16.1085 10.6016 15.9545 11.2626 15.4935C11.3366 15.4415 11.4696 15.4015 11.5446 15.4315C12.2386 15.7125 12.9236 16.0095 13.6116 16.3015C13.6036 16.3275 13.5946 16.3535 13.5856 16.3805C13.1646 16.2605 12.7436 16.1425 12.3216 16.0235C12.3106 16.0395 12.3006 16.0565 12.2906 16.0725C12.5936 16.3275 12.8986 16.5835 13.2036 16.8385C13.1876 16.8625 13.1726 16.8865 13.1586 16.9105C12.8156 16.7345 12.4736 16.5575 12.1306 16.3815C12.1116 16.3965 12.0916 16.4105 12.0716 16.4245C12.2606 16.7365 12.4496 17.0485 12.6376 17.3595C12.6176 17.3775 12.5966 17.3945 12.5766 17.4115C12.2666 17.1595 11.9566 16.9085 11.6466 16.6565C11.6286 16.6695 11.6116 16.6825 11.5936 16.6945C11.7286 17.0285 11.8626 17.3615 11.9976 17.6945L11.9326 17.7385C11.6716 17.4235 11.4126 17.1095 11.1516 16.7945C11.1266 16.8035 11.1026 16.8135 11.0776 16.8225C11.1326 17.0225 11.1876 17.2215 11.2436 17.4215C11.3026 17.6295 11.3646 17.8375 11.4236 18.0455C11.3996 18.0585 11.3746 18.0715 11.3486 18.0845C10.9936 17.6905 10.6376 17.2965 10.2826 16.9025C10.2626 16.9125 10.2436 16.9235 10.2236 16.9345L10.4606 18.4125C10.4336 18.4215 10.4076 18.4295 10.3806 18.4385C10.1266 18.0045 9.87464 17.5695 9.62064 17.1355C9.59464 17.1425 9.56864 17.1485 9.54264 17.1535V18.6725C9.51264 18.6775 9.48264 18.6835 9.45264 18.6905C9.22864 18.2865 9.15464 17.8185 8.90464 17.3085C8.79164 17.8975 8.69364 18.3975 8.58664 18.9475C8.37064 18.7065 8.34164 18.4305 8.24564 18.1885C8.14464 17.9345 8.06164 17.6735 7.90664 17.4205C7.83664 18.0015 7.76664 18.5825 7.69764 19.1645C7.66864 19.1685 7.63964 19.1725 7.61064 19.1765C7.41964 18.5875 7.22864 17.9985 7.03764 17.4095C7.01564 17.4095 6.99364 17.4105 6.97164 17.4115L6.68464 19.1645C6.65564 19.1695 6.62664 19.1735 6.59664 19.1775C6.51064 18.9165 6.42264 18.6565 6.33864 18.3955C6.25164 18.1225 6.16764 17.8485 6.01564 17.5775C5.93764 18.1545 5.85964 18.7315 5.78164 19.3095C5.75564 19.3115 5.73064 19.3145 5.70564 19.3175C5.54364 18.6875 5.38164 18.0575 5.22064 17.4275C5.20064 17.4285 5.17964 17.4295 5.15964 17.4305C5.07364 18.0735 4.98764 18.7165 4.90164 19.3595C4.54664 18.7425 4.35964 18.0655 4.02964 17.4265L3.74564 19.3625C3.71664 19.3675 3.68964 19.3715 3.66164 19.3755C3.55964 19.0385 3.45664 18.7015 3.35564 18.3635C3.25164 18.0145 3.15164 17.6655 3.04864 17.3165C3.02264 17.3155 2.99564 17.3155 2.96764 17.3145C2.82064 17.9975 2.67264 18.6795 2.52564 19.3625C2.31764 19.0195 2.32264 18.6305 2.24564 18.2625C2.16464 17.8805 2.11364 17.4915 1.99164 17.1075C1.89664 17.8305 1.80164 18.5545 1.70764 19.2785L1.61064 19.2875C1.56464 19.0835 1.51464 18.8795 1.47164 18.6735C1.33564 18.0285 1.23064 17.3775 1.27264 16.7155ZM3.89064 7.29449C3.99164 7.44549 4.06664 7.55849 4.14164 7.67349C5.31364 9.46249 6.81364 10.8885 8.74964 11.8285C9.12664 12.0115 9.52964 12.1455 9.91764 12.3085C10.0216 12.3525 10.1596 12.3985 10.2076 12.4845C10.4406 12.9045 10.6476 13.3395 10.8646 13.7695C10.8386 13.7865 10.8126 13.8035 10.7866 13.8205L10.2476 13.1015C10.2216 13.1065 10.1976 13.1115 10.1716 13.1175V14.0765C10.1396 14.0805 10.1086 14.0845 10.0776 14.0885C9.98864 13.7815 9.90064 13.4755 9.78464 13.0725C9.66264 13.5295 9.56564 13.8945 9.46764 14.2585C9.43864 14.2575 9.40864 14.2575 9.37864 14.2565C9.32264 13.9055 9.26564 13.5545 9.20964 13.2035L9.13564 13.1865C8.98964 13.5395 8.84364 13.8925 8.65964 14.3405C8.52664 13.8825 8.63664 13.4915 8.49064 13.1045C8.26764 13.4825 8.04364 13.8595 7.82064 14.2365C7.79264 14.2285 7.76364 14.2205 7.73464 14.2115C7.75764 13.7485 7.78164 13.2855 7.80364 12.8225C7.78364 12.8095 7.76364 12.7975 7.74364 12.7845C7.42564 13.1735 7.10964 13.5645 6.79264 13.9545C6.76764 13.9435 6.74364 13.9315 6.71764 13.9195C6.85564 13.4045 7.11264 12.9245 7.25764 12.4115C7.23564 12.3945 7.21164 12.3775 7.18864 12.3605C6.78164 12.8035 6.37364 13.2465 5.96564 13.6895C5.93164 13.6635 5.89864 13.6385 5.86464 13.6125C6.12864 13.1285 6.39364 12.6435 6.65964 12.1585C6.63864 12.1375 6.61864 12.1155 6.59664 12.0935L5.04664 13.1415C5.02664 13.1185 5.00464 13.0955 4.98464 13.0725C5.32664 12.6165 5.66764 12.1605 6.00864 11.7045C5.99364 11.6815 5.97764 11.6595 5.96164 11.6375L4.33064 12.5145C4.31064 12.4915 4.29264 12.4685 4.27264 12.4455C4.62064 12.0025 5.05864 11.6365 5.39164 11.1455C4.80064 11.3725 4.21064 11.5995 3.62064 11.8265C3.77864 11.5655 4.02364 11.4065 4.24764 11.2255C4.48164 11.0365 4.72064 10.8545 4.92464 10.6055L3.14364 11.1425C3.12864 11.1185 3.11364 11.0945 3.09864 11.0695C3.51564 10.7525 3.93264 10.4345 4.34964 10.1155L4.32064 10.0635C3.81664 10.2335 3.31264 10.4035 2.80864 10.5735C2.79264 10.5515 2.77564 10.5295 2.75864 10.5075C3.09664 10.1915 3.43464 9.87549 3.77264 9.55949L3.74064 9.48949C3.54864 9.56449 3.35664 9.63849 3.16664 9.71549C2.96264 9.79749 2.76164 9.88149 2.52964 9.91249C2.88764 9.57549 3.24764 9.23849 3.60664 8.90149C3.58164 8.86749 3.55664 8.83449 3.53164 8.80149L2.36564 9.42149C2.34464 9.39749 2.32464 9.37349 2.30264 9.34949C2.81864 8.68249 3.33464 8.01449 3.89064 7.29449ZM2.15364 5.07649C1.75864 4.87849 1.59964 4.57949 1.66864 4.21949C1.74464 3.81949 2.11764 3.45549 2.52064 3.46749C2.84364 3.47749 3.16664 3.56649 3.48464 3.63949C3.64864 3.67749 3.80264 3.75849 4.03564 3.84949C3.84864 3.98449 3.71764 4.07949 3.58864 4.17349C3.61864 4.19949 3.66664 4.24249 3.75164 4.31949C3.56964 4.33749 3.42164 4.35249 3.21964 4.37249C3.35564 4.46349 3.45764 4.53049 3.59164 4.62049C3.50664 4.65349 3.44564 4.67649 3.37164 4.70449C3.42964 4.75849 3.48464 4.80849 3.55064 4.87049C3.50164 4.89549 3.45864 4.91649 3.38764 4.95249C3.45164 5.08049 3.51864 5.21549 3.60364 5.38549C3.08664 5.39249 2.60464 5.30349 2.15364 5.07649ZM5.27964 1.69549C5.51764 1.41849 5.92864 1.31149 6.23964 1.50649C6.53364 1.69049 6.78864 1.93649 7.05964 2.15549C7.04064 2.19249 7.02064 2.22949 7.00164 2.26649C6.83564 2.02649 6.60264 2.10149 6.38564 2.10249C6.38064 2.10249 6.37664 2.18549 6.36964 2.24649C6.26064 2.21149 6.16664 2.18049 6.01064 2.12949C6.04264 2.19049 6.06764 2.23949 6.08964 2.28249C6.11264 2.32549 6.13064 2.36249 6.15064 2.39949C6.04464 2.49949 5.97464 2.63649 5.85664 2.74549C5.78664 2.81149 5.69864 2.86649 5.57564 2.89649C5.50864 2.81449 5.41764 2.70349 5.33064 2.59049C5.07764 2.26049 5.06064 1.94949 5.27964 1.69549ZM8.85564 7.26249C8.37964 7.71549 7.94464 8.13149 7.50964 8.54649C7.48464 8.52849 7.45964 8.51049 7.43564 8.49249C7.55964 8.25549 7.68264 8.01749 7.80664 7.77849C7.79364 7.76449 7.78164 7.74949 7.76764 7.73549L7.17864 8.24049C7.16164 8.22849 7.14464 8.21549 7.12764 8.20449C7.22964 7.97149 7.33164 7.73849 7.43164 7.50649C7.41864 7.49449 7.40564 7.48349 7.39164 7.47149C7.26864 7.58849 7.14564 7.70449 7.02264 7.82049C7.00264 7.53649 7.17064 7.32149 7.26464 7.03649C7.00364 7.11749 6.87464 7.35349 6.57064 7.47749C6.76264 7.12549 6.91964 6.83749 7.07664 6.54949C7.05864 6.53249 7.04064 6.51649 7.02164 6.49949C6.73064 6.68849 6.43864 6.87649 6.09564 7.09749C6.14064 6.70449 6.41564 6.47749 6.50864 6.10249C6.23064 6.29449 6.00164 6.45249 5.77064 6.61149C5.75064 6.59949 5.73064 6.58849 5.70964 6.57649L6.06764 5.87749C6.05664 5.86149 6.04464 5.84549 6.03464 5.82949C5.81664 5.99149 5.59864 6.15449 5.38164 6.31749C5.36264 6.30649 5.34264 6.29649 5.32464 6.28649C5.42064 6.02949 5.51864 5.77349 5.63264 5.47349C5.51964 5.50549 5.47064 5.51849 5.35864 5.54849C5.60264 5.19649 5.88364 4.96449 6.20364 4.69049C6.73864 5.89649 7.59864 6.74049 8.85564 7.26249ZM8.09864 2.51949C8.04164 2.42349 7.99364 2.34349 7.93064 2.24049C8.14964 2.26149 8.33064 2.27949 8.52864 2.29849V2.06749C8.70864 2.10749 8.87264 2.14449 9.07664 2.19049C9.06364 2.08249 9.05364 1.99249 9.03864 1.85749C9.25964 1.93349 9.45264 2.00149 9.67064 2.07749C9.66864 2.02649 9.66864 1.99649 9.66464 1.96649C9.66064 1.92949 9.65364 1.89249 9.64864 1.85749C9.86264 1.75749 10.3076 2.15549 10.4926 2.63349C9.56764 2.45849 8.72864 2.63249 7.94064 3.19049V2.84649C7.85664 2.79349 7.75264 2.72649 7.61664 2.63949C7.79964 2.59349 7.93764 2.55949 8.09864 2.51949ZM10.7286 3.83449C10.3776 4.94449 9.63164 5.10549 8.70764 4.57949C8.55264 4.49149 8.41864 4.34549 8.31564 4.19849C8.10664 3.89949 8.17564 3.61549 8.48464 3.42849C8.60564 3.35449 8.74164 3.30349 8.85964 3.24749C8.85964 3.52249 8.82564 3.75849 8.86664 3.98049C8.93364 4.34249 9.20964 4.53749 9.54164 4.51049C9.83564 4.48749 10.0756 4.24049 10.1236 3.90849C10.1746 3.55649 10.0706 3.26149 9.74064 3.02249C10.0866 2.89149 10.3556 2.96549 10.5886 3.14749C10.8176 3.32549 10.8076 3.58249 10.7286 3.83449ZM12.8076 4.04249C12.8016 4.02549 12.7956 4.00849 12.7906 3.99049L11.6476 4.12849C11.6406 4.10049 11.6336 4.07249 11.6276 4.04449C12.1286 3.88649 12.6296 3.72949 13.0986 3.58249C13.3246 3.97549 13.5256 4.32449 13.7526 4.72149C13.1916 4.91449 12.6226 5.11049 12.0526 5.30549C12.0416 5.28249 12.0286 5.25949 12.0156 5.23649C12.3396 4.98649 12.6646 4.73649 12.9886 4.48749C12.9776 4.46849 12.9676 4.45049 12.9586 4.43149C12.6316 4.52449 12.3066 4.61549 11.9816 4.70849C11.6686 4.79849 11.3556 4.88749 11.0126 4.91049C11.6116 4.62049 12.2106 4.33149 12.8076 4.04249ZM11.6686 1.46149C11.6686 1.43649 11.6696 1.41049 11.6696 1.38449C11.7676 1.34849 11.8646 1.31249 11.9616 1.27749C12.0596 1.24349 12.1576 1.21249 12.3306 1.15349C12.1036 1.09449 11.9496 1.05449 11.7136 0.992488C11.9436 0.937488 12.0906 0.902488 12.2896 0.854488C12.1786 0.801488 12.1096 0.767488 11.9686 0.699488C12.3706 0.609488 12.6966 0.609488 12.9986 0.635488C12.9336 1.02849 12.8426 1.39949 12.8206 1.77349C12.7976 2.15149 12.8446 2.53249 12.8636 2.96749C12.5306 3.04449 12.1796 3.12549 11.8296 3.20649C11.8166 3.18649 11.8036 3.16649 11.7906 3.14549C11.9356 2.99749 12.0806 2.85049 12.2636 2.66249C12.0706 2.64049 11.9336 2.62449 11.7336 2.60149C11.8876 2.44749 12.0076 2.32649 12.1566 2.17849C11.9196 2.12949 11.7236 2.08849 11.4426 2.02949C11.7486 1.88149 11.9786 1.77049 12.2696 1.62949C12.0256 1.56149 11.8466 1.51149 11.6686 1.46149ZM13.7506 2.48749C13.7856 2.71749 13.8286 2.88649 13.8336 3.05749C13.8486 3.54649 14.0956 3.89949 14.4626 4.18749C14.6366 4.32349 14.8186 4.45149 14.9966 4.58349C14.4966 4.51449 14.0776 4.28649 13.7516 3.91149C13.4446 3.55849 13.4386 3.05149 13.7506 2.48749ZM15.0386 1.10949C15.2386 1.06049 15.3866 0.981488 15.5246 0.819488C15.6766 0.638488 15.9046 0.604488 16.1376 0.681488C16.3726 0.758488 16.4606 0.945488 16.4696 1.16549C16.4836 1.51649 16.4736 1.86749 16.4736 2.21849C16.0986 2.10649 15.7836 2.02749 15.4806 1.91649C15.2766 1.84149 15.0626 1.75249 14.9016 1.61349C14.6946 1.43449 14.7696 1.17549 15.0386 1.10949ZM16.0856 4.24549C16.4026 3.86349 16.5006 3.44049 16.5436 2.94549C16.8186 3.57549 16.6526 4.04249 16.0856 4.24549ZM15.4366 5.93449C15.4086 5.53449 15.5086 5.22949 15.5826 4.92249C15.5876 4.89849 15.6056 4.86949 15.6256 4.85949C15.8946 4.71449 16.1716 4.58849 16.4816 4.52849C16.1806 5.01549 15.8766 5.47949 15.4366 5.93449ZM11.4936 9.98349C12.1826 10.4035 12.9166 10.7335 13.7896 10.6805C13.8466 11.0895 13.8396 11.4605 13.5426 11.7955C13.5276 11.6375 13.5126 11.4795 13.4926 11.2565C13.3726 11.4235 13.2846 11.5445 13.1436 11.7395C13.1216 11.4775 13.1046 11.2815 13.0826 11.0135C12.9196 11.2065 12.7896 11.3625 12.6146 11.5725C12.5956 11.3355 12.5836 11.1715 12.5666 10.9615C12.4126 11.0885 12.2866 11.1925 12.1146 11.3345C12.0846 11.1305 12.0586 10.9635 12.0296 10.7675C11.8466 10.8745 11.6946 10.9635 11.5006 11.0765C11.5186 10.8615 11.5336 10.6965 11.5516 10.4865C11.3326 10.5835 11.1506 10.6635 10.9406 10.7565C10.9546 10.5835 10.9656 10.4485 10.9786 10.2955C10.7956 10.3535 10.6486 10.4005 10.4426 10.4655C10.5006 10.3105 10.5426 10.1995 10.6056 10.0305C10.3926 10.0905 10.2126 10.1395 9.97864 10.2055C10.0356 10.0615 10.0786 9.95449 10.1356 9.80949C9.92464 9.85449 9.74964 9.89149 9.50664 9.94349C9.60164 9.75549 9.67364 9.61449 9.77364 9.41749C9.53564 9.50049 9.34464 9.56749 9.06964 9.66249C9.18164 9.45949 9.25764 9.32249 9.36364 9.13249C9.12564 9.20449 8.93264 9.26249 8.73564 9.32249C8.83964 9.07749 8.97764 8.92849 9.42564 8.57849C9.50964 8.63649 9.60264 8.70149 9.69764 8.76649C10.2936 9.17449 10.8766 9.60749 11.4936 9.98349ZM12.8816 8.92549V9.42749C12.7636 9.39649 12.6736 9.37249 12.5166 9.33249C12.6486 9.18649 12.7406 9.08349 12.8816 8.92549ZM14.3076 8.97449V9.72249H13.8446C13.9096 9.42949 14.0926 9.24249 14.3076 8.97449ZM14.0496 19.2815C14.6356 18.8235 15.1486 18.2965 15.5596 17.6765C15.6676 17.5145 15.7746 17.4365 15.9776 17.4815C16.6186 17.6235 17.2626 17.7505 17.9096 17.9545C17.6916 17.9625 17.4736 17.9725 17.2556 17.9765C17.0226 17.9805 16.7906 17.9775 16.5576 17.9775C16.5476 18.0045 16.5386 18.0315 16.5296 18.0595C16.8736 18.2495 17.2176 18.4405 17.5616 18.6305C17.5546 18.6575 17.5476 18.6845 17.5416 18.7115C17.1366 18.6705 16.7316 18.6295 16.3266 18.5895C16.3156 18.6085 16.3046 18.6285 16.2936 18.6485L17.0996 19.2305C17.0886 19.2545 17.0796 19.2785 17.0696 19.3025C16.5886 19.2105 16.1096 19.1175 15.5356 19.0075C15.8256 19.4145 16.0646 19.7495 16.3026 20.0835C16.2846 20.1055 16.2646 20.1265 16.2456 20.1485C15.8786 19.9575 15.5136 19.7665 15.0746 19.5375C15.2496 20.0335 15.5186 20.4175 15.6766 20.8445C15.6556 20.8635 15.6336 20.8825 15.6136 20.9015C15.2316 20.6425 14.8496 20.3835 14.4676 20.1245C14.4506 20.1375 14.4316 20.1505 14.4146 20.1635C14.5696 20.6025 14.7246 21.0425 14.8796 21.4815C14.3836 21.2525 14.0216 20.8575 13.5266 20.6015C13.7286 21.0765 13.9316 21.5525 14.1336 22.0275C14.1106 22.0455 14.0876 22.0635 14.0646 22.0805C13.6226 21.6955 13.1796 21.3115 12.7366 20.9265C12.7166 20.9395 12.6966 20.9525 12.6766 20.9655C12.8596 21.5195 13.0416 22.0745 13.2236 22.6305C13.2006 22.6475 13.1776 22.6645 13.1546 22.6825C12.6706 22.2195 12.1876 21.7565 11.7046 21.2925C11.6846 21.3025 11.6646 21.3125 11.6446 21.3215C11.8306 21.9225 12.0156 22.5235 12.2006 23.1235C12.1736 23.1375 12.1476 23.1515 12.1216 23.1645L11.0696 21.7065C11.0476 21.7165 11.0276 21.7275 11.0056 21.7375C11.1766 22.3345 11.3476 22.9305 11.5196 23.5275C11.4946 23.5405 11.4696 23.5535 11.4456 23.5665C10.9536 22.9925 10.4606 22.4185 9.96864 21.8445C9.94364 21.8575 9.91864 21.8695 9.89364 21.8815C10.1026 22.5545 10.3766 23.2085 10.5916 23.8795C10.5686 23.8955 10.5456 23.9115 10.5236 23.9275C9.96764 23.3285 9.41364 22.7295 8.85764 22.1295C8.83664 22.1435 8.81564 22.1565 8.79464 22.1705C9.12864 22.8125 9.46164 23.4545 9.79564 24.0965C9.77364 24.1175 9.75164 24.1375 9.72964 24.1585C9.00164 23.5905 8.27364 23.0225 7.54464 22.4545C7.52564 22.4685 7.50564 22.4835 7.48664 22.4975C7.85964 23.0695 8.23264 23.6415 8.61364 24.2255C7.89764 24.1605 5.33464 22.2985 4.91864 21.5305C5.02464 21.5305 5.10864 21.5265 5.19264 21.5305C7.16964 21.6325 9.11164 21.4215 11.0046 20.8345C12.1066 20.4925 13.1346 19.9955 14.0496 19.2815ZM18.8426 20.8045C19.6896 21.0205 20.3556 21.7175 20.3296 22.4425C19.9266 22.2055 19.5666 21.9945 19.2076 21.7825C19.1916 21.7955 19.1756 21.8075 19.1606 21.8205C19.3346 22.0115 19.5066 22.2025 19.6806 22.3935C19.6686 22.4155 19.6586 22.4385 19.6476 22.4605C19.4546 22.3865 19.2606 22.3125 19.0686 22.2375C19.0596 22.2505 19.0496 22.2635 19.0416 22.2765C19.1076 22.3325 19.1726 22.3895 19.2406 22.4445C19.3096 22.5005 19.3786 22.5535 19.4216 22.6615C19.1066 22.5475 18.7926 22.4325 18.4766 22.3185C18.4656 22.3335 18.4556 22.3475 18.4446 22.3615C18.7096 22.5475 18.9726 22.7335 19.2366 22.9185C19.2266 22.9395 19.2156 22.9615 19.2066 22.9825C18.8536 22.8615 18.5016 22.7405 18.1496 22.6195C18.3926 22.9195 18.7416 23.0845 18.9946 23.3895C18.7146 23.3575 18.4356 23.3255 18.1566 23.2935C18.1476 23.3115 18.1376 23.3295 18.1276 23.3475C18.3676 23.4695 18.6076 23.5915 18.8466 23.7145C18.8396 23.7365 18.8326 23.7595 18.8256 23.7815C18.6536 23.7945 18.4816 23.8075 18.2286 23.8255C18.5536 24.0115 18.8106 24.1585 19.0756 24.3095C18.6656 24.6305 17.9306 24.4635 17.2876 23.9245C16.6626 23.4015 16.5286 22.5735 16.9396 21.7725C17.3606 20.9535 18.0516 20.6025 18.8426 20.8045ZM20.5086 26.9385C20.4556 27.0795 20.4166 27.2275 20.3446 27.3585C20.0546 27.8935 19.6256 28.2995 19.0996 28.5935C18.5766 28.8855 18.0576 28.8255 17.5816 28.4715C17.0796 28.1005 16.8036 27.5815 16.7106 26.9765C16.6806 26.7915 16.7156 26.5705 16.7946 26.4015C17.1426 25.6545 17.7366 25.2205 18.5576 25.1145C18.6606 25.1015 18.7676 25.1195 18.8716 25.1325C18.9186 25.1385 18.9636 25.1665 19.0856 25.2145C18.8256 25.3815 18.6166 25.5135 18.3486 25.6845C18.5666 25.6545 18.7136 25.6345 18.8606 25.6155C18.8666 25.6325 18.8736 25.6515 18.8786 25.6695C18.7226 25.7935 18.5666 25.9185 18.4096 26.0435C18.4176 26.0575 18.4246 26.0705 18.4326 26.0845L18.9396 25.9185C18.8826 26.1555 18.6966 26.2685 18.5486 26.4125C18.3896 26.5675 18.2216 26.7135 18.0876 26.9155C18.4926 26.6955 18.8956 26.4745 19.2986 26.2545C19.3196 26.2775 19.3386 26.2995 19.3596 26.3215C19.1526 26.5575 18.9466 26.7935 18.7396 27.0285C18.7516 27.0485 18.7646 27.0685 18.7786 27.0875C19.0416 26.9095 19.3046 26.7305 19.5676 26.5525C19.5846 26.5715 19.6006 26.5905 19.6176 26.6105C19.5426 26.7355 19.4666 26.8605 19.3906 26.9855C19.4046 27.0015 19.4186 27.0175 19.4316 27.0325C19.5806 26.9245 19.7286 26.8165 19.8776 26.7085C19.8986 26.7185 19.9196 26.7295 19.9406 26.7395C19.8266 27.0055 19.7116 27.2705 19.5966 27.5345C19.6126 27.5505 19.6276 27.5675 19.6426 27.5825C19.9076 27.3505 20.1706 27.1185 20.4346 26.8865C20.4596 26.9045 20.4846 26.9215 20.5086 26.9385ZM21.4556 23.7715C21.7936 23.7695 22.0616 24.1085 22.0686 24.5465C22.0746 24.9365 21.7946 25.2375 21.4256 25.2395C21.0326 25.2425 20.6926 24.9095 20.6966 24.5235C20.6996 24.1365 21.0666 23.7725 21.4556 23.7715ZM21.1546 20.0885C21.7076 19.1765 23.2286 19.0075 23.9536 19.7865C24.1316 19.9785 24.2656 20.2525 24.3226 20.5105C24.4776 21.2115 24.3366 21.8725 23.9036 22.4545C23.7376 22.6765 23.5346 22.8585 23.1686 22.8525C23.2916 22.5085 23.4026 22.1955 23.5136 21.8825C23.5016 21.8745 23.4876 21.8655 23.4746 21.8565C23.3316 22.0305 23.1876 22.2045 23.0436 22.3785L22.9826 22.3565L23.1556 21.6785C23.1396 21.6655 23.1256 21.6535 23.1106 21.6405C23.0186 21.7695 22.9256 21.8995 22.8346 22.0285C22.8006 22.0075 22.7676 21.9865 22.7356 21.9655C22.7736 21.6985 22.8116 21.4325 22.8496 21.1665C22.8346 21.1585 22.8196 21.1505 22.8046 21.1425C22.6886 21.3405 22.5716 21.5395 22.4556 21.7385L22.3846 21.7225C22.4026 21.4435 22.4196 21.1655 22.4376 20.8865C22.4216 20.8775 22.4066 20.8695 22.3906 20.8605C22.3276 21.0085 22.2626 21.1565 22.2016 21.3055C22.1376 21.4565 22.0766 21.6075 22.0146 21.7585C21.9886 21.7525 21.9626 21.7465 21.9366 21.7405C21.9266 21.5515 21.9166 21.3635 21.9066 21.1755C21.8906 21.1715 21.8766 21.1665 21.8616 21.1625C21.7836 21.4105 21.7066 21.6585 21.6276 21.9065C21.6036 21.9085 21.5796 21.9095 21.5536 21.9105C21.5006 21.5945 21.4466 21.2775 21.3926 20.9615C21.3706 20.9595 21.3486 20.9575 21.3266 20.9565C21.2286 21.3375 21.1296 21.7185 21.0226 22.1365C20.8366 21.9475 20.7996 21.7595 20.7866 21.5595C20.7506 21.0295 20.8826 20.5355 21.1546 20.0885ZM25.6216 22.8575C26.6796 23.1165 27.1456 23.9375 26.8686 24.9915C26.7206 25.5515 26.4676 26.0305 25.8726 26.2225C25.2056 26.4385 24.5476 26.4295 23.9326 26.0535C23.8086 25.9775 23.7216 25.8395 23.5946 25.7065C23.8506 25.5455 24.1036 25.6545 24.3636 25.5465C24.2356 25.4725 24.1356 25.4155 23.9626 25.3165C24.2726 25.2855 24.5006 25.2625 24.7966 25.2335C24.6576 25.1305 24.5676 25.0635 24.4156 24.9505C24.7896 24.8945 25.0946 24.8495 25.3996 24.8035L25.4056 24.7575C25.0956 24.7195 24.7856 24.6825 24.4356 24.6395C24.6376 24.4285 24.9156 24.5075 25.1616 24.3575C24.8416 24.2725 24.5576 24.1955 24.1906 24.0975C24.4666 24.0005 24.6586 23.9335 24.9396 23.8345C24.5526 23.8565 24.2606 23.8735 23.9696 23.8905C23.9596 23.8665 23.9516 23.8435 23.9416 23.8205C24.1476 23.6805 24.3536 23.5395 24.5596 23.3995L24.5396 23.3465C24.2316 23.3635 23.9226 23.3805 23.5426 23.4005C23.6346 23.2655 23.6766 23.1735 23.7466 23.1085C23.9756 22.8945 24.2556 22.7625 24.5656 22.7645C24.9186 22.7665 25.2816 22.7745 25.6216 22.8575ZM24.4596 28.4825C24.4176 28.8725 24.2046 29.1695 23.8836 29.3855C23.3076 29.7745 22.4356 29.7645 21.8726 29.3585C21.3726 28.9975 21.0446 28.5115 20.9116 27.9095C20.8426 27.6055 20.8306 27.2935 21.1416 26.9935C21.2486 27.3215 21.3366 27.5985 21.4266 27.8745C21.4466 27.8685 21.4656 27.8625 21.4856 27.8575L21.5296 27.2905C21.5526 27.2835 21.5756 27.2765 21.5976 27.2685C21.7106 27.5235 21.8246 27.7785 21.9376 28.0325C21.9536 28.0245 21.9696 28.0145 21.9856 28.0055C21.9576 27.8165 21.9276 27.6265 21.8996 27.4375C21.9196 27.4315 21.9396 27.4255 21.9596 27.4205C22.0296 27.5545 22.0976 27.6895 22.2026 27.8925V27.2965C22.2226 27.2885 22.2426 27.2805 22.2626 27.2735C22.5156 27.6335 22.7696 27.9935 23.0226 28.3535C23.0466 28.3435 23.0716 28.3325 23.0956 28.3215C22.9476 27.8505 22.7996 27.3795 22.6516 26.9075C22.6716 26.8955 22.6936 26.8835 22.7136 26.8715C22.8736 27.0695 23.0326 27.2665 23.1906 27.4645C23.2106 27.4565 23.2326 27.4475 23.2526 27.4395C23.1876 27.1735 23.1236 26.9075 23.0576 26.6405C23.0776 26.6295 23.0966 26.6185 23.1166 26.6065C23.2936 26.8095 23.4726 27.0115 23.6516 27.2145L23.7016 27.1865C23.5586 26.8735 23.4156 26.5615 23.2506 26.1995C23.5146 26.2235 23.6676 26.3445 23.7936 26.4865C24.2986 27.0545 24.5446 27.7175 24.4596 28.4825ZM19.1586 31.3285C18.9846 30.5385 19.4586 29.1595 20.0556 28.7835C20.2726 29.6805 19.8756 30.7835 19.1586 31.3285ZM17.1676 31.3485C17.0836 30.4505 17.4946 29.6495 18.1486 29.3965C18.3246 29.9735 17.8506 30.9365 17.1676 31.3485ZM14.7876 30.3365C15.0276 29.4125 15.9346 28.7665 16.6856 28.9865C16.6586 29.6815 15.6976 30.3645 14.7876 30.3365ZM14.0956 27.8395C14.5636 27.1985 15.6656 27.2825 16.3126 28.0295C15.4956 28.4595 14.8136 28.0685 14.0956 27.8395ZM11.1596 30.7135C11.1266 30.7085 11.0956 30.7025 11.0646 30.6975C11.0846 30.3645 11.1026 30.0325 11.1216 29.6995C11.1076 29.6935 11.0936 29.6865 11.0806 29.6795C10.9686 29.9195 10.8576 30.1585 10.7456 30.3975C10.7246 30.3905 10.7036 30.3825 10.6826 30.3765C10.7226 30.1485 10.7636 29.9205 10.8036 29.6925C10.7906 29.6835 10.7776 29.6755 10.7636 29.6675C10.6006 29.9215 10.4376 30.1755 10.2326 30.4935C10.1726 30.0405 10.3306 29.6745 10.3266 29.2075C10.0896 29.6155 9.89464 29.9525 9.66064 30.3585C9.58164 29.9185 9.73664 29.5595 9.65564 29.1775C9.47764 29.5045 9.29864 29.8305 9.12164 30.1565C9.09264 30.1525 9.06364 30.1475 9.03564 30.1425V29.0905C9.01064 29.0885 8.98664 29.0855 8.96164 29.0835C8.85064 29.3805 8.74064 29.6765 8.62964 29.9725L8.56264 29.9525V27.9015C9.63564 28.1795 10.6816 28.4515 11.7746 28.7355C11.6016 29.4305 11.4536 30.0945 11.1596 30.7135ZM10.4516 34.3045C10.0796 33.8555 10.0786 33.0275 10.4466 32.4045C10.7466 33.0565 10.6506 33.6635 10.4516 34.3045ZM9.52164 34.2335C9.34164 33.7495 9.37764 33.0155 9.59164 32.4755C9.90964 32.8365 9.88464 33.6475 9.52164 34.2335ZM8.64964 34.1115C8.45864 33.6145 8.54164 32.9855 8.84664 32.4735C9.05864 32.7935 8.97964 33.4965 8.64964 34.1115ZM7.68564 34.3065C7.33864 33.7965 7.44664 32.9665 7.90064 32.4425C8.19364 32.8785 8.11564 33.6035 7.68564 34.3065ZM6.90164 32.8045C6.87464 32.8615 6.83464 32.9135 6.80164 32.9675C6.77664 32.9655 6.75064 32.9625 6.72364 32.9605C6.75264 32.6485 6.78564 32.3375 6.81164 32.0255C6.92564 30.6615 7.03164 29.2975 7.15464 27.9345C7.21164 27.2985 7.06264 26.7345 6.66464 26.2365C6.30164 25.7845 5.93164 25.3395 5.57864 24.8805C5.34064 24.5705 5.12664 24.2435 4.90164 23.9245C4.92064 23.9045 4.94164 23.8855 4.96064 23.8655C5.03064 23.9085 5.11064 23.9415 5.16864 23.9955C5.78564 24.5685 6.40864 25.1355 7.00764 25.7255C7.21064 25.9255 7.37264 26.1775 7.51464 26.4265C7.60864 26.5925 7.67964 26.7965 7.68264 26.9835C7.70364 28.3265 7.69664 29.6695 7.45064 30.9975C7.33464 31.6205 7.17364 32.2295 6.90164 32.8045ZM6.01864 28.7995V28.1535C5.99564 28.1495 5.97064 28.1455 5.94664 28.1415C5.84464 28.4545 5.74364 28.7675 5.64264 29.0805C5.61664 29.0745 5.58964 29.0695 5.56364 29.0645C5.55464 28.7315 5.54464 28.3985 5.53464 28.0645C5.53364 28.0605 5.49864 28.0575 5.47364 28.0525C5.38464 28.3795 5.29464 28.7045 5.20664 29.0305C5.18064 29.0305 5.15664 29.0295 5.13164 29.0295C5.08964 28.6435 5.04864 28.2575 5.00664 27.8715C4.98264 27.8665 4.95864 27.8615 4.93464 27.8575C4.81964 28.2145 4.70564 28.5715 4.58964 28.9295C4.56364 28.9275 4.53764 28.9265 4.50964 28.9245V27.8795L4.41664 27.8645C4.27964 28.2225 4.14264 28.5815 3.97764 29.0105C3.83464 28.6465 3.95464 28.3295 3.85564 27.9445C3.73864 28.3245 3.64464 28.6255 3.55064 28.9265C3.52864 28.9245 3.50464 28.9215 3.48264 28.9195C3.44764 28.5775 3.41164 28.2355 3.37564 27.8935C3.35664 27.8905 3.33864 27.8875 3.32064 27.8845C3.23464 28.1935 3.14964 28.5025 3.06464 28.8105C2.87764 28.1325 2.76464 27.4495 2.68164 26.7175C3.89064 26.9425 5.05164 26.9805 6.25864 26.7195C6.27364 27.4385 6.12364 28.1145 6.01864 28.7995ZM5.64264 32.3675C5.30764 31.6945 5.50364 31.0875 5.73164 30.4605C6.16164 30.8265 6.11964 31.7575 5.64264 32.3675ZM4.59564 32.2245C4.41664 31.7765 4.57464 31.0885 4.98764 30.5405C5.07364 31.1915 4.89864 31.7035 4.59564 32.2245ZM3.80164 32.1845C3.59864 31.4755 3.72864 30.9095 4.06464 30.3365C4.23264 30.8115 4.13764 31.5125 3.80164 32.1845ZM3.01164 32.0145C2.76664 31.5505 2.85764 30.7295 3.20964 30.2205C3.51764 30.6965 3.42364 31.5425 3.01164 32.0145ZM2.22364 21.6555C2.71364 22.4545 3.15464 23.2165 3.63864 23.9515C4.13064 24.6985 4.74564 25.3485 5.47664 26.0015H4.93364C4.88564 25.9015 4.83264 25.7865 4.75864 25.6315C4.66664 25.7615 4.59764 25.8585 4.49664 26.0025C4.38064 25.7415 4.28764 25.5315 4.16464 25.2545C4.08264 25.5115 4.01964 25.7095 3.95764 25.9075C3.93764 25.9105 3.91764 25.9125 3.89664 25.9155C3.80864 25.5855 3.71964 25.2565 3.63064 24.9265C3.61264 24.9325 3.59264 24.9395 3.57464 24.9455C3.48764 25.2605 3.39964 25.5755 3.31264 25.8905C3.28864 25.8945 3.26464 25.8985 3.24164 25.9015C3.16864 25.6115 3.09664 25.3205 3.02564 25.0295C3.00664 25.0285 2.98964 25.0285 2.97164 25.0275C2.91564 25.2935 2.85864 25.5595 2.80164 25.8265C2.77264 25.8245 2.74464 25.8235 2.71564 25.8225C2.55364 24.4515 2.39164 23.0815 2.22364 21.6555ZM30.0346 23.7085C29.7836 23.8765 29.5316 24.0445 29.2806 24.2125C29.2886 24.2285 29.2946 24.2435 29.3016 24.2595C29.6166 24.2345 29.9316 24.2085 30.2466 24.1835C30.2536 24.2075 30.2616 24.2315 30.2686 24.2555L29.7826 24.6115C29.7946 24.6335 29.8066 24.6555 29.8196 24.6775C30.1226 24.6175 30.4256 24.5565 30.7286 24.4965L30.7696 24.5705L29.8586 25.4045C29.8706 25.4255 29.8826 25.4475 29.8956 25.4685C30.3126 25.3705 30.7306 25.2725 31.1476 25.1745C30.8346 25.4925 30.4316 25.6615 30.0856 25.9635C30.5546 25.9205 31.0226 25.8775 31.5496 25.8295C31.1746 26.1385 29.5016 26.6265 28.8496 26.6345C28.9446 25.7805 28.7446 24.9675 28.4716 24.1275C28.9726 23.9115 29.4966 23.8085 30.0346 23.7085ZM32.7006 22.5185C32.7616 22.4675 32.8726 22.4315 32.9466 22.4475C33.6366 22.5995 34.3256 22.7645 35.0796 22.9415C34.6176 23.6715 34.1826 24.3445 33.4156 24.8045C32.9646 24.2245 32.5606 23.6375 32.1266 23.0475C32.3346 22.8535 32.5096 22.6765 32.7006 22.5185ZM32.3846 17.6285C32.8056 17.1915 33.2476 16.7325 33.7086 16.2545C34.1976 16.7995 34.6536 17.3015 34.8936 18.0035C34.3976 18.2745 33.9176 18.5365 33.4276 18.8045C33.0806 18.4125 32.7436 18.0325 32.3846 17.6285ZM31.2816 16.7395C30.7906 16.4785 30.3196 16.2295 29.8126 15.9605C30.0046 15.4835 30.1976 15.0045 30.4016 14.4985C31.1266 14.6975 31.8066 14.8995 32.4866 15.2615C32.0696 15.7735 31.6826 16.2465 31.2816 16.7395ZM28.1376 15.4015C27.4686 15.3175 26.8356 15.2385 26.1296 15.1505C26.2706 14.9535 26.3746 14.7965 26.4916 14.6485C26.6856 14.4015 26.8426 14.0655 27.0986 13.9435C27.3556 13.8205 27.7156 13.9105 28.0306 13.9115C28.2096 13.9125 28.3896 13.9225 28.6376 13.9295C28.4596 14.4525 28.3016 14.9175 28.1376 15.4015ZM35.4966 21.5475C34.7746 21.4705 34.0776 21.3955 33.3316 21.3165C33.4566 20.8475 33.5636 20.4455 33.6846 19.9945C34.1716 19.8195 34.6996 19.6295 35.2556 19.4285C35.5556 20.1145 35.7026 20.7835 35.4966 21.5475ZM24.2226 14.8125C24.1196 14.8615 23.9496 14.8785 23.8576 14.8255C23.6096 14.6845 23.3546 14.5305 23.1636 14.3245C22.7966 13.9285 22.6326 13.4235 22.5366 12.8985C22.5286 12.8515 22.5466 12.7995 22.5586 12.7105C23.4516 13.0055 24.3446 13.2155 25.1716 13.6245C25.0616 13.9235 24.4686 14.6945 24.2226 14.8125ZM22.3716 11.5165C22.4346 11.0375 22.5786 10.5905 22.9966 10.2895C23.0246 10.2685 23.0686 10.2715 23.1606 10.2525C23.0686 10.4805 22.9896 10.6765 22.9116 10.8725C22.9396 10.8955 22.9666 10.9195 22.9956 10.9425C23.0726 10.8035 23.1496 10.6645 23.2256 10.5255C23.2666 10.5515 23.3066 10.5785 23.3476 10.6055C23.2936 10.7795 23.2416 10.9545 23.1626 11.2125C23.3446 11.0565 23.4656 10.9525 23.6556 10.7905C23.5906 11.0495 23.5456 11.2305 23.4796 11.4965C23.6836 11.3255 23.8096 11.2195 23.9966 11.0625C23.9556 11.2765 23.9286 11.4125 23.9026 11.5485C23.9186 11.5615 23.9346 11.5745 23.9506 11.5875C24.0136 11.4835 24.0786 11.3795 24.1416 11.2745C24.1736 11.2945 24.2056 11.3135 24.2376 11.3325C24.2056 11.4995 24.1726 11.6665 24.1266 11.9035C24.2936 11.7645 24.4156 11.6635 24.5766 11.5285C24.5706 11.7535 24.4516 11.8905 24.3896 12.0465C24.3236 12.2165 24.2526 12.3855 24.1686 12.5975C23.5846 12.3625 23.0166 12.1335 22.5136 11.7705C22.4406 11.7175 22.3616 11.5955 22.3716 11.5165ZM1.31064 22.6555C1.49464 23.4765 1.68164 24.3075 1.73064 25.1425C1.78264 26.0015 1.90364 26.8425 2.02964 27.6885C2.16464 28.5865 2.29364 29.4865 2.37164 30.3895C2.44064 31.1835 2.27264 31.9245 1.74564 32.5735C1.52764 32.8405 1.38264 33.1885 1.28564 33.5235C1.16764 33.9305 1.32364 34.1115 1.74764 34.1605C1.88364 34.1765 1.99664 34.1955 2.08064 34.3245C2.38064 34.7905 2.81464 34.9445 3.34464 34.8175C3.54664 34.7695 3.67864 34.8185 3.82564 34.9725C4.17564 35.3395 4.72664 35.4385 5.12964 35.2255C5.27564 35.1485 5.39764 35.0265 5.54664 34.9125C5.76964 35.1955 6.10564 35.0585 6.39864 35.1285C6.35264 35.5555 6.25964 35.9435 6.00864 36.2865C5.93764 36.3835 5.88364 36.5295 5.89464 36.6465C5.93764 37.1285 6.48264 37.3965 6.90364 37.1575C7.03964 37.0805 7.17064 36.9965 7.29464 36.9225C8.02364 37.4715 8.43664 37.6095 9.11964 36.9685C9.83164 37.5495 10.5576 37.5625 11.2166 37.0075C11.9506 37.3945 12.3706 36.9015 12.3586 36.2705C12.3496 35.7785 12.1816 35.3515 11.9076 34.9475C11.7316 34.6895 11.5736 34.4075 11.4746 34.1135C11.3046 33.6045 11.3386 33.0715 11.4226 32.5485C11.5686 31.6425 11.8986 30.7985 12.3056 29.9805C12.4556 29.6815 12.5906 29.3755 12.7536 29.0295C12.8086 29.2225 12.8776 29.4015 12.9086 29.5865C13.0266 30.2855 13.2616 30.9405 13.6796 31.5125C13.9826 31.9265 14.3306 32.3065 14.6576 32.7005C14.7196 32.7755 14.7826 32.8495 14.8526 32.9345C14.7456 32.9815 14.6696 33.0075 14.6016 33.0455C13.6876 33.5465 13.0146 34.2535 12.7206 35.2765C12.6356 35.5735 12.6326 35.8755 12.7496 36.1695C12.9226 36.6115 13.2216 36.7385 13.6496 36.5355C13.8726 36.4295 14.0806 36.4295 14.2936 36.5365C14.4226 36.6005 14.5466 36.6745 14.6756 36.7415C15.1706 36.9995 15.3786 36.9555 15.7356 36.5275C15.8326 36.4115 15.9406 36.3055 16.0456 36.1935C16.2196 36.2965 16.3516 36.3825 16.4916 36.4545C17.0196 36.7295 17.5576 36.6505 17.9426 36.2535C18.3536 35.8285 18.7866 35.4225 19.1796 34.9815C19.8126 34.2735 20.6016 33.8175 21.4756 33.4885C23.3216 32.7935 25.2316 32.3665 27.1916 32.1625C28.1246 32.0655 28.6116 31.3345 28.2846 30.4535C28.1576 30.1085 28.0036 29.7715 27.8386 29.4415C27.7396 29.2425 27.7376 29.0925 27.8706 28.9005C28.0936 28.5775 28.2716 28.2235 28.4846 27.8925C28.5336 27.8185 28.6416 27.7635 28.7336 27.7375C29.2276 27.6005 29.7316 27.4935 30.2206 27.3415C31.5796 26.9195 32.8556 26.3285 33.9216 25.3645C35.7006 23.7575 36.3726 21.7625 35.9096 19.4075C35.4876 17.2575 34.2396 15.7275 32.3116 14.7245C30.9116 13.9965 29.3996 13.6685 27.8536 13.4495C27.1636 13.3525 26.4716 13.2555 25.7866 13.1295C25.5456 13.0845 25.3066 12.9805 25.0956 12.8545C24.8366 12.7005 24.7956 12.4535 24.9796 12.2125C25.1046 12.0475 25.2666 11.9025 25.4366 11.7825C25.8716 11.4765 26.3646 11.2935 26.8696 11.1335C27.1276 11.0505 27.3946 10.9405 27.6076 10.7765C28.2996 10.2455 28.3036 9.45549 27.6406 8.89449C27.5496 8.81849 27.4536 8.74749 27.3526 8.68649C26.5636 8.21549 25.7256 8.02949 24.8136 8.23349C23.1336 8.60749 21.5076 10.2235 21.6866 12.2435C21.7986 13.5195 22.3546 14.5445 23.5946 15.0645C23.9806 15.2255 24.3956 15.3325 24.8076 15.4055C25.6756 15.5595 26.5526 15.6615 27.4226 15.8085C29.0526 16.0855 30.5316 16.7115 31.7776 17.8175C32.0996 18.1035 32.4046 18.4255 32.6546 18.7765C33.2776 19.6525 33.2836 20.5335 32.6816 21.4245C32.4396 21.7825 32.1246 22.0905 31.8556 22.4315C31.5326 22.8415 31.0946 23.0265 30.5986 23.0995C30.3256 23.1395 30.0496 23.1665 29.7746 23.1915C29.2136 23.2425 28.6536 23.2895 28.0646 23.3405C28.0396 23.2955 27.9896 23.2185 27.9526 23.1365C27.5366 22.2125 27.1086 21.2925 26.7116 20.3605C26.3246 19.4505 25.7536 18.6975 24.9396 18.1345C24.3486 17.7255 23.7056 17.4825 22.9726 17.5645C22.4506 17.6235 21.9276 17.6895 21.4086 17.7755C21.1876 17.8125 21.0146 17.7775 20.8136 17.6685C20.4116 17.4485 19.9946 17.2385 19.5596 17.0955C18.5356 16.7565 17.4956 16.4645 16.4656 16.1425C15.6496 15.8865 14.8256 15.6485 14.0286 15.3425C12.9246 14.9195 12.1776 14.1125 11.7496 13.0125C11.7136 12.9235 11.7066 12.8225 11.6776 12.6945C11.8106 12.7165 11.8986 12.7395 11.9876 12.7445C12.3536 12.7665 12.7246 12.8275 13.0856 12.7905C13.9516 12.7035 14.5426 12.1305 14.6456 11.2635C14.7386 10.4885 14.6526 9.71449 14.4946 8.94949C14.4706 8.83549 14.4226 8.72249 14.3656 8.62049C14.3196 8.53849 14.2426 8.47349 14.2056 8.43149C14.0086 8.73849 13.8306 9.02549 13.6446 9.30749C13.5106 9.51149 13.3326 9.56849 13.0566 9.42349V8.52649C13.0286 8.51749 13.0006 8.50849 12.9716 8.49949C12.7426 8.74649 12.5136 8.99449 12.2806 9.24649C11.4506 8.91749 10.6906 8.53249 9.99764 8.02149C9.94464 7.98249 9.89464 7.93749 9.85264 7.88749C9.69064 7.69249 9.71064 7.55349 9.94864 7.45749C10.1536 7.37349 10.3766 7.32849 10.5926 7.27449C11.6656 7.00949 12.6756 6.62449 13.5216 5.87749C13.9036 5.54149 14.3726 5.35549 14.8636 5.23549C14.9606 5.21149 15.0636 5.21949 15.1686 5.21249C15.0436 6.27549 15.0456 6.31749 15.2596 6.65549C15.5016 6.36249 15.7216 6.04849 15.9886 5.77949C16.8316 4.93049 17.1066 3.89949 17.0196 2.74049C17.0016 2.50749 16.9716 2.27449 16.9446 2.01049C17.3766 1.96249 17.7906 1.91649 18.2056 1.87049C18.2056 1.85849 18.2056 1.84749 18.2066 1.83649C17.7826 1.79749 17.3586 1.75949 16.9346 1.72149C16.9286 1.69149 16.9226 1.66149 16.9166 1.63149C17.4496 1.38549 18.0326 1.25249 18.6426 0.957488C18.0376 1.00149 17.5416 1.19449 16.9916 1.19749C17.0506 0.750488 17.5046 0.723488 17.6756 0.396488C17.4356 0.465488 17.2256 0.527488 17.0876 0.567488C16.8156 0.349488 16.5956 0.174488 16.3766 0.000488281H15.8226C15.4736 0.163488 15.1686 0.380488 15.0056 0.747488C14.7886 0.693488 14.6106 0.648488 14.4326 0.606488C13.7516 0.445488 13.0646 0.284488 12.3636 0.353488C11.6966 0.419488 11.0316 0.527488 10.3746 0.660488C9.47264 0.841488 8.62664 1.16149 7.94464 1.81649C7.91064 1.84949 7.85464 1.86149 7.84164 1.86649C7.34464 1.55849 6.89264 1.23449 6.40164 0.986488C5.83664 0.701488 5.16964 0.889488 4.84364 1.35749C4.48664 1.87049 4.54164 2.61449 4.96864 3.07149C5.00864 3.11349 5.04364 3.16149 5.12864 3.26649C4.89364 3.27549 4.72664 3.29649 4.56164 3.28549C4.04264 3.24949 3.54464 3.11549 3.09264 2.86049C2.24864 2.38149 1.08564 2.92549 0.728638 3.73449C0.661638 3.88749 0.619638 4.06349 0.613638 4.23049C0.586638 4.99049 1.11564 5.77149 1.84764 5.98049C2.25964 6.09849 2.70164 6.11849 3.12964 6.17949C3.26664 6.19949 3.40664 6.20649 3.59264 6.22449C3.50264 6.34949 3.45564 6.42549 3.39864 6.49449C2.49964 7.59249 1.78164 8.80049 1.20364 10.0935C0.490638 11.6895 0.140638 13.3705 0.0286382 15.1045C-0.0633618 16.5345 0.0596382 17.9405 0.466638 19.3255C0.789638 20.4235 1.06064 21.5385 1.31064 22.6555Z" fill="#DA4B32"/>
</g>
</svg>