<svg width="38" height="34" viewBox="0 0 38 34" fill="none" xmlns="http://www.w3.org/2000/svg">
<mask id="mask0" mask-type="alpha" maskUnits="userSpaceOnUse" x="0" y="0" width="38" height="34">
<path fill-rule="evenodd" clip-rule="evenodd" d="M0.000244141 0.000366211H37.8045V33.9124H0.000244141V0.000366211Z" fill="white"/>
</mask>
<g mask="url(#mask0)">
<path fill-rule="evenodd" clip-rule="evenodd" d="M30.1683 11.6706C30.2923 11.1536 30.7163 10.7336 30.6543 10.1346C30.0803 10.1416 29.6323 10.4596 29.1113 10.6696C29.5743 9.95661 30.4703 9.57761 31.1553 9.81261C31.0933 10.5906 30.7443 11.1886 30.1683 11.6706ZM28.8493 13.9586C29.1113 13.5056 29.6283 13.2126 29.7193 12.6216C29.1073 12.4726 28.5573 12.6736 27.9743 12.7966C28.5323 12.1986 29.4923 11.9946 30.1593 12.3556C29.9443 13.0846 29.5013 13.6026 28.8493 13.9586ZM26.3483 16.3986C26.5423 16.1536 26.5853 15.9336 26.5413 15.7216C26.4923 15.4826 26.3433 15.2846 26.1133 15.1016C26.8673 14.7476 27.6093 14.5036 28.5083 14.6596C27.9473 15.4616 27.3003 16.0456 26.3483 16.3986ZM25.5793 14.6586C25.6013 14.6256 25.6203 14.5906 25.6453 14.5606C25.6763 14.5216 25.7123 14.4856 25.7673 14.4246C25.6823 14.3996 25.6253 14.3816 25.5663 14.3636C25.6943 13.9196 25.1943 13.8466 25.1163 13.4826C25.7113 13.0176 26.3973 12.6236 27.3173 12.5746C26.9143 13.4766 26.4273 14.2076 25.5793 14.6586ZM22.4213 18.6786C23.6183 17.9686 24.6933 17.1096 25.6683 16.0246C25.4473 16.9836 23.6093 18.4416 22.4213 18.6786ZM23.3813 19.0656C22.6473 19.6456 21.7933 19.9356 20.8823 20.0736C19.7083 20.2526 18.5433 20.1456 17.3873 19.9126C17.2983 19.8956 17.2143 19.8556 17.1283 19.8246C20.4983 19.9176 21.7323 19.6206 23.6573 18.8176C23.5653 18.9006 23.4783 18.9886 23.3813 19.0656ZM12.4503 17.6726C11.9923 17.0666 11.6753 16.3916 11.5573 15.6326C11.4623 15.0246 11.5763 14.4496 11.8923 13.9266C12.2333 13.3606 12.7563 13.1126 13.4313 13.1676C13.3363 13.2216 13.2433 13.2776 13.1463 13.3276C12.1563 13.8346 11.7823 14.6136 11.9833 15.7066C12.1993 16.8726 12.8223 17.7946 13.6853 18.5686C14.7903 19.5616 16.1193 20.1096 17.5433 20.4546C17.8323 20.5246 18.1233 20.5856 18.4123 20.6506C16.0003 20.5096 13.9433 19.6476 12.4503 17.6726ZM13.5423 29.2226C13.6213 28.9686 13.5433 28.6476 13.9783 28.4966C14.0193 28.8566 14.0503 29.1376 14.0853 29.4386C13.8363 29.4676 13.7153 29.3156 13.5423 29.2226ZM13.2313 30.4066C13.2513 30.3146 13.2713 30.2276 13.2933 30.1256C13.4493 30.1696 13.5683 30.2026 13.7193 30.2446C13.5893 30.4466 13.4433 30.4676 13.2313 30.4066ZM11.9173 19.8116C11.5913 20.0256 11.2833 19.9586 10.8803 19.5616C10.9913 19.4376 11.0063 19.2126 11.2563 19.3276C11.2483 19.2616 11.2393 19.1996 11.2243 19.0846C11.3443 19.1796 11.4363 19.2526 11.5553 19.3486C11.5153 19.2266 11.4853 19.1356 11.4393 18.9936C11.5403 19.0526 11.5913 19.0826 11.6613 19.1226V18.9046C11.6893 18.8836 11.7173 18.8606 11.7453 18.8386C11.7883 18.9496 11.8323 19.0606 11.8763 19.1716C11.9043 19.1476 11.9323 19.1236 11.9603 19.0996C11.9353 18.9876 11.9113 18.8766 11.8783 18.7256C11.9463 18.7416 11.9963 18.7546 12.0533 18.7696C12.0723 18.7146 12.0913 18.6596 12.1263 18.5586C12.1993 18.6656 12.2723 18.7376 12.3063 18.8256C12.4363 19.1736 12.2713 19.5776 11.9173 19.8116ZM10.5443 18.2406C10.2443 18.3436 9.99829 18.2216 9.71329 17.8116C9.93229 17.8026 10.0363 17.4926 10.3203 17.6546C10.3143 17.5956 10.3093 17.5476 10.2993 17.4576C10.3623 17.4926 10.4083 17.5186 10.4663 17.5506C10.4853 17.5086 10.5053 17.4676 10.5323 17.4096C10.5903 17.4556 10.6463 17.4996 10.7163 17.5546V17.2736C10.8153 17.2816 10.9443 17.3476 10.9753 17.1396C11.0123 17.2566 11.0703 17.3716 11.0823 17.4916C11.1123 17.7986 10.8623 18.1336 10.5443 18.2406ZM10.1813 19.9056C10.1113 20.2796 9.66229 20.5586 9.20129 20.5356C8.81729 20.5176 8.63329 20.3106 8.53429 19.7456C8.62029 19.8156 8.67729 19.8616 8.73429 19.9076C8.75729 19.8596 8.78329 19.8056 8.81929 19.7306C8.87629 19.8396 8.92429 19.9306 8.99929 20.0736C9.03129 19.9156 9.05529 19.7996 9.08929 19.6386C9.16429 19.7436 9.22129 19.8246 9.28929 19.9196C9.30329 19.8306 9.31429 19.7556 9.33329 19.6346C9.40529 19.7336 9.45929 19.8066 9.52629 19.8996C9.53229 19.7836 9.53829 19.6926 9.54429 19.5826C9.66329 19.6466 9.79829 19.4676 9.90329 19.6496C9.90929 19.5776 9.91329 19.5176 9.91729 19.4656H10.1863C10.1863 19.5856 10.2103 19.7506 10.1813 19.9056ZM7.38629 18.1106C7.44429 18.1656 7.48629 18.2046 7.53329 18.2486C7.56029 18.2016 7.58929 18.1506 7.62629 18.0876C7.67929 18.1776 7.72629 18.2556 7.78929 18.3626C7.82429 18.2656 7.84129 18.2176 7.86929 18.1386C7.92429 18.1966 7.96529 18.2406 8.01029 18.2876C8.03229 18.2216 8.05329 18.1556 8.08029 18.0736C8.12029 18.1346 8.14829 18.1756 8.18029 18.2226C8.20929 18.1656 8.23729 18.1116 8.26529 18.0576C8.42629 18.1826 8.56529 18.0186 8.71629 18.0266C8.81929 18.4606 8.63029 18.7826 8.24329 18.8346C7.83929 18.8896 7.30629 18.6746 7.38629 18.1106ZM6.99829 20.6966C6.66129 20.6906 6.44229 20.5356 6.33229 20.2276C6.29629 20.1236 6.27129 20.0036 6.25929 19.8656C6.28429 19.8516 6.30429 19.8596 6.32129 19.8786C6.33829 19.8966 6.35429 19.9236 6.36929 19.9466C6.40129 19.9936 6.43729 20.0246 6.50629 19.9306C6.57029 20.0236 6.63529 20.1156 6.73229 20.2556C6.75329 20.1186 6.76829 20.0196 6.79429 19.8426C6.87229 20.0206 6.91729 20.1246 6.98129 20.2746C7.02229 20.1206 7.04929 20.0166 7.09929 19.8246C7.15529 19.9706 7.18029 20.0336 7.21829 20.1326C7.25229 20.0376 7.27729 19.9676 7.32029 19.8476C7.37829 19.9536 7.41729 20.0246 7.46229 20.1086C7.48329 20.0256 7.50429 19.9456 7.52629 19.8596C7.57429 19.8846 7.61829 19.9066 7.67529 19.9376C7.70729 19.8716 7.73829 19.8066 7.77029 19.7416C7.79029 19.7406 7.81029 19.7396 7.83029 19.7396C7.83729 19.8446 7.86229 19.9516 7.84929 20.0536C7.79429 20.4646 7.46629 20.7066 6.99829 20.6966ZM5.31629 18.2096C5.39229 18.2406 5.46729 18.2596 5.52729 18.2996C5.59629 18.3446 5.65229 18.4076 5.73429 18.4826C5.75029 18.3796 5.76229 18.3036 5.78229 18.1786C5.85329 18.3146 5.90029 18.4036 5.96029 18.5186C5.98929 18.4136 6.01229 18.3316 6.04629 18.2086C6.10829 18.2816 6.14729 18.3266 6.19129 18.3776C6.21029 18.3156 6.22829 18.2566 6.25829 18.1556C6.29629 18.2256 6.32129 18.2696 6.34829 18.3196C6.45829 18.2496 6.56729 18.1806 6.67329 18.1126C6.78129 18.5116 6.62829 18.7966 6.23929 18.8906C5.71229 19.0186 5.41829 18.8046 5.31629 18.2096ZM4.90629 16.4846C5.02229 16.6106 5.10429 16.7016 5.18529 16.7906C5.19829 16.7746 5.23129 16.7356 5.26529 16.6946C5.36329 16.6696 5.33529 16.8986 5.52029 16.7926C5.65429 16.7156 5.87929 16.7986 6.06429 16.8096C6.01329 17.2026 5.80229 17.3656 5.40929 17.3126C5.00729 17.2566 4.85229 17.0246 4.90629 16.4846ZM7.79929 17.3126C7.38629 17.3966 7.21029 17.2806 7.09229 16.8496C7.18829 16.6706 7.35029 16.7716 7.45329 16.8016C7.57629 16.8376 7.67329 16.6026 7.78429 16.7906C7.79629 16.7386 7.80929 16.6886 7.81229 16.6786C7.99229 16.6386 8.15329 16.6036 8.31329 16.5676C8.38729 16.9756 8.21529 17.2286 7.79929 17.3126ZM9.89029 16.6456C9.59129 16.8206 9.36929 16.7536 9.06829 16.3686C9.34529 16.2686 9.51729 15.9546 9.87529 16.0586C9.88629 16.0616 9.91029 16.0156 9.92929 15.9936C9.99629 15.9176 10.0643 15.8426 10.1383 15.7586C10.3143 16.1696 10.2313 16.4456 9.89029 16.6456ZM4.46529 13.8446C4.57929 13.9756 4.68429 14.0966 4.82329 14.2566V13.8686C4.97629 14.0666 5.09429 14.2186 5.25029 14.4196C5.22929 14.2096 5.21429 14.0626 5.19929 13.9146C5.21629 13.9076 5.23429 13.8996 5.25129 13.8936C5.37629 14.0826 5.50229 14.2726 5.62729 14.4626L5.66829 14.4446C5.64229 14.2546 5.61629 14.0656 5.59029 13.8756C5.61229 13.8646 5.63429 13.8556 5.65529 13.8456L6.09629 14.5896C6.11029 14.5826 6.12529 14.5766 6.13929 14.5696C6.09429 14.3276 6.04829 14.0846 6.00329 13.8426C6.02329 13.8306 6.04329 13.8186 6.06329 13.8086C6.21529 14.0626 6.36729 14.3166 6.52029 14.5706C6.53429 14.5686 6.54829 14.5666 6.56229 14.5646C6.52929 14.3166 6.49729 14.0676 6.46429 13.8196L6.52829 13.7966C6.64229 14.0246 6.75529 14.2526 6.86929 14.4816C6.88129 14.4796 6.89229 14.4766 6.90429 14.4736C6.86329 14.2036 6.82229 13.9346 6.78129 13.6636C6.80329 13.6546 6.82429 13.6466 6.84629 13.6366C7.01029 13.9126 7.17529 14.1896 7.33929 14.4656C7.35729 14.4606 7.37429 14.4546 7.39229 14.4486C7.32829 14.1606 7.26429 13.8726 7.20029 13.5846C7.22029 13.5766 7.24029 13.5696 7.25929 13.5626C7.39529 13.8106 7.53029 14.0586 7.66629 14.3056C7.68629 14.2986 7.70629 14.2916 7.72529 14.2846C7.68529 14.0076 7.64429 13.7296 7.60429 13.4516C7.62429 13.4426 7.64429 13.4336 7.66429 13.4246C7.79429 13.6786 7.92329 13.9336 8.05329 14.1876C8.06629 14.1846 8.08029 14.1806 8.09329 14.1776C8.05129 13.8826 8.00929 13.5876 7.96729 13.2926C7.98829 13.2846 8.01029 13.2766 8.03129 13.2696C8.17429 13.5256 8.31729 13.7826 8.46129 14.0396C8.48029 14.0346 8.49929 14.0296 8.51829 14.0246C8.47629 13.7006 8.43429 13.3776 8.39229 13.0536C8.41729 13.0446 8.44229 13.0346 8.46729 13.0256C8.63229 13.3036 8.79629 13.5816 8.96129 13.8586C8.98029 13.8566 8.99829 13.8526 9.01729 13.8496C8.96029 13.5286 8.90229 13.2096 8.84529 12.8896C8.86629 12.8776 8.88729 12.8656 8.90829 12.8546C9.06629 13.0916 9.22429 13.3296 9.38229 13.5666L9.42429 13.5526C9.35229 13.2646 9.27929 12.9756 9.20729 12.6866C9.22729 12.6786 9.24729 12.6706 9.26729 12.6626C9.44329 12.9176 9.61929 13.1736 9.79529 13.4286C9.81429 13.4196 9.83329 13.4116 9.85129 13.4036C9.78429 13.0986 9.71729 12.7936 9.64929 12.4886C9.66929 12.4796 9.68929 12.4686 9.71029 12.4586C9.86629 12.7276 10.0223 12.9956 10.1793 13.2646C10.1933 13.2586 10.2083 13.2516 10.2223 13.2446C10.1793 12.9116 10.1363 12.5786 10.0933 12.2456L10.1633 12.2196C10.2553 12.3986 10.3483 12.5776 10.4403 12.7566C10.4613 12.7566 10.4823 12.7576 10.5023 12.7576C10.4943 12.6286 10.4883 12.4996 10.4753 12.3706C10.4613 12.2316 10.4403 12.0926 10.4913 11.9276L10.8753 12.6806L10.9253 12.6716C10.9093 12.3846 10.8933 12.0966 10.8773 11.8096C10.9003 11.8036 10.9233 11.7966 10.9463 11.7906C11.0043 11.9466 11.0633 12.1046 11.1213 12.2616C11.1393 12.2606 11.1583 12.2596 11.1763 12.2586V11.4686C11.2043 11.4626 11.2323 11.4556 11.2603 11.4496L11.4363 11.8776H11.4873C11.5013 11.6256 11.5163 11.3736 11.5353 11.0346C11.6233 11.2056 11.6753 11.3076 11.7443 11.4426C11.7903 11.1836 11.8293 10.9586 11.8763 10.6906C12.0563 10.9416 12.0323 11.1896 11.9813 11.4076C11.9003 11.7506 11.8043 12.1016 11.6403 12.4096C11.4703 12.7316 11.2473 13.0406 10.9873 13.2946C9.93029 14.3286 8.66929 14.9816 7.18729 15.1316C6.07229 15.2436 5.11929 14.8656 4.32829 14.0496C4.37329 13.9836 4.40829 13.9306 4.46529 13.8446ZM4.11829 8.21361C4.36129 8.25761 4.56129 8.29261 4.76229 8.32961C4.76129 8.31961 4.75629 8.27461 4.74629 8.18861C4.84729 8.24661 4.92929 8.29461 5.01029 8.34261C5.04029 8.30761 5.07029 8.27261 5.10529 8.23061C5.19729 8.31161 5.28229 8.38661 5.42429 8.51061C5.36929 8.33161 5.33729 8.22561 5.28429 8.05261C5.41329 8.14561 5.48929 8.20061 5.56729 8.25661C5.58729 8.19161 5.60629 8.13261 5.63129 8.05361C5.74229 8.17161 5.83829 8.27361 5.99929 8.44361C5.94029 8.23261 5.90729 8.11261 5.87429 7.99361L5.91529 7.96461C6.00429 8.06261 6.09329 8.15961 6.22029 8.29861C6.19429 8.11661 6.17629 7.99161 6.14729 7.78861C6.27229 7.93761 6.34729 8.02461 6.45729 8.15561C6.42929 7.99961 6.41029 7.89361 6.39129 7.78561C6.40629 7.77461 6.42229 7.76461 6.43729 7.75361C6.52429 7.86761 6.61129 7.98261 6.69829 8.09661C6.71429 8.08161 6.73129 8.06761 6.74729 8.05461C6.73029 7.93061 6.71229 7.80761 6.68629 7.61961C6.81729 7.72861 6.89829 7.79561 7.02729 7.90061C6.99729 7.74361 6.97929 7.64561 6.95129 7.49661C7.06029 7.58161 7.13329 7.63961 7.23429 7.71861C7.21929 7.61061 7.20729 7.52861 7.18629 7.38661C7.29729 7.48961 7.37529 7.56261 7.49429 7.67261C7.46829 7.52061 7.45129 7.42361 7.42429 7.26461C7.53729 7.38861 7.60529 7.46361 7.72429 7.59361C7.67429 7.39661 7.64229 7.26661 7.59129 7.06561C7.70529 7.16261 7.76729 7.21561 7.86329 7.29861C7.85329 7.19361 7.84529 7.11861 7.83429 6.99861C7.93429 7.09461 8.00529 7.16161 8.10429 7.25561C8.08329 7.10961 8.06829 7.00261 8.04729 6.85861C8.13629 6.91761 8.19029 6.95361 8.27129 7.00661C8.25229 6.87861 8.23729 6.77261 8.21829 6.64261C8.29929 6.69061 8.35229 6.72261 8.43329 6.77061C8.42229 6.66261 8.41429 6.57761 8.40429 6.47161C8.45929 6.50061 8.50229 6.52361 8.54529 6.54461C8.60929 6.40261 8.67429 6.25961 8.77429 6.03561C8.81929 6.18761 8.85629 6.25461 8.85629 6.32161C8.85929 6.95161 8.62029 7.48761 8.14929 7.89261C7.33629 8.58861 6.38629 8.92761 5.30829 8.85061C4.80129 8.81461 4.44129 8.61661 4.11829 8.21361ZM3.90429 2.75461C3.83029 3.07161 3.75829 3.38961 3.68629 3.70661C3.65929 3.71061 3.63129 3.71461 3.60329 3.71861C3.60329 3.35461 3.59929 2.98961 3.60529 2.62561C3.60829 2.44361 3.68329 2.30261 3.85929 2.21761C4.16429 2.07061 4.46229 1.91361 4.78429 1.78361C4.64329 2.03161 4.43429 2.22061 4.19529 2.36161C4.03329 2.45861 3.94429 2.58261 3.90429 2.75461ZM3.62229 9.43161C3.53129 9.71161 3.39729 9.99261 3.22129 10.2286C3.03029 10.4836 2.79329 10.4236 2.70729 10.1096C2.63029 9.83561 2.58229 9.54461 2.57429 9.25961C2.55929 8.66661 2.68229 8.08961 2.84929 7.52061C2.98629 7.58261 3.07229 7.62261 3.12929 7.65761C3.22429 7.71661 3.23929 7.76461 3.27829 7.89061C3.28729 7.86161 3.29329 7.82861 3.30429 7.80361C3.30729 7.79461 3.31129 7.78661 3.31629 7.77961C3.32629 7.76661 3.33929 7.75861 3.35729 7.75861C3.37629 7.75861 3.40029 7.76761 3.43329 7.78861C3.45329 7.71661 3.47329 7.64461 3.50829 7.51961C3.71029 8.18861 3.82329 8.80861 3.62229 9.43161ZM2.47529 8.43561C2.41329 8.71361 2.30829 8.98261 2.20129 9.24861C2.14829 9.38261 2.04829 9.50361 1.87529 9.48061C1.69829 9.45661 1.57829 9.33861 1.55829 9.17461C1.52229 8.87961 1.46729 8.57061 1.51929 8.28561C1.58529 7.91361 1.80529 7.59161 2.08429 7.26461C2.42829 7.62061 2.57229 7.99761 2.47529 8.43561ZM1.38229 1.54161C1.48229 2.46361 1.83629 3.25161 2.36329 4.04161C1.56129 3.45561 1.06629 2.18361 1.38229 1.54161ZM0.721291 2.57861C0.990291 3.13061 1.23829 3.64061 1.46729 4.10861C1.00529 3.95761 0.652291 3.30161 0.721291 2.57861ZM2.73829 0.891613C2.39729 1.25761 2.08029 1.63761 2.03329 2.19461C1.75229 1.68961 2.05229 1.13261 2.73829 0.891613ZM2.07029 5.33561C2.07529 5.03661 2.19329 4.83861 2.45429 4.74661C2.74829 4.64461 3.06829 4.74661 3.36429 5.06261C2.83529 4.84161 2.39529 4.83161 2.07029 5.33561ZM3.39029 5.92761C3.16029 6.40861 2.75829 6.48561 2.32729 6.15161C2.73129 6.26261 3.05429 6.21261 3.39029 5.92761ZM2.14729 5.73561C2.36629 4.98961 2.80429 4.88561 3.40029 5.41861C3.25729 6.06661 2.69729 6.21861 2.14729 5.73561ZM2.94929 2.08161C3.22529 1.62361 3.63429 1.30461 4.12129 1.07861C3.90629 1.32461 3.68429 1.56661 3.47629 1.81861C3.23329 2.11261 3.11229 2.44861 3.14629 2.83961C3.17729 3.20061 3.18629 3.56461 3.20629 3.94461C2.74129 3.48661 2.62129 2.62361 2.94929 2.08161ZM7.11229 1.69761C6.83929 2.09561 6.45429 2.34161 6.03529 2.53861C5.85629 2.62261 5.67629 2.71361 5.48629 2.75861C4.92729 2.88961 4.53029 3.23361 4.19829 3.70261C4.20529 3.26861 4.55129 2.73061 4.93129 2.59961C5.67429 2.34161 6.41229 2.07161 7.11229 1.69761ZM9.12929 9.26661C9.24529 9.39561 9.36029 9.52361 9.54229 9.72461C9.49629 9.55361 9.47229 9.46661 9.44929 9.38061C9.42729 9.29561 9.40429 9.21061 9.38229 9.12561C9.40829 9.10561 9.43529 9.08561 9.46029 9.06561L9.68029 9.41061C9.69829 9.39761 9.71629 9.38461 9.73429 9.37061C9.69529 9.21061 9.65629 9.05161 9.60029 8.82161C9.71029 8.91561 9.76629 8.96361 9.85529 9.03861C9.82829 8.89861 9.80829 8.78961 9.78829 8.68161C9.81529 8.65961 9.84229 8.63961 9.86929 8.61761C9.91529 8.71961 9.96029 8.81961 10.0063 8.92161C10.0313 8.89961 10.0563 8.87861 10.0803 8.85761C10.0593 8.74461 10.0383 8.63261 10.0093 8.47661C10.1053 8.52561 10.1653 8.55761 10.2453 8.59961C10.2283 8.45361 10.2123 8.32461 10.1973 8.19061C10.2583 8.15361 10.3193 8.11861 10.3813 8.08261C10.3913 8.10061 10.4103 8.11861 10.4113 8.13861C10.4793 9.05661 10.1673 9.83861 9.47329 10.4246C8.41529 11.3196 7.18029 11.7526 5.78229 11.6226C5.25829 11.5736 4.78629 11.3766 4.42029 10.9786C4.38129 10.9356 4.35729 10.8786 4.36529 10.7896C4.51429 10.8816 4.66429 10.9726 4.83929 11.0786C4.81529 10.9856 4.80029 10.9286 4.77229 10.8166C4.93629 10.9406 5.06729 11.0376 5.23229 11.1606C5.22029 11.0616 5.21129 10.9896 5.19429 10.8496C5.36429 11.0016 5.48429 11.1106 5.67429 11.2816C5.59229 11.0296 5.53729 10.8566 5.48129 10.6836C5.49829 10.6726 5.51529 10.6616 5.53229 10.6506C5.68129 10.8096 5.82929 10.9686 5.97729 11.1266C5.99229 11.1196 6.00629 11.1136 6.02129 11.1076C5.96529 10.9646 5.90929 10.8216 5.85329 10.6796C5.86829 10.6686 5.88329 10.6566 5.89829 10.6466C6.04529 10.7996 6.19129 10.9536 6.33729 11.1086C6.35329 11.1016 6.36829 11.0946 6.38329 11.0866C6.33729 10.9036 6.29129 10.7206 6.24429 10.5366L6.30129 10.5016C6.43229 10.6836 6.56329 10.8656 6.69329 11.0486C6.70729 11.0436 6.72229 11.0396 6.73629 11.0346L6.61629 10.4726C6.63529 10.4626 6.65329 10.4516 6.67229 10.4416C6.82129 10.6296 6.97129 10.8166 7.17329 11.0716C7.10929 10.7706 7.06329 10.5556 7.01729 10.3406C7.03429 10.3296 7.05029 10.3186 7.06629 10.3086C7.12629 10.3776 7.18829 10.4456 7.24429 10.5186C7.30729 10.6006 7.36529 10.6866 7.47029 10.7536C7.42429 10.5736 7.37929 10.3946 7.33429 10.2156C7.35429 10.2006 7.37429 10.1866 7.39429 10.1726C7.50629 10.3156 7.61829 10.4576 7.73129 10.5996C7.74629 10.5936 7.76029 10.5866 7.77529 10.5796C7.73229 10.4416 7.68929 10.3036 7.64729 10.1646C7.66529 10.1526 7.68329 10.1416 7.70229 10.1306C7.82729 10.2816 7.95129 10.4326 8.13429 10.6536C8.05329 10.3456 7.99629 10.1236 7.93829 9.90261C7.95429 9.89561 7.97029 9.88861 7.98629 9.88161C8.09629 10.0216 8.20629 10.1616 8.31629 10.3026L8.35829 10.2846C8.31729 10.1256 8.27529 9.96761 8.23429 9.80861C8.24829 9.79861 8.26129 9.78761 8.27529 9.77661C8.39329 9.92561 8.51229 10.0746 8.63029 10.2246C8.64229 10.2176 8.65429 10.2116 8.66629 10.2056C8.61129 10.0096 8.55729 9.81461 8.50229 9.61861C8.52429 9.60761 8.54529 9.59661 8.56629 9.58561C8.68929 9.71461 8.81329 9.84461 8.99629 10.0366C8.92729 9.81561 8.88129 9.66861 8.80829 9.43261C8.98129 9.59061 9.08329 9.68361 9.25129 9.83561C9.17929 9.60461 9.13129 9.45061 9.08329 9.29761C9.09929 9.28761 9.11429 9.27661 9.12929 9.26661ZM16.1333 18.2636C15.3433 18.5566 14.5603 18.1116 14.2873 17.1476C14.8903 17.2556 15.4363 17.1506 15.9153 16.7636C15.9883 17.2676 16.0583 17.7476 16.1333 18.2636ZM14.7043 14.2616C14.9793 14.2746 15.2563 14.2676 15.5313 14.2846C15.6713 14.2936 15.8093 14.3376 15.9483 14.3646C15.9193 14.4356 15.8133 14.5586 15.7793 14.5786C15.6823 14.6376 15.5783 14.6856 15.4713 14.7406C15.5223 14.7546 15.5853 14.7706 15.6643 14.7896C15.6363 14.8246 15.6143 14.8516 15.5943 14.8766C15.8473 14.9706 15.9443 15.1386 15.9073 15.4306C15.9773 15.3956 16.0463 15.3606 16.1963 15.2866C16.0833 15.4516 16.0163 15.5496 15.9483 15.6476C15.9573 15.6596 15.9653 15.6726 15.9733 15.6856C16.0373 15.6356 16.1023 15.5856 16.1663 15.5356C16.2263 15.4876 16.2863 15.4396 16.3933 15.4176C16.3613 15.4896 16.3463 15.5826 16.2933 15.6326C15.9403 15.9646 15.6113 16.3326 15.2143 16.6016C14.6843 16.9606 13.7893 16.7606 13.3843 16.2616C13.2063 16.0426 13.1493 15.7946 13.2063 15.5216C13.3283 14.9236 13.8563 14.2226 14.7043 14.2616ZM16.4963 17.0886C16.6023 16.7916 16.7033 16.4926 16.8173 16.1996C16.8593 16.0926 16.9333 15.9966 16.9943 15.8946C17.0573 15.9716 17.1243 16.0266 17.1543 16.0986C17.1843 16.1676 17.1853 16.2526 17.1853 16.3316C17.1853 16.4366 17.1713 16.5406 17.1603 16.6916C17.2213 16.4876 17.2683 16.3296 17.3143 16.1706C17.3313 16.1736 17.3473 16.1766 17.3633 16.1796C17.3743 16.3356 17.3843 16.4916 17.3953 16.6486C17.4043 16.6496 17.4133 16.6506 17.4223 16.6526C17.4403 16.4896 17.4593 16.3276 17.4823 16.1156C17.5353 16.2186 17.5603 16.2686 17.5913 16.3276C17.6113 16.2676 17.6273 16.2186 17.6583 16.1266C17.7233 16.2546 17.7733 16.3546 17.8553 16.5136C17.8263 16.3326 17.8083 16.2176 17.7893 16.1016C17.8503 16.0696 17.9133 16.0366 18.0023 15.9886C18.0573 16.0586 18.1263 16.1466 18.1953 16.2336L18.2313 16.2226C18.1923 16.0856 18.1533 15.9496 18.1143 15.8146C18.1273 15.8046 18.1413 15.7956 18.1543 15.7856C18.2203 15.8556 18.3093 15.9136 18.3473 15.9966C18.5403 16.4116 18.7693 16.8186 18.8933 17.2556C19.0703 17.8846 18.6313 18.6496 18.0253 18.9026C17.7623 19.0126 17.5133 18.9826 17.2663 18.8566C16.7483 18.5916 16.2303 17.8346 16.4963 17.0886ZM19.3763 16.6456C19.8823 16.7316 20.3543 16.8126 20.8383 16.8946C20.9553 17.6926 20.2283 18.3716 19.1943 18.3136C19.5643 17.7576 19.5623 17.1946 19.3763 16.6456ZM19.3393 14.8246C19.3443 14.8066 19.3503 14.7886 19.3563 14.7706C19.5113 14.7626 19.6673 14.7536 19.8163 14.7466C19.6263 14.7076 19.4323 14.6686 19.2373 14.6286C19.2413 14.6056 19.2443 14.5816 19.2473 14.5576C19.4093 14.5386 19.5703 14.5206 19.7943 14.4946C19.5663 14.4766 19.4013 14.4636 19.2363 14.4506C19.2333 14.4336 19.2313 14.4166 19.2293 14.3996C19.3743 14.3556 19.5193 14.3126 19.6653 14.2686C19.6653 14.2566 19.6653 14.2436 19.6653 14.2326C19.4713 14.2406 19.2763 14.2496 19.0053 14.2616C19.1113 14.1866 19.1583 14.1366 19.2153 14.1156C19.6793 13.9426 20.1683 13.8996 20.6523 13.9276C21.2913 13.9636 21.8873 14.5716 21.9713 15.2066C22.0073 15.4846 21.9323 15.7246 21.7423 15.9336C21.2543 16.4686 20.4103 16.5866 19.8033 16.1886C19.4323 15.9436 19.0583 15.6986 18.7763 15.3206C19.0433 15.3016 19.0393 15.2976 19.2723 14.9666C19.3063 14.9176 19.4063 14.9156 19.4803 14.8916C19.4303 14.8676 19.3843 14.8466 19.3393 14.8246ZM20.5753 8.73661C21.1263 9.56461 21.4833 10.3796 21.4973 11.3276C21.4563 11.3276 21.4333 11.3326 21.4313 11.3276C21.3923 11.2316 21.3553 11.1336 21.3173 11.0346C21.2803 11.0676 21.2463 11.0986 21.1943 11.1436C21.1763 11.0536 21.1613 10.9806 21.1443 10.8916C21.1163 10.9446 21.0953 10.9876 21.0723 11.0326C20.9793 10.9456 20.8913 10.8626 20.7973 10.7756C20.7733 10.8236 20.7323 10.9076 20.6903 10.9926C20.6613 10.9756 20.6393 10.9656 20.6213 10.9496C20.6033 10.9356 20.5893 10.9146 20.5733 10.8976C20.5973 11.1216 20.2653 11.0436 20.2413 11.2456C20.0813 10.3996 20.1193 9.58261 20.5753 8.73661ZM22.1813 6.68761C22.6433 7.31661 22.7493 7.99661 22.6243 8.73161C22.4513 8.19661 22.4983 7.59861 22.1323 7.04961C21.5703 7.45161 21.3953 8.04861 21.1313 8.58661C21.2133 7.81661 21.3473 7.07861 22.1813 6.68761ZM23.6593 9.47761C23.9213 9.97961 23.7183 11.3726 23.3013 12.0386C23.1433 11.8376 23.0183 11.6086 22.8293 11.4616C22.6683 11.3356 22.4343 11.3166 22.1863 11.4446C22.5203 10.6426 22.9183 9.93761 23.6593 9.47761ZM24.7323 5.61461C24.9863 6.18561 24.8683 7.08561 24.4043 7.74261C24.4513 7.13861 24.6063 6.62261 24.4273 6.06361C23.8923 6.25061 23.5783 6.68561 23.1763 7.03261C23.2723 6.29961 24.0773 5.57961 24.7323 5.61461ZM25.5793 10.7446C25.5663 11.6806 25.1713 12.7246 24.6453 13.2776C24.6073 12.7496 24.2693 12.5056 23.7593 12.3556C24.2203 11.6586 24.7473 11.0736 25.5793 10.7446ZM25.8633 7.80861C26.1663 8.32361 26.0073 9.44461 25.5513 9.93961C25.5913 9.38661 25.7913 8.84761 25.5743 8.25661C25.0413 8.48661 24.6923 8.90061 24.3033 9.29761C24.3943 8.56061 25.1703 7.83261 25.8633 7.80861ZM28.5103 10.2066C28.4073 10.9206 28.0433 11.4786 27.4663 11.9076C27.6893 11.4426 28.0923 11.0736 28.1553 10.4976C27.5143 10.4466 26.9883 10.6996 26.4113 10.9226C26.8923 10.2406 27.8393 9.91961 28.5103 10.2066ZM28.5893 7.43661C28.6473 8.21261 28.3893 8.86861 27.8553 9.43361C27.9583 8.90361 28.2543 8.41361 28.1753 7.81661C27.6043 7.90761 27.2053 8.26461 26.7463 8.50761C27.1853 7.71461 27.8553 7.32661 28.5893 7.43661ZM34.1833 3.48861C33.2683 2.39961 32.2053 1.48161 30.9303 0.828613C29.1573 -0.0773872 27.3213 -0.259387 25.4193 0.377613C24.3443 0.737613 23.4093 1.34761 22.4843 1.98461C21.2523 2.83461 20.5133 4.00061 20.1493 5.43761C19.6473 7.42261 19.6753 9.42861 19.8723 11.4436C19.8833 11.5606 19.9193 11.6916 19.8803 11.7926C19.7093 12.2326 19.5453 12.6796 19.3213 13.0926C19.1153 13.4716 18.7653 13.7216 18.3543 13.8676C17.9133 14.0246 17.4603 14.0826 16.9933 14.0396C15.9653 13.9446 15.1083 13.4926 14.3703 12.7896C13.7513 12.2006 13.2933 11.4976 12.9003 10.7456C12.0963 9.20861 11.1243 7.78661 9.91229 6.53961C8.66329 5.25261 7.24029 4.23661 5.47629 3.77461C5.46029 3.77061 5.45329 3.73661 5.42929 3.69361C5.53229 3.64261 5.63729 3.59461 5.73629 3.53861C6.05729 3.35761 6.39729 3.20161 6.68829 2.98161C6.94629 2.78561 7.17929 2.53861 7.36629 2.27461C7.62029 1.91561 7.66429 1.50361 7.50729 1.04861C6.96129 1.36861 6.44629 1.69261 5.82629 1.88961C5.88129 1.57561 6.06629 1.32261 5.95129 1.00661C5.42329 1.21361 4.95529 1.49961 4.39129 1.70061C4.45229 1.31561 4.50229 0.995613 4.55729 0.643613C4.44229 0.674613 4.35729 0.678613 4.29629 0.717613C3.81329 1.02761 3.33329 1.34561 2.84329 1.66661C2.80329 1.45761 2.90029 1.27961 3.04029 1.12061C3.19729 0.941613 3.27229 0.748613 3.19329 0.504613C2.65729 0.570613 2.26629 0.887613 1.87629 1.19861C1.82929 1.17461 1.79529 1.15861 1.76229 1.14061C1.36729 0.924613 1.22529 0.999613 1.17929 1.45561C1.16229 1.61961 1.15829 1.78561 1.14329 2.02961C1.02229 1.86861 0.953291 1.76461 0.871291 1.66961C0.737291 1.51561 0.583291 1.38361 0.358291 1.46061C0.139291 1.53661 -0.00270923 1.70761 0.000290768 1.93461C0.00229077 2.17961 0.0122908 2.44861 0.113291 2.66461C0.346291 3.16261 0.619291 3.64661 0.913291 4.11261C1.02629 4.29261 1.23629 4.41361 1.40829 4.55461C1.48329 4.61561 1.57429 4.65761 1.66829 4.71461C1.40629 5.08461 1.21029 5.45061 0.868291 5.72161C0.559291 5.96561 0.348291 6.30861 0.144291 6.70361C0.302291 6.72861 0.427291 6.76261 0.552291 6.76361C0.894291 6.76561 1.23729 6.76161 1.57829 6.74361C1.72829 6.73561 1.86429 6.71861 1.92629 6.83361C1.70729 7.26461 1.47929 7.64961 1.31129 8.06061C1.10429 8.56661 1.16329 9.06661 1.47129 9.52961C1.75629 9.95961 1.95529 9.96861 2.27329 9.56661C2.28629 9.54961 2.31529 9.54561 2.36129 9.52461C2.38929 9.65661 2.41129 9.78461 2.44429 9.90961C2.48429 10.0626 2.51829 10.2186 2.58229 10.3606C2.73129 10.6916 2.92029 10.7336 3.19829 10.5116C3.27529 10.4486 3.34729 10.3806 3.48729 10.2566C3.47329 10.4956 3.46929 10.6496 3.45529 10.8016C3.27529 12.8706 3.45529 14.9086 4.03729 16.9016C4.96129 20.0696 6.79629 22.5356 9.74629 24.0896C10.3913 24.4296 10.8783 24.8946 11.2783 25.4696C11.4553 25.7236 11.5733 26.0246 11.6853 26.3166C11.8063 26.6346 11.8803 26.9726 11.9943 27.2936C12.1263 27.6656 12.2643 28.0346 12.5693 28.3166C12.6493 28.3906 12.6623 28.5376 12.7323 28.7186C12.3713 28.5986 12.0783 28.4076 11.7613 28.7346C12.0613 28.9476 12.3353 29.1486 12.6163 29.3386C12.7283 29.4146 12.8523 29.4696 12.7513 29.6526C12.4943 29.6606 12.3053 29.5186 12.1443 29.3486C11.7503 28.9346 11.2383 28.8356 10.7083 28.7936C10.5863 28.7836 10.4303 28.8156 10.3403 28.8896C10.1473 29.0476 9.98829 29.2456 9.77229 29.4726C10.1163 29.4226 10.3883 29.3696 10.6623 29.3486C10.8283 29.3346 11.0273 29.3166 11.1603 29.3926C11.6503 29.6716 12.1203 29.9856 12.7063 29.9956C12.6843 30.3616 12.6443 30.4146 12.3823 30.3626C12.1913 30.3246 12.0063 30.2456 11.8273 30.1656C11.6353 30.0806 11.4533 29.9726 11.2673 29.8736C11.1253 29.7996 10.9703 29.7856 10.8673 29.9096C10.7233 30.0816 10.5493 30.0496 10.3653 30.0576C10.0783 30.0686 9.78629 30.0846 9.50429 30.1406C9.21429 30.1976 9.00929 30.3866 8.85929 30.7556C9.14729 30.6916 9.36829 30.6686 9.56929 30.5936C10.1673 30.3696 11.0303 30.6416 11.4423 31.2376C11.1003 31.1926 10.7943 31.1516 10.4873 31.1116C10.0573 31.0556 9.62629 30.9886 9.19029 31.0746C8.94329 31.1236 8.69229 31.1786 8.52629 31.3876C8.33929 31.6226 8.17129 31.8726 7.98129 32.1366C8.35429 32.2846 8.66329 32.2236 8.91329 31.9346C9.12229 31.6916 9.37729 31.5826 9.68629 31.6406C10.1743 31.7326 10.6593 31.8436 11.2013 31.9576C10.9143 32.2016 10.6253 32.3566 10.3353 32.4956C10.0273 32.6446 9.83029 32.8756 9.72929 33.1876C9.65229 33.4236 9.61029 33.6706 9.55229 33.9126H9.63129C9.71229 33.8326 9.79429 33.7536 9.87429 33.6716C10.3503 33.1846 10.9103 32.9406 11.6063 33.0176C11.8793 33.0476 12.1113 32.9106 12.2983 32.6996C12.5243 32.4426 12.7673 32.1996 12.9973 31.9456C13.1963 31.7276 13.4143 31.6386 13.6943 31.7966C13.7733 31.8416 13.8643 31.8686 13.9533 31.8936C14.0903 31.9316 14.2233 31.9196 14.2893 31.7726C14.3583 31.6146 14.2623 31.5136 14.1303 31.4626C13.9233 31.3826 13.7063 31.3266 13.4953 31.2536C13.4233 31.2286 13.3603 31.1796 13.2323 31.1076C13.7343 30.9876 14.1583 30.8976 14.5763 30.7856C14.7503 30.7396 14.8993 30.7266 15.0683 30.8136C15.2953 30.9306 15.5233 30.9216 15.7213 30.7126C15.6553 30.3716 15.3753 30.2346 15.1353 30.0586C15.0343 29.9836 14.8953 29.8986 14.8703 29.7946C14.7623 29.3516 14.6913 28.8986 14.6053 28.4416C14.6923 28.3996 14.7493 28.3676 14.8083 28.3436C15.2363 28.1686 15.5203 27.8626 15.6743 27.4256C15.7663 27.1656 15.9073 26.9206 15.9823 26.6556C16.0693 26.3506 16.2553 26.2586 16.5543 26.2336C17.1223 26.1866 17.6903 26.0696 18.1633 25.7416C18.7183 25.3576 19.3313 25.1446 19.9703 24.9786C21.3513 24.6176 22.5433 23.9136 23.6013 22.9726C24.1613 22.4746 24.5893 21.8846 24.8263 21.1606C25.1493 20.1726 25.4873 19.1896 25.8313 18.2076C25.9563 17.8476 26.0973 17.4906 26.2643 17.1486C26.4473 16.7726 26.6283 16.7476 26.9273 17.0496C27.1313 17.2546 27.2943 17.4986 27.4923 17.7096C27.6883 17.9206 27.8903 18.1326 28.1163 18.3076C28.3163 18.4616 28.5643 18.4716 28.7873 18.3356C29.0033 18.2046 29.0003 17.9786 28.9573 17.7716C28.8623 17.3206 28.7483 16.8746 28.6353 16.4286C28.5893 16.2476 28.5283 16.0696 28.4573 15.8376C28.6823 16.0436 28.8383 16.2276 29.0313 16.3556C29.3183 16.5446 29.5633 16.4106 29.5673 16.0716C29.5693 15.9046 29.5213 15.7356 29.4883 15.5686C29.4673 15.4646 29.4353 15.3616 29.4073 15.2576C29.5193 15.3576 29.5773 15.4736 29.6343 15.5896C29.8513 16.0256 30.0583 16.4676 30.2863 16.8976C30.3903 17.0936 30.5263 17.2746 30.6663 17.4476C30.7733 17.5816 30.9043 17.7106 31.1013 17.6626C31.3153 17.6106 31.4473 17.4546 31.4733 17.2456C31.5023 17.0006 31.5233 16.7446 31.4883 16.5026C31.4303 16.0996 31.3243 15.7036 31.2403 15.3046C31.2073 15.1466 31.1793 14.9856 31.1373 14.7646C31.2723 14.8456 31.3373 14.8886 31.4053 14.9256C31.8573 15.1706 32.3373 14.9686 32.4393 14.4636C32.4813 14.2506 32.4813 14.0096 32.4253 13.8006C32.3143 13.3836 32.1523 12.9796 32.0073 12.5696C31.9653 12.4516 31.9123 12.3376 31.8323 12.1446C32.0463 12.3106 32.1803 12.4356 32.3343 12.5286C32.7693 12.7936 33.1983 12.5786 33.2493 12.0706C33.2623 11.9296 33.2433 11.7806 33.2173 11.6406C33.1033 11.0236 32.8163 10.4726 32.5323 9.92261C32.4773 9.81661 32.4283 9.70961 32.3763 9.60361C32.5753 9.74261 32.7323 9.89961 32.8963 10.0506C33.1293 10.2646 33.3553 10.4876 33.6043 10.6806C34.0643 11.0356 34.2343 10.9616 34.3103 10.3976C34.3253 10.2796 34.3383 10.1616 34.3413 10.0436C34.3463 9.82161 34.3423 9.59961 34.3423 9.35761C34.4343 9.37161 34.5303 9.38561 34.6613 9.40461C34.5523 8.89961 34.4503 8.42461 34.3483 7.94861C34.3753 7.93961 34.4013 7.92961 34.4273 7.91961C34.4773 7.97461 34.5293 8.02761 34.5773 8.08461C35.6013 9.29761 36.1693 10.6796 36.1283 12.2846C36.1163 12.7386 36.1943 13.1786 36.3723 13.5956C36.4483 13.7746 36.5513 13.9516 36.6793 14.0956C36.8973 14.3386 37.1583 14.3246 37.3423 14.0546C37.4653 13.8726 37.5553 13.6586 37.6163 13.4466C37.8793 12.5256 37.8423 11.5916 37.6553 10.6676C37.1123 7.98061 35.9463 5.58761 34.1833 3.48861Z" fill="#DA4B32"/>
</g>
</svg>