<svg width="50" height="50" viewBox="0 0 50 50" fill="none" xmlns="http://www.w3.org/2000/svg">
<rect width="50" height="50" rx="4" fill="#FFB845"/>
<path fill-rule="evenodd" clip-rule="evenodd" d="M27.5388 34.2686C26.1364 35.4384 23.8632 35.4384 22.4608 34.2686C22.1766 34.0316 21.7092 34.0316 21.425 34.2686C21.1409 34.5056 21.1409 34.8955 21.425 35.1326C22.415 35.9583 23.7074 36.3635 24.9998 36.3635C26.2922 36.3635 27.5846 35.9507 28.5746 35.1326C28.8587 34.8955 28.8587 34.5056 28.5746 34.2686C28.2904 34.0316 27.8229 34.0316 27.5388 34.2686Z" fill="white"/>
<path fill-rule="evenodd" clip-rule="evenodd" d="M40.7332 41.1036C39.108 39.2718 39.0384 34.6221 39.2296 29.805C39.9423 29.1269 40.3856 28.1758 40.3856 27.1102C40.3856 26.1767 40.0466 25.3225 39.4817 24.6708C39.7164 19.7569 39.8467 16.4721 38.3084 13.4339C37.2567 11.3644 35.562 9.62953 33.2588 8.29096C30.5732 6.73223 27.5139 5.95727 24.4111 6.07175C21.6821 6.16862 19.1442 7.45435 17.3973 9.62072C15.1376 9.75282 13.0777 11.0033 11.974 12.9319L11.974 12.9319C11.8784 13.0993 11.7828 13.2666 11.7045 13.4339C10.1575 16.4721 10.2879 19.7569 10.5225 24.6708C9.9576 25.3225 9.61864 26.1767 9.61864 27.1014C9.61864 28.167 10.0619 29.1181 10.7746 29.7962C10.9658 34.6133 10.8962 39.2718 9.27099 41.1036C9.11455 41.2797 9.05371 41.5175 9.11455 41.7376C9.1667 41.9666 9.33183 42.1515 9.54042 42.2308C11.3743 42.9353 13.1473 43.1819 14.7552 43.1819C16.4239 43.1819 17.9014 42.9089 19.0573 42.5919C21.0737 42.037 22.499 41.2621 22.9771 40.9803C23.6376 41.0948 24.3155 41.1476 25.0021 41.1476C25.6887 41.1476 26.3666 41.086 27.0272 40.9803C27.5139 41.2621 28.9305 42.0459 30.9469 42.5919C32.4939 43.0146 33.928 43.1819 35.223 43.1819C37.3871 43.1819 39.1688 42.7239 40.4551 42.2308C40.6724 42.1515 40.8288 41.9666 40.881 41.7376C40.9505 41.5175 40.8897 41.2709 40.7332 41.1036ZM37.4301 28.5632L37.4301 25.0671V25.0407V24.935C38.334 25.2344 38.9945 26.0974 38.9945 27.1102C38.9945 28.1317 38.3253 29.0035 37.4127 29.2942C37.4214 29.0476 37.4301 28.801 37.4301 28.5632ZM13.1726 13.6364C13.0944 13.7773 13.0162 13.927 12.938 14.0767C11.7038 16.5073 11.6691 19.1492 11.869 23.7021C12.0949 23.6141 12.3296 23.5348 12.573 23.4908V23.3587C12.573 22.9976 12.8337 22.6894 13.19 22.6542C15.9712 22.3459 17.7355 21.0426 18.7437 18.5504C18.8306 18.3302 19.0218 18.1717 19.2565 18.1277C19.4912 18.0837 19.7258 18.1541 19.891 18.3302C21.2729 19.7921 26.4615 24.4683 36.0393 24.3626V22.7598C36.0393 22.3724 36.3521 22.0553 36.7346 22.0553C37.117 22.0553 37.4299 22.3724 37.4299 22.7598V23.4732C37.6732 23.5172 37.9079 23.5876 38.1339 23.6845C38.3337 19.1492 38.299 16.5073 37.0648 14.0767C36.1436 12.2538 34.6226 10.7215 32.5628 9.51503C30.1032 8.07959 27.3046 7.37508 24.4626 7.48076C22.0377 7.56882 19.7954 8.75768 18.2918 10.7391C18.1614 10.9064 17.9615 11.0033 17.7529 11.0121H17.7442C15.8409 11.0385 14.0852 12.0425 13.1726 13.6364ZM12.5907 29.2942C11.6694 29.0035 11.0089 28.1317 11.0089 27.1102C11.0089 26.0974 11.6694 25.2256 12.5733 24.935L12.5733 28.5632C12.5733 28.801 12.582 29.0476 12.5907 29.2942ZM12.191 30.6328C12.3474 35.5027 12.1388 39.0605 10.896 41.2093C15.0852 42.4862 18.8919 41.3237 20.9083 40.4431C16.7278 38.9636 13.5555 35.2738 12.7646 30.7649C12.5647 30.7297 12.3735 30.6944 12.191 30.6328ZM25.0015 39.7473C18.9176 39.7473 13.9636 34.7277 13.9636 28.5632L13.9636 23.9663C16.571 23.5348 18.4309 22.2314 19.6042 20.0122C20.6037 20.9369 22.229 22.205 24.5061 23.3234C27.9391 24.9966 31.8154 25.8244 36.0393 25.7804L36.0393 28.572C36.0393 34.7277 31.0853 39.7473 25.0015 39.7473ZM29.0955 40.4519C29.7038 40.7161 30.4687 41.0155 31.3639 41.2533C34.0495 41.9754 36.6481 41.9666 39.1078 41.2093C37.8736 39.0605 37.6563 35.4939 37.8128 30.6328C37.6216 30.6944 37.4303 30.7385 37.2391 30.7649C36.4482 35.2826 33.2759 38.9724 29.0955 40.4519Z" fill="white"/>
<path fill-rule="evenodd" clip-rule="evenodd" d="M16.8587 26.3386C16.6031 26.5511 16.6031 26.9008 16.8587 27.1133C17.1142 27.3259 17.5346 27.3259 17.7902 27.1133C18.2106 26.7637 18.903 26.7637 19.3235 27.1133C19.4553 27.223 19.6202 27.271 19.7933 27.271C19.9664 27.271 20.1313 27.2162 20.2632 27.1133C20.5188 26.9008 20.5188 26.5511 20.2632 26.3386C19.3152 25.5639 17.7902 25.5639 16.8587 26.3386Z" fill="white"/>
<path fill-rule="evenodd" clip-rule="evenodd" d="M33.1412 27.1139C33.3973 26.902 33.3973 26.5536 33.1412 26.3418C32.1994 25.5628 30.671 25.5628 29.7375 26.3418C29.4814 26.5536 29.4814 26.902 29.7375 27.1139C29.9936 27.3257 30.4149 27.3257 30.671 27.1139C31.0924 26.7654 31.7863 26.7654 32.2077 27.1139C32.3398 27.2232 32.5051 27.271 32.6786 27.271C32.8521 27.271 33.009 27.2164 33.1412 27.1139Z" fill="white"/>
</svg>