<svg width="30" height="40" viewBox="0 0 30 40" fill="none" xmlns="http://www.w3.org/2000/svg">
<path fill-rule="evenodd" clip-rule="evenodd" d="M17.4588 15.433L16.8368 15.746C16.6378 15.846 16.4198 15.897 16.2028 15.897C16.0368 15.897 15.8718 15.868 15.7158 15.808C15.3728 15.678 15.1118 15.424 14.9798 15.092L14.6138 14.169L14.2478 15.092C14.1158 15.424 13.8548 15.678 13.5128 15.808C13.3558 15.868 13.1908 15.897 13.0248 15.897C12.8088 15.897 12.5908 15.846 12.3918 15.746L11.7698 15.433C11.5648 15.33 11.4638 15.095 11.5308 14.876C11.5978 14.658 11.8108 14.519 12.0388 14.546C12.2188 14.569 12.3798 14.558 12.5318 14.534C12.7718 14.437 13.0048 14.34 13.2218 14.244C13.2298 14.24 13.2368 14.237 13.2458 14.233C13.5248 14.023 13.7308 13.744 13.8748 13.483L14.1698 12.74C14.2078 12.623 14.2888 12.528 14.4018 12.471C14.4108 12.466 14.4188 12.46 14.4278 12.456C14.4408 12.451 14.4508 12.44 14.4658 12.436C14.4908 12.427 14.5168 12.43 14.5418 12.426C14.5648 12.422 14.5868 12.418 14.6108 12.418C14.6408 12.418 14.6668 12.422 14.6948 12.428C14.7178 12.432 14.7398 12.428 14.7628 12.436C14.7748 12.44 14.7838 12.45 14.7968 12.454C14.8098 12.46 14.8188 12.467 14.8308 12.473C14.9418 12.531 15.0208 12.625 15.0588 12.74L15.3428 13.455C15.4948 13.738 15.7208 14.048 16.0348 14.268C16.2298 14.355 16.4338 14.439 16.6418 14.524C16.8088 14.557 16.9878 14.571 17.1878 14.546C17.4178 14.519 17.6308 14.658 17.6968 14.876C17.7638 15.095 17.6628 15.33 17.4588 15.433ZM18.0128 14.701C17.8298 14.112 17.6088 13.572 17.3558 13.092L17.2958 12.983C17.0288 12.495 16.7318 12.081 16.4118 11.753L16.2778 11.617V11.423C16.2808 11.334 16.2818 11.264 16.2818 11.194C16.2818 10.71 16.2208 10.237 16.1018 9.80903L15.0928 10.468C14.8348 10.637 14.5028 10.635 14.2478 10.463L13.1498 9.72803C13.0168 10.177 12.9448 10.68 12.9448 11.194C12.9448 11.266 12.9458 11.335 12.9488 11.407L12.9568 11.609L12.8158 11.753C12.4838 12.093 12.1768 12.525 11.9008 13.037C11.6248 13.55 11.3898 14.125 11.2008 14.746C10.8298 15.963 10.6348 17.351 10.6348 18.761C10.6348 23.037 12.4568 26.65 14.6148 26.65C16.7718 26.65 18.5938 23.037 18.5938 18.761C18.5938 17.333 18.3928 15.929 18.0128 14.701Z" fill="#7E57C2"/>
<path fill-rule="evenodd" clip-rule="evenodd" d="M14.2467 30.9965C14.4737 31.1295 14.7117 31.1195 14.9397 30.9695C15.3267 30.7135 15.7167 30.0155 15.7167 29.0295C15.7167 28.4365 15.5617 27.8925 15.3077 27.4975C15.0807 27.5535 14.8507 27.5915 14.6147 27.5915C14.3507 27.5915 14.0937 27.5455 13.8417 27.4755C13.5837 27.8695 13.4287 28.4355 13.4287 29.0295C13.4287 29.9055 13.7657 30.7155 14.2467 30.9965Z" fill="#7E57C2"/>
<path fill-rule="evenodd" clip-rule="evenodd" d="M14.4508 35.2992C14.4528 35.2992 14.4548 35.3012 14.4568 35.3022H14.4628C14.4978 35.3142 14.5388 35.3202 14.5828 35.3202C14.8228 35.3242 15.0558 35.1532 15.2488 34.8482H15.2498V34.8472C15.4738 34.4942 15.6028 34.0192 15.6128 33.5082C15.6248 32.7792 15.3918 32.2232 15.1258 31.9222C14.9458 31.9902 14.7598 32.0302 14.5718 32.0302C14.4138 32.0302 14.2598 32.0042 14.1078 31.9562C13.8508 32.2582 13.6288 32.7862 13.6158 33.4672C13.5978 34.4542 14.0258 35.1732 14.4508 35.2992Z" fill="#7E57C2"/>
<path fill-rule="evenodd" clip-rule="evenodd" d="M20.1385 37.3715C20.2955 37.1915 20.4375 37.0045 20.5615 36.8135L19.2235 36.9785L19.2715 35.4885C19.1005 35.6365 18.9335 35.8005 18.7785 35.9795C18.5445 36.2455 18.3505 36.5385 18.1895 36.8325C18.4265 37.4615 18.4425 38.0725 18.2355 38.5585C18.2425 38.5585 18.2465 38.5595 18.2545 38.5595C18.6935 38.5415 19.4455 38.1665 20.1385 37.3715Z" fill="#7E57C2"/>
<path fill-rule="evenodd" clip-rule="evenodd" d="M27.6299 8.90963C28.3739 7.98963 28.4619 5.78963 27.8449 3.55863C27.6249 2.76463 27.3299 2.01263 26.9799 1.34863L26.1139 3.45763C26.0419 3.63463 25.8939 3.76563 25.7079 3.81763C25.5229 3.86863 25.3279 3.83263 25.1739 3.71863L23.1989 2.24463C23.2299 3.03263 23.3649 3.88263 23.6009 4.73463C24.0909 6.50463 24.9399 8.02563 25.8699 8.80463L26.0389 8.94563V9.16563H26.0379L26.0339 9.22563C25.8859 10.3906 25.4049 13.2426 24.1489 14.5556C24.0069 14.7046 23.8099 14.7876 23.6009 14.7876C23.5829 14.7876 23.5669 14.7866 23.5489 14.7856C22.9229 14.7406 20.9109 14.5826 18.8589 14.2646C18.8759 14.3176 18.8959 14.3686 18.9119 14.4226C19.0079 14.7336 19.0919 15.0566 19.1669 15.3876C20.6019 15.7986 22.0889 16.0976 23.5979 16.2696C24.1339 15.8146 26.2189 13.8016 27.5259 9.13863V9.03963L27.6299 8.90963Z" fill="#7E57C2"/>
<path fill-rule="evenodd" clip-rule="evenodd" d="M5.59953 14.7875C5.38853 14.7875 5.19153 14.7045 5.04953 14.5555C3.79353 13.2435 3.31253 10.3915 3.16253 9.22649L3.16053 9.16749H3.15953V8.94749L3.32853 8.80449C4.25853 8.02549 5.10753 6.50449 5.59753 4.73349C5.83253 3.88249 5.96853 3.03249 5.99753 2.24449L4.02553 3.71749C3.87053 3.83249 3.67553 3.86949 3.49053 3.81749C3.30553 3.76649 3.15753 3.63549 3.08353 3.45749L2.21753 1.34949C1.86853 2.01249 1.57253 2.76549 1.35353 3.55849C0.736527 5.78949 0.824527 7.98949 1.56853 8.90949L1.67253 9.03949V9.13749C2.97953 13.8005 5.06353 15.8135 5.60053 16.2695C7.12053 16.0975 8.62053 15.7945 10.0655 15.3775C10.1355 15.0685 10.2115 14.7655 10.3005 14.4735C10.3235 14.3985 10.3535 14.3325 10.3765 14.2595C8.31253 14.5805 6.27953 14.7405 5.65153 14.7855C5.63453 14.7865 5.61753 14.7875 5.59953 14.7875Z" fill="#7E57C2"/>
<path fill-rule="evenodd" clip-rule="evenodd" d="M14.6885 36.2592C14.6715 36.6932 14.8705 37.2812 15.3515 37.8102C15.7635 38.2622 16.2745 38.5422 16.7185 38.5592C16.9335 38.5672 17.1005 38.5132 17.2225 38.3982C17.2295 38.3912 17.2375 38.3842 17.2455 38.3782C17.5035 38.1112 17.5025 37.5552 17.2425 36.9942C17.1285 36.7472 16.9675 36.5062 16.7745 36.2942C16.4945 35.9862 16.1635 35.7552 15.8345 35.6362C15.5135 36.0102 15.1115 36.2302 14.6885 36.2592Z" fill="#7E57C2"/>
<path fill-rule="evenodd" clip-rule="evenodd" d="M15.0468 12.7104L15.0588 12.7394C15.0208 12.6254 14.9428 12.5304 14.8308 12.4734C14.9248 12.5244 15.0048 12.6044 15.0468 12.7104Z" fill="#333333"/>
<path fill-rule="evenodd" clip-rule="evenodd" d="M14.5417 12.4262C14.5647 12.4232 14.5877 12.4172 14.6107 12.4182C14.5867 12.4182 14.5647 12.4222 14.5417 12.4262Z" fill="#333333"/>
<path fill-rule="evenodd" clip-rule="evenodd" d="M14.7626 12.436C14.7406 12.428 14.7176 12.432 14.6956 12.428C14.7296 12.434 14.7646 12.441 14.7966 12.455C14.7836 12.45 14.7756 12.44 14.7626 12.436Z" fill="#333333"/>
<path fill-rule="evenodd" clip-rule="evenodd" d="M14.4021 12.4711C14.4111 12.4661 14.4191 12.4601 14.4271 12.4561C14.4191 12.4601 14.4111 12.4661 14.4021 12.4711Z" fill="#333333"/>
<path fill-rule="evenodd" clip-rule="evenodd" d="M20.617 24.4916C21.082 24.4916 21.57 24.4376 22.09 24.3306C22.344 24.2766 22.508 24.0276 22.455 23.7736C22.402 23.5196 22.153 23.3576 21.898 23.4086C20.738 23.6496 19.773 23.5786 18.886 23.1926C18.788 23.5006 18.68 23.7936 18.563 24.0746C19.211 24.3476 19.884 24.4916 20.617 24.4916Z" fill="#333333"/>
<path fill-rule="evenodd" clip-rule="evenodd" d="M19.5211 19.227C20.0011 19.395 20.5041 19.486 21.0411 19.486C21.4681 19.486 21.9161 19.433 22.3841 19.327C22.6381 19.268 22.7961 19.017 22.7391 18.763C22.6811 18.51 22.4311 18.352 22.1761 18.409C21.1521 18.643 20.2991 18.579 19.5151 18.214C19.5211 18.397 19.5341 18.579 19.5341 18.761C19.5341 18.919 19.5261 19.072 19.5211 19.227Z" fill="#333333"/>
<path fill-rule="evenodd" clip-rule="evenodd" d="M21.041 21.9867C21.469 21.9867 21.916 21.9337 22.385 21.8267C22.639 21.7687 22.797 21.5167 22.739 21.2637C22.682 21.0097 22.432 20.8537 22.177 20.9087C21.111 21.1527 20.232 21.0727 19.421 20.6697C19.382 20.9997 19.331 21.3207 19.272 21.6347C19.827 21.8667 20.412 21.9867 21.041 21.9867Z" fill="#333333"/>
<path fill-rule="evenodd" clip-rule="evenodd" d="M7.3259 23.4087C7.0709 23.3557 6.8219 23.5197 6.7689 23.7737C6.7169 24.0277 6.8809 24.2767 7.1349 24.3307C7.6539 24.4377 8.1419 24.4917 8.6059 24.4917C9.3419 24.4917 10.0159 24.3467 10.6649 24.0727C10.5479 23.7917 10.4389 23.4987 10.3429 23.1917C9.4529 23.5787 8.4879 23.6497 7.3259 23.4087Z" fill="#333333"/>
<path fill-rule="evenodd" clip-rule="evenodd" d="M9.71277 18.2123C8.92777 18.5773 8.07277 18.6413 7.04777 18.4083C6.79377 18.3523 6.54277 18.5103 6.48477 18.7633C6.42777 19.0173 6.58577 19.2683 6.83977 19.3263C7.30877 19.4333 7.75577 19.4853 8.18377 19.4853C8.72077 19.4853 9.22477 19.3953 9.70577 19.2263C9.70177 19.0703 9.69277 18.9183 9.69277 18.7613C9.69277 18.5773 9.70677 18.3963 9.71277 18.2123Z" fill="#333333"/>
<path fill-rule="evenodd" clip-rule="evenodd" d="M7.04762 20.9086C6.79362 20.8536 6.54262 21.0106 6.48562 21.2636C6.42762 21.5166 6.58562 21.7686 6.83962 21.8266C7.30862 21.9336 7.75562 21.9866 8.18362 21.9866C8.81362 21.9866 9.40062 21.8656 9.95462 21.6336C9.89662 21.3186 9.84562 20.9976 9.80662 20.6676C8.99462 21.0716 8.11362 21.1516 7.04762 20.9086Z" fill="#333333"/>
<path fill-rule="evenodd" clip-rule="evenodd" d="M23.5487 14.7856C23.5667 14.7866 23.5827 14.7876 23.6007 14.7876C23.8097 14.7876 24.0067 14.7046 24.1487 14.5566C25.4047 13.2426 25.8857 10.3906 26.0337 9.22565L26.0377 9.16565L25.5677 9.16665L25.2667 9.52665C25.1997 9.47065 25.1347 9.40265 25.0697 9.34065C24.9247 10.3546 24.4937 12.7526 23.5277 13.8406C22.7687 13.7856 20.5747 13.6046 18.4727 13.2496C18.6137 13.5706 18.7427 13.9096 18.8597 14.2646C20.9107 14.5826 22.9227 14.7406 23.5487 14.7856Z" fill="#333333"/>
<path fill-rule="evenodd" clip-rule="evenodd" d="M28.361 9.50143L27.997 9.20643H27.525V9.13843C26.218 13.8014 24.133 15.8144 23.597 16.2704C22.089 16.0984 20.601 15.7984 19.167 15.3874C19.242 15.7224 19.304 16.0644 19.357 16.4144C20.727 16.7814 22.138 17.0544 23.567 17.2134C23.594 17.2164 23.623 17.2184 23.65 17.2184C23.826 17.2184 23.999 17.1574 24.136 17.0454C24.602 16.6654 26.989 14.5154 28.424 9.41343C28.403 9.44143 28.383 9.47443 28.361 9.50143Z" fill="#333333"/>
<mask id="mask0" mask-type="alpha" maskUnits="userSpaceOnUse" x="22" y="0" width="8" height="10">
<path fill-rule="evenodd" clip-rule="evenodd" d="M22.252 0H29.1973V9.52639H22.252V0Z" fill="white"/>
</mask>
<g mask="url(#mask0)">
<path fill-rule="evenodd" clip-rule="evenodd" d="M25.5673 9.16639L26.0383 9.16539H26.0393V8.94539L25.8703 8.80439C24.9393 8.02539 24.0903 6.50439 23.6003 4.73439C23.3653 3.88239 23.2293 3.03239 23.1993 2.24439L25.1733 3.71839C25.3283 3.83239 25.5223 3.86839 25.7083 3.81739C25.8933 3.76639 26.0423 3.63439 26.1143 3.45739L26.9793 1.34939C27.3303 2.01239 27.6253 2.76539 27.8443 3.55939C28.4623 5.78939 28.3743 7.98939 27.6303 8.90939L27.5253 9.03939V9.13839V9.20639H27.9973L28.3613 9.50139C28.3833 9.47439 28.4033 9.44139 28.4243 9.41339C29.3183 8.20639 29.4503 5.83239 28.7523 3.30839C28.4443 2.19439 27.9963 1.15039 27.4563 0.290391C27.3323 0.0933907 27.1123 -0.0136093 26.8793 0.00139072C26.6473 0.0203907 26.4483 0.167391 26.3593 0.382391L25.4023 2.71439L23.2463 1.10439C23.0603 0.966391 22.8173 0.942391 22.6103 1.04239C22.4023 1.14239 22.2673 1.34639 22.2583 1.57639C22.2183 2.62939 22.3693 3.80739 22.6933 4.98439C23.1993 6.81139 24.0783 8.40839 25.0693 9.34039C25.1343 9.40239 25.2003 9.47039 25.2663 9.52639L25.5673 9.16639Z" fill="#333333"/>
</g>
<path fill-rule="evenodd" clip-rule="evenodd" d="M3.62967 9.16638L3.15967 9.16738L3.16267 9.22738C3.31267 10.3924 3.79367 13.2434 5.04967 14.5554C5.19167 14.7044 5.38867 14.7874 5.59967 14.7874C5.61667 14.7874 5.63467 14.7864 5.65067 14.7854C6.27867 14.7404 8.31267 14.5804 10.3767 14.2594C10.4917 13.9054 10.6217 13.5664 10.7657 13.2424C8.64967 13.6034 6.42967 13.7854 5.66967 13.8404C4.70367 12.7544 4.27367 10.3564 4.12867 9.34038C4.06367 9.40238 3.99767 9.47138 3.93167 9.52638L3.62967 9.16638Z" fill="#333333"/>
<path fill-rule="evenodd" clip-rule="evenodd" d="M17.6973 14.8764C17.6313 14.6574 17.4183 14.5194 17.1883 14.5464C16.9883 14.5704 16.8083 14.5574 16.6413 14.5234C16.4333 14.4394 16.2303 14.3554 16.0353 14.2684C15.7203 14.0484 15.4953 13.7374 15.3433 13.4554L15.0583 12.7394L15.0473 12.7104C15.0053 12.6044 14.9253 12.5244 14.8313 12.4734C14.8193 12.4674 14.8093 12.4604 14.7973 12.4544C14.7643 12.4404 14.7293 12.4344 14.6953 12.4284C14.6673 12.4224 14.6403 12.4184 14.6113 12.4184C14.5883 12.4174 14.5653 12.4234 14.5423 12.4264C14.5163 12.4304 14.4913 12.4274 14.4663 12.4364C14.4513 12.4394 14.4413 12.4504 14.4273 12.4564C14.4193 12.4604 14.4113 12.4664 14.4023 12.4714C14.2893 12.5274 14.2083 12.6234 14.1703 12.7394L13.8753 13.4824C13.7313 13.7434 13.5253 14.0224 13.2463 14.2324C13.2373 14.2364 13.2303 14.2394 13.2213 14.2434C13.0053 14.3404 12.7713 14.4374 12.5323 14.5334C12.3803 14.5584 12.2183 14.5684 12.0393 14.5464C11.8103 14.5194 11.5973 14.6574 11.5313 14.8764C11.4643 15.0954 11.5653 15.3304 11.7693 15.4334L12.3913 15.7464C12.5913 15.8464 12.8083 15.8974 13.0253 15.8974C13.1913 15.8974 13.3563 15.8674 13.5123 15.8084C13.8553 15.6784 14.1163 15.4244 14.2483 15.0924L14.6143 14.1694L14.9803 15.0924C15.1123 15.4244 15.3733 15.6784 15.7163 15.8084C15.8723 15.8674 16.0373 15.8974 16.2033 15.8974C16.4203 15.8974 16.6373 15.8464 16.8373 15.7464L17.4593 15.4334C17.6633 15.3304 17.7633 15.0954 17.6973 14.8764Z" fill="#333333"/>
<path fill-rule="evenodd" clip-rule="evenodd" d="M5.60044 16.2698C5.06344 15.8138 2.97944 13.7998 1.67244 9.13684V9.20584L1.20144 9.20684L0.835437 9.50084C0.814438 9.47384 0.794437 9.44284 0.773438 9.41484C2.20844 14.5158 4.59544 16.6658 5.06244 17.0448C5.19944 17.1578 5.37144 17.2178 5.54744 17.2178C5.57544 17.2178 5.60344 17.2158 5.63044 17.2128C7.07144 17.0528 8.49344 16.7778 9.87244 16.4058C9.92544 16.0558 9.98944 15.7118 10.0654 15.3768C8.62044 15.7938 7.12044 16.0968 5.60044 16.2698Z" fill="#333333"/>
<mask id="mask1" mask-type="alpha" maskUnits="userSpaceOnUse" x="0" y="0" width="7" height="10">
<path fill-rule="evenodd" clip-rule="evenodd" d="M0.000488281 0H6.94534V9.5265H0.000488281V0Z" fill="white"/>
</mask>
<g mask="url(#mask1)">
<path fill-rule="evenodd" clip-rule="evenodd" d="M1.201 9.2065L1.673 9.2055V9.1375V9.0395L1.568 8.9095C0.824002 7.9895 0.736002 5.7895 1.353 3.5595C1.572 2.7655 1.868 2.0125 2.218 1.3495L3.084 3.4575C3.157 3.6355 3.305 3.7665 3.49 3.8175C3.676 3.8695 3.87 3.8325 4.025 3.7175L5.998 2.2445C5.969 3.0325 5.833 3.8825 5.597 4.7335C5.107 6.5045 4.259 8.0255 3.328 8.8045L3.159 8.9475V9.1675H3.16L3.63 9.1665L3.931 9.5265C3.998 9.4715 4.063 9.4025 4.129 9.3405C5.12 8.4085 5.999 6.8105 6.505 4.9845C6.829 3.8075 6.979 2.6295 6.939 1.5765C6.93 1.3465 6.796 1.1425 6.588 1.0425C6.38 0.941501 6.136 0.967501 5.951 1.1045L3.796 2.7145L2.839 0.383501C2.75 0.167501 2.552 0.020501 2.319 0.00150102C2.086 -0.015499 1.866 0.092501 1.742 0.290501C1.202 1.1505 0.754002 2.1945 0.446002 3.3085C-0.251998 5.8325 -0.119998 8.2075 0.773002 9.4145C0.795002 9.4425 0.814002 9.4745 0.836002 9.5015L1.201 9.2065Z" fill="#333333"/>
</g>
<mask id="mask2" mask-type="alpha" maskUnits="userSpaceOnUse" x="17" y="33" width="6" height="7">
<path fill-rule="evenodd" clip-rule="evenodd" d="M17.5171 33.7994H22.1071V39.501H17.5171V33.7994Z" fill="white"/>
</mask>
<g mask="url(#mask2)">
<path fill-rule="evenodd" clip-rule="evenodd" d="M18.1891 36.8324C18.3501 36.5384 18.5441 36.2454 18.7781 35.9794C18.9331 35.8004 19.1001 35.6364 19.2711 35.4884L19.2231 36.9784L20.5611 36.8134C20.4371 37.0044 20.2951 37.1914 20.1381 37.3714C19.4451 38.1664 18.6931 38.5414 18.2541 38.5604C18.2471 38.5604 18.2421 38.5584 18.2351 38.5584C18.1571 38.7384 18.0491 38.9014 17.9121 39.0414C17.9021 39.0514 17.8841 39.0664 17.8671 39.0834C17.7621 39.1814 17.6431 39.2564 17.5171 39.3204C17.7201 39.4364 17.9571 39.5014 18.2201 39.5014C18.2451 39.5014 18.2691 39.5004 18.2931 39.4994C19.0981 39.4664 20.0531 38.9014 20.8461 37.9904C21.2791 37.4954 21.6171 36.9484 21.8261 36.4074L22.1071 35.6754L20.1991 35.9104L20.2671 33.7994L19.5571 34.1614C19.0351 34.4284 18.5201 34.8434 18.0701 35.3594C17.9181 35.5324 17.7831 35.7134 17.6561 35.8974C17.8281 36.1194 17.9821 36.3514 18.0961 36.6004C18.1321 36.6774 18.1601 36.7554 18.1891 36.8324Z" fill="#333333"/>
</g>
<path fill-rule="evenodd" clip-rule="evenodd" d="M15.7168 29.0297C15.7168 30.0148 15.3268 30.7137 14.9408 30.9688C14.7118 31.1198 14.4738 31.1298 14.2468 30.9968C13.7658 30.7158 13.4288 29.9058 13.4288 29.0297C13.4288 28.4358 13.5838 27.8698 13.8418 27.4757C13.5408 27.3938 13.2498 27.2658 12.9708 27.0938C12.6628 27.6277 12.4878 28.3127 12.4878 29.0297C12.4878 30.0008 12.8048 30.8788 13.3198 31.4328C13.4428 31.2728 13.5798 31.1337 13.7328 31.0227C13.9428 30.8698 14.2368 30.9148 14.3898 31.1258C14.5428 31.3358 14.4968 31.6298 14.2868 31.7828C14.2278 31.8268 14.1678 31.8867 14.1088 31.9567C14.2598 32.0047 14.4138 32.0307 14.5718 32.0307C14.7598 32.0307 14.9458 31.9907 15.1258 31.9227C15.0658 31.8538 15.0038 31.7958 14.9428 31.7558C14.7258 31.6128 14.6638 31.3207 14.8068 31.1027C14.9488 30.8857 15.2398 30.8257 15.4578 30.9667C15.6158 31.0707 15.7588 31.2067 15.8868 31.3637C16.3638 30.8047 16.6568 29.9527 16.6568 29.0297C16.6568 28.3217 16.4928 27.6598 16.1978 27.1337C15.9128 27.3018 15.6148 27.4227 15.3078 27.4978C15.5628 27.8917 15.7168 28.4367 15.7168 29.0297Z" fill="#333333"/>
<path fill-rule="evenodd" clip-rule="evenodd" d="M14.4571 35.3022C14.4551 35.3012 14.4531 35.2992 14.4511 35.2992C14.0261 35.1732 13.5991 34.4542 13.6161 33.4672C13.6291 32.7862 13.8521 32.2582 14.1081 31.9562C14.1681 31.8872 14.2281 31.8262 14.2871 31.7822C14.4971 31.6292 14.5431 31.3352 14.3901 31.1252C14.2361 30.9142 13.9421 30.8692 13.7321 31.0232C13.5801 31.1332 13.4421 31.2732 13.3191 31.4332C12.9281 31.9392 12.6891 32.6632 12.6761 33.4492C12.6541 34.5842 13.0931 35.5572 13.7731 36.0012C13.7961 35.8522 13.8281 35.7062 13.8831 35.5722C13.9761 35.3462 14.2251 35.2292 14.4571 35.3022Z" fill="#333333"/>
<path fill-rule="evenodd" clip-rule="evenodd" d="M15.4576 30.9671C15.2396 30.8251 14.9486 30.8861 14.8066 31.1031C14.6636 31.3211 14.7256 31.6131 14.9416 31.7551C15.0036 31.7951 15.0646 31.8541 15.1256 31.9221C15.3926 32.2231 15.6246 32.7791 15.6126 33.5081C15.6036 34.0191 15.4746 34.4941 15.2496 34.8471V34.8481C15.3516 34.6871 15.5406 34.6031 15.7276 34.6361C15.9206 34.6691 16.1126 34.7361 16.3026 34.8181C16.4536 34.4241 16.5446 33.9851 16.5536 33.5251C16.5676 32.6741 16.3146 31.8871 15.8866 31.3631C15.7586 31.2061 15.6156 31.0711 15.4576 30.9671Z" fill="#333333"/>
<mask id="mask3" mask-type="alpha" maskUnits="userSpaceOnUse" x="13" y="34" width="6" height="6">
<path fill-rule="evenodd" clip-rule="evenodd" d="M13.751 34.629H18.3798V39.501H13.751V34.629Z" fill="white"/>
</mask>
<g mask="url(#mask3)">
<path fill-rule="evenodd" clip-rule="evenodd" d="M17.2422 36.9945C17.5032 37.5555 17.5042 38.1105 17.2452 38.3785C17.2372 38.3845 17.2292 38.3905 17.2222 38.3975C17.1002 38.5135 16.9332 38.5665 16.7192 38.5585C16.2742 38.5425 15.7632 38.2625 15.3512 37.8095C14.8702 37.2815 14.6722 36.6925 14.6882 36.2595C15.1112 36.2295 15.5132 36.0105 15.8352 35.6365C16.1632 35.7555 16.4942 35.9855 16.7742 36.2945C16.9682 36.5065 17.1292 36.7475 17.2422 36.9945ZM15.2502 34.8485H15.2492C15.0562 35.1525 14.8232 35.3245 14.5832 35.3205C14.5392 35.3195 14.4982 35.3135 14.4632 35.3025H14.4572C14.2242 35.2285 13.9752 35.3465 13.8832 35.5715C13.8282 35.7065 13.7962 35.8515 13.7732 36.0015C13.6602 36.7745 13.9822 37.7035 14.6562 38.4445C15.2432 39.0885 15.9812 39.4725 16.6822 39.4995C16.7082 39.5005 16.7332 39.5015 16.7602 39.5015C17.0382 39.5015 17.2922 39.4355 17.5172 39.3205C17.6432 39.2565 17.7632 39.1815 17.8672 39.0835C17.8852 39.0665 17.9022 39.0515 17.9122 39.0415C18.0502 38.9015 18.1572 38.7385 18.2352 38.5575C18.4422 38.0725 18.4272 37.4615 18.1892 36.8325C18.1602 36.7555 18.1332 36.6775 18.0962 36.5995C17.9822 36.3505 17.8282 36.1195 17.6562 35.8975C17.5952 35.8185 17.5392 35.7355 17.4712 35.6605C17.1252 35.2795 16.7222 34.9975 16.3032 34.8175C16.1132 34.7355 15.9212 34.6695 15.7272 34.6365C15.5412 34.6025 15.3512 34.6865 15.2502 34.8485Z" fill="#333333"/>
</g>
<path fill-rule="evenodd" clip-rule="evenodd" d="M14.6149 26.6498C12.4569 26.6498 10.6349 23.0378 10.6349 18.7608C10.6349 17.3508 10.8299 15.9628 11.2009 14.7468C11.3889 14.1258 11.6249 13.5498 11.9009 13.0378C12.1769 12.5248 12.4839 12.0928 12.8159 11.7538L12.9569 11.6088L12.9489 11.4068C12.9459 11.3358 12.9449 11.2658 12.9449 11.1938C12.9449 10.6798 13.0159 10.1768 13.1499 9.72783L14.2479 10.4628C14.5029 10.6348 14.8349 10.6368 15.0929 10.4678L16.1009 9.80883C16.2199 10.2368 16.2819 10.7108 16.2819 11.1938C16.2819 11.2638 16.2809 11.3348 16.2779 11.4228V11.6168L16.4119 11.7538C16.7319 12.0818 17.0289 12.4958 17.2959 12.9828L17.3559 13.0918C17.6089 13.5718 17.8299 14.1118 18.0119 14.7008C18.3919 15.9288 18.5939 17.3338 18.5939 18.7608C18.5939 23.0378 16.7709 26.6498 14.6149 26.6498ZM18.9119 14.4218C18.8949 14.3688 18.8759 14.3178 18.8589 14.2648C18.7429 13.9098 18.6139 13.5708 18.4719 13.2498C18.3619 12.9998 18.2469 12.7568 18.1229 12.5308L17.9869 12.2868H17.9819C17.7489 11.8938 17.4949 11.5448 17.2229 11.2438V11.1938C17.2229 10.5238 17.1199 9.86383 16.9239 9.28483C16.8479 9.06083 16.6769 8.88783 16.4519 8.81083C16.2249 8.73183 15.9799 8.76283 15.7809 8.89383L14.6759 9.61683L13.4819 8.81783C13.2849 8.68583 13.0429 8.65283 12.8179 8.72683C12.5919 8.80083 12.4159 8.97283 12.3349 9.19783C12.1189 9.79983 12.0049 10.4908 12.0049 11.1938V11.2428C11.6649 11.6188 11.3519 12.0718 11.0719 12.5908C10.9619 12.7968 10.8639 13.0208 10.7649 13.2428C10.6219 13.5668 10.4919 13.9058 10.3769 14.2588C10.3529 14.3328 10.3229 14.3988 10.3009 14.4728C10.2119 14.7648 10.1359 15.0688 10.0649 15.3778C9.98887 15.7118 9.92587 16.0558 9.87287 16.4058C9.78387 16.9938 9.73287 17.5998 9.71287 18.2118C9.70687 18.3958 9.69287 18.5778 9.69287 18.7608C9.69287 18.9188 9.70187 19.0708 9.70587 19.2258C9.71887 19.7178 9.75187 20.2018 9.80587 20.6678C9.84487 20.9978 9.89587 21.3188 9.95487 21.6328C10.0559 22.1798 10.1859 22.7008 10.3429 23.1918C10.4389 23.4988 10.5479 23.7918 10.6649 24.0728C11.2389 25.4588 12.0359 26.5158 12.9699 27.0938C13.2499 27.2658 13.5409 27.3938 13.8419 27.4758C14.0939 27.5458 14.3499 27.5908 14.6149 27.5908C14.8509 27.5908 15.0809 27.5528 15.3069 27.4978C15.6149 27.4218 15.9129 27.3018 16.1979 27.1328C17.1579 26.5648 17.9759 25.4898 18.5629 24.0748C18.6789 23.7938 18.7879 23.5008 18.8859 23.1928C19.0409 22.7028 19.1709 22.1818 19.2719 21.6348C19.3309 21.3208 19.3819 20.9998 19.4209 20.6698C19.4759 20.2028 19.5079 19.7198 19.5209 19.2268C19.5259 19.0718 19.5339 18.9198 19.5339 18.7608C19.5339 18.5788 19.5209 18.3968 19.5149 18.2138C19.4939 17.6038 19.4459 17.0008 19.3569 16.4148C19.3039 16.0648 19.2419 15.7218 19.1669 15.3868C19.0919 15.0568 19.0079 14.7338 18.9119 14.4218Z" fill="#333333"/>
</svg>