<svg width="38" height="33" viewBox="0 0 38 33" fill="none" xmlns="http://www.w3.org/2000/svg">
<mask id="mask0" mask-type="alpha" maskUnits="userSpaceOnUse" x="0" y="0" width="38" height="33">
<path fill-rule="evenodd" clip-rule="evenodd" d="M0 0.000610352H37.6329V32.0369H0V0.000610352Z" fill="white"/>
</mask>
<g mask="url(#mask0)">
<path fill-rule="evenodd" clip-rule="evenodd" d="M36.6229 12.9036C36.5629 13.6576 36.2399 14.2966 35.6629 14.7876C35.3689 15.0366 35.0149 15.0756 34.6599 14.9126C34.3389 14.7646 34.0589 14.5626 33.8919 14.1436C34.0779 14.2346 34.1999 14.2936 34.3419 14.3626C34.3359 14.2836 34.3319 14.2266 34.3249 14.1306C34.4499 14.1956 34.5579 14.2526 34.7489 14.3516C34.6259 14.1846 34.5599 14.0936 34.4929 14.0036C34.5039 13.9876 34.5159 13.9716 34.5269 13.9556C34.6809 14.0306 34.8339 14.1056 35.0579 14.2156C34.9369 14.0536 34.8639 13.9556 34.7329 13.7796C34.9359 13.8576 35.0509 13.9026 35.2349 13.9736C35.1049 13.8126 35.0149 13.7006 34.8699 13.5216C35.0929 13.5956 35.2409 13.6446 35.4639 13.7196C35.2899 13.5546 35.1719 13.4426 35.0539 13.3316C35.0599 13.3086 35.0659 13.2856 35.0729 13.2626C35.2559 13.2826 35.4379 13.3016 35.7079 13.3316C35.4899 13.2106 35.3459 13.1296 35.1329 13.0096H35.8109C35.5569 12.8786 35.3759 12.7856 35.1959 12.6926C35.2009 12.6736 35.2049 12.6526 35.2099 12.6326C35.3119 12.6276 35.4149 12.6216 35.5709 12.6126C35.4049 12.5436 35.2859 12.4926 35.1039 12.4166C35.2619 12.3886 35.3499 12.3736 35.4369 12.3586C35.2299 12.3346 35.1079 12.1886 35.0039 12.0076C35.3399 11.9646 35.6889 11.9596 36.0329 12.0756C36.4399 12.2136 36.6559 12.4826 36.6229 12.9036ZM34.6519 28.5706C34.8029 28.9396 34.9949 29.2636 34.9389 29.6706C34.4259 29.8406 34.0479 29.6676 33.7359 29.2876C33.4859 29.5516 33.1919 29.6766 32.8489 29.6626C32.5769 29.6496 32.4929 29.5836 32.4639 29.3126C32.4429 29.1256 32.4779 28.9326 32.4889 28.7266C33.2249 28.7236 33.9249 28.9206 34.6519 28.5706ZM31.7349 23.4526C32.5059 23.6156 33.1669 23.4776 33.7979 23.0486C33.4539 23.7686 32.3669 23.9946 31.7349 23.4526ZM28.1069 23.2056C28.1439 23.1736 34.1159 17.9616 34.1159 17.9616C33.6339 20.4246 30.8719 22.8526 28.1069 23.2056ZM27.8559 19.6546C27.7859 19.1906 27.9369 18.7916 28.1899 18.4276C28.2209 18.4356 28.2509 18.4426 28.2809 18.4506C28.2449 18.7056 28.2079 18.9606 28.1719 19.2156C28.1839 19.2256 28.1949 19.2356 28.2069 19.2466C28.2919 19.0916 28.3769 18.9386 28.4619 18.7846C28.4789 18.7916 28.4969 18.7986 28.5149 18.8036C28.4769 19.0486 28.4389 19.2916 28.4019 19.5346C28.4149 19.5416 28.4279 19.5486 28.4399 19.5536C28.5349 19.3616 28.6289 19.1696 28.7239 18.9756C28.7429 18.9816 28.7629 18.9876 28.7819 18.9926L28.6999 19.7836C28.7189 19.7886 28.7369 19.7936 28.7559 19.7976L29.0249 19.1326C29.0499 19.1386 29.0739 19.1466 29.0989 19.1536C29.0779 19.4376 29.0569 19.7216 29.0359 20.0066C29.0509 20.0096 29.0649 20.0136 29.0789 20.0176C29.1689 19.7526 29.2579 19.4856 29.3469 19.2196C29.3659 19.2206 29.3849 19.2226 29.4029 19.2236C29.4319 19.4616 29.4599 19.6986 29.4869 19.9346C29.5029 19.9356 29.5179 19.9366 29.5319 19.9376C29.5779 19.7166 29.6239 19.4966 29.6689 19.2746C29.6899 19.2716 29.7109 19.2686 29.7319 19.2656L29.8789 19.9926C29.8929 19.9916 29.9059 19.9906 29.9209 19.9886C29.9539 19.7256 29.9879 19.4636 30.0209 19.1996C30.0469 19.1976 30.0709 19.1946 30.0969 19.1926L30.3539 20.0596C30.3729 20.0586 30.3919 20.0586 30.4109 20.0576V19.0776C30.4349 19.0736 30.4579 19.0696 30.4809 19.0666C30.5539 19.2546 30.6269 19.4416 30.6989 19.6296C30.7099 19.6286 30.7199 19.6266 30.7299 19.6246C30.7099 19.4396 30.6879 19.2546 30.6679 19.0686C30.6829 19.0616 30.6959 19.0536 30.7109 19.0476C30.7649 19.1326 30.8179 19.2176 30.9009 19.3516C30.8779 19.1346 30.8589 18.9676 30.8409 18.8006C30.8579 18.7926 30.8759 18.7826 30.8929 18.7736C30.9389 18.8326 30.9859 18.8906 31.0419 18.9596C31.0119 18.8106 30.9829 18.6726 30.9539 18.5336C31.1669 18.6766 31.2529 18.8986 31.3339 19.1196C31.6669 20.0246 31.3249 20.5956 30.3699 20.6976C29.7929 20.7586 29.2119 20.7556 28.6549 20.5476C28.2339 20.3896 27.9269 20.1206 27.8559 19.6546ZM25.6609 16.6316C25.3329 16.2956 25.2909 15.8866 25.5099 15.4646C25.6499 15.1916 25.8349 14.9586 26.2069 14.7666C26.1099 14.9856 26.0479 15.1296 25.9689 15.3056C26.0669 15.2576 26.1399 15.2216 26.2589 15.1626C26.1979 15.2996 26.1569 15.3916 26.0959 15.5316C26.2079 15.4836 26.2889 15.4496 26.4299 15.3906C26.3369 15.5856 26.2689 15.7306 26.1989 15.8766C26.2119 15.8846 26.2249 15.8946 26.2369 15.9036C26.3419 15.8146 26.4459 15.7256 26.5509 15.6356C26.5659 15.6436 26.5829 15.6516 26.5989 15.6596C26.5439 15.7926 26.4879 15.9246 26.4329 16.0566C26.4469 16.0646 26.4609 16.0726 26.4749 16.0806C26.5769 15.9866 26.6809 15.8926 26.8479 15.7396C26.7959 15.9516 26.7629 16.0856 26.7109 16.2976C26.8609 16.1326 26.9549 16.0296 27.0489 15.9256C27.0719 15.9296 27.0959 15.9336 27.1179 15.9386C27.1069 16.1186 27.0959 16.2996 27.0789 16.5616C27.1929 16.3446 27.2699 16.2006 27.3469 16.0546L27.3989 16.0636C27.3889 16.2466 27.3779 16.4286 27.3659 16.6116C27.3829 16.6196 27.3989 16.6266 27.4169 16.6336C27.5109 16.4376 27.6039 16.2406 27.7369 15.9646C27.7569 16.1636 27.7679 16.2716 27.7829 16.4356C27.8469 16.2626 27.8919 16.1416 27.9569 15.9646C27.9889 16.1046 28.0099 16.1896 28.0499 16.3636C28.0519 16.0706 28.2159 15.9666 28.3689 15.8066C28.4169 16.2146 28.4389 16.5676 28.3179 16.9126C28.1799 17.3046 27.9329 17.4946 27.5159 17.4786C26.7849 17.4516 26.1639 17.1486 25.6609 16.6316ZM25.6109 9.57061C26.1199 9.18861 26.8599 9.38261 27.1449 10.0016C27.0699 9.99261 27.0159 9.98461 26.9489 9.97661C26.9689 10.0376 26.9869 10.0936 27.0169 10.1836C26.8659 10.1446 26.7359 10.1116 26.5179 10.0556C26.7359 10.2256 26.8929 10.3456 27.0479 10.4666C27.0419 10.4896 27.0349 10.5106 27.0289 10.5336C26.8079 10.5016 26.5849 10.4676 26.3629 10.4356C26.3559 10.4516 26.3499 10.4676 26.3429 10.4836C26.4469 10.5316 26.5519 10.5806 26.6569 10.6276C26.7739 10.6786 26.8929 10.7296 27.0079 10.8516C26.8259 10.8656 26.6439 10.8786 26.4629 10.8916C26.4599 10.9066 26.4579 10.9206 26.4559 10.9346C26.6239 10.9766 26.7919 11.0186 27.0039 11.0706C26.8919 11.1326 26.8159 11.1746 26.6999 11.2386C26.8309 11.2596 26.9319 11.2756 27.0419 11.2936C27.0099 11.5286 26.8889 11.6426 26.6949 11.7016C26.1499 11.8656 25.5259 11.6186 25.2709 11.1336C24.9949 10.6096 25.1439 9.92261 25.6109 9.57061ZM24.0289 14.4426C23.6489 14.5686 23.3199 14.4656 23.0939 14.1266C22.7019 13.5386 22.5329 12.8796 22.6259 12.1766C22.6849 11.7356 22.9599 11.4486 23.4069 11.3416C23.7189 11.2656 24.0199 11.2636 24.3969 11.4306C24.2019 11.4946 24.0759 11.5356 23.9229 11.5856C23.9879 11.6376 24.0409 11.6806 24.1149 11.7426C23.9919 11.7676 23.8879 11.7906 23.7819 11.8126C23.7809 11.8306 23.7789 11.8486 23.7769 11.8666C23.8629 11.8966 23.9479 11.9266 24.1249 11.9906C23.8849 12.0476 23.7359 12.0836 23.4889 12.1416C23.7109 12.1966 23.8489 12.2306 24.0439 12.2786C23.8339 12.3396 23.6759 12.3846 23.4839 12.4396C23.6649 12.4856 23.8169 12.5236 24.0389 12.5796C23.8509 12.6496 23.7299 12.6936 23.5249 12.7696C23.7569 12.7946 23.9069 12.8086 24.1209 12.8316C23.9639 12.9626 23.8579 13.0496 23.7029 13.1786C23.8799 13.1646 23.9999 13.1536 24.2149 13.1356C24.0059 13.2916 23.8599 13.3996 23.7149 13.5076C23.7199 13.5246 23.7249 13.5416 23.7289 13.5586C23.9409 13.5036 24.1539 13.4476 24.4469 13.3716C24.3509 13.4866 24.2999 13.5466 24.2139 13.6496C24.5019 13.5466 24.6779 13.7756 24.9809 13.7216C24.6979 14.1066 24.3929 14.3216 24.0289 14.4426ZM24.2899 19.1446C24.0129 19.3486 23.6929 19.3436 23.3829 19.2376C22.7829 19.0316 22.2799 18.6746 21.9039 18.1626C21.5439 17.6716 21.5629 17.1476 21.9429 16.6696C22.1469 16.4126 22.3879 16.1946 22.7689 16.1586C22.6279 16.3066 22.4869 16.4556 22.3459 16.6036C22.3549 16.6186 22.3649 16.6326 22.3749 16.6456C22.4869 16.6016 22.5999 16.5576 22.7119 16.5146C22.7249 16.5346 22.7359 16.5536 22.7489 16.5746C22.6009 16.7116 22.4509 16.8476 22.3029 16.9836L22.3409 17.0246C22.4919 16.9576 22.6439 16.8886 22.7949 16.8216C22.8089 16.8396 22.8219 16.8566 22.8349 16.8746L22.3979 17.3256C22.4069 17.3406 22.4159 17.3556 22.4249 17.3706C22.5969 17.2936 22.7689 17.2156 22.9399 17.1376C22.8709 17.3806 22.6519 17.5036 22.5549 17.7336C22.7629 17.6166 22.9709 17.4986 23.1789 17.3816L23.2309 17.4276L22.8709 17.9346C22.8839 17.9476 22.8949 17.9616 22.9079 17.9736C23.0819 17.8526 23.2549 17.7316 23.4289 17.6116C23.4479 17.6236 23.4679 17.6356 23.4859 17.6486C23.3859 17.8476 23.2839 18.0476 23.1839 18.2466C23.1979 18.2556 23.2129 18.2636 23.2269 18.2736L23.7479 17.7786C23.7689 17.7916 23.7899 17.8036 23.8099 17.8166C23.7269 18.0576 23.6439 18.2996 23.5599 18.5416C23.5779 18.5516 23.5959 18.5636 23.6129 18.5746C23.7839 18.3556 23.9539 18.1366 24.1809 17.8466C24.1579 18.0426 24.1439 18.1566 24.1229 18.3446C24.2459 18.1666 24.3299 18.0456 24.4479 17.8746V18.2346C24.4709 18.2256 24.4919 18.2236 24.5029 18.2126C24.5209 18.1936 24.5409 18.1716 24.5459 18.1466C24.5819 17.9616 24.7019 17.9056 24.9179 17.9386C24.8409 18.4116 24.6969 18.8456 24.2899 19.1446ZM22.8249 23.3266C20.9689 23.3466 19.1499 23.1196 17.4069 22.4476C16.3659 22.0466 15.4109 21.5016 14.5969 20.7296C14.4539 20.5936 14.3219 20.4456 14.1889 20.3006C14.1549 20.2636 14.1319 20.2156 14.1029 20.1746C14.1189 20.1516 14.1349 20.1306 14.1499 20.1086C17.1549 21.7816 20.2979 23.0306 23.7719 23.2956C23.4569 23.3056 23.1409 23.3226 22.8249 23.3266ZM15.3779 23.2516C13.8989 22.4236 12.0189 20.6326 11.5709 19.5136C12.8369 20.7826 14.1539 21.8396 15.6489 22.6586C17.1529 23.4826 18.7419 24.0426 20.4889 24.1936C19.3769 24.4986 17.1079 24.2206 15.3779 23.2516ZM18.9179 25.9486C18.2409 25.8936 17.8859 25.4116 17.5879 24.8666C17.9809 25.1486 18.3939 25.4046 18.8789 25.4086C19.3249 25.4116 19.7729 25.3146 20.2629 25.2566C19.8869 25.6576 19.4969 25.9946 18.9179 25.9486ZM19.2659 31.4926C19.0659 31.5536 18.8569 31.5846 18.6519 31.6276C18.3889 31.6826 18.1839 31.6126 18.0699 31.3366C17.9609 31.4006 17.8649 31.4676 17.7599 31.5156C17.4599 31.6516 17.1989 31.4796 17.1979 31.1506C17.1979 30.7856 17.3669 30.6396 17.7309 30.6916C18.3139 30.7756 18.8799 30.7346 19.4129 30.4316C19.4799 30.5166 19.5449 30.5826 19.5909 30.6596C19.8379 31.0736 19.7329 31.3476 19.2659 31.4926ZM14.1779 24.9416C14.8239 25.4776 15.4259 25.2256 16.0299 24.8696C15.3869 25.7296 14.6539 25.7596 14.1779 24.9416ZM14.8099 30.9946C14.4739 31.0906 14.1169 31.1136 13.7689 31.1626C13.5819 31.1876 13.4349 31.1176 13.3549 30.9266C13.3089 30.9426 13.2729 30.9496 13.2429 30.9656C13.1289 31.0276 13.0109 31.1236 12.8879 31.0026C12.7529 30.8706 12.8309 30.7276 12.9199 30.6146C13.0219 30.4806 13.1439 30.3586 13.2719 30.2486C13.3239 30.2036 13.4229 30.1696 13.4839 30.1856C13.9939 30.3276 14.4979 30.2436 15.0039 30.1746C15.0419 30.1706 15.0809 30.1796 15.1469 30.1846C15.3079 30.6326 15.2219 30.8786 14.8099 30.9946ZM9.5409 17.0906C10.3599 16.7426 12.0539 17.4576 12.6289 18.2896C12.1029 18.0486 11.6169 17.7966 11.1089 17.5996C10.6009 17.4016 10.0689 17.2586 9.5409 17.0906ZM7.2649 15.3096C7.0909 15.2226 6.9279 15.1006 6.7859 14.9666C6.0009 14.2196 6.0039 14.2166 5.0419 13.9016C5.4499 13.7446 6.1469 13.8396 6.4589 14.2286C7.2459 15.2116 8.3599 15.3736 9.4789 15.5576C9.7229 15.5976 9.9689 15.6276 10.2129 15.6616C9.1979 15.7946 8.1999 15.7806 7.2649 15.3096ZM4.8879 4.62361C4.7789 4.48861 4.6709 4.35461 4.5619 4.21961C4.5479 4.22561 4.5329 4.23161 4.5189 4.23661C4.6059 4.52361 4.6939 4.80961 4.7999 5.15061C4.5159 5.06361 4.3929 4.90461 4.3329 4.71861C4.2539 4.47161 4.1629 4.20761 4.1729 3.95461C4.2159 2.94061 3.9349 2.03161 3.3809 1.19361C3.3599 1.16361 3.3529 1.12361 3.3279 1.05261C3.5489 0.98961 3.7569 1.04561 3.9329 1.12561C4.3029 1.29161 4.6769 1.46661 5.0079 1.69661C5.6509 2.14361 6.1639 2.73061 6.6389 3.35061C6.6669 3.38861 6.6819 3.43761 6.7009 3.47961C6.5519 3.57261 6.4909 3.19061 6.3229 3.45661C6.2429 3.34761 6.1669 3.24561 6.0479 3.08661C6.0649 3.28061 6.0769 3.40961 6.0879 3.53861L6.0229 3.56461C5.8399 3.26861 5.6559 2.97361 5.4739 2.67861C5.4559 2.68561 5.4379 2.69361 5.4219 2.70061C5.5409 3.03361 5.6609 3.36761 5.7799 3.70061C5.7549 3.71361 5.7289 3.72461 5.7039 3.73761C5.4159 3.30561 5.1269 2.87561 4.8379 2.44361C4.8199 2.45361 4.8039 2.46261 4.7859 2.47061C5.0029 2.90661 5.2209 3.34061 5.4369 3.77661C5.4179 3.79161 5.3979 3.80561 5.3799 3.82061C5.2489 3.64561 5.1169 3.47261 4.9889 3.29661C4.8539 3.10961 4.7249 2.91961 4.5339 2.76661C4.7349 3.21561 4.9369 3.66261 5.1389 4.11061C5.1169 4.12561 5.0959 4.13861 5.0739 4.15261C4.9279 3.96061 4.7799 3.76861 4.6339 3.57661C4.6149 3.58761 4.5959 3.59661 4.5769 3.60761C4.6959 3.93561 4.8149 4.26361 4.9349 4.59261C4.9189 4.60261 4.9029 4.61261 4.8879 4.62361ZM3.3589 13.2006C2.9189 13.2456 2.4999 13.1536 2.0929 12.9826C1.9389 12.9186 1.7719 12.8686 1.6069 12.8486C1.1539 12.7966 0.869897 12.5496 0.668897 12.0526C0.926897 12.1496 1.1119 12.2876 1.2839 12.2716C1.7089 12.2336 2.0189 12.4606 2.3689 12.6216C2.9649 12.8956 3.5719 12.8226 4.1679 12.5966C4.3349 12.5336 4.4969 12.4576 4.6779 12.4196C4.3599 12.8866 3.9159 13.1426 3.3589 13.2006ZM0.320897 10.7036C0.445897 10.8546 0.544897 10.9866 0.654897 11.1076C1.0619 11.5556 1.4109 11.5746 1.8759 11.1776C1.9139 11.1456 1.9579 11.1196 2.0199 11.0766C2.3939 11.8576 3.0259 12.1236 3.8999 11.9776C3.2419 12.5316 2.5699 12.4156 1.9229 11.6946C0.703897 11.8976 0.252897 11.6326 0.320897 10.7036ZM1.8589 9.47261C1.8309 9.68861 1.6849 9.81561 1.4899 9.79061C1.2699 9.76161 1.0609 9.50261 1.0809 9.28361C1.0969 9.10261 1.2719 8.98561 1.4869 9.01061C1.7389 9.04161 1.8919 9.22961 1.8589 9.47261ZM3.4939 10.0186C3.4879 10.2416 3.3609 10.3826 3.1689 10.3826C2.9359 10.3806 2.6959 10.1156 2.7129 9.88061C2.7259 9.70661 2.8609 9.60361 3.0759 9.60761C3.3369 9.61161 3.4999 9.77261 3.4939 10.0186ZM1.8589 8.17761C2.4479 8.32161 3.0239 8.49961 3.5399 8.82961C3.9239 9.07461 4.2449 9.37961 4.3719 9.83761C4.4079 9.96761 4.4159 10.1066 4.3679 10.2666C4.2919 10.1666 4.2119 10.0686 4.1409 9.96461C3.4999 9.03261 2.5709 8.65161 1.4839 8.57661C1.2549 8.56061 1.0419 8.61961 0.866897 8.78461C0.813897 8.83561 0.752897 8.87661 0.668897 8.94261C0.851897 8.25761 1.2319 8.02561 1.8589 8.17761ZM6.7079 6.24861C6.3869 6.17161 6.1359 6.11161 5.8809 6.04961C6.1509 5.79961 6.3679 5.84061 6.7079 6.24861ZM6.1439 5.29861C6.5049 4.99661 7.1129 5.16261 7.3639 5.65561C6.9559 5.53661 6.5399 5.41461 6.1439 5.29861ZM8.1719 5.04461C8.1719 5.04461 8.1709 5.04461 8.1709 5.04361C8.1709 5.04461 8.1709 5.04461 8.1719 5.04461C7.9789 4.95161 7.7939 4.84161 7.5999 4.75761C7.5349 4.72961 7.4699 4.70561 7.4019 4.68361C7.1329 4.59961 6.8419 4.58561 6.5569 4.53961C6.6399 4.49661 6.7249 4.46261 6.8089 4.43561C6.8939 4.41061 6.9779 4.39361 7.0609 4.38461C7.5609 4.33461 8.0149 4.58061 8.1719 5.04461ZM9.6819 6.87361C10.4889 6.86861 11.2229 7.53361 11.4509 8.53161C11.3519 8.41961 11.2959 8.34361 11.2279 8.28161C10.9699 8.04161 10.7319 7.76661 10.4399 7.57661C9.8909 7.21661 9.3109 7.24361 8.7809 7.63461C8.4869 7.85161 8.2299 8.11861 7.9339 8.38361C8.1429 7.49361 8.8609 6.87961 9.6819 6.87361ZM10.3709 13.9486C10.8969 14.1806 11.2539 14.5936 11.3399 15.0496C10.7269 14.8796 10.3429 14.4546 10.3709 13.9486ZM10.7369 15.1206C10.1499 15.0716 9.6049 14.9306 9.2269 14.4206C9.8509 14.3966 10.2959 14.7536 10.7369 15.1206ZM11.2519 9.43661C10.2699 10.8196 8.7869 10.4426 8.0339 9.38061C9.0969 10.0956 10.1649 10.1476 11.2519 9.43661ZM10.3139 8.56161C10.1929 8.29261 9.9969 8.10261 9.6829 8.10661C9.3869 8.11061 9.1859 8.28561 9.0869 8.54861C9.0249 8.71561 9.0139 8.90461 9.0049 9.08561C8.9989 9.19861 9.0389 9.31461 9.0589 9.42961C9.0359 9.45161 9.0129 9.47261 8.9899 9.49461C8.7429 9.29161 8.4959 9.08761 8.2089 8.85161C8.5289 8.36161 8.8599 7.95861 9.4109 7.79061C9.7369 7.69061 10.0349 7.76861 10.3149 7.93761C10.6739 8.15361 10.9239 8.46961 11.1509 8.82861C10.9449 9.19261 10.6699 9.45461 10.2369 9.64761C10.2769 9.51861 10.2959 9.44161 10.3249 9.36761C10.4319 9.09661 10.4339 8.82661 10.3139 8.56161ZM11.6879 14.9376C11.2909 14.6306 11.1789 14.1336 11.4139 13.7196C11.7269 14.0566 11.8259 14.4956 11.6879 14.9376ZM12.3859 13.4766C12.5259 13.9716 12.4249 14.3556 12.1739 14.7216C12.0659 14.3056 12.0259 13.8966 12.3859 13.4766ZM13.3969 13.4866C13.2219 14.0366 12.9979 14.4606 12.5879 14.8196C12.5769 14.1786 12.8679 13.6796 13.3969 13.4866ZM13.7129 2.01361C13.9479 1.71061 14.2549 1.49161 14.6459 1.48761C15.5609 1.47761 16.4559 1.34861 17.3319 1.09861C17.5959 1.94061 16.8229 4.24761 16.0619 4.81361C16.1599 4.33061 16.4229 3.94661 16.4549 3.47661C16.2069 3.83161 15.9599 4.18461 15.7119 4.53961C15.6859 4.52261 15.6599 4.50761 15.6349 4.49161C15.8749 4.06561 16.1159 3.64061 16.3569 3.21561L16.2839 3.16361C15.8849 3.65361 15.4839 4.14261 15.0849 4.63261C15.0609 4.61761 15.0379 4.60261 15.0159 4.58761C15.2989 4.08761 15.6629 3.63361 15.9569 3.13961C15.9349 3.12261 15.9129 3.10561 15.8909 3.08861C15.4189 3.63761 14.9479 4.18761 14.4769 4.73861C14.4539 4.72161 14.4309 4.70661 14.4069 4.68961C14.7759 4.11561 15.1449 3.54061 15.5149 2.96561C15.4979 2.95161 15.4809 2.93761 15.4649 2.92361C15.0209 3.46261 14.5789 4.00161 14.1369 4.53961C14.1119 4.52261 14.0879 4.50561 14.0629 4.48761C14.3959 3.94361 14.7299 3.40061 15.0629 2.85661C14.5409 3.32461 14.1249 3.88961 13.6509 4.40161C13.6269 4.38561 13.6019 4.37061 13.5769 4.35361C13.8369 3.85961 14.0969 3.36461 14.3549 2.86961C14.1199 3.04561 13.9679 3.29161 13.7969 3.51861C13.6259 3.74561 13.4619 3.97661 13.2959 4.20661C13.2719 4.19261 13.2499 4.17961 13.2269 4.16661C13.3489 3.85561 13.4699 3.54561 13.5919 3.23361L13.5329 3.20461C13.3659 3.48561 13.1999 3.76661 13.0329 4.04861C13.0699 3.29361 13.2579 2.60361 13.7129 2.01361ZM12.2949 15.8856C14.8169 14.0656 16.6509 11.8156 16.9559 8.58061C17.2379 9.22961 17.0049 11.0166 16.4809 12.1376C15.6209 13.9786 14.1459 15.1406 12.2949 15.8856ZM18.1939 7.52461C18.2579 7.81761 18.3329 8.10861 18.3829 8.40361C18.5979 9.70161 18.6219 10.9956 18.2839 12.2796C17.8609 13.8876 16.9309 15.1116 15.4979 15.9516C14.6169 16.4676 13.6639 16.7876 12.6459 16.9496C16.7439 15.1286 18.6179 12.0216 18.1939 7.52461ZM19.4609 14.1516C19.2859 14.2286 19.4029 14.4056 19.3559 14.4776C19.2319 14.6706 19.6569 14.6396 19.4389 14.8096H19.7239C19.7279 14.8676 19.7479 14.9146 19.7329 14.9406C19.5779 15.2086 19.3299 15.2706 19.0549 15.2036C18.7369 15.1256 18.4279 15.0156 18.0539 14.9016C18.3249 14.6376 18.5599 14.3826 18.8239 14.1646C19.0089 14.0116 19.1649 14.0316 19.4609 14.1516ZM19.1979 12.2806C19.4989 12.4546 19.7899 12.6006 20.0559 12.7846C20.2689 12.9316 20.3639 13.1556 20.2869 13.4816C20.2099 13.3856 20.1649 13.3296 20.1019 13.2516C19.9749 13.4386 19.8519 13.6186 19.7299 13.8006C19.6439 13.9296 19.5419 13.9236 19.4299 13.8416C19.2159 13.6886 19.1519 13.4626 19.1529 13.2186C19.1549 12.9206 19.1809 12.6216 19.1979 12.2806ZM20.1019 14.2976C20.1309 14.2176 20.2279 14.1236 20.3059 14.1126C20.3749 14.1026 20.4589 14.1986 20.5979 14.2876C20.4679 14.3946 20.4039 14.4796 20.3209 14.5076C20.2159 14.5446 20.0639 14.4006 20.1019 14.2976ZM20.1439 15.3946C20.1989 15.3406 20.2719 15.2666 20.3459 15.1926C20.3779 15.2146 20.4099 15.2356 20.4429 15.2576C20.4669 15.3496 20.4899 15.4436 20.5139 15.5366C20.5359 15.3926 20.5579 15.2496 20.5839 15.0836C20.8589 15.1486 20.8899 15.3416 20.8559 15.5126C20.8229 15.6866 20.7369 15.8586 20.6419 16.0096C20.5029 16.2266 20.3329 16.4246 20.1449 16.6736C19.9959 16.3736 19.8619 16.1196 19.7419 15.8606C19.6139 15.5866 19.6579 15.3366 19.8959 15.0706C19.9179 15.2046 19.9319 15.2876 19.9479 15.3916C19.9829 15.3416 20.0109 15.3046 20.0539 15.2456C20.1029 15.3276 20.1469 15.3996 20.1439 15.3946ZM20.9819 12.8656C21.2719 12.7606 21.5739 12.6876 21.9229 12.5846C21.8459 12.9526 21.8019 13.2896 21.6949 13.6056C21.6459 13.7486 21.4839 13.8626 21.3529 13.9626C21.2789 14.0176 21.2049 14.0006 21.1459 13.9426C21.1269 13.9246 21.1089 13.9006 21.0939 13.8736C21.0829 13.8406 21.0709 13.8076 21.0599 13.7746C21.1479 13.5156 20.9069 13.5906 20.8099 13.5496C20.7299 13.5166 20.6169 13.5636 20.5149 13.5756C20.5189 13.1666 20.6259 12.9946 20.9819 12.8656ZM21.9549 7.05661C22.1869 7.06861 22.3709 7.19761 22.4679 7.43261C22.2229 7.65061 22.0189 7.88161 22.1969 8.25561C21.8249 8.34461 21.5949 8.19461 21.4319 7.93961C21.2649 7.67861 21.1299 7.39761 20.9559 7.07761C21.3149 7.06761 21.6369 7.04061 21.9549 7.05661ZM22.1439 9.63561C21.8659 9.69461 21.5829 9.73261 21.3019 9.77961C21.2959 9.04861 21.5909 8.57261 22.1319 8.46561V8.93561C22.3449 8.96661 22.5329 8.99461 22.7529 9.02761C22.6979 9.41061 22.4609 9.57061 22.1439 9.63561ZM21.1439 14.2886C21.1779 14.2516 21.1909 14.2226 21.2129 14.2156C21.5189 14.1126 21.7549 14.2336 21.9359 14.4676C22.1249 14.7126 22.2929 14.9726 22.4999 15.2686C22.1409 15.3156 21.8209 15.3776 21.4999 15.3926C21.2689 15.4046 21.0739 15.2906 20.9029 15.0056C21.3089 15.0166 21.1269 14.6346 21.3149 14.5066C21.2589 14.4336 21.1989 14.3596 21.1439 14.2886ZM22.8859 6.62261C23.0959 6.40861 23.3179 6.20761 23.5809 5.95761C23.6839 6.31261 23.8069 6.62961 23.8589 6.95761C23.8639 6.98761 23.8669 7.01861 23.8679 7.04961C23.8769 7.26061 23.7909 7.46161 23.5379 7.54361C23.5379 7.54561 23.5379 7.54761 23.5389 7.54961L23.5319 7.54561H23.5329C23.5319 7.54461 23.5309 7.54461 23.5299 7.54361C23.5309 7.54261 23.5309 7.54161 23.5309 7.53961C23.4509 7.44261 23.3699 7.34461 23.2799 7.23661C23.1949 7.35461 22.9589 7.21261 22.8919 7.42961C22.8219 7.38961 22.7089 7.36261 22.6909 7.30661C22.6109 7.04561 22.6999 6.81161 22.8859 6.62261ZM22.7869 8.19961C22.7589 8.06761 22.8599 7.96661 22.9939 7.98761C23.0739 7.99961 23.1429 8.09161 23.2729 8.19261C23.1399 8.28461 23.0599 8.38261 22.9899 8.37561C22.9139 8.36761 22.8029 8.27261 22.7869 8.19961ZM22.9189 9.17761C23.2859 9.25461 23.4789 9.05261 23.6169 8.73461C23.8899 8.78061 24.0029 8.96061 24.0339 9.18861C24.0579 9.35461 24.0419 9.52861 24.0219 9.69661C23.9979 9.91561 23.9519 10.1316 23.9049 10.3996C23.6369 10.2076 23.3999 10.0456 23.1719 9.87261C22.9409 9.69761 22.8619 9.46261 22.9189 9.17761ZM24.4579 7.61561C24.7439 7.73261 25.0129 7.89361 25.2959 8.03961C24.5819 8.66061 24.2809 8.87461 23.8079 8.55261C23.9429 8.52661 24.0459 8.50761 24.2019 8.47561C24.0829 8.44861 24.0129 8.43161 23.9409 8.41461C23.9329 8.40361 23.9309 8.39561 23.9319 8.38861C23.9349 8.36561 23.9939 8.36861 24.0279 8.35761C24.0399 8.35461 24.0489 8.35061 24.0519 8.34261C24.0569 8.33061 24.0459 8.31061 24.0089 8.27761C24.0069 8.27661 24.0639 8.20861 24.1059 8.15661C23.8629 8.17261 23.9389 7.80261 23.6049 7.83761C23.8959 7.47861 24.1829 7.50261 24.4579 7.61561ZM26.3519 7.76661C26.5649 7.21361 27.1699 6.88561 27.7569 7.00561C28.3409 7.12361 28.6919 7.79661 28.4419 8.36061C28.4049 8.31661 28.3769 8.28261 28.3329 8.22961C28.3089 8.29961 28.2859 8.36261 28.2529 8.45561C28.1769 8.33261 28.1109 8.22761 28.0469 8.12361C28.0279 8.12761 28.0109 8.13161 27.9919 8.13461C28.0139 8.30361 28.0339 8.47261 28.0559 8.64161C28.0379 8.65461 28.0209 8.66861 28.0039 8.68061C27.9339 8.58861 27.8609 8.49661 27.7909 8.40361C27.7219 8.30961 27.6529 8.21561 27.5399 8.14161C27.6299 8.37761 27.7209 8.61261 27.8109 8.84761C27.7939 8.86261 27.7769 8.87761 27.7599 8.89161C27.6059 8.75061 27.4529 8.60761 27.2999 8.46661C27.2859 8.47661 27.2729 8.48861 27.2609 8.50061C27.3659 8.66461 27.4719 8.82861 27.5959 9.01961H27.3909C27.4089 9.08261 27.4259 9.13761 27.4499 9.21561C27.2699 9.38561 27.0799 9.34961 26.8879 9.23361C26.3829 8.92961 26.1509 8.29061 26.3519 7.76661ZM29.1159 10.6436C28.5469 10.8936 27.9159 10.6726 27.6879 10.1716C27.6259 10.0346 27.5999 9.89261 27.7369 9.77961C27.8729 9.66761 28.0089 9.70361 28.1269 9.80561C28.2049 9.87461 28.2729 9.95561 28.3349 10.0396C28.6469 10.4626 28.6459 10.4636 29.1159 10.6436ZM28.7049 8.91161C28.7489 8.71361 28.8759 8.61361 29.0299 8.63661C29.2249 8.66761 29.2799 8.80861 29.2809 8.98061C29.2819 9.07261 29.2879 9.17061 29.2589 9.25461C29.1439 9.58861 29.2099 9.89561 29.4319 10.2506C28.7879 10.0556 28.5879 9.43161 28.7049 8.91161ZM29.4219 6.25661C29.9519 5.99561 30.6479 6.16861 30.9769 6.64261C31.3099 7.12161 31.1769 7.69561 30.6229 8.13261C30.5449 8.08361 30.4629 8.03061 30.3529 7.96161C30.3759 7.87161 30.4029 7.76161 30.4309 7.65361C30.4169 7.64661 30.4019 7.63961 30.3889 7.63261C30.2699 7.77861 30.1519 7.92361 30.0339 8.06761C30.0169 8.05961 29.9989 8.05161 29.9799 8.04461C30.0209 7.80461 30.0629 7.56461 30.1039 7.32461C30.0889 7.31761 30.0739 7.31061 30.0589 7.30361C29.9509 7.54861 29.8439 7.79161 29.7349 8.03561C29.7119 8.03161 29.6879 8.02861 29.6649 8.02561C29.6529 7.81761 29.6429 7.60961 29.6309 7.40161C29.6189 7.40061 29.6079 7.39961 29.5969 7.39861C29.5539 7.58561 29.5109 7.77161 29.4509 8.03161C29.3799 7.86661 29.3359 7.76461 29.2839 7.64461C29.2669 7.78361 29.2509 7.90461 29.2339 8.03461C28.9799 8.01661 28.8739 7.87261 28.8149 7.66461C28.6619 7.11661 28.9259 6.49961 29.4219 6.25661ZM31.3069 7.86561C31.6209 7.37061 32.2219 7.15461 32.7449 7.34561C33.2809 7.54261 33.6189 8.12261 33.5329 8.70061C33.4389 9.32561 32.7079 9.72761 32.1699 9.43161C32.2639 9.37861 32.3509 9.32861 32.4749 9.25761C32.3349 9.27061 32.2329 9.27961 32.1309 9.28961C32.1329 9.25561 32.1249 9.21961 32.1359 9.21361C32.2209 9.15761 32.3099 9.10661 32.3889 9.00061C32.2199 9.01761 32.0509 9.03561 31.8429 9.05661C31.9779 8.81061 32.2499 8.76261 32.4479 8.51261C32.1419 8.63361 31.8999 8.72761 31.6589 8.82261C31.6469 8.80961 31.6369 8.79761 31.6249 8.78361C31.7219 8.66061 31.8179 8.53861 31.9159 8.41561C31.9059 8.40061 31.8959 8.38661 31.8869 8.37261C31.7689 8.43861 31.6499 8.50461 31.4679 8.60561C31.5189 8.47261 31.5489 8.39661 31.5899 8.29161C31.4889 8.35661 31.4089 8.40861 31.3219 8.46561C31.1449 8.24761 31.1859 8.05561 31.3069 7.86561ZM30.3979 15.8696C30.4619 16.0516 30.5099 16.1886 30.5619 16.3396C30.6129 16.2796 30.6589 16.2256 30.7279 16.1436C30.7549 16.2756 30.7739 16.3736 30.8009 16.5066C30.8449 16.4606 30.8769 16.4406 30.8839 16.4146C30.9019 16.3406 30.9099 16.2626 30.9749 16.1806C31.0239 16.3336 31.0729 16.4856 31.1489 16.7206C31.1909 16.5216 31.2179 16.3946 31.2609 16.1926C31.3309 16.3856 31.3779 16.5126 31.4439 16.6936C31.4789 16.5106 31.5039 16.3856 31.5449 16.1756C31.6459 16.3856 31.7129 16.5256 31.8079 16.7226C31.7969 16.4836 31.7889 16.3066 31.7799 16.1016C32.0189 16.1576 32.0249 16.4156 32.2319 16.5176C32.1829 16.3406 32.1409 16.1886 32.0989 16.0366C32.1149 16.0276 32.1329 16.0176 32.1489 16.0086C32.2629 16.1436 32.3769 16.2786 32.4899 16.4136C32.5079 16.4086 32.5239 16.4026 32.5419 16.3976C32.4759 16.1906 32.4079 15.9846 32.3179 15.7096C32.4409 15.7976 32.5079 15.8446 32.6049 15.9146C32.5869 15.8156 32.5729 15.7406 32.5539 15.6326C32.6259 15.6496 32.6799 15.6616 32.7059 15.6676V15.2006C33.0699 15.4436 33.2789 15.7206 33.4109 16.0526C33.5519 16.4066 33.4769 16.7436 33.1799 16.9816C32.6359 17.4166 31.9939 17.6276 31.3079 17.5906C30.4919 17.5496 30.0659 16.7506 30.3979 15.8696ZM30.7129 9.13861C30.6809 9.17961 30.6429 9.21761 30.6019 9.24961C30.4459 9.36961 30.2669 9.46661 30.1389 9.61061C30.0229 9.73961 29.9639 9.91861 29.8729 10.0896C29.6329 9.53661 29.8619 8.90361 30.3639 8.68361C30.5059 8.62261 30.6459 8.60261 30.7539 8.74561C30.8609 8.88661 30.8109 9.01761 30.7129 9.13861ZM31.8759 10.0426C31.8399 10.1346 31.7369 10.2246 31.6439 10.2646C31.5549 10.3026 31.4329 10.2946 31.3339 10.2696C30.9829 10.1816 30.6439 10.1576 30.3169 10.3906C30.3969 10.0136 30.6439 9.80361 30.9669 9.73061C31.1979 9.67661 31.4579 9.70961 31.6989 9.74261C31.8369 9.76161 31.9309 9.90061 31.8759 10.0426ZM30.4299 10.8786C30.9719 10.6736 31.3869 10.7826 31.7119 11.1746C31.7619 11.2356 31.8109 11.2996 31.8419 11.3696C31.9019 11.5086 31.9199 11.6526 31.7749 11.7576C31.6519 11.8446 31.5249 11.8176 31.4129 11.7326C31.3519 11.6856 31.2869 11.6316 31.2499 11.5656C31.0609 11.2396 30.8249 10.9746 30.4299 10.8786ZM30.1499 11.3196C30.7769 11.4246 30.9829 12.2806 30.7779 12.7046C30.7379 12.7896 30.6089 12.8656 30.5119 12.8796C30.3619 12.9006 30.2749 12.7866 30.2569 12.6406C30.2449 12.5506 30.2449 12.4586 30.2539 12.3676C30.2729 12.1866 30.3329 12.0046 30.3169 11.8276C30.3019 11.6576 30.2109 11.4936 30.1499 11.3196ZM31.9229 12.4916C32.0569 12.5296 32.1399 12.5536 32.2359 12.5816C32.1779 12.4886 32.1259 12.4046 32.0679 12.3106C32.2869 12.1516 32.4779 12.1896 32.6679 12.3116C33.1429 12.6186 33.3619 13.2116 33.1899 13.7166C33.0109 14.2476 32.4649 14.5946 31.8939 14.5426C31.2459 14.4836 30.8399 13.8276 31.0669 13.1696C31.1089 13.2006 31.1449 13.2276 31.1979 13.2686C31.2229 13.2156 31.2479 13.1596 31.2839 13.0806C31.3609 13.2106 31.4249 13.3186 31.4879 13.4266L31.5379 13.4096C31.5159 13.2356 31.4929 13.0606 31.4709 12.8866C31.4879 12.8756 31.5069 12.8636 31.5239 12.8516C31.6459 13.0066 31.7679 13.1616 31.8899 13.3156L31.9449 13.2896C31.8699 13.0906 31.7939 12.8906 31.7189 12.6916L31.7689 12.6476C31.9259 12.7876 32.0829 12.9266 32.2399 13.0666C32.2509 13.0606 32.2629 13.0546 32.2729 13.0496C32.1689 12.8826 32.0629 12.7156 31.9229 12.4916ZM28.9999 13.3826C28.9889 13.4576 28.9809 13.5136 28.9729 13.5816C29.0329 13.5626 29.0889 13.5456 29.1979 13.5116C29.1439 13.6866 29.1049 13.8076 29.0669 13.9286C29.0789 13.9366 29.0919 13.9446 29.1029 13.9516C29.2259 13.7936 29.3489 13.6336 29.4709 13.4756C29.4939 13.4826 29.5189 13.4896 29.5419 13.4956C29.5039 13.7276 29.4659 13.9606 29.4279 14.1916C29.4419 14.1966 29.4559 14.2016 29.4699 14.2066L29.7859 13.5146C29.8099 13.5156 29.8329 13.5176 29.8559 13.5186C29.8679 13.7256 29.8809 13.9326 29.8939 14.1386C29.9039 14.1396 29.9159 14.1406 29.9279 14.1406C29.9709 13.9536 30.0129 13.7646 30.0669 13.5246C30.1399 13.6476 30.1869 13.7316 30.2459 13.8326C30.2569 13.7166 30.2669 13.6196 30.2769 13.5126C30.3279 13.5086 30.3779 13.4896 30.3979 13.5066C30.4959 13.5866 30.6229 13.6596 30.6719 13.7656C30.9339 14.3316 30.5849 15.1036 29.9839 15.3226C29.3469 15.5536 28.5939 15.2076 28.4059 14.5946C28.2669 14.1356 28.5169 13.6046 28.9999 13.3826ZM29.3939 11.9076C29.5069 11.7786 29.5619 11.5996 29.6499 11.4306C29.8999 11.9816 29.6569 12.6446 29.1439 12.8506C29.0169 12.9026 28.8899 12.9166 28.7859 12.7976C28.6699 12.6656 28.7009 12.5326 28.7969 12.4066C28.8369 12.3556 28.8839 12.3086 28.9349 12.2686C29.0879 12.1476 29.2679 12.0506 29.3939 11.9076ZM27.8569 11.8036C27.7249 11.7496 27.6319 11.6706 27.6409 11.5146C27.6499 11.3386 27.7669 11.2656 27.9239 11.2446C27.9869 11.2366 28.0539 11.2386 28.1179 11.2466C28.3109 11.2696 28.5069 11.3306 28.6969 11.3156C28.8689 11.3016 29.0339 11.2096 29.2139 11.1486C29.0179 11.7126 28.3719 12.0146 27.8569 11.8036ZM27.4499 12.2766C27.3099 12.3606 27.1909 12.4286 27.0739 12.4986C27.0789 12.5156 27.0829 12.5326 27.0869 12.5496L27.6489 12.4726C27.6569 12.4926 27.6649 12.5126 27.6729 12.5336L27.1159 12.9466C27.1239 12.9616 27.1309 12.9756 27.1379 12.9906C27.3729 12.8996 27.6079 12.8076 27.8439 12.7166C27.8589 12.7326 27.8749 12.7496 27.8909 12.7646C27.7649 12.9086 27.6389 13.0506 27.5129 13.1936C27.5229 13.2056 27.5339 13.2166 27.5449 13.2296C27.6929 13.1376 27.8419 13.0466 28.0369 12.9256C28.0209 13.0196 28.0139 13.0626 28.0009 13.1396C28.0819 13.1206 28.1529 13.1036 28.2329 13.0856C28.3679 13.2806 28.3539 13.4686 28.2279 13.6416C27.9329 14.0496 27.4769 14.3786 26.8689 14.2096C26.3429 14.0626 25.9769 13.5606 25.9829 12.9936C25.9909 12.2916 26.6309 11.8416 27.3559 12.0656C27.3009 12.1166 27.2589 12.1546 27.2029 12.2056C27.2759 12.2266 27.3459 12.2466 27.4499 12.2766ZM34.0969 10.1636C34.4239 10.5486 34.4879 10.9906 34.2929 11.4556C34.1299 11.8446 33.8449 12.1146 33.4099 12.1506C32.9659 12.1876 32.6379 11.9666 32.3839 11.6336C32.4589 11.5166 32.4989 11.4536 32.5679 11.3466C32.6299 11.3636 32.7589 11.3996 32.8869 11.4346C32.8929 11.4216 32.8989 11.4086 32.9049 11.3946C32.7589 11.2776 32.6119 11.1596 32.4649 11.0426C32.4729 11.0226 32.4789 11.0036 32.4869 10.9836C32.7359 11.0246 32.9859 11.0666 33.2359 11.1086C33.2399 11.0956 33.2449 11.0836 33.2499 11.0706C32.9989 10.9596 32.7469 10.8466 32.4959 10.7356C32.5019 10.7136 32.5079 10.6896 32.5149 10.6676H33.1219C33.1249 10.6436 33.1289 10.6206 33.1319 10.5976C32.9469 10.5556 32.7629 10.5146 32.5119 10.4586C32.6559 10.3826 32.7399 10.3386 32.8319 10.2906C32.7149 10.2706 32.6059 10.2516 32.4959 10.2316C32.5059 9.94461 32.6889 9.83561 32.9059 9.80661C33.3509 9.74761 33.7819 9.79361 34.0969 10.1636ZM24.6859 29.1936C24.1939 29.3336 23.9419 29.2806 23.8329 28.8936C23.6979 29.0046 23.6069 29.1076 23.4929 29.1626C23.4139 29.2006 23.2769 29.2066 23.2109 29.1616C23.1459 29.1166 23.0919 28.9736 23.1149 28.9006C23.1939 28.6556 23.3099 28.4226 23.4129 28.1826C24.0109 28.2996 24.5689 28.4106 25.1339 28.5206C25.1779 28.9066 25.0699 29.0856 24.6859 29.1936ZM33.7049 4.07361C33.9159 4.07161 34.1479 4.31961 34.1469 4.54661C34.1459 4.84861 33.8599 5.12861 33.5619 5.11861C33.3129 5.11061 33.1169 4.92161 33.1319 4.70361C33.1489 4.44361 33.4829 4.07661 33.7049 4.07361ZM36.4019 9.96461C35.7409 8.83161 34.9079 7.82961 34.0019 6.88461C33.3929 6.24961 32.6849 5.75461 31.8839 5.38961C31.7909 5.34661 31.7029 5.29361 31.6189 5.24861C31.7639 4.58461 32.2839 4.10861 32.8639 4.10861C32.8189 4.19561 32.7749 4.27561 32.7369 4.35661C32.4859 4.89561 32.6249 5.38261 33.1499 5.66361C33.3649 5.77861 33.6179 5.85561 33.8599 5.87561C34.4959 5.92461 34.8879 5.50161 34.8039 4.86961C34.7639 4.57461 34.6669 4.28661 34.5909 3.97061C35.4129 3.98361 36.1779 4.27161 36.9689 4.45161C36.3899 3.86161 35.7119 3.42761 34.8779 3.39861C34.1609 3.37461 33.4399 3.42461 32.7219 3.39261C32.6319 3.38861 32.5389 3.41461 32.4489 3.43361C31.6639 3.60561 31.0639 4.05461 30.5909 4.68661C30.4909 4.82061 30.4029 4.91661 30.2049 4.87861C28.7339 4.60061 27.2629 4.67061 25.8069 4.95661C24.5419 5.20461 23.2889 5.51661 22.0339 5.81461C21.1079 6.03361 20.1809 6.23761 19.2239 6.15861C18.8489 6.12861 18.4759 6.02261 18.1119 5.91561C17.9499 5.86761 17.8139 5.72961 17.6919 5.64861C17.7609 5.35861 17.8389 5.13161 17.8639 4.89861C17.9299 4.30961 17.9819 3.71961 18.0189 3.12961C18.0609 2.45061 18.1769 1.79861 18.5279 1.20161C18.7089 0.89461 18.8659 0.57561 19.0299 0.25961C19.0739 0.17461 19.1069 0.0836103 19.1439 0.000610352C18.4489 0.0556104 17.7819 0.10561 17.1139 0.16561C16.1439 0.25061 15.1729 0.31961 14.2169 0.52961C13.4749 0.69261 12.8859 1.07761 12.4119 1.65761C12.0419 2.11161 11.7699 2.62161 11.5599 3.16561C11.5129 3.28661 11.4659 3.40761 11.4129 3.54461C11.3229 3.51961 11.2469 3.50561 11.1769 3.47661C10.5139 3.20961 9.8299 3.01461 9.1169 2.95361C8.8049 2.92561 8.5669 2.79261 8.3629 2.57461C8.1199 2.31461 7.8919 2.04161 7.6409 1.78961C6.3899 0.52861 4.8759 -0.0523897 3.1019 0.0746104C2.6989 0.10261 2.3069 0.20161 1.9259 0.44061C2.6619 0.93661 3.0299 1.65861 3.3519 2.41561C3.4829 2.72361 3.5429 3.04061 3.5369 3.37661C3.5319 3.65261 3.5359 3.93161 3.5689 4.20561C3.6459 4.82761 3.8429 5.38861 4.4529 5.70261C4.4709 5.71161 4.4749 5.74761 4.4939 5.78861C4.3459 6.29361 4.1799 6.80361 3.8659 7.25561C3.5459 7.71561 3.1209 7.94961 2.5529 7.89561C2.2119 7.86361 1.8709 7.83961 1.5309 7.79961C1.1089 7.75061 0.816897 7.93661 0.622897 8.29161C0.527897 8.46461 0.436897 8.64461 0.390897 8.83461C0.256897 9.36961 0.106897 9.90561 0.0338972 10.4506C-0.148103 11.7866 0.405897 12.7526 1.6209 13.3326C2.1099 13.5666 2.6369 13.6026 3.1589 13.6396C3.5809 13.6706 4.0059 13.6456 4.4869 13.6456C4.2419 13.7736 4.0389 13.8796 3.8219 13.9926C3.8729 14.0256 3.8919 14.0436 3.9139 14.0516C3.9759 14.0746 4.0369 14.0976 4.1009 14.1146C4.9289 14.3416 5.6549 14.7556 6.3069 15.3086C6.6069 15.5646 6.8999 15.8346 7.2239 16.0586C7.6219 16.3356 8.0389 16.5906 8.4689 16.8156C8.6859 16.9286 8.8769 17.0476 9.0099 17.2526C9.2899 17.6826 9.5819 18.1056 9.8499 18.5446C10.8869 20.2416 11.9269 21.9376 12.9439 23.6456C13.6529 24.8346 13.9319 26.1336 13.8369 27.5116C13.8139 27.8416 13.7599 28.1726 13.5329 28.4346C13.2539 28.7586 13.1689 29.1356 13.2429 29.5416C13.2759 29.7206 13.2249 29.8406 13.1319 29.9766C12.9909 30.1826 12.8479 30.3906 12.7399 30.6146C12.5249 31.0596 12.6289 31.2736 13.0939 31.4136C13.1319 31.4246 13.1699 31.4366 13.2079 31.4426C13.8169 31.5316 14.4189 31.4986 15.0019 31.2936C15.4429 31.1366 15.5809 30.9186 15.5609 30.4576C15.5569 30.3666 15.5479 30.2766 15.5399 30.1716C15.6289 30.1496 15.7019 30.1296 15.7769 30.1136C16.2049 30.0256 16.3569 29.8496 16.3569 29.4056C16.3569 29.1966 16.3409 28.9826 16.2989 28.7776C16.0139 27.4006 16.3549 26.1186 16.8739 24.8006C16.9359 24.9286 16.9759 25.0076 17.0149 25.0876C17.1299 25.3236 17.2289 25.5696 17.3639 25.7946C17.5219 26.0606 17.6119 26.3406 17.6549 26.6456C17.7189 27.0966 17.6979 27.5466 17.5849 27.9786C17.4729 28.4096 17.3069 28.8266 17.1449 29.2426C16.9949 29.6296 16.8489 30.0086 17.1019 30.4096C17.0559 30.4606 17.0249 30.5036 16.9859 30.5356C16.4219 30.9946 16.7149 31.7886 17.3549 31.9366C17.5339 31.9786 17.7169 32.0146 17.8989 32.0276C18.5379 32.0686 19.1609 31.9806 19.7589 31.7476C20.0149 31.6476 20.1799 31.4766 20.1619 31.1816C20.1529 31.0496 20.1709 30.9066 20.1229 30.7916C19.9639 30.4056 19.9529 30.0446 20.0699 29.6286C20.2389 29.0246 20.0939 28.3956 20.0189 27.7836C19.8919 26.7406 19.9279 26.5836 20.6349 25.7886C20.6609 25.7576 20.6899 25.7316 20.7139 25.6996C20.9579 25.3646 21.2499 25.1656 21.6849 25.3346C21.7439 25.3576 21.8159 25.3496 21.8819 25.3466C22.7099 25.3096 23.5389 25.2756 24.3659 25.2296C24.6859 25.2126 25.0049 25.1686 25.3899 25.1306C25.2969 25.3406 25.2459 25.4886 25.1689 25.6226C24.8959 26.0946 24.5509 26.5076 24.1089 26.8336C23.8049 27.0576 23.5699 27.3306 23.4349 27.6886C23.3939 27.7946 23.3189 27.8906 23.2429 27.9756C22.9679 28.2866 22.7549 28.6326 22.6299 29.0266C22.5429 29.2996 22.6019 29.4066 22.8629 29.4576C23.5929 29.5996 24.3299 29.6056 25.0659 29.5276C25.4119 29.4916 25.6029 29.2696 25.6749 28.9416C25.7139 28.7636 25.7359 28.5816 25.7659 28.3996C25.8779 28.3666 25.9819 28.3466 26.0759 28.3046C26.5179 28.1096 26.8119 27.7806 26.8599 27.2966C26.8989 26.9026 27.0219 26.5486 27.2269 26.2226C27.4629 25.8436 27.7759 25.5066 27.9719 25.1086C28.2749 24.4936 28.7399 24.1176 29.3639 23.8686C29.8149 23.6886 30.2299 23.4236 30.6719 23.2176C30.9769 23.0766 31.0559 23.1006 31.2149 23.3946C31.4469 23.8226 31.6439 24.2696 31.8649 24.7036C32.0249 25.0156 32.0859 25.3486 32.0939 25.6946C32.0999 25.9706 32.1159 26.2496 32.0909 26.5236C32.0669 26.7836 32.0389 27.0586 31.9339 27.2906C31.7759 27.6326 31.7659 27.9506 31.9309 28.2756C32.0189 28.4506 32.0159 28.6176 31.9889 28.8066C31.9509 29.0786 31.9409 29.3586 31.9599 29.6326C31.9769 29.9016 32.0859 30.0096 32.3169 30.0176C33.1589 30.0476 34.0019 30.0666 34.8449 30.0836C34.9479 30.0866 35.0529 30.0546 35.1559 30.0376C35.3309 30.0086 35.4139 29.8936 35.3919 29.7306C35.3639 29.5236 35.3419 29.3026 35.2549 29.1186C34.9799 28.5396 34.8459 27.9306 34.7829 27.2996C34.7739 27.2086 34.7469 27.1196 34.7289 27.0286C34.6249 26.4996 34.5219 25.9686 34.4179 25.4396C34.2399 24.5376 34.2889 23.6596 34.6779 22.8116C34.8859 22.3566 35.0739 21.8926 35.2839 21.4396C35.7819 20.3646 36.3089 19.3006 36.7859 18.2166C37.1619 17.3616 37.4869 16.4826 37.5629 15.5366C37.5669 15.4896 37.6089 15.4456 37.6329 15.4006V13.2656C37.6099 13.2196 37.5709 13.1746 37.5659 13.1276C37.4469 11.9736 36.9769 10.9486 36.4019 9.96461Z" fill="#DA4B32"/>
</g>
</svg>