<svg width="41" height="40" viewBox="0 0 41 40" fill="none" xmlns="http://www.w3.org/2000/svg">
<path fill-rule="evenodd" clip-rule="evenodd" d="M20.2899 37.004C18.7659 37.004 17.3339 36.597 16.0879 35.895C16.9529 37.313 18.5099 38.265 20.2899 38.265C22.0689 38.265 23.6259 37.313 24.4919 35.895C23.2459 36.597 21.8139 37.004 20.2899 37.004Z" fill="#FFCA24"/>
<path fill-rule="evenodd" clip-rule="evenodd" d="M1.8652 1.31555C1.7812 1.26955 1.6772 1.28955 1.6172 1.36455C1.5902 1.39955 1.5752 1.44355 1.5752 1.48755C1.5752 1.50955 1.5792 1.54455 1.5992 1.57855C2.3002 2.78155 4.9692 6.69455 10.5182 8.15255L10.2812 4.04655C8.7252 4.01555 5.8892 3.56355 1.8652 1.31555Z" fill="#FFCA24"/>
<path fill-rule="evenodd" clip-rule="evenodd" d="M38.9781 1.58214C39.0001 1.54514 39.0041 1.51014 39.0041 1.48714C39.0041 1.44314 38.9891 1.39914 38.9621 1.36514C38.9021 1.28914 38.7981 1.26914 38.7151 1.31514C34.6901 3.56314 31.8511 4.01614 30.2971 4.04714L30.2861 4.24414L30.2771 4.37414L30.0591 8.15314C35.6111 6.69414 38.2791 2.78114 38.9781 1.58214Z" fill="#FFCA24"/>
<path fill-rule="evenodd" clip-rule="evenodd" d="M29.8847 13.879C30.7897 15.093 32.1277 15.87 33.6507 16.067C35.2017 16.27 36.7957 15.826 38.0217 14.853C38.4627 14.535 39.5727 13.548 39.6357 12.649C39.6597 12.308 39.5267 12.003 39.2277 11.717C38.7227 11.233 38.1147 10.891 37.4057 10.677C34.8067 10.119 32.0637 10.835 29.8087 12.495L29.7407 13.678C29.7877 13.747 29.8357 13.814 29.8847 13.879Z" fill="#FFCA24"/>
<path fill-rule="evenodd" clip-rule="evenodd" d="M29.9435 10.1593L29.8765 11.3143C30.2705 11.0613 30.6745 10.8333 31.0895 10.6323C30.6065 10.5263 30.2285 10.3533 29.9435 10.1593Z" fill="#FFCA24"/>
<path fill-rule="evenodd" clip-rule="evenodd" d="M26.9483 18.3614C26.9033 18.5274 26.8553 18.8414 27.0453 19.0824C27.3123 19.4204 27.9303 19.4214 28.4843 19.1154L28.5023 18.8114C28.4893 18.8174 28.4773 18.8234 28.4643 18.8284C27.9233 19.0104 27.3773 18.8464 27.2473 18.4624C27.1173 18.0774 27.4513 17.6154 27.9923 17.4324C28.1973 17.3634 28.4023 17.3444 28.5853 17.3684L28.6053 17.0334C28.2753 17.0494 27.9103 17.1914 27.5923 17.4424C27.2733 17.6944 27.0383 18.0294 26.9483 18.3614Z" fill="#FFCA24"/>
<path fill-rule="evenodd" clip-rule="evenodd" d="M14.9326 15.8771C17.6936 20.9041 16.7706 26.9101 12.8216 30.0101C13.0846 31.2501 13.6456 32.3751 14.4276 33.3111C14.4446 30.0921 17.0666 27.4781 20.2896 27.4781C23.5126 27.4781 26.1356 30.0921 26.1526 33.3111C26.9346 32.3751 27.4946 31.2501 27.7586 30.0101C23.8096 26.9101 22.8866 20.9041 25.6466 15.8771C26.4936 14.3371 27.6136 13.0371 28.8946 12.0191L29.3746 3.72806C29.3656 3.68306 29.3496 3.63506 29.3296 3.58406C28.8056 2.28306 25.2826 0.940063 20.2896 0.940063C15.2976 0.940063 11.7736 2.28306 11.2516 3.58106C11.2296 3.63406 11.2146 3.68306 11.2046 3.72806L11.2266 4.11006L11.2346 4.12406L11.2356 4.25006L11.6846 12.0191C12.9666 13.0371 14.0866 14.3371 14.9326 15.8771Z" fill="#FFCA24"/>
<path fill-rule="evenodd" clip-rule="evenodd" d="M10.7007 11.3136L10.6347 10.1606C10.3487 10.3536 9.97172 10.5266 9.49072 10.6316C9.90472 10.8336 10.3077 11.0606 10.7007 11.3136Z" fill="#FFCA24"/>
<path fill-rule="evenodd" clip-rule="evenodd" d="M25.1102 34.3409C25.1772 34.0189 25.2132 33.6839 25.2132 33.3419C25.2132 32.4289 24.9592 31.5759 24.5242 30.8429L24.6502 32.2419C24.6872 32.6559 24.5492 33.0579 24.2612 33.3729C23.9552 33.7089 23.5152 33.9019 23.0522 33.9029L22.1732 33.9039H22.1722C21.9432 33.9039 21.7482 33.7399 21.7092 33.5149C21.6692 33.2889 21.7982 33.0689 22.0142 32.9909C23.2612 32.5439 23.5352 31.4159 23.5562 30.5899L23.4662 29.5869C22.6082 28.8599 21.5002 28.4189 20.2902 28.4189C19.0792 28.4189 17.9712 28.8599 17.1132 29.5869L17.0232 30.5889C17.0442 31.4159 17.3182 32.5439 18.5662 32.9909C18.7812 33.0689 18.9102 33.2889 18.8702 33.5149C18.8312 33.7399 18.6352 33.9039 18.4072 33.9039H18.4062L17.5272 33.9029C17.0642 33.9019 16.6242 33.7089 16.3182 33.3729C16.0292 33.0579 15.8922 32.6559 15.9292 32.2419L16.0552 30.8439C15.6212 31.5769 15.3662 32.4289 15.3662 33.3419C15.3662 33.6839 15.4022 34.0189 15.4692 34.3409C16.7882 35.4159 18.4672 36.0629 20.2902 36.0629C22.1122 36.0629 23.7912 35.4159 25.1102 34.3409Z" fill="#FFCA24"/>
<path fill-rule="evenodd" clip-rule="evenodd" d="M3.18616 10.672C3.18216 10.673 3.17916 10.675 3.17516 10.676L3.13416 10.695H3.11216C2.43016 10.911 1.84116 11.246 1.35116 11.717C1.05316 12.003 0.919161 12.308 0.943161 12.649C1.00716 13.548 2.11716 14.535 2.53916 14.839C3.78416 15.827 5.37816 16.274 6.92816 16.068C8.45216 15.87 9.78916 15.092 10.6952 13.879C10.7432 13.814 10.7902 13.747 10.8372 13.68L10.7692 12.493C8.51916 10.836 5.78116 10.12 3.18616 10.672Z" fill="#FFCA24"/>
<path fill-rule="evenodd" clip-rule="evenodd" d="M28.4245 20.1593C28.1745 20.2393 27.9245 20.2833 27.6835 20.2833C27.1325 20.2833 26.6325 20.0773 26.3065 19.6653C25.9815 19.2533 25.8845 18.6873 26.0405 18.1153C26.1845 17.5843 26.5285 17.0843 27.0095 16.7043C27.5135 16.3053 28.1045 16.0953 28.6595 16.0923L28.8195 13.3203C27.9095 14.1653 27.1075 15.1733 26.4715 16.3293C24.0335 20.7683 24.6835 26.0193 27.9145 28.9253C27.9165 28.9033 27.9205 28.8823 27.9215 28.8593L28.4245 20.1593Z" fill="#FFCA24"/>
<path fill-rule="evenodd" clip-rule="evenodd" d="M14.1078 16.3292C13.4728 15.1732 12.6698 14.1652 11.7598 13.3202L11.9198 16.0912C12.4928 16.0762 13.1098 16.2902 13.6338 16.7052C14.1148 17.0842 14.4588 17.5842 14.6028 18.1152C14.7578 18.6872 14.6608 19.2532 14.3368 19.6652C14.0108 20.0772 13.5098 20.2832 12.9598 20.2832C12.6978 20.2832 12.4248 20.2362 12.1538 20.1422L12.6578 28.8592C12.6588 28.8822 12.6628 28.9032 12.6648 28.9252C15.8958 26.0192 16.5458 20.7682 14.1078 16.3292Z" fill="#FFCA24"/>
<path fill-rule="evenodd" clip-rule="evenodd" d="M13.5976 19.0821C13.7866 18.8421 13.7396 18.5271 13.6946 18.3611C13.6046 18.0291 13.3696 17.6941 13.0516 17.4431C12.7126 17.1751 12.3196 17.0281 11.9736 17.0291L11.9896 17.2981C12.1596 17.2841 12.3436 17.3041 12.5296 17.3661C13.0696 17.5491 13.4046 18.0111 13.2736 18.3951C13.1456 18.7751 12.6096 18.9391 12.0746 18.7661L12.0926 19.0741C12.6626 19.4171 13.3196 19.4341 13.5976 19.0821Z" fill="#FFCA24"/>
<path fill-rule="evenodd" clip-rule="evenodd" d="M10.7397 3.10461L10.7797 4.04361C10.6327 4.04961 10.4637 4.05061 10.2817 4.04661L10.5187 8.15261C10.7077 8.20261 10.8907 8.25661 11.0867 8.30061L10.9357 8.97361L11.4797 9.18761C11.4637 9.22861 11.2587 9.73761 10.6347 10.1606L10.7007 11.3136C11.0387 11.5306 11.3657 11.7656 11.6847 12.0186L11.2357 4.25061L11.2347 4.12461L11.2267 4.11061L11.2047 3.72761C11.2147 3.68261 11.2297 3.63361 11.2517 3.58161C11.7737 2.28361 15.2977 0.94061 20.2897 0.94061C25.2817 0.94061 28.8057 2.28361 29.3297 3.58361C29.3497 3.63461 29.3647 3.68261 29.3747 3.72761L28.8947 12.0186C29.2127 11.7666 29.5407 11.5316 29.8767 11.3146L29.9437 10.1596C29.3207 9.73661 29.1157 9.22861 29.0997 9.18761L29.6437 8.97361L29.4937 8.30061C29.6887 8.25661 29.8707 8.20261 30.0597 8.15361L30.2777 4.37461L30.2867 4.24461H30.2857L30.2977 4.04661C30.1157 4.05061 29.9467 4.04961 29.8007 4.04361L29.8397 3.10461C29.9307 3.10861 30.0317 3.10961 30.1377 3.10961C29.2507 1.27361 25.2507 0.000610352 20.2897 0.000610352C15.3267 0.000610352 11.3247 1.27461 10.4417 3.10961C10.5477 3.10961 10.6487 3.10761 10.7397 3.10461Z" fill="#333333"/>
<path fill-rule="evenodd" clip-rule="evenodd" d="M14.427 33.3107C13.645 32.3747 13.085 31.2497 12.821 30.0097C12.738 30.0757 12.661 30.1467 12.576 30.2087L12.021 29.4497C12.246 29.2857 12.46 29.1097 12.664 28.9247C12.663 28.9037 12.659 28.8817 12.657 28.8597L12.154 20.1427C11.88 20.0477 11.609 19.9057 11.354 19.7137L11.919 18.9607C11.975 19.0037 12.033 19.0397 12.092 19.0747L12.074 18.7657C12.069 18.7637 12.063 18.7637 12.057 18.7617C11.517 18.5797 11.183 18.1177 11.313 17.7327C11.398 17.4797 11.664 17.3257 11.989 17.2977L11.974 17.0297C11.855 17.0297 11.741 17.0457 11.637 17.0827L11.325 16.1957C11.513 16.1287 11.714 16.0957 11.92 16.0907L11.76 13.3207C11.441 13.0247 11.113 12.7467 10.769 12.4937L10.838 13.6797C10.841 13.6747 10.844 13.6707 10.846 13.6667L11.622 14.2007C11.566 14.2827 11.508 14.3627 11.45 14.4407C11.285 14.6617 11.105 14.8647 10.917 15.0597L11.718 28.9147C11.856 31.2917 12.962 33.3937 14.633 34.8617C14.502 34.3747 14.426 33.8687 14.426 33.3417C14.426 33.3317 14.427 33.3217 14.427 33.3107Z" fill="#333333"/>
<path fill-rule="evenodd" clip-rule="evenodd" d="M24.4917 35.8946C24.7797 35.4216 24.9947 34.9006 25.1107 34.3406C23.7907 35.4156 22.1127 36.0626 20.2897 36.0626C18.4677 36.0626 16.7887 35.4156 15.4697 34.3406C15.5847 34.9006 15.8007 35.4216 16.0887 35.8946C17.3337 36.5966 18.7657 37.0036 20.2897 37.0036C21.8137 37.0036 23.2457 36.5966 24.4917 35.8946Z" fill="#333333"/>
<path fill-rule="evenodd" clip-rule="evenodd" d="M29.1298 14.4405C29.0718 14.3625 29.0148 14.2835 28.9578 14.2015L29.7328 13.6665C29.7348 13.6695 29.7378 13.6735 29.7408 13.6775L29.8088 12.4955C29.4658 12.7485 29.1378 13.0255 28.8198 13.3205L28.6598 16.0915C28.8878 16.0915 29.1108 16.1225 29.3178 16.1955L29.0058 17.0835C28.8838 17.0405 28.7478 17.0255 28.6058 17.0335L28.5858 17.3685C28.8868 17.4065 29.1288 17.5595 29.2098 17.7985C29.3358 18.1735 29.0198 18.6205 28.5028 18.8115L28.4848 19.1155C28.5668 19.0705 28.6468 19.0195 28.7248 18.9615L29.2898 19.7135C29.0148 19.9195 28.7198 20.0655 28.4248 20.1595L27.9218 28.8595C27.9208 28.8815 27.9168 28.9035 27.9148 28.9245C28.1198 29.1095 28.3328 29.2855 28.5578 29.4495L28.0038 30.2095C27.9178 30.1465 27.8418 30.0755 27.7588 30.0095C27.4948 31.2505 26.9348 32.3755 26.1518 33.3105C26.1518 33.3215 26.1538 33.3315 26.1538 33.3415C26.1538 33.8685 26.0778 34.3755 25.9468 34.8615C27.6178 33.3935 28.7238 31.2925 28.8608 28.9145L29.6608 15.0585C29.4738 14.8635 29.2938 14.6615 29.1298 14.4405Z" fill="#333333"/>
<path fill-rule="evenodd" clip-rule="evenodd" d="M20.2898 38.2647C18.5098 38.2647 16.9528 37.3127 16.0878 35.8947C15.7998 35.4217 15.5848 34.9007 15.4688 34.3407C15.4018 34.0187 15.3668 33.6837 15.3668 33.3417C15.3668 32.4287 15.6208 31.5777 16.0548 30.8437L16.0788 30.5787C16.0678 30.1407 16.1158 29.7377 16.1878 29.4237C16.2428 29.1827 16.4748 29.0247 16.7198 29.0647C16.9648 29.1027 17.1368 29.3247 17.1148 29.5717L17.1138 29.5867C17.9718 28.8597 19.0798 28.4187 20.2898 28.4187C21.4998 28.4187 22.6078 28.8597 23.4658 29.5867L23.4648 29.5717C23.4428 29.3247 23.6148 29.1027 23.8588 29.0647C24.1028 29.0247 24.3358 29.1827 24.3918 29.4237C24.4638 29.7377 24.5108 30.1407 24.4998 30.5787L24.5238 30.8427C24.9588 31.5767 25.2128 32.4287 25.2128 33.3417C25.2128 33.6837 25.1768 34.0187 25.1098 34.3407C24.9948 34.9007 24.7798 35.4217 24.4918 35.8947C23.6258 37.3127 22.0688 38.2647 20.2898 38.2647ZM26.1518 33.3107C26.1348 30.0917 23.5128 27.4777 20.2898 27.4777C17.0668 27.4777 14.4438 30.0917 14.4268 33.3107C14.4268 33.3217 14.4258 33.3307 14.4258 33.3417C14.4258 33.8687 14.5018 34.3747 14.6328 34.8617C15.3048 37.3597 17.5818 39.2057 20.2898 39.2057C22.9968 39.2057 25.2748 37.3597 25.9468 34.8617C26.0778 34.3747 26.1538 33.8687 26.1538 33.3417C26.1538 33.3307 26.1518 33.3217 26.1518 33.3107Z" fill="#333333"/>
<path fill-rule="evenodd" clip-rule="evenodd" d="M16.3177 33.3731C16.6237 33.7091 17.0647 33.9011 17.5267 33.9021L18.4057 33.9041H18.4067C18.6357 33.9041 18.8317 33.7401 18.8707 33.5151C18.9097 33.2891 18.7817 33.0681 18.5657 32.9911C17.3177 32.5441 17.0437 31.4161 17.0227 30.5891L17.1137 29.5871L17.1147 29.5711C17.1367 29.3241 16.9647 29.1021 16.7197 29.0641C16.4747 29.0241 16.2427 29.1831 16.1877 29.4241C16.1157 29.7371 16.0677 30.1411 16.0787 30.5791L16.0547 30.8441L15.9287 32.2421C15.8917 32.6561 16.0297 33.0581 16.3177 33.3731Z" fill="#333333"/>
<path fill-rule="evenodd" clip-rule="evenodd" d="M22.0139 32.9913C21.7979 33.0683 21.6689 33.2893 21.7089 33.5143C21.7479 33.7403 21.9439 33.9043 22.1719 33.9043H22.1729L23.0529 33.9023C23.5149 33.9013 23.9549 33.7093 24.2609 33.3733C24.5489 33.0573 24.6869 32.6563 24.6499 32.2423L24.5239 30.8433L24.4999 30.5793C24.5109 30.1403 24.4639 29.7373 24.3919 29.4243C24.3359 29.1823 24.1029 29.0243 23.8589 29.0643C23.6149 29.1023 23.4429 29.3243 23.4649 29.5713L23.4659 29.5873L23.5559 30.5903C23.5349 31.4163 23.2609 32.5443 22.0139 32.9913Z" fill="#333333"/>
<path fill-rule="evenodd" clip-rule="evenodd" d="M29.8397 3.1046L29.7997 4.0436C29.9467 4.0496 30.1157 4.0506 30.2977 4.0466C31.8517 4.0156 34.6907 3.5636 38.7147 1.3156C38.7987 1.2686 38.9027 1.2896 38.9627 1.3656C38.9897 1.3996 39.0047 1.4436 39.0047 1.4876C39.0047 1.5096 39.0007 1.5446 38.9787 1.5826C38.2797 2.7816 35.6107 6.6946 30.0597 8.1536C29.8707 8.2026 29.6887 8.2566 29.4937 8.3006L29.6437 8.9736L29.9757 8.8426C29.9817 8.8576 30.0317 8.9646 30.1507 9.1006C36.1527 7.5826 39.0397 3.3456 39.7897 2.0586C39.8917 1.8866 39.9447 1.6886 39.9447 1.4876C39.9447 1.2346 39.8597 0.985601 39.7047 0.787601C39.3577 0.340601 38.7487 0.217601 38.2557 0.494601C34.2627 2.7246 31.5477 3.1096 30.1377 3.1096C30.0317 3.1096 29.9307 3.1086 29.8397 3.1046Z" fill="#333333"/>
<path fill-rule="evenodd" clip-rule="evenodd" d="M0.874789 0.786181C0.719789 0.986181 0.633789 1.23418 0.633789 1.48718C0.633789 1.68818 0.687789 1.88718 0.787789 2.05518C1.53979 3.34618 4.42779 7.58218 10.4288 9.10018C10.5478 8.96518 10.5978 8.85718 10.6038 8.84318L10.9358 8.97418L11.0858 8.30118C10.8908 8.25718 10.7078 8.20218 10.5188 8.15218C4.96879 6.69418 2.29979 2.78118 1.59879 1.57818C1.57879 1.54518 1.57479 1.51018 1.57479 1.48718C1.57479 1.44318 1.58979 1.39918 1.61779 1.36418C1.67679 1.28918 1.78079 1.26918 1.86479 1.31518C5.88879 3.56318 8.72579 4.01518 10.2808 4.04718C10.4638 4.05118 10.6318 4.05018 10.7788 4.04418L10.7398 3.10418C10.6478 3.10718 10.5478 3.10918 10.4408 3.10918C9.03479 3.10518 6.31579 2.72318 2.32479 0.495181C1.83179 0.218181 1.22179 0.341181 0.874789 0.786181Z" fill="#333333"/>
<path fill-rule="evenodd" clip-rule="evenodd" d="M14.3362 19.6651C14.6612 19.2531 14.7582 18.6871 14.6022 18.1151C14.4592 17.5841 14.1142 17.0841 13.6342 16.7051C13.1092 16.2901 12.4932 16.0761 11.9192 16.0911C11.7132 16.0961 11.5132 16.1291 11.3252 16.1951L11.6372 17.0831C11.7412 17.0461 11.8552 17.0291 11.9742 17.0291C12.3192 17.0281 12.7122 17.1751 13.0512 17.4431C13.3702 17.6941 13.6042 18.0291 13.6942 18.3611C13.7392 18.5271 13.7872 18.8421 13.5972 19.0821C13.3192 19.4341 12.6622 19.4171 12.0922 19.0741C12.0332 19.0391 11.9752 19.0041 11.9192 18.9611L11.3542 19.7141C11.6082 19.9051 11.8802 20.0481 12.1542 20.1431C12.4242 20.2361 12.6972 20.2831 12.9602 20.2831C13.5102 20.2831 14.0112 20.0771 14.3362 19.6651Z" fill="#333333"/>
<path fill-rule="evenodd" clip-rule="evenodd" d="M26.0401 18.1153C25.8841 18.6873 25.9811 19.2533 26.3071 19.6653C26.6321 20.0773 27.1331 20.2833 27.6831 20.2833C27.9241 20.2833 28.1751 20.2393 28.4241 20.1593C28.7201 20.0653 29.0141 19.9203 29.2891 19.7143L28.7241 18.9613C28.6461 19.0193 28.5661 19.0703 28.4841 19.1153C27.9311 19.4213 27.3121 19.4203 27.0451 19.0823C26.8551 18.8423 26.9031 18.5273 26.9481 18.3613C27.0391 18.0293 27.2731 17.6943 27.5921 17.4423C27.9101 17.1913 28.2751 17.0493 28.6051 17.0333C28.7481 17.0253 28.8841 17.0403 29.0051 17.0833L29.3181 16.1953C29.1101 16.1223 28.8881 16.0923 28.6591 16.0923C28.1041 16.0943 27.5141 16.3043 27.0091 16.7043C26.5281 17.0843 26.1841 17.5843 26.0401 18.1153Z" fill="#333333"/>
<path fill-rule="evenodd" clip-rule="evenodd" d="M3.18066 10.673L3.17566 10.676C3.17866 10.675 3.18166 10.673 3.18566 10.672C3.18366 10.673 3.18166 10.673 3.18066 10.673Z" fill="#333333"/>
<path fill-rule="evenodd" clip-rule="evenodd" d="M9.4907 10.6319C9.9727 10.5269 10.3497 10.3539 10.6347 10.1599C11.2587 9.7369 11.4637 9.2289 11.4797 9.1879L10.9357 8.9739L10.6037 8.8429C10.5977 8.8579 10.5477 8.9649 10.4287 9.1009C10.1187 9.4559 9.3207 10.0179 7.4837 9.7039C7.0647 9.6329 6.6797 9.5789 6.3087 9.5379C5.0487 9.4019 3.9367 9.4789 2.9707 9.7579C5.1597 9.2869 7.4357 9.6349 9.4907 10.6319Z" fill="#333333"/>
<mask id="mask0" mask-type="alpha" maskUnits="userSpaceOnUse" x="0" y="9" width="12" height="9">
<path fill-rule="evenodd" clip-rule="evenodd" d="M0 9.80347H11.622V17.0565H0V9.80347Z" fill="white"/>
</mask>
<g mask="url(#mask0)">
<path fill-rule="evenodd" clip-rule="evenodd" d="M11.4501 14.4405C11.5081 14.3625 11.5661 14.2825 11.6221 14.2005L10.8461 13.6675C10.8441 13.6705 10.8411 13.6745 10.8381 13.6795C10.7911 13.7475 10.7431 13.8135 10.6961 13.8785C9.78912 15.0915 8.45212 15.8705 6.92912 16.0675C5.37812 16.2735 3.78412 15.8275 2.53912 14.8385C2.11712 14.5355 1.00712 13.5475 0.944124 12.6485C0.920124 12.3075 1.05312 12.0025 1.35112 11.7165C1.84212 11.2465 2.43012 10.9115 3.11212 10.6955L3.01512 10.6995V10.2285L2.83112 9.80347C2.00812 10.0635 1.29212 10.4695 0.700124 11.0375C0.201124 11.5155 -0.0388756 12.0965 0.00512436 12.7165C0.114124 14.2425 1.91412 15.5485 1.97212 15.5895C3.17112 16.5415 4.67112 17.0565 6.19012 17.0565C6.47612 17.0565 6.76412 17.0385 7.05012 17.0015C8.55212 16.8055 9.89612 16.1225 10.9171 15.0595C11.1051 14.8645 11.2851 14.6615 11.4501 14.4405Z" fill="#333333"/>
</g>
<path fill-rule="evenodd" clip-rule="evenodd" d="M3.01561 10.6993L3.11261 10.6953H3.13461L3.17561 10.6763L3.18161 10.6733C3.18261 10.6733 3.18461 10.6733 3.18661 10.6723C5.78161 10.1203 8.51861 10.8363 10.7696 12.4933C11.1126 12.7463 11.4416 13.0243 11.7596 13.3203C12.6696 14.1653 13.4726 15.1733 14.1076 16.3293C16.5456 20.7683 15.8956 26.0193 12.6646 28.9253C12.4596 29.1093 12.2466 29.2853 12.0216 29.4493L12.5766 30.2093C12.6616 30.1463 12.7376 30.0753 12.8216 30.0103C16.7706 26.9103 17.6936 20.9043 14.9326 15.8773C14.0866 14.3373 12.9666 13.0373 11.6846 12.0183C11.3666 11.7653 11.0386 11.5303 10.7016 11.3133C10.3076 11.0603 9.90461 10.8333 9.49061 10.6323C7.43561 9.63529 5.16061 9.28729 2.97161 9.75829C2.95661 9.76129 2.94261 9.76229 2.92861 9.76529L2.82861 9.79929L2.83061 9.80329L3.01561 10.2283V10.6993Z" fill="#333333"/>
<mask id="mask1" mask-type="alpha" maskUnits="userSpaceOnUse" x="28" y="9" width="13" height="9">
<path fill-rule="evenodd" clip-rule="evenodd" d="M28.9575 9.80835H40.5788V17.0563H28.9575V9.80835Z" fill="white"/>
</mask>
<g mask="url(#mask1)">
<path fill-rule="evenodd" clip-rule="evenodd" d="M37.5635 10.6993L37.4515 10.6723L37.4495 10.6833C37.4345 10.6803 37.4195 10.6793 37.4055 10.6773C38.1145 10.8903 38.7225 11.2323 39.2275 11.7173C39.5255 12.0033 39.6595 12.3073 39.6355 12.6483C39.5725 13.5483 38.4615 14.5353 38.0215 14.8523C36.7955 15.8263 35.2015 16.2693 33.6505 16.0673C32.1265 15.8703 30.7895 15.0933 29.8845 13.8793C29.8355 13.8133 29.7875 13.7473 29.7405 13.6783C29.7375 13.6743 29.7345 13.6703 29.7315 13.6663L28.9575 14.2013C29.0145 14.2833 29.0715 14.3623 29.1295 14.4403C29.2935 14.6613 29.4735 14.8633 29.6605 15.0583C30.6815 16.1213 32.0265 16.8053 33.5285 17.0013C33.8155 17.0383 34.1035 17.0563 34.3905 17.0563C35.9085 17.0563 37.4065 16.5433 38.5885 15.6033C38.6655 15.5493 40.4645 14.2423 40.5735 12.7173C40.6185 12.0963 40.3775 11.5153 39.8785 11.0373C39.2905 10.4723 38.5775 10.0673 37.7585 9.80835L37.5635 10.1983V10.6993Z" fill="#333333"/>
</g>
<path fill-rule="evenodd" clip-rule="evenodd" d="M29.9751 8.8429L29.6431 8.9739L29.0991 9.1879C29.1151 9.2289 29.3201 9.7369 29.9431 10.1589C30.2281 10.3539 30.6061 10.5269 31.0891 10.6319C33.1421 9.6359 35.4161 9.2879 37.6021 9.7569C36.6381 9.4799 35.5281 9.4029 34.2701 9.5379C33.8991 9.5789 33.5151 9.6329 33.0951 9.7039C31.2591 10.0169 30.4611 9.4559 30.1501 9.1009C30.0311 8.9649 29.9811 8.8579 29.9751 8.8429Z" fill="#333333"/>
<path fill-rule="evenodd" clip-rule="evenodd" d="M31.0897 10.6319C30.6747 10.8329 30.2707 11.0619 29.8767 11.3149C29.5407 11.5309 29.2127 11.7669 28.8947 12.0189C27.6137 13.0369 26.4927 14.3369 25.6467 15.8769C22.8857 20.9039 23.8097 26.9099 27.7587 30.0099C27.8417 30.0749 27.9177 30.1469 28.0037 30.2089L28.5577 29.4489C28.3327 29.2849 28.1197 29.1099 27.9147 28.9249C24.6837 26.0199 24.0337 20.7689 26.4717 16.3289C27.1077 15.1729 27.9097 14.1649 28.8197 13.3199C29.1377 13.0259 29.4657 12.7479 29.8087 12.4949C32.0637 10.8349 34.8067 10.1189 37.4057 10.6769C37.4207 10.6799 37.4347 10.6809 37.4497 10.6839L37.4517 10.6719L37.5637 10.6989V10.1979L37.7587 9.80889L37.7607 9.80389L37.6517 9.76589C37.6357 9.76189 37.6187 9.76089 37.6027 9.75689C35.4167 9.28789 33.1427 9.63589 31.0897 10.6319Z" fill="#333333"/>
<path fill-rule="evenodd" clip-rule="evenodd" d="M28.1975 18.0392C28.1275 18.0632 28.0835 18.1232 28.1005 18.1742C28.1175 18.2242 28.1885 18.2452 28.2595 18.2222C28.3295 18.1972 28.3735 18.1382 28.3565 18.0872C28.3395 18.0372 28.2685 18.0162 28.1975 18.0392Z" fill="#333333"/>
<path fill-rule="evenodd" clip-rule="evenodd" d="M28.2588 18.2218C28.1888 18.2448 28.1168 18.2238 28.0998 18.1738C28.0838 18.1228 28.1268 18.0638 28.1968 18.0388C28.2678 18.0158 28.3398 18.0368 28.3558 18.0868C28.3728 18.1378 28.3298 18.1978 28.2588 18.2218ZM27.9928 17.4328C27.4518 17.6158 27.1178 18.0768 27.2478 18.4618C27.3778 18.8468 27.9238 19.0108 28.4638 18.8278C28.4778 18.8238 28.4888 18.8178 28.5018 18.8118C29.0188 18.6198 29.3358 18.1738 29.2088 17.7988C29.1278 17.5598 28.8858 17.4068 28.5858 17.3678C28.4028 17.3448 28.1968 17.3638 27.9928 17.4328Z" fill="#333333"/>
<path fill-rule="evenodd" clip-rule="evenodd" d="M12.3239 17.9729C12.2539 17.9499 12.1819 17.9699 12.1649 18.0209C12.1479 18.0709 12.1919 18.1309 12.2619 18.1549C12.3329 18.1789 12.4039 18.1579 12.4209 18.1069C12.4379 18.0569 12.3949 17.9969 12.3239 17.9729Z" fill="#333333"/>
<path fill-rule="evenodd" clip-rule="evenodd" d="M12.2627 18.1544C12.1927 18.1314 12.1487 18.0704 12.1657 18.0204C12.1827 17.9694 12.2537 17.9494 12.3247 17.9724C12.3947 17.9974 12.4387 18.0564 12.4217 18.1064C12.4047 18.1574 12.3337 18.1784 12.2627 18.1544ZM13.2737 18.3954C13.4047 18.0104 13.0697 17.5494 12.5297 17.3664C12.3437 17.3034 12.1587 17.2844 11.9897 17.2984C11.6647 17.3254 11.3987 17.4794 11.3127 17.7324C11.1827 18.1174 11.5167 18.5794 12.0577 18.7614C12.0637 18.7634 12.0687 18.7634 12.0747 18.7654C12.6097 18.9394 13.1457 18.7754 13.2737 18.3954Z" fill="#333333"/>
</svg>