<?xml version="1.0" encoding="utf-8"?>
<!-- Generator: Adobe Illustrator 25.0.0, SVG Export Plug-In . SVG Version: 6.00 Build 0)  -->
<svg version="1.1" id="Layer_1" xmlns="http://www.w3.org/2000/svg" xmlns:xlink="http://www.w3.org/1999/xlink" x="0px" y="0px"
	 viewBox="0 0 122.4 24.8" style="enable-background:new 0 0 122.4 24.8;" xml:space="preserve">
<style type="text/css">
	.st0{fill:#F57F17;}
	.st1{fill:#EEEEEE;}
	.st2{fill:#424242;}
	.st3{fill:#212121;}
	.st4{fill:#44C102;}
</style>
<g>
	<g>
		<g>
			<path class="st0" d="M22.2,12.5c0,5.5-4.4,9.9-9.9,9.9S2.4,18,2.4,12.5s4.4-9.9,9.9-9.9S22.2,7,22.2,12.5z"/>
			<path class="st1" d="M20.7,12.5c0,4.7-3.7,8.4-8.4,8.4s-8.4-3.7-8.4-8.4s3.7-8.4,8.4-8.4S20.7,7.8,20.7,12.5z"/>
			<path d="M19.2,17.3c1-1.4,1.6-3,1.6-4.9C20.8,7.8,17,4,12.4,4C7.7,4,4,7.8,4,12.4c0,3.5,2.1,6.4,5.1,7.7l0,0l0,0
				c1,0.4,2.2,0.7,3.4,0.7C15.1,20.9,17.6,19.5,19.2,17.3L19.2,17.3L19.2,17.3z M9,17.3l-1.3,2c-0.1-0.1-0.2-0.1-0.3-0.2l1.3-2
				C8.8,17.2,8.9,17.2,9,17.3z M9.2,17.4c0.2,0.1,0.3,0.2,0.5,0.3l-1.6,1.9c-0.1,0-0.1-0.1-0.2-0.1L9.2,17.4z M11.5,18.3v2.4
				c-0.8-0.1-1.5-0.3-2.2-0.6l0.7-2.3C10.4,18,10.9,18.2,11.5,18.3z M11.6,18.3c0.2,0,0.3,0,0.6,0l-0.4,2.4c-0.1,0-0.1,0-0.2,0V18.3
				L11.6,18.3z M15.1,17.6l0.7,2.3c-0.8,0.4-1.8,0.7-2.7,0.8l-0.6-2.3C13.4,18.3,14.3,18,15.1,17.6z M15.4,17.9l1.3,1.4
				c-0.3,0.2-0.5,0.3-0.8,0.4L15.4,17.9z M12.3,18.1c-3.1,0-5.6-2.5-5.6-5.6c0-3.1,2.5-5.6,5.6-5.6c3.1,0,5.6,2.5,5.6,5.6
				S15.3,18.1,12.3,18.1z M4.1,12.5c0-0.2,0-0.4,0-0.6l0.8,0.4L4,12.8C4.1,12.6,4.1,12.6,4.1,12.5z M6.1,9.1l0.8,1.1
				c-0.2,0.4-0.3,0.9-0.4,1.4l-1.3,0.5l-1.1-0.5c0.1-0.9,0.3-1.9,0.8-2.7L6.1,9.1z M5,8.8c0.1-0.3,0.3-0.4,0.4-0.7L6,8.9L5,8.8z
				 M7.1,10L6.5,9.1l1,0.1C7.3,9.5,7.1,9.7,7.1,10z M6.5,13.2H4.2c0-0.1,0-0.2,0-0.3l1.2-0.5l1.1,0.5C6.5,13,6.5,13.1,6.5,13.2z
				 M6.5,12.7l-0.9-0.3l0.9-0.4c0,0.2,0,0.4,0,0.6C6.5,12.6,6.5,12.6,6.5,12.7z M6.5,13.4c0.1,0.3,0.1,0.6,0.2,0.8l-2,1.2
				c-0.3-0.7-0.4-1.4-0.5-2.1L6.5,13.4L6.5,13.4z M6.8,14.4c0,0.1,0.1,0.2,0.1,0.3l-2,1.2c-0.1-0.1-0.1-0.2-0.2-0.3L6.8,14.4z M7,15
				c0.1,0.1,0.1,0.2,0.2,0.3l-2,1.2C5,16.3,5,16.2,4.9,16.1L7,15z M7.2,15.5c0.1,0.2,0.2,0.3,0.3,0.5l-2.3,0.8
				c0-0.1-0.1-0.1-0.1-0.2L7.2,15.5z M7.3,16.2L6,17.6c-0.2-0.3-0.3-0.4-0.5-0.7L7.3,16.2z M8.6,5.2c0.1,0,0.2-0.1,0.3-0.1l1.2,2
				c-0.1,0-0.2,0.1-0.3,0.1l-1-0.8L8.6,5.2z M8.5,6.2L7.7,5.7C8,5.6,8.2,5.4,8.4,5.3L8.5,6.2z M13.4,6.7V4.4c1,0.2,2,0.5,2.9,1
				l-1.2,2C14.6,7.1,14,6.9,13.4,6.7z M13.2,6.7c-0.1,0-0.2,0-0.3,0V4.3c0.1,0,0.3,0,0.3,0V6.7z M12.6,6.7c-0.1,0-0.1,0-0.2,0
				L12,5.5l0.5-1.2c0.1,0,0.1,0,0.2,0V6.7z M12.2,6.7c-0.3,0-0.6,0-0.8,0.1l0.4-0.9L12.2,6.7z M11.9,5.2l-0.3-0.8c0.3,0,0.5,0,0.8,0
				L11.9,5.2z M11.7,5.5l-0.6,1.3c-0.3,0.1-0.7,0.2-0.9,0.3L9,5c0.8-0.3,1.4-0.5,2.2-0.6L11.7,5.5z M9.6,7.3
				C9.3,7.4,9.1,7.6,8.9,7.8l-0.2-1L9.6,7.3z M17.5,15l2,1.2c0,0.1-0.1,0.1-0.1,0.2l-2.3-0.8C17.4,15.4,17.5,15.2,17.5,15z
				 M17.6,14.8c0.3-0.5,0.3-1,0.4-1.6h2.4c-0.1,1-0.3,1.9-0.8,2.8L17.6,14.8z M18.1,12.9c0-0.1,0-0.2,0-0.3h2.4c0,0.1,0,0.3,0,0.3
				H18.1z M18.1,12.4c0-0.1,0-0.3,0-0.3h2.4c0,0.1,0,0.3,0,0.3H18.1z M18.1,11.9c-0.1-0.7-0.3-1.3-0.5-1.9l2-1.3
				c0.5,0.9,0.8,2,0.8,3.1H18.1L18.1,11.9z M17.5,9.8c0-0.1-0.1-0.2-0.2-0.3l1.9-1.3c0.1,0.1,0.1,0.2,0.2,0.3L17.5,9.8z M19.4,16.5
				c-0.2,0.3-0.3,0.5-0.4,0.7l-1.4-1.4L19.4,16.5z M19.2,8.1l-1.9,1.3c-0.5-0.8-1.1-1.4-1.9-1.9l1.1-2C17.6,6.2,18.5,7,19.2,8.1z
				 M7.6,5.8l1,0.8l0.2,1.4C8.2,8.3,7.9,8.6,7.6,9L6.3,8.9l-0.8-1C6,7.1,6.7,6.4,7.6,5.8z M6.1,17.8l1.6-1.7C8,16.5,8.2,16.7,8.6,17
				l-1.3,2C6.9,18.6,6.5,18.3,6.1,17.8z M8.2,19.6l1.4-1.4L9,20C8.7,19.9,8.5,19.7,8.2,19.6z M12,20.6l0.3-1.9l0.5,1.9
				c-0.2,0-0.4,0-0.6,0C12.2,20.7,12.1,20.6,12,20.6z M16.9,19.3l-1.6-1.8c0.7-0.4,1.4-1,1.8-1.7l1.7,1.6
				C18.3,18.1,17.6,18.8,16.9,19.3z"/>
			<path class="st2" d="M17,9.2l-0.6,0.3l-0.7,0.1l-3.9,2.8l-2.5,1.1l0,0l-0.4,0.7l-0.5,0.4l0.1,0.1l0.7-0.2h0.7l2.4-1.4l0,0l0,0
				l4.1-2.6l0,0l0.3-0.6L17,9.2L17,9.2z"/>
			<path class="st3" d="M12.9,12.5c0,0.3-0.3,0.7-0.7,0.7c-0.3,0-0.7-0.3-0.7-0.7c0-0.3,0.3-0.7,0.7-0.7
				C12.6,11.8,12.9,12.2,12.9,12.5z"/>
		</g>
	</g>
	<g>
		<path class="st0" d="M32.8,10.5c-0.1-0.1-0.3-0.2-0.6-0.3c-0.3-0.1-0.5-0.1-0.6-0.1c-0.3,0-0.6,0.1-0.8,0.2
			c-0.2,0.1-0.3,0.4-0.3,0.7c0,0.2,0.1,0.4,0.2,0.6c0.1,0.2,0.4,0.4,0.7,0.6c0.3,0.2,0.5,0.4,0.6,0.5c0.2,0.2,0.3,0.3,0.5,0.6
			c0.1,0.2,0.3,0.5,0.4,0.8c0.1,0.3,0.1,0.7,0.1,1.1c0,0.8-0.1,1.4-0.3,1.9s-0.5,0.9-0.9,1.1c-0.4,0.3-0.8,0.4-1.3,0.5
			s-1,0.2-1.6,0.2c-0.2,0-0.5,0-0.9-0.1c-0.2,0-0.4,0-0.4,0l-0.1-3c0.3,0.1,0.6,0.1,0.8,0.2c0.2,0,0.4,0.1,0.6,0.1
			c0.3,0,0.5-0.1,0.6-0.2s0.2-0.3,0.2-0.6c0-0.2-0.1-0.4-0.2-0.6c-0.1-0.2-0.3-0.4-0.6-0.7c-0.2-0.2-0.4-0.4-0.6-0.6
			S28,13,27.9,12.8c-0.1-0.2-0.3-0.5-0.3-0.8c-0.1-0.3-0.1-0.6-0.1-1c0-0.2,0-0.5,0.1-0.9S27.8,9.4,28,9c0.2-0.4,0.6-0.7,1-1
			c0.5-0.3,1.1-0.4,1.8-0.4c0.3,0,0.7,0,1.1,0.1c0.4,0,0.7,0.1,1,0.2v2.6H32.8z"/>
		<path class="st0" d="M37.1,7.7h3.2l3.6,10.8h-3.1l-0.4-1.2h-3.7l-0.4,1.2h-3L37.1,7.7z M38.6,11.6L38.6,11.6l-1,3h2L38.6,11.6z"/>
		<path class="st0" d="M55.3,13.1c0,0.8-0.1,1.5-0.4,2.2s-0.7,1.3-1.2,1.8s-1.1,0.9-1.8,1.2c-0.7,0.3-1.4,0.4-2.1,0.4
			c-0.7,0-1.5-0.1-2.1-0.4s-1.3-0.7-1.8-1.2S45,16,44.7,15.3s-0.4-1.4-0.4-2.2s0.1-1.5,0.4-2.2c0.3-0.7,0.7-1.3,1.2-1.8
			s1.1-0.9,1.8-1.2s1.4-0.4,2.1-0.4c0.7,0,1.4,0.1,2.1,0.4c0.7,0.3,1.3,0.7,1.8,1.2s0.9,1.1,1.2,1.8S55.3,12.3,55.3,13.1z
			 M52.4,13.1c0-0.4-0.1-0.7-0.2-1c-0.1-0.3-0.3-0.6-0.6-0.9c-0.3-0.3-0.5-0.5-0.9-0.6c-0.3-0.1-0.7-0.2-1-0.2c-0.4,0-0.7,0.1-1,0.2
			c-0.3,0.1-0.6,0.3-0.9,0.6s-0.4,0.5-0.5,0.8s-0.2,0.7-0.2,1.1c0,0.4,0.1,0.7,0.2,1.1s0.3,0.6,0.6,0.9s0.5,0.5,0.9,0.6
			c0.3,0.1,0.7,0.2,1,0.2c0.4,0,0.7-0.1,1-0.2c0.3-0.1,0.6-0.4,0.9-0.6c0.3-0.3,0.4-0.6,0.6-0.9C52.4,13.8,52.4,13.4,52.4,13.1z"/>
		<path class="st0" d="M55.9,7.7h6.7l0.3,2.7h-2.2v8.1h-2.8v-8.1h-2.2L55.9,7.7z"/>
		<path class="st0" d="M70.9,9.8V15c0,1.3-0.3,2.2-0.9,2.8c-0.6,0.6-1.6,1-2.8,1c-1.2,0-2.1-0.3-2.8-1c-0.6-0.6-0.9-1.6-0.9-2.8V7.7
			h2.8v6.9c0,0.4,0.1,0.7,0.2,1s0.4,0.3,0.7,0.3c0.3,0,0.5-0.1,0.7-0.3s0.2-0.6,0.2-1V7.7h2.7l0.1-0.4h1.2l-0.8,2.5H70.9z M67.8,6.9
			V6.6c0-0.1,0.1-0.2,0.2-0.2c0,0,0,0,0.1-0.1l0.1-0.1c0,0,0,0,0.1-0.1s0,0,0-0.1c0,0,0.1,0,0.1-0.1c0.1-0.1,0.1-0.1,0.1-0.1
			c0.1-0.1,0.1-0.2,0.2-0.3s0.1-0.2,0.1-0.3V5c0-0.4-0.2-0.7-0.5-0.9C68.2,4,68,3.9,67.9,3.8c-0.2-0.1-0.4-0.1-0.6-0.1
			c-0.3,0-0.6,0.1-0.9,0.2c-0.3,0.1-0.5,0.4-0.8,0.7l0.9,0.9c0.1-0.2,0.1-0.3,0.2-0.3c0-0.1,0.1-0.1,0.1-0.2c0,0,0.1,0,0.1-0.1
			s0.1,0,0.1-0.1h0.1l0,0c0.1,0,0.1,0,0.2,0s0.1,0.1,0.1,0.2l0,0l0,0l0,0l0,0c0,0.1,0,0.1,0,0.1l0,0c0,0-0.1,0.1-0.2,0.2
			S67.1,5.4,67,5.5c0,0,0,0-0.1,0.1l-0.1,0.1c0,0,0,0.1-0.1,0.1l0,0c-0.1,0.1-0.2,0.2-0.3,0.3c-0.1,0.1-0.1,0.3-0.1,0.4V7L67.8,6.9
			L67.8,6.9z"/>
		<path class="st0" d="M71.4,7.7h2.9l1.6,6.4l0,0l1.7-6.4h2.9l-2.8,10.8H74L71.4,7.7z"/>
		<path class="st0" d="M81.3,7.7h2.8v10.8h-2.8V7.7z"/>
		<path class="st4" d="M85.5,15.8h2.6v2.7h-2.6V15.8z"/>
		<path class="st4" d="M96,18.6c-0.5,0.1-1,0.2-1.5,0.2c-0.8,0-1.6-0.1-2.2-0.4c-0.7-0.3-1.2-0.7-1.7-1.2s-0.8-1.1-1.1-1.8
			c-0.2-0.7-0.4-1.5-0.4-2.3c0-0.7,0.1-1.5,0.4-2.1c0.3-0.7,0.6-1.3,1.1-1.8s1.1-0.9,1.7-1.2c0.7-0.3,1.4-0.4,2.1-0.4
			c0.3,0,0.6,0,0.8,0s0.4,0.1,0.6,0.1L96,11c-0.1-0.1-0.3-0.2-0.6-0.3c-0.3-0.1-0.5-0.1-0.8-0.1c-0.7,0-1.3,0.2-1.8,0.7
			s-0.7,1.1-0.7,1.8c0,0.5,0.1,0.9,0.2,1.2s0.3,0.6,0.6,0.9c0.2,0.2,0.5,0.4,0.8,0.5s0.6,0.2,1,0.2c0.3,0,0.5,0,0.8-0.1
			s0.5-0.2,0.7-0.3L96,18.6z"/>
		<path class="st4" d="M108.1,13.1c0,0.8-0.1,1.5-0.4,2.2s-0.7,1.3-1.2,1.8s-1.1,0.9-1.8,1.2s-1.4,0.4-2.1,0.4s-1.5-0.1-2.1-0.4
			c-0.7-0.3-1.3-0.7-1.8-1.2s-0.9-1.1-1.2-1.8s-0.4-1.4-0.4-2.2s0.1-1.5,0.4-2.2s0.7-1.3,1.2-1.8s1.1-0.9,1.8-1.2
			c0.7-0.3,1.4-0.4,2.1-0.4s1.4,0.1,2.1,0.4s1.3,0.7,1.8,1.2s0.9,1.1,1.2,1.8C107.9,11.6,108.1,12.3,108.1,13.1z M105.2,13.1
			c0-0.4-0.1-0.7-0.2-1s-0.3-0.6-0.6-0.9c-0.3-0.3-0.5-0.5-0.9-0.6c-0.3-0.1-0.7-0.2-1-0.2c-0.4,0-0.7,0.1-1,0.2
			c-0.3,0.1-0.6,0.3-0.9,0.6c-0.2,0.3-0.4,0.6-0.6,0.9c-0.1,0.3-0.2,0.7-0.2,1.1c0,0.4,0.1,0.7,0.2,1.1c0.1,0.3,0.3,0.6,0.6,0.9
			c0.2,0.3,0.5,0.5,0.9,0.6s0.7,0.2,1,0.2c0.4,0,0.7-0.1,1-0.2c0.3-0.1,0.6-0.4,0.9-0.6c0.2-0.3,0.4-0.6,0.6-0.9
			C105.1,13.8,105.2,13.4,105.2,13.1z"/>
		<path class="st4" d="M110,7.7h2.3l1.9,4.2l2-4.2h2.3l1.5,10.8h-2.9l-0.6-4.5l0,0l-2.2,4.5l-2.2-4.5l0,0l-0.6,4.5h-2.9L110,7.7z"/>
	</g>
</g>
</svg>
