<svg width="40" height="40" viewBox="0 0 40 40" fill="none" xmlns="http://www.w3.org/2000/svg">
<path fill-rule="evenodd" clip-rule="evenodd" d="M24.3629 23.1683C24.3709 22.8173 24.8239 22.5423 25.3729 22.5533C25.6079 22.5573 25.8199 22.6153 25.9879 22.7063L25.9939 22.6433C25.9699 22.6313 25.9479 22.6173 25.9259 22.6023C25.5749 22.3543 25.1869 22.2283 24.8519 22.2283C24.5549 22.2283 24.3009 22.3263 24.1519 22.5273C23.8249 22.9653 24.1079 23.7513 24.7689 24.2443C24.9619 24.3893 25.1749 24.4993 25.3849 24.5653C25.5219 24.6083 25.6309 24.5583 25.6829 24.5223C25.7829 24.4563 25.8459 24.3503 25.8569 24.2303L25.9009 23.7243C25.7399 23.7893 25.5479 23.8253 25.3419 23.8213C24.7939 23.8113 24.3549 23.5183 24.3629 23.1683Z" fill="#26C7DB"/>
<path fill-rule="evenodd" clip-rule="evenodd" d="M14.9554 23.1683C14.9634 23.5183 14.5244 23.8113 13.9764 23.8213C13.7394 23.8263 13.5234 23.7743 13.3504 23.6893L13.3934 24.1893C13.4034 24.3123 13.4704 24.4193 13.5754 24.4823C13.6784 24.5453 13.8004 24.5563 13.9104 24.5093C14.0704 24.4443 14.2264 24.3553 14.3754 24.2443C15.0374 23.7513 15.3204 22.9653 14.9944 22.5263C14.6814 22.1073 13.9064 22.1333 13.2534 22.5783L13.2684 22.7403C13.4434 22.6293 13.6814 22.5583 13.9454 22.5533C14.4944 22.5423 14.9474 22.8173 14.9554 23.1683Z" fill="#26C7DB"/>
<path fill-rule="evenodd" clip-rule="evenodd" d="M34.9423 11.5433C35.0003 10.7403 34.8813 9.49727 34.4353 9.18627C34.3763 9.14427 34.1973 9.02027 33.7243 9.23227C33.1083 9.50827 32.5143 9.94427 31.9573 10.5273C30.1253 12.7473 29.1903 15.6083 29.1753 19.0323C29.2923 19.3893 29.3733 19.7773 29.4353 20.1823C32.2243 19.0423 34.8443 14.5523 34.9423 11.5433Z" fill="#26C7DB"/>
<path fill-rule="evenodd" clip-rule="evenodd" d="M24.9245 17.3704C25.1745 17.4434 25.3175 17.7044 25.2445 17.9544C25.1715 18.2034 24.9095 18.3474 24.6605 18.2734C22.0655 17.5154 17.1585 17.5164 14.5635 18.2734C14.5195 18.2864 14.4755 18.2924 14.4315 18.2924C14.2275 18.2924 14.0405 18.1594 13.9805 17.9544C13.9075 17.7044 14.0505 17.4434 14.2995 17.3704C17.0305 16.5724 22.1945 16.5734 24.9245 17.3704ZM22.8415 33.0344C22.7735 33.2534 22.5605 33.3924 22.3315 33.3624C21.2285 33.2224 20.5915 33.9614 20.2575 34.5764L19.9285 35.3934C19.8555 35.5774 19.6795 35.6894 19.4925 35.6894C19.4875 35.6894 19.4825 35.6874 19.4765 35.6874C19.4715 35.6874 19.4665 35.6894 19.4615 35.6894C19.2745 35.6894 19.0985 35.5774 19.0255 35.3934L18.6965 34.5764C18.3625 33.9624 17.7245 33.2194 16.6225 33.3624C16.3945 33.3914 16.1805 33.2534 16.1125 33.0344C16.0455 32.8154 16.1455 32.5794 16.3495 32.4764L17.0295 32.1314C17.4035 31.9414 17.8375 31.9174 18.2225 32.0614C18.5865 32.1974 18.8635 32.4664 19.0045 32.8164L19.4765 33.9944L19.9495 32.8164C20.0905 32.4664 20.3675 32.1974 20.7315 32.0614C21.1165 31.9174 21.5505 31.9414 21.9235 32.1314L22.6045 32.4764C22.8085 32.5794 22.9085 32.8154 22.8415 33.0344ZM21.7175 36.7674C21.1315 37.2224 20.3045 37.4494 19.4765 37.4494C18.6495 37.4494 17.8225 37.2224 17.2355 36.7674C17.0305 36.6084 16.9925 36.3124 17.1525 36.1074C17.3115 35.9014 17.6065 35.8644 17.8125 36.0234C18.6525 36.6754 20.3015 36.6754 21.1415 36.0234C21.3465 35.8644 21.6425 35.9014 21.8015 36.1074C21.9605 36.3124 21.9235 36.6084 21.7175 36.7674ZM21.4765 15.4884H17.7845C17.5965 15.4884 17.4385 15.3774 17.3625 15.2194L17.3415 15.2224C16.9885 12.9944 12.5195 0.94043 1.2505 0.94043C1.2085 0.94043 1.1675 0.94043 1.1245 0.94143C1.1075 0.94143 1.0555 0.94143 1.0025 1.01343C0.945502 1.09143 0.926502 1.19943 0.953502 1.29043C0.969502 1.34443 1.0005 1.39043 1.0415 1.42343C1.0875 1.46043 1.1395 1.48043 1.1995 1.48643C3.8615 1.72543 11.1215 4.81843 12.6995 16.1054L12.6945 16.1064L12.7885 17.1914V17.1964L13.1655 21.5504C14.1435 21.0944 15.2075 21.2404 15.7495 21.9644C16.4015 22.8414 16.0455 24.1744 14.9385 24.9984C14.7245 25.1574 14.4985 25.2864 14.2675 25.3804C14.1055 25.4464 13.9365 25.4794 13.7685 25.4794C13.5325 25.4794 13.2975 25.4154 13.0865 25.2864C12.7215 25.0644 12.4925 24.6934 12.4555 24.2684L11.8755 17.5614C11.6115 17.4114 11.2915 17.1244 10.9195 16.6114C11.0445 17.4084 11.1015 18.1574 11.1155 18.8214V18.8334C11.1155 18.9004 11.1015 18.9654 11.0755 19.0224C10.8685 19.5334 10.7285 20.1624 10.6725 20.8424C10.6245 21.4104 10.6335 22.0054 10.6985 22.6094C10.8225 23.7454 11.1415 24.8244 11.5975 25.6454C13.1085 28.3694 13.9985 31.1734 14.2425 33.9794L14.2535 34.1034C14.4965 36.9104 16.8055 39.0284 19.6225 39.0314C22.3985 39.0314 24.7635 36.8124 25.0095 33.9794C25.2525 31.1774 26.1415 28.3724 27.6545 25.6454C28.1105 24.8244 28.4295 23.7454 28.5535 22.6084C28.6875 21.3754 28.5825 20.1794 28.2575 19.2414C28.2405 19.1914 28.2325 19.1404 28.2325 19.0874V19.0854C28.2345 18.1614 28.2995 17.2754 28.4265 16.4284C28.0645 16.9614 27.7135 17.3334 27.3795 17.5324L26.7945 24.3114C26.7585 24.7184 26.5435 25.0814 26.2035 25.3074C25.9875 25.4494 25.7405 25.5234 25.4905 25.5234C25.3605 25.5234 25.2285 25.5034 25.1005 25.4624C24.7895 25.3644 24.4865 25.2084 24.2055 24.9984C23.1005 24.1734 22.7445 22.8414 23.3965 21.9654C23.9545 21.2154 25.0755 21.0834 26.0835 21.5994L26.4645 17.1984C26.4645 17.1904 26.4685 17.1844 26.4695 17.1774C26.4705 17.1684 26.4695 17.1604 26.4705 17.1514C26.4715 17.1484 26.4705 17.1464 26.4705 17.1444L26.5565 16.1324C26.5575 16.1244 26.5625 16.1174 26.5635 16.1084L26.5595 16.1074C28.1375 4.82043 35.3985 1.72743 38.0625 1.48843C38.1185 1.48343 38.1725 1.46243 38.2155 1.42743C38.2595 1.39143 38.2895 1.34743 38.3055 1.29343C38.3325 1.20143 38.3135 1.09343 38.2565 1.01643C38.2035 0.94343 38.1525 0.94343 38.1345 0.94343C38.0925 0.94243 38.0495 0.94243 38.0075 0.94243C26.7375 0.94243 22.2705 12.9964 21.9175 15.2244L21.8965 15.2214C21.8205 15.3784 21.6625 15.4884 21.4765 15.4884Z" fill="#26C7DB"/>
<path fill-rule="evenodd" clip-rule="evenodd" d="M4.789 9.18582C4.298 9.52982 4.235 10.9098 4.281 11.5238C4.385 14.7228 7.218 19.0418 9.807 20.1658C9.886 19.6518 10.009 19.1698 10.172 18.7488C10.114 16.5108 9.555 13.2938 7.266 10.5258C6.708 9.94282 6.115 9.50782 5.5 9.23282C5.026 9.01882 4.848 9.14482 4.789 9.18582Z" fill="#26C7DB"/>
<path fill-rule="evenodd" clip-rule="evenodd" d="M17.3623 15.2191C17.4383 15.3771 17.5963 15.4891 17.7843 15.4891H21.4763C21.6623 15.4891 21.8203 15.3781 21.8963 15.2211L20.9873 15.0761C21.0093 14.9371 21.0493 14.7571 21.1023 14.5481H18.1563C18.2103 14.7561 18.2493 14.9351 18.2713 15.0741L17.3623 15.2191Z" fill="#333333"/>
<path fill-rule="evenodd" clip-rule="evenodd" d="M12.7879 17.1996V17.1916L12.6939 16.1066L11.8049 16.2306C12.1809 16.7096 12.3929 16.7726 12.4089 16.7766L12.3089 17.1616L12.3209 17.2386L12.7879 17.1986V17.1996Z" fill="#333333"/>
<path fill-rule="evenodd" clip-rule="evenodd" d="M26.4708 17.1448C26.4708 17.1468 26.4708 17.1488 26.4708 17.1518C26.4768 17.1118 26.4938 17.0758 26.5098 17.0398C26.5128 17.0318 26.5138 17.0228 26.5178 17.0148C26.5768 16.8988 26.6788 16.8048 26.8148 16.7688C26.8298 16.7648 27.0428 16.7008 27.4168 16.2278L26.5638 16.1088C26.5618 16.1178 26.5568 16.1238 26.5558 16.1318L26.4708 17.1448Z" fill="#333333"/>
<path fill-rule="evenodd" clip-rule="evenodd" d="M13.268 22.7405L13.254 22.5785C13.906 22.1335 14.681 22.1075 14.995 22.5265C15.321 22.9655 15.037 23.7515 14.376 24.2445C14.226 24.3555 14.07 24.4445 13.91 24.5095C13.801 24.5555 13.678 24.5455 13.575 24.4825C13.47 24.4195 13.404 24.3115 13.393 24.1885L13.35 23.6895C13.122 23.5775 12.971 23.4055 12.966 23.2065C12.962 23.0245 13.079 22.8605 13.268 22.7405ZM13.086 25.2865C13.297 25.4155 13.532 25.4795 13.768 25.4795C13.936 25.4795 14.105 25.4465 14.267 25.3805C14.498 25.2865 14.724 25.1575 14.938 24.9985C16.045 24.1745 16.401 22.8415 15.749 21.9645C15.207 21.2405 14.143 21.0945 13.165 21.5505L12.788 17.1995V17.1985L12.321 17.2385L12.392 17.6975L12.229 17.7025L12.171 17.6875C12.082 17.6645 11.983 17.6245 11.875 17.5615L12.456 24.2685C12.492 24.6935 12.722 25.0645 13.086 25.2865Z" fill="#333333"/>
<path fill-rule="evenodd" clip-rule="evenodd" d="M25.9005 23.7239L25.8565 24.2299C25.8465 24.3499 25.7825 24.4559 25.6835 24.5229C25.6305 24.5579 25.5215 24.6089 25.3855 24.5659C25.1745 24.4989 24.9615 24.3889 24.7685 24.2449C24.1085 23.7509 23.8255 22.9649 24.1515 22.5279C24.3005 22.3269 24.5555 22.2279 24.8515 22.2279C25.1865 22.2279 25.5755 22.3539 25.9255 22.6019C25.9475 22.6179 25.9705 22.6309 25.9935 22.6429L25.9885 22.7059C26.2125 22.8279 26.3575 23.0059 26.3525 23.2059C26.3475 23.4249 26.1685 23.6149 25.9005 23.7239ZM26.0835 21.5999C25.0755 21.0829 23.9545 21.2149 23.3965 21.9649C22.7445 22.8409 23.1005 24.1729 24.2055 24.9979C24.4865 25.2079 24.7895 25.3649 25.1005 25.4619C25.2285 25.5029 25.3595 25.5239 25.4905 25.5239C25.7405 25.5239 25.9875 25.4499 26.2035 25.3069C26.5435 25.0809 26.7585 24.7179 26.7945 24.3119L27.3795 17.5329C27.2695 17.5979 27.1605 17.6509 27.0545 17.6789C26.8015 17.7439 26.5455 17.5949 26.4795 17.3429C26.4645 17.2869 26.4645 17.2319 26.4695 17.1769C26.4685 17.1849 26.4645 17.1909 26.4635 17.1989L26.0835 21.5999Z" fill="#333333"/>
<path fill-rule="evenodd" clip-rule="evenodd" d="M26.5182 17.0149C26.5142 17.0229 26.5132 17.0319 26.5102 17.0389C26.5132 17.0319 26.5142 17.0229 26.5182 17.0149Z" fill="#333333"/>
<path fill-rule="evenodd" clip-rule="evenodd" d="M27.4172 16.2278C27.0422 16.7008 26.8302 16.7648 26.8152 16.7688C26.6792 16.8048 26.5772 16.8988 26.5182 17.0148C26.5142 17.0228 26.5132 17.0318 26.5102 17.0398C26.4942 17.0758 26.4772 17.1118 26.4712 17.1518C26.4692 17.1608 26.4712 17.1678 26.4702 17.1768C26.4642 17.2318 26.4652 17.2878 26.4802 17.3428C26.5452 17.5948 26.8022 17.7438 27.0542 17.6788C27.1602 17.6508 27.2692 17.5978 27.3792 17.5328C27.7132 17.3328 28.0642 16.9608 28.4272 16.4278C28.8082 13.9018 29.7492 11.7198 31.2382 9.9198C30.4982 10.7028 29.8002 11.7288 29.1672 12.9748C28.9682 13.3628 28.7802 13.7558 28.6042 14.1468C28.1662 15.1078 27.8002 15.7138 27.5132 16.1008C27.5062 16.1478 27.4982 16.1918 27.4922 16.2388L27.4172 16.2278Z" fill="#333333"/>
<path fill-rule="evenodd" clip-rule="evenodd" d="M31.9061 9.84988C32.1061 10.0159 32.1341 10.3129 31.9681 10.5129C31.9641 10.5179 31.9611 10.5229 31.9571 10.5279C32.5141 9.94488 33.1081 9.50788 33.7241 9.23288C34.1971 9.01988 34.3761 9.14388 34.4351 9.18588C34.8811 9.49688 35.0001 10.7409 34.9421 11.5429C34.8441 14.5519 32.2241 19.0419 29.4351 20.1819C29.4831 20.4939 29.5141 20.8139 29.5291 21.1449C32.8001 20.0049 35.7721 14.9789 35.8811 11.5939C35.9001 11.3469 36.0321 9.15688 34.9751 8.41488C34.6681 8.19988 34.1341 8.01688 33.3391 8.37288C32.6081 8.70188 31.9101 9.20988 31.2661 9.88788C31.2601 9.89488 31.2531 9.90388 31.2461 9.91088C31.4131 9.71188 31.7061 9.68488 31.9061 9.84988Z" fill="#333333"/>
<path fill-rule="evenodd" clip-rule="evenodd" d="M28.2324 19.0853C28.2334 18.8263 28.4434 18.6163 28.7024 18.6163C28.9184 18.6163 29.0994 18.7603 29.1554 18.9573C29.1634 18.9813 29.1674 19.0093 29.1754 19.0323C29.1904 15.6083 30.1254 12.7473 31.9574 10.5273C31.9614 10.5223 31.9644 10.5183 31.9684 10.5133C32.1344 10.3133 32.1064 10.0163 31.9064 9.85026C31.7064 9.68526 31.4134 9.71226 31.2464 9.91026C31.2464 9.91126 31.2444 9.91126 31.2434 9.91226C31.2414 9.91526 31.2404 9.91726 31.2384 9.92026C29.7484 11.7203 28.8074 13.9013 28.4264 16.4283C28.2984 17.2753 28.2334 18.1613 28.2324 19.0853Z" fill="#333333"/>
<path fill-rule="evenodd" clip-rule="evenodd" d="M9.8064 20.1663C7.2174 19.0423 4.3854 14.7233 4.2814 11.5233C4.2344 10.9093 4.2984 9.52927 4.7884 9.18627C4.8474 9.14527 5.0254 9.01927 5.5004 9.23227C6.1154 9.50827 6.7084 9.94227 7.2654 10.5253C7.2624 10.5213 7.2594 10.5173 7.2554 10.5133C7.0894 10.3123 7.1174 10.0173 7.3174 9.85127C7.5164 9.68527 7.8124 9.71227 7.9784 9.91127C7.9724 9.90427 7.9654 9.89527 7.9584 9.88827C7.3144 9.21127 6.6164 8.70127 5.8854 8.37427C5.0914 8.01727 4.5564 8.19827 4.2484 8.41527C3.1914 9.15627 3.3244 11.3473 3.3414 11.5733C3.4514 14.9613 6.4314 19.9673 9.7224 21.1343C9.7274 21.0113 9.7234 20.8853 9.7344 20.7643C9.7514 20.5603 9.7764 20.3613 9.8064 20.1663Z" fill="#333333"/>
<path fill-rule="evenodd" clip-rule="evenodd" d="M11.8754 17.5618C11.9834 17.6238 12.0824 17.6648 12.1704 17.6878L12.2294 17.7028L12.3924 17.6978L12.3204 17.2388L12.3084 17.1618L12.4094 16.7768C12.3934 16.7728 12.1814 16.7088 11.8044 16.2308L11.7674 16.2368C11.7644 16.2118 11.7594 16.1908 11.7564 16.1668L11.7554 16.1658C11.4644 15.7828 11.0824 15.1618 10.6214 14.1478C10.4444 13.7558 10.2564 13.3628 10.0584 12.9758C9.42242 11.7258 8.72442 10.6988 7.98242 9.91577C9.79042 12.0968 10.5934 14.5258 10.9194 16.6118C11.2914 17.1248 11.6114 17.4118 11.8754 17.5618Z" fill="#333333"/>
<path fill-rule="evenodd" clip-rule="evenodd" d="M29.1751 19.0325C29.1671 19.0095 29.1631 18.9805 29.1551 18.9575C29.0991 18.7605 28.9181 18.6165 28.7021 18.6165C28.4441 18.6165 28.2341 18.8265 28.2321 19.0855V19.0875C28.2321 19.1395 28.2401 19.1915 28.2581 19.2415C28.5821 20.1785 28.6871 21.3755 28.5531 22.6085C28.4291 23.7455 28.1101 24.8245 27.6541 25.6455C26.1411 28.3725 25.2521 31.1775 25.0091 33.9795C24.7631 36.8125 22.3981 39.0315 19.6221 39.0315C16.8051 39.0285 14.4961 36.9105 14.2531 34.1035L14.2421 33.9795C13.9981 31.1735 13.1081 28.3695 11.5971 25.6455C11.1411 24.8245 10.8221 23.7455 10.6981 22.6095C10.6331 22.0055 10.6241 21.4105 10.6721 20.8425C10.7281 20.1625 10.8681 19.5335 11.0751 19.0225C11.1011 18.9655 11.1151 18.9005 11.1151 18.8335V18.8215C11.1011 18.1575 11.0441 17.4085 10.9191 16.6115C10.5931 14.5255 9.79011 12.0965 7.98311 9.91647C7.98211 9.91447 7.98111 9.91347 7.98011 9.91247L7.97911 9.91147C7.81311 9.71247 7.51711 9.68447 7.31811 9.85047C7.11711 10.0165 7.09011 10.3125 7.25611 10.5125C7.25911 10.5165 7.26211 10.5215 7.26511 10.5255C9.55511 13.2945 10.1131 16.5115 10.1721 18.7485C10.0081 19.1705 9.88611 19.6515 9.80611 20.1665C9.77611 20.3615 9.75111 20.5595 9.73411 20.7635C9.72411 20.8855 9.72711 21.0115 9.72211 21.1345C9.69811 21.6485 9.70511 22.1755 9.76311 22.7115C9.90011 23.9695 10.2591 25.1745 10.7751 26.1015C12.2201 28.7095 13.0711 31.3865 13.3041 34.0615L13.3151 34.1845C13.6021 37.4815 16.3131 39.9695 19.6261 39.9715C22.8821 39.9715 25.6581 37.3765 25.9461 34.0615C26.1771 31.3905 27.0291 28.7135 28.4771 26.1015C28.9921 25.1745 29.3511 23.9695 29.4881 22.7115C29.5461 22.1785 29.5511 21.6545 29.5291 21.1445C29.5141 20.8135 29.4831 20.4935 29.4351 20.1815C29.3731 19.7775 29.2921 19.3885 29.1751 19.0325Z" fill="#333333"/>
<path fill-rule="evenodd" clip-rule="evenodd" d="M38.1423 0.00231934H38.0073C26.7953 0.00231934 21.9513 11.2503 21.1023 14.5483C21.0483 14.7573 21.0093 14.9373 20.9873 15.0763L21.8953 15.2213L21.9163 15.2253C22.2703 12.9963 26.7373 0.942319 38.0073 0.942319C38.0493 0.942319 38.0923 0.942319 38.1343 0.943319C38.1513 0.943319 38.2033 0.943319 38.2563 1.01632C38.3133 1.09332 38.3323 1.20132 38.3053 1.29332C38.2883 1.34732 38.2593 1.39232 38.2143 1.42732C38.1713 1.46232 38.1183 1.48332 38.0613 1.48832C35.3973 1.72832 28.1373 4.82032 26.5593 16.1073L26.5633 16.1083L27.4163 16.2283L27.4913 16.2383C27.4973 16.1913 27.5063 16.1483 27.5133 16.1013C29.0443 5.53532 35.6993 2.64632 38.1483 2.42632C38.3923 2.40232 38.6213 2.31032 38.8053 2.15932C38.9963 2.00732 39.1353 1.80032 39.2053 1.56432C39.3193 1.18832 39.2463 0.773319 39.0133 0.457319C38.8023 0.171319 38.4843 0.00531934 38.1423 0.00231934Z" fill="#333333"/>
<mask id="mask0" mask-type="alpha" maskUnits="userSpaceOnUse" x="0" y="0" width="19" height="17">
<path fill-rule="evenodd" clip-rule="evenodd" d="M0 0.000610352H18.2711V16.2366H0V0.000610352Z" fill="white"/>
</mask>
<g mask="url(#mask0)">
<path fill-rule="evenodd" clip-rule="evenodd" d="M11.7672 16.2366L11.8052 16.2306L12.6942 16.1066L12.6992 16.1056C11.1212 4.81861 3.86124 1.72561 1.19924 1.48661C1.14024 1.48061 1.08724 1.46061 1.04124 1.42361C1.00024 1.38961 0.970241 1.34361 0.954241 1.29061C0.926241 1.19961 0.945241 1.09061 1.00224 1.01261C1.05524 0.94161 1.10724 0.94161 1.12424 0.94161C1.16724 0.94061 1.20824 0.94061 1.25024 0.94061C12.5192 0.94061 16.9882 12.9946 17.3422 15.2216L17.3622 15.2186L18.2712 15.0746C18.2492 14.9346 18.2102 14.7566 18.1572 14.5486C17.3102 11.2536 12.4672 0.000610352 1.25124 0.000610352H1.11724C0.773241 0.00361035 0.456241 0.16961 0.245241 0.45561C0.0122409 0.77161 -0.0607591 1.18461 0.0522409 1.55861C0.122241 1.79761 0.261241 2.00361 0.449241 2.15461C0.637241 2.30661 0.865241 2.39961 1.11324 2.42361C3.56424 2.64361 10.2432 5.54461 11.7562 16.1646C11.7562 16.1646 11.7562 16.1666 11.7562 16.1676C11.7602 16.1906 11.7642 16.2126 11.7672 16.2366Z" fill="#333333"/>
</g>
<path fill-rule="evenodd" clip-rule="evenodd" d="M22.6041 32.4769L21.9231 32.1309C21.5501 31.9419 21.1161 31.9169 20.7311 32.0619C20.3681 32.1979 20.0901 32.4659 19.9491 32.8169L19.4771 33.9949L19.5431 34.1599C19.7261 34.4979 19.8491 34.8309 19.9171 35.1049C19.9781 35.3449 19.8421 35.5899 19.6061 35.6659C19.5631 35.6809 19.5201 35.6859 19.4771 35.6879C19.4821 35.6879 19.4871 35.6899 19.4921 35.6899C19.6801 35.6899 19.8551 35.5779 19.9291 35.3939L20.2571 34.5769C20.5911 33.9609 21.2291 33.2219 22.3311 33.3629C22.5611 33.3929 22.7731 33.2529 22.8411 33.0349C22.9081 32.8159 22.8081 32.5799 22.6041 32.4769Z" fill="#333333"/>
<path fill-rule="evenodd" clip-rule="evenodd" d="M19.9175 35.1049C19.8495 34.8309 19.7255 34.4979 19.5425 34.1599L19.4765 33.9949L19.0035 32.8169C18.8635 32.4659 18.5855 32.1979 18.2225 32.0619C17.8375 31.9169 17.4025 31.9419 17.0295 32.1309L16.3495 32.4769C16.1455 32.5799 16.0455 32.8159 16.1125 33.0349C16.1805 33.2529 16.3945 33.3919 16.6225 33.3629C17.7245 33.2189 18.3625 33.9619 18.6965 34.5769L19.0245 35.3939C19.0985 35.5779 19.2735 35.6899 19.4615 35.6899C19.4665 35.6899 19.4715 35.6879 19.4765 35.6879C19.5205 35.6859 19.5635 35.6809 19.6065 35.6669C19.8425 35.5899 19.9785 35.3449 19.9175 35.1049Z" fill="#333333"/>
<path fill-rule="evenodd" clip-rule="evenodd" d="M21.1409 36.0237C20.3009 36.6747 18.6519 36.6747 17.8119 36.0237C17.6059 35.8647 17.3109 35.9017 17.1519 36.1077C16.9929 36.3127 17.0299 36.6087 17.2349 36.7677C17.8219 37.2217 18.6489 37.4497 19.4759 37.4497C20.3039 37.4497 21.1309 37.2217 21.7179 36.7677C21.9229 36.6087 21.9599 36.3127 21.8009 36.1077C21.6419 35.9017 21.3469 35.8647 21.1409 36.0237Z" fill="#333333"/>
<path fill-rule="evenodd" clip-rule="evenodd" d="M14.3 17.3705C14.05 17.4435 13.907 17.7045 13.98 17.9545C14.04 18.1595 14.228 18.2925 14.431 18.2925C14.475 18.2925 14.52 18.2865 14.564 18.2735C17.159 17.5165 22.066 17.5155 24.661 18.2735C24.909 18.3475 25.172 18.2035 25.244 17.9545C25.317 17.7045 25.174 17.4435 24.925 17.3705C22.194 16.5735 17.03 16.5725 14.3 17.3705Z" fill="#333333"/>
<path fill-rule="evenodd" clip-rule="evenodd" d="M13.8309 23.1898C13.8319 23.2358 13.8919 23.2708 13.9629 23.2698C14.0349 23.2688 14.0919 23.2308 14.0909 23.1848C14.0899 23.1388 14.0309 23.1028 13.9589 23.1048C13.8879 23.1058 13.8299 23.1438 13.8309 23.1898Z" fill="#333333"/>
<path fill-rule="evenodd" clip-rule="evenodd" d="M14.0909 23.1849C14.0919 23.2309 14.0349 23.2689 13.9629 23.2699C13.8919 23.2709 13.8329 23.2359 13.8309 23.1899C13.8299 23.1439 13.8879 23.1059 13.9589 23.1049C14.0309 23.1029 14.0899 23.1389 14.0909 23.1849ZM13.3499 23.6899C13.5239 23.7749 13.7389 23.8269 13.9759 23.8219C14.5249 23.8109 14.9639 23.5179 14.9559 23.1679C14.9469 22.8179 14.4939 22.5419 13.9459 22.5529C13.6809 22.5579 13.4439 22.6289 13.2679 22.7409C13.0789 22.8609 12.9619 23.0249 12.9659 23.2059C12.9709 23.4059 13.1219 23.5779 13.3499 23.6899Z" fill="#333333"/>
<path fill-rule="evenodd" clip-rule="evenodd" d="M25.3594 23.1048C25.2884 23.1028 25.2294 23.1388 25.2274 23.1848C25.2264 23.2308 25.2834 23.2688 25.3554 23.2698C25.4274 23.2708 25.4864 23.2358 25.4874 23.1898C25.4884 23.1438 25.4314 23.1058 25.3594 23.1048Z" fill="#333333"/>
<path fill-rule="evenodd" clip-rule="evenodd" d="M25.3554 23.2698C25.2834 23.2688 25.2264 23.2308 25.2274 23.1848C25.2294 23.1388 25.2884 23.1028 25.3594 23.1048C25.4314 23.1058 25.4884 23.1438 25.4874 23.1898C25.4864 23.2358 25.4274 23.2708 25.3554 23.2698ZM25.9884 22.7068C25.8194 22.6158 25.6074 22.5568 25.3724 22.5528C24.8244 22.5418 24.3714 22.8178 24.3624 23.1678C24.3544 23.5178 24.7934 23.8108 25.3424 23.8218C25.5474 23.8258 25.7394 23.7898 25.9004 23.7238C26.1674 23.6148 26.3474 23.4248 26.3524 23.2068C26.3564 23.0058 26.2124 22.8278 25.9884 22.7068Z" fill="#333333"/>
</svg>