<svg width="42" height="42" viewBox="0 0 42 42" fill="none" xmlns="http://www.w3.org/2000/svg">
<mask id="mask0" mask-type="alpha" maskUnits="userSpaceOnUse" x="0" y="0" width="42" height="42">
<path fill-rule="evenodd" clip-rule="evenodd" d="M0.000244141 0.00012207H41.3695V41.7551H0.000244141V0.00012207Z" fill="white"/>
</mask>
<g mask="url(#mask0)">
<path fill-rule="evenodd" clip-rule="evenodd" d="M40.5253 37.8923C40.5103 37.8933 40.4953 37.8943 40.4803 37.8963C40.4503 37.7413 40.4203 37.5863 40.3883 37.4313C40.3813 37.4303 40.3753 37.4283 40.3683 37.4273C40.3443 37.5503 40.3213 37.6723 40.2983 37.7953C40.2883 37.7943 40.2773 37.7933 40.2673 37.7933C40.2583 37.6843 40.2513 37.5753 40.2423 37.4653C40.2353 37.4633 40.2283 37.4603 40.2213 37.4583C40.1753 37.5943 40.1303 37.7303 40.0753 37.9003C39.9943 37.7003 40.0233 37.5123 39.9653 37.2993C39.9063 37.5143 39.8563 37.6923 39.7963 37.9053C39.7083 37.7123 39.7373 37.5303 39.6553 37.3643C39.6113 37.5353 39.5683 37.7053 39.5253 37.8763L39.4843 37.8793C39.4433 37.7183 39.4013 37.5583 39.3603 37.3973C39.3483 37.3993 39.3373 37.4013 39.3263 37.4033C39.3093 37.5513 39.2943 37.7013 39.2783 37.8493C39.2673 37.8493 39.2553 37.8483 39.2453 37.8483C39.1673 37.5443 39.0883 37.2403 39.0033 36.9083C39.5283 36.9093 40.0403 36.9113 40.5753 36.9133C40.5773 37.2513 40.5873 37.5743 40.5253 37.8923ZM29.4943 37.2723C29.4763 37.2673 29.4593 37.2623 29.4403 37.2573C29.4693 37.0663 29.4983 36.8743 29.5263 36.6843C29.5193 36.6793 29.5113 36.6743 29.5043 36.6693C29.4263 36.8023 29.3493 36.9343 29.2723 37.0673C29.2603 37.0623 29.2493 37.0563 29.2373 37.0513C29.2723 36.9213 29.3083 36.7913 29.3433 36.6633C29.3363 36.6573 29.3293 36.6513 29.3223 36.6463C29.2133 36.7843 29.1063 36.9223 28.9703 37.0953C28.9613 36.8303 29.0713 36.6263 29.0933 36.3563C28.9353 36.5803 28.8043 36.7643 28.6473 36.9863C28.6253 36.7273 28.7343 36.5283 28.7073 36.3033C28.5873 36.4823 28.4663 36.6623 28.3463 36.8403C28.3303 36.8363 28.3143 36.8313 28.2973 36.8283C28.3163 36.6243 28.3353 36.4223 28.3533 36.2193C28.3393 36.2163 28.3253 36.2133 28.3113 36.2113C28.2313 36.3763 28.1523 36.5423 28.0723 36.7073C28.0593 36.7033 28.0463 36.6983 28.0353 36.6923C28.0703 36.3093 28.1053 35.9253 28.1433 35.5063C28.7493 35.7253 29.3383 35.9383 29.9553 36.1613C29.8183 36.5533 29.6973 36.9303 29.4943 37.2723ZM18.8243 35.9393C18.8063 35.9343 18.7883 35.9293 18.7703 35.9243C18.7983 35.7333 18.8283 35.5413 18.8563 35.3503C18.8483 35.3453 18.8413 35.3413 18.8343 35.3363C18.7563 35.4693 18.6793 35.6013 18.6013 35.7343C18.5893 35.7283 18.5793 35.7233 18.5673 35.7183L18.6723 35.3293C18.6663 35.3243 18.6593 35.3183 18.6513 35.3123C18.5443 35.4513 18.4353 35.5883 18.3003 35.7613C18.2903 35.4963 18.4003 35.2923 18.4223 35.0233C18.2643 35.2463 18.1333 35.4313 17.9763 35.6533C17.9553 35.3943 18.0633 35.1953 18.0373 34.9693C17.9173 35.1493 17.7963 35.3283 17.6753 35.5073C17.6603 35.5033 17.6433 35.4983 17.6283 35.4953L17.6833 34.8853C17.6693 34.8833 17.6553 34.8803 17.6403 34.8773C17.5613 35.0433 17.4813 35.2083 17.4023 35.3743C17.3893 35.3703 17.3773 35.3643 17.3643 35.3593C17.3993 34.9763 17.4343 34.5923 17.4733 34.1723C18.0783 34.3913 18.6693 34.6053 19.2853 34.8283C19.1473 35.2203 19.0263 35.5963 18.8243 35.9393ZM33.5483 27.3043C33.0873 27.3923 32.3613 27.2173 32.0283 26.8793C32.2073 26.7473 32.4153 26.8683 32.6173 26.7833C32.5733 26.7093 32.5263 26.6293 32.4653 26.5263C32.6223 26.5043 32.7663 26.4853 32.9573 26.4593C32.7953 26.3833 32.6753 26.3283 32.5573 26.2723C32.5563 26.2523 32.5563 26.2323 32.5553 26.2123C32.8653 26.1493 33.1743 26.0863 33.4843 26.0243V25.9833C33.2103 25.9653 32.9343 25.9473 32.6593 25.9293C32.6563 25.9073 32.6533 25.8833 32.6493 25.8613L33.0213 25.6973C33.0193 25.6813 33.0173 25.6653 33.0163 25.6513C32.7873 25.6483 32.5573 25.6463 32.2433 25.6423C32.4453 25.5033 32.5733 25.4153 32.7543 25.2913C32.4603 25.2923 32.2313 25.2923 31.9843 25.2923C32.6713 24.2413 34.7913 24.5853 35.6203 25.8793C35.0793 26.5623 34.4553 27.1313 33.5483 27.3043ZM32.7893 27.7653C33.7413 27.6083 34.7693 28.1963 34.8133 29.2993C33.9623 29.5873 32.9263 28.8123 32.7893 27.7653ZM32.0313 30.8693C31.2593 30.5413 30.5793 30.0963 30.1713 29.3213C29.9383 28.8773 29.9153 28.4043 30.0343 27.9223C30.0573 27.8263 30.1073 27.7363 30.1723 27.5733C30.2593 27.8293 30.3203 28.0123 30.3923 28.2263C30.4703 28.1303 30.5243 28.0653 30.6043 27.9673C30.6703 28.1353 30.7213 28.2703 30.7963 28.4643C30.8283 28.2733 30.8493 28.1383 30.8723 28.0023C30.8903 27.9973 30.9103 27.9923 30.9283 27.9873C31.0603 28.2533 31.1923 28.5203 31.3233 28.7883C31.3413 28.7843 31.3593 28.7813 31.3783 28.7773C31.3533 28.6543 31.3293 28.5323 31.3053 28.4093C31.2803 28.2763 31.2543 28.1433 31.2843 27.9923C31.3733 28.0953 31.4613 28.1993 31.5493 28.3023C31.5643 28.2913 31.5793 28.2803 31.5933 28.2693C31.5333 28.0513 31.4723 27.8323 31.4123 27.6153C31.4273 27.6053 31.4433 27.5963 31.4603 27.5873C31.5693 27.6823 31.6783 27.7783 31.8143 27.8963C31.8453 27.6313 31.6883 27.4303 31.6813 27.2023C32.8553 27.5303 33.0733 29.7113 32.0313 30.8693ZM28.5383 31.0603C28.0913 30.1633 28.4833 29.1063 29.4093 28.6643C29.9783 29.7223 29.4033 30.7883 28.5383 31.0603ZM26.1853 28.6603C26.3173 27.7683 26.5873 26.9423 27.3443 26.3613C27.7823 26.0263 28.2863 25.9413 28.9123 26.0183C28.6743 26.1743 28.5053 26.2873 28.3003 26.4213C28.4223 26.4673 28.5043 26.4963 28.6253 26.5413C28.4853 26.6473 28.3723 26.7323 28.2163 26.8493C28.3983 26.8383 28.5273 26.8313 28.6573 26.8243L28.6803 26.8763C28.4583 27.0683 28.2363 27.2603 28.0133 27.4523C28.0213 27.4653 28.0293 27.4783 28.0373 27.4923C28.2623 27.3893 28.4873 27.2883 28.7123 27.1853L28.7503 27.2263C28.6823 27.3353 28.6143 27.4443 28.5093 27.6133C28.7733 27.4673 28.9743 27.3563 29.2433 27.2073C29.1383 27.4173 29.0683 27.5583 28.9633 27.7663C29.2353 27.6153 29.4483 27.4963 29.6913 27.3613C29.3313 28.5923 27.9103 29.4293 26.1853 28.6603ZM25.0233 25.5853C25.6923 24.8883 26.8783 24.9463 27.5693 25.7263C26.8483 26.4013 25.6413 26.4913 25.0233 25.5853ZM29.1633 23.0843C29.6273 23.4253 29.8603 23.9043 29.8703 24.5043C29.7313 24.3713 29.5923 24.2393 29.4273 24.0813C29.4023 24.1963 29.3823 24.2853 29.3553 24.4093C29.2323 24.3093 29.1283 24.2243 28.9763 24.1023C29.0283 24.2703 29.0663 24.3943 29.1043 24.5183C29.0873 24.5313 29.0723 24.5433 29.0553 24.5573C28.8123 24.3843 28.5693 24.2113 28.3263 24.0393C28.3123 24.0523 28.2993 24.0663 28.2863 24.0793C28.4583 24.2843 28.6303 24.4883 28.8023 24.6923C28.7903 24.7083 28.7773 24.7253 28.7643 24.7413C28.6203 24.6793 28.4763 24.6183 28.3323 24.5563L28.3083 24.5883C28.4753 24.7593 28.6413 24.9303 28.8643 25.1583C28.6323 25.1073 28.4813 25.0733 28.3293 25.0393C28.3193 25.0543 28.3093 25.0693 28.2983 25.0823C28.4623 25.2553 28.6273 25.4283 28.8063 25.6173C27.2943 25.6173 26.4093 24.0843 26.7003 22.5733C27.5723 22.4823 28.4203 22.5383 29.1633 23.0843ZM29.0273 20.5643C29.8923 20.9753 30.2143 22.2413 29.6533 23.0193C28.7153 22.5463 28.4133 21.3613 29.0273 20.5643ZM31.1703 26.0873C31.0813 26.4583 30.7203 26.6883 30.3483 26.6093C29.9623 26.5273 29.7313 26.1523 29.8253 25.7613C29.9153 25.3843 30.2663 25.1623 30.6443 25.2443C31.0333 25.3283 31.2623 25.6953 31.1703 26.0873ZM31.8683 21.0333C32.4313 21.7823 32.8543 22.5853 32.7003 23.5703C32.6233 24.0643 32.3553 24.4683 31.8883 24.7413C31.9293 24.5563 31.9703 24.3713 32.0203 24.1433C31.8893 24.1903 31.8093 24.2193 31.6993 24.2593C31.7223 24.0913 31.7423 23.9563 31.7703 23.7553C31.6493 23.8973 31.5643 23.9953 31.4203 24.1633C31.4363 23.8003 31.4493 23.5183 31.4623 23.2363C31.4443 23.2293 31.4263 23.2223 31.4083 23.2163L31.1763 23.8873C31.1573 23.8863 31.1363 23.8863 31.1163 23.8863C31.0883 23.7593 31.0603 23.6333 31.0333 23.5073L30.9893 23.4963C30.9293 23.7103 30.8713 23.9253 30.7893 24.2243C30.7103 24.0133 30.6603 23.8803 30.5793 23.6633C30.4993 23.9573 30.4383 24.1793 30.3733 24.4203C29.6703 23.3143 30.2323 21.6753 31.8683 21.0333ZM35.0043 22.8093C35.0253 23.7123 34.0113 24.4473 32.9363 24.2903C33.0833 23.2153 33.9733 22.5883 35.0043 22.8093ZM21.2843 19.0103C20.3183 21.2403 19.0133 23.2363 17.2213 24.8943C16.2583 25.7873 15.1833 26.5133 13.9803 27.0463C13.9023 27.0803 13.8243 27.1143 13.7453 27.1463C13.7143 27.1583 13.6833 27.1643 13.6083 27.1873C13.2073 26.7043 12.7943 26.2083 12.3813 25.7113C12.3973 25.6933 12.4143 25.6743 12.4293 25.6563C12.6083 25.7903 12.7893 25.9233 12.9663 26.0603C13.1513 26.2023 13.3333 26.3473 13.5723 26.5363C13.5423 26.3333 13.4523 26.2323 13.3943 26.1193C13.3373 26.0043 13.2693 25.8953 13.2083 25.7833C13.1413 25.6633 13.0773 25.5423 13.0563 25.3773C13.4033 25.6863 13.7503 25.9943 14.0963 26.3013C14.1163 26.2893 14.1353 26.2783 14.1563 26.2663C14.0313 25.8443 13.9063 25.4223 13.7813 25.0013C13.9173 25.0773 13.9723 25.2053 14.0403 25.3253C14.1073 25.4463 14.1723 25.5693 14.2403 25.6903C14.3103 25.8203 14.3823 25.9493 14.4763 26.0703C14.4363 25.5873 14.2913 25.1243 14.2303 24.6493L14.2973 24.6223C14.5313 24.9743 14.7633 25.3273 14.9963 25.6783L15.0513 25.6583C14.9273 25.2283 14.8033 24.7983 14.6803 24.3693C14.7023 24.3563 14.7243 24.3433 14.7463 24.3303C15.0353 24.6273 15.2663 24.9783 15.5983 25.2623C15.4573 24.8293 15.3163 24.3953 15.1743 23.9603C15.1953 23.9483 15.2163 23.9343 15.2373 23.9213C15.5943 24.2433 15.9513 24.5643 16.3073 24.8853C16.3273 24.8723 16.3453 24.8603 16.3653 24.8473C16.1643 24.4013 15.9623 23.9543 15.7603 23.5083L15.8073 23.4673C16.2013 23.7803 16.5943 24.0923 16.9883 24.4043C17.0033 24.3913 17.0173 24.3783 17.0323 24.3653L16.2883 23.1173L16.3353 23.0733C16.6133 23.3173 16.8923 23.5623 17.1713 23.8063C17.1883 23.7953 17.2053 23.7853 17.2213 23.7753C17.0363 23.4243 16.8503 23.0743 16.6663 22.7233C17.0893 22.9353 17.4213 23.2593 17.8333 23.4953C17.5943 23.0863 17.3573 22.6773 17.1203 22.2693C17.5143 22.4263 17.8113 22.7203 18.1953 22.9033C17.9763 22.5103 17.7583 22.1173 17.5403 21.7243C17.5543 21.7063 17.5693 21.6883 17.5853 21.6703C18.0883 21.8573 18.5923 22.0423 19.0963 22.2293C19.1093 22.2103 19.1213 22.1933 19.1333 22.1753C18.7633 21.8713 18.3943 21.5653 18.0243 21.2603C18.4063 21.3043 18.7353 21.4833 19.1203 21.5643C18.8543 21.2883 18.5883 21.0113 18.3243 20.7353C18.3393 20.7133 18.3543 20.6933 18.3703 20.6723C18.8343 20.8583 19.2963 21.0423 19.7593 21.2283C19.7713 21.2153 19.7833 21.2043 19.7953 21.1913C19.4273 20.8453 19.0613 20.4993 18.6943 20.1543C18.7073 20.1333 18.7193 20.1143 18.7313 20.0943L19.8883 20.4983C19.6393 20.1153 19.2723 19.8483 19.0113 19.4663C19.4213 19.6023 19.8303 19.7373 20.2383 19.8713C20.2513 19.8593 20.2633 19.8463 20.2753 19.8333L19.3493 18.9313C19.3633 18.9113 19.3763 18.8903 19.3883 18.8703C19.7123 18.9853 20.0343 19.1013 20.3563 19.2163C20.3693 19.2023 20.3813 19.1873 20.3943 19.1713C20.0893 18.8593 19.7843 18.5463 19.4783 18.2343C19.4863 18.2143 19.4943 18.1943 19.5013 18.1743C19.7433 18.2243 19.9853 18.2733 20.2263 18.3263C20.4653 18.3763 20.7043 18.4303 20.9663 18.4353C20.5293 18.1863 20.0913 17.9373 19.6353 17.6773C20.1653 17.5383 21.2163 17.8323 21.5943 18.2293C21.4953 18.4803 21.3973 18.7483 21.2843 19.0103ZM11.1903 24.5853C11.1453 24.6003 11.0983 24.6093 11.0573 24.6193C10.7813 24.3283 10.6883 23.5983 10.8443 22.9413C10.9983 23.0373 11.0243 23.2063 11.1043 23.3363C11.1903 23.4743 11.2603 23.6223 11.3843 23.7623C11.3553 23.4913 11.3273 23.2183 11.2983 22.9473C11.3163 22.9423 11.3353 22.9363 11.3523 22.9313C11.5273 23.1923 11.7033 23.4543 11.8793 23.7143C11.8943 23.7123 11.9103 23.7093 11.9253 23.7073C11.8883 23.3863 11.8503 23.0653 11.8043 22.6713C11.9853 22.7923 12.1163 22.8783 12.2443 22.9663C12.3783 23.0573 12.5093 23.1513 12.6903 23.2193C12.5703 22.9053 12.4513 22.5903 12.3113 22.2233C12.6573 22.3133 12.8913 22.5273 13.2253 22.6313C13.0963 22.3113 12.9833 22.0303 12.8593 21.7193C13.0533 21.7413 13.1523 21.8673 13.2753 21.9413C13.3973 22.0143 13.5103 22.0983 13.6293 22.1773C13.6453 22.1633 13.6633 22.1503 13.6803 22.1363C13.5113 21.8133 13.3423 21.4893 13.1733 21.1653C13.1893 21.1493 13.2043 21.1323 13.2183 21.1173C13.5103 21.2853 13.8023 21.4533 14.0943 21.6213C14.1073 21.6113 14.1213 21.5993 14.1333 21.5883C13.9493 21.3003 13.7653 21.0123 13.5813 20.7243C13.5933 20.7103 13.6053 20.6983 13.6183 20.6843C13.9633 20.8323 14.3093 20.9823 14.6553 21.1303C14.6653 21.1183 14.6743 21.1043 14.6843 21.0913L13.9693 20.2423C13.9793 20.2233 13.9903 20.2053 14.0003 20.1863C14.3803 20.3033 14.7613 20.4203 15.1413 20.5383C15.1513 20.5243 15.1613 20.5093 15.1703 20.4953C14.8943 20.1943 14.6183 19.8933 14.2933 19.5383C14.7093 19.5413 15.0453 19.6523 15.4113 19.6393C15.1293 19.4223 14.8463 19.2053 14.5083 18.9453C14.9063 18.9193 15.2353 18.8993 15.5633 18.8783C15.5653 18.8633 15.5663 18.8483 15.5673 18.8333C15.2873 18.7233 15.0063 18.6133 14.7263 18.5033C14.7273 18.4863 14.7273 18.4683 14.7283 18.4513C15.0463 18.4023 15.3653 18.3523 15.6833 18.3033C15.6863 18.2853 15.6883 18.2653 15.6913 18.2463C15.4033 18.1833 15.1143 18.1193 14.7903 18.0463C14.9313 17.8903 15.1053 17.9053 15.2483 17.8543C15.3973 17.8013 15.5533 17.7673 15.7023 17.6713C15.4283 17.6113 15.1563 17.5503 14.8823 17.4903C14.8813 17.4723 14.8803 17.4553 14.8793 17.4363C15.1443 17.3753 15.4103 17.3153 15.6743 17.2543C15.6773 17.2363 15.6803 17.2163 15.6833 17.1983C15.4163 17.1273 15.1493 17.0573 14.8813 16.9873V16.9363C14.9273 16.9193 14.9733 16.8943 15.0213 16.8883C15.3943 16.8433 15.7693 16.8123 16.1383 16.9193C16.3813 16.9903 16.4283 17.0503 16.4153 17.2873C16.3103 18.9933 15.8503 20.5833 14.8443 21.9883C13.9263 23.2703 12.6853 24.1103 11.1903 24.5853ZM4.96234 32.0453L4.92134 32.0073C5.03534 31.8513 5.14934 31.6953 5.26234 31.5383C5.25734 31.5313 5.25434 31.5233 5.24934 31.5163C5.11934 31.5973 4.98934 31.6793 4.85934 31.7603C4.85134 31.7503 4.84334 31.7413 4.83634 31.7303C4.92734 31.6313 5.01834 31.5333 5.11034 31.4343C5.10634 31.4263 5.10234 31.4183 5.09834 31.4103C4.93934 31.4833 4.77934 31.5553 4.57934 31.6463C4.69334 31.4073 4.88434 31.2773 5.03034 31.0473C4.78634 31.1723 4.58534 31.2763 4.34234 31.4003C4.44234 31.1613 4.63134 31.0343 4.71234 30.8223C4.52234 30.9253 4.33334 31.0293 4.14234 31.1323C4.13034 31.1213 4.11834 31.1103 4.10634 31.0983C4.21534 30.9273 4.32634 30.7553 4.43634 30.5843C4.42534 30.5763 4.41434 30.5673 4.40334 30.5583C4.25534 30.6673 4.10834 30.7783 3.96134 30.8873C3.95234 30.8773 3.94334 30.8673 3.93434 30.8563C4.14334 30.5333 4.35134 30.2093 4.58034 29.8553C5.01534 30.3293 5.44134 30.7903 5.88434 31.2733C5.58234 31.5583 5.29934 31.8353 4.96234 32.0453ZM8.88434 20.7873C9.00834 20.8643 9.02934 21.0013 9.09434 21.1063C9.16434 21.2173 9.22034 21.3363 9.32034 21.4503C9.29634 21.2313 9.27434 21.0113 9.25134 20.7913C9.26534 20.7883 9.28034 20.7843 9.29434 20.7793L9.71834 21.4123L9.75634 21.4063C9.72634 21.1463 9.69634 20.8873 9.65934 20.5703C9.80534 20.6673 9.91034 20.7373 10.0133 20.8073C10.1223 20.8813 10.2283 20.9563 10.3743 21.0113C10.2773 20.7583 10.1803 20.5043 10.0673 20.2073C10.3473 20.2813 10.5363 20.4533 10.8053 20.5383C10.7013 20.2793 10.6103 20.0523 10.5093 19.8023C10.6673 19.8193 10.7463 19.9203 10.8453 19.9803C10.9443 20.0393 11.0363 20.1073 11.1303 20.1713C11.1443 20.1613 11.1583 20.1493 11.1723 20.1383C11.0363 19.8763 10.9003 19.6163 10.7643 19.3553C10.7763 19.3413 10.7883 19.3293 10.7993 19.3153C11.0353 19.4513 11.2713 19.5863 11.5063 19.7223C11.5173 19.7133 11.5273 19.7053 11.5383 19.6963C11.3893 19.4633 11.2413 19.2313 11.0913 18.9983C11.1023 18.9883 11.1123 18.9773 11.1223 18.9663C11.4013 19.0863 11.6793 19.2063 11.9593 19.3273C11.9663 19.3163 11.9743 19.3053 11.9833 19.2943C11.7913 19.0663 11.5973 18.8373 11.4053 18.6093C11.4143 18.5943 11.4213 18.5803 11.4303 18.5643C11.7373 18.6593 12.0453 18.7543 12.3513 18.8493C12.3593 18.8373 12.3673 18.8253 12.3753 18.8133C12.1523 18.5713 11.9293 18.3293 11.6673 18.0413C12.0023 18.0443 12.2733 18.1333 12.5693 18.1233C12.3413 17.9493 12.1143 17.7733 11.8403 17.5633C12.1613 17.5433 12.4263 17.5263 12.6923 17.5093C12.6933 17.4973 12.6943 17.4853 12.6953 17.4733C12.4683 17.3843 12.2433 17.2953 12.0163 17.2063C12.0163 17.1933 12.0173 17.1783 12.0173 17.1643C12.2743 17.1243 12.5313 17.0853 12.7883 17.0453C12.7913 17.0313 12.7933 17.0153 12.7953 16.9993C12.5623 16.9493 12.3293 16.8973 12.0673 16.8383C12.1813 16.7123 12.3223 16.7243 12.4373 16.6833C12.5573 16.6403 12.6833 16.6133 12.8033 16.5363C12.5833 16.4873 12.3633 16.4383 12.1423 16.3893C12.1413 16.3753 12.1413 16.3613 12.1403 16.3463C12.3533 16.2973 12.5673 16.2483 12.7813 16.1993C12.7843 16.1843 12.7863 16.1693 12.7883 16.1543C12.5733 16.0973 12.3573 16.0403 12.1423 15.9843C12.1413 15.9703 12.1413 15.9563 12.1413 15.9433C12.1783 15.9293 12.2153 15.9093 12.2543 15.9043C12.5553 15.8683 12.8583 15.8423 13.1553 15.9293C13.3513 15.9863 13.3893 16.0353 13.3783 16.2253C13.2953 17.6023 12.9233 18.8853 12.1123 20.0183C11.3713 21.0533 10.3703 21.7303 9.16434 22.1143C9.12734 22.1253 9.08834 22.1323 9.05634 22.1413C8.83334 21.9063 8.75834 21.3173 8.88434 20.7873ZM3.38534 15.6283C3.05934 15.5573 2.87934 15.2723 2.95134 14.9473C3.02334 14.6213 3.30734 14.4403 3.63234 14.5123C3.95934 14.5843 4.13934 14.8693 4.06734 15.1953C3.99534 15.5203 3.71134 15.7013 3.38534 15.6283ZM40.9493 38.4083C40.5553 36.6613 40.5283 33.4823 39.8563 32.9913C39.1833 32.5003 36.5313 29.2763 36.9023 27.6013C37.2733 25.9263 37.5253 22.3703 37.4063 21.3673C37.2873 20.3643 38.9243 19.3613 39.5853 15.5043C40.4203 10.8573 39.3213 5.24428 37.1283 1.92628C34.8883 -1.40172 34.3103 0.32528 34.8073 1.60728C35.2943 2.93528 37.4153 6.57928 36.8173 11.9133C36.1733 17.2373 33.3573 19.5903 31.4553 19.3643C29.5523 19.1373 25.9393 17.6043 21.8243 16.7883C17.6523 16.0103 15.6983 16.0163 12.7613 14.7303C10.1403 13.5633 8.62534 11.8123 6.67134 11.3783C6.12234 9.89028 4.79834 8.81628 4.58234 9.35328C4.39534 9.75128 4.52034 10.9513 4.60834 11.6543C3.87534 11.8813 3.03734 12.1353 2.81034 12.2803C2.29834 12.6063 1.60734 15.2843 0.511337 15.8223C-0.583663 16.3603 0.352337 18.0803 0.812337 18.4263C1.66034 19.0053 3.01434 19.0613 4.20934 19.1793C5.41334 19.2513 6.51934 19.9853 7.10434 21.0913C7.48234 21.8093 8.11834 23.1213 8.33134 24.1453C8.33634 24.1713 8.34334 24.1973 8.34934 24.2223C7.43934 25.7183 4.56834 30.2973 3.14934 31.0013C1.44934 31.8453 0.472337 31.6283 0.317337 32.3273C0.152337 33.0713 3.40934 33.7923 5.10934 32.5103C6.48734 31.5013 10.4673 28.7813 11.8873 27.8133C13.0973 28.7043 14.3433 29.7053 15.1523 31.0273C17.0873 34.1903 17.5933 35.8653 16.6953 36.3973C15.7853 36.9773 14.9743 37.3333 15.5063 37.7933C16.0393 38.2533 17.8543 39.0953 18.8303 37.1153C19.8063 35.1343 19.5273 35.5123 19.4593 33.8373C19.3913 32.1633 15.9653 26.9923 19.3693 28.7413C19.3693 28.7413 23.2893 29.7833 26.1133 30.3863C26.5373 31.1803 28.3373 34.5773 28.3553 34.8823C28.3773 35.2293 27.5653 36.9043 26.7283 36.7183C25.8903 36.5333 25.6323 36.8173 25.5403 37.2363C25.4473 37.6553 26.5383 38.6773 28.3983 38.2113C30.2593 37.7463 31.1513 34.0353 31.7763 32.7573L31.7743 32.7563C32.3183 33.0273 32.8393 33.2323 33.2503 33.2843C35.8033 33.6543 36.7863 34.0673 37.9753 35.7463C39.1193 37.4153 39.3743 41.3293 40.6093 41.7013C41.7883 42.1083 41.3423 40.1553 40.9493 38.4083Z" fill="#DB4B32"/>
</g>
</svg>