<?xml version="1.0" encoding="utf-8"?>
<!-- Generator: Adobe Illustrator 16.0.0, SVG Export Plug-In . SVG Version: 6.00 Build 0)  -->
<!DOCTYPE svg PUBLIC "-//W3C//DTD SVG 1.1//EN" "http://www.w3.org/Graphics/SVG/1.1/DTD/svg11.dtd">
<svg version="1.1" id="Layer_1" xmlns="http://www.w3.org/2000/svg" xmlns:xlink="http://www.w3.org/1999/xlink" x="0px" y="0px"
	 width="16px" height="16px" viewBox="1 1 16 16" enable-background="new 1 1 16 16" xml:space="preserve">
<g>
	<g>
		<path fill="#444444" d="M17,3.695c0,0.491-0.397,0.888-0.889,0.888H1.89C1.398,4.583,1,4.186,1,3.695l0,0
			c0-0.491,0.398-0.89,0.889-0.89h14.222C16.603,2.806,17,3.205,17,3.695L17,3.695z"/>
		<path fill="#444444" d="M17,9.028c0,0.491-0.397,0.888-0.889,0.888H1.89C1.398,9.916,1,9.52,1,9.028l0,0
			C1,8.538,1.398,8.139,1.89,8.139h14.222C16.603,8.139,17,8.538,17,9.028L17,9.028z"/>
		<path fill="#444444" d="M17,14.306c0,0.491-0.397,0.89-0.889,0.89H1.89C1.398,15.195,1,14.797,1,14.306l0,0
			c0-0.49,0.398-0.89,0.889-0.89h14.222C16.603,13.416,17,13.815,17,14.306L17,14.306z"/>
	</g>
</g>
</svg>
