<svg width="38" height="37" viewBox="0 0 38 37" fill="none" xmlns="http://www.w3.org/2000/svg">
<mask id="mask0" mask-type="alpha" maskUnits="userSpaceOnUse" x="0" y="-1" width="38" height="38">
<path fill-rule="evenodd" clip-rule="evenodd" d="M0.000488281 -0.00012207H37.5955V36.9479H0.000488281V-0.00012207Z" fill="white"/>
</mask>
<g mask="url(#mask0)">
<path fill-rule="evenodd" clip-rule="evenodd" d="M34.6565 23.2026C34.1925 23.0746 33.7935 22.8366 33.4605 22.4716C33.9835 22.4996 34.3895 22.7356 34.6565 23.2026ZM33.1765 22.9546C33.6555 22.9626 34.1795 23.4076 34.3885 24.0146C33.9135 23.8286 33.4285 23.3956 33.1765 22.9546ZM33.0895 23.7666C33.4775 23.7626 33.8935 24.3466 33.9465 25.0126C33.5395 24.6246 33.2845 24.2226 33.0895 23.7666ZM33.6095 25.6856C33.2465 25.3176 33.0345 24.9176 32.9255 24.3756C33.4365 24.7596 33.6675 25.2006 33.6095 25.6856ZM32.8665 25.1136C33.1775 25.4826 33.3245 25.9106 33.3305 26.3906C33.0215 26.0206 32.8555 25.5996 32.8665 25.1136ZM32.6325 25.8526C32.9085 26.2656 33.0315 26.6746 33.1035 27.1426C32.8375 26.9126 32.6235 26.3246 32.6325 25.8526ZM32.3675 26.6496C32.6415 27.0476 32.7975 27.4846 32.8105 27.9696C32.5545 27.5656 32.4075 27.1256 32.3675 26.6496ZM32.0805 27.5146C32.3905 27.9366 32.5435 28.3226 32.5935 28.8186C32.2975 28.4896 32.1455 28.1066 32.0805 27.5146ZM31.7335 24.5756C32.1615 24.6406 32.5215 24.7696 32.7385 25.2186C32.1745 25.3376 31.8765 25.1106 31.7335 24.5756ZM31.8245 25.9126C31.5775 25.7736 31.4925 25.5716 31.3955 25.3606C31.2805 25.1066 31.5795 24.9906 31.5545 24.7686C31.8295 25.0926 31.9965 25.4326 31.8245 25.9126ZM31.0615 34.0986C31.0785 33.8436 31.0945 33.5896 31.1115 33.3346L31.0525 33.3136C30.9405 33.5816 30.8285 33.8486 30.7165 34.1156C30.6955 34.1116 30.6755 34.1076 30.6555 34.1036C30.6885 33.8376 30.7225 33.5706 30.7575 33.3046C30.7395 33.2976 30.7225 33.2906 30.7065 33.2846C30.5645 33.5596 30.4245 33.8366 30.2825 34.1116C30.2605 34.1066 30.2385 34.1006 30.2165 34.0966C30.2635 33.8396 30.3105 33.5826 30.3585 33.3256C30.3465 33.3196 30.3365 33.3136 30.3245 33.3076C30.1835 33.5516 30.0435 33.7936 29.9025 34.0366C29.8795 34.0266 29.8555 34.0176 29.8325 34.0086C29.8865 33.7976 29.9415 33.5876 29.9965 33.3766C29.9775 33.3646 29.9605 33.3526 29.9415 33.3416C29.8005 33.5566 29.6595 33.7706 29.5175 33.9856C29.5005 33.9736 29.4815 33.9626 29.4645 33.9506C29.5105 33.8056 29.5585 33.6606 29.6055 33.5156C29.5905 33.5086 29.5755 33.5006 29.5595 33.4926C29.4335 33.6616 29.3075 33.8306 29.1805 33.9996C29.1605 33.9906 29.1395 33.9816 29.1195 33.9726L29.3475 33.2426C29.3385 33.2376 29.3275 33.2316 29.3165 33.2266C29.2205 33.3596 29.1255 33.4926 29.0295 33.6246C29.0935 33.2226 29.2675 32.8686 29.4145 32.5356C30.1065 32.5766 30.7605 32.6146 31.4495 32.6556C31.5065 33.1766 31.2505 33.6276 31.0615 34.0986ZM31.0555 36.1286C31.0465 36.1596 31.0455 36.1936 31.0325 36.1996C30.4125 36.4736 29.7605 36.5206 29.0995 36.4336C28.6505 36.3756 28.4535 36.1406 28.4275 35.6936C28.4035 35.2656 28.5105 34.8636 28.7185 34.4746C29.4225 34.5686 30.1135 34.6616 30.8045 34.7546C30.8065 34.7776 30.8095 34.8016 30.8115 34.8246C30.7735 34.8456 30.7345 34.8656 30.6485 34.9106C30.7755 34.9316 30.8635 34.9446 30.8655 34.9446C30.9355 35.0466 30.9675 35.0916 31.0105 35.1526C30.8765 35.2156 30.7285 35.2846 30.5815 35.3546C30.5845 35.3666 30.5885 35.3786 30.5915 35.3906C30.7575 35.3746 30.9225 35.3586 31.0875 35.3436L31.1015 35.3926C30.9555 35.4606 30.8085 35.5286 30.6625 35.5966L30.6655 35.6406H31.1035C31.1075 35.6596 31.1115 35.6786 31.1155 35.6976C30.9695 35.7656 30.8235 35.8336 30.5915 35.9416C30.8125 35.9196 30.9395 35.9066 31.1535 35.8856C31.0115 35.9826 30.9375 36.0346 30.8595 36.0886C30.9225 36.1006 30.9875 36.1146 31.0555 36.1286ZM28.3155 32.8476C28.2295 33.0746 28.1655 33.2456 28.1015 33.4166C28.0835 33.4136 28.0645 33.4116 28.0465 33.4086C28.0625 33.2276 28.0805 33.0476 28.0965 32.8656C28.0835 32.8596 28.0685 32.8546 28.0535 32.8486C27.9645 33.0506 27.8735 33.2506 27.7835 33.4516L27.7335 33.4366C27.7555 33.2386 27.7755 33.0406 27.7965 32.8416C27.7755 32.8366 27.7555 32.8306 27.7335 32.8256C27.6405 33.0216 27.5495 33.2186 27.4565 33.4146L27.3835 33.4026C27.4085 33.1596 27.4335 32.9176 27.4595 32.6746C27.4445 32.6696 27.4285 32.6636 27.4135 32.6586C27.2975 32.8726 27.1795 33.0866 27.0635 33.3016C26.9805 33.0396 27.1185 32.8086 27.1425 32.4656C26.9345 32.7966 26.7775 33.0476 26.6205 33.2976C26.5995 33.2906 26.5785 33.2826 26.5575 33.2746C26.6205 33.0646 26.6825 32.8546 26.7455 32.6436C26.7305 32.6376 26.7165 32.6316 26.7015 32.6246C26.5835 32.8036 26.4655 32.9826 26.3455 33.1616C26.3305 33.1566 26.3135 33.1506 26.2985 33.1456C26.3405 32.9916 26.3835 32.8386 26.4255 32.6846C26.4155 32.6796 26.4055 32.6746 26.3945 32.6686C26.3095 32.7916 26.2235 32.9136 26.1375 33.0356C26.1185 33.0266 26.0985 33.0176 26.0805 33.0096C26.2405 32.6106 26.4015 32.2136 26.5635 31.8116C26.9245 31.9026 27.2485 32.0176 27.5825 32.0586C27.9175 32.1006 28.2625 32.0686 28.6685 32.0686C28.5765 32.4406 28.4985 32.7556 28.4005 33.1506C28.3615 33.0106 28.3475 32.9616 28.3155 32.8476ZM27.3645 34.4326C27.4905 34.4446 27.6155 34.4556 27.7405 34.4676C27.7455 34.4826 27.7505 34.4986 27.7545 34.5156C27.6205 34.5646 27.4855 34.6136 27.3085 34.6806C27.4605 34.7026 27.5695 34.7196 27.6785 34.7356C27.6825 34.7566 27.6865 34.7756 27.6895 34.7956C27.5375 34.8476 27.3845 34.8986 27.1395 34.9806C27.3465 34.9986 27.4645 35.0086 27.6745 35.0266C27.4945 35.1116 27.3905 35.1616 27.2605 35.2236C27.4245 35.2876 27.6705 35.1796 27.6625 35.4696C26.8505 35.9436 25.5085 35.8006 24.9325 35.1296C25.2085 34.6396 25.4765 34.1596 25.7545 33.6666C25.8875 33.7016 25.9985 33.7356 26.1105 33.7606C26.5725 33.8566 27.0335 33.9566 27.4965 34.0446C27.6305 34.0696 27.7645 34.0676 27.7765 34.2696C27.6415 34.3076 27.4995 34.3486 27.3575 34.3886C27.3605 34.4026 27.3625 34.4186 27.3645 34.4326ZM28.8145 33.2386C28.9705 32.0736 29.1315 30.8806 29.2885 29.7056C29.5935 30.5596 29.3125 32.6916 28.8145 33.2386ZM26.4685 28.9556C26.4575 28.8056 26.4465 28.6546 26.4365 28.5046C26.4225 28.5036 26.4085 28.5016 26.3935 28.5006C26.3505 28.6446 26.3065 28.7886 26.2635 28.9326C26.2395 28.9316 26.2155 28.9306 26.1895 28.9296C26.1775 28.7326 26.1665 28.5366 26.1545 28.3416C26.1355 28.3376 26.1175 28.3336 26.0975 28.3286C26.0015 28.5726 25.9045 28.8166 25.8075 29.0596C25.7905 29.0566 25.7715 29.0536 25.7545 29.0496V28.3436C25.7365 28.3396 25.7195 28.3356 25.7025 28.3316C25.6065 28.5626 25.5105 28.7946 25.4155 29.0256C25.3935 29.0176 25.3715 29.0106 25.3495 29.0026C25.3705 28.7976 25.3915 28.5916 25.4135 28.3866C25.3945 28.3796 25.3775 28.3726 25.3595 28.3646C25.2455 28.5786 25.1315 28.7926 25.0165 29.0066C24.9975 29.0006 24.9775 28.9956 24.9575 28.9906C25.0065 28.7626 25.0535 28.5336 25.1025 28.3056C25.0775 28.2976 25.0525 28.2896 25.0285 28.2816C24.8875 28.4936 24.7475 28.7066 24.6055 28.9186C24.5835 28.9076 24.5605 28.8976 24.5385 28.8876L24.6845 28.3746C24.6715 28.3636 24.6565 28.3516 24.6415 28.3416C24.4995 28.5256 24.3555 28.7116 24.2135 28.8956C24.1895 28.8866 24.1675 28.8776 24.1445 28.8686C24.1955 28.7096 24.2475 28.5496 24.2995 28.3896C24.2875 28.3816 24.2755 28.3716 24.2635 28.3626C24.2065 28.4326 24.1475 28.5026 24.0925 28.5736C24.0275 28.6556 23.9675 28.7396 23.8425 28.7976C23.9115 28.6146 23.9805 28.4316 24.0495 28.2476C24.0355 28.2376 24.0215 28.2276 24.0075 28.2186C23.8755 28.3836 23.7425 28.5486 23.5795 28.7516V28.4966C23.5125 28.5456 23.4585 28.5856 23.4045 28.6246C23.3865 28.6156 23.3705 28.6076 23.3525 28.5986C23.5285 28.2176 23.7045 27.8366 23.8875 27.4356C25.9515 27.5976 27.9825 27.6146 29.9345 26.6736C30.1915 26.9656 30.4485 27.2576 30.7065 27.5496C30.6935 27.5656 30.6805 27.5816 30.6685 27.5986C30.5295 27.4866 30.3915 27.3756 30.1785 27.2036C30.2715 27.4396 30.3325 27.5906 30.3915 27.7416C30.3765 27.7526 30.3615 27.7636 30.3465 27.7726C30.2495 27.6556 30.1525 27.5386 30.0065 27.3616C30.0685 27.6326 30.1145 27.8296 30.1605 28.0266L30.1105 28.0536L29.7505 27.4966C29.7335 27.5036 29.7165 27.5116 29.6995 27.5176C29.7245 27.7476 29.7505 27.9756 29.7805 28.2556C29.5215 28.0906 29.5355 27.7956 29.3215 27.6176C29.3445 27.8776 29.3675 28.1126 29.3885 28.3476L29.3125 28.3766C29.2255 28.1996 29.1385 28.0216 29.0515 27.8456H28.9985C28.9985 27.9476 28.9935 28.0516 29.0005 28.1546C29.0075 28.2706 29.0235 28.3876 28.9725 28.5306C28.8885 28.3546 28.8045 28.1786 28.7205 28.0016C28.7015 28.0056 28.6825 28.0086 28.6635 28.0116C28.6765 28.1966 28.6895 28.3816 28.7035 28.5666C28.6885 28.5716 28.6745 28.5776 28.6585 28.5836C28.5735 28.3766 28.4875 28.1706 28.3735 27.8926V28.6346C28.3565 28.6406 28.3395 28.6486 28.3225 28.6556C28.2495 28.4506 28.1755 28.2446 28.1015 28.0396C28.0825 28.0416 28.0615 28.0436 28.0425 28.0456V28.7176L27.9745 28.7256C27.9125 28.5216 27.8505 28.3166 27.7885 28.1116C27.7715 28.1126 27.7555 28.1136 27.7375 28.1146L27.6845 28.6976C27.6565 28.6986 27.6295 28.6996 27.6005 28.7016C27.5815 28.6086 27.5615 28.5156 27.5435 28.4246C27.5255 28.3416 27.5095 28.2596 27.4395 28.1786C27.3915 28.4286 27.3445 28.6776 27.2975 28.9276C27.2785 28.9286 27.2595 28.9296 27.2405 28.9306C27.2015 28.7146 27.1625 28.4976 27.1235 28.2816C27.1085 28.2786 27.0945 28.2746 27.0805 28.2716C27.0435 28.4906 27.0065 28.7106 26.9625 28.9696C26.7575 28.7566 26.8345 28.4836 26.7025 28.2276C26.6355 28.4966 26.5785 28.7306 26.5205 28.9666C26.5035 28.9626 26.4855 28.9596 26.4685 28.9556ZM24.6815 25.4146C24.1435 25.7916 23.6435 25.7926 23.1435 25.4336C23.5105 25.0146 24.1925 24.9986 24.6815 25.4146ZM22.4365 23.0756C22.5385 23.4786 22.6395 23.8816 22.7405 24.2846C22.7165 24.2966 22.6925 24.3066 22.6685 24.3186L22.1675 23.5046C22.1505 23.5096 22.1345 23.5146 22.1175 23.5176C22.1965 23.8456 22.2755 24.1716 22.3545 24.4986C22.3295 24.5106 22.3025 24.5206 22.2775 24.5326C22.1355 24.2826 21.9925 24.0326 21.8495 23.7836C21.8285 23.7896 21.8065 23.7966 21.7865 23.8026L21.9265 24.8596C21.9085 24.8646 21.8905 24.8706 21.8735 24.8766L21.4805 23.9096C21.4655 23.9126 21.4495 23.9166 21.4335 23.9206C21.4595 24.3166 21.4835 24.7136 21.5095 25.1096C21.4885 25.1176 21.4685 25.1256 21.4485 25.1336C21.3405 24.8966 21.2315 24.6596 21.1245 24.4236C21.1055 24.4296 21.0885 24.4346 21.0695 24.4406C21.1005 24.6756 21.1325 24.9096 21.1625 25.1436C21.1355 25.1526 21.1105 25.1606 21.0845 25.1686L20.6035 24.1516C20.5855 24.1566 20.5675 24.1606 20.5505 24.1656L20.6845 25.3636L20.6085 25.3876C20.4705 25.0566 20.3325 24.7246 20.1945 24.3926C20.1795 24.3976 20.1665 24.4016 20.1515 24.4066C20.1885 24.8286 20.2255 25.2506 20.2635 25.6726L20.1965 25.7016C19.9855 25.3486 19.7735 24.9946 19.5625 24.6406C19.5435 24.6486 19.5235 24.6556 19.5035 24.6626C19.5775 25.0516 19.6505 25.4396 19.7245 25.8286C19.7015 25.8386 19.6785 25.8486 19.6555 25.8576C19.4505 25.5006 19.2445 25.1416 19.0395 24.7846C19.0215 24.7866 19.0045 24.7896 18.9865 24.7926C19.0015 25.0016 19.0145 25.2106 19.0325 25.4196C19.0515 25.6386 19.0745 25.8556 19.0955 26.0736C19.0685 26.0836 19.0425 26.0936 19.0155 26.1026C18.8045 25.7046 18.5935 25.3066 18.3825 24.9086L18.3145 24.9206C18.3675 25.3666 18.4205 25.8126 18.4725 26.2586C18.4445 26.2676 18.4165 26.2776 18.3885 26.2876L17.6535 25.1946C17.6295 25.2056 17.6055 25.2166 17.5825 25.2266C17.6965 25.6486 17.8095 26.0716 17.9345 26.5336C17.6745 26.3456 16.6505 24.9526 16.4135 24.4816C16.5085 24.4816 16.5925 24.4746 16.6745 24.4836C17.7835 24.5946 18.8195 24.3346 19.8105 23.8596C20.7805 23.3956 21.6655 22.8016 22.4205 22.0336C23.8835 20.5436 24.3435 18.7566 23.9335 16.7266C23.9065 16.5876 23.8755 16.4486 23.8365 16.2636C24.2675 16.1776 24.6805 16.0956 25.0935 16.0136C25.1005 16.0396 25.1085 16.0656 25.1165 16.0926C25.0065 16.1406 24.8945 16.1906 24.7845 16.2396C24.7865 16.2596 24.7885 16.2796 24.7905 16.2996C25.0555 16.3236 25.3205 16.3476 25.5865 16.3716C25.5875 16.3876 25.5885 16.4036 25.5895 16.4196C25.3425 16.4786 25.0945 16.5376 24.8475 16.5966C24.8495 16.6096 24.8525 16.6226 24.8555 16.6366C25.0835 16.6686 25.3105 16.6996 25.5385 16.7316L25.5475 16.8026C25.2845 16.8696 25.0225 16.9366 24.7605 17.0036C24.7615 17.0166 24.7625 17.0306 24.7645 17.0446C25.0075 17.0876 25.2485 17.1296 25.4895 17.1726C25.4935 17.1946 25.4975 17.2186 25.5005 17.2406C25.3055 17.2756 25.1115 17.3106 24.8325 17.3616C25.1155 17.4436 25.3285 17.5066 25.6295 17.5936C25.3485 17.6366 25.1615 17.6646 24.9735 17.6926C24.9745 17.7106 24.9765 17.7266 24.9785 17.7436C25.1525 17.7916 25.3265 17.8386 25.5005 17.8856C25.5015 17.9046 25.5015 17.9246 25.5015 17.9436C25.2845 17.9786 25.0685 18.0146 24.7585 18.0646C25.0525 18.1806 25.2785 18.2676 25.5885 18.3896C25.2685 18.4376 25.0435 18.4736 24.7345 18.5206C25.0105 18.6366 25.2105 18.7196 25.4105 18.8026C25.4045 18.8246 25.3995 18.8466 25.3945 18.8686C25.1715 18.8546 24.9485 18.8406 24.7245 18.8266C24.7155 18.8466 24.7045 18.8666 24.6935 18.8866C24.9365 19.0466 25.1795 19.2066 25.4225 19.3666C25.4155 19.3896 25.4085 19.4126 25.4005 19.4346H24.7605L24.7435 19.4996C24.9385 19.6066 25.1345 19.7146 25.3295 19.8206L25.3085 19.8886H24.5395C24.7705 20.0786 24.9315 20.2116 25.0935 20.3446C25.0825 20.3646 25.0715 20.3856 25.0605 20.4056C24.8885 20.3586 24.7185 20.3106 24.5465 20.2646C24.5315 20.2786 24.5165 20.2926 24.5025 20.3066C24.6765 20.4996 24.8505 20.6926 25.0245 20.8866C25.0145 20.9056 25.0055 20.9256 24.9955 20.9456C24.7885 20.8686 24.5825 20.7916 24.3755 20.7146C24.3625 20.7296 24.3495 20.7466 24.3375 20.7626C24.5065 21.0016 24.6745 21.2416 24.8425 21.4806C24.8265 21.4986 24.8105 21.5156 24.7955 21.5346C24.6005 21.4226 24.4065 21.3096 24.2125 21.1986C24.1975 21.2136 24.1815 21.2276 24.1665 21.2426C24.3105 21.4636 24.4555 21.6846 24.5985 21.9066C24.5845 21.9246 24.5695 21.9406 24.5545 21.9576L23.9015 21.4686L23.8605 21.5066C24.0325 21.8506 24.2045 22.1956 24.3755 22.5406L24.3195 22.5906C24.0565 22.3946 23.7945 22.1996 23.5305 22.0046C23.5135 22.0196 23.4975 22.0356 23.4795 22.0516C23.6815 22.3936 23.8835 22.7366 24.0845 23.0796C24.0605 23.0976 24.0375 23.1156 24.0145 23.1336C23.7625 22.8886 23.5115 22.6426 23.2605 22.3966C23.2395 22.4126 23.2185 22.4276 23.1995 22.4416C23.3575 22.7656 23.5155 23.0896 23.6755 23.4136C23.6555 23.4316 23.6355 23.4496 23.6165 23.4686C23.4845 23.3436 23.3475 23.2226 23.2205 23.0926C23.0935 22.9616 22.9755 22.8206 22.8525 22.6836C22.8275 22.7016 22.8015 22.7186 22.7745 22.7346C22.9475 23.1156 23.1205 23.4966 23.2945 23.8786C23.2715 23.8936 23.2505 23.9106 23.2285 23.9276C23.1025 23.7786 22.9765 23.6326 22.8525 23.4836C22.7315 23.3376 22.6125 23.1876 22.4365 23.0756ZM21.5105 25.9576C22.0885 26.1976 22.5445 26.5636 22.7505 27.1846C22.2455 26.8696 21.8245 26.4686 21.5105 25.9576ZM21.4015 26.7346C21.8695 26.8686 22.2135 27.3696 22.2215 27.9466C21.8655 27.6106 21.5825 27.2246 21.4015 26.7346ZM21.9155 28.6256C21.5575 28.3316 21.3435 27.9296 21.2885 27.4436C21.7165 27.6806 21.9985 28.2116 21.9155 28.6256ZM21.1355 28.0826C21.4305 28.3136 21.6465 28.8526 21.6445 29.4056C21.3325 29.0276 21.1755 28.5916 21.1355 28.0826ZM21.0865 31.7586C20.6965 31.4136 20.5465 31.1006 20.5455 30.6536C20.8555 30.9616 21.0525 31.2736 21.0865 31.7586ZM20.9345 29.0446C21.2305 29.2996 21.4135 29.6056 21.3785 30.0096C21.0955 29.7416 20.9335 29.4296 20.9345 29.0446ZM21.2505 30.8646C20.9315 30.6546 20.7755 30.3596 20.7355 29.8526C21.0245 30.1206 21.2505 30.4216 21.2505 30.8646ZM21.3305 33.3756C21.2835 33.2066 21.2375 33.0376 21.1905 32.8686C21.1785 32.8706 21.1665 32.8726 21.1545 32.8746C21.1455 33.0566 21.1355 33.2376 21.1245 33.4826C21.0695 33.2936 21.0325 33.1626 20.9955 33.0326C20.9795 33.0336 20.9635 33.0346 20.9475 33.0356C20.9315 33.2096 20.9165 33.3836 20.8995 33.5566C20.8795 33.5586 20.8585 33.5606 20.8375 33.5626C20.7965 33.3386 20.7545 33.1146 20.7135 32.8906L20.6605 32.8696C20.6265 33.1056 20.5925 33.3426 20.5575 33.5786C20.5325 33.5806 20.5075 33.5816 20.4815 33.5836C20.4635 33.4756 20.4455 33.3696 20.4275 33.2636C20.4095 33.1536 20.3915 33.0436 20.3215 32.9376C20.2885 33.1626 20.2565 33.3876 20.2225 33.6126H20.1465C20.1245 33.3576 20.1005 33.1026 20.0775 32.8476C20.0565 32.8466 20.0365 32.8446 20.0155 32.8436C19.9495 33.1276 19.8825 33.4106 19.8155 33.6946C19.7935 33.6936 19.7705 33.6926 19.7495 33.6916C19.7375 33.4486 19.7265 33.2056 19.7165 32.9616C19.7025 32.9616 19.6885 32.9606 19.6765 32.9606C19.6185 33.2096 19.5605 33.4596 19.5035 33.7096C19.4765 33.7076 19.4495 33.7056 19.4235 33.7036V32.9336C19.3985 32.9316 19.3745 32.9306 19.3495 32.9296C19.2855 33.1766 19.2215 33.4236 19.1585 33.6706H19.0775C19.0645 33.4116 19.0525 33.1526 19.0405 32.8936C19.0245 32.8896 19.0085 32.8846 18.9915 32.8796C18.9185 33.1276 18.8435 33.3756 18.7695 33.6236C18.7505 33.6216 18.7295 33.6196 18.7105 33.6186C18.7245 33.3746 18.7395 33.1316 18.7545 32.8886C18.7405 32.8856 18.7265 32.8836 18.7145 32.8806C18.6305 33.1366 18.5455 33.3926 18.4615 33.6486C18.4345 33.6446 18.4085 33.6406 18.3825 33.6366C18.4125 33.1286 18.4425 32.6206 18.4755 32.0786C19.4275 32.2386 20.3425 32.3306 21.2905 31.9696C21.3255 32.4646 21.3575 32.9136 21.3895 33.3626C21.3705 33.3666 21.3495 33.3716 21.3305 33.3756ZM20.6335 34.7296C20.5335 34.7936 20.4535 34.8446 20.3435 34.9136C20.4675 34.9246 20.5535 34.9316 20.7025 34.9446C20.5925 35.0236 20.5175 35.0756 20.4165 35.1476C20.5125 35.1726 20.5905 35.1916 20.7275 35.2266C20.5345 35.3106 20.3875 35.3746 20.1845 35.4626C20.3535 35.4806 20.4635 35.4926 20.6005 35.5086C20.5395 35.5616 20.5055 35.5926 20.4605 35.6326C20.5165 35.6476 20.5645 35.6616 20.6695 35.6906C20.5565 35.7546 20.4785 35.7976 20.3935 35.8456C20.4215 35.8656 20.4505 35.8866 20.4795 35.9086C20.2575 36.1146 19.9815 36.1116 19.7005 36.1076C19.2945 36.1016 18.8855 36.0886 18.4795 36.1116C18.1135 36.1336 18.0155 35.9646 18.0685 35.6636C18.1405 35.2406 18.2615 34.8266 18.3605 34.4196H20.8485C20.6345 34.5036 20.5055 34.5546 20.3195 34.6276C20.4465 34.6696 20.5215 34.6936 20.6335 34.7296ZM17.9055 31.4526C17.8505 30.9736 17.8065 30.4916 17.7385 30.0146C17.6845 29.6376 17.6085 29.2636 17.5275 28.8896C17.4105 28.3526 17.1545 27.8956 16.7985 27.4686C16.2335 26.7946 15.7235 26.0756 15.1905 25.3756L15.2525 25.3106C15.3085 25.3606 15.3735 25.4036 15.4225 25.4606C15.9265 26.0326 16.4265 26.6106 16.9345 27.1816C17.3035 27.5946 17.5275 28.0806 17.6745 28.6046C17.9335 29.5356 17.9975 30.4866 17.9055 31.4526ZM17.6295 32.5026C17.5845 32.4126 17.5405 32.3226 17.4935 32.2266C17.4745 32.2466 17.4495 32.2616 17.4495 32.2756C17.4465 32.4426 17.4475 32.6096 17.3715 32.7886C17.3225 32.6486 17.2725 32.5106 17.2015 32.3076C17.1625 32.4606 17.1385 32.5516 17.1165 32.6426C17.0995 32.6426 17.0845 32.6436 17.0675 32.6446L16.9945 32.3056C16.9755 32.3046 16.9585 32.3046 16.9395 32.3036C16.9105 32.4886 16.8815 32.6736 16.8515 32.8586C16.8355 32.8596 16.8175 32.8606 16.8005 32.8616C16.7715 32.7266 16.7425 32.5926 16.6975 32.3876C16.6145 32.6506 16.5505 32.8566 16.4855 33.0626C16.4685 33.0596 16.4525 33.0576 16.4355 33.0566V32.3196C16.4195 32.3166 16.4015 32.3136 16.3855 32.3106C16.3065 32.5256 16.2295 32.7406 16.1515 32.9556C16.1325 32.9556 16.1125 32.9566 16.0935 32.9566V32.4316C16.0725 32.4286 16.0515 32.4256 16.0295 32.4236C15.9375 32.6036 15.8455 32.7846 15.7545 32.9656C15.7385 32.9616 15.7225 32.9566 15.7075 32.9526C15.7265 32.7806 15.7455 32.6086 15.7645 32.4376C15.7505 32.4316 15.7355 32.4276 15.7205 32.4216C15.6505 32.5566 15.5795 32.6906 15.4645 32.9096C15.4545 32.7036 15.4485 32.5956 15.4435 32.4876C15.3865 32.4906 15.3495 32.4926 15.2775 32.4956C15.3675 32.2136 15.4525 31.9426 15.5425 31.6606H17.5425C17.5855 31.9296 17.6305 32.2076 17.6755 32.4846C17.6595 32.4906 17.6435 32.4966 17.6295 32.5026ZM16.8415 33.6406C16.8965 33.6746 16.9295 33.6936 16.9725 33.7196C16.9075 33.7736 16.8475 33.8236 16.7825 33.8776C16.8395 33.9046 16.8925 33.9316 16.9685 33.9676C16.8535 34.0406 16.7565 34.1036 16.6245 34.1876C16.7225 34.2126 16.7975 34.2306 16.9195 34.2606C16.7595 34.3476 16.6335 34.4156 16.4915 34.4916C16.5775 34.5196 16.6455 34.5426 16.7345 34.5706C16.6695 34.6116 16.6275 34.6386 16.5705 34.6736C16.6415 34.6916 16.7005 34.7076 16.7905 34.7306C16.7185 34.7766 16.6635 34.8106 16.5525 34.8816C16.7035 34.8886 16.7955 34.8916 16.8855 34.8966C15.9705 35.2196 15.0515 35.2796 14.0795 34.9796C14.2535 34.3056 14.6455 33.7836 15.0045 33.2176C15.7565 33.6176 16.5025 33.4756 17.2875 33.3406C17.1405 33.4386 16.9935 33.5386 16.8415 33.6406ZM14.9315 21.8456C14.8795 21.4136 14.9385 20.9966 15.1415 20.5686C15.5195 21.2536 15.5235 21.8736 15.1735 22.2006C14.9725 22.1666 14.9495 21.9926 14.9315 21.8456ZM14.0135 21.9536C14.0035 21.8246 13.9575 21.6966 13.9875 21.5906C14.1125 21.1586 14.3405 20.7886 14.7165 20.4956C14.8285 21.1676 14.5325 21.8066 14.0135 21.9536ZM13.1895 21.2216C13.1725 20.8036 13.7275 20.3406 14.3875 20.2236C14.2655 20.8066 13.6525 21.3156 13.1895 21.2216ZM12.6925 20.1766C12.9245 19.8016 13.7125 19.6296 14.2215 19.8436C13.7305 20.3366 13.0195 20.4916 12.6925 20.1766ZM10.8905 13.0186C12.0465 13.4226 12.3465 13.4006 13.2575 12.7906C13.0865 13.2246 12.8075 13.4876 12.4185 13.5856C11.7935 13.7416 11.3095 13.4396 10.8905 13.0186ZM13.2035 12.4406C13.0045 12.6036 12.8395 12.7386 12.6245 12.9156C12.6125 12.7446 12.6115 12.6566 12.5995 12.5706C12.5845 12.4686 12.5725 12.3616 12.5365 12.2646C12.4225 11.9626 12.1635 11.7766 11.9195 11.8106C11.6615 11.8466 11.4605 12.0736 11.4155 12.3916C11.3965 12.5166 11.3965 12.6436 11.3845 12.8276C11.2445 12.7336 11.1375 12.6676 11.0365 12.5946C10.9215 12.5126 10.9195 12.4046 10.9665 12.2796C11.1255 11.8506 11.8015 11.4166 12.2595 11.4586C12.4935 11.4786 12.6955 11.5836 12.8275 11.7736C12.9655 11.9746 13.0685 12.1986 13.2035 12.4406ZM10.4755 12.3126C10.4485 12.3046 10.4215 12.2966 10.3935 12.2876C10.4155 12.1576 10.4155 12.0176 10.4635 11.8996C10.6265 11.5016 10.8855 11.1686 11.2325 10.9166C11.5455 10.6896 11.9055 10.6246 12.2865 10.6816C12.9595 10.7846 13.5445 11.0746 14.0205 11.5566C14.3165 11.8536 14.5765 12.1886 14.8485 12.5106C14.9505 12.6296 15.0415 12.7576 15.1765 12.9326C15.2355 12.6906 15.1885 12.5036 15.1825 12.3176C15.1665 11.8176 15.1125 11.3156 15.1425 10.8186C15.1665 10.4306 15.2475 10.0316 15.3815 9.66763C15.6305 8.99063 16.1105 8.70963 16.8325 8.76763C17.0995 8.78963 17.3625 8.86363 17.6285 8.91263C17.6245 8.94163 17.6215 8.97063 17.6175 8.99863C17.4265 8.99863 17.2355 8.99163 17.0455 8.99963C16.1595 9.03763 15.6055 9.57663 15.5335 10.4596C15.4805 11.0986 15.6035 11.7196 15.7365 12.3386C15.9605 13.3806 16.1815 14.4236 16.4025 15.4666C16.4095 15.5026 16.3985 15.5426 16.3965 15.5806C16.3775 15.5876 16.3575 15.5936 16.3385 15.5996C16.2545 15.4696 16.1695 15.3396 16.0885 15.2066C15.5125 14.2596 14.9065 13.3336 14.1845 12.4906C13.8855 12.1416 13.5555 11.8156 13.2185 11.5046C13.0365 11.3376 12.8175 11.1996 12.5955 11.0896C12.0565 10.8236 11.4865 10.9246 11.0805 11.3706C10.8975 11.5716 10.7715 11.8246 10.6225 12.0566C10.5695 12.1396 10.5245 12.2266 10.4755 12.3126ZM10.2545 9.22363C10.2025 9.21163 10.1695 9.08163 10.1425 8.99963C10.1275 8.95263 10.1345 8.89563 10.1435 8.84463C10.2395 8.29063 10.5065 7.82763 10.9065 7.43463C10.9955 7.88863 10.9535 8.31563 10.7985 8.72463C10.7385 8.87863 10.6405 9.02563 10.5295 9.14763C10.4725 9.20963 10.3395 9.24163 10.2545 9.22363ZM11.4215 7.52363C11.7225 7.94463 11.8775 8.40863 11.8945 8.91663C11.8955 8.94263 11.8935 8.96963 11.8895 8.99463C11.8555 9.25163 11.7405 9.43563 11.6075 9.41763C11.3975 9.38863 11.3555 9.20363 11.3165 9.03963C11.1955 8.53163 11.2335 8.02963 11.4215 7.52363ZM12.9265 8.39263C12.9875 8.51563 13.0135 8.66763 13.0135 8.80663C13.0125 9.00763 12.8705 9.07263 12.6905 8.97363C12.6455 8.94963 12.6015 8.91663 12.5675 8.87863C12.1765 8.45263 11.9705 7.94563 11.9215 7.36863C12.3655 7.61863 12.7065 7.95263 12.9265 8.39263ZM13.6435 7.49463C13.7265 7.55563 13.8115 7.63363 13.8545 7.72363C13.8895 7.79663 13.8975 7.88263 13.9075 7.96763C13.9105 7.99563 13.9145 8.02363 13.9195 8.05163C13.8585 8.06063 13.7985 8.07263 13.7375 8.08263C13.6765 8.09263 13.6165 8.10063 13.5545 8.10263C13.4945 8.10363 13.4285 8.06563 13.3725 8.03463C12.9305 7.78863 12.5495 7.47663 12.2195 6.96263C12.7925 7.04563 13.2445 7.20163 13.6435 7.49463ZM13.8485 6.38163C14.0195 6.41563 14.1925 6.50563 14.3325 6.61163C14.4615 6.70863 14.4225 6.85263 14.2685 6.91963C14.1865 6.95463 14.0925 6.97363 14.0035 6.97663C13.4935 6.99663 13.0185 6.86263 12.5705 6.62563C12.5325 6.60563 12.5105 6.55363 12.4685 6.50063C12.9385 6.35463 13.3915 6.29063 13.8485 6.38163ZM14.2295 5.28363C14.4205 5.30663 14.6115 5.32663 14.8015 5.35363C15.5415 5.45963 16.2805 5.56963 17.0195 5.67263C17.2055 5.69863 17.3235 5.75563 17.2205 6.01563C16.2735 5.87563 15.3315 5.66663 14.3855 5.48963C14.3195 5.47763 14.2625 5.42263 14.2015 5.38763C14.2115 5.35263 14.2195 5.31863 14.2295 5.28363ZM17.7675 4.46863C17.3585 4.21763 16.9635 3.91163 16.5185 3.71863C16.0745 3.52463 15.5825 3.44163 15.1595 3.32363C16.2185 2.93963 17.5035 3.48563 17.7675 4.46863ZM19.0795 3.61663C18.7635 3.04663 18.3425 2.71663 17.8345 2.48063C18.5745 2.44863 19.0855 2.88663 19.0795 3.61663ZM17.8135 9.98763C17.7175 9.86963 17.6465 9.76063 17.5535 9.67663C17.3245 9.47063 17.0375 9.42763 16.8265 9.55263C16.6105 9.67963 16.4935 9.94563 16.5845 10.2446C16.6495 10.4636 16.7895 10.6596 16.9145 10.8996C16.8935 10.9116 16.8625 10.9416 16.8275 10.9496C16.3435 11.0576 16.1835 10.9516 16.0915 10.4666C15.9845 9.90563 16.1825 9.54963 16.7195 9.35563C16.9815 9.26163 17.2485 9.20363 17.5315 9.27163C17.9775 9.37863 18.0235 9.47063 17.8135 9.98763ZM18.1605 9.75463C18.3365 10.1656 18.3195 10.5046 18.2025 10.8376C18.1055 11.1146 17.9025 11.2976 17.6205 11.3836C17.2185 11.5056 16.8205 11.4836 16.4255 11.3286C17.3065 11.1666 18.0425 10.8566 18.1605 9.75463ZM17.9005 15.5616C18.0905 16.0206 17.8715 16.6636 17.3885 16.9916C17.1895 16.1336 17.3545 15.6866 17.9005 15.5616ZM18.8115 17.0596C18.8475 17.5436 18.4685 18.2246 17.9845 18.4986C17.3065 18.8816 16.6545 18.6966 16.0115 18.3796C16.4925 18.3116 16.9925 18.4336 17.4765 18.2136C17.4605 17.9906 17.4465 17.8096 17.4325 17.6296C17.4535 17.6156 17.4725 17.6016 17.4935 17.5896C17.6345 17.7306 17.7735 17.8726 17.9105 18.0096C18.3025 17.8346 18.3105 17.8246 18.8115 17.0596ZM15.4775 16.6706C15.6575 16.4706 15.8625 16.4576 16.0665 16.4986C16.4635 16.5776 16.7155 16.8486 16.9695 17.2336C16.3305 17.3116 15.8745 17.1126 15.4775 16.6706ZM16.2745 21.9466C15.8715 21.8776 15.5555 21.2626 15.5565 20.5106C16.1845 20.9436 16.4535 21.4966 16.2745 21.9466ZM17.5465 22.1986C17.2165 21.7606 17.3195 21.0726 17.7845 20.6276C18.0185 21.3206 17.9315 21.8986 17.5465 22.1986ZM18.9315 23.6156C18.4005 23.0536 17.8745 21.0346 18.5015 20.5026C19.2115 21.1636 19.5105 22.6866 18.9315 23.6156ZM18.8215 20.2106C19.5505 20.2106 20.1115 20.7246 20.2445 21.5426C19.5955 21.2296 19.1245 20.8346 18.8215 20.2106ZM19.7635 18.5046C20.0825 18.0096 20.2535 17.4586 20.3485 16.8816C20.3785 16.7016 20.4115 16.5226 20.4515 16.2916C20.5345 16.7606 20.4325 17.7316 20.2515 18.3326C20.2175 18.4446 20.1765 18.5566 20.1355 18.6676C19.7455 19.7246 18.9705 20.2526 17.8605 20.3186C17.3555 20.3486 16.8605 20.2946 16.3775 20.1506C15.4535 19.8786 14.6375 19.4066 13.9195 18.7676C13.8715 18.7256 13.8325 18.6746 13.7895 18.6276C13.8035 18.6026 13.8195 18.5786 13.8355 18.5546C13.9575 18.6196 14.0815 18.6816 14.2015 18.7496C14.9845 19.1946 15.7995 19.5726 16.6955 19.7006C17.1335 19.7636 17.5935 19.7706 18.0285 19.7026C18.7815 19.5846 19.3515 19.1426 19.7635 18.5046ZM20.5965 7.51063C20.8625 7.46863 21.1295 7.49263 21.3645 7.62963C22.0875 8.05063 22.8755 8.30663 23.6655 8.55863C23.7275 8.57863 23.7875 8.60563 23.8525 8.63063C23.5105 8.76463 23.3345 8.80363 23.1085 8.78163C23.1905 8.84163 23.2345 8.87563 23.2815 8.90563C23.3235 8.93163 23.3705 8.95163 23.4025 9.02163C23.2335 8.99263 23.0655 8.96263 22.8965 8.93263C22.8305 9.18763 22.6445 8.98263 22.5045 9.01763C22.5375 9.09163 22.5635 9.14863 22.6135 9.25863C22.4435 9.16663 22.3115 9.09663 22.1485 9.00963C22.1225 9.05663 22.0955 9.10563 22.0585 9.17163C21.9425 9.08963 21.8275 9.00863 21.6645 8.89263C21.6955 9.00563 21.7165 9.07763 21.7595 9.22763C21.5715 9.05663 21.4325 8.93163 21.2685 8.78163V9.00963C21.2515 9.02463 21.2345 9.04063 21.2175 9.05663C21.1445 8.94263 21.0725 8.82963 20.9815 8.68863C20.9295 8.81563 20.9065 8.87263 20.8745 8.95263C20.7975 8.84963 20.7305 8.76063 20.6625 8.66863C20.6215 8.71463 20.5965 8.74363 20.5485 8.79763C20.4625 8.64963 20.3805 8.51063 20.2855 8.34963C20.2385 8.43463 20.2095 8.48763 20.1905 8.51963C19.9405 8.33363 19.6915 8.14863 19.4245 7.94963C19.8075 7.69763 20.1925 7.57363 20.5965 7.51063ZM21.5515 19.9906C21.6635 20.2766 21.6355 20.5346 21.5035 20.6146C21.3715 20.6936 21.1595 20.5586 21.0075 20.2616C20.7865 19.8296 20.6355 19.3756 20.6555 18.7966C21.0845 19.1786 21.3775 19.5426 21.5515 19.9906ZM22.4875 19.3366C22.5295 19.3856 22.5715 19.4476 22.5795 19.5086C22.5935 19.6046 22.6165 19.7426 22.5655 19.7946C22.5125 19.8486 22.3745 19.8446 22.2785 19.8286C22.1915 19.8146 22.1065 19.7626 22.0325 19.7096C21.6315 19.4226 21.3085 19.0646 21.1085 18.5816C21.6435 18.7006 22.1245 18.9126 22.4875 19.3366ZM22.0645 16.0486C22.1885 15.9646 22.3495 15.9116 22.5005 15.8916C22.7045 15.8666 22.7905 16.0046 22.7095 16.1916C22.6785 16.2626 22.6345 16.3326 22.5805 16.3876C22.1955 16.7756 21.7355 17.0286 21.1825 17.1316C21.3725 16.6786 21.6705 16.3176 22.0645 16.0486ZM23.2005 18.6056C23.1425 18.7706 22.9665 18.7556 22.8255 18.7456C22.2655 18.7086 21.7775 18.4916 21.2615 18.1136C21.8815 17.9666 22.3985 18.0046 22.9095 18.1976C22.9335 18.2076 22.9555 18.2226 22.9765 18.2376C23.1045 18.3296 23.2655 18.4216 23.2005 18.6056ZM23.2595 17.2056C23.3155 17.3196 23.1725 17.4766 22.9085 17.5626C22.4045 17.7286 21.8925 17.7686 21.3075 17.6226C21.7815 17.2516 22.2535 17.0466 22.7835 16.9996C22.9625 16.9826 23.1635 17.0126 23.2595 17.2056ZM26.7465 23.4016C26.8495 23.4756 26.9335 23.5346 26.8675 23.7156C26.7955 23.9116 27.0435 23.9606 27.1745 24.0666C26.5815 24.2206 25.7765 23.7476 25.6345 23.1636C26.0425 23.0796 26.4115 23.1626 26.7465 23.4016ZM28.2775 18.8246C28.2435 18.9076 28.2135 18.9826 28.1825 19.0566C28.3015 19.1366 28.4265 19.1826 28.5975 19.2056C28.6075 19.2076 28.6175 19.2086 28.6275 19.2106C28.6985 19.2186 28.7775 19.2236 28.8675 19.2236C28.9145 19.2236 28.9645 19.2236 29.0175 19.2236C28.3445 19.9696 26.9565 19.9046 26.4815 19.0996C27.0195 18.6806 27.6135 18.6466 28.2775 18.8246ZM27.6575 16.5456C28.1775 16.4856 28.7385 16.8716 29.1325 17.5756C29.0555 17.5976 29.0105 17.6376 28.9765 17.6836C28.9635 17.7036 28.9495 17.7236 28.9405 17.7456C28.9165 17.8076 28.9075 17.8806 28.9075 17.9576C29.0615 18.0896 29.2175 18.2216 29.4105 18.3846C28.3795 18.4006 27.4995 17.4396 27.6575 16.5456ZM30.0105 19.1106C29.6615 19.2706 29.4495 19.1956 29.2845 18.8346C29.6315 18.7176 29.8305 18.8746 30.0105 19.1106ZM30.3265 15.5076C30.7355 15.8946 30.8495 16.5816 30.6195 17.2936C30.5395 17.2606 30.4595 17.2266 30.3685 17.1896C30.3985 17.3546 30.1115 17.3296 30.1895 17.5366C30.2425 17.6756 30.2375 17.8366 30.2625 18.0246C29.5145 17.4646 29.5795 15.9816 30.3265 15.5076ZM30.4305 18.9496C30.2935 18.6096 30.3625 18.4066 30.6705 18.2456C30.8375 18.5176 30.7835 18.6766 30.4305 18.9496ZM31.2645 18.8206C31.2855 18.8696 31.2445 18.9736 31.1965 19.0176C31.0295 19.1766 30.8205 19.1566 30.5345 19.1446C30.6985 18.8836 30.8655 18.7696 31.0765 18.7346C31.1365 18.7246 31.2445 18.7716 31.2645 18.8206ZM32.9755 16.7016C32.8565 17.3856 32.4715 17.8346 31.8875 18.1526C31.8495 18.0556 31.8025 17.8946 31.7855 17.8976C31.6575 17.9216 31.5135 17.9506 31.4165 18.0286C31.2995 18.1226 31.2225 18.2666 31.1095 18.4156C30.9335 17.5006 32.0995 16.4336 32.9755 16.7016ZM32.8805 24.1346C32.7595 24.3556 32.5605 24.4696 32.3285 24.5156C32.2425 24.5336 32.1415 24.4876 32.0505 24.4666C31.9535 24.4436 31.8585 24.4146 31.7355 24.3816C32.1555 24.0076 32.5035 23.9326 32.8805 24.1346ZM32.2365 23.2116C32.2955 23.7346 32.1305 24.0656 31.6255 24.1596C31.5765 23.7526 31.7925 23.3896 32.2365 23.2116ZM31.3355 20.8986C31.4055 20.8736 31.4735 20.8486 31.5425 20.8226C31.6685 20.4186 31.2495 20.3576 31.0895 20.1296C31.4345 20.0426 32.0375 20.3166 32.4355 20.7396C32.7585 21.0816 32.9225 21.4716 32.8105 21.9446C32.2235 21.9626 31.6415 21.5446 31.3355 20.8986ZM31.0745 23.0296C31.3435 23.1366 31.4765 23.3366 31.5005 23.5586C31.5195 23.7556 31.4315 23.9626 31.3795 24.2226C31.0735 23.8476 30.9405 23.4966 31.0745 23.0296ZM30.7835 25.0416C30.8755 24.7816 31.2095 24.9526 31.3055 24.7156C31.2435 25.3196 31.0975 25.5436 30.6875 25.7036C30.5965 25.4596 30.7085 25.2556 30.7835 25.0416ZM30.5405 24.4046C30.7915 24.2776 30.9195 24.6186 31.1545 24.5326C30.7385 24.9156 30.4365 24.9806 30.0355 24.8006C30.1365 24.5786 30.3425 24.5046 30.5405 24.4046ZM30.7505 20.2236C30.4325 20.1336 30.3805 20.0276 30.4185 19.5676C30.7525 19.6666 30.8545 19.8686 30.7505 20.2236ZM31.1935 24.3196C30.7595 24.2896 30.4025 24.1536 30.1825 23.7346C30.4335 23.5836 30.6375 23.7106 30.8525 23.7766C31.1335 23.8646 30.9725 24.1996 31.1935 24.3196ZM30.6175 19.3616C30.9845 19.2476 31.1745 19.3226 31.3055 19.6356C30.9915 19.7746 30.8175 19.7066 30.6175 19.3616ZM29.8185 21.1906C29.9565 21.1596 30.0015 21.4416 30.1205 21.2766C30.2005 21.1666 30.2145 20.9996 30.2295 20.8546C30.2425 20.7336 30.2165 20.6086 30.2045 20.4486C30.9495 21.1126 30.8785 22.4916 30.0835 22.9926C29.6755 22.4316 29.6185 21.8326 29.8185 21.1906ZM30.1765 18.9776C29.7845 18.7106 29.7225 18.5486 29.8815 18.2646C30.1845 18.4096 30.2345 18.5226 30.1765 18.9776ZM30.2125 19.5386C30.2775 20.0276 30.2125 20.1646 29.8955 20.2396C29.7975 19.9006 29.8425 19.7946 30.2125 19.5386ZM29.3005 19.6416C29.4485 19.3396 29.7045 19.3216 29.9955 19.3666C29.8335 19.7526 29.5865 19.8496 29.3005 19.6416ZM28.7185 24.4356C28.6425 24.4486 28.5125 24.4536 28.4945 24.4166C28.3595 24.1576 28.1395 24.2196 27.8985 24.2766C28.3245 23.7246 29.1735 23.5186 29.6795 23.8286C29.4475 24.1766 29.1235 24.3706 28.7185 24.4356ZM28.0965 25.0996C28.2045 24.8406 28.2045 24.8406 27.8635 24.5636C28.4685 24.4496 29.2605 24.9276 29.4025 25.5146C28.9025 25.5936 28.4795 25.4546 28.0965 25.0996ZM27.5465 25.2336C27.5795 25.2296 27.6175 25.0766 27.6215 24.9916C27.6245 24.9096 27.5875 24.8256 27.5605 24.7136C28.0935 25.0976 28.3115 25.9306 28.0255 26.5056C27.6695 26.2596 27.4795 25.9376 27.4065 25.5516C27.3855 25.4406 27.2895 25.2576 27.5465 25.2336ZM28.3505 23.6726C28.3275 23.7006 28.2695 23.7426 28.2585 23.7346C27.9525 23.5216 27.9115 23.8616 27.7605 23.9696C27.7545 23.9736 27.7355 23.9636 27.7235 23.9596C27.7075 23.2566 28.1175 22.5946 28.7005 22.4416C28.7725 22.9136 28.6545 23.3166 28.3505 23.6726ZM27.4595 21.7856C27.5955 21.1016 27.9695 20.6336 28.5855 20.3106C28.6105 20.4066 28.6325 20.4846 28.6525 20.5636C29.0065 20.4586 29.0065 20.4586 29.3215 20.1216C29.4225 20.4316 29.1875 20.9786 28.7705 21.4006C28.4165 21.7606 28.0085 21.9446 27.4595 21.7856ZM26.9675 22.1966C27.3635 22.3376 27.6215 22.7866 27.6315 23.3536C27.3815 23.5026 27.3815 23.5026 27.4495 23.9576C26.9155 23.4706 26.7335 22.7646 26.9675 22.1966ZM26.7565 24.9346C27.0395 25.0016 27.0395 25.0016 27.2545 24.6806C27.4305 25.1856 26.9825 25.9866 26.3905 26.2246C26.2085 25.8426 26.3535 25.3296 26.7565 24.9346ZM25.6935 25.4426C25.4305 26.0486 24.9405 26.3416 24.3965 26.2396C24.5635 25.6546 25.1075 25.3096 25.6935 25.4426ZM25.3315 24.8486C25.6255 24.4236 26.0255 24.2316 26.5135 24.1956C26.6895 24.4576 26.6895 24.4576 27.1105 24.4126C26.7145 24.9236 25.9255 25.1286 25.3315 24.8486ZM33.9535 19.3436C33.5505 19.7646 32.8255 19.8766 32.1645 19.6076C32.2025 19.5566 32.2385 19.5076 32.2735 19.4616C32.0725 19.1326 31.7615 19.2286 31.4565 19.2786C31.8685 18.5146 33.4715 18.5716 33.9535 19.3436ZM8.95349 8.27863C8.69849 9.32163 8.43649 10.3626 8.17649 11.4036C8.17349 11.4156 8.15849 11.4236 8.13849 11.4426C7.95649 11.3836 7.81249 11.3036 7.87749 11.0596C8.13849 10.0726 8.39749 9.08363 8.65849 8.09563C8.66549 8.07263 8.68749 8.05363 8.70849 8.02463C8.86649 8.03363 9.00249 8.07763 8.95349 8.27863ZM8.26049 14.6906C8.14549 14.6496 8.07249 14.6236 7.95949 14.5836C8.03849 14.7656 8.10249 14.9166 8.17949 15.0946C8.09049 15.0766 8.03349 15.0656 7.94949 15.0506C7.98249 15.1676 8.01249 15.2716 8.06049 15.4426C7.91549 15.3606 7.82649 15.3096 7.69549 15.2366C7.75149 15.4956 7.79749 15.7096 7.86149 16.0116C7.74049 15.8426 7.67149 15.7456 7.54949 15.5756C7.57349 15.8636 7.59149 16.0616 7.61449 16.3346C7.51849 16.2066 7.46849 16.1396 7.38849 16.0316V16.4956C7.37249 16.5016 7.35549 16.5066 7.33949 16.5126C7.29149 16.4286 7.24449 16.3446 7.16749 16.2066C7.15649 16.4086 7.14749 16.5576 7.13849 16.7316C7.07749 16.6736 7.03849 16.6356 6.97349 16.5736C6.94449 16.7096 6.92049 16.8206 6.88949 16.9636C6.83649 16.8976 6.79649 16.8486 6.73249 16.7706C6.64949 16.9146 6.57449 17.0456 6.48849 17.1936C6.45849 17.1266 6.43749 17.0806 6.40149 16.9996C6.27449 17.1356 6.15649 17.2616 6.01249 17.4136V17.1906C5.92049 17.2596 5.84249 17.3176 5.71449 17.4126C5.74549 17.3066 5.75249 17.2556 5.77449 17.2146C6.10849 16.5986 6.41549 15.9746 6.53649 15.2766C6.55549 15.1606 6.57349 15.0436 6.58649 14.9256C6.65049 14.3376 6.88049 13.8396 7.36149 13.4736C7.61149 13.2836 7.85249 13.0826 8.10549 12.8796C8.27249 13.0556 8.24649 13.2416 8.22749 13.4126C8.19049 13.7456 8.19049 14.0056 8.27049 14.2346C8.19649 14.2456 8.15249 14.2526 8.09349 14.2616C8.14949 14.4056 8.19649 14.5256 8.26049 14.6906ZM6.75549 10.3996C6.16549 9.81963 6.20449 8.85163 6.85049 8.23863C6.63249 8.94163 6.60749 9.65263 6.75549 10.3996ZM4.89349 9.36763C4.87949 10.2286 4.91549 10.3696 5.33449 11.1506C4.70549 10.9796 4.42149 9.94363 4.89349 9.36763ZM3.35349 10.8866C3.43249 11.0746 3.47849 11.2146 3.54849 11.3426C3.62849 11.4906 3.72049 11.6346 3.82249 11.7696C3.91049 11.8896 4.01849 11.9936 4.14549 12.1366C3.48749 11.9706 3.19649 11.5256 3.35349 10.8866ZM2.03749 12.3356C1.75849 12.0246 1.75949 11.8386 2.03749 11.5146V12.3356ZM0.811488 11.9776L0.732488 11.9726C0.737488 11.8686 0.742488 11.7646 0.747488 11.6606L0.858488 11.6666C0.843488 11.7696 0.827488 11.8746 0.811488 11.9776ZM20.7175 2.89863C20.5075 2.62163 20.3145 2.36963 20.0695 2.04663C20.6165 2.27363 20.7515 2.45763 20.7175 2.89863ZM22.1515 2.36463C21.9745 2.13363 21.8155 1.92663 21.6375 1.69563C22.0865 1.82663 22.1925 1.96263 22.1515 2.36463ZM22.5455 1.06363C22.6465 1.09863 22.7475 1.13163 22.8475 1.16563C22.8395 1.19463 22.8295 1.22263 22.8205 1.25063C22.7185 1.21963 22.6155 1.18863 22.5135 1.15763C22.5245 1.12563 22.5345 1.09563 22.5455 1.06363ZM37.4605 12.8486C37.2525 12.9876 37.0685 13.1156 36.8805 13.2356C36.7015 13.3496 36.5375 13.4956 36.3175 13.5426C36.6305 13.2156 36.9545 12.9086 37.2965 12.6216C37.4695 12.4766 37.5075 12.3356 37.3705 12.1246C37.0035 12.3666 36.7065 12.7056 36.3195 12.9196C36.5695 12.5886 36.8425 12.2846 37.1115 11.9786C37.3095 11.7546 37.3075 11.7536 37.1215 11.4146C36.8465 11.7176 36.5805 12.0116 36.3125 12.3056C36.2935 12.1866 36.3285 12.1066 36.3755 12.0356C36.5415 11.7826 36.7045 11.5266 36.8845 11.2836C37.0195 11.0996 37.0075 10.9566 36.8105 10.7996C36.5435 11.1416 36.2825 11.4756 36.0205 11.8096C35.9975 11.7946 35.9745 11.7776 35.9515 11.7616C36.1505 11.4116 36.3525 11.0626 36.5475 10.7116C36.6735 10.4856 36.6685 10.4826 36.4055 10.2986C36.1325 10.6766 35.9095 11.0936 35.5935 11.4406C35.7445 11.0116 35.9225 10.6006 36.1095 10.1946C36.1885 10.0236 36.1605 9.92763 35.9555 9.89663C35.6985 10.2816 35.5435 10.7206 35.2475 11.0746C35.3375 10.6846 35.4685 10.3156 35.5875 9.94163C35.6635 9.70363 35.6505 9.69663 35.3215 9.66663C35.1785 10.0486 35.0345 10.4366 34.8895 10.8256C34.8645 10.8186 34.8405 10.8126 34.8145 10.8066L34.9055 10.1996C34.9365 9.99663 34.9675 9.79463 34.9975 9.59863C34.7365 9.50463 34.7145 9.65463 34.6895 9.80463C34.6295 10.1736 34.5685 10.5436 34.5075 10.9136C34.4865 10.9106 34.4665 10.9086 34.4455 10.9056C34.4205 10.4636 34.3935 10.0206 34.3665 9.55163C34.2355 9.57163 34.1535 9.58363 34.0615 9.59763C34.0905 10.0116 34.1155 10.3986 34.1415 10.7866C34.1135 10.7916 34.0845 10.7976 34.0555 10.8036C33.9325 10.4226 33.8095 10.0426 33.6795 9.63763C33.5695 9.66263 33.4745 9.68363 33.3495 9.71363C33.5105 10.1276 33.6595 10.5126 33.8075 10.8956C33.7855 10.9066 33.7635 10.9186 33.7425 10.9296C33.4735 10.5616 33.2065 10.1956 32.9325 9.82063C32.8145 9.86463 32.7225 9.89963 32.5925 9.94863C32.7325 10.1306 32.8515 10.2846 32.9695 10.4376C33.0935 10.5986 33.2165 10.7576 33.3405 10.9176C33.3155 10.9376 33.2925 10.9596 33.2685 10.9796C33.1435 10.8736 33.0175 10.7666 32.8935 10.6586C32.7055 10.4936 32.5275 10.3146 32.3265 10.1676C32.2655 10.1236 32.1235 10.1366 32.0525 10.1786C32.0065 10.2066 31.9855 10.3556 32.0175 10.4166C32.0905 10.5536 32.1895 10.6826 32.3025 10.7916C32.6165 11.0926 32.9355 11.3876 33.2635 11.6726C33.6695 12.0236 33.9045 12.4696 34.0105 12.9866C34.1375 13.6156 33.9155 14.1066 33.3475 14.4096C32.8215 14.6916 32.2765 14.8006 31.6745 14.6326C30.1115 14.1966 28.5545 14.2086 27.0125 14.7616C26.4145 14.9746 25.7855 15.0606 25.1525 15.0976C23.9905 15.1626 22.8345 15.0926 21.6845 14.9246C21.3265 14.8716 20.9715 14.7956 20.6225 14.7316C20.7645 12.8496 20.2505 11.1126 19.8505 9.29863C20.0425 9.37963 20.1725 9.43263 20.2995 9.48963C20.9405 9.77563 21.6015 9.98563 22.3045 10.0556C23.4135 10.1636 24.3145 9.75763 25.0525 8.95363C25.1695 8.82763 25.2405 8.66063 25.3285 8.51863C24.9115 8.36663 24.5315 8.25163 24.1715 8.09363C23.1355 7.63563 22.1005 7.17563 21.0815 6.68363C20.6895 6.49563 20.3115 6.43163 19.8985 6.54063C19.5325 6.63763 19.1675 6.73963 18.8375 6.82963C18.5405 6.65363 18.2745 6.48363 17.9975 6.33463C17.6655 6.15463 17.5805 6.03163 17.6865 5.67963C17.7495 5.47163 17.8575 5.25963 17.9995 5.09763C18.2145 4.85063 18.4635 4.62863 18.7195 4.42563C19.5545 3.76763 20.4895 3.28863 21.4805 2.91063C21.7495 2.80863 22.0195 2.68763 22.2545 2.52463C22.9545 2.03863 23.2675 1.15063 23.0355 0.366634C22.9985 0.239634 22.9095 0.128634 22.8405 -0.000366211C22.5425 0.132634 22.4785 0.366634 22.4235 0.592634C22.3435 0.913634 22.1505 1.13063 21.8605 1.26363C21.6585 1.35563 21.4505 1.45263 21.2345 1.50063C20.5805 1.64463 19.9205 1.76563 19.2615 1.89563C18.1895 2.10563 17.1165 2.30563 16.0485 2.53163C15.5815 2.62963 15.1485 2.83263 14.7635 3.12063C14.1675 3.56763 13.8435 4.15763 13.8575 4.91463C13.8595 5.03163 13.8585 5.14763 13.8585 5.30363C13.6955 5.27963 13.5615 5.25963 13.4255 5.23863C13.4105 4.95663 13.3975 4.71663 13.3815 4.39563C13.1615 4.67763 12.9965 4.89063 12.8315 5.10263C12.8115 5.08963 12.7915 5.07663 12.7715 5.06363C12.8395 4.76863 12.9055 4.47363 12.9725 4.17863C12.9525 4.17063 12.9305 4.16163 12.9105 4.15363C12.6485 4.49563 12.3875 4.83763 12.1265 5.17963C12.1055 5.16563 12.0855 5.15163 12.0655 5.13763C12.1955 4.76263 12.3265 4.38663 12.4575 4.01163C12.4335 4.00163 12.4115 3.99263 12.3885 3.98163C12.1205 4.44163 11.8525 4.90163 11.5845 5.36063C11.5625 5.35163 11.5415 5.34363 11.5205 5.33463C11.5855 4.81463 11.6495 4.29463 11.7145 3.77363C11.6995 3.77063 11.6835 3.76663 11.6695 3.76363C11.4785 4.32863 11.2885 4.89363 11.0985 5.45963C11.0695 5.45363 11.0415 5.44863 11.0115 5.44363C10.9815 4.86263 10.9515 4.28263 10.9215 3.70263C10.6245 4.53863 10.4895 5.41363 10.1565 6.24363C10.0695 5.68063 9.98349 5.11763 9.89649 4.55463C9.88149 4.55663 9.86449 4.55663 9.84849 4.55763C9.79649 5.31163 9.74349 6.06463 9.69049 6.81863C9.66749 6.81863 9.64449 6.81863 9.62249 6.81763C9.57049 6.46163 9.51849 6.10563 9.46649 5.74963C9.44549 5.75063 9.42649 5.75263 9.40549 5.75363C9.33949 6.39763 9.27349 7.04263 9.20749 7.69163C9.13549 7.68263 9.09249 7.68863 9.05849 7.67263C8.47749 7.39763 7.87949 7.41963 7.28349 7.59263C5.96849 7.97563 4.88549 8.73363 3.97949 9.73963C3.51749 10.2526 2.99049 10.6526 2.35449 10.8936C1.83949 11.0896 1.30349 11.2336 0.774488 11.3876C0.540488 11.4556 0.296488 11.4906 0.000488281 11.5526C0.816488 12.4836 1.75649 12.9636 2.95849 12.8276C3.85649 12.7246 4.64549 12.3376 5.39349 11.8536C5.68049 11.6686 5.95649 11.4626 6.24749 11.2826C7.03549 10.7986 7.71449 11.2826 7.84349 11.9136C7.43049 12.3746 7.05749 12.8366 6.63649 13.2486C6.20149 13.6746 5.97249 14.1866 5.83449 14.7596C5.79849 14.9126 5.76049 15.0666 5.71949 15.2196C5.53549 15.9206 5.34049 16.6166 4.95849 17.2446C4.89049 17.3546 4.84949 17.4866 4.81949 17.6136C4.71649 18.0556 4.92449 18.3996 5.36449 18.5106C5.91549 18.6476 6.43549 18.5576 6.92549 18.2756C7.31949 18.0486 7.63749 17.7356 7.91949 17.3836C8.39149 16.7906 8.73049 16.1226 9.01849 15.4266C9.06049 15.3256 9.11149 15.2286 9.16949 15.1066C10.0255 16.2746 11.1945 17.0316 12.2755 17.8866C12.1365 18.5956 12.1195 19.2886 12.1855 19.9876C12.3275 21.4786 12.6975 22.9176 13.1855 24.3266C13.6315 25.6096 14.1485 26.8596 14.9145 27.9976C15.1065 28.2836 15.2205 28.6396 15.3025 28.9796C15.4755 29.6946 15.4285 30.4216 15.3035 31.1396C15.1415 32.0746 14.9405 32.9956 14.3685 33.7956C14.1175 34.1456 13.9225 34.5406 13.7325 34.9306C13.5635 35.2776 13.6415 35.4006 14.0155 35.4806C14.0675 35.4916 14.1205 35.4956 14.1725 35.5026C15.1515 35.6236 16.1175 35.5036 17.0795 35.3376C17.4305 35.2766 17.6335 35.0296 17.7205 34.7096C17.8005 34.4206 17.8245 34.1166 17.8805 33.7786C18.0195 34.0886 18.0285 34.3766 17.9545 34.6746C17.8685 35.0186 17.7725 35.3616 17.7015 35.7096C17.5815 36.3026 17.6685 36.4276 18.2705 36.4406C18.9285 36.4556 19.5895 36.4476 20.2455 36.4096C20.5005 36.3946 20.7665 36.3066 20.9965 36.1886C21.5495 35.9056 21.8315 35.4426 21.7865 34.8056C21.7785 34.7006 21.7605 34.5946 21.7695 34.4906C21.8745 33.3706 21.7765 32.2516 21.7205 31.1356C21.6905 30.5206 21.8925 30.0626 22.3415 29.6766C22.4715 29.5626 22.5895 29.5136 22.7665 29.5796C23.3155 29.7836 23.8945 29.8376 24.4745 29.8576C24.9745 29.8766 25.4755 29.8626 25.9755 29.8616C26.2835 29.8606 26.3675 29.8906 26.4315 30.1756C26.4915 30.4396 26.5445 30.7326 26.4905 30.9896C26.3995 31.4246 26.2645 31.8606 26.0705 32.2576C25.7925 32.8226 25.4455 33.3536 25.1245 33.8986C24.9645 34.1716 24.7795 34.4306 24.6365 34.7106C24.3575 35.2586 24.4705 35.5566 25.0455 35.7986C25.5585 36.0156 26.0975 36.1386 26.6535 36.1766C27.0415 36.2026 27.4135 36.1286 27.7485 35.9116C27.8005 35.8786 27.8605 35.8576 27.9255 35.8286C27.9735 36.4256 28.1075 36.6476 28.5935 36.7906C29.3995 37.0266 30.2145 36.9946 31.0015 36.7116C31.4945 36.5346 31.7515 36.1396 31.7445 35.6086C31.7405 35.3346 31.6865 35.0616 31.6555 34.7886C31.6355 34.6056 31.5855 34.4226 31.5995 34.2436C31.6715 33.3626 31.8135 32.4946 32.0905 31.6496C33.0165 28.8086 33.9695 25.9766 35.1045 23.2096C35.4685 22.3226 35.5415 21.3986 35.3995 20.4546C35.2515 19.4736 34.8825 18.5816 34.3595 17.7446C34.2805 17.6186 34.2165 17.4616 34.2115 17.3166C34.2055 17.1316 34.2675 16.9436 34.3015 16.7576C34.3815 16.8516 34.4085 16.9476 34.4295 17.0456C34.4525 17.1516 34.4695 17.2616 34.4985 17.4186C34.7875 17.1926 34.5575 16.9076 34.7135 16.6756C34.7645 16.8116 34.8025 16.9326 34.8555 17.0456C34.9035 17.1446 34.9005 17.3426 35.1255 17.2096C35.0745 17.0416 35.0235 16.8736 34.9665 16.6806C35.2885 16.7506 35.3195 17.2556 35.7675 17.1136C35.5945 16.9206 35.4525 16.7626 35.2845 16.5746C35.7205 16.6256 35.9465 17.1366 36.4685 16.9516C36.2555 16.8316 36.0895 16.7386 35.9245 16.6456C36.1705 16.6416 36.3855 16.6986 36.5935 16.7716C36.7885 16.8416 36.9045 16.7796 36.9985 16.5736C36.6415 16.5156 36.3135 16.4636 35.9855 16.4096C36.1205 16.3456 36.2495 16.3336 36.3785 16.3316C36.6155 16.3276 36.8525 16.3266 37.0905 16.3306C37.2775 16.3336 37.3875 16.2656 37.3775 16.0256C36.9385 16.0536 36.5105 16.0806 36.0805 16.1066C36.4535 15.9656 36.8335 15.8726 37.2185 15.8036C37.3855 15.7726 37.5145 15.7166 37.5955 15.5656V15.4076C37.1625 15.4866 36.7285 15.5646 36.2955 15.6426L36.2775 15.5726C36.7175 15.4386 37.1565 15.3046 37.5955 15.1706V14.7746L36.2865 15.1736C36.2775 15.1486 36.2675 15.1236 36.2585 15.0986C36.6975 14.8976 37.1275 14.6756 37.5955 14.5376V14.0626C37.2805 14.2046 36.9645 14.3456 36.6475 14.4866C36.6315 14.4586 36.6155 14.4316 36.5985 14.4036C36.7605 14.3056 36.9225 14.2036 37.0865 14.1076C37.2545 14.0116 37.4265 13.9206 37.5955 13.8266V13.4316C37.1995 13.6396 36.8025 13.8496 36.4055 14.0586L36.3585 13.9796C36.7715 13.6916 37.1835 13.4026 37.5955 13.1146V13.0356C37.5525 12.9756 37.5105 12.9176 37.4605 12.8486Z" fill="#DA4B32"/>
</g>
</svg>