<svg width="41" height="37" viewBox="0 0 41 37" fill="none" xmlns="http://www.w3.org/2000/svg">
<mask id="mask0" mask-type="alpha" maskUnits="userSpaceOnUse" x="0" y="0" width="41" height="37">
<path fill-rule="evenodd" clip-rule="evenodd" d="M0 0.00012207H40.1345V36.8213H0V0.00012207Z" fill="white"/>
</mask>
<g mask="url(#mask0)">
<path fill-rule="evenodd" clip-rule="evenodd" d="M37.5995 25.92C37.4925 25.512 37.5355 25.101 37.6415 24.71C37.8515 23.938 38.0835 23.168 38.3505 22.414C38.6345 21.608 38.9695 20.82 39.2845 20.025C39.3075 19.966 39.3405 19.91 39.3695 19.852C39.2235 21.039 38.9515 22.186 38.6105 23.318C38.4215 23.946 38.2945 24.592 38.1445 25.231C38.1235 25.318 38.1235 25.414 38.1255 25.505C38.1345 26.082 38.2865 26.284 38.8205 26.439C38.3185 26.725 37.7475 26.481 37.5995 25.92ZM37.1935 20.351C37.2505 20.127 37.2835 19.99 37.3215 19.856C37.5795 18.935 37.7055 18.005 37.5385 17.051C37.4295 16.421 37.1445 15.888 36.7035 15.431C36.1665 14.876 35.5345 14.455 34.8675 14.081L34.5275 13.891C37.1765 14.201 39.0525 17.369 37.1935 20.351ZM35.9185 21.259C35.3225 22.204 34.7035 23.133 33.9435 23.973C33.9875 23.858 34.0205 23.737 34.0785 23.629C34.3965 23.038 34.7185 22.45 35.0415 21.863C35.3275 21.345 35.6455 20.842 35.8975 20.309C36.2915 19.472 36.3765 18.592 36.1315 17.691C35.9775 17.121 35.8185 16.553 35.6625 15.984C36.0855 16.512 36.3475 17.14 36.4955 17.811C36.7655 19.033 36.5935 20.188 35.9185 21.259ZM38.0675 16.207C38.0465 16.164 38.0385 16.115 38.0125 16.025C39.3935 17.424 39.2205 19.905 38.0015 21.424C38.0315 21.308 38.0575 21.191 38.0905 21.076C38.2955 20.379 38.4395 19.673 38.4935 18.946C38.5635 17.998 38.4655 17.08 38.0675 16.207ZM31.7425 13.231C31.1425 13.424 30.5555 13.659 29.9625 13.875C29.9035 13.897 29.8425 13.917 29.7835 13.939C30.3295 13.464 30.9715 13.168 31.6515 12.958C33.1325 12.5 34.5835 12.572 36.0015 13.219C36.9595 13.656 37.8095 14.243 38.5085 15.036C38.9575 15.545 39.3115 16.111 39.4745 16.78C39.4985 16.879 39.5055 16.982 39.5335 17.171C39.4495 17.078 39.4135 17.052 39.3955 17.018C38.3905 15.12 36.7835 13.977 34.7975 13.272C33.7705 12.907 32.7615 12.901 31.7425 13.231ZM30.3135 17.655C29.8865 18.323 29.1555 18.522 28.6985 18.094C28.8765 17.514 29.8295 17.29 30.3135 17.655ZM29.3395 32.521C29.3735 32.711 29.3935 32.815 29.4115 32.917C29.4325 32.912 29.4465 32.912 29.4535 32.905C29.4715 32.889 29.4885 32.868 29.5255 32.826V34.098C29.1365 34.174 28.7545 34.178 28.3705 34.078C28.2335 34.043 28.1775 33.958 28.1805 33.82C28.1875 33.545 28.1805 33.269 28.2025 32.995C28.2085 32.911 28.3105 32.838 28.3325 32.751C28.3635 32.63 28.3605 32.5 28.4215 32.37C28.4855 32.669 28.5495 32.967 28.6295 33.343C28.6785 33.018 28.7145 32.777 28.7505 32.536C28.7775 32.538 28.8025 32.54 28.8285 32.542V33.267C28.8515 33.269 28.8745 33.272 28.8985 33.274C28.9595 32.986 29.0225 32.697 29.0845 32.409C29.1005 32.41 29.1165 32.41 29.1315 32.41C29.1575 32.557 29.1815 32.703 29.2065 32.85C29.2255 32.857 29.2445 32.863 29.2625 32.871C29.2815 32.785 29.3005 32.698 29.3395 32.521ZM29.4975 29.232C29.4475 28.851 29.3955 28.47 29.3455 28.1C29.7045 28.384 29.7695 28.829 29.4975 29.232ZM29.1245 34.864C29.0025 34.913 28.9335 34.941 28.8485 34.974C28.9335 34.999 29.0035 35.021 29.1505 35.066C28.9245 35.151 28.7625 35.214 28.5325 35.302C28.7475 35.355 28.8965 35.39 29.1465 35.45C28.9175 35.525 28.7715 35.573 28.5335 35.651C28.7595 35.671 28.8995 35.683 29.0555 35.696C28.9145 35.978 29.2325 35.807 29.2665 35.951C28.5995 36.358 27.9405 36.17 27.2365 35.945C27.2865 35.365 27.5515 34.942 27.8325 34.529C27.8685 34.479 27.9695 34.45 28.0405 34.449C28.4495 34.441 28.8565 34.445 29.2835 34.511C29.1115 34.578 28.9385 34.646 28.7455 34.721C28.8695 34.767 28.9725 34.807 29.1245 34.864ZM27.6365 22.352C27.4385 22.308 27.2545 22.202 27.0755 22.13C27.0905 21.985 27.3255 22.105 27.2455 21.917C27.3395 21.892 27.4325 21.866 27.5365 21.838C27.5105 21.762 27.4825 21.678 27.4475 21.571C27.5565 21.555 27.6565 21.54 27.7765 21.523C27.7125 21.418 27.6535 21.32 27.5775 21.196C27.6735 21.169 27.7555 21.146 27.8575 21.117C27.8285 21.034 27.8005 20.952 27.7615 20.84C27.8905 20.829 28.0105 20.819 28.1665 20.806C28.0915 20.727 28.0415 20.667 27.9855 20.616C27.9275 20.564 27.8625 20.519 27.7505 20.432C27.8825 20.389 27.9475 20.367 28.0515 20.333C27.9585 20.258 27.8755 20.191 27.7535 20.09C27.9075 20.043 28.0195 20.01 28.1825 19.961C28.0085 19.897 27.8895 19.854 27.7185 19.791C27.9065 19.673 28.0515 19.581 28.2735 19.441H27.6435C27.7575 19.288 27.8395 19.179 27.9605 19.016C27.6985 19.076 27.4895 19.124 27.2815 19.172C27.6265 18.878 28.0095 18.686 28.4415 18.603C28.9595 18.502 29.2895 18.816 29.2155 19.342C29.1815 19.585 29.0595 19.788 28.8795 19.953C28.7935 20.032 28.6965 20.102 28.5775 20.196C28.8095 20.375 29.0265 20.564 28.8975 20.899C28.7715 21.232 28.4715 21.25 28.1725 21.297C28.2175 21.452 28.2735 21.587 28.2925 21.726C28.3565 22.172 28.0725 22.449 27.6365 22.352ZM26.7245 21.176C26.4675 21.61 25.9795 21.735 25.3835 21.499C25.5265 21.299 25.6635 21.105 25.8575 20.831C25.5725 20.953 25.3745 21.038 25.1785 21.122C25.1605 21.105 25.1415 21.088 25.1225 21.071C25.2715 20.786 25.4195 20.502 25.6105 20.137C25.3725 20.228 25.2055 20.292 24.9615 20.386C25.1535 19.913 25.3175 19.509 25.4815 19.104C25.4645 19.092 25.4475 19.08 25.4305 19.068C25.1455 19.342 24.8615 19.614 24.5765 19.888C24.5535 19.871 24.5315 19.855 24.5075 19.837C24.7095 19.359 24.9115 18.882 25.1135 18.404C25.0925 18.392 25.0725 18.379 25.0525 18.367C24.7545 18.779 24.4575 19.191 24.1615 19.604C24.1345 19.594 24.1085 19.583 24.0815 19.572C24.1475 19.142 24.2125 18.71 24.2785 18.279C24.2625 18.27 24.2455 18.259 24.2295 18.249C23.9655 18.604 23.7015 18.957 23.3845 19.381C23.3715 19.137 23.3655 18.995 23.3545 18.786C23.2075 18.999 23.0905 19.168 22.9495 19.374C22.8945 19.185 22.8555 19.051 22.7975 18.852C22.7125 19.102 22.6485 19.291 22.5735 19.514C22.2445 19.213 22.0455 18.883 21.9675 18.487C21.9235 18.261 22.0205 18.075 22.2065 17.94C22.5935 17.657 23.0815 17.698 23.4255 18.042C23.4715 18.088 23.5115 18.14 23.5705 18.205C23.6935 18.037 23.7995 17.875 23.9225 17.727C24.3555 17.204 24.8145 17.079 25.3485 17.329C26.0225 17.645 26.3995 18.252 26.2755 18.864C26.2265 19.106 26.1205 19.335 26.0335 19.594C26.1545 19.684 26.2945 19.777 26.4225 19.886C26.8855 20.279 26.9885 20.73 26.7245 21.176ZM24.3295 29.364C24.7385 28.919 25.1395 28.482 25.5315 28.056C25.6745 28.668 24.9935 29.391 24.3295 29.364ZM21.6395 16.83C21.5415 16.806 21.4455 16.775 21.2875 16.731C21.4015 16.938 21.4855 17.092 21.5905 17.284C21.4485 17.274 21.3405 17.266 21.2045 17.255C21.2505 17.425 21.2895 17.572 21.3355 17.744C21.2185 17.76 21.1195 17.773 20.9895 17.789C21.0405 17.884 21.0865 17.968 21.1475 18.079C21.0625 18.119 20.9765 18.159 20.8735 18.208C20.9405 18.287 21.0055 18.364 21.0365 18.4C21.0015 18.527 20.9775 18.616 20.9485 18.725C20.6075 18.55 20.2695 18.365 20.2645 17.91C20.2605 17.535 20.5275 17.395 20.8745 17.328C20.7935 17.16 20.7315 17.045 20.6815 16.925C20.5865 16.7 20.6095 16.485 20.7685 16.297C20.9295 16.104 21.1205 16.176 21.3215 16.273C21.3215 16.113 21.2995 15.973 21.3265 15.84C21.3695 15.625 21.3995 15.389 21.5135 15.211C21.7585 14.83 22.1585 14.852 22.4105 15.227C22.4465 15.281 22.4795 15.339 22.5065 15.399C22.7005 15.817 22.8195 16.257 22.8295 16.733C22.7435 16.551 22.6565 16.368 22.5365 16.117C22.4995 16.301 22.4785 16.414 22.4425 16.601C22.3035 16.412 22.2005 16.272 22.0445 16.059C22.0845 16.315 22.1125 16.492 22.1505 16.732C22.0045 16.638 21.9065 16.573 21.7485 16.471C21.8255 16.629 21.8765 16.735 21.9565 16.902C21.8195 16.872 21.7285 16.854 21.6395 16.83ZM20.3645 21.508C20.5645 20.814 21.2245 20.463 21.8595 20.692C21.5925 21.403 20.9515 21.763 20.3645 21.508ZM19.5105 19.347C20.1515 19.154 20.7035 19.473 20.9895 20.176C20.3495 20.419 19.6375 20.03 19.5105 19.347ZM18.2915 20.978C18.7095 20.482 19.2145 20.433 19.7895 20.815C19.4285 21.338 18.7015 21.427 18.2915 20.978ZM13.9025 21.449C14.1755 21.387 14.3605 21.344 14.5785 21.294C14.5275 21.259 14.4925 21.234 14.4125 21.18C14.6605 21.047 14.9135 21.108 15.2035 21.043C15.0385 20.964 14.9145 20.904 14.7905 20.845L14.7995 20.789H15.4435C15.4515 20.769 15.4595 20.747 15.4675 20.727C15.3705 20.655 15.2745 20.584 15.1115 20.463C15.3445 20.491 15.5015 20.511 15.7315 20.539C15.6025 20.418 15.5175 20.339 15.3755 20.207C15.6565 20.262 15.8585 20.302 16.1235 20.354C16.0315 20.267 15.9785 20.211 15.9185 20.162C15.8505 20.105 15.7765 20.053 15.7275 19.929C15.9505 19.99 16.1725 20.052 16.3945 20.113C16.4025 20.101 16.4095 20.088 16.4165 20.075C16.2705 19.958 16.1235 19.841 15.9775 19.723C15.9845 19.701 15.9925 19.68 15.9985 19.658C16.2405 19.712 16.4805 19.766 16.7215 19.819C16.7205 19.796 16.7195 19.773 16.7185 19.75C16.5615 19.637 16.4045 19.523 16.1965 19.373C16.5265 19.304 16.7655 19.5 17.0755 19.475C16.8765 19.332 16.7105 19.211 16.4935 19.054C16.7995 18.991 17.0155 19.149 17.2785 19.113C17.0795 18.994 16.8815 18.874 16.6135 18.713C16.9835 18.668 17.2585 18.816 17.6415 18.812C17.4845 18.691 17.3805 18.612 17.2795 18.533C17.1675 18.447 17.0575 18.359 16.9695 18.208C17.2035 18.242 17.4395 18.276 17.6735 18.311L17.6945 18.267C17.5305 18.148 17.3655 18.028 17.2005 17.91C17.2035 17.888 17.2065 17.866 17.2105 17.845C17.4245 17.867 17.6395 17.89 17.8535 17.913C17.8605 17.897 17.8675 17.879 17.8735 17.862C17.7075 17.746 17.5405 17.63 17.3745 17.513C17.3785 17.49 17.3825 17.467 17.3875 17.444C17.6205 17.469 17.8525 17.494 18.1865 17.529C17.9215 17.311 17.7275 17.149 17.4685 16.935C17.7235 16.951 17.8975 16.962 18.1565 16.978C17.9565 16.835 17.8245 16.739 17.6145 16.589C17.8595 16.57 18.0305 16.559 18.2795 16.54C18.0735 16.418 17.9195 16.327 17.7265 16.212C17.9415 16.172 18.1025 16.141 18.3335 16.098C18.1455 15.988 18.0245 15.918 17.8435 15.814C18.0215 15.786 18.1285 15.771 18.2855 15.746C18.1355 15.629 18.0175 15.536 17.8705 15.421C18.0155 15.375 18.1255 15.342 18.2875 15.291C18.1465 15.226 18.0485 15.181 17.9205 15.123C18.0325 15.057 18.1175 15.006 18.2115 14.95C17.8805 14.75 18.1735 14.428 18.0215 14.198C18.9455 15.174 19.3625 17.279 18.4645 19.072C17.6425 20.716 15.7155 21.765 13.9025 21.449ZM13.8395 17.698C14.2025 17.971 14.2105 18.207 13.8905 18.611C13.5185 18.26 13.4985 18.012 13.8395 17.698ZM13.6395 19.675C13.5545 19.805 13.4035 19.887 13.2755 19.78C13.2005 19.718 13.1645 19.546 13.1885 19.44C13.2415 19.193 13.4605 19.112 13.7285 19.03C13.8105 19.282 13.7615 19.488 13.6395 19.675ZM12.9405 18.732C12.9275 18.656 12.9595 18.549 13.0115 18.493C13.1205 18.374 13.2705 18.367 13.3995 18.463C13.5185 18.554 13.6205 18.668 13.7295 18.773C13.7235 18.811 13.7185 18.85 13.7125 18.888C13.5545 18.923 13.3985 18.978 13.2385 18.986C13.0785 18.995 12.9665 18.885 12.9405 18.732ZM12.3685 20.55C12.1745 20.674 11.9715 20.649 11.6745 20.547C11.8075 20.355 11.8905 20.192 12.0115 20.067C12.1565 19.917 12.3935 19.935 12.5025 20.072C12.6025 20.197 12.5395 20.44 12.3685 20.55ZM12.1475 21.696C11.9895 21.746 11.8645 21.667 11.7795 21.544C11.6395 21.34 11.6285 21.111 11.6705 20.859C11.9705 20.894 12.1815 21.017 12.2805 21.289C12.3375 21.448 12.2675 21.659 12.1475 21.696ZM11.4305 20.349C11.3565 20.214 11.2635 20.085 11.2125 19.942C11.1545 19.78 11.1505 19.608 11.2735 19.459C11.3905 19.316 11.5335 19.302 11.6205 19.463C11.6905 19.59 11.7285 19.759 11.7115 19.9C11.6935 20.058 11.5955 20.205 11.5335 20.358L11.4305 20.349ZM11.2835 21.513C11.1995 21.666 11.0565 21.729 10.8835 21.671C10.7495 21.627 10.7025 21.451 10.7735 21.266C10.8795 20.988 11.1065 20.894 11.3945 20.864C11.4545 21.11 11.3895 21.318 11.2835 21.513ZM10.4745 20.477C10.4625 20.389 10.4955 20.265 10.5565 20.204C10.6825 20.077 10.8525 20.089 10.9875 20.196C11.1155 20.298 11.2195 20.43 11.3415 20.556C11.1635 20.722 10.9925 20.778 10.8035 20.764C10.6305 20.75 10.4985 20.651 10.4745 20.477ZM10.3965 18.906C10.1565 18.962 9.90051 18.977 9.65351 18.966C9.20351 18.946 8.85651 18.714 8.60051 18.352C8.29551 17.923 8.16951 17.433 8.19151 16.888C8.38051 17.253 8.56951 17.618 8.75851 17.983C8.77751 17.978 8.79651 17.972 8.81551 17.966L8.59551 17.049C8.61851 17.037 8.64051 17.025 8.66251 17.015C8.87551 17.373 9.08851 17.732 9.30251 18.092C9.31851 18.085 9.33351 18.079 9.35051 18.073C9.24851 17.723 9.14751 17.373 9.04551 17.023C9.06951 17.012 9.09351 17.001 9.11851 16.99C9.26651 17.216 9.41451 17.441 9.56351 17.666C9.58451 17.656 9.60751 17.647 9.62851 17.636C9.56051 17.432 9.49151 17.228 9.42251 17.023C9.44151 17.01 9.45951 16.996 9.47951 16.982C9.71151 17.284 9.94451 17.586 10.1775 17.887L10.2305 17.863C10.1575 17.568 10.0835 17.273 9.99251 16.904C10.3295 17.177 10.4225 17.553 10.7455 17.838C10.6665 17.467 10.6025 17.166 10.5375 16.865C10.5575 16.858 10.5775 16.852 10.5965 16.844C10.7515 17.122 10.9065 17.4 11.0605 17.68C11.0795 17.671 11.0995 17.663 11.1195 17.654C11.0445 17.352 10.9705 17.05 10.8975 16.747C10.9165 16.734 10.9365 16.722 10.9555 16.71L11.5305 17.574C11.5425 17.568 11.5545 17.563 11.5675 17.557C11.4775 17.207 11.3885 16.857 11.2985 16.507C11.3185 16.496 11.3375 16.485 11.3575 16.476C11.5475 16.686 11.7385 16.896 11.9275 17.107C11.9505 17.096 11.9715 17.085 11.9945 17.074C11.8935 16.818 11.7935 16.564 11.6825 16.276C11.8585 16.279 11.9325 16.414 12.0375 16.49C12.1405 16.565 12.2375 16.648 12.3915 16.691C12.3025 16.45 12.2135 16.209 12.0895 15.873C12.3205 16.001 12.4775 16.088 12.6355 16.176C12.6505 16.163 12.6645 16.15 12.6795 16.139C12.6075 16.01 12.5355 15.882 12.4625 15.754C12.4745 15.736 12.4865 15.72 12.4985 15.703C12.6495 15.784 12.7985 15.866 13.0095 15.981C12.9125 15.733 12.8345 15.539 12.7235 15.26C12.9155 15.367 13.0245 15.428 13.2025 15.527C13.1095 15.278 13.0375 15.083 12.9395 14.816C13.1075 14.907 13.2105 14.963 13.3645 15.045C13.2835 14.815 13.2195 14.634 13.1335 14.389C13.3185 14.471 13.4515 14.53 13.6625 14.624C13.5215 14.38 13.4155 14.197 13.2825 13.964C13.4415 13.993 13.5495 14.013 13.6625 14.032C13.6675 14.01 13.6825 13.983 13.6745 13.973C13.5985 13.855 13.5175 13.739 13.3935 13.559C13.5805 13.619 13.6985 13.657 13.8715 13.714C13.7465 13.497 13.6425 13.317 13.5035 13.076C13.6905 13.138 13.8095 13.177 13.9775 13.232C13.8765 13.03 13.6065 12.903 13.8035 12.611C13.9935 12.815 14.1975 12.999 14.3545 13.218C14.4285 13.321 14.4525 13.496 14.4305 13.627C14.1645 15.194 13.5685 16.607 12.4265 17.746C11.8585 18.315 11.1855 18.724 10.3965 18.906ZM10.6495 29.44C10.6645 29.44 10.6815 29.441 10.6975 29.441C10.7145 29.514 10.7325 29.585 10.7545 29.68C10.7855 29.609 10.8075 29.557 10.8525 29.452C10.8835 29.566 10.9055 29.643 10.9355 29.754C11.0075 29.616 11.0685 29.502 11.1685 29.313C11.1935 29.524 11.2075 29.649 11.2295 29.834C11.2655 29.706 11.2865 29.631 11.3205 29.509C11.3805 29.611 11.4175 29.675 11.4725 29.769C11.4895 29.724 11.5025 29.687 11.5165 29.651C11.5245 29.63 11.5325 29.608 11.5395 29.588C11.6615 29.749 11.7245 29.83 11.7535 29.91C11.7835 29.991 11.7785 30.07 11.7625 30.23C11.7275 30.578 11.6655 30.925 11.6095 31.32C11.1855 31.159 10.8235 31.022 10.4255 30.871C10.5025 30.38 10.5765 29.909 10.6495 29.44ZM9.89451 30.899C9.40151 30.433 8.98351 29.96 8.82951 29.249C9.00451 29.38 9.16051 29.498 9.31651 29.615C9.33451 29.605 9.35351 29.595 9.37151 29.584C9.30551 29.446 9.23851 29.308 9.17151 29.17C9.18251 29.16 9.19451 29.15 9.20451 29.142C9.32151 29.246 9.43851 29.352 9.60851 29.506C9.51551 29.274 9.45051 29.113 9.38451 28.952C9.40751 28.936 9.42951 28.92 9.45151 28.904C9.53151 29.003 9.61151 29.102 9.75251 29.276C9.66351 29.003 9.60351 28.816 9.52051 28.562C9.64551 28.651 9.71851 28.704 9.82251 28.779C9.77451 28.636 9.73651 28.522 9.68451 28.364C9.80551 28.428 9.88151 28.468 9.98951 28.524C9.95151 28.394 9.92251 28.297 9.88851 28.181C9.95551 28.14 10.0275 28.097 10.1375 28.03C10.1785 28.167 10.2265 28.273 10.2385 28.382C10.2675 28.649 10.1905 28.937 10.4265 29.155C10.4535 29.181 10.4465 29.259 10.4345 29.307C10.3225 29.751 10.2115 30.196 10.0855 30.637C10.0595 30.727 9.96951 30.799 9.89451 30.899ZM8.17651 25.159C8.25751 24.801 8.50551 24.588 8.83351 24.454C8.47551 24.878 8.39851 25.384 8.34651 25.95C8.12051 25.686 8.11651 25.426 8.17651 25.159ZM7.96851 24.612C7.92551 24.76 7.85151 24.899 7.76351 25.026C7.79351 24.542 7.85551 24.09 8.37351 23.835C8.77951 23.635 9.15251 23.369 9.53951 23.133C9.55951 23.16 9.57851 23.187 9.59751 23.214C9.22951 23.464 8.86951 23.726 8.48951 23.958C8.22851 24.117 8.05351 24.319 7.96851 24.612ZM8.67551 21.332C8.57051 21.57 8.50951 21.771 8.39951 21.939C8.26951 22.137 8.04151 22.164 7.88751 22.038C7.76851 21.941 7.76951 21.705 7.90351 21.54C8.07851 21.324 8.31751 21.295 8.67551 21.332ZM8.78851 20.899C8.43651 20.383 8.49351 20.008 8.95051 19.83C9.29451 20.173 9.24051 20.53 8.78851 20.899ZM9.21351 22.356C9.04951 22.388 8.84251 22.226 8.81351 21.999C8.78751 21.795 8.80751 21.585 8.80751 21.301C9.12551 21.445 9.31551 21.595 9.39351 21.851C9.46151 22.073 9.36451 22.326 9.21351 22.356ZM8.96851 21.068C9.03951 20.863 9.19151 20.724 9.37951 20.631C9.58651 20.528 9.84551 20.638 9.89951 20.831C9.94351 20.993 9.78151 21.217 9.58551 21.265C9.40151 21.31 9.22051 21.254 8.96851 21.068ZM7.76451 20.459C7.86051 20.338 8.07751 20.334 8.22851 20.443C8.41551 20.577 8.51051 20.773 8.61251 21.066C8.38351 21.074 8.21651 21.104 8.05951 21.075C7.95651 21.058 7.84651 20.975 7.78051 20.89C7.68151 20.762 7.65151 20.601 7.76451 20.459ZM7.31751 12.453C7.33451 12.428 7.35351 12.401 7.37151 12.375C7.46251 12.423 7.55451 12.471 7.70251 12.549C7.66051 12.433 7.63251 12.358 7.58251 12.22C7.82151 12.359 8.01651 12.473 8.21151 12.586C8.22251 12.573 8.23351 12.561 8.24551 12.549C8.19251 12.466 8.14051 12.383 8.08651 12.299C8.11651 12.29 8.14651 12.272 8.15751 12.279C8.27051 12.359 8.38051 12.443 8.52051 12.501L8.29151 12.12C8.30551 12.106 8.32051 12.091 8.33351 12.076C8.50451 12.201 8.67451 12.327 8.84551 12.453C8.86051 12.442 8.87551 12.431 8.89051 12.42C8.80651 12.24 8.72151 12.06 8.63651 11.88C8.65551 11.865 8.67351 11.85 8.69151 11.835C8.80651 11.987 8.92051 12.139 9.03651 12.29C9.06551 12.268 9.09551 12.245 9.12451 12.223L8.91351 11.748C8.93151 11.736 8.94951 11.725 8.96651 11.712C9.10851 11.865 9.25051 12.018 9.39351 12.171C9.40851 12.159 9.42351 12.149 9.43951 12.137C9.34851 11.926 9.25751 11.716 9.16651 11.505C9.18451 11.491 9.20151 11.478 9.21751 11.464C9.35951 11.604 9.50051 11.742 9.64251 11.882C9.65851 11.874 9.67351 11.867 9.68851 11.859C9.61651 11.688 9.54251 11.516 9.47051 11.344C9.48451 11.328 9.49751 11.312 9.51151 11.296C9.66251 11.412 9.81351 11.527 9.96451 11.644C9.97851 11.633 9.99151 11.621 10.0035 11.61C9.89251 11.415 9.78251 11.221 9.67051 11.025C9.68651 11.014 9.70151 11.002 9.71651 10.99C9.87251 11.102 10.0305 11.214 10.1865 11.325L10.2395 11.296C10.1315 11.105 10.0235 10.914 9.91451 10.723C9.92951 10.708 9.94451 10.693 9.95851 10.678L10.4955 11.024C10.5095 11.012 10.5245 11.001 10.5375 10.989C10.4475 10.826 10.3555 10.662 10.2635 10.499L10.2985 10.455C10.4165 10.551 10.5365 10.647 10.7115 10.788C10.6155 10.555 10.5435 10.383 10.4605 10.18C10.5535 10.208 10.6095 10.224 10.6895 10.247C10.6485 10.133 10.6125 10.033 10.5765 9.932C10.5985 9.916 10.6205 9.899 10.6435 9.881C10.7045 9.977 10.7665 10.072 10.8285 10.168C10.8505 10.155 10.8725 10.143 10.8945 10.131C10.8435 9.971 10.7915 9.811 10.7405 9.651C10.7655 9.63 10.7905 9.609 10.8165 9.588C10.8635 9.693 10.9105 9.798 10.9565 9.904C10.9845 9.882 11.0105 9.86 11.0375 9.838L10.9035 9.276C10.9155 9.268 10.9285 9.26 10.9415 9.252C10.9845 9.318 11.0385 9.379 11.0685 9.45C11.8485 11.396 10.3225 13.162 8.57951 13.109C8.05551 13.094 7.64151 12.845 7.31751 12.453ZM6.51651 10.022C6.65651 10.098 6.74351 10.145 6.82951 10.192C6.94851 9.984 7.06651 9.978 7.37551 10.198C7.33351 10.085 7.31151 10.024 7.26451 9.899C7.40051 9.99 7.48851 10.05 7.61651 10.137C7.59651 10.04 7.58351 9.976 7.56051 9.86C7.74451 9.905 7.90751 9.945 8.09051 9.99C8.06551 9.925 8.03151 9.836 7.97551 9.691C8.08251 9.763 8.15051 9.808 8.23351 9.864V9.673C8.29251 9.7 8.34651 9.723 8.42451 9.757C8.41051 9.676 8.39951 9.614 8.38251 9.522C8.45051 9.545 8.50251 9.564 8.56251 9.584C8.57651 9.524 8.58951 9.464 8.60451 9.398C8.66451 9.423 8.72051 9.447 8.78751 9.474C8.77851 9.403 8.77051 9.344 8.75851 9.245C8.85251 9.301 8.92251 9.342 9.00351 9.391C8.99551 9.309 8.98751 9.237 8.97251 9.113C9.08751 9.182 9.16551 9.229 9.30551 9.312C9.23651 9.137 9.19451 9.034 9.12451 8.859C9.29151 8.954 9.39551 9.013 9.53551 9.092C9.48151 8.97 9.44351 8.881 9.38351 8.746C9.50651 8.803 9.58251 8.839 9.69851 8.892C9.64651 8.756 9.60651 8.65 9.56051 8.528C9.59951 8.528 9.64051 8.516 9.66251 8.531C9.74751 8.587 9.82651 8.652 9.98351 8.772C9.89451 8.57 9.84351 8.455 9.76651 8.28C9.88051 8.333 9.95351 8.366 10.0605 8.416C9.96351 8.097 10.0895 7.863 10.2895 7.645C10.6615 8.216 10.6585 8.641 10.2675 9.145C9.82851 9.714 9.29551 10.184 8.65351 10.512C8.43351 10.623 8.19251 10.708 7.95151 10.762C7.33651 10.899 6.86851 10.661 6.51651 10.022ZM6.21351 2.326C6.14551 2.407 6.09051 2.474 6.02751 2.549C5.96951 2.464 5.91851 2.39 5.84351 2.278C5.85251 2.425 5.85951 2.532 5.86651 2.633C5.79051 2.603 5.71351 2.57 5.58451 2.517C5.44951 2.214 5.48751 0.962 5.66451 0.594C5.92651 1.245 6.19251 1.905 6.49651 2.663C6.36851 2.509 6.29451 2.422 6.21351 2.326ZM5.80351 6.576C5.45851 6.784 5.00051 6.724 4.53651 6.353C5.49051 6.483 6.02951 6.081 6.32051 5.252C6.42351 5.733 6.16251 6.358 5.80351 6.576ZM5.98051 4.988C5.93951 5.441 5.84351 5.618 5.52451 5.847C5.49051 5.691 5.46451 5.539 5.42451 5.392C5.38851 5.26 5.31851 5.114 5.16651 5.147C5.05651 5.17 4.91351 5.274 4.87951 5.373C4.81451 5.566 4.81551 5.781 4.78451 6.024C4.68151 6.058 4.52751 6.074 4.55851 5.881C4.62451 5.484 4.78151 5.115 5.16951 4.921C5.43651 4.789 5.70451 4.84 5.98051 4.988ZM4.20851 5.534C4.20051 5.136 4.49651 4.631 4.86151 4.442C5.26651 4.232 5.63951 4.334 5.99251 4.582C5.06451 4.553 4.75551 4.739 4.20851 5.534ZM3.82751 0.87C4.05451 1.463 4.28351 2.056 4.52051 2.673C4.43751 2.718 4.31351 2.785 4.14551 2.876C3.82651 2.219 3.74951 1.552 3.82751 0.87ZM9.23851 1.972C8.85851 2.488 8.13951 2.617 7.55451 2.264C8.16951 2.295 8.72851 2.273 9.23851 1.972ZM7.93451 2.677C8.53751 2.619 9.08451 2.508 9.55551 2.162C9.25151 2.712 8.60651 2.92 7.93451 2.677ZM8.24551 2.941C8.82151 2.905 9.34651 2.742 9.84051 2.378C9.53251 2.959 8.80051 3.213 8.24551 2.941ZM10.8155 2.961C10.5415 3.536 9.96651 3.748 9.19551 3.566C9.76651 3.484 10.3215 3.363 10.8155 2.961ZM11.0605 3.513C10.8285 3.951 10.0545 4.105 9.49851 3.777C9.79751 3.761 10.0695 3.772 10.3315 3.727C10.5855 3.683 10.8295 3.583 11.0605 3.513ZM11.5165 3.814C11.0475 4.303 10.4665 4.387 9.87451 4.054C10.4445 4.117 10.9905 4.039 11.5165 3.814ZM11.6305 4.403C11.1925 4.792 10.5275 4.765 10.0165 4.34C10.5495 4.481 11.0855 4.541 11.6305 4.403ZM10.3475 4.75C10.9045 4.889 11.4575 4.95 12.0285 4.752C11.6805 5.196 10.9345 5.2 10.3475 4.75ZM12.4465 5.222C11.8995 5.676 11.0595 5.644 10.4635 5.146C10.8045 5.204 11.1215 5.292 11.4415 5.304C11.7635 5.316 12.0885 5.254 12.4465 5.222ZM10.7315 5.608C11.2695 5.707 11.8055 5.788 12.3465 5.602C11.8835 6.018 11.2895 6.021 10.7315 5.608ZM12.2955 5.94C11.8535 6.394 11.1475 6.39 10.5945 5.938C11.1555 6.088 11.7085 6.126 12.2955 5.94ZM10.8645 6.474C11.4085 6.599 11.9465 6.647 12.5565 6.432C12.0465 6.898 11.4125 6.9 10.8645 6.474ZM10.8825 6.738C11.6045 6.958 12.3285 7.102 13.1295 6.825C12.5605 7.397 11.5945 7.348 10.8825 6.738ZM11.1615 7.23C11.8235 7.501 12.4965 7.669 13.2465 7.488C12.7035 7.977 11.8185 7.867 11.1615 7.23ZM11.4495 7.773C11.9865 7.947 12.5195 8.125 13.1605 7.95C12.6555 8.358 11.9975 8.278 11.4495 7.773ZM11.6425 8.218C12.1765 8.402 12.7215 8.506 13.2875 8.428C12.7405 8.775 12.1835 8.706 11.6425 8.218ZM14.0785 8.921C13.5495 9.413 12.6915 9.369 11.9975 8.788C12.2065 8.843 12.4135 8.915 12.6265 8.95C12.8705 8.991 13.1205 9.022 13.3685 9.017C13.5995 9.013 13.8285 8.957 14.0785 8.921ZM12.5245 9.399C13.0555 9.511 13.5825 9.543 14.1605 9.368C13.6945 9.807 13.0625 9.813 12.5245 9.399ZM14.7005 10.121C14.1555 10.474 13.5415 10.381 13.0135 9.867C13.5965 10.048 14.1245 10.262 14.7005 10.121ZM13.4995 10.356C14.0115 10.533 14.5315 10.652 15.0745 10.599C14.5565 10.919 14.0145 10.835 13.4995 10.356ZM15.6215 11.04C15.0465 11.435 14.3935 11.346 13.8975 10.844C14.4405 11.042 14.9785 11.182 15.6215 11.04ZM16.1805 11.589C15.6165 11.969 14.9865 11.878 14.4145 11.341C15.0115 11.56 15.5435 11.705 16.1805 11.589ZM16.1965 16.956C16.2015 17.026 16.1755 17.141 16.1285 17.163C16.0605 17.196 15.9435 17.195 15.8775 17.156C15.7045 17.056 15.6645 16.874 15.6475 16.687C15.9965 16.637 16.1785 16.724 16.1965 16.956ZM15.8145 16.034C15.8715 15.969 16.0205 15.982 16.1275 15.961C16.1405 16.069 16.1985 16.199 16.1575 16.282C16.0605 16.482 15.8725 16.525 15.6065 16.471C15.6825 16.301 15.7185 16.142 15.8145 16.034ZM16.1355 14.573C16.2095 14.753 16.2125 14.911 16.0935 15.05C16.0575 15.092 15.9625 15.134 15.9285 15.115C15.8715 15.084 15.8065 15.004 15.8075 14.944C15.8095 14.744 15.9225 14.621 16.1355 14.573ZM15.5235 14.526C15.4875 14.494 15.4865 14.359 15.5215 14.325C15.5785 14.272 15.6845 14.232 15.7585 14.245C15.8505 14.262 15.9305 14.34 16.0665 14.421C15.9335 14.505 15.8555 14.584 15.7635 14.602C15.6895 14.616 15.5815 14.579 15.5235 14.526ZM15.1495 15.914C15.1565 15.838 15.2425 15.707 15.2865 15.709C15.3715 15.714 15.5125 15.783 15.5255 15.847C15.5595 16.016 15.5375 16.196 15.5375 16.444C15.2545 16.302 15.1275 16.147 15.1495 15.914ZM15.0835 17.053C15.1545 16.928 15.2755 16.83 15.3745 16.721C15.4125 16.736 15.4495 16.751 15.4855 16.766C15.4855 16.905 15.5025 17.048 15.4815 17.184C15.4545 17.348 15.2955 17.462 15.1835 17.428C15.0755 17.395 15.0025 17.195 15.0835 17.053ZM14.7085 16.563C14.7285 16.414 14.8345 16.314 14.9775 16.338C15.1195 16.361 15.2495 16.448 15.3855 16.507C15.3875 16.54 15.3895 16.573 15.3925 16.607C15.2625 16.676 15.1395 16.77 15.0015 16.808C14.8625 16.847 14.6925 16.693 14.7085 16.563ZM12.6115 10.544C11.9405 9.81 11.4235 8.975 11.0265 8.065C11.0015 8.008 10.9855 7.947 10.9645 7.889C11.5785 8.85 12.2195 9.776 13.0195 10.586C13.8215 11.399 14.7365 12.048 15.8915 12.513C15.7545 12.533 15.7145 12.548 15.6765 12.543C15.6255 12.536 15.5775 12.514 15.5275 12.497C14.3785 12.11 13.4225 11.433 12.6115 10.544ZM8.65551 14.656C8.90051 14.843 9.06851 14.971 9.23551 15.098C9.24651 15.087 9.25751 15.076 9.26851 15.066C9.18351 14.897 9.09751 14.729 9.01151 14.56C9.02651 14.546 9.03951 14.532 9.05351 14.52C9.19751 14.64 9.33951 14.76 9.48351 14.88L9.52751 14.857C9.44251 14.678 9.35851 14.499 9.27351 14.32C9.28751 14.309 9.30251 14.296 9.31751 14.283C9.51151 14.426 9.70651 14.569 9.90151 14.712C9.91551 14.701 9.92951 14.691 9.94451 14.682C9.83651 14.497 9.73051 14.313 9.62251 14.128C9.63851 14.11 9.65451 14.092 9.66951 14.073C9.92451 14.259 10.1805 14.443 10.4365 14.629C10.4525 14.619 10.4675 14.609 10.4835 14.601C10.3335 14.357 10.1855 14.113 10.0375 13.869C10.0545 13.851 10.0735 13.833 10.0905 13.815C10.2775 13.964 10.4625 14.112 10.6955 14.299C10.6635 13.987 10.4195 13.828 10.3505 13.494C10.5875 13.687 10.7655 13.83 10.9425 13.974C10.9565 13.964 10.9725 13.954 10.9875 13.944C10.8885 13.778 10.7885 13.613 10.6895 13.447C10.7065 13.433 10.7245 13.418 10.7415 13.403C10.9105 13.558 11.0785 13.713 11.2465 13.867C11.2605 13.859 11.2745 13.853 11.2875 13.845C11.1785 13.64 11.0705 13.435 10.9615 13.23C10.9785 13.215 10.9955 13.199 11.0135 13.185C11.2105 13.323 11.4095 13.462 11.6065 13.602L11.6595 13.566C11.5425 13.373 11.4265 13.18 11.3115 12.986L11.3465 12.937C11.4905 13.04 11.6345 13.144 11.7785 13.248C11.7935 13.237 11.8085 13.227 11.8235 13.216C11.7265 13.011 11.6305 12.806 11.4935 12.512C11.6945 12.649 11.8135 12.732 12.0125 12.869C11.8785 12.608 11.7875 12.429 11.6945 12.249C11.7045 12.236 11.7165 12.224 11.7285 12.211C11.8385 12.282 11.9505 12.355 12.1215 12.466C12.0295 12.258 11.9635 12.109 11.8685 11.896C12.0145 11.953 12.1015 11.987 12.2475 12.044C12.1315 11.832 12.0355 11.655 11.9045 11.416C12.0405 11.477 12.1245 11.515 12.2575 11.573C12.1695 11.409 12.0995 11.278 12.0195 11.13C12.0755 11.124 12.1195 11.119 12.1815 11.113C12.1405 11.02 12.1015 10.931 12.0605 10.838C12.1385 10.804 12.1985 10.778 12.2565 10.753C12.2775 10.768 12.3025 10.778 12.3135 10.798C13.0065 12.088 12.8295 13.377 11.8125 14.418C11.1275 15.118 10.3025 15.558 9.32751 15.678C9.08451 15.707 8.82651 15.676 8.58651 15.62C8.26151 15.545 8.09551 15.351 7.97351 14.982C8.14851 15.066 8.29551 15.137 8.44851 15.21C8.47751 15.168 8.50351 15.129 8.54351 15.07C8.65151 15.135 8.76051 15.199 8.92851 15.3C8.83551 15.082 8.76451 14.913 8.65551 14.656ZM14.4395 19.812C14.3125 19.862 14.1285 19.782 14.0625 19.609C13.9985 19.445 13.9805 19.266 13.9255 19.023C14.2335 19.079 14.4175 19.16 14.5255 19.36C14.6155 19.528 14.5655 19.761 14.4395 19.812ZM14.1555 18.906C14.1325 18.869 14.1115 18.833 14.0885 18.796C14.1795 18.66 14.2485 18.499 14.3695 18.399C14.4505 18.331 14.6075 18.326 14.7235 18.343C14.7755 18.35 14.8585 18.493 14.8415 18.549C14.8065 18.664 14.7365 18.813 14.6405 18.853C14.4955 18.913 14.3185 18.893 14.1555 18.906ZM16.1745 14.191C16.1365 14.203 16.0995 14.216 16.0615 14.23C15.9945 14.131 15.9055 14.041 15.8645 13.933C15.8225 13.818 15.8465 13.673 15.9925 13.662C16.0545 13.658 16.1615 13.775 16.1855 13.856C16.2145 13.957 16.1815 14.078 16.1745 14.191ZM16.7325 14.716C16.7485 14.769 16.7345 14.868 16.7005 14.89C16.6445 14.924 16.5255 14.943 16.4945 14.911C16.4025 14.816 16.3415 14.692 16.2375 14.531C16.5235 14.479 16.6715 14.52 16.7325 14.716ZM16.4295 13.942C16.4845 13.893 16.6085 13.918 16.7025 13.91C16.7035 13.994 16.7335 14.095 16.6985 14.159C16.6225 14.297 16.4895 14.341 16.2685 14.263C16.3265 14.139 16.3525 14.012 16.4295 13.942ZM23.5865 15.005C23.6535 14.789 23.7945 14.683 24.0165 14.661C24.3955 14.624 24.7195 14.746 24.9925 14.999C25.0965 15.096 25.1695 15.226 25.2805 15.37C25.4065 15.126 25.4815 14.958 25.5775 14.803C25.7645 14.498 26.0065 14.253 26.3985 14.286C26.8065 14.321 27.1125 14.536 27.3015 14.904C27.4595 15.212 27.4415 15.541 27.3975 15.87C27.3815 15.984 27.3525 16.098 27.3265 16.232C27.4535 16.276 27.5655 16.309 27.6705 16.355C28.0335 16.514 28.3205 16.755 28.4695 17.133C28.5705 17.387 28.5235 17.524 28.2965 17.666C27.9895 17.857 27.1935 17.983 26.6865 17.886C26.8565 17.773 26.9825 17.688 27.1085 17.603C27.0905 17.58 27.0735 17.557 27.0555 17.533C26.9335 17.527 26.8115 17.521 26.6415 17.511C26.7765 17.346 26.8785 17.219 27.0225 17.043C26.8345 17.089 26.7105 17.12 26.5615 17.157C26.5155 16.93 26.7255 16.801 26.7365 16.572C26.6245 16.652 26.5295 16.721 26.3465 16.853C26.4545 16.537 26.5345 16.308 26.6435 15.989C26.4195 16.197 26.2675 16.338 26.1165 16.479C26.0965 16.471 26.0775 16.463 26.0575 16.454C26.1145 16.225 26.1695 15.995 26.2265 15.766C26.2095 15.756 26.1925 15.746 26.1755 15.735C26.1035 15.818 26.0305 15.901 25.9575 15.984C25.8825 16.07 25.8075 16.157 25.6785 16.218C25.7195 16.006 25.7605 15.794 25.8165 15.501C25.5745 15.745 25.3855 15.934 25.1655 16.153C25.1315 16.029 25.1115 15.957 25.0835 15.859C25.0185 15.931 24.9625 15.991 24.8865 16.073C24.8315 15.909 24.7875 15.774 24.7175 15.566C24.6105 15.777 24.5285 15.94 24.4145 16.162C24.3155 15.982 24.2385 15.843 24.1305 15.649C24.0515 15.914 23.9885 16.13 23.9215 16.354C23.6515 16.064 23.4815 15.347 23.5865 15.005ZM28.5705 14.901C28.9195 15.316 28.8715 15.963 28.4565 16.41C28.1205 15.899 28.1705 15.23 28.5705 14.901ZM29.8405 15.684C29.9405 16.369 29.6195 16.907 29.0285 17.079C28.9855 16.331 29.2895 15.792 29.8405 15.684ZM32.7745 29.838C31.5705 28.693 31.6425 26.11 32.9355 24.855C32.6105 25.714 32.3005 26.507 32.2365 27.364C32.1695 28.241 32.4785 29.037 32.7745 29.838ZM21.7765 34.749C21.7565 34.819 21.6585 34.897 21.5805 34.917C20.7465 35.139 19.9685 35.037 19.2255 34.47C19.5175 33.975 19.8665 33.582 20.2195 33.194C20.2455 33.211 20.2715 33.228 20.2965 33.244C20.1655 33.481 20.0365 33.718 19.9055 33.954L19.9545 33.998C20.1775 33.747 20.4005 33.495 20.6225 33.244C20.6455 33.254 20.6665 33.263 20.6885 33.273C20.6335 33.418 20.5795 33.564 20.5225 33.708C20.4585 33.866 20.3925 34.023 20.3815 34.217C20.5795 33.915 20.7795 33.613 20.9785 33.311C21.0035 33.321 21.0295 33.333 21.0545 33.344C20.9655 33.677 20.8765 34.009 20.7875 34.342C20.8025 34.35 20.8175 34.358 20.8325 34.365C21.0125 34.077 21.1935 33.789 21.3725 33.501C21.3945 33.51 21.4145 33.52 21.4365 33.528C21.3815 33.794 21.3265 34.061 21.2715 34.326C21.2865 34.334 21.2995 34.342 21.3135 34.35C21.4545 34.075 21.5955 33.8 21.7375 33.524C21.7585 33.532 21.7795 33.54 21.8005 33.548C21.7815 33.699 21.7615 33.851 21.7335 34.066C21.8345 33.894 21.9055 33.773 21.9765 33.65C21.9965 33.657 22.0165 33.663 22.0365 33.669C21.9525 34.029 21.8755 34.393 21.7765 34.749ZM19.9115 35.734C19.9745 35.774 20.0155 35.799 20.1085 35.857C19.9555 35.879 19.8475 35.895 19.7405 35.91C19.8295 35.946 19.9225 35.984 20.0165 36.023C19.9995 36.057 19.9935 36.092 19.9815 36.094C19.8375 36.113 19.6945 36.128 19.5515 36.144C19.6685 36.27 19.8815 36.253 19.8605 36.483C18.8975 36.622 18.2175 36.488 17.9385 36.13C18.3475 35.725 18.7545 35.322 19.1935 34.888C19.4635 35.034 19.8065 35.221 20.1715 35.418C20.1035 35.46 20.0515 35.49 20.0005 35.522C20.0515 35.545 20.1035 35.568 20.1825 35.606C20.2085 35.618 20.2385 35.632 20.2725 35.648C20.1185 35.685 20.0275 35.706 19.9115 35.734ZM4.96451 28.642C5.03751 28.084 5.15551 27.593 5.70051 27.332C5.46251 27.754 5.22551 28.177 4.96451 28.642ZM4.31751 33.83C4.27351 33.872 4.20751 33.904 4.14851 33.914C3.62151 34.001 3.16651 33.874 2.78151 33.454C3.02251 33.02 3.23851 32.63 3.44651 32.254C3.53451 32.266 3.60051 32.275 3.70551 32.29C3.67951 32.463 3.65151 32.649 3.62251 32.836C3.63351 32.84 3.64551 32.844 3.65751 32.848C3.75051 32.671 3.84451 32.494 3.93851 32.317C3.95551 32.325 3.97451 32.333 3.99351 32.34C3.95451 32.557 3.91751 32.773 3.88051 32.988C3.89251 32.995 3.90551 33.001 3.91751 33.007C4.00451 32.828 4.09051 32.65 4.17751 32.472C4.19651 32.476 4.21351 32.48 4.23251 32.482C4.21451 32.627 4.19851 32.771 4.17151 33.004C4.27951 32.81 4.34751 32.687 4.41451 32.565L4.47051 32.57C4.44551 32.748 4.42051 32.926 4.38451 33.192C4.51351 33.032 4.58851 32.94 4.66651 32.842C4.66251 33.013 4.41251 33.74 4.31751 33.83ZM3.00751 34.653C2.90151 34.719 2.81451 34.772 2.70751 34.837C2.79851 34.879 2.87551 34.916 2.98451 34.966C2.83851 35.016 2.72151 35.055 2.55151 35.112C2.69251 35.146 2.77651 35.165 2.92551 35.201C2.77451 35.24 2.68351 35.265 2.55851 35.297C2.63151 35.385 2.68751 35.45 2.74351 35.517C2.61951 35.712 1.38351 35.494 0.98951 35.178C1.16151 34.986 1.35951 34.814 1.49551 34.601C1.78951 34.144 2.16151 34.07 2.63051 34.29C2.74551 34.344 2.87351 34.369 3.05551 34.426C2.94951 34.494 2.89151 34.53 2.82651 34.571C2.87451 34.593 2.91951 34.613 3.00751 34.653ZM3.01051 8.695C3.21651 9.092 3.44751 9.536 3.68451 9.996C3.22151 9.719 3.02151 9.312 3.01051 8.695ZM1.37351 9.825C1.36551 9.434 1.29451 9.282 1.11151 9.262C0.92651 9.242 0.78051 9.385 0.65251 9.709C0.47651 9.478 0.47951 9.171 0.66151 8.994C0.81651 8.841 1.19351 8.857 1.38651 9.023C1.60951 9.213 1.60551 9.446 1.37351 9.825ZM38.7195 25.274C38.7175 24.908 38.7475 24.532 38.8325 24.178C39.0745 23.167 39.3495 22.164 39.6155 21.159C39.9405 19.929 40.1405 18.69 39.9875 17.41C39.7835 15.708 38.9815 14.383 37.5415 13.45C36.7935 12.966 35.9765 12.635 35.1125 12.43C32.8495 11.891 30.8015 12.288 29.0325 13.861C28.9765 13.911 28.9105 13.949 28.8445 13.994C28.5095 13.773 28.1955 13.558 27.8735 13.352C26.6385 12.558 25.2865 12.245 23.8365 12.458C22.9265 12.592 22.0285 12.802 21.1255 12.986C20.5435 13.106 19.9635 13.211 19.3655 13.197C19.1725 13.193 19.0375 13.137 18.9545 12.958C18.9005 12.839 18.8305 12.726 18.7715 12.608C18.6265 12.324 18.4005 12.13 18.1015 12.027C17.8785 11.951 17.6475 11.899 17.4185 11.837C17.2995 11.804 17.1805 11.774 17.0145 11.731C17.2885 11.536 17.5515 11.403 17.6645 11.11C17.2435 10.836 16.7635 10.816 16.2665 10.694C16.6605 10.4 17.0065 10.132 17.2395 9.737C16.9235 9.761 16.6365 9.797 16.3485 9.802C15.7365 9.813 15.4285 9.593 15.1935 8.992C15.8425 8.842 16.2865 8.414 16.7255 7.895C15.7815 7.368 14.8785 7.614 13.9215 7.874C14.0505 7.393 14.3915 7.187 14.7105 6.973C15.0315 6.758 15.3685 6.569 15.6985 6.369C15.5965 6.315 15.5175 6.318 15.4395 6.314C15.3695 6.31 15.2975 6.297 15.2155 6.288C15.5365 5.685 16.2035 5.629 16.7245 5.288C16.2755 5.088 15.8875 4.93 15.5125 4.745C15.0515 4.519 14.6205 4.581 14.1965 4.829C14.0885 4.891 13.9845 4.958 13.8785 5.023L13.8235 4.955C14.2625 4.483 14.7035 4.009 15.1695 3.508C14.1125 3.202 13.1905 3.521 12.2605 3.92C12.3015 3.695 12.3565 3.529 12.3595 3.362C12.3705 2.829 12.5695 2.363 12.8395 1.918C12.9025 1.815 12.9615 1.709 13.0595 1.541C12.7265 1.618 12.4695 1.667 12.2185 1.738C12.0165 1.795 11.8185 1.87 11.6245 1.952C11.2725 2.1 11.0125 2.347 10.8295 2.688C10.5985 3.121 9.88051 3.378 9.39051 3.222C10.1725 2.659 10.7045 1.973 10.7895 1.409C10.7365 1.419 10.6845 1.423 10.6355 1.438C9.81751 1.678 8.99751 1.78 8.14051 1.617C7.81051 1.554 7.44251 1.673 7.09351 1.723C6.96751 1.741 6.84751 1.798 6.67851 1.853C6.33351 1.256 5.99551 0.668 5.61051 0C5.56851 0.219 5.52251 0.368 5.51351 0.52C5.47751 1.085 5.45551 1.65 5.42551 2.216C5.42051 2.308 5.40051 2.399 5.38751 2.489C5.36051 2.496 5.33151 2.502 5.30451 2.508C4.94351 1.946 4.57951 1.385 4.22251 0.82C4.08651 0.606 4.01051 0.346 3.71551 0.174C3.67251 0.398 3.62451 0.571 3.60751 0.748C3.52751 1.543 3.70551 2.295 4.02351 3.015C4.11051 3.212 4.08551 3.338 3.95351 3.508C3.65651 3.893 3.38051 4.295 3.12051 4.706C2.96651 4.952 2.84751 5.237 2.91651 5.532C2.97051 5.755 2.87051 5.875 2.74451 6.014C1.94451 6.889 1.14551 7.767 0.35151 8.647C0.25551 8.753 0.15451 8.871 0.11151 9.001C-0.0634905 9.527 -0.0514905 10.056 0.28451 10.511C0.64351 10.999 1.07551 11.431 1.58851 11.763C1.94951 11.995 2.17151 11.958 2.45651 11.638C2.61351 11.462 2.73651 11.255 2.88851 11.073C3.27651 10.613 3.72651 10.28 4.37751 10.327C4.59751 10.343 4.82451 10.308 5.04551 10.281C5.43251 10.235 5.74951 10.041 6.05651 9.719C6.27151 10.571 6.48551 11.357 6.66651 12.151C6.95151 13.398 7.19351 14.649 7.17651 15.94C7.17151 16.345 7.23551 16.754 7.30051 17.156C7.46051 18.139 7.50151 19.116 7.32651 20.103C7.24351 20.567 7.23551 21.044 7.18451 21.515C7.14951 21.841 7.14651 22.182 7.04551 22.488C6.65151 23.702 6.23851 24.909 5.79951 26.107C5.67451 26.448 5.46851 26.769 5.25551 27.066C4.93051 27.521 4.66751 28.003 4.47851 28.525C4.28951 29.045 4.10051 29.566 3.93751 30.094C3.63251 31.082 3.20251 32.008 2.62851 32.87C2.37151 33.258 2.07851 33.604 1.72151 33.905C1.37051 34.202 1.04051 34.526 0.72051 34.857C0.57851 35.003 0.43251 35.171 0.45851 35.405C0.78551 35.637 1.43351 35.882 1.96951 35.945C2.24051 35.978 2.52251 35.995 2.79051 35.957C3.28051 35.889 3.41151 35.736 3.50451 35.26C3.55651 34.992 3.60951 34.725 3.66251 34.451C3.89051 34.451 4.07351 34.454 4.25651 34.451C4.56451 34.444 4.78651 34.321 4.87451 34.003C4.91251 33.864 4.97151 33.731 5.02451 33.596C5.68151 31.916 6.33151 30.234 7.00151 28.56C7.15251 28.183 7.36251 27.828 7.55451 27.469C7.59751 27.39 7.67951 27.332 7.77651 27.231C7.87151 27.973 7.95351 28.652 8.05151 29.329C8.07351 29.477 8.12051 29.649 8.21851 29.751C8.62951 30.178 9.05751 30.59 9.49551 30.988C9.62551 31.108 9.80151 31.194 9.97151 31.253C10.5535 31.452 11.1435 31.633 11.7345 31.823C11.9615 31.384 12.1175 30.596 12.0655 29.936C11.9985 29.103 11.7595 28.874 10.9345 28.839C10.5385 28.822 10.5155 28.806 10.5035 28.409C10.4825 27.685 10.4465 26.961 10.4485 26.237C10.4485 26.04 10.5145 25.806 10.6345 25.654C10.9845 25.212 11.3625 24.784 11.8855 24.527C12.3705 24.29 12.8625 24.066 13.3395 23.815C13.5805 23.688 13.7945 23.508 14.0265 23.359C14.1105 23.305 14.2055 23.236 14.2995 23.232C14.7985 23.204 15.3015 23.154 15.7975 23.189C16.4125 23.232 17.0205 23.399 17.6345 23.427C19.6685 23.517 21.6855 23.431 23.6605 22.654C23.8485 22.867 24.0575 23.102 24.2615 23.34C24.4105 23.513 24.4405 23.699 24.3665 23.926C24.1815 24.489 24.0215 25.06 23.8495 25.626C23.2315 27.668 22.4155 29.614 21.1185 31.33C20.6815 31.908 20.2435 32.483 19.8065 33.06C19.6555 33.26 19.4665 33.442 19.3665 33.665C19.0485 34.365 18.5705 34.92 17.9855 35.407C17.7895 35.57 17.6465 35.81 17.5185 36.036C17.3885 36.267 17.5885 36.72 17.8185 36.733C18.6075 36.774 19.3975 36.793 20.1865 36.821C20.3395 36.827 20.4355 36.749 20.4915 36.616C20.5785 36.41 20.6735 36.206 20.7425 35.994C20.8875 35.545 21.1565 35.243 21.6395 35.152C21.9405 35.096 22.1345 34.93 22.1415 34.591C22.1445 34.476 22.1945 34.36 22.2335 34.249C22.8075 32.617 23.4985 31.052 24.9185 29.959C25.5405 29.481 25.8875 28.887 25.9895 28.115C26.0355 27.76 26.1575 27.414 26.2645 26.988C26.3505 27.134 26.4035 27.204 26.4375 27.283C26.8065 28.142 27.1745 29.001 27.5385 29.862C27.5845 29.971 27.6215 30.086 27.6425 30.201C27.7975 31.098 27.9205 31.996 27.9085 32.91C27.8995 33.515 27.7965 34.074 27.4535 34.597C27.1315 35.087 26.9825 35.648 27.0335 36.256C27.5615 36.455 28.0905 36.547 28.6335 36.537C29.3015 36.525 30.0765 36.061 29.9455 35.121C29.9185 34.926 29.8915 34.732 29.8675 34.536C29.8355 34.288 29.7755 34.04 29.7805 33.793C29.8005 32.726 29.8315 31.659 29.8775 30.594C29.8985 30.121 29.9275 29.643 30.0225 29.182C30.1025 28.784 30.0725 28.425 29.9055 28.069C29.6445 27.516 29.4955 26.936 29.4135 26.329C29.2605 25.176 29.2865 24.05 29.7155 22.945C30.0365 22.124 30.3195 21.287 30.5945 20.449C30.9005 19.519 31.0945 18.565 31.0365 17.577C30.9845 16.691 30.7795 15.857 30.1645 15.174C30.1235 15.129 30.0975 15.07 30.0505 14.994C30.1305 14.958 30.1855 14.919 30.2455 14.909C30.4775 14.868 30.7115 14.828 30.9465 14.804C31.3655 14.76 31.7855 14.705 32.2045 14.693C33.0895 14.67 33.7815 15.081 34.3255 15.739C35.2645 16.876 35.5995 18.202 35.4585 19.653C35.3945 20.33 35.1115 20.92 34.6525 21.42C34.4745 21.614 34.2885 21.803 34.0975 21.982C33.7815 22.281 33.4525 22.566 33.1355 22.864C32.6255 23.347 32.1775 23.88 31.8585 24.511C31.2535 25.704 31.1435 26.977 31.2575 28.283C31.3205 28.998 31.4905 29.686 31.8505 30.316C32.1795 30.891 32.6255 31.344 33.2365 31.619C33.3055 31.65 33.3895 31.65 33.4955 31.671C33.1285 30.943 33.1055 30.742 33.3395 30.337C33.4095 30.399 33.4745 30.459 33.5405 30.519C33.7665 30.721 33.9785 30.94 34.2195 31.121C35.4335 32.034 36.6785 31.966 37.7995 30.935C37.9965 30.752 38.1775 30.555 38.3665 30.277C37.9825 30.41 37.6795 30.534 37.3665 30.619C36.2465 30.926 35.2995 30.639 34.6545 29.765C33.9305 28.782 33.6575 27.648 33.7005 26.449C33.7415 25.3 34.3045 24.368 35.0765 23.551C35.1315 23.492 35.2035 23.448 35.2685 23.398C35.2435 23.571 35.1705 23.706 35.0985 23.841C34.5355 24.893 34.1735 25.993 34.2895 27.209C34.3555 27.883 34.6015 28.483 35.0285 29.01C35.2345 29.265 35.4945 29.434 35.8245 29.482C36.5315 29.587 37.1135 29.328 37.6185 28.857C37.6895 28.789 37.7385 28.697 37.7985 28.615C37.4485 28.461 37.1115 28.346 36.8075 28.172C35.6095 27.485 35.2205 26.287 35.7715 25.024C35.8765 24.783 36.0015 24.55 36.1245 24.317C36.6915 23.244 37.2185 22.155 37.4885 20.961C37.5045 20.89 37.5385 20.822 37.5795 20.713C37.5895 20.797 37.6015 20.836 37.5985 20.874C37.5135 21.875 37.3285 22.853 36.9685 23.798C36.8005 24.238 36.6605 24.694 36.5555 25.155C36.4155 25.775 36.5415 26.36 36.9295 26.875C37.2145 27.254 37.5885 27.469 38.0695 27.495C39.0865 27.549 40.0865 26.629 40.1345 25.572C39.9375 25.661 39.7505 25.759 39.5555 25.83C39.0265 26.024 38.7225 25.833 38.7195 25.274Z" fill="#DA4B32"/>
</g>
</svg>