<svg width="42" height="40" viewBox="0 0 42 40" fill="none" xmlns="http://www.w3.org/2000/svg">
<path fill-rule="evenodd" clip-rule="evenodd" d="M33.8159 15.1256C34.3219 15.8446 34.7989 16.5226 35.2709 17.0986C35.6889 17.6066 36.1239 18.0016 36.5719 18.2846C36.6399 18.3046 36.7019 18.3406 36.7549 18.3906C37.1789 18.6266 37.6139 18.7686 38.0589 18.8026C38.5899 18.8456 39.0729 18.7336 39.4659 18.5816C38.0829 17.9966 35.8489 16.1196 33.0969 10.4786C31.7769 7.77258 30.1299 6.27058 28.2039 6.00958C24.7499 5.54358 21.3899 9.15558 21.1279 9.44358L21.1289 9.92558C22.6789 9.20858 24.0549 8.89958 25.2799 8.89958C29.4349 8.89958 31.8929 12.3926 33.8159 15.1256Z" fill="#49A5F0"/>
<path fill-rule="evenodd" clip-rule="evenodd" d="M13.095 6.00735C11.169 6.26835 9.52298 7.77135 8.20398 10.4753C5.45198 16.1163 3.21798 17.9933 1.83398 18.5783C2.22798 18.7313 2.70998 18.8423 3.24098 18.8003C4.22598 18.7243 5.16398 18.1513 6.02998 17.0963C6.51698 16.5013 7.00598 15.7973 7.52398 15.0523C9.97498 11.5223 13.317 6.71835 20.188 9.99335L20.187 9.45635C20.048 9.30235 16.618 5.52435 13.095 6.00735Z" fill="#49A5F0"/>
<mask id="mask0" mask-type="alpha" maskUnits="userSpaceOnUse" x="21" y="5" width="21" height="15">
<path fill-rule="evenodd" clip-rule="evenodd" d="M21.1255 5.02649H41.294V19.7524H21.1255V5.02649Z" fill="white"/>
</mask>
<g mask="url(#mask0)">
<path fill-rule="evenodd" clip-rule="evenodd" d="M28.2035 6.00936C30.1305 6.27036 31.7765 7.77337 33.0975 10.4784C35.8495 16.1194 38.0825 17.9964 39.4665 18.5814C39.0725 18.7344 38.5905 18.8454 38.0585 18.8024C37.6135 18.7684 37.1795 18.6264 36.7555 18.3904C36.7745 18.4084 36.7975 18.4204 36.8135 18.4424C36.9695 18.6454 36.9335 18.9344 36.7335 19.0944L36.4555 19.2964C36.9525 19.5494 37.4675 19.7024 38.0005 19.7414C38.0985 19.7484 38.1935 19.7524 38.2875 19.7524C39.9325 19.7524 41.0955 18.7174 41.1455 18.6714C41.3065 18.5264 41.3375 18.2934 41.2365 18.1044C41.1355 17.9134 40.9085 17.8164 40.6995 17.8704C40.6715 17.8724 38.0175 18.4194 33.9425 10.0654C32.4755 7.06036 30.5875 5.38136 28.3285 5.07736C25.2645 4.66136 22.4205 6.89736 21.1255 8.11237L21.1285 9.44437C21.3905 9.15536 24.7495 5.54336 28.2035 6.00936Z" fill="#333333"/>
</g>
<path fill-rule="evenodd" clip-rule="evenodd" d="M33.0464 15.6675C33.5624 16.3995 34.0494 17.0935 34.5444 17.6955C34.8854 18.1115 35.2414 18.4595 35.6094 18.7495L36.1624 18.3475C36.2854 18.2585 36.4364 18.2435 36.5714 18.2845C36.1234 18.0015 35.6894 17.6065 35.2714 17.0985C34.7994 16.5225 34.3214 15.8445 33.8164 15.1255C31.8934 12.3925 29.4354 8.89954 25.2794 8.89954C24.0544 8.89954 22.6794 9.20854 21.1294 9.92554L21.1304 10.9675C27.4954 7.78354 30.4434 11.9695 33.0464 15.6675Z" fill="#333333"/>
<mask id="mask1" mask-type="alpha" maskUnits="userSpaceOnUse" x="0" y="5" width="21" height="15">
<path fill-rule="evenodd" clip-rule="evenodd" d="M0 5.0249H20.1907V19.7491H0V5.0249Z" fill="white"/>
</mask>
<g mask="url(#mask1)">
<path fill-rule="evenodd" clip-rule="evenodd" d="M4.86148 19.1147C4.65148 18.9627 4.60448 18.6677 4.75748 18.4577C4.90948 18.2477 5.20348 18.2007 5.41448 18.3527L5.81748 18.6457C6.13948 18.3757 6.45448 18.0617 6.75648 17.6927C7.26848 17.0697 7.76748 16.3497 8.29648 15.5887C10.8495 11.9117 13.7435 7.74171 20.1465 11.0177C20.1595 11.0247 20.1755 11.0227 20.1905 11.0287L20.1885 9.99371C13.3175 6.71871 9.97448 11.5217 7.52348 15.0527C7.00648 15.7977 6.51748 16.5017 6.02948 17.0957C5.16348 18.1507 4.22548 18.7237 3.24148 18.8007C2.70948 18.8427 2.22748 18.7307 1.83448 18.5787C3.21748 17.9937 5.45148 16.1167 8.20348 10.4747C9.52248 7.77071 11.1685 6.26771 13.0945 6.00771C16.6175 5.52371 20.0485 9.30171 20.1875 9.45671L20.1845 8.11771C18.8925 6.90671 16.0365 4.66271 12.9715 5.07471C10.7135 5.37971 8.82448 7.05671 7.35848 10.0627C3.28048 18.4207 0.627483 17.8757 0.617483 17.8727C0.406483 17.8047 0.175483 17.8907 0.063483 18.0837C-0.048517 18.2757 -0.010517 18.5187 0.154483 18.6687C0.208483 18.7187 1.49848 19.8697 3.30048 19.7387C3.88848 19.6957 4.45448 19.5167 4.99848 19.2147L4.86148 19.1147Z" fill="#333333"/>
</g>
<path fill-rule="evenodd" clip-rule="evenodd" d="M5.81751 18.6461L5.41451 18.3531C5.20451 18.2011 4.91051 18.2481 4.75751 18.4581C4.60551 18.6671 4.65151 18.9621 4.86151 19.1151L4.99951 19.2141L20.2265 30.2631L20.2245 29.0991L5.81751 18.6461Z" fill="#333333"/>
<path fill-rule="evenodd" clip-rule="evenodd" d="M36.814 18.4419C36.797 18.4209 36.775 18.4089 36.755 18.3899C36.702 18.3399 36.64 18.3039 36.572 18.2849C36.436 18.2439 36.286 18.2579 36.163 18.3469L35.609 18.7499L21.166 29.2619L21.168 30.4239L36.456 19.2959L36.734 19.0939C36.934 18.9339 36.969 18.6449 36.814 18.4419Z" fill="#333333"/>
<path fill-rule="evenodd" clip-rule="evenodd" d="M20.643 34.4185L20.236 35.4335V35.5935C20.322 35.4375 20.483 35.3465 20.657 35.3515C20.85 35.3455 21.034 35.4515 21.11 35.6405L21.178 35.8095L21.177 35.7065C21.153 35.6615 21.124 35.6185 21.105 35.5695L20.643 34.4185Z" fill="#333333"/>
<path fill-rule="evenodd" clip-rule="evenodd" d="M20.1883 9.99371L20.1903 11.0287L20.2243 29.0987L20.2263 30.2637L20.2313 32.9557C20.2953 32.8477 20.3953 32.7757 20.5123 32.7457H20.5133C20.5563 32.7337 20.5983 32.7277 20.6423 32.7297C20.8343 32.7227 21.0193 32.8307 21.0943 33.0177L21.1723 33.2127L21.1673 30.4247L21.1653 29.2627L21.1303 10.9677L21.1293 9.92571L21.1283 9.44371L21.1253 8.11171L21.1213 5.57971L20.1803 5.58571L20.1853 8.11771L20.1873 9.45671L20.1883 9.99371Z" fill="#333333"/>
<path fill-rule="evenodd" clip-rule="evenodd" d="M21.9984 5.57476L20.6734 -0.000244141L19.3594 5.59076L20.1804 5.58576L21.1214 5.57976L21.9984 5.57476Z" fill="#333333"/>
<path fill-rule="evenodd" clip-rule="evenodd" d="M20.5878 36.8648C20.4068 36.5308 20.2848 36.2008 20.2168 35.9288C20.1558 35.6888 20.2928 35.4438 20.5278 35.3678C20.5708 35.3528 20.6138 35.3528 20.6568 35.3508C20.4838 35.3458 20.3218 35.4368 20.2358 35.5938C20.2268 35.6098 20.2128 35.6218 20.2068 35.6388L19.8708 36.4748C19.5398 37.0758 18.9118 37.7828 17.8378 37.6438C17.6098 37.6168 17.3958 37.7548 17.3288 37.9718C17.2608 38.1908 17.3608 38.4268 17.5658 38.5298L18.2368 38.8708C18.4488 38.9778 18.6798 39.0328 18.9108 39.0328C19.0838 39.0328 19.2568 39.0018 19.4208 38.9398C19.7808 38.8048 20.0568 38.5388 20.1958 38.1908L20.6578 37.0408L20.5878 36.8648Z" fill="#333333"/>
<mask id="mask2" mask-type="alpha" maskUnits="userSpaceOnUse" x="20" y="35" width="5" height="5">
<path fill-rule="evenodd" clip-rule="evenodd" d="M20.2026 35.351H24.0084V39.0328H20.2026V35.351Z" fill="white"/>
</mask>
<g mask="url(#mask2)">
<path fill-rule="evenodd" clip-rule="evenodd" d="M20.6572 35.3512C20.6142 35.3532 20.5712 35.3532 20.5282 35.3682C20.2922 35.4442 20.1562 35.6892 20.2172 35.9292C20.2842 36.2012 20.4072 36.5312 20.5882 36.8652L20.6582 37.0402L21.1192 38.1912C21.2592 38.5392 21.5342 38.8052 21.8952 38.9402C22.0592 39.0012 22.2322 39.0332 22.4052 39.0332C22.6362 39.0332 22.8672 38.9782 23.0782 38.8712L23.7502 38.5302C23.9552 38.4262 24.0552 38.1912 23.9872 37.9722C23.9202 37.7542 23.7082 37.6172 23.4782 37.6442C22.3942 37.7872 21.7632 37.0532 21.4342 36.4482L21.1782 35.8092L21.1102 35.6402C21.0342 35.4522 20.8502 35.3452 20.6572 35.3512Z" fill="#333333"/>
</g>
<path fill-rule="evenodd" clip-rule="evenodd" d="M20.5136 32.7456C20.5556 32.7316 20.5996 32.7306 20.6426 32.7296C20.5976 32.7276 20.5556 32.7336 20.5136 32.7456Z" fill="#333333"/>
<path fill-rule="evenodd" clip-rule="evenodd" d="M20.5727 34.2427C20.3917 33.9087 20.2697 33.5787 20.2017 33.3067C20.1407 33.0677 20.2777 32.8217 20.5117 32.7457C20.3957 32.7757 20.2957 32.8477 20.2317 32.9557C20.2187 32.9767 20.2007 32.9947 20.1917 33.0177L19.8557 33.8527C19.5257 34.4537 18.8987 35.1647 17.8227 35.0217C17.5937 34.9997 17.3807 35.1327 17.3137 35.3497C17.2457 35.5687 17.3457 35.8047 17.5507 35.9077L18.2217 36.2487C18.4337 36.3567 18.6647 36.4107 18.8957 36.4107C19.0687 36.4107 19.2417 36.3807 19.4057 36.3187C19.7657 36.1827 20.0417 35.9167 20.1807 35.5687L20.2357 35.4327L20.6427 34.4187L20.5727 34.2427Z" fill="#333333"/>
<path fill-rule="evenodd" clip-rule="evenodd" d="M20.6426 32.7301C20.5996 32.7311 20.5566 32.7321 20.5136 32.7461H20.5126C20.2776 32.8221 20.1416 33.0681 20.2016 33.3071C20.2696 33.5791 20.3926 33.9091 20.5726 34.2431L20.6426 34.4181L21.1046 35.5701C21.1246 35.6191 21.1526 35.6621 21.1776 35.7071C21.3296 35.9851 21.5706 36.2021 21.8806 36.3191C22.0436 36.3801 22.2166 36.4111 22.3896 36.4111C22.6206 36.4111 22.8516 36.3571 23.0636 36.2491L23.7356 35.9081C23.9396 35.8051 24.0396 35.5691 23.9726 35.3501C23.9056 35.1311 23.6926 35.0001 23.4626 35.0221C22.3806 35.1661 21.7486 34.4321 21.4186 33.8261L21.1726 33.2121L21.0946 33.0181C21.0186 32.8311 20.8346 32.7231 20.6426 32.7301Z" fill="#333333"/>
</svg>