<svg width="50" height="50" viewBox="0 0 50 50" fill="none" xmlns="http://www.w3.org/2000/svg">
<rect width="50" height="50" rx="4" fill="#C684D3"/>
<path fill-rule="evenodd" clip-rule="evenodd" d="M33.0699 22.979C33.135 23.0022 33.2001 23.0099 33.2652 23.0099C33.4387 23.0099 33.6123 22.9403 33.7497 22.8009C37.322 19.3315 38.6887 16.8379 37.8137 15.4052C37.4594 14.8244 36.8158 14.5302 35.8902 14.5302C34.1618 14.5302 31.6526 15.5524 29.8592 16.412C29.635 16.5204 29.4759 16.745 29.4397 17.016C29.4036 17.2871 29.4976 17.5504 29.6928 17.7207C30.3798 18.3325 30.9728 19.045 31.4645 19.8504C31.9563 20.6557 32.3251 21.5308 32.5709 22.4446C32.6433 22.7079 32.8313 22.9093 33.0699 22.979ZM32.6725 19.0063C32.3109 18.4177 31.906 17.8756 31.4576 17.3723C33.3523 16.5436 34.8998 16.0945 35.8905 16.0945C36.375 16.0945 36.5702 16.2029 36.6064 16.2649C36.7221 16.4585 36.4907 17.8447 33.5837 20.8571C33.3378 20.2143 33.0341 19.5948 32.6725 19.0063Z" fill="white"/>
<path fill-rule="evenodd" clip-rule="evenodd" d="M10.1676 34.7345C10.5219 35.3153 11.1655 35.6096 12.0911 35.6096C13.8194 35.6096 16.3215 34.5874 18.1293 33.7355C18.3535 33.6271 18.5126 33.3948 18.5487 33.1315C18.5849 32.8604 18.4909 32.5971 18.2956 32.4268C17.6087 31.815 17.0157 31.1025 16.524 30.2971C16.0322 29.4918 15.6634 28.6167 15.4176 27.7029C15.3452 27.4396 15.1572 27.2382 14.9186 27.1685C14.6727 27.0911 14.4196 27.1608 14.2316 27.3389C10.6593 30.8083 9.29255 33.3019 10.1676 34.7345ZM11.3753 33.8904C11.2596 33.6967 11.491 32.3106 14.398 29.2981C14.6439 29.9409 14.9476 30.5604 15.3019 31.1412C15.6635 31.7297 16.0685 32.2718 16.5168 32.7752C14.6222 33.6116 13.0747 34.0607 12.0912 34.0607C11.6067 34.0607 11.4115 33.9523 11.3753 33.8904Z" fill="white"/>
<path fill-rule="evenodd" clip-rule="evenodd" d="M17.363 33.6193C19.2143 35.2766 21.5717 36.1826 23.9942 36.1826C26.0045 36.1826 27.9643 35.5554 29.6492 34.3783C31.5438 33.054 32.9467 31.1567 33.7205 28.8877C34.4653 26.6961 34.5521 24.2567 33.9519 22.0264C33.6698 20.9655 33.236 19.951 32.6647 19.0139C32.0934 18.0769 31.3992 17.2405 30.6037 16.5358C28.7525 14.8786 26.395 13.9725 23.9725 13.9725C21.9622 13.9725 20.0097 14.5921 18.3176 15.7769C16.4229 17.1012 15.02 18.9985 14.2463 21.2675C13.5014 23.4591 13.4147 25.8985 14.0149 28.1288C14.2969 29.1897 14.7308 30.2042 15.3021 31.1412C15.8734 32.0783 16.5676 32.9146 17.363 33.6193ZM19.1132 17.0779C20.5667 16.0557 22.2516 15.5214 23.9799 15.5214C26.0626 15.5214 28.0874 16.3035 29.6928 17.7207C30.3797 18.3325 30.9727 19.0449 31.4645 19.8503C31.9562 20.6557 32.325 21.5308 32.5709 22.4446C33.6556 26.5025 32.1659 30.7695 28.8684 33.0773C27.4149 34.0995 25.7299 34.6338 24.0016 34.6338C21.9118 34.6338 19.887 33.8517 18.2888 32.4345C17.6018 31.8227 17.0089 31.1103 16.5171 30.3049C16.0254 29.4995 15.6566 28.6244 15.4107 27.7106C14.326 23.6527 15.8157 19.3857 19.1132 17.0779Z" fill="white"/>
<path fill-rule="evenodd" clip-rule="evenodd" d="M17.3633 33.6193C19.2145 35.2766 21.5719 36.1826 23.9944 36.1826C26.0048 36.1826 27.9645 35.5554 29.6566 34.3705C31.5513 33.0463 32.9542 31.149 33.7279 28.8799C34.4728 26.6884 34.5595 24.249 33.9593 22.0187C33.887 21.7554 33.699 21.554 33.4604 21.4843C33.2145 21.4069 32.9614 21.4766 32.7734 21.6547C30.7775 23.5907 28.2682 25.6352 25.5058 27.5634C22.7506 29.4917 19.9883 31.1335 17.5296 32.3106C17.3054 32.419 17.1463 32.6513 17.1102 32.9146C17.074 33.1857 17.168 33.449 17.3633 33.6193ZM23.9948 34.6261C22.3099 34.6261 20.6539 34.115 19.2438 33.1702C21.4783 32.0241 23.8863 30.5527 26.3016 28.8568C28.7097 27.1763 30.937 25.4029 32.8171 23.676C33.3306 27.3389 31.8264 30.9941 28.8615 33.0696C27.408 34.0918 25.7231 34.6261 23.9948 34.6261Z" fill="white"/>
<path fill-rule="evenodd" clip-rule="evenodd" d="M9.09033 17.6433C9.09033 18.9211 10.0666 19.9665 11.2598 19.9665C12.4529 19.9665 13.4292 18.9211 13.4292 17.6433C13.4292 16.3655 12.4529 15.3201 11.2598 15.3201C10.0666 15.3201 9.09033 16.3655 9.09033 17.6433ZM10.536 17.6433C10.536 17.2174 10.8614 16.8689 11.2592 16.8689C11.6569 16.8689 11.9823 17.2174 11.9823 17.6433C11.9823 18.0692 11.6569 18.4177 11.2592 18.4177C10.8614 18.4177 10.536 18.0692 10.536 17.6433Z" fill="white"/>
<path fill-rule="evenodd" clip-rule="evenodd" d="M17.0449 10.2864C17.0449 11.781 18.1803 12.9968 19.5759 12.9968C20.9716 12.9968 22.1069 11.781 22.1069 10.2864C22.1069 8.79175 20.9716 7.57593 19.5759 7.57593C18.1803 7.57593 17.0449 8.79175 17.0449 10.2864ZM18.4913 10.2865C18.4913 9.64373 18.9758 9.12488 19.576 9.12488C20.1763 9.12488 20.6608 9.64373 20.6608 10.2865C20.6608 10.9293 20.1763 11.4481 19.576 11.4481C18.9758 11.4481 18.4913 10.9293 18.4913 10.2865Z" fill="white"/>
<path fill-rule="evenodd" clip-rule="evenodd" d="M39.4624 23.8386C38.6669 23.8386 38.0161 23.1416 38.0161 22.2898C38.0161 21.4379 38.6669 20.741 39.4624 20.741C40.2578 20.741 40.9087 21.4379 40.9087 22.2898C40.9087 23.1416 40.2578 23.8386 39.4624 23.8386Z" fill="white"/>
<path fill-rule="evenodd" clip-rule="evenodd" d="M17.7686 41.2629C17.7686 41.9057 18.2531 42.4246 18.8533 42.4246C19.4535 42.4246 19.938 41.9057 19.938 41.2629C19.938 40.6202 19.4535 40.1013 18.8533 40.1013C18.2531 40.1013 17.7686 40.6202 17.7686 41.2629ZM18.4918 41.2629C18.4918 41.046 18.6509 40.8757 18.8534 40.8757C19.0559 40.8757 19.215 41.046 19.215 41.2629C19.215 41.4797 19.0559 41.6501 18.8534 41.6501C18.6509 41.6501 18.4918 41.4797 18.4918 41.2629Z" fill="white"/>
<path fill-rule="evenodd" clip-rule="evenodd" d="M32.9541 39.3269C32.9541 41.0383 34.2485 42.4245 35.8467 42.4245C37.4448 42.4245 38.7392 41.0383 38.7392 39.3269C38.7392 37.6154 37.4448 36.2292 35.8467 36.2292C34.2485 36.2292 32.9541 37.6154 32.9541 39.3269ZM34.4 39.327C34.4 38.4751 35.0509 37.7781 35.8463 37.7781C36.6418 37.7781 37.2926 38.4751 37.2926 39.327C37.2926 40.1788 36.6418 40.8758 35.8463 40.8758C35.0509 40.8758 34.4 40.1788 34.4 39.327Z" fill="white"/>
<path fill-rule="evenodd" clip-rule="evenodd" d="M33.3084 23.8231C33.1493 23.8231 32.9902 23.7689 32.86 23.6528C29.0708 20.4235 25.202 19.1689 22.6204 18.6811C19.8146 18.1545 17.8766 18.4023 17.8549 18.4023C17.4571 18.4565 17.0956 18.1545 17.0449 17.7285C16.9943 17.3026 17.2763 16.9154 17.6741 16.8612C17.7608 16.8534 19.8001 16.5824 22.8084 17.14C25.5708 17.6511 29.7144 18.9831 33.7639 22.4369C34.0749 22.7002 34.1255 23.1881 33.8797 23.5289C33.735 23.7302 33.5253 23.8231 33.3084 23.8231Z" fill="white"/>
<path fill-rule="evenodd" clip-rule="evenodd" d="M32.6937 28.7405C32.5057 28.7405 32.3249 28.6631 32.1802 28.5159C28.7453 24.853 24.3052 23.521 21.1885 23.0486C17.7897 22.5375 15.2009 22.8937 15.1792 22.9014C14.7815 22.9557 14.4199 22.6614 14.3693 22.2355C14.3187 21.8095 14.5935 21.4223 14.9912 21.3681C15.1069 21.3526 17.8042 20.9732 21.3982 21.5153C26.1854 22.2432 30.2711 24.2799 33.2143 27.4163C33.4964 27.7183 33.4964 28.2062 33.2143 28.5082C33.0697 28.6631 32.8817 28.7405 32.6937 28.7405Z" fill="white"/>
<path fill-rule="evenodd" clip-rule="evenodd" d="M29.3384 33.9058C29.1359 33.9058 28.9335 33.8129 28.7888 33.6425C23.3363 26.9206 14.6587 27.2304 14.5719 27.2304C14.1742 27.2459 13.8343 26.9129 13.8198 26.4869C13.8054 26.061 14.1163 25.697 14.514 25.6816C14.608 25.6738 16.9149 25.5886 19.9593 26.3863C22.7795 27.1297 26.793 28.8102 29.8808 32.628C30.1411 32.9533 30.1122 33.4411 29.8085 33.7199C29.6783 33.8438 29.5047 33.9058 29.3384 33.9058Z" fill="white"/>
</svg>