<?xml version="1.0" encoding="utf-8"?>
<!-- Generator: Adobe Illustrator 16.0.0, SVG Export Plug-In . SVG Version: 6.00 Build 0)  -->
<!DOCTYPE svg PUBLIC "-//W3C//DTD SVG 1.1//EN" "http://www.w3.org/Graphics/SVG/1.1/DTD/svg11.dtd">
<svg version="1.1" id="Layer_1" xmlns="http://www.w3.org/2000/svg" xmlns:xlink="http://www.w3.org/1999/xlink" x="0px" y="0px"
	 width="16px" height="16px" viewBox="0 0 16 16" enable-background="new 0 0 16 16" xml:space="preserve">
<path fill="#666666" d="M0.003,6.421C0,3.191,2.341,0.492,5.46,0.061c3.354-0.464,6.522,1.8,7.124,5.106
	c0.306,1.67-0.006,3.229-0.931,4.656c-0.108,0.169-0.085,0.255,0.048,0.386c1.318,1.311,2.631,2.625,3.943,3.939
	c0.313,0.312,0.439,0.681,0.297,1.104c-0.137,0.409-0.434,0.659-0.859,0.729c-0.387,0.063-0.694-0.094-0.963-0.361
	c-1.295-1.299-2.598-2.594-3.888-3.896c-0.153-0.154-0.251-0.173-0.442-0.05c-3.785,2.437-8.781,0.308-9.673-4.116
	C0.036,7.164-0.012,6.761,0.003,6.421z M6.333,11.2c2.672,0.005,4.859-2.168,4.866-4.832c0.006-2.674-2.162-4.863-4.827-4.871
	C3.687,1.49,1.499,3.663,1.496,6.341C1.493,9.012,3.667,11.195,6.333,11.2z"/>
</svg>
