<svg width="47" height="40" viewBox="0 0 47 40" fill="none" xmlns="http://www.w3.org/2000/svg">
<path fill-rule="evenodd" clip-rule="evenodd" d="M39.6081 29.9911C39.9021 29.7351 40.2711 29.5941 40.6461 29.5941H40.6561C41.0561 29.5951 41.4161 29.7571 41.6681 30.0461C41.9201 30.3351 42.0311 30.7131 41.9801 31.1101C41.9311 31.4851 41.7401 31.8351 41.4431 32.0951C41.1401 32.3591 40.7681 32.4911 40.4071 32.4911C40.0201 32.4911 39.6461 32.3401 39.3841 32.0391C38.8781 31.4601 38.9791 30.5411 39.6081 29.9911ZM41.2491 37.9941C45.5871 32.7131 46.5941 27.1631 44.2521 22.2451C42.6321 21.4491 40.8241 21.2351 39.1171 21.6201C38.6321 24.5621 37.1861 27.5571 34.7771 30.4701C34.6271 30.6521 34.4071 30.7511 34.1531 30.7511C34.1301 30.7511 34.1081 30.7501 34.0841 30.7481C34.0131 30.7431 33.9341 30.7261 33.8521 30.7031C35.4261 32.8591 40.1651 37.8771 41.2491 37.9941Z" fill="#68BB6B"/>
<path fill-rule="evenodd" clip-rule="evenodd" d="M40.5257 30.6698C40.7317 30.6698 40.8987 30.8368 40.8987 31.0428C40.8987 31.2488 40.7317 31.4158 40.5257 31.4158C40.3197 31.4158 40.1527 31.2488 40.1527 31.0428C40.1527 30.8368 40.3197 30.6698 40.5257 30.6698ZM40.8247 31.3848C40.9477 31.2768 41.0267 31.1368 41.0457 30.9888C41.0557 30.9168 41.0567 30.7768 40.9587 30.6648C40.8607 30.5528 40.7227 30.5348 40.6497 30.5338H40.6457C40.4977 30.5338 40.3497 30.5928 40.2267 30.6998C39.9917 30.9048 39.9307 31.2348 40.0927 31.4208C40.2547 31.6058 40.5897 31.5898 40.8247 31.3848Z" fill="#68BB6B"/>
<path fill-rule="evenodd" clip-rule="evenodd" d="M18.7719 28.5332C18.2529 28.8692 17.7399 29.2482 17.2339 29.6652C17.8149 29.8022 18.3109 30.0332 18.6949 30.2622C18.6899 29.6542 18.7289 29.0292 18.7719 28.5332Z" fill="#68BB6B"/>
<path fill-rule="evenodd" clip-rule="evenodd" d="M11.4829 34.8769C12.8279 32.8179 14.2759 31.0699 15.7969 29.6699C16.8639 28.6849 17.9799 27.8629 19.1109 27.2289C22.6459 25.2409 25.9409 25.1839 28.6079 26.2109C27.1819 24.6529 25.9869 23.1799 25.6909 22.7019C24.0599 20.0769 21.3149 18.4719 18.2879 18.3419C18.1609 18.4479 18.0319 18.5549 17.9069 18.6659C13.0399 22.9519 10.6369 29.0789 11.4829 34.8769Z" fill="#68BB6B"/>
<path fill-rule="evenodd" clip-rule="evenodd" d="M43.5474 20.9492C43.0404 20.1222 42.4374 19.3142 41.7304 18.5332C41.2774 18.0332 40.7874 17.5642 40.2714 17.1402C39.8314 16.7762 39.3644 16.4412 38.8794 16.1332C39.2614 17.6002 39.3824 19.1062 39.2424 20.6302C40.6714 20.3682 42.1504 20.4832 43.5474 20.9492Z" fill="#68BB6B"/>
<path fill-rule="evenodd" clip-rule="evenodd" d="M37.3963 9.9657C37.2023 10.3697 36.9293 10.8387 36.5693 11.3107C37.3763 12.4337 38.0033 13.5977 38.4523 14.7907C38.8243 14.9907 39.1873 15.2057 39.5393 15.4367L37.3963 9.9657Z" fill="#68BB6B"/>
<path fill-rule="evenodd" clip-rule="evenodd" d="M11.6264 20.3516C11.1074 20.6896 10.5944 21.0646 10.0864 21.4836C10.6674 21.6196 11.1664 21.8476 11.5504 22.0766C11.5444 21.4696 11.5834 20.8466 11.6264 20.3516Z" fill="#68BB6B"/>
<path fill-rule="evenodd" clip-rule="evenodd" d="M22.4478 8.49414C23.5368 7.49714 25.2348 7.57114 26.2328 8.65914C26.4078 8.85014 26.3948 9.14814 26.2038 9.32314C26.0118 9.49914 25.7138 9.48514 25.5388 9.29514C24.8918 8.58914 23.7898 8.54114 23.0838 9.18814C22.3778 9.83514 22.3298 10.9371 22.9768 11.6431C23.1528 11.8351 23.1398 12.1331 22.9478 12.3071C22.8578 12.3901 22.7438 12.4321 22.6308 12.4321C22.5038 12.4321 22.3768 12.3801 22.2838 12.2791C21.2848 11.1901 21.3588 9.49214 22.4478 8.49414ZM31.1508 9.81414C31.3268 10.0061 31.3138 10.3041 31.1218 10.4791C30.9308 10.6541 30.6328 10.6411 30.4578 10.4501C29.7178 9.64214 28.4568 9.58814 27.6488 10.3281C27.2578 10.6871 27.0298 11.1771 27.0068 11.7081C26.9838 12.2371 27.1688 12.7451 27.5278 13.1371C27.7028 13.3281 27.6898 13.6261 27.4978 13.8021C27.4518 13.8451 27.3988 13.8751 27.3428 13.8951C27.3238 13.9021 27.3058 13.9011 27.2868 13.9051C27.2518 13.9141 27.2168 13.9251 27.1808 13.9251C27.1768 13.9251 27.1738 13.9231 27.1708 13.9231C27.1298 13.9221 27.0918 13.9101 27.0528 13.8991C27.0318 13.8931 27.0098 13.8921 26.9898 13.8841C26.9318 13.8581 26.8788 13.8221 26.8338 13.7721C26.4748 13.3811 25.9858 13.1531 25.4548 13.1301C24.9268 13.1131 24.4168 13.2921 24.0258 13.6511C23.6338 14.0101 23.4058 14.5001 23.3828 15.0291C23.3598 15.5591 23.5448 16.0671 23.9038 16.4591C24.0788 16.6501 24.0668 16.9481 23.8748 17.1241C23.7848 17.2071 23.6708 17.2471 23.5568 17.2471C23.4298 17.2471 23.3028 17.1961 23.2098 17.0951C22.6808 16.5181 22.4088 15.7701 22.4428 14.9891C22.4768 14.2071 22.8128 13.4861 23.3888 12.9571C23.9658 12.4291 24.7168 12.1561 25.4958 12.1901C25.7038 12.1991 25.9078 12.2311 26.1058 12.2821C26.0718 12.0811 26.0578 11.8751 26.0668 11.6671C26.0998 10.8851 26.4368 10.1631 27.0128 9.63514C28.2038 8.54414 30.0598 8.62414 31.1508 9.81414ZM17.8648 17.3891H17.8918C20.8448 17.3891 23.5838 18.6651 25.4958 20.8661C25.3668 18.3091 26.3018 15.9551 28.1568 14.3361C30.4078 12.3711 33.5328 11.8001 36.3958 12.7531C35.8898 11.9291 35.2888 11.1251 34.5848 10.3481C28.7938 3.95114 18.1058 4.01014 10.7608 10.4791C5.96577 14.7031 3.52177 20.9551 4.33977 26.6881C8.25977 20.6951 13.0358 17.4011 17.8648 17.3891Z" fill="#68BB6B"/>
<path fill-rule="evenodd" clip-rule="evenodd" d="M27.105 5.05565C28.995 5.46965 30.787 6.20265 32.397 7.25665L30.247 1.76965C29.756 2.78465 28.806 4.20865 27.105 5.05565Z" fill="#68BB6B"/>
<path fill-rule="evenodd" clip-rule="evenodd" d="M33.7534 22.8564C33.7534 23.0624 33.5864 23.2294 33.3804 23.2294C33.1744 23.2294 33.0074 23.0624 33.0074 22.8564C33.0074 22.6514 33.1744 22.4844 33.3804 22.4844C33.5864 22.4844 33.7534 22.6514 33.7534 22.8564ZM33.0824 22.5144C32.9584 22.6224 32.8794 22.7624 32.8604 22.9104C32.8514 22.9834 32.8494 23.1234 32.9474 23.2354C33.0474 23.3484 33.1804 23.3674 33.2614 23.3654C33.4084 23.3654 33.5564 23.3064 33.6794 23.1994C33.8034 23.0904 33.8824 22.9504 33.9014 22.8034C33.9104 22.7304 33.9114 22.5914 33.8144 22.4794C33.7134 22.3644 33.5634 22.3304 33.5004 22.3484C33.3534 22.3484 33.2044 22.4074 33.0824 22.5144Z" fill="#68BB6B"/>
<path fill-rule="evenodd" clip-rule="evenodd" d="M34.8344 22.9238C34.7854 23.2998 34.5954 23.6498 34.2984 23.9078C34.0044 24.1648 33.6364 24.3068 33.2614 24.3068H33.2514C32.8504 24.3038 32.4914 24.1428 32.2384 23.8548C31.9864 23.5648 31.8764 23.1868 31.9274 22.7898C31.9754 22.4138 32.1664 22.0658 32.4624 21.8058C32.7574 21.5488 33.1254 21.4068 33.5004 21.4068H33.5104C33.9114 21.4098 34.2704 21.5708 34.5224 21.8608C34.7744 22.1498 34.8854 22.5268 34.8344 22.9238ZM28.7764 15.0438C26.7494 16.8138 25.9714 19.5938 26.6844 22.4938C28.0554 24.4288 32.9824 29.6928 34.1044 29.8088C38.4424 24.5268 39.4484 18.9768 37.1054 14.0588C34.3064 12.6838 31.0394 13.0688 28.7764 15.0438Z" fill="#68BB6B"/>
<path fill-rule="evenodd" clip-rule="evenodd" d="M0.643955 28.9784C0.430955 28.8934 0.187955 28.9754 0.0689552 29.1704C-0.0500448 29.3664 -0.0120448 29.6194 0.159955 29.7694L0.771955 30.3054C1.05896 30.5564 1.42496 30.6944 1.79696 30.6944C1.85196 30.6944 1.90696 30.6914 1.96096 30.6844C2.36396 30.6404 2.71396 30.4414 2.94696 30.1234L3.79096 28.9684L3.77596 28.8564C3.70696 28.5824 3.66796 28.3184 3.65096 28.0824C3.64096 28.0574 3.62896 28.0344 3.62396 28.0074C3.59996 27.9004 3.58596 27.7914 3.56496 27.6844L3.12396 28.2884C2.61096 28.8344 1.75396 29.4174 0.643955 28.9784Z" fill="#333333"/>
<path fill-rule="evenodd" clip-rule="evenodd" d="M4.49539 28.1641C4.47139 28.1851 4.45039 28.2021 4.42839 28.2261C4.30939 28.3541 4.12839 28.4051 3.96039 28.3601C3.81639 28.3221 3.70539 28.2171 3.65039 28.0821C3.66839 28.3181 3.70639 28.5821 3.77639 28.8561L3.79039 28.9691L3.97839 30.3871C4.03039 30.7761 4.24239 31.1191 4.57439 31.3521C4.83239 31.5321 5.14139 31.6271 5.45639 31.6271C5.57139 31.6271 5.68639 31.6141 5.80039 31.5891L6.59339 31.4121C6.81739 31.3621 6.97239 31.1581 6.96139 30.9301C6.95039 30.7011 6.77639 30.5141 6.54839 30.4861C5.35439 30.3391 4.88439 29.3931 4.69939 28.6611L4.61339 28.0161C4.60539 28.0281 4.59639 28.0411 4.58839 28.0551C4.56339 28.0961 4.53239 28.1331 4.49539 28.1641Z" fill="#333333"/>
<path fill-rule="evenodd" clip-rule="evenodd" d="M33.8137 22.4795C33.9117 22.5915 33.9107 22.7305 33.9007 22.8035C33.8817 22.9505 33.8027 23.0905 33.6787 23.1995C33.5567 23.3065 33.4077 23.3655 33.2607 23.3655C33.1807 23.3675 33.0467 23.3485 32.9477 23.2355C32.8497 23.1235 32.8507 22.9835 32.8597 22.9105C32.8787 22.7625 32.9577 22.6225 33.0817 22.5145C33.2047 22.4075 33.3527 22.3485 33.5007 22.3485C33.5627 22.3305 33.7137 22.3645 33.8137 22.4795ZM33.5007 21.4075C33.1247 21.4075 32.7567 21.5485 32.4627 21.8055C32.1657 22.0655 31.9757 22.4145 31.9267 22.7905C31.8757 23.1865 31.9857 23.5645 32.2387 23.8545C32.4907 24.1425 32.8507 24.3035 33.2507 24.3065H33.2607C33.6357 24.3065 34.0037 24.1655 34.2977 23.9085C34.5947 23.6495 34.7857 23.2995 34.8347 22.9235C34.8857 22.5265 34.7747 22.1495 34.5217 21.8605C34.2707 21.5715 33.9107 21.4105 33.5107 21.4075H33.5007Z" fill="#333333"/>
<path fill-rule="evenodd" clip-rule="evenodd" d="M10.7605 10.4794C18.1055 4.00945 28.7935 3.95145 34.5845 10.3474C35.2885 11.1254 35.8895 11.9284 36.3955 12.7524C36.7845 12.8824 37.1705 13.0394 37.5475 13.2254L37.1295 14.0694C37.1215 14.0654 37.1135 14.0624 37.1055 14.0584C39.4485 18.9764 38.4425 24.5264 34.1035 29.8084C32.9825 29.6924 28.0545 24.4284 26.6845 22.4944C26.6905 22.5184 26.6945 22.5424 26.7005 22.5674L25.7885 22.7984C25.6225 22.1474 25.5285 21.5004 25.4955 20.8664C23.5835 18.6654 20.8445 17.3884 17.8915 17.3884H17.8645C13.0355 17.4014 8.26047 20.6954 4.33947 26.6884C3.52147 20.9554 5.96547 14.7034 10.7605 10.4794ZM3.65047 28.0824C3.70547 28.2164 3.81647 28.3224 3.96047 28.3604C4.12847 28.4054 4.30947 28.3544 4.42747 28.2254C4.44947 28.2024 4.47147 28.1844 4.49547 28.1644C4.53147 28.1324 4.56347 28.0954 4.58847 28.0544C4.59647 28.0414 4.60547 28.0284 4.61347 28.0154C6.02647 25.7204 7.55647 23.8064 9.16147 22.3004C9.10347 22.2994 9.04447 22.2964 8.98447 22.2994L8.95547 21.3584C9.35747 21.3534 9.73647 21.4014 10.0865 21.4834C10.5935 21.0644 11.1075 20.6894 11.6265 20.3514C11.6695 19.8514 11.7175 19.4814 11.7295 19.3904L12.6625 19.5154C12.6605 19.5314 12.6495 19.6154 12.6345 19.7474C14.0085 19.0024 15.4115 18.5484 16.8205 18.3944C16.9755 18.2504 17.1245 18.1014 17.2835 17.9604C17.4625 17.8024 17.6455 17.6474 17.8285 17.4984L18.4225 18.2274C18.3775 18.2644 18.3325 18.3044 18.2875 18.3414C21.3145 18.4714 24.0595 20.0774 25.6905 22.7024C25.9875 23.1794 27.1815 24.6534 28.6075 26.2104C30.5455 26.9584 32.1495 28.2774 33.2705 29.8484L33.6555 29.7934C33.6965 30.0794 33.7545 30.3734 33.8245 30.6664C33.8335 30.6784 33.8435 30.6914 33.8515 30.7034C33.9335 30.7264 34.0125 30.7434 34.0835 30.7484C34.1075 30.7504 34.1295 30.7504 34.1525 30.7504C34.4065 30.7504 34.6265 30.6524 34.7775 30.4694C37.1855 27.5574 38.6315 24.5624 39.1165 21.6204C39.0125 21.6434 38.9075 21.6614 38.8045 21.6894L38.5585 20.7814C38.7845 20.7204 39.0135 20.6714 39.2425 20.6294C39.3825 19.1064 39.2605 17.6004 38.8785 16.1324C38.5425 15.9174 38.1985 15.7144 37.8435 15.5294C37.7735 15.4924 37.7145 15.4384 37.6705 15.3734L38.0625 15.1104L38.2795 14.6944C38.3385 14.7254 38.3945 14.7594 38.4525 14.7914C38.0035 13.5974 37.3765 12.4334 36.5695 11.3104C36.4945 11.4084 36.4215 11.5054 36.3385 11.6034C36.3185 11.6254 36.2975 11.6464 36.2735 11.6664L35.9765 11.2954L35.6215 10.9934C35.7515 10.8404 35.8695 10.6864 35.9765 10.5344C35.7555 10.2584 35.5265 9.98545 35.2825 9.71645C34.8235 9.20945 34.3345 8.74745 33.8225 8.31745L33.8625 8.41845L32.9865 8.76145L32.3965 7.25645C30.7865 6.20345 28.9945 5.46945 27.1045 5.05545C26.5425 5.33545 25.8975 5.55345 25.1605 5.67045L25.0115 4.74245C25.0275 4.73945 25.0405 4.73545 25.0565 4.73245C19.9945 4.25045 14.5015 5.93045 10.1385 9.77345C4.78547 14.4894 2.29147 21.3234 3.56447 27.6844C3.58647 27.7914 3.59947 27.9004 3.62347 28.0074C3.62947 28.0344 3.64047 28.0574 3.65047 28.0824Z" fill="#333333"/>
<path fill-rule="evenodd" clip-rule="evenodd" d="M28.1573 14.3359C26.3013 15.9549 25.3663 18.3099 25.4963 20.8659C25.5283 21.5009 25.6233 22.1479 25.7893 22.7989L26.7013 22.5669C26.6953 22.5429 26.6913 22.5189 26.6843 22.4939C25.9713 19.5939 26.7493 16.8139 28.7763 15.0439C31.0393 13.0679 34.3063 12.6839 37.1063 14.0589C37.1143 14.0629 37.1223 14.0649 37.1303 14.0689L37.5473 13.2259C37.1703 13.0389 36.7853 12.8829 36.3953 12.7529C33.5333 11.7999 30.4083 12.3709 28.1573 14.3359Z" fill="#333333"/>
<path fill-rule="evenodd" clip-rule="evenodd" d="M11.7301 19.3905C11.7181 19.4815 11.6701 19.8515 11.6261 20.3515C11.5841 20.8465 11.5451 21.4695 11.5501 22.0765C11.1661 21.8475 10.6671 21.6195 10.0871 21.4835C9.73705 21.4015 9.35805 21.3535 8.95605 21.3585L8.98505 22.2995C9.04505 22.2965 9.10405 22.2995 9.16205 22.3005C10.6421 22.3285 11.7431 23.3725 11.7531 23.3825C11.8431 23.4695 11.9601 23.5145 12.0801 23.5145C12.1521 23.5145 12.2251 23.4975 12.2921 23.4645C12.4701 23.3735 12.5721 23.1815 12.5461 22.9835C12.4071 21.9255 12.5651 20.3385 12.6341 19.7465C12.6491 19.6155 12.6611 19.5315 12.6631 19.5155L11.7301 19.3905Z" fill="#333333"/>
<path fill-rule="evenodd" clip-rule="evenodd" d="M25.1607 5.67085C25.8977 5.55385 26.5427 5.33585 27.1047 5.05585C28.8067 4.20885 29.7567 2.78485 30.2467 1.76985L32.3967 7.25685L32.9867 8.76185L33.8627 8.41885L33.8227 8.31685L30.6807 0.298853C30.6057 0.107853 30.4097 -0.0161471 30.2097 0.00185293C30.0047 0.0158529 29.8327 0.161853 29.7857 0.361853C29.7477 0.514853 28.8477 4.09885 25.0567 4.73285C25.0407 4.73485 25.0277 4.73885 25.0127 4.74185L25.1607 5.67085Z" fill="#333333"/>
<path fill-rule="evenodd" clip-rule="evenodd" d="M10.7961 36.2715C10.7871 36.2485 10.7751 36.2255 10.7691 36.2005L10.7551 36.1335H10.7571C10.7521 36.1185 10.7481 36.1035 10.7451 36.0875C10.7301 36.0165 10.7211 35.9445 10.7071 35.8745L10.2691 36.4735C9.75515 37.0215 8.90015 37.6065 7.78815 37.1645C7.57615 37.0795 7.33315 37.1615 7.21315 37.3565C7.09415 37.5515 7.13315 37.8045 7.30515 37.9555L7.91715 38.4915C8.20315 38.7425 8.56915 38.8795 8.94215 38.8795C8.99615 38.8795 9.05115 38.8765 9.10615 38.8715C9.50915 38.8265 9.85915 38.6265 10.0911 38.3095L10.9361 37.1545L10.9211 37.0425C10.8521 36.7695 10.8141 36.5075 10.7961 36.2715Z" fill="#333333"/>
<path fill-rule="evenodd" clip-rule="evenodd" d="M11.6439 36.3467C11.6299 36.3627 11.6119 36.3777 11.5919 36.3947C11.5829 36.4047 11.5739 36.4127 11.5639 36.4207C11.4449 36.5477 11.2699 36.5967 11.1029 36.5507C10.9599 36.5127 10.8509 36.4067 10.7959 36.2717C10.8139 36.5077 10.8519 36.7697 10.9209 37.0427L10.9359 37.1547L11.1239 38.5727C11.1759 38.9627 11.3869 39.3057 11.7189 39.5367C11.9769 39.7177 12.2869 39.8127 12.6019 39.8127C12.7169 39.8127 12.8319 39.7997 12.9459 39.7747L13.7389 39.5977C13.9619 39.5477 14.1179 39.3447 14.1059 39.1157C14.0949 38.8867 13.9209 38.6997 13.6939 38.6717C12.4989 38.5257 12.0299 37.5777 11.8449 36.8467L11.7589 36.2007C11.7499 36.2137 11.7419 36.2277 11.7329 36.2417C11.7089 36.2807 11.6789 36.3167 11.6439 36.3467Z" fill="#333333"/>
<path fill-rule="evenodd" clip-rule="evenodd" d="M40.2272 30.7001C40.3502 30.5931 40.4982 30.5341 40.6452 30.5341H40.6492C40.7232 30.5351 40.8612 30.5531 40.9592 30.6651C41.0572 30.7771 41.0562 30.9171 41.0462 30.9891C41.0272 31.1371 40.9482 31.2771 40.8252 31.3851C40.5902 31.5901 40.2542 31.6051 40.0932 31.4211C39.9312 31.2351 39.9922 30.9051 40.2272 30.7001ZM40.4072 32.4911C40.7682 32.4911 41.1402 32.3591 41.4432 32.0951C41.7402 31.8351 41.9312 31.4851 41.9792 31.1101C42.0312 30.7131 41.9202 30.3351 41.6672 30.0461C41.4152 29.7571 41.0562 29.5961 40.6562 29.5941H40.6452C40.2702 29.5941 39.9022 29.7351 39.6082 29.9911C38.9782 30.5411 38.8782 31.4601 39.3842 32.0391C39.6462 32.3401 40.0192 32.4911 40.4072 32.4911Z" fill="#333333"/>
<mask id="mask0" mask-type="alpha" maskUnits="userSpaceOnUse" x="10" y="14" width="37" height="25">
<path fill-rule="evenodd" clip-rule="evenodd" d="M10.3818 14.6942H46.4478V38.9362H10.3818V14.6942Z" fill="white"/>
</mask>
<g mask="url(#mask0)">
<path fill-rule="evenodd" clip-rule="evenodd" d="M40.1317 16.9482L39.5397 15.4362C39.1877 15.2062 38.8237 14.9912 38.4527 14.7912C38.3947 14.7602 38.3387 14.7252 38.2797 14.6942L38.0627 15.1102L37.6707 15.3732C37.7147 15.4382 37.7737 15.4922 37.8437 15.5292C38.1987 15.7152 38.5427 15.9182 38.8787 16.1332C39.3637 16.4412 39.8317 16.7762 40.2707 17.1402C40.7867 17.5642 41.2777 18.0332 41.7297 18.5332C42.4367 19.3142 43.0407 20.1222 43.5477 20.9492C43.9357 21.0792 44.3197 21.2272 44.6927 21.4122L44.2747 22.2562C44.2667 22.2522 44.2587 22.2492 44.2517 22.2452C46.5937 27.1632 45.5867 32.7132 41.2487 37.9942C40.1647 37.8772 35.4257 32.8592 33.8517 30.7032C33.8427 30.6912 33.8337 30.6782 33.8247 30.6672C33.8317 30.6942 33.8367 30.7222 33.8437 30.7502L33.4337 30.8532L33.0567 31.1992C32.9967 31.1392 32.9517 31.0612 32.9307 30.9792C32.8417 30.6252 32.7727 30.2712 32.7237 29.9262L33.2707 29.8482C32.1497 28.2772 30.5457 26.9582 28.6077 26.2112C25.9407 25.1832 22.6457 25.2412 19.1107 27.2282C17.9797 27.8632 16.8637 28.6842 15.7967 29.6702C14.2757 31.0702 12.8277 32.8182 11.4827 34.8772C10.6367 29.0792 13.0397 22.9522 17.9067 18.6662C18.0317 18.5542 18.1607 18.4482 18.2877 18.3422C18.3327 18.3042 18.3777 18.2642 18.4227 18.2272L17.8287 17.4982C17.6457 17.6472 17.4627 17.8022 17.2837 17.9612C17.1247 18.1012 16.9757 18.2502 16.8207 18.3942C11.7997 23.0832 9.47265 29.7032 10.7077 35.8742C10.7217 35.9442 10.7297 36.0162 10.7447 36.0882C10.7487 36.1032 10.7527 36.1182 10.7567 36.1342H10.7557L10.7697 36.2002C10.7757 36.2252 10.7867 36.2482 10.7967 36.2712C10.8507 36.4062 10.9597 36.5122 11.1027 36.5512C11.2707 36.5962 11.4447 36.5482 11.5637 36.4212C11.5737 36.4132 11.5837 36.4042 11.5917 36.3942C11.6117 36.3782 11.6297 36.3622 11.6437 36.3462C11.6787 36.3162 11.7087 36.2802 11.7337 36.2412C11.7417 36.2272 11.7507 36.2142 11.7587 36.2012C13.1657 33.9142 14.6947 31.9942 16.3057 30.4852C16.2467 30.4842 16.1897 30.4822 16.1297 30.4852L16.1007 29.5442C16.5057 29.5362 16.8847 29.5832 17.2347 29.6652C17.7397 29.2482 18.2537 28.8692 18.7717 28.5332C18.8157 28.0352 18.8627 27.6672 18.8747 27.5762L19.8077 27.7012C19.8057 27.7182 19.7947 27.8022 19.7777 27.9382C25.5467 24.8192 30.5787 27.2562 32.8397 30.8932C32.8817 30.9602 32.9357 31.0412 33.0017 31.1342C33.0047 31.1382 33.0077 31.1422 33.0117 31.1472C33.9587 32.4712 39.4207 38.8692 41.2617 38.9352C41.2737 38.9362 41.2857 38.9362 41.2987 38.9362C41.5507 38.9362 41.7717 38.8382 41.9217 38.6562C47.7747 31.5762 47.9597 24.0112 42.4277 17.9012C41.9737 17.4002 41.4807 16.9312 40.9667 16.5002L41.0077 16.6052L40.1317 16.9482Z" fill="#333333"/>
</g>
<path fill-rule="evenodd" clip-rule="evenodd" d="M44.2516 22.2451C44.2596 22.2491 44.2676 22.2521 44.2746 22.2561L44.6926 21.4121C44.3196 21.2271 43.9366 21.0791 43.5476 20.9491C42.1496 20.4831 40.6716 20.3681 39.2426 20.6301C39.0136 20.6721 38.7856 20.7211 38.5596 20.7811L38.8046 21.6891C38.9086 21.6611 39.0136 21.6431 39.1176 21.6201C40.8236 21.2351 42.6326 21.4491 44.2516 22.2451Z" fill="#333333"/>
<path fill-rule="evenodd" clip-rule="evenodd" d="M32.9311 30.9795C32.9521 31.0615 32.9961 31.1395 33.0571 31.1995L33.4341 30.8535L33.8441 30.7505C33.8371 30.7225 33.8321 30.6945 33.8251 30.6675C33.7541 30.3735 33.6961 30.0795 33.6561 29.7935L33.2701 29.8485L32.7241 29.9255C32.7731 30.2715 32.8421 30.6255 32.9311 30.9795Z" fill="#333333"/>
<path fill-rule="evenodd" clip-rule="evenodd" d="M18.8751 27.5762C18.8631 27.6672 18.8151 28.0352 18.7721 28.5332C18.7291 29.0292 18.6901 29.6542 18.6951 30.2632C18.3111 30.0332 17.8151 29.8022 17.2341 29.6652C16.8851 29.5832 16.5061 29.5362 16.1011 29.5442L16.1301 30.4852C16.1891 30.4822 16.2471 30.4842 16.3061 30.4852C17.7811 30.5022 18.8881 31.5592 18.8981 31.5692C18.9881 31.6552 19.1051 31.7012 19.2251 31.7012C19.2971 31.7012 19.3701 31.6842 19.4371 31.6502C19.6151 31.5602 19.7171 31.3682 19.6911 31.1692C19.5521 30.1142 19.7091 28.5342 19.7781 27.9382C19.7941 27.8032 19.8061 27.7182 19.8081 27.7012L18.8751 27.5762Z" fill="#333333"/>
<path fill-rule="evenodd" clip-rule="evenodd" d="M35.9771 11.2958L36.2741 11.6658C36.2971 11.6468 36.3191 11.6258 36.3381 11.6038C36.4211 11.5058 36.4951 11.4078 36.5691 11.3108C36.9301 10.8388 37.2031 10.3698 37.3961 9.96583L39.5401 15.4368L40.1321 16.9478L41.0081 16.6058L40.9671 16.4998L37.8271 8.48383C37.7521 8.29283 37.5541 8.17083 37.3551 8.18683C37.1501 8.20083 36.9781 8.34783 36.9311 8.54783C36.9281 8.55983 36.6971 9.51083 35.9771 10.5338C35.8701 10.6868 35.7521 10.8408 35.6221 10.9928L35.9771 11.2958Z" fill="#333333"/>
<path fill-rule="evenodd" clip-rule="evenodd" d="M27.0525 13.8994C27.0315 13.8934 27.0095 13.8924 26.9895 13.8834C27.0095 13.8924 27.0315 13.8934 27.0525 13.8994Z" fill="#333333"/>
<path fill-rule="evenodd" clip-rule="evenodd" d="M27.4979 13.8018C27.4519 13.8448 27.3979 13.8748 27.3429 13.8958C27.3979 13.8748 27.4519 13.8448 27.4979 13.8018Z" fill="#333333"/>
<path fill-rule="evenodd" clip-rule="evenodd" d="M27.1805 13.9248C27.2165 13.9248 27.2515 13.9138 27.2865 13.9048C27.2475 13.9148 27.2095 13.9238 27.1705 13.9228C27.1735 13.9228 27.1775 13.9248 27.1805 13.9248Z" fill="#333333"/>
<path fill-rule="evenodd" clip-rule="evenodd" d="M26.1051 12.2822C26.6471 12.4222 27.1391 12.7142 27.5271 13.1362C27.1681 12.7452 26.9831 12.2372 27.0061 11.7082C27.0291 11.1772 27.2571 10.6872 27.6481 10.3282C28.4571 9.58821 29.7171 9.64221 30.4571 10.4502C30.6321 10.6412 30.9301 10.6542 31.1221 10.4792C31.3131 10.3032 31.3261 10.0062 31.1501 9.81421C30.0591 8.62421 28.2041 8.54421 27.0131 9.63521C26.4361 10.1632 26.1001 10.8852 26.0661 11.6672C26.0571 11.8752 26.0711 12.0812 26.1051 12.2822Z" fill="#333333"/>
<path fill-rule="evenodd" clip-rule="evenodd" d="M25.4958 12.1903C24.7168 12.1563 23.9658 12.4283 23.3898 12.9573C22.8128 13.4863 22.4768 14.2073 22.4428 14.9893C22.4088 15.7703 22.6818 16.5183 23.2098 17.0943C23.3028 17.1963 23.4298 17.2473 23.5578 17.2473C23.6708 17.2473 23.7848 17.2073 23.8748 17.1243C24.0668 16.9483 24.0788 16.6503 23.9038 16.4593C23.5448 16.0673 23.3598 15.5593 23.3828 15.0293C23.4058 14.5003 23.6338 14.0093 24.0258 13.6513C24.4168 13.2923 24.9268 13.1133 25.4548 13.1293C25.9858 13.1533 26.4748 13.3803 26.8338 13.7723C26.8788 13.8223 26.9328 13.8583 26.9898 13.8833C27.0098 13.8923 27.0318 13.8933 27.0528 13.8993C27.0918 13.9103 27.1298 13.9213 27.1708 13.9223C27.2098 13.9233 27.2478 13.9153 27.2868 13.9053C27.3058 13.9013 27.3248 13.9023 27.3428 13.8953C27.3988 13.8753 27.4518 13.8443 27.4978 13.8013C27.6898 13.6263 27.7028 13.3283 27.5278 13.1363C27.1398 12.7133 26.6478 12.4213 26.1058 12.2823C25.9078 12.2313 25.7038 12.1993 25.4958 12.1903Z" fill="#333333"/>
<path fill-rule="evenodd" clip-rule="evenodd" d="M22.6306 12.4316C22.7436 12.4316 22.8576 12.3906 22.9476 12.3076C23.1396 12.1326 23.1526 11.8346 22.9766 11.6436C22.3296 10.9376 22.3776 9.8346 23.0836 9.1886C23.7896 8.5406 24.8916 8.5886 25.5386 9.2946C25.7136 9.4856 26.0116 9.4986 26.2036 9.3236C26.3946 9.1486 26.4076 8.8506 26.2326 8.6596C25.2346 7.5716 23.5366 7.4966 22.4476 8.4936C21.3586 9.4926 21.2846 11.1906 22.2836 12.2796C22.3766 12.3796 22.5036 12.4316 22.6306 12.4316Z" fill="#333333"/>
<path fill-rule="evenodd" clip-rule="evenodd" d="M33.0079 22.8564C33.0079 23.0624 33.1749 23.2294 33.3809 23.2294C33.5869 23.2294 33.7539 23.0624 33.7539 22.8564C33.7539 22.6514 33.5869 22.4844 33.3809 22.4844C33.1749 22.4844 33.0079 22.6514 33.0079 22.8564Z" fill="#333333"/>
<path fill-rule="evenodd" clip-rule="evenodd" d="M40.5259 31.416C40.7319 31.416 40.8989 31.249 40.8989 31.043C40.8989 30.837 40.7319 30.67 40.5259 30.67C40.3199 30.67 40.1529 30.837 40.1529 31.043C40.1529 31.249 40.3199 31.416 40.5259 31.416Z" fill="#333333"/>
</svg>