<svg width="41" height="40" viewBox="0 0 41 40" fill="none" xmlns="http://www.w3.org/2000/svg">
<path fill-rule="evenodd" clip-rule="evenodd" d="M34.3822 13.3455C35.0622 13.3715 36.3092 13.2895 36.7622 12.9585C36.9722 12.8055 37.2662 12.8525 37.4192 13.0615C37.5722 13.2715 37.5272 13.5665 37.3172 13.7195C36.9772 13.9675 36.4772 14.1075 35.9842 14.1875L36.4362 14.4265C36.6662 14.5475 36.7542 14.8325 36.6332 15.0625C36.5492 15.2225 36.3852 15.3135 36.2162 15.3135C36.1422 15.3135 36.0682 15.2955 35.9972 15.2595L34.1442 14.2825C33.9692 14.1895 33.8782 14.0025 33.8972 13.8185C33.8972 13.8105 33.8932 13.8045 33.8942 13.7965C33.9042 13.5375 34.1182 13.3245 34.3822 13.3455ZM24.8162 29.5775C23.7292 29.4355 22.6682 29.8465 21.9762 30.6795C20.5112 32.4455 18.9562 35.2205 19.6652 38.5335L25.9952 38.5165C25.2622 34.7135 27.2422 31.5935 28.5382 30.0325C29.4382 28.9485 30.8182 28.4115 32.2262 28.5985L33.7982 28.8075C35.0092 28.8635 35.8512 28.6215 36.2992 28.0925C36.7692 27.5355 36.6732 26.7815 36.6472 26.6225C36.5532 26.3785 36.2282 25.4255 36.5542 24.6455C36.7132 24.2675 37.0032 23.9835 37.3962 23.8245C38.0442 23.5605 38.1542 23.3605 38.1702 23.3235C38.1762 23.3085 38.1852 23.2855 38.1492 23.1995C38.1492 23.2035 38.0782 23.1465 37.8612 23.0685C37.7712 23.0355 37.6772 23.0195 37.5832 23.0015L37.2132 22.9335L37.1622 22.5385C37.1442 22.0895 37.5442 21.9935 38.3422 21.8015C38.6222 21.7345 38.7632 21.6385 38.7612 21.5165C38.7612 21.4205 38.7102 21.3275 38.6282 21.2725C38.0222 20.8515 37.8602 20.2385 37.8432 20.1685C37.8202 20.0475 37.6932 19.1435 39.2912 18.6605C39.6562 18.5505 39.8902 18.3665 39.9862 18.1155C40.0302 18.0005 40.0072 17.8575 39.9252 17.7415L37.9732 14.9305C37.6282 14.4355 37.4752 13.8325 37.5422 13.2335C37.5542 13.1105 37.5612 12.9825 37.5612 12.8565C37.5612 12.5635 37.5232 12.2715 37.4502 11.9895C36.7732 11.4755 36.0492 11.6835 35.5632 11.9525L34.9362 12.4085C34.8532 12.4695 34.7562 12.4995 34.6602 12.4995C34.5252 12.4995 34.3912 12.4415 34.2992 12.3305C34.1402 12.1415 34.1552 11.8615 34.3332 11.6895C34.5102 11.5205 34.7532 11.3325 35.0412 11.1685L36.0352 10.4455C36.1962 10.3265 36.3812 10.2595 36.5742 10.2325L34.9812 7.53352C34.6432 6.95852 34.2512 6.40852 33.8262 5.88452L30.2702 5.89352C29.8312 5.87652 29.7092 5.96352 29.6752 6.00152C29.6402 6.04152 29.5662 6.18252 29.6352 6.62752L30.0242 9.49352C30.0352 9.56952 30.0422 9.64552 30.0492 9.72152L30.6552 10.7505C31.0202 11.3995 31.2162 12.1475 31.2162 12.9035C31.2162 13.0635 31.2082 13.2235 31.1912 13.3835C31.1492 13.7555 31.2442 14.1315 31.4602 14.4415L33.4132 17.2505C33.6722 17.6235 33.7342 18.0885 33.5802 18.4955C33.4392 18.8665 33.0992 19.3605 32.2782 19.6085C31.6792 19.7885 31.5282 19.9905 31.4922 20.0575C31.5292 20.1505 31.6392 20.3805 31.8742 20.5435C32.2112 20.7755 32.4142 21.1535 32.4162 21.5555C32.4192 21.8025 32.3372 22.3655 31.5962 22.6625C31.6532 22.7295 31.6962 22.8015 31.7282 22.8775C31.7742 22.9855 31.9192 23.3265 31.7532 23.7295C31.5872 24.1315 31.1772 24.4525 30.4642 24.7425C30.3022 24.8085 30.1982 24.9075 30.1372 25.0535C29.9622 25.4695 30.1602 26.1355 30.2512 26.3585L30.2742 26.4325C30.2872 26.4865 30.5642 27.7515 29.7412 28.7375C29.0952 29.5095 27.9942 29.8665 26.4622 29.7955C26.4542 29.7945 26.4482 29.7905 26.4412 29.7895C26.4342 29.7895 26.4282 29.7925 26.4212 29.7915L24.8162 29.5775Z" fill="#D4E156"/>
<path fill-rule="evenodd" clip-rule="evenodd" d="M28.9717 5.37773C29.2447 5.06973 29.6757 4.92273 30.2857 4.95273L32.9937 4.94573C30.0997 1.98373 26.0537 0.531726 21.9677 1.04173C21.8367 1.05873 21.7067 1.08473 21.5757 1.10473C23.7167 1.98073 25.6197 3.35673 27.1317 5.15873C27.6427 5.76873 28.1047 6.42273 28.5067 7.10373L28.8247 7.64273L28.7047 6.76373C28.6437 6.37273 28.6027 5.79373 28.9717 5.37773Z" fill="#D4E156"/>
<path fill-rule="evenodd" clip-rule="evenodd" d="M18.6772 17.2411L18.4542 17.3341C18.0252 17.5131 17.7282 17.8901 17.6782 18.3181C17.6412 18.6481 17.7182 18.9861 17.8962 19.2661C18.0352 19.4861 17.9702 19.7771 17.7512 19.9161C17.6732 19.9661 17.5862 19.9891 17.4992 19.9891C17.3442 19.9891 17.1912 19.9121 17.1012 19.7701C16.8082 19.3081 16.6812 18.7541 16.7442 18.2101C16.8332 17.4451 17.3482 16.7771 18.0912 16.4671L18.3132 16.3731C18.5522 16.2711 18.8282 16.3861 18.9292 16.6251C19.0302 16.8651 18.9172 17.1401 18.6772 17.2411ZM27.0962 13.3921C27.7752 13.4181 29.0232 13.3371 29.4762 13.0061C29.6852 12.8521 29.9802 12.8991 30.1332 13.1081C30.2862 13.3181 30.2402 13.6131 30.0312 13.7661C29.6912 14.0141 29.1912 14.1551 28.6972 14.2351L29.1502 14.4741C29.3802 14.5951 29.4682 14.8801 29.3472 15.1101C29.2622 15.2691 29.0992 15.3611 28.9302 15.3611C28.8562 15.3611 28.7812 15.3441 28.7112 15.3061L26.8582 14.3291C26.6832 14.2371 26.5922 14.0511 26.6112 13.8651C26.6112 13.8581 26.6072 13.8511 26.6082 13.8451C26.6182 13.5851 26.8282 13.3841 27.0962 13.3921ZM21.2522 30.0791C22.1512 28.9951 23.5282 28.4611 24.9402 28.6451L26.5192 28.8551C27.7292 28.9131 28.5732 28.6661 29.0192 28.1341C29.4852 27.5761 29.3882 26.8251 29.3632 26.6711C29.2682 26.4281 28.9422 25.4721 29.2682 24.6921C29.4262 24.3141 29.7172 24.0301 30.1102 23.8711C30.7582 23.6081 30.8682 23.4081 30.8832 23.3701C30.8892 23.3551 30.8992 23.3331 30.8632 23.2471C30.8592 23.2561 30.7872 23.1911 30.5752 23.1161C30.4972 23.0871 30.4082 23.0691 30.2992 23.0501L29.9252 22.9831L29.8762 22.5841C29.8612 22.1361 30.2602 22.0401 31.0562 21.8481C31.3362 21.7821 31.4762 21.6851 31.4752 21.5631C31.4752 21.4701 31.4222 21.3741 31.3402 21.3181C30.7352 20.8991 30.5732 20.2851 30.5572 20.2161C30.5332 20.0941 30.4092 19.1891 32.0062 18.7081C32.3712 18.5971 32.6052 18.4141 32.7002 18.1631C32.7442 18.0481 32.7212 17.9031 32.6402 17.7881L30.6872 14.9781C30.3412 14.4801 30.1882 13.8771 30.2552 13.2801C30.2692 13.1551 30.2752 13.0291 30.2752 12.9031C30.2752 12.6251 30.2382 12.3481 30.1732 12.0791C29.3942 11.5231 28.5662 11.7761 28.0162 12.0871L27.3382 12.5811C27.2552 12.6411 27.1582 12.6711 27.0622 12.6711C26.9272 12.6711 26.7942 12.6131 26.7002 12.5031C26.5422 12.3131 26.5572 12.0331 26.7352 11.8611C26.9302 11.6741 27.2002 11.4661 27.5192 11.2841L28.6342 10.4711C28.8212 10.3361 29.0372 10.2621 29.2632 10.2391L27.6962 7.58108C27.3562 7.00608 26.9652 6.45508 26.5402 5.93208L22.9842 5.94008C22.5472 5.92408 22.4232 6.01208 22.3892 6.04908C22.3542 6.08908 22.2802 6.22908 22.3492 6.67508L22.7382 9.53908C22.9702 11.2561 22.4212 12.9581 21.2302 14.2111L19.2252 16.3861L17.1782 15.5031C16.9632 15.3941 16.6962 15.2951 16.4972 15.3701C16.3082 15.4401 16.1782 15.6731 16.1032 15.8541C15.9032 16.3461 15.8882 16.9581 15.8882 16.9651C15.8802 17.8531 16.0292 18.6821 16.3312 19.4241C16.6602 20.2321 17.1592 20.9051 17.8152 21.4241C17.9232 21.5091 18.0732 21.5241 18.2002 21.4591L19.2032 20.9341C19.4342 20.8121 19.7182 20.9021 19.8392 21.1331C19.9592 21.3631 19.8702 21.6471 19.6392 21.7671L18.6332 22.2941C18.4452 22.3901 18.2392 22.4401 18.0342 22.4401C17.7452 22.4401 17.4602 22.3421 17.2322 22.1631C16.4472 21.5411 15.8512 20.7391 15.4602 19.7791C15.1112 18.9231 14.9382 17.9701 14.9482 16.9511C14.9482 16.9161 14.9642 16.1581 15.2332 15.4981C15.4472 14.9791 15.7612 14.6391 16.1692 14.4881C16.5832 14.3341 17.0572 14.3881 17.5762 14.6501L18.9862 15.2581L20.5432 13.5681C21.5412 12.5171 22.0002 11.0981 21.8062 9.66808L21.7872 9.53508L21.4192 6.81008C21.3572 6.42008 21.3172 5.84108 21.6852 5.42508C21.9582 5.11708 22.3872 4.97108 23.0002 5.00008L25.7112 4.99308C24.0942 3.34108 22.0972 2.13908 19.8782 1.49908C18.1762 1.00908 16.4272 0.870081 14.6822 1.08908C14.2912 1.13808 13.9122 1.19508 13.5562 1.26108C11.9782 1.54708 10.4252 2.10908 8.94022 2.93208C8.77522 3.02308 8.61422 3.12408 8.45722 3.22908L8.46122 3.23408L8.46222 3.23508C8.50722 3.28708 12.9922 8.45408 16.4972 10.1921C16.7302 10.3071 16.8242 10.5901 16.7092 10.8221C16.6272 10.9881 16.4612 11.0841 16.2872 11.0841C16.2172 11.0841 16.1462 11.0681 16.0792 11.0351C12.8812 9.44908 9.08622 5.34908 8.03022 4.16808C7.36222 4.61308 6.71222 5.09608 6.10422 5.62808C5.52122 6.13908 4.84422 6.81708 4.28422 7.44908L4.86722 7.95908C5.57622 8.56908 7.45922 10.1311 9.56622 11.3851C11.0912 12.2931 12.4302 12.8621 13.5472 13.0761C13.8022 13.1251 13.9692 13.3721 13.9202 13.6271C13.8772 13.8521 13.6802 14.0091 13.4592 14.0091C13.4292 14.0091 13.4002 14.0061 13.3702 14.0011C12.1462 13.7651 10.7032 13.1581 9.08422 12.1931C6.92622 10.9091 5.04522 9.35508 4.28822 8.70308C3.88822 9.14308 3.50722 9.60308 3.16722 10.0901C2.80922 10.6021 2.48222 11.1481 2.19422 11.7131L2.54422 12.0501C2.67022 12.1531 7.18422 15.8451 11.9852 16.2201C12.2442 16.2411 12.4372 16.4671 12.4172 16.7261C12.3982 16.9721 12.1922 17.1601 11.9482 17.1601C11.9362 17.1601 11.9242 17.1591 11.9112 17.1591C7.61922 16.8221 3.69322 14.1121 2.39022 13.1241C2.10422 13.6681 1.83822 14.2201 1.61322 14.7821C1.35722 15.4211 1.13422 16.0881 0.949219 16.7651L1.30322 17.0671C1.88222 17.3411 7.63322 19.9891 11.1662 19.0631C11.4182 18.9951 11.6742 19.1471 11.7402 19.3981C11.8062 19.6501 11.6562 19.9071 11.4052 19.9731C10.8022 20.1321 10.1502 20.1991 9.47522 20.1991C6.35122 20.1991 2.75422 18.7481 1.39322 18.1431C1.08022 19.6251 0.981219 21.1281 1.11322 22.6301L1.67522 22.7981C1.93422 22.8421 6.12722 23.5281 9.21822 22.8491C9.29122 22.8341 9.36222 22.8181 9.43322 22.7991C9.86422 22.6941 10.2432 22.5671 10.5712 22.4221C10.8082 22.3141 11.0862 22.4221 11.1922 22.6601C11.2982 22.8971 11.1912 23.1761 10.9542 23.2811C10.5752 23.4501 10.1422 23.5951 9.66722 23.7111C9.59122 23.7301 9.50522 23.7501 9.41922 23.7691C8.32322 24.0101 7.11622 24.0921 5.98322 24.0921C4.47022 24.0921 3.09022 23.9461 2.26722 23.8371L3.55522 27.5671H7.15722C7.68222 27.5671 8.16222 27.8091 8.47522 28.2311C8.78722 28.6531 8.87822 29.1811 8.72522 29.6821C7.24322 34.5201 5.09722 37.2931 3.89322 38.5601L18.7052 38.5361C17.9752 34.7611 19.9582 31.6381 21.2522 30.0791Z" fill="#D4E156"/>
<path fill-rule="evenodd" clip-rule="evenodd" d="M27.5194 11.284C27.2004 11.466 26.9304 11.674 26.7354 11.861C26.5574 12.033 26.5414 12.313 26.7004 12.503C26.7934 12.613 26.9264 12.671 27.0614 12.671C27.1584 12.671 27.2554 12.641 27.3384 12.581L28.0164 12.087C28.5664 11.776 29.3944 11.523 30.1724 12.079C30.0974 11.773 29.9844 11.477 29.8294 11.202L29.7894 11.131L29.2634 10.239C29.0374 10.262 28.8214 10.336 28.6344 10.472L27.5194 11.284Z" fill="#333333"/>
<path fill-rule="evenodd" clip-rule="evenodd" d="M35.041 11.1688C34.753 11.3328 34.51 11.5208 34.333 11.6898C34.155 11.8608 34.14 12.1418 34.299 12.3308C34.392 12.4408 34.525 12.4998 34.66 12.4998C34.756 12.4998 34.854 12.4698 34.937 12.4088L35.563 11.9528C36.05 11.6838 36.773 11.4758 37.45 11.9888C37.375 11.6978 37.263 11.4168 37.116 11.1538C37.089 11.1068 37.077 11.0858 37.065 11.0638L36.575 10.2318C36.381 10.2598 36.196 10.3268 36.035 10.4448L35.041 11.1688Z" fill="#333333"/>
<mask id="mask0" mask-type="alpha" maskUnits="userSpaceOnUse" x="18" y="38" width="2" height="2">
<path fill-rule="evenodd" clip-rule="evenodd" d="M18.7788 38.9784H19.7788V39.5031H18.7788V38.9784Z" fill="white"/>
</mask>
<g mask="url(#mask0)">
<path fill-rule="evenodd" clip-rule="evenodd" d="M19.3123 39.4764H19.2393C19.2513 39.4774 19.2623 39.4814 19.2743 39.4814C19.2893 39.4814 19.3043 39.4774 19.3183 39.4754L19.3133 39.4764H19.3123Z" fill="#333333"/>
</g>
<path fill-rule="evenodd" clip-rule="evenodd" d="M21.2527 30.079C19.9587 31.639 17.9757 34.761 18.7057 38.536L19.2107 38.535L19.6657 38.534C18.9567 35.221 20.5117 32.445 21.9767 30.68C22.6687 29.847 23.7297 29.435 24.8167 29.578L26.4217 29.792C26.4287 29.793 26.4347 29.79 26.4417 29.79C26.1927 29.767 26.0027 29.557 26.0137 29.304C26.0257 29.044 26.2487 28.844 26.5047 28.855H26.5197L24.9407 28.645C23.5287 28.461 22.1517 28.995 21.2527 30.079Z" fill="#333333"/>
<path fill-rule="evenodd" clip-rule="evenodd" d="M18.3133 16.373L18.0913 16.467C17.3483 16.777 16.8333 17.445 16.7443 18.21C16.6813 18.754 16.8083 19.309 17.1013 19.77C17.1913 19.912 17.3433 19.989 17.4993 19.989C17.5853 19.989 17.6723 19.966 17.7513 19.916C17.9703 19.777 18.0353 19.486 17.8963 19.267C17.7183 18.986 17.6413 18.648 17.6783 18.318C17.7283 17.891 18.0253 17.514 18.4543 17.334L18.6773 17.241C18.9173 17.141 19.0293 16.865 18.9293 16.625C18.8283 16.386 18.5523 16.271 18.3133 16.373Z" fill="#333333"/>
<path fill-rule="evenodd" clip-rule="evenodd" d="M11.4047 19.9735C11.6557 19.9075 11.8057 19.6505 11.7397 19.3985C11.6747 19.1475 11.4187 18.9945 11.1657 19.0635C7.63271 19.9895 1.88271 17.3405 1.30371 17.0675L1.56171 17.2875L1.44571 17.8645C1.42471 17.9565 1.41271 18.0505 1.39271 18.1435C2.75471 18.7475 6.35071 20.1995 9.47571 20.1995C10.1497 20.1995 10.8017 20.1315 11.4047 19.9735Z" fill="#333333"/>
<path fill-rule="evenodd" clip-rule="evenodd" d="M11.9486 17.16C12.1916 17.16 12.3976 16.973 12.4176 16.726C12.4376 16.467 12.2436 16.241 11.9846 16.221C7.18465 15.845 2.67065 12.153 2.54465 12.05L2.82365 12.317L2.64465 12.636C2.55465 12.796 2.47565 12.961 2.38965 13.124C3.69265 14.112 7.61865 16.822 11.9116 17.159C11.9236 17.159 11.9356 17.16 11.9486 17.16Z" fill="#333333"/>
<path fill-rule="evenodd" clip-rule="evenodd" d="M13.3701 14.0009C13.4001 14.0059 13.4301 14.0089 13.4591 14.0089C13.6801 14.0089 13.8771 13.8529 13.9201 13.6269C13.9701 13.3719 13.8031 13.1249 13.5471 13.0759C12.4311 12.8619 11.0911 12.2929 9.56609 11.3849C7.45909 10.1309 5.57709 8.56886 4.86709 7.95886L4.93209 8.01586L4.58609 8.37086C4.48309 8.47786 4.38909 8.59386 4.28809 8.70286C5.04509 9.35486 6.92609 10.9089 9.08409 12.1929C10.7031 13.1579 12.1461 13.7659 13.3701 14.0009Z" fill="#333333"/>
<path fill-rule="evenodd" clip-rule="evenodd" d="M16.0793 11.035C16.1463 11.068 16.2173 11.084 16.2873 11.084C16.4613 11.084 16.6273 10.988 16.7093 10.822C16.8253 10.59 16.7303 10.307 16.4973 10.192C12.9933 8.45401 8.50727 3.28701 8.46227 3.23501L8.46127 3.23401L8.81727 3.64901L8.35927 3.94001C8.24727 4.01201 8.14127 4.09401 8.03027 4.16801C9.08627 5.34901 12.8813 9.44901 16.0793 11.035Z" fill="#333333"/>
<path fill-rule="evenodd" clip-rule="evenodd" d="M9.4188 23.7694C9.5048 23.7494 9.5908 23.7304 9.6668 23.7104C10.1428 23.5944 10.5748 23.4504 10.9538 23.2814C11.1908 23.1754 11.2978 22.8974 11.1918 22.6604C11.0858 22.4214 10.8078 22.3144 10.5708 22.4214C10.2438 22.5674 9.8638 22.6944 9.4328 22.7984C9.3618 22.8184 9.2908 22.8334 9.2178 22.8494C6.1268 23.5284 1.9348 22.8414 1.6748 22.7974L1.9358 22.8754L2.2678 23.8364C3.0898 23.9464 4.4698 24.0914 5.9828 24.0914C7.1168 24.0914 8.3228 24.0094 9.4188 23.7694Z" fill="#333333"/>
<mask id="mask1" mask-type="alpha" maskUnits="userSpaceOnUse" x="1" y="38" width="2" height="2">
<path fill-rule="evenodd" clip-rule="evenodd" d="M1.75586 38.635H2.75586V39.5031H1.75586V38.635Z" fill="white"/>
</mask>
<g mask="url(#mask1)">
<path fill-rule="evenodd" clip-rule="evenodd" d="M2.26536 39.1815C2.25536 39.1525 2.25036 39.1205 2.24636 39.0885C2.25036 39.1195 2.25436 39.1515 2.26536 39.1815Z" fill="#333333"/>
</g>
<mask id="mask2" mask-type="alpha" maskUnits="userSpaceOnUse" x="0" y="0" width="34" height="39">
<path fill-rule="evenodd" clip-rule="evenodd" d="M0 0.0493164H33.6637V38.6811H0V0.0493164Z" fill="white"/>
</mask>
<g mask="url(#mask2)">
<path fill-rule="evenodd" clip-rule="evenodd" d="M1.64853 12.4931C1.30853 13.1251 1.00253 13.7761 0.739534 14.4311C0.464534 15.1191 0.225534 15.8361 0.0295342 16.5641C-0.0574658 16.8871 0.0515342 17.2351 0.306534 17.4541L0.530534 17.6441L0.526534 17.6651C0.141534 19.3371 0.0245342 21.0531 0.180534 22.7641C0.212534 23.1191 0.456534 23.4151 0.799534 23.5181L1.20353 23.6391L2.68253 27.9211C2.80353 28.2721 3.13453 28.5091 3.50653 28.5091H7.15753C7.38153 28.5091 7.58553 28.6111 7.71853 28.7921C7.85153 28.9711 7.89053 29.1951 7.82553 29.4071C5.80753 35.9931 2.45253 38.6341 2.41953 38.6591C2.41153 38.6651 2.40753 38.6751 2.39953 38.6811C2.48153 38.6101 2.58653 38.5621 2.70453 38.5621L3.89353 38.5601C5.09753 37.2931 7.24353 34.5201 8.72553 29.6821C8.87753 29.1811 8.78753 28.6531 8.47553 28.2311C8.16253 27.8091 7.68253 27.5671 7.15753 27.5671H3.55553L2.26753 23.8371L1.93553 22.8761L1.67453 22.7981L1.11353 22.6301C0.981534 21.1281 1.08053 19.6251 1.39353 18.1431C1.41253 18.0511 1.42453 17.9571 1.44553 17.8641L1.56153 17.2881L1.30353 17.0671L0.949534 16.7651C1.13353 16.0881 1.35653 15.4211 1.61253 14.7821C1.83853 14.2211 2.10453 13.6681 2.39053 13.1241C2.47553 12.9611 2.55453 12.7961 2.64453 12.6361L2.82353 12.3171L2.54453 12.0501L2.19353 11.7131C2.48153 11.1481 2.80953 10.6021 3.16753 10.0901C3.50753 9.60307 3.88853 9.14307 4.28853 8.70307C4.38853 8.59407 4.48253 8.47707 4.58653 8.37107L4.93153 8.01507L4.86753 7.95907L4.28453 7.44907C4.84453 6.81707 5.52153 6.13907 6.10453 5.62807C6.71253 5.09707 7.36253 4.61307 8.03053 4.16807C8.14053 4.09407 8.24753 4.01207 8.35853 3.94007L8.81653 3.64907L8.46053 3.23407L8.45753 3.22907C8.61453 3.12407 8.77453 3.02307 8.94053 2.93207C10.4245 2.10907 11.9785 1.54707 13.5565 1.26107C13.9125 1.19507 14.2915 1.13907 14.6825 1.08907C16.4275 0.870073 18.1755 1.00907 19.8775 1.49907C22.0975 2.13907 24.0945 3.34107 25.7105 4.99307L26.7705 4.99107H26.7715C27.0305 4.99107 27.2405 5.20107 27.2415 5.46107C27.2415 5.72007 27.0315 5.93107 26.7725 5.93107L26.5405 5.93207C26.9645 6.45507 27.3565 7.00607 27.6955 7.58107L29.2635 10.2391L29.7895 11.1311L29.8295 11.2021C29.9845 11.4771 30.0975 11.7731 30.1725 12.0791C30.2385 12.3481 30.2755 12.6251 30.2755 12.9031C30.2755 13.0291 30.2695 13.1551 30.2555 13.2801C30.1885 13.8771 30.3415 14.4801 30.6875 14.9781L32.6405 17.7881C32.7215 17.9031 32.7445 18.0481 32.7005 18.1631C32.6055 18.4141 32.3715 18.5971 32.0055 18.7081C30.4095 19.1891 30.5335 20.0941 30.5575 20.2161C30.5735 20.2851 30.7355 20.8991 31.3405 21.3181C31.4215 21.3741 31.4755 21.4701 31.4755 21.5631C31.4765 21.6851 31.3355 21.7821 31.0565 21.8481C30.2605 22.0401 29.8605 22.1361 29.8765 22.5841L29.9255 22.9831L30.2995 23.0501C30.4085 23.0691 30.4975 23.0871 30.5755 23.1161C30.7875 23.1911 30.8595 23.2561 30.8635 23.2471C30.8985 23.3331 30.8895 23.3551 30.8835 23.3701C30.8685 23.4081 30.7575 23.6081 30.1105 23.8711C29.7175 24.0301 29.4265 24.3141 29.2685 24.6921C28.9425 25.4721 29.2685 26.4281 29.3625 26.6711C29.3885 26.8251 29.4845 27.5761 29.0195 28.1341C28.5735 28.6661 27.7295 28.9131 26.5195 28.8551H26.5045C26.2485 28.8441 26.0255 29.0441 26.0135 29.3041C26.0025 29.5561 26.1925 29.7671 26.4415 29.7901C26.4485 29.7911 26.4545 29.7951 26.4615 29.7961C27.9945 29.8671 29.0955 29.5101 29.7415 28.7371C30.5645 27.7521 30.2875 26.4861 30.2745 26.4321L30.2515 26.3581C30.1605 26.1361 29.9615 25.4701 30.1375 25.0541C30.1985 24.9071 30.3025 24.8081 30.4635 24.7431C31.1775 24.4531 31.5875 24.1321 31.7525 23.7291C31.9195 23.3271 31.7745 22.9851 31.7285 22.8781C31.6965 22.8021 31.6535 22.7291 31.5965 22.6631C32.3365 22.3651 32.4195 21.8031 32.4165 21.5561C32.4145 21.1531 32.2105 20.7751 31.8745 20.5441C31.6395 20.3811 31.5295 20.1501 31.4925 20.0571C31.5275 19.9901 31.6795 19.7891 32.2775 19.6081C33.0995 19.3601 33.4395 18.8671 33.5805 18.4961C33.7345 18.0891 33.6725 17.6241 33.4135 17.2511L31.4605 14.4411C31.2445 14.1321 31.1485 13.7561 31.1905 13.3841C31.2085 13.2231 31.2165 13.0631 31.2165 12.9031C31.2165 12.1471 31.0205 11.3991 30.6555 10.7511L30.0495 9.72207C30.0525 9.75807 30.0575 9.79307 30.0605 9.82807C30.0825 10.0881 29.8905 10.3151 29.6315 10.3371C29.6175 10.3391 29.6045 10.3391 29.5915 10.3391C29.3495 10.3391 29.1435 10.1531 29.1225 9.90807C29.1145 9.81307 29.1065 9.71807 29.0925 9.62307L28.8245 7.64207L28.5065 7.10307C28.1055 6.42307 27.6425 5.76807 27.1315 5.15907C25.6195 3.35707 23.7165 1.98007 21.5755 1.10407C21.0185 1.18907 20.4625 1.29707 19.9175 1.44307C19.6675 1.51207 19.4085 1.36207 19.3405 1.11107C19.2735 0.859073 19.4215 0.602073 19.6735 0.534073C19.7135 0.523073 19.7555 0.516073 19.7965 0.506073C18.0795 0.0570729 16.3225 -0.0629271 14.5655 0.155073C14.1575 0.207073 13.7615 0.267073 13.3885 0.334073C11.7095 0.639073 10.0585 1.23607 8.48353 2.10907C8.29253 2.21607 8.08953 2.34207 7.86353 2.49507C7.65853 2.63507 7.52253 2.85507 7.49053 3.10007C7.47753 3.19407 7.48053 3.28807 7.49853 3.37907C6.79753 3.84607 6.12253 4.36307 5.48453 4.92007C4.84653 5.48007 4.13453 6.19407 3.53153 6.88107C3.37753 7.05607 3.30153 7.28107 3.31653 7.51407C3.33153 7.72707 3.42153 7.92507 3.57353 8.07507C3.15053 8.54107 2.75553 9.03607 2.39553 9.55207C2.00253 10.1151 1.64353 10.7161 1.32953 11.3381C1.15753 11.6811 1.22853 12.0901 1.50653 12.3561L1.64853 12.4931Z" fill="#333333"/>
</g>
<path fill-rule="evenodd" clip-rule="evenodd" d="M2.28752 38.826C2.30052 38.801 2.31852 38.778 2.33552 38.755C2.31752 38.778 2.30052 38.801 2.28752 38.826Z" fill="#333333"/>
<mask id="mask3" mask-type="alpha" maskUnits="userSpaceOnUse" x="1" y="38" width="2" height="2">
<path fill-rule="evenodd" clip-rule="evenodd" d="M1.83008 38.8018H2.83008V39.5032H1.83008V38.8018Z" fill="white"/>
</mask>
<g mask="url(#mask3)">
<path fill-rule="evenodd" clip-rule="evenodd" d="M2.33158 39.3183C2.33658 39.3263 2.34658 39.3283 2.35258 39.3353C2.33458 39.3143 2.32058 39.2923 2.30758 39.2683C2.31658 39.2853 2.31958 39.3023 2.33158 39.3183Z" fill="#333333"/>
</g>
<mask id="mask4" mask-type="alpha" maskUnits="userSpaceOnUse" x="1" y="38" width="2" height="2">
<path fill-rule="evenodd" clip-rule="evenodd" d="M1.98926 38.9444H2.98926V39.5032H1.98926V38.9444Z" fill="white"/>
</mask>
<g mask="url(#mask4)">
<path fill-rule="evenodd" clip-rule="evenodd" d="M2.51076 39.4588C2.49476 39.4508 2.48276 39.4378 2.46776 39.4298C2.48276 39.4378 2.49476 39.4508 2.51076 39.4588Z" fill="#333333"/>
</g>
<path fill-rule="evenodd" clip-rule="evenodd" d="M2.24148 39.0027C2.24348 38.9697 2.25148 38.9397 2.26048 38.9087C2.25148 38.9407 2.24348 38.9707 2.24148 39.0027Z" fill="#333333"/>
<path fill-rule="evenodd" clip-rule="evenodd" d="M21.6857 5.4246C21.3167 5.8406 21.3577 6.4196 21.4187 6.8106L21.7877 9.5346L21.8067 9.6676C21.9997 11.0986 21.5417 12.5176 20.5437 13.5686L18.9857 15.2576L17.5767 14.6506C17.0577 14.3886 16.5837 14.3336 16.1697 14.4876C15.7617 14.6396 15.4467 14.9796 15.2327 15.4976C14.9637 16.1576 14.9487 16.9156 14.9477 16.9506C14.9377 17.9706 15.1107 18.9226 15.4597 19.7786C15.8517 20.7386 16.4477 21.5406 17.2327 22.1626C17.4607 22.3416 17.7457 22.4406 18.0347 22.4406C18.2397 22.4406 18.4447 22.3906 18.6327 22.2936L19.6397 21.7676C19.8707 21.6476 19.9587 21.3626 19.8387 21.1326C19.7187 20.9026 19.4347 20.8126 19.2037 20.9346L18.2007 21.4586C18.0727 21.5246 17.9237 21.5086 17.8157 21.4236C17.1597 20.9046 16.6607 20.2326 16.3317 19.4236C16.0297 18.6826 15.8807 17.8536 15.8887 16.9646C15.8887 16.9576 15.9027 16.3466 16.1037 15.8546C16.1787 15.6726 16.3087 15.4406 16.4977 15.3696C16.6957 15.2946 16.9637 15.3946 17.1787 15.5026L19.2257 16.3856L21.2307 14.2106C22.4207 12.9576 22.9707 11.2556 22.7387 9.5386L22.3497 6.6746C22.2797 6.2296 22.3547 6.0886 22.3897 6.0486C22.4227 6.0116 22.5467 5.9236 22.9847 5.9406L26.5407 5.9326L26.7717 5.9316C27.0317 5.9316 27.2417 5.7196 27.2417 5.4606C27.2407 5.2006 27.0307 4.9906 26.7707 4.9906L25.7107 4.9926L22.9997 4.9996C22.3877 4.9716 21.9587 5.1166 21.6857 5.4246Z" fill="#333333"/>
<mask id="mask5" mask-type="alpha" maskUnits="userSpaceOnUse" x="2" y="38" width="18" height="2">
<path fill-rule="evenodd" clip-rule="evenodd" d="M2.23535 38.5191H19.2104V39.5032H2.23535V38.5191Z" fill="white"/>
</mask>
<g mask="url(#mask5)">
<path fill-rule="evenodd" clip-rule="evenodd" d="M9.21635 39.034C9.21535 38.774 9.42535 38.563 9.68535 38.562L19.2104 38.535L18.7054 38.536L3.89335 38.56L2.70435 38.562C2.58635 38.562 2.48235 38.61 2.39935 38.681C2.37435 38.704 2.35535 38.728 2.33535 38.755C2.31835 38.778 2.30035 38.801 2.28735 38.826C2.27435 38.852 2.26735 38.88 2.25935 38.909C2.25135 38.939 2.24335 38.97 2.24135 39.003C2.24035 39.013 2.23535 39.022 2.23535 39.034C2.23535 39.054 2.24335 39.07 2.24635 39.089C2.25035 39.121 2.25535 39.152 2.26535 39.181C2.27535 39.213 2.29035 39.24 2.30735 39.268C2.32035 39.292 2.33535 39.314 2.35235 39.335C2.38435 39.373 2.42435 39.403 2.46735 39.43C2.48235 39.438 2.49435 39.451 2.51035 39.459C2.57035 39.486 2.63535 39.503 2.70535 39.503H2.70635L9.63035 39.492C9.39935 39.463 9.21635 39.273 9.21635 39.034Z" fill="#333333"/>
</g>
<path fill-rule="evenodd" clip-rule="evenodd" d="M27.0589 14.3329C26.8069 14.3229 26.6129 14.1149 26.6109 13.8649C26.5919 14.0509 26.6839 14.2369 26.8579 14.3289L28.7109 15.3069C28.7809 15.3439 28.8559 15.3609 28.9309 15.3609C29.0999 15.3609 29.2629 15.2699 29.3469 15.1099C29.4679 14.8799 29.3799 14.5959 29.1499 14.4749L28.6969 14.2349C28.1739 14.3199 27.6569 14.3379 27.3429 14.3379C27.1999 14.3379 27.0999 14.3349 27.0589 14.3329Z" fill="#333333"/>
<path fill-rule="evenodd" clip-rule="evenodd" d="M27.0591 14.3328C27.1001 14.3348 27.2001 14.3378 27.3431 14.3378C27.6571 14.3378 28.1741 14.3198 28.6971 14.2348C29.1911 14.1548 29.6911 14.0148 30.0311 13.7668C30.2411 13.6128 30.2871 13.3178 30.1331 13.1078C29.9801 12.8988 29.6851 12.8528 29.4761 13.0058C29.0231 13.3368 27.7751 13.4178 27.0961 13.3928C26.8291 13.3838 26.6181 13.5848 26.6081 13.8448C26.6071 13.8518 26.6111 13.8578 26.6111 13.8648C26.6131 14.1148 26.8071 14.3228 27.0591 14.3328Z" fill="#333333"/>
<mask id="mask6" mask-type="alpha" maskUnits="userSpaceOnUse" x="26" y="38" width="2" height="2">
<path fill-rule="evenodd" clip-rule="evenodd" d="M26.3506 38.8583H27.3506V39.5031H26.3506V38.8583Z" fill="white"/>
</mask>
<g mask="url(#mask6)">
<path fill-rule="evenodd" clip-rule="evenodd" d="M26.8866 39.3338C26.8656 39.3538 26.8406 39.3678 26.8146 39.3828C26.8406 39.3668 26.8656 39.3538 26.8866 39.3338Z" fill="#333333"/>
</g>
<mask id="mask7" mask-type="alpha" maskUnits="userSpaceOnUse" x="26" y="38" width="2" height="2">
<path fill-rule="evenodd" clip-rule="evenodd" d="M26.4707 38.7298H27.4707V39.5032H26.4707V38.7298Z" fill="white"/>
</mask>
<g mask="url(#mask7)">
<path fill-rule="evenodd" clip-rule="evenodd" d="M26.9957 39.1922C26.9817 39.2192 26.9637 39.2432 26.9457 39.2672C26.9637 39.2432 26.9817 39.2192 26.9957 39.1922Z" fill="#333333"/>
</g>
<mask id="mask8" mask-type="alpha" maskUnits="userSpaceOnUse" x="26" y="38" width="2" height="2">
<path fill-rule="evenodd" clip-rule="evenodd" d="M26.1558 38.9398H27.1558V39.5031H26.1558V38.9398Z" fill="white"/>
</mask>
<g mask="url(#mask8)">
<path fill-rule="evenodd" clip-rule="evenodd" d="M26.6988 39.4393C26.7098 39.4363 26.7188 39.4283 26.7288 39.4243C26.6828 39.4403 26.6348 39.4543 26.5828 39.4553C26.6208 39.4553 26.6598 39.4503 26.6988 39.4393Z" fill="#333333"/>
</g>
<mask id="mask9" mask-type="alpha" maskUnits="userSpaceOnUse" x="26" y="38" width="2" height="2">
<path fill-rule="evenodd" clip-rule="evenodd" d="M26.5332 38.564H27.5332V39.5032H26.5332V38.564Z" fill="white"/>
</mask>
<g mask="url(#mask9)">
<path fill-rule="evenodd" clip-rule="evenodd" d="M27.0427 39.0165C27.0407 39.0495 27.0327 39.0805 27.0237 39.1115C27.0327 39.0795 27.0407 39.0495 27.0427 39.0165Z" fill="#333333"/>
</g>
<path fill-rule="evenodd" clip-rule="evenodd" d="M33.2996 29.2557C33.3116 28.9957 33.5346 28.7947 33.7916 28.8077H33.7986L32.2266 28.5987C30.8186 28.4117 29.4386 28.9477 28.5386 30.0317C27.2426 31.5937 25.2626 34.7137 25.9956 38.5167L26.5776 38.5147H26.5786C26.8176 38.5147 27.0066 38.6937 27.0376 38.9247C27.0346 38.9037 27.0386 38.8847 27.0336 38.8647C26.1166 35.3867 27.7396 32.4687 29.2626 30.6327C29.9546 29.7987 31.0176 29.3907 32.1026 29.5307L33.7076 29.7447C33.7166 29.7457 33.7236 29.7417 33.7316 29.7427C33.4806 29.7227 33.2876 29.5097 33.2996 29.2557Z" fill="#333333"/>
<mask id="mask10" mask-type="alpha" maskUnits="userSpaceOnUse" x="19" y="0" width="22" height="30">
<path fill-rule="evenodd" clip-rule="evenodd" d="M19.3247 0.00012207H40.9499V29.7571H19.3247V0.00012207Z" fill="white"/>
</mask>
<g mask="url(#mask10)">
<path fill-rule="evenodd" clip-rule="evenodd" d="M19.3408 1.11112C19.4088 1.36212 19.6668 1.51112 19.9168 1.44312C20.4628 1.29712 21.0188 1.18912 21.5758 1.10412C21.7068 1.08512 21.8368 1.05812 21.9678 1.04212C26.0538 0.532118 30.0998 1.98412 32.9938 4.94612L34.0558 4.94312H34.0568C34.3168 4.94312 34.5268 5.15312 34.5278 5.41312C34.5288 5.67312 34.3178 5.88312 34.0578 5.88412H33.8268C34.2518 6.40812 34.6428 6.95912 34.9818 7.53412L36.5748 10.2321L37.0658 11.0631C37.0768 11.0861 37.0888 11.1071 37.1158 11.1541C37.2628 11.4171 37.3748 11.6981 37.4498 11.9891C37.5228 12.2711 37.5608 12.5631 37.5608 12.8561C37.5608 12.9821 37.5548 13.1101 37.5418 13.2331C37.4748 13.8331 37.6288 14.4351 37.9738 14.9301L39.9258 17.7411C40.0068 17.8571 40.0298 18.0011 39.9868 18.1151C39.8908 18.3661 39.6568 18.5501 39.2918 18.6611C37.6938 19.1431 37.8198 20.0481 37.8438 20.1691C37.8608 20.2381 38.0218 20.8511 38.6278 21.2721C38.7098 21.3281 38.7618 21.4211 38.7618 21.5161C38.7628 21.6381 38.6228 21.7341 38.3418 21.8011C37.5448 21.9941 37.1438 22.0901 37.1618 22.5391L37.2128 22.9331L37.5828 23.0021C37.6778 23.0191 37.7708 23.0361 37.8618 23.0681C38.0778 23.1461 38.1498 23.2041 38.1498 23.2001C38.1858 23.2861 38.1758 23.3081 38.1698 23.3231C38.1548 23.3601 38.0448 23.5601 37.3958 23.8241C37.0038 23.9831 36.7128 24.2671 36.5548 24.6451C36.2288 25.4251 36.5528 26.3791 36.6468 26.6231C36.6738 26.7811 36.7698 27.5361 36.2988 28.0921C35.8518 28.6221 35.0088 28.8631 33.7978 28.8071H33.7908C33.5338 28.7951 33.3118 28.9961 33.2988 29.2561C33.2878 29.5091 33.4798 29.7221 33.7308 29.7431C33.7368 29.7441 33.7418 29.7471 33.7478 29.7481C33.8748 29.7541 33.9978 29.7571 34.1188 29.7571C35.4578 29.7571 36.4348 29.3981 37.0268 28.6901C37.8488 27.7041 37.5708 26.4391 37.5588 26.3851L37.5348 26.3101C37.4498 26.1051 37.2478 25.4271 37.4228 25.0071C37.4848 24.8611 37.5878 24.7611 37.7498 24.6961C38.4638 24.4061 38.8738 24.0841 39.0398 23.6811C39.2058 23.2791 39.0608 22.9371 39.0128 22.8261C38.9818 22.7511 38.9378 22.6811 38.8828 22.6161C39.6238 22.3181 39.7058 21.7561 39.7028 21.5081C39.7008 21.1041 39.4968 20.7251 39.1608 20.4971C38.9258 20.3341 38.8158 20.1021 38.7778 20.0091C38.8138 19.9421 38.9658 19.7421 39.5638 19.5611C40.3848 19.3121 40.7248 18.8201 40.8648 18.4511C41.0218 18.0441 40.9588 17.5771 40.6978 17.2041L38.7458 14.3931C38.5308 14.0851 38.4358 13.7101 38.4778 13.3341C38.4938 13.1741 38.5018 13.0131 38.5018 12.8561C38.5018 12.1001 38.3068 11.3521 37.9418 10.7041L35.7918 7.05612C35.3918 6.37612 34.9288 5.72112 34.4178 5.11112C31.2938 1.38512 26.5948 -0.486882 21.8518 0.108118C21.1628 0.194118 20.4728 0.330118 19.7968 0.506118C19.7558 0.516118 19.7138 0.523118 19.6738 0.534118C19.4218 0.602118 19.2738 0.859118 19.3408 1.11112Z" fill="#333333"/>
</g>
<path fill-rule="evenodd" clip-rule="evenodd" d="M29.636 6.62775C29.566 6.18275 29.641 6.04175 29.676 6.00175C29.71 5.96375 29.832 5.87675 30.271 5.89375L33.827 5.88475H34.058C34.318 5.88375 34.529 5.67275 34.528 5.41275C34.527 5.15275 34.317 4.94275 34.057 4.94275H34.056L32.994 4.94575L30.286 4.95275C29.676 4.92275 29.245 5.06975 28.972 5.37775C28.603 5.79375 28.644 6.37275 28.705 6.76375L28.824 7.64275L29.093 9.62275C29.106 9.71775 29.115 9.81375 29.123 9.90775C29.144 10.1527 29.349 10.3387 29.592 10.3387C29.605 10.3387 29.618 10.3387 29.632 10.3367C29.89 10.3157 30.083 10.0877 30.061 9.82775C30.058 9.79275 30.053 9.75775 30.05 9.72175C30.042 9.64575 30.035 9.56875 30.025 9.49375L29.636 6.62775Z" fill="#333333"/>
<mask id="mask11" mask-type="alpha" maskUnits="userSpaceOnUse" x="9" y="38" width="19" height="2">
<path fill-rule="evenodd" clip-rule="evenodd" d="M9.2168 38.5086H27.0498V39.5032H9.2168V38.5086Z" fill="white"/>
</mask>
<g mask="url(#mask11)">
<path fill-rule="evenodd" clip-rule="evenodd" d="M26.5788 38.5145H26.5778L25.9958 38.5165L19.6648 38.5345L19.2098 38.5355L9.6848 38.5625C9.4258 38.5635 9.2158 38.7745 9.2168 39.0345C9.2168 39.2735 9.3988 39.4625 9.6308 39.4925C9.6498 39.4935 9.6668 39.5025 9.6868 39.5025H9.6878L19.2148 39.4765H19.3128L19.3188 39.4755L26.5798 39.4545H26.5828C26.6348 39.4535 26.6828 39.4405 26.7288 39.4245C26.7608 39.4135 26.7868 39.3995 26.8148 39.3825C26.8408 39.3685 26.8658 39.3535 26.8868 39.3335C26.9098 39.3145 26.9278 39.2905 26.9458 39.2675C26.9638 39.2435 26.9818 39.2195 26.9958 39.1925C27.0088 39.1665 27.0158 39.1395 27.0238 39.1115C27.0328 39.0805 27.0398 39.0495 27.0428 39.0165C27.0438 39.0055 27.0498 38.9955 27.0498 38.9835C27.0488 38.9625 27.0398 38.9445 27.0368 38.9245C27.0058 38.6945 26.8168 38.5145 26.5788 38.5145Z" fill="#333333"/>
</g>
<path fill-rule="evenodd" clip-rule="evenodd" d="M34.3455 14.285C34.0935 14.275 33.8995 14.068 33.8975 13.818C33.8785 14.003 33.9695 14.189 34.1445 14.282L35.9975 15.26C36.0685 15.296 36.1425 15.313 36.2175 15.313C36.3865 15.313 36.5495 15.222 36.6335 15.062C36.7545 14.833 36.6665 14.548 36.4365 14.427L35.9845 14.187C35.4605 14.273 34.9435 14.29 34.6295 14.29C34.4865 14.29 34.3865 14.287 34.3455 14.285Z" fill="#333333"/>
<path fill-rule="evenodd" clip-rule="evenodd" d="M34.3452 14.285C34.3862 14.287 34.4862 14.29 34.6292 14.29C34.9432 14.29 35.4602 14.273 35.9842 14.187C36.4772 14.107 36.9772 13.968 37.3172 13.72C37.5272 13.566 37.5732 13.271 37.4192 13.061C37.2662 12.852 36.9722 12.806 36.7622 12.959C36.3092 13.29 35.0622 13.372 34.3822 13.346C34.1182 13.325 33.9042 13.538 33.8942 13.797C33.8932 13.805 33.8972 13.81 33.8972 13.818C33.8992 14.068 34.0932 14.275 34.3452 14.285Z" fill="#333333"/>
</svg>