<svg width="33" height="41" viewBox="0 0 33 41" fill="none" xmlns="http://www.w3.org/2000/svg">
<path fill-rule="evenodd" clip-rule="evenodd" d="M20.4692 17.0351C20.3082 17.0891 20.1452 17.0401 20.1062 16.9261C20.0682 16.8101 20.1672 16.6731 20.3282 16.6181C20.4902 16.5631 20.6532 16.6121 20.6922 16.7271C20.7312 16.8431 20.6312 16.9801 20.4692 17.0351ZM20.9712 16.6561C20.8592 16.6021 20.7492 16.5671 20.6442 16.5511C20.6142 16.5461 20.5832 16.5441 20.5532 16.5441C20.4192 16.5441 20.2902 16.5911 20.1822 16.6791C20.0452 16.7911 19.9612 16.9571 19.9532 17.1361C19.9512 17.1691 19.9492 17.2031 19.9482 17.2371C20.5112 17.1771 20.8152 16.8891 20.9712 16.6561Z" fill="#ED544F"/>
<path fill-rule="evenodd" clip-rule="evenodd" d="M3.03849 13.0088C2.97549 13.0378 2.90749 13.0528 2.84149 13.0528C2.66349 13.0528 2.49349 12.9508 2.41449 12.7798C2.30549 12.5428 2.40849 12.2638 2.64349 12.1548C3.03949 11.9718 3.41249 11.8698 3.76449 11.8348C3.79349 10.9678 3.89449 10.0308 4.11349 9.08376C3.00049 9.07376 2.14249 9.58576 1.50449 10.6368C0.923485 11.5928 0.793485 12.5108 1.10449 13.4428C1.53449 14.7298 2.70849 15.5888 4.05649 15.6688C3.94049 15.0628 3.78549 14.0298 3.75849 12.7818C3.53949 12.8168 3.30049 12.8888 3.03849 13.0088Z" fill="#ED544F"/>
<path fill-rule="evenodd" clip-rule="evenodd" d="M12.0376 16.9257C11.9996 17.0397 11.8366 17.0887 11.6746 17.0347C11.5136 16.9807 11.4136 16.8427 11.4526 16.7277C11.4906 16.6127 11.6536 16.5637 11.8156 16.6177C11.9766 16.6727 12.0766 16.8107 12.0376 16.9257ZM11.9386 16.6807C11.8176 16.5757 11.6646 16.5287 11.5126 16.5447C11.3926 16.5577 11.2686 16.5957 11.1416 16.6557C11.2976 16.8887 11.6006 17.1767 12.1646 17.2377C12.1626 17.2017 12.1616 17.1677 12.1596 17.1337C12.1506 16.9587 12.0706 16.7937 11.9386 16.6807Z" fill="#ED544F"/>
<path fill-rule="evenodd" clip-rule="evenodd" d="M17.062 29.4111C16.631 29.2241 16.298 28.7331 16.056 28.1791C15.814 28.7331 15.481 29.2241 15.05 29.4111C14.549 29.6301 14.013 29.7121 13.489 29.7121C12.68 29.7121 11.904 29.5161 11.332 29.3221C12.055 31.1721 13.92 32.4391 16.076 32.4391C18.243 32.4391 20.107 31.1421 20.826 29.3071C20.249 29.5061 19.453 29.7121 18.624 29.7121C18.1 29.7121 17.564 29.6301 17.062 29.4111Z" fill="#ED544F"/>
<path fill-rule="evenodd" clip-rule="evenodd" d="M11.054 28.2069C11.658 28.4689 13.385 29.1099 14.675 28.5489C15.038 28.3899 15.486 27.2179 15.582 26.4279L15.354 25.8529C15.106 25.3939 14.635 24.8419 13.828 24.9469C13.6 24.9729 13.387 24.8359 13.321 24.6169C13.254 24.3979 13.355 24.1629 13.559 24.0599L14.095 23.7899C14.414 23.6299 14.786 23.6089 15.115 23.7339C15.426 23.8529 15.664 24.0859 15.784 24.3879L16.04 25.0309L16.295 24.3879C16.415 24.0859 16.654 23.8529 16.965 23.7339C17.293 23.6089 17.664 23.6289 17.985 23.7899L18.521 24.0599C18.725 24.1629 18.825 24.3979 18.759 24.6169C18.693 24.8359 18.482 24.9729 18.251 24.9469C17.451 24.8469 16.987 25.3719 16.737 25.8249L16.536 26.3299C16.534 26.3549 16.531 26.3839 16.529 26.4109C16.62 27.2009 17.072 28.3889 17.438 28.5489C18.763 29.1259 20.545 28.4339 21.103 28.1869C21.114 28.0979 21.127 28.0079 21.133 27.9159L21.233 26.2719C19.756 25.6789 18.984 21.9929 18.984 18.3389C18.984 18.1219 18.987 17.9059 18.991 17.6949C18.996 17.4909 19.004 17.2899 19.013 17.0909C19.034 16.6459 19.243 16.2299 19.587 15.9499C19.923 15.6749 20.361 15.5549 20.786 15.6209C21.146 15.6759 21.505 15.8379 21.856 16.1029L22.108 16.2939L22.027 16.5999C21.881 17.1459 21.262 18.0989 19.925 18.1839V18.3389C19.925 22.9229 21.067 25.4239 21.654 25.4239C22.272 25.3539 23.384 22.8629 23.384 18.3389C23.384 15.4589 22.905 12.8539 22.163 11.7049L22.575 11.4419L22.562 11.4459L22.16 11.6989L22.122 11.6309C22.115 11.6159 22.108 11.6029 22.102 11.5899C21.69 10.8179 19.427 9.96594 16.075 9.96594C12.908 9.96594 10.54 10.7529 10.081 11.5139L10.052 11.5589C9.393 12.4149 8.729 14.8439 8.729 18.3389C8.729 22.9339 9.849 25.3929 10.449 25.4219L10.472 25.4239C11.066 25.3799 12.188 22.8829 12.188 18.3389C12.188 18.2869 12.188 18.2349 12.187 18.1839C10.85 18.0989 10.232 17.1469 10.086 16.5999L10.004 16.2939L10.257 16.1029C10.634 15.8169 11.023 15.6509 11.411 15.6089C11.826 15.5629 12.231 15.6919 12.551 15.9669C12.879 16.2469 13.078 16.6559 13.099 17.0889C13.109 17.2879 13.116 17.4899 13.12 17.6949C13.125 17.9059 13.128 18.1219 13.128 18.3389C13.128 21.9599 12.37 25.6119 10.918 26.2549L11.019 27.9159C11.025 28.0119 11.041 28.1089 11.054 28.2069Z" fill="#ED544F"/>
<path fill-rule="evenodd" clip-rule="evenodd" d="M9.29046 11.0049C10.1455 9.63787 13.3085 9.02487 16.0755 9.02487C19.5005 9.02487 22.2625 9.88987 22.9475 11.1789C22.9535 11.1899 22.9645 11.2069 22.9765 11.2309C23.8075 12.5499 24.3245 15.2679 24.3245 18.3389C24.3245 21.7659 23.6475 25.5009 22.1785 26.2299L22.0715 27.9739C21.8885 31.0049 19.2545 33.3809 16.0755 33.3809C13.1365 33.3809 10.6455 31.3729 10.1545 28.6069C10.1175 28.3929 10.0925 28.1799 10.0795 27.9729L9.97546 26.2439C8.53846 25.5699 7.78846 21.9199 7.78846 18.3389C7.78846 15.0899 8.37746 12.2169 9.29046 11.0049ZM6.81746 5.48287C3.51446 9.58687 5.07546 15.9509 5.09246 16.0159L5.08346 16.0179C5.08946 16.0409 5.10246 16.0619 5.10346 16.0869C5.11346 16.1869 5.08446 16.2759 5.03846 16.3579L5.04646 16.3609C2.57646 20.7639 0.981464 27.1459 7.41246 32.5499L7.48946 32.6139L7.53346 32.7049C7.56646 32.7739 10.9035 39.5239 16.0565 39.5239H16.2535C21.4145 39.5239 24.7435 32.7739 24.7765 32.7049L24.8195 32.6139L24.8965 32.5499C31.3275 27.1459 29.7325 20.7639 27.2645 16.3609L27.6755 16.1309L27.2165 16.0239C27.2315 15.9599 28.6645 9.61387 25.2955 5.50587C23.3785 3.16787 20.2685 1.97487 16.0375 1.94287C11.7935 1.96887 8.69546 3.14887 6.81746 5.48287Z" fill="#ED544F"/>
<path fill-rule="evenodd" clip-rule="evenodd" d="M31.2055 13.4424C31.5175 12.5104 31.3865 11.5924 30.8065 10.6364C30.1425 9.5424 29.2405 9.0314 28.0605 9.0864C28.2975 10.0304 28.4165 10.9634 28.4625 11.8294C28.8375 11.8534 29.2375 11.9564 29.6665 12.1554C29.9015 12.2634 30.0045 12.5444 29.8955 12.7794C29.8155 12.9514 29.6455 13.0524 29.4685 13.0524C29.4015 13.0524 29.3355 13.0384 29.2705 13.0084C28.9815 12.8754 28.7225 12.8004 28.4865 12.7734C28.4835 14.0264 28.3485 15.0634 28.2445 15.6694C29.5965 15.5924 30.7735 14.7334 31.2055 13.4424Z" fill="#ED544F"/>
<path fill-rule="evenodd" clip-rule="evenodd" d="M21.6536 26.3652C21.5076 26.3652 21.3686 26.3272 21.2326 26.2722L21.1326 27.9162C21.1276 28.0082 21.1136 28.0972 21.1026 28.1872C21.2106 28.1392 21.2766 28.1072 21.2806 28.1052L21.7086 28.9432C21.6706 28.9632 21.3326 29.1322 20.8256 29.3062C20.1066 31.1422 18.2426 32.4392 16.0756 32.4392C13.9206 32.4392 12.0546 31.1722 11.3316 29.3222C10.7996 29.1412 10.4426 28.9642 10.4046 28.9432L10.8326 28.1052C10.8366 28.1072 10.9166 28.1472 11.0536 28.2072C11.0416 28.1092 11.0246 28.0112 11.0186 27.9162L10.9186 26.2552C10.7716 26.3202 10.6196 26.3652 10.4586 26.3652L10.3826 26.3602C10.2416 26.3512 10.1066 26.3052 9.97461 26.2442L10.0796 27.9722C10.0916 28.1792 10.1176 28.3922 10.1546 28.6062C10.6456 31.3732 13.1356 33.3812 16.0756 33.3812C19.2546 33.3812 21.8876 31.0052 22.0716 27.9732L22.1776 26.2292C22.0506 26.2932 21.9196 26.3422 21.7806 26.3572C21.7556 26.3612 21.7046 26.3652 21.6536 26.3652Z" fill="#333333"/>
<path fill-rule="evenodd" clip-rule="evenodd" d="M16.4935 26.1806H16.5105C16.5105 26.1866 16.5115 26.1926 16.5115 26.1986L16.5435 26.1996C16.5425 26.2386 16.5395 26.2836 16.5365 26.3296L16.7365 25.8256C16.9865 25.3716 17.4515 24.8466 18.2515 24.9476C18.4815 24.9726 18.6925 24.8356 18.7595 24.6176C18.8255 24.3986 18.7245 24.1626 18.5205 24.0596L17.9845 23.7896C17.6645 23.6286 17.2935 23.6096 16.9655 23.7346C16.6535 23.8536 16.4155 24.0856 16.2955 24.3876L16.0405 25.0316L16.2035 25.4416C16.3445 25.7046 16.4375 25.9636 16.4935 26.1806Z" fill="#333333"/>
<path fill-rule="evenodd" clip-rule="evenodd" d="M15.5844 26.4111C15.5764 26.3331 15.5704 26.2601 15.5694 26.1991L15.6014 26.1981C15.6024 26.1921 15.6024 26.1861 15.6024 26.1811L16.0564 26.1891L16.4934 26.1811C16.4384 25.9641 16.3444 25.7051 16.2034 25.4411L16.0404 25.0311L15.7844 24.3881C15.6644 24.0861 15.4264 23.8531 15.1144 23.7341C14.7864 23.6091 14.4144 23.6301 14.0954 23.7901L13.5594 24.0591C13.3554 24.1631 13.2544 24.3981 13.3204 24.6171C13.3874 24.8361 13.6004 24.9731 13.8284 24.9471C14.6354 24.8421 15.1054 25.3941 15.3544 25.8521L15.5824 26.4281C15.5834 26.4221 15.5834 26.4171 15.5844 26.4111Z" fill="#333333"/>
<path fill-rule="evenodd" clip-rule="evenodd" d="M15.0503 29.4111C15.4813 29.2241 15.8143 28.7331 16.0563 28.1791C15.7843 27.5571 15.6303 26.8561 15.5843 26.4111C15.5833 26.4171 15.5833 26.4221 15.5823 26.4281C15.4863 27.2181 15.0383 28.3901 14.6753 28.5491C13.3853 29.1101 11.6583 28.4691 11.0543 28.2071C10.9163 28.1471 10.8363 28.1071 10.8323 28.1051L10.4043 28.9431C10.4433 28.9641 10.8003 29.1411 11.3313 29.3221C11.9043 29.5161 12.6803 29.7121 13.4883 29.7121C14.0133 29.7121 14.5493 29.6301 15.0503 29.4111Z" fill="#333333"/>
<path fill-rule="evenodd" clip-rule="evenodd" d="M16.5113 26.1982C16.5133 26.2642 16.5203 26.3372 16.5293 26.4112C16.5313 26.3842 16.5343 26.3552 16.5363 26.3302C16.5393 26.2832 16.5423 26.2382 16.5433 26.1992L16.5113 26.1982Z" fill="#333333"/>
<path fill-rule="evenodd" clip-rule="evenodd" d="M15.6011 26.1982L16.0561 26.1892L15.6021 26.1802C15.6021 26.1862 15.6021 26.1922 15.6011 26.1982Z" fill="#333333"/>
<path fill-rule="evenodd" clip-rule="evenodd" d="M17.4378 28.5488C17.0718 28.3888 16.6208 27.2008 16.5288 26.4108C16.5198 26.3368 16.5128 26.2648 16.5108 26.1978C16.5108 26.1928 16.5098 26.1868 16.5098 26.1808H16.4938L16.0558 26.1898L15.6008 26.1978L15.5698 26.1988C15.5708 26.2598 15.5768 26.3328 15.5838 26.4108C15.6298 26.8568 15.7848 27.5568 16.0558 28.1788C16.2978 28.7338 16.6308 29.2238 17.0618 29.4108C17.5638 29.6298 18.0998 29.7118 18.6238 29.7118C19.4528 29.7118 20.2488 29.5058 20.8258 29.3068C21.3328 29.1318 21.6698 28.9628 21.7088 28.9438L21.2808 28.1058C21.2768 28.1078 21.2098 28.1398 21.1028 28.1878C20.5448 28.4338 18.7628 29.1258 17.4378 28.5488Z" fill="#333333"/>
<mask id="mask0" mask-type="alpha" maskUnits="userSpaceOnUse" x="1" y="16" width="30" height="25">
<path fill-rule="evenodd" clip-rule="evenodd" d="M1.97217 16.1306H30.3372V40.4644H1.97217V16.1306Z" fill="white"/>
</mask>
<g mask="url(#mask0)">
<path fill-rule="evenodd" clip-rule="evenodd" d="M27.6301 16.5996L27.6751 16.1306L27.1771 16.2386C29.6461 20.6406 31.3271 27.1456 24.8971 32.5496L24.8191 32.6146L24.7761 32.7046C24.7431 32.7736 21.4141 39.5236 16.2531 39.5236H16.0561C10.9031 39.5236 7.56707 32.7736 7.53307 32.7046L7.48907 32.6146L7.41207 32.5496C0.982071 27.1456 2.57607 20.7636 5.04607 16.3616L5.03807 16.3576C4.96507 16.4876 4.84007 16.5846 4.68007 16.5996C4.53807 16.6136 4.39707 16.6206 4.25607 16.6206C4.12107 16.6206 3.98907 16.6016 3.85807 16.5886C1.81407 20.5756 -0.0559292 27.4406 6.73207 33.2056C7.17907 34.0906 10.5941 40.4646 16.0561 40.4646H16.2531C21.7161 40.4646 25.1301 34.0906 25.5771 33.2056C32.3641 27.4406 30.4961 20.5756 28.4521 16.5886C28.3191 16.6016 28.1891 16.6206 28.0541 16.6206C27.9131 16.6206 27.7731 16.6136 27.6301 16.5996Z" fill="#333333"/>
</g>
<path fill-rule="evenodd" clip-rule="evenodd" d="M30.8059 10.6367C31.3859 11.5927 31.5169 12.5107 31.2049 13.4427C30.7739 14.7337 29.5959 15.5927 28.2439 15.6687C28.1889 15.9927 28.1429 16.1947 28.1329 16.2387L27.6749 16.1307L27.6299 16.5997C27.7729 16.6137 27.9129 16.6197 28.0539 16.6197C28.1889 16.6197 28.3199 16.6017 28.4519 16.5887C30.1189 16.4367 31.5589 15.3537 32.0969 13.7407C32.4959 12.5477 32.3319 11.3387 31.6099 10.1497C30.7309 8.69872 29.4159 8.02972 27.7949 8.17272C27.8969 8.47672 27.9859 8.78272 28.0609 9.08572C29.2409 9.03172 30.1419 9.54172 30.8059 10.6367Z" fill="#333333"/>
<path fill-rule="evenodd" clip-rule="evenodd" d="M29.4684 13.0527C29.6464 13.0527 29.8164 12.9507 29.8964 12.7797C30.0044 12.5437 29.9024 12.2637 29.6664 12.1557C29.2384 11.9557 28.8374 11.8537 28.4624 11.8287C28.4804 12.1547 28.4884 12.4697 28.4874 12.7737C28.7224 12.8007 28.9824 12.8747 29.2714 13.0087C29.3354 13.0377 29.4024 13.0527 29.4684 13.0527Z" fill="#333333"/>
<mask id="mask1" mask-type="alpha" maskUnits="userSpaceOnUse" x="0" y="8" width="6" height="9">
<path fill-rule="evenodd" clip-rule="evenodd" d="M0 8.15247H5.10602V16.6206H0V8.15247Z" fill="white"/>
</mask>
<g mask="url(#mask1)">
<path fill-rule="evenodd" clip-rule="evenodd" d="M4.68026 16.5996C4.84026 16.5846 4.96526 16.4876 5.03826 16.3576C5.08426 16.2766 5.11426 16.1866 5.10426 16.0866C5.10226 16.0616 5.08926 16.0406 5.08326 16.0176L4.18026 16.2466C4.16826 16.2036 4.11826 15.9976 4.05626 15.6686C2.70826 15.5886 1.53426 14.7296 1.10526 13.4426C0.793258 12.5106 0.923258 11.5926 1.50426 10.6366C2.14226 9.58557 3.00026 9.07457 4.11426 9.08357C4.18426 8.77657 4.26826 8.46857 4.36626 8.16057C2.81526 8.06957 1.55126 8.74557 0.700258 10.1496C-0.0227422 11.3386 -0.186742 12.5476 0.212258 13.7406C0.751258 15.3526 2.19026 16.4356 3.85826 16.5886C3.99026 16.6016 4.12126 16.6206 4.25626 16.6206C4.39726 16.6206 4.53826 16.6136 4.68026 16.5996Z" fill="#333333"/>
</g>
<path fill-rule="evenodd" clip-rule="evenodd" d="M2.41459 12.7793C2.49359 12.9513 2.66359 13.0523 2.84159 13.0523C2.90759 13.0523 2.97559 13.0383 3.03859 13.0083C3.30059 12.8883 3.53959 12.8163 3.75859 12.7823C3.75159 12.4773 3.75259 12.1623 3.76459 11.8353C3.41259 11.8703 3.03959 11.9713 2.64359 12.1543C2.40859 12.2633 2.30559 12.5433 2.41459 12.7793Z" fill="#333333"/>
<path fill-rule="evenodd" clip-rule="evenodd" d="M11.1411 16.6562C11.2691 16.5952 11.3931 16.5572 11.5121 16.5452C11.6641 16.5282 11.8181 16.5762 11.9391 16.6802C12.0711 16.7942 12.1511 16.9592 12.1601 17.1342C12.1621 17.1682 12.1621 17.2022 12.1641 17.2372C11.6011 17.1772 11.2971 16.8882 11.1411 16.6562ZM9.97509 26.2442C10.1071 26.3052 10.2421 26.3512 10.3831 26.3602L10.4581 26.3652C10.6201 26.3652 10.7721 26.3202 10.9181 26.2552C12.3701 25.6122 13.1281 21.9602 13.1281 18.3392C13.1281 18.1222 13.1251 17.9062 13.1201 17.6952C13.1161 17.4902 13.1091 17.2882 13.0991 17.0892C13.0781 16.6562 12.8791 16.2472 12.5511 15.9672C12.2311 15.6922 11.8271 15.5632 11.4121 15.6092C11.0231 15.6512 10.6341 15.8172 10.2571 16.1022L10.0041 16.2942L10.0861 16.5992C10.2321 17.1472 10.8501 18.0982 12.1871 18.1832C12.1881 18.2352 12.1881 18.2872 12.1881 18.3392C12.1881 22.8832 11.0661 25.3802 10.4721 25.4242L10.4491 25.4222C9.84909 25.3922 8.72909 22.9332 8.72909 18.3392C8.72909 14.8442 9.39309 12.4152 10.0521 11.5582L10.0811 11.5132C10.5401 10.7532 12.9081 9.96617 16.0761 9.96617C19.4271 9.96617 21.6901 10.8182 22.1021 11.5902C22.1081 11.6022 22.1151 11.6162 22.1221 11.6312L22.1611 11.6992L22.5621 11.4462L22.5751 11.4422L22.9571 11.1982C22.9631 11.2092 22.9691 11.2202 22.9761 11.2302C22.9641 11.2072 22.9541 11.1892 22.9481 11.1782C22.2621 9.88917 19.5001 9.02417 16.0761 9.02417C13.3081 9.02417 10.1461 9.63717 9.29009 11.0052C8.37709 12.2172 7.78809 15.0902 7.78809 18.3392C7.78809 21.9202 8.53809 25.5702 9.97509 26.2442Z" fill="#333333"/>
<path fill-rule="evenodd" clip-rule="evenodd" d="M19.9534 17.1357C19.9614 16.9567 20.0454 16.7907 20.1824 16.6787C20.2904 16.5907 20.4194 16.5437 20.5534 16.5437C20.5834 16.5437 20.6134 16.5457 20.6434 16.5507C20.7494 16.5677 20.8584 16.6027 20.9714 16.6567C20.8144 16.8897 20.5114 17.1767 19.9484 17.2377C19.9494 17.2027 19.9514 17.1687 19.9534 17.1357ZM22.5744 11.4427L22.1634 11.7047C22.9044 12.8547 23.3844 15.4587 23.3844 18.3387C23.3844 22.8637 22.2714 25.3547 21.6534 25.4237C21.0664 25.4237 19.9254 22.9227 19.9254 18.3387V18.1837C21.2624 18.0987 21.8814 17.1467 22.0264 16.5997L22.1074 16.2937L21.8554 16.1027C21.5054 15.8377 21.1454 15.6757 20.7864 15.6207C20.3604 15.5547 19.9234 15.6747 19.5874 15.9497C19.2434 16.2307 19.0344 16.6467 19.0134 17.0907C19.0044 17.2897 18.9964 17.4907 18.9914 17.6957C18.9864 17.9067 18.9834 18.1217 18.9834 18.3387C18.9834 21.9927 19.7564 25.6787 21.2324 26.2727C21.3684 26.3267 21.5074 26.3647 21.6534 26.3647C21.7044 26.3647 21.7554 26.3617 21.7804 26.3577C21.9194 26.3417 22.0514 26.2927 22.1784 26.2297C23.6474 25.5007 24.3244 21.7657 24.3244 18.3387C24.3244 15.2677 23.8074 12.5497 22.9754 11.2307C22.9694 11.2207 22.9634 11.2087 22.9574 11.1987L22.5744 11.4427Z" fill="#333333"/>
<mask id="mask2" mask-type="alpha" maskUnits="userSpaceOnUse" x="15" y="1" width="2" height="1">
<path fill-rule="evenodd" clip-rule="evenodd" d="M15.9775 1.0004H16.9775V1.51303H15.9775V1.0004Z" fill="white"/>
</mask>
<g mask="url(#mask2)">
<path fill-rule="evenodd" clip-rule="evenodd" d="M16.9585 1.01364C16.6315 1.00264 16.3115 0.998636 15.9965 0.999636C16.3235 1.00164 16.6435 1.01164 16.9575 1.02664L16.9585 1.01364Z" fill="#333333"/>
</g>
<path fill-rule="evenodd" clip-rule="evenodd" d="M3.76428 11.8349C3.75228 12.1619 3.75128 12.4779 3.75828 12.7819C3.78528 14.0289 3.94128 15.0629 4.05628 15.6689C4.11828 15.9979 4.16828 16.2029 4.18028 16.2469L5.08328 16.0179L5.09228 16.0159C5.07628 15.9509 3.51428 9.5869 6.81828 5.4819C8.69628 3.1479 11.7933 1.9689 16.0373 1.9429C15.7263 1.9399 15.4103 1.9429 15.0863 1.9539L15.0573 1.0249C11.0093 1.2159 7.99328 2.5169 6.08028 4.8969C5.26728 5.9089 4.72328 7.0289 4.36628 8.1599C4.26828 8.4689 4.18428 8.7759 4.11428 9.0839C3.89528 10.0309 3.79328 10.9679 3.76428 11.8349Z" fill="#333333"/>
<mask id="mask3" mask-type="alpha" maskUnits="userSpaceOnUse" x="15" y="1" width="14" height="16">
<path fill-rule="evenodd" clip-rule="evenodd" d="M15.0566 1.00037H28.4867V16.238H15.0566V1.00037Z" fill="white"/>
</mask>
<g mask="url(#mask3)">
<path fill-rule="evenodd" clip-rule="evenodd" d="M15.9966 1.00003C15.6886 0.999026 15.3756 1.00303 15.0566 1.01403L15.0576 1.02503L15.0866 1.95403C15.4096 1.94303 15.7256 1.94003 16.0376 1.94303C20.2676 1.97503 23.3786 3.16803 25.2956 5.50603C28.6646 9.61403 27.1916 16.175 27.1776 16.238L27.6756 16.131L28.1336 16.238C28.1426 16.194 28.1886 15.993 28.2446 15.669C28.3486 15.063 28.4836 14.026 28.4866 12.773C28.4876 12.47 28.4796 12.154 28.4626 11.829C28.4166 10.963 28.2976 10.03 28.0606 9.08603C27.9856 8.78203 27.8966 8.47703 27.7956 8.17303C27.4186 7.04303 26.8546 5.92503 26.0266 4.91303C24.0686 2.52203 21.0186 1.21903 16.9576 1.02603C16.6426 1.01203 16.3236 1.00203 15.9966 1.00003Z" fill="#333333"/>
</g>
<path fill-rule="evenodd" clip-rule="evenodd" d="M20.3287 16.6181C20.1677 16.6731 20.0677 16.8101 20.1057 16.9261C20.1447 17.0401 20.3077 17.0891 20.4697 17.0351C20.6317 16.9801 20.7307 16.8431 20.6917 16.7271C20.6527 16.6121 20.4897 16.5631 20.3287 16.6181Z" fill="#333333"/>
<path fill-rule="evenodd" clip-rule="evenodd" d="M11.8161 16.6181C11.6541 16.5631 11.4911 16.6121 11.4531 16.7271C11.4141 16.8431 11.5131 16.9801 11.6741 17.0351C11.8371 17.0891 12.0001 17.0401 12.0381 16.9261C12.0771 16.8101 11.9771 16.6731 11.8161 16.6181Z" fill="#333333"/>
</svg>