<svg width="46" height="36" viewBox="0 0 46 36" fill="none" xmlns="http://www.w3.org/2000/svg">
<mask id="mask0" mask-type="alpha" maskUnits="userSpaceOnUse" x="0" y="0" width="46" height="36">
<path fill-rule="evenodd" clip-rule="evenodd" d="M0 0.000488281H45.2208V35.3701H0V0.000488281Z" fill="white"/>
</mask>
<g mask="url(#mask0)">
<path fill-rule="evenodd" clip-rule="evenodd" d="M44.5568 30.3155C43.8438 29.7875 42.9928 28.4995 42.8888 27.8165C43.4618 28.0545 44.3968 29.4385 44.5568 30.3155ZM44.8378 28.0005C44.2198 27.3255 43.6118 26.6605 43.0178 26.0135C43.8718 26.0035 44.7918 26.9815 44.8378 28.0005ZM41.4688 26.4225C42.1058 27.4185 42.1668 28.5275 42.1838 29.7065C41.5638 29.0695 41.1908 27.3645 41.4688 26.4225ZM35.4228 12.9305C35.7818 12.5575 36.1488 12.4435 36.5728 12.5205C37.0488 12.6075 37.5978 13.1625 37.7598 13.7655C37.0958 13.1185 36.3248 12.9285 35.4228 12.9305ZM37.7898 24.4415C38.1808 25.0885 37.8708 25.9715 37.0838 26.3005C37.2508 25.9625 37.4198 25.6775 37.5348 25.3725C37.6488 25.0685 37.7098 24.7445 37.7898 24.4415ZM36.8868 21.6585C36.4208 20.9195 36.4238 20.1835 36.8738 19.6415C37.1398 20.3105 37.1108 20.9455 36.8868 21.6585ZM36.2868 16.6205C36.2088 16.3445 36.0898 16.0755 35.9478 15.8265C35.8138 15.5895 35.6278 15.3835 35.4598 15.1595C35.9738 15.1265 36.4288 15.4245 36.5838 15.9015C36.7508 16.4165 36.6398 16.9085 36.3928 17.3945C36.3608 17.1355 36.3578 16.8685 36.2868 16.6205ZM35.9858 21.8645C35.3458 21.6465 34.8888 20.9265 34.9308 20.1695C35.6618 20.4375 36.1198 21.1895 35.9858 21.8645ZM33.4708 21.4665C34.3408 21.3905 35.3188 21.9085 35.5358 22.5415C34.7978 22.6895 33.8068 22.1865 33.4708 21.4665ZM34.9388 32.7615C34.9088 32.7605 34.8778 32.7595 34.8478 32.7585C34.8328 32.5415 34.8178 32.3255 34.8028 32.1085C34.7858 32.1055 34.7678 32.1035 34.7508 32.1005C34.6688 32.3225 34.5878 32.5445 34.5068 32.7675C34.4838 32.7625 34.4618 32.7575 34.4398 32.7535V32.0265C34.4138 32.0185 34.3878 32.0105 34.3608 32.0025C34.2348 32.2905 34.1088 32.5775 33.9828 32.8645C33.9578 32.8585 33.9328 32.8535 33.9078 32.8485V32.0885C33.8808 32.0815 33.8528 32.0735 33.8258 32.0665C33.7118 32.3175 33.5988 32.5695 33.4478 32.9055C33.3688 32.5485 33.4498 32.2755 33.4708 31.9105C33.1558 32.2325 33.0078 32.5825 32.7038 32.8325C32.7848 32.5455 32.8648 32.2595 32.9458 31.9735C32.9248 31.9585 32.9038 31.9435 32.8828 31.9295C32.6088 32.2085 32.3338 32.4885 32.0598 32.7675C32.0368 32.7505 32.0138 32.7325 31.9908 32.7155C32.1368 32.4595 32.2838 32.2025 32.4298 31.9455C32.4158 31.9295 32.4028 31.9125 32.3898 31.8965C32.0948 32.1525 31.8008 32.4095 31.5058 32.6655C31.4858 32.6485 31.4658 32.6305 31.4458 32.6135L31.8268 32.0515C31.8108 32.0325 31.7948 32.0145 31.7788 31.9965C31.5588 32.1735 31.3388 32.3505 31.1188 32.5275C31.1018 32.5105 31.0858 32.4935 31.0698 32.4765C31.4488 31.9635 31.8268 31.4515 32.2238 30.9135C33.2378 31.2525 34.2598 31.4745 35.4028 31.3065C35.2348 31.8345 35.0868 32.2975 34.9388 32.7615ZM34.6968 34.3965C34.6588 34.4235 34.6218 34.4655 34.5758 34.4815C33.7608 34.7525 32.9328 34.9595 32.0648 34.9415C31.1598 34.9225 30.4438 34.4885 29.7478 33.9165C30.0448 33.5675 30.3158 33.2505 30.5918 32.9255C31.1738 33.2965 31.8088 33.3395 32.4378 33.3765C33.0288 33.4115 33.6218 33.3945 34.2148 33.3995C34.3578 33.4005 34.5008 33.3995 34.6968 33.3995V34.3965ZM28.0738 30.9395C28.1718 30.5335 28.2628 30.1585 28.3638 29.7425C29.4428 29.8295 30.4968 29.9145 31.5718 30.0015V31.1285C30.4048 31.3885 29.2648 31.2585 28.0738 30.9395ZM29.1488 27.3795C30.1618 27.7315 31.1658 27.8855 32.2608 27.7475C32.1338 28.2125 32.0218 28.6225 31.9098 29.0325C31.8898 29.0305 31.8698 29.0285 31.8498 29.0265C31.8368 28.8905 31.8238 28.7545 31.8028 28.5345C31.6888 28.8555 31.6008 29.1035 31.5138 29.3515C31.4938 29.3475 31.4738 29.3435 31.4548 29.3385C31.4228 29.0985 31.3898 28.8575 31.3578 28.6155C31.3418 28.6145 31.3268 28.6125 31.3108 28.6115C31.2518 28.8635 31.1938 29.1155 31.1348 29.3675C31.1128 29.3655 31.0908 29.3635 31.0688 29.3605C30.9918 29.0645 30.9148 28.7675 30.8368 28.4715L30.7638 28.4585C30.6478 28.7615 30.5308 29.0655 30.4148 29.3695C30.3908 29.3635 30.3688 29.3575 30.3448 29.3515C30.3118 29.0435 30.2788 28.7355 30.2348 28.3205C30.0208 28.6795 29.8538 28.9605 29.6868 29.2405L29.6128 29.2285C29.6398 28.9705 29.6658 28.7135 29.6918 28.4555C29.6718 28.4455 29.6518 28.4365 29.6328 28.4265C29.4608 28.6685 29.2898 28.9085 29.1188 29.1495C29.0958 29.1405 29.0728 29.1325 29.0488 29.1235C29.0938 28.8755 29.1388 28.6275 29.1998 28.2895C29.0358 28.5425 28.9158 28.7245 28.7968 28.9075L28.7268 28.8755C28.8638 28.3895 29.0008 27.9035 29.1488 27.3795ZM29.1398 24.0525C29.3178 23.7865 29.4958 23.5755 29.6118 23.3335C29.7248 23.0955 29.7748 22.8265 29.8578 22.5545C30.2998 23.1345 30.0388 23.6855 29.1398 24.0525ZM28.8268 23.6115C28.6408 23.1365 28.5938 22.7085 28.6758 22.2665C28.6838 22.2215 28.7518 22.1675 28.8018 22.1525C29.3008 22.0115 29.3058 22.0105 29.5128 21.5975C29.5658 22.3345 29.5298 23.0495 28.8268 23.6115ZM26.8978 22.0325C27.1358 21.6985 27.3978 21.4005 27.7568 21.1995C27.8568 21.1445 27.9238 21.1595 28.0498 21.2345C28.2848 21.3765 28.5528 21.5915 28.8838 21.3725C28.4038 22.0235 27.4518 22.3365 26.8978 22.0325ZM26.7488 22.4975C27.2818 22.6315 27.7898 22.5615 28.2938 22.3245C28.1078 23.0165 27.3648 23.0995 26.7488 22.4975ZM26.4778 19.6775C26.6278 19.9175 26.7458 20.1655 26.9188 20.3655C27.0948 20.5695 27.3248 20.7285 27.5678 20.9385C26.8028 21.0565 26.3998 20.5755 26.4778 19.6775ZM24.4918 19.8025C23.5698 21.1345 22.4688 22.2965 21.1628 23.2595C21.0778 23.3225 20.9918 23.3825 20.9048 23.4425C20.8728 23.4645 20.8368 23.4825 20.7518 23.5295C20.1398 23.0545 19.5098 22.5665 18.8808 22.0795C18.8948 22.0525 18.9098 22.0265 18.9238 21.9995C19.1748 22.1135 19.4278 22.2265 19.6778 22.3425C19.9378 22.4645 20.1958 22.5915 20.5348 22.7535C20.4438 22.5195 20.3078 22.4195 20.2088 22.2995C20.1088 22.1775 19.9988 22.0635 19.8948 21.9445C19.7828 21.8175 19.6728 21.6895 19.6038 21.4975C20.1038 21.7745 20.6038 22.0535 21.1028 22.3315C21.1238 22.3125 21.1448 22.2925 21.1648 22.2735C20.9028 21.7985 20.6398 21.3245 20.3758 20.8495C20.5598 20.9045 20.6608 21.0455 20.7738 21.1705C20.8888 21.2985 20.9998 21.4285 21.1128 21.5575C21.2328 21.6935 21.3538 21.8305 21.4998 21.9515C21.3218 21.3815 21.0238 20.8625 20.8238 20.3055C20.8488 20.2895 20.8728 20.2735 20.8978 20.2565C21.2718 20.6175 21.6468 20.9795 22.0208 21.3405C22.0408 21.3275 22.0608 21.3145 22.0808 21.3005C21.8178 20.8165 21.5538 20.3325 21.2898 19.8475C21.3128 19.8265 21.3368 19.8055 21.3598 19.7845C21.7868 20.0645 22.1598 20.4245 22.6348 20.6785C22.3488 20.1935 22.0628 19.7095 21.7768 19.2245C21.7988 19.2035 21.8208 19.1815 21.8418 19.1595C22.3578 19.4515 22.8728 19.7435 23.3878 20.0355C23.4078 20.0145 23.4278 19.9945 23.4478 19.9735C23.0858 19.4905 22.7238 19.0065 22.3618 18.5235C22.3768 18.5025 22.3918 18.4825 22.4078 18.4615C22.9648 18.7325 23.5218 19.0025 24.0798 19.2735L24.1218 19.2155C23.7118 18.7805 23.3028 18.3455 22.8918 17.9105L22.9358 17.8445C23.3378 18.0655 23.7398 18.2845 24.1408 18.5045L24.1918 18.4535C23.8748 18.0805 23.5588 17.7085 23.2418 17.3355C23.8088 17.4785 24.2958 17.7795 24.8538 17.9535C24.4588 17.5245 24.0628 17.0955 23.6678 16.6675C24.1848 16.7515 24.6208 17.0255 25.1318 17.1435C24.7648 16.7285 24.3968 16.3135 24.0288 15.8985C24.0418 15.8735 24.0548 15.8475 24.0678 15.8225C24.7238 15.9115 25.3808 16.0015 26.0378 16.0905C26.0478 16.0655 26.0578 16.0415 26.0678 16.0165C25.5418 15.7485 25.0148 15.4795 24.4878 15.2105C24.9598 15.1625 25.4038 15.2885 25.8878 15.2835C25.4948 15.0215 25.1008 14.7595 24.7078 14.4975C24.7218 14.4685 24.7348 14.4395 24.7478 14.4105C25.3548 14.5095 25.9628 14.6085 26.5698 14.7085C26.5798 14.6905 26.5908 14.6725 26.6018 14.6545C26.0678 14.3365 25.5338 14.0175 24.9998 13.6985C25.0088 13.6715 25.0188 13.6445 25.0288 13.6165C25.5288 13.6765 26.0298 13.7355 26.5308 13.7955C26.1268 13.3995 25.6138 13.1765 25.1988 12.7865C25.7268 12.8405 26.2558 12.8935 26.7838 12.9475C26.7948 12.9285 26.8068 12.9095 26.8178 12.8905C26.3658 12.6105 25.9138 12.3315 25.4618 12.0515C25.4728 12.0235 25.4828 11.9955 25.4928 11.9665L26.7508 12.1265C26.7628 12.1045 26.7738 12.0835 26.7858 12.0625C26.3338 11.7675 25.8828 11.4725 25.4318 11.1775C25.4348 11.1515 25.4388 11.1255 25.4428 11.0995C25.7468 11.0955 26.0518 11.0895 26.3568 11.0875C26.6578 11.0855 26.9588 11.0865 27.2768 11.0215C26.6838 10.8385 26.0908 10.6565 25.4718 10.4655C26.0718 10.1555 27.4168 10.2295 27.9778 10.6065C27.9258 10.9345 27.8788 11.2845 27.8128 11.6305C27.2448 14.5735 26.2058 17.3255 24.4918 19.8025ZM21.6308 26.7305C21.3228 27.2345 20.9668 27.6755 20.3878 27.8555C20.0788 27.9515 19.7618 27.9255 19.4688 27.7735C19.0248 27.5445 18.7108 27.1865 18.4888 26.7275C19.5438 27.3065 20.5778 27.2755 21.6308 26.7305ZM20.7628 32.7235C20.6948 32.5905 20.6648 32.5315 20.6108 32.4275C20.5678 32.5755 20.5338 32.6905 20.4828 32.8635C20.4228 32.6595 20.3768 32.5045 20.3088 32.2735C20.2328 32.5155 20.1748 32.6995 20.0988 32.9415C20.0088 32.7115 19.9408 32.5365 19.8568 32.3205C19.7538 32.5515 19.6698 32.7395 19.5438 33.0215C19.4778 32.7495 19.4348 32.5685 19.3718 32.3105C19.2238 32.5525 19.1028 32.7495 18.9338 33.0245C18.8938 32.7635 18.8678 32.5885 18.8318 32.3565C18.7118 32.5705 18.6138 32.7455 18.4698 33.0025C18.4518 32.7405 18.4398 32.5745 18.4238 32.3345C18.2528 32.5455 18.1148 32.7165 17.9258 32.9515C17.9468 32.7045 17.9608 32.5425 17.9738 32.3785L17.9168 32.3365C17.7888 32.4955 17.6608 32.6535 17.5328 32.8125C17.5118 32.7995 17.4898 32.7865 17.4688 32.7735C17.4858 32.6275 17.5038 32.4815 17.5278 32.2765C17.3778 32.3985 17.2718 32.4835 17.1658 32.5685C17.1458 32.5605 17.1248 32.5515 17.1048 32.5435C17.2328 32.1415 17.3608 31.7395 17.4948 31.3185C18.5828 31.5365 19.6258 31.9005 20.7418 31.5265C20.8208 31.9015 20.7788 32.2705 20.7628 32.7235ZM20.4408 34.0335C20.4028 34.1125 20.2958 34.1925 20.2088 34.2075C19.1718 34.3885 18.1298 34.5335 17.0738 34.3645C16.9708 34.3485 16.8688 34.3215 16.7688 34.2905C16.6948 34.2665 16.6258 34.2285 16.5058 34.1755C16.5978 33.8275 16.6878 33.4815 16.7868 33.1035C18.1178 33.4335 19.4178 33.4805 20.7858 33.2045C20.6528 33.5305 20.5608 33.7895 20.4408 34.0335ZM15.8848 32.4985C15.7158 32.6415 15.4218 32.6635 15.1788 32.6875C14.6238 32.7415 14.0768 32.6415 13.5388 32.5165C13.1698 32.4315 12.8078 32.3145 12.3548 32.1875C12.7338 31.6615 13.0688 31.1975 13.3988 30.7395C13.9228 30.9335 14.4038 31.1485 14.9058 31.2875C15.4058 31.4265 15.9278 31.4895 16.4818 31.5935C16.3288 31.9085 16.1648 32.2615 15.8848 32.4985ZM14.3268 28.9035C15.3578 29.3445 16.3188 29.9055 17.5098 29.7325C17.4298 30.1435 17.3568 30.5125 17.2848 30.8815L17.2348 30.8855C17.2148 30.7895 17.1938 30.6925 17.1658 30.5585C17.1068 30.6845 17.0598 30.7835 16.9798 30.9525C16.9448 30.7525 16.9218 30.6225 16.8848 30.4135C16.7758 30.6155 16.6968 30.7635 16.6038 30.9355C16.4298 30.7845 16.5348 30.5785 16.4388 30.3655C16.3068 30.5505 16.1928 30.7105 16.0218 30.9495C16.0028 30.6885 15.9898 30.5065 15.9718 30.2525C15.7768 30.4605 15.6148 30.6325 15.3948 30.8655C15.4128 30.6065 15.4258 30.4255 15.4428 30.1725C15.2728 30.3735 15.1488 30.5195 15.0258 30.6655L14.9658 30.6515C14.9818 30.4825 14.9968 30.3125 15.0178 30.0895C14.8208 30.2615 14.6588 30.4035 14.4338 30.5985C14.4918 30.3635 14.5308 30.2065 14.5828 29.9915C14.3858 30.1255 14.2388 30.2255 14.0308 30.3665C14.0658 30.2265 14.0818 30.1485 14.1068 30.0715C14.1288 30.0025 14.1608 29.9355 14.2148 29.7995C14.0198 29.9165 13.8928 29.9935 13.7658 30.0695C13.7448 30.0545 13.7238 30.0395 13.7038 30.0235C13.9098 29.6545 14.1148 29.2855 14.3268 28.9035ZM14.4288 18.6805C14.1188 18.5375 13.7998 18.4875 13.4708 18.4815C12.8368 18.4675 12.2108 18.5175 11.6068 18.7475C11.3668 18.8395 11.1028 18.8735 10.8418 18.9055C11.3878 18.4835 11.9708 18.1575 12.6808 18.1385C12.9308 18.1315 13.1808 18.1365 13.4308 18.1235C13.8238 18.1025 14.1758 18.2055 14.5268 18.3875C14.8248 18.5435 15.1598 18.6275 15.5488 18.7675C15.1368 18.8365 14.7688 18.8375 14.4288 18.6805ZM10.4548 16.7445C10.3058 16.2465 10.5038 15.8825 11.0108 15.7705C11.1518 15.7385 11.2978 15.7315 11.3848 15.7205C11.7948 15.7235 12.1068 15.8285 12.3868 16.0565C12.9878 16.5445 13.5698 16.5515 14.1818 16.0865C14.5878 15.7785 15.0378 15.6335 15.5458 15.6775C15.7898 15.6985 16.0068 15.7845 16.1658 15.9805C16.2898 16.1315 16.3138 16.3725 16.2168 16.4935C16.1018 16.6375 15.9448 16.6445 15.7868 16.5865C15.6148 16.5235 15.4398 16.4615 15.2828 16.3695C15.0188 16.2175 14.7808 16.2435 14.5488 16.4195C14.4238 16.5155 14.3048 16.6195 14.1838 16.7215C13.5858 17.2325 12.8278 17.1965 12.2908 16.6065C12.1308 16.4295 11.9598 16.3125 11.7308 16.2755C11.4678 16.2355 11.3168 16.3175 11.1918 16.5615C11.1438 16.6545 11.1168 16.7675 11.0468 16.8395C10.9718 16.9165 10.8588 17.0025 10.7618 17.0025C10.6158 17.0035 10.5048 16.9095 10.4548 16.7445ZM9.78376 11.7725C10.1188 11.4245 10.5088 11.2395 10.5158 10.7415C10.9168 11.0675 11.1008 11.3815 11.1618 11.8365C10.7298 11.8155 10.3058 11.7965 9.78376 11.7725ZM9.22776 11.5125C8.76076 11.3995 8.52776 10.9025 8.60776 10.1655C9.05276 10.1155 9.46376 10.1135 9.91176 10.3355C9.34876 10.5645 9.31276 11.0535 9.22776 11.5125ZM7.02076 5.76049C6.71676 5.59549 6.39676 5.42049 6.01876 5.21449C6.29176 4.94049 6.53176 4.69049 6.78176 4.44949C7.35376 3.89549 7.12976 3.97949 7.85576 4.18349C8.10476 4.25349 8.34976 4.33349 8.60576 4.41149C8.43476 4.67949 7.48076 5.48849 7.02076 5.76049ZM6.36676 7.62149C6.02576 8.13149 5.51976 8.37349 4.93076 8.40049C4.47376 8.42149 4.00276 8.41149 3.55776 8.32049C2.66776 8.13749 2.06876 7.54549 1.58276 6.77349C1.87576 6.66149 2.11876 6.56549 2.33376 6.82149C2.41576 6.76749 2.47976 6.72449 2.56476 6.66749C2.62576 6.76549 2.68576 6.85949 2.76176 6.97849C2.84376 6.86649 2.91576 6.76649 3.02376 6.61849C3.06076 6.79349 3.08776 6.92249 3.12776 7.11749C3.27576 6.95049 3.39676 6.81349 3.56076 6.62849C3.58876 6.80549 3.60976 6.93549 3.63976 7.12249C3.76676 6.93949 3.87176 6.78949 4.02276 6.57449C4.10476 6.85349 4.16876 7.06849 4.24876 7.33949C4.37276 7.10249 4.47176 6.91549 4.56976 6.72749C4.59576 6.73749 4.62076 6.74649 4.64576 6.75649C4.65376 6.93349 4.66176 7.11149 4.67476 7.38649C4.86476 7.16449 4.99576 7.01049 5.12676 6.85649C5.14976 6.85949 5.17276 6.86349 5.19476 6.86649C5.16876 7.08049 5.14276 7.29349 5.11076 7.56549C5.37376 7.36749 5.58976 7.20549 5.85376 7.00549C5.85376 7.32249 5.61776 7.48449 5.57676 7.73949C5.88576 7.67549 6.08476 7.39849 6.43676 7.38949C6.40876 7.48949 6.40376 7.56549 6.36676 7.62149ZM5.63976 4.85549C5.57576 4.91049 5.41176 4.89649 5.31576 4.85849C4.96376 4.72149 4.70076 4.46549 4.42176 4.11449C4.86876 3.86249 5.27776 3.63049 5.68976 3.40349C5.74176 3.37549 5.82276 3.35649 5.87376 3.37549C6.18076 3.48549 6.48176 3.60849 6.85376 3.75349C6.41576 4.15649 6.03676 4.51749 5.63976 4.85549ZM4.26476 3.79349C4.21276 3.69149 4.14476 3.61849 4.13976 3.54149C4.12476 3.28249 4.09776 3.01749 4.13976 2.76549C4.22276 2.26049 4.26476 2.23949 4.75676 2.16349C4.96376 2.13049 5.17076 2.09749 5.37876 2.06849C5.41476 2.06449 5.45376 2.07749 5.51376 2.08549C5.55276 2.35449 5.59176 2.62349 5.63876 2.94749C5.18276 3.22849 4.73876 3.50249 4.26476 3.79349ZM5.93676 1.01749C5.74876 1.73349 5.18076 1.84849 4.56376 1.90949C4.78476 1.42049 5.34876 1.05649 5.93676 1.01749ZM9.73276 9.44249C10.3868 9.74849 10.8108 10.2915 11.1578 10.9085C10.4358 10.2535 9.59776 9.80049 8.63976 9.42949C9.06776 9.21649 9.40976 9.29149 9.73276 9.44249ZM10.5198 5.67549C10.3658 6.04549 9.98276 6.26249 9.41776 6.30149C9.52576 5.89349 9.91076 5.67549 10.5198 5.67549ZM9.80776 7.39349C10.0178 6.77449 10.3948 6.40449 10.8388 6.38149C10.7448 6.91149 10.2738 7.37449 9.80776 7.39349ZM11.8568 6.58749C11.8178 7.18549 11.4418 7.53049 11.0418 7.96749C11.0438 7.34349 11.3428 6.85549 11.8568 6.58749ZM12.1148 15.1325C11.9658 14.8285 11.9808 14.7535 12.2468 14.4825C12.4338 14.8095 12.4128 14.9085 12.1148 15.1325ZM12.1668 12.8745C12.1568 12.9075 12.1298 12.9355 12.0788 13.0185C12.0438 12.5385 12.0248 12.1125 11.9778 11.6895C11.9388 11.3375 11.8778 10.9875 11.8098 10.6405C11.7248 10.2075 11.4978 9.85549 11.1118 9.63549C10.6898 9.39649 10.2528 9.18249 9.82176 8.95949C9.70976 8.90149 9.59376 8.85149 9.49276 8.76349C10.3648 8.79649 11.2058 8.91949 11.8748 9.55549C12.1978 9.86249 12.3158 10.2715 12.3688 10.6915C12.4598 11.4305 12.3818 12.1605 12.1668 12.8745ZM12.6148 4.89449C12.3568 5.20549 12.1148 5.40949 11.7238 5.32049C11.8838 4.94849 12.1088 4.83649 12.6148 4.89449ZM12.5788 4.56849C12.2068 4.64749 11.9218 4.48849 11.7848 4.12849C12.1718 4.06349 12.3608 4.16849 12.5788 4.56849ZM12.6808 8.20549C12.3528 7.85349 12.3538 7.32249 12.6988 6.72749C12.9688 7.27249 12.9198 7.73049 12.6808 8.20549ZM12.8498 5.06149C13.0938 5.45449 13.0838 5.66549 12.8098 5.92649C12.5528 5.58449 12.5628 5.37849 12.8498 5.06149ZM12.8238 3.59449C13.0998 3.89849 13.1038 4.11649 12.8208 4.48749C12.5828 4.02849 12.5868 3.86249 12.8238 3.59449ZM13.9348 4.14849C13.8208 4.53249 13.5978 4.65549 13.0768 4.59649C13.3298 4.29949 13.5528 4.07549 13.9348 4.14849ZM13.1258 4.89649C13.6038 4.89149 13.8278 5.01849 13.9368 5.35849C13.5248 5.41649 13.3008 5.28849 13.1258 4.89649ZM13.3558 15.6605C12.9948 15.1795 12.9948 14.7135 13.3328 14.2425C13.6398 14.6125 13.6528 15.1145 13.3558 15.6605ZM13.4328 6.62149C13.8198 6.82449 14.0078 7.34049 13.9078 7.96049C13.4898 7.55949 13.3948 7.12649 13.4328 6.62149ZM14.7558 15.1425C14.3968 14.8575 14.3818 14.8135 14.5068 14.4815C14.7778 14.6335 14.8148 14.7225 14.7558 15.1425ZM14.0508 11.5185C14.1578 10.9125 14.2768 10.3025 14.4658 9.71849C14.7278 8.90849 15.4288 8.42249 16.2478 8.39649C16.3068 8.39449 16.3668 8.40949 16.5068 8.42649C16.3498 8.53149 16.2538 8.58949 16.1638 8.65749C15.5418 9.13249 15.0588 9.69949 14.9068 10.5005C14.7628 11.2615 14.6008 12.0195 14.4458 12.7785C14.4258 12.8765 14.3928 12.9725 14.3598 13.0945C14.0968 12.9305 14.0658 12.6855 14.0468 12.4615C14.0198 12.1485 13.9968 11.8235 14.0508 11.5185ZM15.3248 7.32149C14.7398 7.12249 14.4338 6.76049 14.2728 6.22849C14.7108 6.28249 15.1128 6.69349 15.3248 7.32149ZM16.3588 6.35349C15.9228 6.34349 15.5288 6.26549 15.1638 5.99149C15.6318 5.78149 16.1638 5.94449 16.3588 6.35349ZM17.3418 9.23849C16.3968 9.63249 15.7798 10.2645 15.3628 11.1525C15.1408 10.0305 16.2248 8.96749 17.3418 9.23849ZM18.0648 3.16049C18.1918 3.04849 18.3118 3.09849 18.4238 3.17149C18.8298 3.43749 19.2318 3.70749 19.6548 3.98849C19.4548 4.29249 19.1648 4.42649 18.9158 4.66949C18.3898 4.39249 17.8728 4.11949 17.3008 3.81649C17.5888 3.56949 17.8288 3.36849 18.0648 3.16049ZM18.6588 2.03049C19.2308 2.07649 19.7638 2.11949 20.3358 2.16649C20.2788 2.68449 20.1958 3.14849 19.8858 3.60649C19.3998 3.32649 18.9398 3.06149 18.4578 2.78349C18.5248 2.53249 18.5848 2.30749 18.6588 2.03049ZM19.5958 0.992488C19.6478 0.994488 19.7128 1.05249 19.7468 1.10249C19.8858 1.30549 20.0138 1.51449 20.1968 1.80249H18.7568C18.6758 1.53649 18.6018 1.29149 18.5168 1.01149C18.8788 0.946488 19.2388 0.980488 19.5958 0.992488ZM19.6208 6.02449C19.8548 6.18649 19.8358 6.47949 20.0548 6.71949C20.0308 6.42849 20.0128 6.21349 19.9928 5.95949C20.2468 6.10749 20.2848 6.39549 20.5178 6.60649V5.81549C20.5428 5.80849 20.5678 5.80149 20.5918 5.79449C20.7028 5.94549 20.8128 6.09749 20.9658 6.30749C20.9418 6.02549 20.9238 5.81449 20.8998 5.54449C21.1668 5.66349 21.3798 5.75649 21.6378 5.87049C21.5938 5.69749 21.5578 5.55649 21.5098 5.36749C21.6898 5.43849 21.8288 5.49449 22.0028 5.56349C21.9848 5.42749 21.9708 5.31749 21.9488 5.14749C22.1368 5.23649 22.2908 5.30949 22.4658 5.39349C22.4808 5.25649 22.4928 5.14249 22.5078 4.99449C22.5948 5.00349 22.6788 5.01249 22.7928 5.02349C22.8398 4.80049 22.9868 4.66949 23.3068 4.68649C23.2238 4.86049 23.1668 5.01549 23.0818 5.15249C22.4058 6.23449 21.5008 7.08049 20.3968 7.71349C20.3178 7.75949 20.2328 7.79849 20.1468 7.83049C19.6608 8.00849 19.3728 7.82749 19.3518 7.30449C19.3348 6.86849 19.4398 6.45049 19.6208 6.02449ZM18.4928 25.0105C18.2908 25.6215 17.5488 26.1985 16.9738 26.2165C16.3558 26.2355 15.6458 25.7115 15.3458 24.9705C16.4058 25.6045 17.4428 25.5895 18.4928 25.0105ZM16.8988 11.7815C16.4248 11.9875 15.9488 11.8935 15.4838 11.9345C15.4508 11.4355 15.6228 11.0465 15.9898 10.7315C16.3048 11.3635 16.3048 11.3635 16.8988 11.7815ZM17.4868 11.3235C17.2748 10.8405 17.0448 10.4495 16.4938 10.2655C17.0258 9.97549 17.4978 9.97749 18.0148 10.1605C17.9298 10.5875 17.7748 10.9505 17.4868 11.3235ZM18.1928 14.9875C18.2308 15.2865 18.3018 15.5825 18.3578 15.8795C18.4678 16.4565 18.4128 17.0065 18.0838 17.5095C18.0628 17.5435 18.0378 17.5745 18.0098 17.6015C17.9938 17.6175 17.9668 17.6225 17.9348 17.6365C17.9328 17.5955 17.9178 17.5525 17.9318 17.5225C18.1928 16.9345 18.1208 16.3425 17.9738 15.7435C17.8978 15.4385 17.8348 15.1265 17.8088 14.8145C17.7718 14.3675 17.9298 13.9675 18.2848 13.6955C18.6978 13.3795 18.8498 12.9495 18.9288 12.4745C18.9828 12.1515 19.0138 11.8255 19.0728 11.5015C19.1608 12.1235 19.1768 12.7435 19.0288 13.3595C18.9718 13.5975 18.8588 13.8035 18.6398 13.9315C18.2278 14.1735 18.1388 14.5555 18.1928 14.9875ZM22.3418 9.59449C22.6868 9.61749 22.7678 9.68449 22.8188 10.0035C23.1848 12.3135 23.0418 14.5735 22.1158 16.7455C21.2678 18.7295 19.8608 20.2175 18.0048 21.2945C17.9488 21.3275 17.8888 21.3535 17.8378 21.3785C17.3818 21.0715 17.0418 20.1255 17.0568 19.2015C17.2888 19.2835 17.3748 19.5025 17.5208 19.6525C17.6768 19.8115 17.8138 19.9885 18.0198 20.1385C17.9018 19.7845 17.7838 19.4295 17.6648 19.0755C17.6868 19.0635 17.7088 19.0505 17.7318 19.0385C18.0428 19.3355 18.3538 19.6315 18.6658 19.9285C18.6858 19.9205 18.7068 19.9135 18.7268 19.9045C18.5818 19.4875 18.4368 19.0695 18.2588 18.5585C18.5358 18.6665 18.7348 18.7415 18.9328 18.8205C19.1378 18.9035 19.3418 18.9895 19.6028 19.0265C19.3498 18.6425 19.0978 18.2585 18.8018 17.8095C19.2908 17.8265 19.6658 18.0435 20.1428 18.0835C19.8758 17.6935 19.6418 17.3525 19.3838 16.9755C19.6508 16.9445 19.8188 17.0845 20.0068 17.1475C20.1898 17.2085 20.3668 17.2875 20.5468 17.3585C20.5658 17.3355 20.5848 17.3115 20.6038 17.2885C20.2828 16.9055 19.9618 16.5235 19.6408 16.1415C19.6558 16.1155 19.6708 16.0895 19.6858 16.0635C20.1258 16.2015 20.5658 16.3395 21.0048 16.4785C21.0188 16.4595 21.0338 16.4405 21.0468 16.4225C20.7158 16.0925 20.3848 15.7625 20.0538 15.4315C20.0658 15.4105 20.0788 15.3895 20.0918 15.3675C20.5968 15.4635 21.1018 15.5605 21.6078 15.6565C21.6178 15.6365 21.6268 15.6155 21.6358 15.5955L20.4288 14.6725C20.4368 14.6455 20.4458 14.6175 20.4538 14.5885C20.9968 14.6335 21.5388 14.6775 22.0818 14.7225L22.1068 14.6545C21.6498 14.3355 21.1928 14.0155 20.6528 13.6385C21.2088 13.5185 21.6898 13.5675 22.1758 13.4415C21.7348 13.2355 21.2938 13.0295 20.7648 12.7825C21.2888 12.6305 21.7218 12.5055 22.1538 12.3805C22.1518 12.3605 22.1488 12.3395 22.1458 12.3195C21.7398 12.2555 21.3318 12.1915 20.9258 12.1285C20.9208 12.1045 20.9168 12.0815 20.9118 12.0575C21.3228 11.8975 21.7328 11.7375 22.1428 11.5775C22.1418 11.5515 22.1398 11.5255 22.1378 11.4995H20.8738C21.0168 11.2485 21.2538 11.2175 21.4298 11.1075C21.6128 10.9925 21.8118 10.9005 21.9808 10.7295H20.8338C20.8278 10.7055 20.8208 10.6815 20.8138 10.6585C21.1498 10.4985 21.4858 10.3395 21.8218 10.1795C21.8198 10.1535 21.8178 10.1285 21.8158 10.1025C21.4388 10.0875 21.0618 10.0725 20.6838 10.0575C20.6788 10.0345 20.6738 10.0125 20.6688 9.98949C20.7258 9.95449 20.7788 9.90549 20.8398 9.88449C21.3258 9.71349 21.8168 9.56149 22.3418 9.59449ZM28.5818 17.9315C28.3048 18.3995 28.2378 18.9075 28.2978 19.4735C27.7168 19.0085 27.8418 18.3725 28.5818 17.9315ZM28.7048 20.8195C27.8108 20.7455 27.1128 20.2725 26.9388 19.6455C27.3778 19.5785 27.7918 19.6275 28.1888 19.8125C28.2648 19.8485 28.2918 19.9005 28.2828 20.0235C28.2688 20.2115 28.3538 20.4145 28.4268 20.5985C28.4538 20.6695 28.5618 20.7105 28.7048 20.8195ZM28.8588 18.1345C29.1648 18.4855 29.3898 18.8255 29.4848 19.2405C29.5118 19.3605 29.4478 19.4105 29.3488 19.5015C29.1488 19.6855 28.8858 19.8925 28.9818 20.2585C28.6668 19.5825 28.3798 18.9105 28.8588 18.1345ZM28.9708 12.5205C29.1958 12.8825 29.3668 13.2525 29.6228 13.5465C29.8848 13.8485 30.2298 14.0765 30.5588 14.3535C29.9688 14.5125 29.4808 14.3265 29.2028 13.8345C28.9738 13.4325 28.9288 12.9965 28.9708 12.5205ZM31.7338 12.9095C31.6188 12.9755 31.5578 13.0095 31.4748 13.0575C31.5468 13.1455 31.6188 13.2325 31.6968 13.3275C31.6558 13.3655 31.6198 13.3985 31.5568 13.4585C31.6438 13.5165 31.7288 13.5725 31.8148 13.6295C31.8038 13.6495 31.7928 13.6695 31.7818 13.6895C31.7028 13.6825 31.6258 13.6745 31.4568 13.6595C31.7728 13.8655 32.0118 14.0215 32.2778 14.1965C31.1718 14.2315 29.8238 13.3405 29.6368 12.4425C30.3628 12.4185 31.0628 12.4305 31.7338 12.9095ZM31.4088 10.4555C31.6068 10.2155 31.8258 10.0015 32.1318 9.86549C31.6368 10.5895 31.5108 11.3835 31.6498 12.3005C31.0158 11.8165 30.9128 11.0545 31.4088 10.4555ZM33.3358 12.2365C33.2658 12.2125 33.1978 12.1895 33.1308 12.1665C33.0338 12.2485 33.1638 12.5245 32.8758 12.4485C32.8658 12.5505 32.8558 12.6525 32.8398 12.8185C32.7648 12.7105 32.7218 12.6495 32.6278 12.5145C32.6558 12.8755 32.6778 13.1615 32.7028 13.4845C31.9858 12.5755 31.8828 10.9695 32.4928 10.3225C33.1238 11.0365 33.4348 11.7395 33.3358 12.2365ZM35.0138 14.1745C35.0158 14.1635 34.8548 14.1175 34.7478 14.0795C34.8078 14.0325 34.8578 13.9925 34.9598 13.9115C34.6478 13.8945 34.3908 13.8805 34.1168 13.8645C34.8558 13.3695 36.8258 13.2955 37.2038 14.0575C36.5808 14.5515 35.6758 14.8265 35.1978 14.6485C35.2508 14.5655 35.2858 14.5125 35.3198 14.4615C35.2368 14.3465 34.9538 14.4495 35.0138 14.1745ZM34.1228 16.0975C34.1958 16.0795 34.2658 16.0615 34.3528 16.0395C34.3208 15.9385 34.2898 15.8415 34.2528 15.7275C34.3088 15.7155 34.3538 15.7055 34.4168 15.6915C34.3778 15.5955 34.3398 15.5025 34.2888 15.3815C34.3688 15.3905 34.4328 15.3985 34.5278 15.4085C34.3818 15.1875 34.2468 14.9835 34.0988 14.7595C35.0178 14.9845 36.0088 16.4685 35.8238 17.3015C35.1218 17.1645 34.3028 16.5905 34.1228 16.0975ZM32.7828 18.9485C33.1628 18.4085 33.4478 18.6035 33.9148 16.6825C34.3398 17.2105 34.3328 17.7945 33.8878 18.2765C33.6068 18.5805 33.2558 18.7755 32.7828 18.9485ZM32.8308 23.1065C33.6978 22.7725 34.3808 23.1005 35.0888 23.4555C34.6228 23.8105 33.4988 23.6425 32.8308 23.1065ZM32.9038 24.4435C33.4388 24.0335 34.2938 24.0205 34.8988 24.4285C34.3858 24.8675 33.5468 24.8655 32.9038 24.4435ZM32.7708 27.3805C32.9448 26.8345 33.1568 26.2995 33.3588 25.7405C33.7118 25.8365 34.0118 25.9165 34.3538 26.0095C34.2918 26.2355 34.2628 26.4455 34.1778 26.6295C33.9798 27.0585 33.7838 27.4925 33.5348 27.8915C33.1108 28.5715 32.6478 29.2275 32.2008 29.8925C32.1648 29.9445 32.1188 29.9905 32.0768 30.0385C32.0528 30.0325 32.0278 30.0255 32.0038 30.0185C32.1098 29.6835 32.2228 29.3505 32.3188 29.0125C32.4738 28.4695 32.6008 27.9185 32.7708 27.3805ZM30.9238 19.9675C31.1158 19.6905 31.3588 19.6195 31.6158 19.6645C32.0508 19.7385 32.3008 20.0445 32.4608 20.4515C32.0178 20.1095 31.5178 19.9585 30.9238 19.9675ZM31.0058 21.1975C30.8708 21.2195 30.7938 21.1885 30.7498 21.0115C30.7148 20.8735 30.5328 20.7735 30.3868 20.6265C30.3138 20.6145 30.1888 20.5955 30.0288 20.5705C30.8088 20.1955 31.6978 20.2685 32.1178 20.7365C31.7798 20.9785 31.4108 21.1305 31.0058 21.1975ZM30.8968 21.4835C31.6778 21.5235 31.9648 22.2015 31.5528 22.9815C31.5548 22.3985 31.2968 21.9245 30.8968 21.4835ZM30.9418 18.6435C30.8868 19.1135 30.8178 19.5715 30.5098 19.9205C30.1318 19.8855 29.7828 19.8115 29.5478 20.2355C29.5928 19.4455 30.3308 18.6145 30.9418 18.6435ZM31.1468 18.3445C30.5468 18.4095 30.1098 18.6945 29.7188 19.1435C29.6468 18.7905 29.7688 18.5655 29.9898 18.3875C30.2638 18.1675 30.7368 18.1445 31.1468 18.3445ZM31.6908 16.3575C31.4808 16.9535 31.0998 17.2305 30.5788 17.2275C30.1118 17.2245 29.5888 16.9805 29.1798 16.5445C30.0518 16.8365 30.8528 16.7855 31.6908 16.3575ZM32.6948 15.9865C32.7448 16.0215 32.7838 16.0485 32.8328 16.0835C32.8798 15.9965 32.9258 15.9115 32.9928 15.7875C33.0258 15.9055 33.0458 15.9775 33.0838 16.1085C33.1848 15.7995 33.2688 15.5445 33.3528 15.2905L33.4318 15.2975C33.4738 15.5705 33.4528 15.8485 33.4378 16.1255C33.4118 16.6155 33.3108 17.0875 33.0798 17.5235C32.9258 17.8155 32.7218 18.0645 32.3458 18.2335C32.1978 17.4825 31.9768 16.8055 32.2818 16.0595C32.3728 16.1465 32.4258 16.1945 32.4968 16.2615C32.5618 16.1705 32.6258 16.0815 32.6948 15.9865ZM31.8818 15.0205C31.7948 15.1325 31.7588 15.1785 31.6728 15.2885C32.0058 15.1715 32.2758 15.0765 32.5778 14.9695C31.9468 15.7885 30.2438 16.5185 29.5748 15.9705C30.0338 15.4125 30.4508 14.8435 31.2008 14.6155C31.2118 14.7005 31.2208 14.7355 31.2188 14.7695C31.2168 14.8065 31.2028 14.8435 31.1828 14.9325C31.4528 14.7805 31.5718 15.1145 31.8818 15.0205ZM29.9198 21.1665C30.7438 21.5335 31.2628 22.3145 31.1608 22.9745C30.7628 22.8295 30.4238 22.6635 30.1488 22.3925C30.0608 22.3055 29.8848 22.1915 30.1218 22.0635C30.1138 21.7755 30.2718 21.4675 29.9198 21.1665ZM35.4968 10.9645C35.3978 11.6785 35.3298 12.3835 34.7718 12.9555C34.7248 12.8905 34.6998 12.8645 34.6858 12.8345C34.6708 12.7985 34.6658 12.7585 34.6568 12.7215C34.6288 12.7245 34.6028 12.7225 34.5808 12.7305C34.4718 12.7675 34.3898 12.9925 34.2448 12.7765C34.1698 12.8275 34.0948 12.8785 34.0158 12.9325C33.9838 12.8805 33.9528 12.8325 33.9128 12.7665C33.7438 12.9625 33.5828 13.1485 33.3978 13.3635C33.5608 12.1895 34.5958 10.9995 35.4968 10.9645ZM34.4478 10.4635C34.8998 10.3185 35.3518 10.3545 35.8068 10.4905C35.4088 10.6395 34.9968 10.7405 34.6398 10.9405C34.2948 11.1355 34.0058 11.4325 33.6978 11.6795C33.5898 11.1695 33.9068 10.6375 34.4478 10.4635ZM44.4198 28.4195L45.1198 29.0855C45.1478 29.0715 45.1758 29.0575 45.2038 29.0445C45.2038 28.6905 45.2268 28.3345 45.2008 27.9825C45.0878 26.4905 44.2328 25.5465 42.7518 25.3305C42.2888 25.2625 42.0088 25.0255 41.8088 24.6505C41.6988 24.4425 41.5898 24.2205 41.5478 23.9925C41.4278 23.3335 41.2728 22.6695 41.2568 22.0055C41.2218 20.5575 41.2728 19.1075 41.2718 17.6585C41.2708 16.3945 41.2638 15.1295 41.2248 13.8665C41.2068 13.2985 41.0548 12.7465 40.7678 12.2455C40.3368 11.4905 39.6788 11.1665 38.8208 11.2445C38.5878 11.2655 38.3558 11.3125 38.1128 11.3485C38.0718 11.2925 38.0298 11.2425 37.9958 11.1875C37.6258 10.5855 37.0998 10.1585 36.4728 9.84949C35.7558 9.49549 34.9898 9.31449 34.2028 9.20849C33.1398 9.06549 32.0708 9.04449 31.0088 9.14249C29.5798 9.27449 28.1588 9.47849 26.7338 9.64749C26.3178 9.69649 25.9078 9.79349 25.4788 9.72049C24.8828 9.61949 24.3308 9.40949 23.8398 9.07049C23.4708 8.81549 23.0698 8.67749 22.6428 8.58849C22.4498 8.54849 22.2558 8.51049 22.0598 8.48249C21.6988 8.43149 21.3358 8.38749 20.9738 8.34049C22.9458 7.31249 24.0158 5.64949 24.5338 3.51949C24.3968 3.52749 24.3028 3.51849 24.2188 3.54149C23.5858 3.71749 22.9538 3.89849 22.3228 4.08149C21.7918 4.23449 21.2648 4.39849 20.7328 4.54449C20.3908 4.63749 20.0418 4.70849 19.6958 4.78849C19.6168 4.80649 19.5368 4.81849 19.3888 4.84549C19.5238 4.69349 19.6098 4.59649 19.6968 4.50049C20.0258 4.13449 20.3088 3.73949 20.4808 3.27549C20.6498 2.81649 20.6948 2.34349 20.5178 1.88249C20.1178 0.837488 19.3618 0.210488 18.2468 0.0364883C18.0608 0.00748828 17.8698 0.0134883 17.6108 0.000488281C17.7418 0.195488 17.8298 0.321488 17.9118 0.451488C18.3968 1.22649 18.3838 2.04649 17.8378 2.77749C17.6348 3.04849 17.3678 3.27149 17.1278 3.51549C16.9748 3.67149 16.8138 3.69049 16.5938 3.62449C16.0898 3.47249 15.5788 3.33449 15.0618 3.24649C13.1768 2.92849 11.3348 3.03749 9.57976 3.88049C9.46676 3.93549 9.32576 3.98349 9.20676 3.96849C8.47276 3.87249 7.74976 3.72749 7.08076 3.39549C5.99076 2.85549 5.79876 2.06449 6.51376 1.08549C6.61876 0.940488 6.73076 0.800488 6.87576 0.609488C6.65776 0.635488 6.50276 0.647488 6.34976 0.672488C5.71876 0.773488 5.12576 0.972488 4.58976 1.33349C3.50376 2.06349 3.10876 3.84149 4.36976 4.86649C4.68476 5.12349 5.03876 5.33149 5.37776 5.55849C5.48176 5.62749 5.59376 5.68449 5.70176 5.74649C5.69676 5.77749 5.69076 5.80749 5.68476 5.83749C4.72976 5.71149 3.77776 5.74149 2.82976 5.84849C1.87976 5.95449 0.935756 6.10049 -0.000244141 6.34949C0.0307559 6.44049 0.0417559 6.49249 0.0647559 6.53849C0.110756 6.63249 0.159756 6.72749 0.213756 6.81649C1.11476 8.29449 2.44276 9.08949 4.14876 9.27449C5.03576 9.37049 5.91476 9.29349 6.77576 9.07749C7.09076 8.99849 7.30776 9.12849 7.41676 9.37749C7.50076 9.56849 7.58576 9.76649 7.62676 9.97049C7.81976 10.9305 7.90676 11.9025 7.83976 12.8785C7.77376 13.8305 7.83776 14.7405 8.33776 15.5895C8.59476 16.0265 8.62076 16.5115 8.46676 17.0035C8.39576 17.2295 8.34276 17.4625 8.30776 17.6965C8.24576 18.1095 8.37776 18.4655 8.73476 18.6885C8.95276 18.8245 9.23176 18.8635 9.45176 18.9985C9.66876 19.1305 9.82176 19.3815 10.0468 19.4855C10.3648 19.6335 10.7168 19.7265 11.0638 19.7845C11.9758 19.9355 12.8978 19.9505 13.8218 19.9055C14.0528 19.8945 14.2858 19.9035 14.5378 19.9035C14.5378 20.0785 14.5458 20.2225 14.5368 20.3645C14.4248 22.1265 14.3298 23.8895 14.1868 25.6485C14.1248 26.4065 14.0068 27.1675 13.8328 27.9085C13.4968 29.3475 12.8018 30.6365 12.0418 31.8915C11.9688 32.0125 11.8948 32.1355 11.8178 32.2625C12.1128 32.6805 12.5388 32.8565 12.9828 32.9835C13.7108 33.1935 14.4598 33.2385 15.2138 33.2035C15.5068 33.1905 15.7878 33.1445 16.0478 32.9955C16.1208 32.9535 16.2118 32.9425 16.3248 32.9085C16.3168 33.0335 16.3108 33.1225 16.3048 33.2115C16.2828 33.4875 16.2488 33.7625 16.2418 34.0385C16.2298 34.4525 16.3158 34.5795 16.7228 34.6855C16.9878 34.7545 17.2648 34.7945 17.5398 34.8095C18.5698 34.8665 19.5918 34.7575 20.6138 34.6455C20.8278 34.6225 20.8938 34.5135 20.9268 34.3175C21.2288 32.5005 21.5618 30.6875 21.8388 28.8665C22.0188 27.6765 22.0788 26.4805 21.6198 25.3195C21.5558 25.1565 21.5578 24.9665 21.5308 24.7955C21.7978 24.6475 22.0418 24.5975 22.2918 24.6555C22.7018 24.7495 23.1108 24.8505 23.5118 24.9765C24.1398 25.1745 24.7538 25.4125 25.3838 25.6045C26.4018 25.9145 27.4408 26.0525 28.5048 25.8875C28.7448 25.8505 28.9878 25.8275 29.2788 25.7915C29.2138 25.9715 29.1718 26.0945 29.1258 26.2155C28.9358 26.7215 28.7338 27.2225 28.5578 27.7325C28.2318 28.6785 27.9058 29.6255 27.7948 30.6285C27.7278 31.2275 27.7978 31.3435 28.3678 31.5735C28.5378 31.6415 28.7168 31.7055 28.8968 31.7285C29.2608 31.7735 29.6288 31.7955 29.9958 31.8155C30.2268 31.8275 30.4588 31.8175 30.7628 31.8175C30.6518 31.9935 30.5848 32.1005 30.5158 32.2065C30.2468 32.6125 29.9718 33.0155 29.7108 33.4265C29.6128 33.5815 29.5468 33.7555 29.4698 33.9225C29.3798 34.1155 29.4298 34.2835 29.5748 34.4255C29.6598 34.5085 29.7458 34.5955 29.8468 34.6525C30.6728 35.1235 31.5408 35.4475 32.5138 35.3545C33.3098 35.2775 34.0578 35.0385 34.7648 34.6645C34.9168 34.5845 34.9858 34.4775 35.0318 34.3085C35.2008 33.6875 35.3568 33.0585 35.5878 32.4595C36.4518 30.2195 37.5148 28.0705 38.6368 25.9525C38.9848 25.2955 38.9678 24.7005 38.5618 24.0965C38.3858 23.8345 38.2118 23.5695 38.0428 23.3035C37.7658 22.8695 37.6248 22.3965 37.6458 21.8795C37.6608 21.4985 37.6488 21.1125 37.7008 20.7355C37.9488 18.9355 38.2138 17.1385 38.4748 15.3405C38.4878 15.2575 38.5308 15.1785 38.5878 15.0195C38.6748 15.2375 38.7488 15.3775 38.7868 15.5255C38.9048 15.9845 39.0308 16.4425 39.1138 16.9085C39.4488 18.7945 39.5288 20.7045 39.5668 22.6145C39.5798 23.2485 39.6918 23.8425 39.9508 24.4135C40.1298 24.8085 40.3108 25.2045 40.5198 25.5855C40.6578 25.8365 40.7128 26.0865 40.7158 26.3725C40.7288 27.4195 40.8688 28.4465 41.3168 29.4105C41.5418 29.8935 41.8278 30.3335 42.2388 30.6795C42.3718 30.7915 42.5328 30.8715 42.7348 31.0015C42.7398 30.3865 42.7788 29.8565 42.9168 29.2425C43.4068 30.2405 44.1868 30.7015 45.2208 30.9455C44.9138 30.0655 44.6318 29.2605 44.3508 28.4545C44.3738 28.4425 44.3968 28.4305 44.4198 28.4195Z" fill="#DA4B32"/>
</g>
</svg>