<svg width="50" height="50" viewBox="0 0 50 50" fill="none" xmlns="http://www.w3.org/2000/svg">
<rect width="50" height="50" rx="4" fill="#FF8A99"/>
<path fill-rule="evenodd" clip-rule="evenodd" d="M13.353 42.4242H36.6548C38.1649 42.4242 39.3938 41.2451 39.3938 39.7963V10.2036C39.3938 8.75477 38.1569 7.57568 36.6468 7.57568H13.353C11.8349 7.57568 10.606 8.75477 10.606 10.2036V39.7886C10.606 41.2451 11.8429 42.4242 13.353 42.4242ZM11.9794 10.2038C11.9794 9.47935 12.5979 8.88596 13.3529 8.88596H36.6467C37.4017 8.88596 38.0202 9.47935 38.0202 10.2038V39.7965C38.0202 40.5209 37.4017 41.1143 36.6467 41.1143H13.3529C12.5979 41.1143 11.9794 40.5209 11.9794 39.7965V10.2038Z" fill="white"/>
<path fill-rule="evenodd" clip-rule="evenodd" d="M36.4494 15.9091C36.078 15.9091 35.7777 15.6464 35.7777 15.3214V11.7815H31.7322C31.3608 11.7815 31.0605 11.5187 31.0605 11.1938C31.0605 10.8688 31.3608 10.6061 31.7322 10.6061H36.4494C36.8207 10.6061 37.121 10.8688 37.121 11.1938V15.3214C37.1289 15.6464 36.8207 15.9091 36.4494 15.9091Z" fill="white"/>
<path fill-rule="evenodd" clip-rule="evenodd" d="M16.5886 30.303H34.1732C34.419 30.303 34.6409 30.1779 34.7519 29.9745C34.8788 29.7711 34.8788 29.5129 34.7599 29.3095L25.9676 13.9532C25.7218 13.5307 25.0241 13.5307 24.7863 13.9532L15.994 29.3095C15.8751 29.5129 15.883 29.7711 16.0019 29.9745C16.1288 30.1779 16.3508 30.303 16.5886 30.303ZM33.0161 28.9732H17.7466L25.3814 15.643L33.0161 28.9732Z" fill="white"/>
<path fill-rule="evenodd" clip-rule="evenodd" d="M24.7897 36.7853C24.9085 36.9884 25.1303 37.1213 25.3759 37.1213C25.6214 37.1213 25.8432 36.9962 25.9621 36.7853L34.7628 21.4469C34.8817 21.2438 34.8737 20.9859 34.7549 20.7828C34.6282 20.5796 34.4064 20.4546 34.1687 20.4546H16.591C16.3454 20.4546 16.1236 20.5796 16.0048 20.7828C15.878 20.9859 15.878 21.2438 15.9968 21.4469L24.7897 36.7853ZM25.3762 35.1052L17.7478 21.7906H33.0046L25.3762 35.1052Z" fill="white"/>
<path fill-rule="evenodd" clip-rule="evenodd" d="M18.2679 39.3939H13.5506C13.1792 39.3939 12.8789 39.1311 12.8789 38.8062V34.6785C12.8789 34.3536 13.1792 34.0908 13.5506 34.0908C13.9219 34.0908 14.2222 34.3536 14.2222 34.6785V38.2185H18.2679C18.6392 38.2185 18.9395 38.4812 18.9395 38.8062C18.9395 39.1311 18.6392 39.3939 18.2679 39.3939Z" fill="white"/>
</svg>