<svg width="38" height="35" viewBox="0 0 38 35" fill="none" xmlns="http://www.w3.org/2000/svg">
<mask id="mask0" mask-type="alpha" maskUnits="userSpaceOnUse" x="0" y="0" width="38" height="35">
<path fill-rule="evenodd" clip-rule="evenodd" d="M0 0.00012207H37.393V34.5341H0V0.00012207Z" fill="white"/>
</mask>
<g mask="url(#mask0)">
<path fill-rule="evenodd" clip-rule="evenodd" d="M35.1035 31.1941C34.9175 30.6031 34.9035 30.5881 34.2525 30.2391C34.3105 30.0131 34.5165 30.0441 34.6655 30.0331C34.7995 30.0221 34.9565 30.0171 35.0215 30.2351C35.0625 30.3711 35.2425 30.4651 35.3645 30.5841C35.3115 30.7951 35.3675 31.0371 35.1035 31.1941ZM31.2125 32.1171C31.2925 32.1671 31.3425 32.1991 31.3935 32.2311C31.2775 32.3471 31.2765 32.5161 31.1705 32.6261C31.0315 32.7681 30.9175 32.9771 30.6515 32.8461C30.7155 32.6001 30.8095 32.3551 30.8355 32.1041C30.8605 31.8631 30.8155 31.6151 30.7985 31.3241C31.0555 31.2361 31.2455 31.3301 31.3955 31.5531C31.3705 31.6071 31.3435 31.6641 31.3165 31.7211C31.3785 31.7471 31.4365 31.7711 31.5105 31.8011C31.4375 31.8341 31.3805 31.8601 31.3155 31.8881C31.3765 31.9391 31.4345 31.9871 31.5125 32.0521C31.4175 32.0721 31.3455 32.0891 31.2125 32.1171ZM27.7875 31.2671C27.7075 31.5241 27.5955 31.6161 27.3665 31.5871C27.4005 31.6811 27.4205 31.7391 27.4595 31.8461C27.3565 31.8011 27.3015 31.7771 27.2135 31.7381C27.2285 31.8131 27.2385 31.8691 27.2525 31.9401C26.9825 31.9221 26.7105 32.1091 26.4105 31.8781C26.5915 31.6941 26.7795 31.5241 26.9425 31.3331C27.1115 31.1361 27.2565 30.9191 27.4135 30.7091C27.7665 30.8701 27.8655 31.0151 27.7875 31.2671ZM25.4175 29.0101C24.9855 29.4541 24.5535 29.8951 24.1175 30.3341C24.0815 30.3711 24.0225 30.3861 23.9715 30.4081C23.9685 30.4131 23.9655 30.4171 23.9625 30.4221C23.9555 30.4271 23.9485 30.4331 23.9415 30.4391C23.9055 30.5101 23.8695 30.5811 23.8325 30.6511C23.8085 30.6331 23.7855 30.6151 23.7615 30.5971C23.8215 30.5451 23.8815 30.4921 23.9415 30.4391C23.9465 30.4311 23.9505 30.4231 23.9555 30.4151C23.9595 30.4121 23.9655 30.4101 23.9715 30.4081C24.0285 30.3221 24.0835 30.2331 24.1405 30.1461C24.1995 30.0541 24.2615 29.9641 24.3305 29.8811C24.6485 29.4961 24.9895 29.1311 25.5105 28.8211C25.4535 28.9401 25.4435 28.9831 25.4175 29.0101ZM24.8305 31.9211C24.8475 31.8911 24.8635 31.8621 24.8805 31.8341C25.0315 31.9031 25.1825 31.9721 25.3335 32.0421C25.0995 32.1581 24.9575 32.0551 24.8305 31.9211ZM24.3035 31.9761C24.5825 32.0251 24.5825 32.0251 24.7355 32.3251C24.4965 32.3111 24.4345 32.1321 24.3035 31.9761ZM24.1135 32.4841C23.9695 32.3681 23.9135 32.2211 23.9955 31.9311C24.0905 32.1551 24.1505 32.2981 24.2105 32.4391C24.1785 32.4551 24.1465 32.4691 24.1135 32.4841ZM23.5825 32.4791C23.4095 32.2861 23.4715 32.1311 23.5685 31.9831C23.5975 31.9881 23.6265 31.9921 23.6565 31.9971C23.6315 32.1581 23.6065 32.3181 23.5825 32.4791ZM23.2205 27.3341C23.1545 27.4141 23.0855 27.4951 23.0385 27.5851C22.8885 27.8691 22.7865 27.9411 22.4835 27.8681C22.2065 27.8001 21.9405 27.6911 21.6645 27.5991C21.8095 27.2981 21.7935 27.2481 21.5395 27.1151C21.6965 26.8271 21.9365 26.6311 22.2285 26.4981C22.4055 26.4171 22.5705 26.4091 22.7315 26.5691C22.8285 26.6651 22.9755 26.7101 23.1015 26.7741C23.3785 26.9161 23.4155 27.0961 23.2205 27.3341ZM22.7175 32.3301C22.7825 32.0501 22.8335 32.0121 23.1945 31.9831C23.0865 32.1811 22.9585 32.3231 22.7175 32.3301ZM22.3275 28.9611C22.2835 29.0821 22.2815 29.2171 22.2525 29.3441C22.1855 29.6331 22.0335 29.7091 21.7675 29.5951C21.6615 29.5501 21.5525 29.5051 21.4395 29.4801C21.1715 29.4211 21.0685 29.3531 21.0515 29.0751C21.0325 28.7671 21.0705 28.4571 21.0825 28.1471C21.2285 28.3291 21.3275 28.1961 21.3915 28.1411C21.4515 28.0911 21.4735 27.9951 21.5375 27.8701C21.7495 28.0061 21.9825 28.1241 22.1785 28.2871C22.4475 28.5111 22.4505 28.6231 22.3275 28.9611ZM20.9165 26.6821C20.8825 26.7571 20.8565 26.8151 20.8315 26.8701C20.7895 26.8601 20.7555 26.8631 20.7435 26.8481C20.5325 26.6031 20.3895 26.3261 20.3715 25.9991C20.3665 25.9091 20.3595 25.7871 20.4105 25.7331C20.6045 25.5271 20.8095 25.3261 21.0355 25.1561C21.1645 25.0591 21.3085 25.1191 21.4085 25.2581C21.4915 25.3751 21.5705 25.5011 21.6795 25.5861C21.8615 25.7271 21.8805 25.9031 21.7905 26.0761C21.6475 26.3521 21.4695 26.6121 21.3145 26.8651C21.1325 26.7811 21.0225 26.7311 20.9165 26.6821ZM20.5115 28.9231C20.3885 29.1291 20.2405 29.2651 19.9625 29.1741C19.8485 29.1361 19.7055 29.1861 19.5755 29.1961C19.2655 29.2171 19.1515 29.0901 19.1935 28.7741C19.2065 28.6721 19.2135 28.5661 19.2105 28.4631C19.2005 28.1491 19.2355 28.0581 19.5255 27.9571C19.7805 27.8671 20.0525 27.8221 20.3175 27.7571C20.3105 27.7871 20.3035 27.8151 20.2955 27.8431C20.4265 27.9541 20.5565 28.0641 20.7345 28.2151C20.7565 28.4321 20.6565 28.6841 20.5115 28.9231ZM19.1495 27.2151C19.1895 26.8891 18.8435 26.6341 18.9885 26.3091C19.0215 26.2341 19.1465 26.1861 19.2385 26.1561C19.3485 26.1201 19.4735 26.1311 19.5835 26.0951C19.8925 25.9961 19.9995 26.0071 20.1825 26.2751C20.3365 26.5011 20.4505 26.7531 20.5985 27.0221C20.2775 27.1751 20.2775 27.1751 20.3335 27.4921C20.0825 27.4921 19.8365 27.4981 19.5905 27.4891C19.5155 27.4861 19.4325 27.4561 19.3685 27.4141C19.2835 27.3591 19.1425 27.2731 19.1495 27.2151ZM17.9925 24.5741C17.1245 24.3851 16.4775 23.9221 16.1665 23.0581C16.1495 23.0081 16.1355 22.9581 16.1275 22.9061C16.1235 22.8821 16.1375 22.8571 16.1615 22.7521C16.2855 22.9711 16.3825 23.1421 16.5025 23.3541C16.5495 23.2071 16.5825 23.1001 16.6365 22.9321C16.7495 23.1631 16.8425 23.3511 16.9665 23.6051C16.9845 23.4281 16.9945 23.3241 17.0145 23.1311C17.1465 23.4091 17.2405 23.6071 17.3685 23.8771C17.4015 23.6701 17.4235 23.5301 17.4455 23.3911L17.5155 23.3771C17.5715 23.5801 17.6265 23.7831 17.7105 24.0871C17.8165 23.7841 17.8935 23.5631 18.0035 23.2511C18.0885 23.5841 18.1505 23.8291 18.2335 24.1521C18.3085 23.8391 18.3655 23.6031 18.4215 23.3691C18.4405 23.3701 18.4605 23.3711 18.4805 23.3721C18.5725 23.6271 18.6655 23.8811 18.7865 24.2141C18.8435 23.8751 18.8855 23.6241 18.9275 23.3731C18.9525 23.3681 18.9765 23.3631 19.0005 23.3581C19.1135 23.5981 19.2255 23.8401 19.3385 24.0811C19.3625 24.0791 19.3865 24.0771 19.4105 24.0751C19.4275 23.8221 19.4445 23.5691 19.4645 23.2671C19.7185 23.4531 19.7355 23.7501 19.9525 23.9491V23.2231C19.9715 23.2111 19.9905 23.1991 20.0095 23.1871C20.1705 23.4131 20.3325 23.6391 20.5265 23.9101C20.6365 23.6151 20.5165 23.3541 20.5845 23.0801C20.7875 23.1981 20.7595 23.4501 20.9365 23.6151V22.9991C20.9625 22.9891 20.9895 22.9791 21.0175 22.9691C21.1065 23.1431 21.1965 23.3171 21.3275 23.5681V22.7941C21.3565 22.7831 21.3865 22.7721 21.4155 22.7621C21.4925 22.9091 21.5695 23.0561 21.6905 23.2901C21.7145 23.0021 21.7305 22.8031 21.7465 22.6051L21.8095 22.6021C21.8725 22.7121 21.9345 22.8211 22.0395 23.0061V22.4171C22.1185 22.4421 22.1685 22.4591 22.2405 22.4811C22.2885 22.3681 22.3365 22.2521 22.3855 22.1351C22.5235 22.4091 22.5025 22.6841 22.4255 22.9551C22.2925 23.4211 21.9915 23.7601 21.5885 24.0161C21.1595 24.2891 20.6845 24.4381 20.1895 24.5341C19.4595 24.6741 18.7265 24.7341 17.9925 24.5741ZM16.4045 31.9461C16.7055 31.9761 16.8805 32.0601 16.9935 32.3281C16.6865 32.3351 16.5735 32.1681 16.4045 31.9461ZM14.3595 28.7631L14.4125 28.6961C15.2605 29.2621 16.0955 29.8471 16.7555 30.6371C16.7335 30.6641 16.7105 30.6911 16.6885 30.7171C15.9125 30.0661 15.1355 29.4151 14.3595 28.7631ZM16.1215 31.9781C16.1545 32.1581 16.1825 32.3031 16.2215 32.5151C15.9725 32.2801 15.9655 32.2341 16.1215 31.9781ZM15.5735 32.4821C15.4365 32.2591 15.5545 32.1261 15.6445 31.9831C15.6795 31.9981 15.7145 32.0131 15.7495 32.0291C15.6915 32.1801 15.6325 32.3321 15.5735 32.4821ZM14.9505 32.3161C14.9295 32.2971 14.9095 32.2781 14.8895 32.2591C15.0015 32.1461 15.1135 32.0321 15.2585 31.8851C15.2305 32.1841 15.2305 32.1841 14.9505 32.3161ZM14.3205 32.0371C14.4705 31.9701 14.6205 31.9041 14.7705 31.8381C14.7855 31.8671 14.7995 31.8951 14.8135 31.9241C14.6855 32.0521 14.5515 32.1641 14.3205 32.0371ZM14.5045 23.0251C14.5525 22.9471 14.5955 22.8751 14.6575 22.7731H14.1955C14.2815 22.6711 14.3295 22.6121 14.4005 22.5271C14.2755 22.5151 14.1695 22.5051 14.0035 22.4891C14.1335 22.3851 14.2195 22.3181 14.3425 22.2191C14.1645 22.2101 14.0395 22.2031 13.8475 22.1931C13.9755 22.0921 14.0525 22.0321 14.1625 21.9451H13.7935C13.9365 21.8251 14.0285 21.7471 14.1525 21.6431C14.0355 21.6341 13.9415 21.6291 13.8055 21.6181C13.8855 21.5251 13.9465 21.4531 14.0145 21.3741C13.9775 21.3481 13.9385 21.3221 13.8995 21.2961C13.9055 21.2731 13.9065 21.2471 13.9175 21.2271C13.9825 21.1181 14.1455 21.0721 14.0715 20.8711C14.0475 20.8051 14.2295 20.6641 14.3475 20.5201C14.4775 21.0651 14.5455 21.5721 14.7255 22.0351C14.9025 22.4921 15.1925 22.9061 15.4515 23.3701C15.0895 23.4241 14.8525 23.0981 14.5045 23.0251ZM15.2975 10.6271C15.7875 10.6881 16.1205 10.9001 16.4865 11.1501C16.2285 11.5521 15.9365 11.8341 15.4765 12.0581C15.6185 11.5351 15.6275 11.0901 15.2975 10.6271ZM13.2945 11.5371C13.5295 11.1991 13.8225 10.9601 14.1585 10.7931V12.0541C13.8305 11.9691 13.5595 11.7881 13.2945 11.5371ZM13.9815 12.4051C14.5915 12.5881 15.1825 12.5971 15.7485 12.2921C16.2485 12.0211 16.6195 11.6221 16.9085 11.0871C16.3645 10.6171 15.7735 10.2861 15.0415 10.2631C14.2915 10.2401 13.7115 10.6091 13.1955 11.1091C12.8015 10.5091 12.8735 9.90512 13.3925 9.43812C13.8485 9.02712 14.4135 8.82912 15.0045 8.75612C15.4025 8.70712 15.8285 8.71012 16.2185 8.79612C17.4115 9.05512 18.0075 10.1261 18.0955 11.0321C18.1125 11.2151 18.0565 11.4381 17.9555 11.5901C17.3295 12.5461 16.4745 13.1141 15.2875 13.0391C14.7785 13.0071 14.3425 12.7891 13.9815 12.4051ZM16.3885 20.3721C16.4905 20.4831 16.5585 20.5591 16.6505 20.6601C16.6815 20.6161 16.7095 20.5751 16.7555 20.5081C16.8235 20.6451 16.8835 20.7691 16.9695 20.9451C16.9965 20.7891 17.0155 20.6761 17.0495 20.4681C17.1655 20.7321 17.2475 20.9191 17.3675 21.1931C17.3845 20.9491 17.3955 20.7931 17.4055 20.6361C17.4255 20.6301 17.4455 20.6241 17.4655 20.6171C17.5545 20.8401 17.6425 21.0631 17.7295 21.2871C17.7455 21.2841 17.7605 21.2821 17.7765 21.2791C17.7855 21.0901 17.7945 20.9021 17.8065 20.6791C18.0225 20.8391 17.9595 21.1091 18.1425 21.3041C18.1565 21.0851 18.1675 20.9001 18.1795 20.7151C18.1995 20.7111 18.2185 20.7071 18.2385 20.7021C18.3235 20.9241 18.4095 21.1471 18.5295 21.4601C18.6065 21.1121 18.6665 20.8481 18.7255 20.5851H18.7905C18.8595 20.7751 18.9295 20.9651 18.9995 21.1551C19.0205 21.1581 19.0425 21.1601 19.0645 21.1621C19.0925 20.9471 19.1215 20.7311 19.1495 20.5161C19.1695 20.5111 19.1895 20.5061 19.2095 20.5011C19.3185 20.7131 19.4275 20.9231 19.5355 21.1341C19.5545 21.1311 19.5725 21.1271 19.5905 21.1221V20.3461C19.8525 20.4971 19.8455 20.7791 20.0585 20.9471V20.2251C20.0775 20.2191 20.0975 20.2151 20.1165 20.2091L20.4595 20.7451C20.4745 20.7391 20.4885 20.7331 20.5025 20.7271C20.4705 20.4991 20.4385 20.2691 20.4075 20.0411C20.4235 20.0321 20.4395 20.0231 20.4565 20.0141C20.5985 20.1911 20.7415 20.3671 20.9265 20.5951C20.8915 20.3051 20.8645 20.0881 20.8375 19.8691C20.8525 19.8621 20.8675 19.8541 20.8825 19.8471C20.9465 19.9611 21.0105 20.0731 21.1125 20.2541C21.1415 19.9971 21.1635 19.7981 21.1855 19.5981C21.2025 19.5971 21.2195 19.5971 21.2365 19.5961C21.2675 19.6731 21.2985 19.7481 21.3305 19.8241C21.3445 19.8231 21.3595 19.8211 21.3745 19.8201C21.3865 19.6341 21.3985 19.4481 21.4155 19.1971C21.5145 19.3131 21.5675 19.3761 21.6495 19.4711C21.6865 19.2581 21.7155 19.0851 21.7505 18.8811C21.8805 19.2471 21.8645 19.6521 21.7165 20.0671C21.5515 20.5281 21.2675 20.9041 20.8595 21.1711C19.9595 21.7591 18.9705 22.0281 17.8965 21.8891C17.1545 21.7931 16.6525 21.3631 16.3945 20.6571C16.3765 20.6081 16.3675 20.5551 16.3605 20.5041C16.3575 20.4791 16.3705 20.4541 16.3885 20.3721ZM16.5965 18.0171C16.7955 18.0071 16.9565 17.9991 17.1735 17.9881C17.0455 17.9151 16.9615 17.8661 16.8595 17.8071C16.8985 17.7861 16.9285 17.7561 16.9575 17.7551C17.1815 17.7511 17.4055 17.7531 17.6495 17.6911C17.4795 17.6311 17.3095 17.5721 17.0595 17.4841C17.4025 17.3431 17.7015 17.3941 17.9915 17.2951C17.7665 17.2201 17.5405 17.1461 17.3145 17.0721L17.3205 17.0021C17.6475 16.9681 17.9745 16.9341 18.3015 16.9011C18.3015 16.8831 18.3025 16.8661 18.3025 16.8491C17.9925 16.7741 17.6815 16.6991 17.2965 16.6061C17.6525 16.3961 18.0065 16.4401 18.3565 16.2801C17.9845 16.2281 17.6665 16.1841 17.3475 16.1401C17.3455 16.1151 17.3435 16.0901 17.3415 16.0651C17.5605 16.0151 17.7795 15.9651 17.9985 15.9161L18.0025 15.8661C17.7545 15.8341 17.5065 15.8021 17.2585 15.7701C17.2545 15.7531 17.2505 15.7341 17.2465 15.7151C17.4245 15.6561 17.6035 15.5951 17.7815 15.5351C17.7815 15.5171 17.7815 15.4991 17.7825 15.4811H17.1695C17.1675 15.4571 17.1645 15.4321 17.1625 15.4081C17.3255 15.3431 17.4885 15.2781 17.6525 15.2131C17.6525 15.1941 17.6525 15.1751 17.6525 15.1561H16.9535C16.9485 15.1321 16.9445 15.1081 16.9405 15.0841C17.0445 15.0211 17.1485 14.9581 17.2965 14.8691H16.7575C16.8295 14.7551 16.8765 14.6791 16.9435 14.5731C16.7845 14.5581 16.6475 14.5471 16.4885 14.5321C16.6965 14.3931 16.6985 14.3791 16.8665 14.4031C17.1125 14.4381 17.3665 14.4661 17.5985 14.5491C18.3085 14.8011 18.8645 15.2371 18.9745 16.0291C19.0895 16.8661 18.8325 17.5921 18.1465 18.1291C17.6755 18.4971 17.1175 18.6561 16.5355 18.7121C16.1635 18.7481 15.7855 18.7181 15.4055 18.6871C15.9165 18.6551 16.2715 18.1691 16.8805 18.2451C16.7645 18.1521 16.7015 18.1021 16.5965 18.0171ZM12.7365 7.07212V7.85312C12.7145 7.86512 12.6915 7.87812 12.6695 7.88912C12.5505 7.72112 12.4315 7.55312 12.3125 7.38512C12.2935 7.39412 12.2745 7.40312 12.2555 7.41112C12.2835 7.64812 12.3115 7.88512 12.3435 8.15512C11.7155 7.68412 11.6765 7.00712 12.2495 6.57912C12.5615 6.34512 12.9135 6.13812 13.2785 6.00312C14.7865 5.43912 16.3515 5.25412 17.9395 5.51412C19.1935 5.72012 20.2755 6.31812 21.1665 7.23212C22.9895 9.10212 22.6825 11.5211 21.1075 13.1371C20.6035 13.6551 19.9935 14.0141 19.3145 14.2611C19.0675 14.3521 18.8425 14.3681 18.5935 14.2551C18.2775 14.1111 17.9455 14.0041 17.6395 13.8161C17.8125 13.8511 17.9855 13.8861 18.2445 13.9391C18.0685 13.7781 17.9575 13.6751 17.8455 13.5731C17.8535 13.5571 17.8625 13.5411 17.8715 13.5241C18.0845 13.5991 18.2975 13.6741 18.5845 13.7751C18.4495 13.5811 18.3565 13.4481 18.2645 13.3151C18.2745 13.2941 18.2845 13.2731 18.2945 13.2531C18.3895 13.2931 18.4835 13.3341 18.5775 13.3741C18.6695 13.4141 18.7615 13.4541 18.9015 13.4481C18.8055 13.2881 18.7095 13.1281 18.6145 12.9661C18.6245 12.9471 18.6345 12.9271 18.6445 12.9081C18.8915 13.0201 19.1375 13.1331 19.3835 13.2461C19.3925 13.2311 19.4015 13.2171 19.4115 13.2031C19.2765 13.0201 19.1425 12.8381 19.0075 12.6551L19.0485 12.5991C19.2835 12.7031 19.5195 12.8071 19.7985 12.9301C19.7485 12.6471 19.5035 12.5081 19.4355 12.2521C19.6785 12.2301 19.8615 12.4271 20.1265 12.4381C19.9975 12.2401 19.8875 12.0701 19.7315 11.8311C20.0805 11.9091 20.3545 11.9691 20.6295 12.0311C20.6395 12.0151 20.6485 12.0011 20.6585 11.9851C20.4835 11.8251 20.3085 11.6651 20.1345 11.5051C20.1435 11.4821 20.1525 11.4611 20.1625 11.4381C20.4305 11.4621 20.6985 11.4851 20.9675 11.5081L20.9955 11.4531C20.8145 11.3621 20.6355 11.2721 20.4555 11.1811C20.4585 11.1551 20.4615 11.1291 20.4655 11.1021C20.6645 11.0921 20.8635 11.0831 21.0625 11.0721C21.0675 11.0551 21.0725 11.0381 21.0775 11.0211C20.9105 10.9481 20.7445 10.8751 20.5775 10.8011C20.5785 10.7811 20.5785 10.7601 20.5795 10.7411C20.8675 10.6981 21.1545 10.6561 21.4425 10.6131C21.4485 10.5951 21.4545 10.5771 21.4595 10.5591C21.2055 10.4781 20.9505 10.3981 20.6005 10.2871C20.9105 10.1401 21.1475 10.0281 21.3855 9.91612C21.3865 9.89812 21.3875 9.88012 21.3895 9.86212C21.1815 9.84812 20.9745 9.83512 20.6985 9.81612C20.9245 9.50912 21.2435 9.38612 21.5135 9.07412C21.1845 9.15712 20.9355 9.21912 20.6855 9.28212C20.6695 9.26012 20.6545 9.24012 20.6385 9.21912C20.8085 9.03212 20.9775 8.84412 21.1475 8.65712C21.1385 8.63812 21.1285 8.61912 21.1195 8.59912C20.9075 8.67512 20.6965 8.75212 20.4235 8.85012C20.4915 8.56012 20.6745 8.38212 20.7845 8.09412C20.5895 8.22812 20.4415 8.33012 20.2935 8.43212C20.2755 8.42012 20.2565 8.40812 20.2385 8.39612C20.3445 8.17912 20.4495 7.96312 20.5545 7.74612C20.5425 7.73412 20.5305 7.72312 20.5185 7.71212C20.3435 7.84712 20.1685 7.98212 19.9945 8.11712C19.9775 8.10212 19.9605 8.08912 19.9445 8.07412C20.0565 7.81912 20.1695 7.56412 20.2825 7.30812C20.2655 7.29612 20.2495 7.28312 20.2325 7.27012C20.0085 7.44412 19.7855 7.61712 19.5115 7.82912C19.5065 7.52512 19.6965 7.33812 19.7545 7.03512C19.5285 7.25512 19.3575 7.42212 19.1865 7.58912C19.1665 7.57812 19.1475 7.56712 19.1285 7.55712C19.1995 7.29812 19.2705 7.03812 19.3405 6.77812C19.3215 6.76612 19.3035 6.75512 19.2845 6.74212C19.1035 6.94112 18.9225 7.13912 18.6985 7.38612C18.6085 7.05112 18.8205 6.84312 18.7945 6.54212C18.5905 6.78912 18.4175 7.00012 18.1965 7.26812V6.21212C18.0495 6.55412 17.9325 6.82812 17.8155 7.10012C17.7905 7.09912 17.7655 7.09812 17.7405 7.09712C17.7005 6.79712 17.6605 6.49712 17.6075 6.10112C17.4715 6.44012 17.3675 6.69812 17.2645 6.95612C17.2395 6.95312 17.2145 6.95112 17.1895 6.94912C17.1455 6.70112 17.1005 6.45212 17.0395 6.11112C16.9225 6.46612 16.8325 6.74312 16.7415 7.01912C16.7205 7.02012 16.7005 7.02012 16.6795 7.02112C16.5985 6.76212 16.5185 6.50412 16.4375 6.24612C16.4185 6.24412 16.3995 6.24312 16.3795 6.24212C16.3425 6.47412 16.3045 6.70812 16.2605 6.97612C16.0125 6.77412 16.0755 6.43712 15.8595 6.20712C15.8175 6.49712 15.7805 6.75212 15.7445 7.00612C15.7215 7.01312 15.6985 7.02112 15.6755 7.03012C15.5605 6.78612 15.4435 6.54212 15.2895 6.21612C15.2345 6.56112 15.1935 6.81512 15.1495 7.09112C14.9735 7.01512 15.0245 6.85712 14.9825 6.74712C14.9405 6.63912 14.9215 6.52212 14.8235 6.40212C14.7745 6.68112 14.7265 6.96212 14.6685 7.28812C14.4565 7.09012 14.4835 6.82112 14.2975 6.59012C14.2795 6.87112 14.2655 7.10212 14.2505 7.33512C14.2255 7.34012 14.2015 7.34312 14.1765 7.34812C14.0445 7.09912 13.9125 6.85012 13.7805 6.60112C13.7605 6.60212 13.7415 6.60412 13.7215 6.60512V7.56112C13.4585 7.29112 13.4535 6.99612 13.2495 6.72112C13.1875 7.08112 13.1365 7.38512 13.0835 7.69012C13.0585 7.69112 13.0325 7.69112 13.0065 7.69212C12.9345 7.48112 12.8625 7.27012 12.7905 7.05912C12.7725 7.06412 12.7545 7.06812 12.7365 7.07212ZM22.7925 17.7061C23.6315 17.8591 24.4665 17.8681 25.3035 17.6931C27.0995 17.3181 28.1925 16.2011 28.5335 14.3941C28.6405 13.8331 28.6535 13.2731 28.5205 12.6421C28.6395 12.7231 28.7045 12.7681 28.7705 12.8121C29.0435 12.9921 29.3025 13.2051 29.5975 13.3401C29.8195 13.4421 29.9145 13.5901 29.9805 13.7981C30.1905 14.4671 30.1905 15.1501 30.1015 15.8341C29.9525 16.9791 29.5615 18.0521 29.1045 19.1081C28.9705 19.4201 28.7715 19.5351 28.4645 19.4911C27.8665 19.4051 27.2635 19.3351 26.6735 19.2041C25.2195 18.8811 23.8135 18.3951 22.4155 17.8861C22.3565 17.8651 22.3005 17.8351 22.2065 17.7921C22.4135 17.5481 22.6155 17.6731 22.7925 17.7061ZM24.5105 13.1161C24.9155 12.7541 25.3565 12.4441 25.8765 12.2671C26.5945 12.0241 27.0585 12.2451 27.2895 12.9641C27.5075 13.6421 27.4275 14.2951 27.0085 14.8821C26.5405 15.5371 25.8585 15.8491 25.0765 15.9931C25.1425 15.9451 25.2075 15.8981 25.2855 15.8421C25.2425 15.8141 25.2045 15.7901 25.1475 15.7541C25.2575 15.7021 25.3585 15.6541 25.4995 15.5881C25.3675 15.5671 25.2835 15.5531 25.1295 15.5301C25.3755 15.4001 25.5625 15.3011 25.8325 15.1601H25.2315C25.2215 15.1391 25.2125 15.1201 25.2025 15.0991C25.3605 15.0061 25.5175 14.9121 25.7395 14.7791C25.5315 14.8101 25.3925 14.8311 25.2525 14.8511C25.2425 14.8311 25.2335 14.8101 25.2245 14.7901L26.0765 14.1891C26.0635 14.1751 26.0515 14.1621 26.0395 14.1481C25.7675 14.2281 25.4955 14.3071 25.2245 14.3871C25.2135 14.3651 25.2045 14.3431 25.1935 14.3221C25.3535 14.1961 25.5125 14.0691 25.6725 13.9431L25.6455 13.8841L25.0165 14.1221C25.0045 14.1021 24.9935 14.0821 24.9825 14.0621C25.2555 13.8501 25.5285 13.6371 25.8015 13.4251C25.7915 13.4081 25.7815 13.3901 25.7715 13.3741C25.4925 13.4671 25.2135 13.5611 24.8975 13.6681C25.0715 13.5021 25.2155 13.3661 25.3585 13.2291C25.3355 13.1951 25.3125 13.1621 25.2895 13.1291C24.9675 13.2631 24.6455 13.3991 24.2875 13.5501C24.2855 13.3241 24.4015 13.2131 24.5105 13.1161ZM27.2225 10.2321C27.5305 10.7191 27.7525 11.1461 27.8915 11.6301C27.6385 11.4791 27.3865 11.3291 27.1305 11.1771C27.1585 10.8921 27.1855 10.6121 27.2225 10.2321ZM30.3155 19.0451C30.3275 19.0471 30.3255 19.1561 30.3305 19.2251C30.4025 19.2011 30.4735 19.1761 30.5555 19.1471V19.3111C30.6175 19.3021 30.6765 19.2941 30.7655 19.2801C30.7465 19.3631 30.7295 19.4341 30.7055 19.5411C30.7725 19.5261 30.8255 19.5141 30.9165 19.4951C30.9055 19.5751 30.8965 19.6431 30.8845 19.7421C30.9465 19.7231 31.0005 19.7081 31.0905 19.6801C31.0585 19.8011 31.0305 19.9051 31.0005 20.0171C31.0695 20.0131 31.1285 20.0101 31.1885 20.0071C31.2615 20.4251 31.2535 20.5751 31.1165 20.8681C30.8085 20.0081 30.2375 19.4481 29.3875 19.1431C29.5345 18.9161 29.6995 18.9721 29.8745 19.0091C30.0185 19.0391 30.1695 19.0251 30.3155 19.0451ZM27.6565 20.7911C27.5835 20.8591 27.5255 20.9131 27.4575 20.9771C27.5215 20.9991 27.5865 21.0211 27.7015 21.0591C27.5745 21.1381 27.4735 21.2031 27.3465 21.2821C27.4085 21.3281 27.4635 21.3701 27.5285 21.4201C27.3735 21.6731 27.2395 21.9401 26.8795 22.1361C27.2195 21.1551 27.1025 20.2881 26.5765 19.4441C26.8625 19.4201 26.9535 19.6171 27.0865 19.6761C27.2665 19.7561 27.2555 20.0001 27.4835 20.0061C27.4155 20.0661 27.3615 20.1141 27.2785 20.1871C27.3905 20.2081 27.4815 20.2251 27.6205 20.2521C27.5285 20.3191 27.4695 20.3631 27.3765 20.4301C27.4925 20.4491 27.5835 20.4641 27.7245 20.4851C27.5885 20.5761 27.4935 20.6381 27.3605 20.7271C27.4645 20.7501 27.5405 20.7661 27.6565 20.7911ZM24.1715 20.2981C24.0115 20.4121 23.9065 20.4861 23.7625 20.5891C23.8955 20.6171 23.9985 20.6381 24.2025 20.6811C23.9615 20.8031 23.8045 20.8821 23.6035 20.9851C23.7485 21.0431 23.8515 21.0841 23.9915 21.1391C23.8915 21.1961 23.8155 21.2381 23.7405 21.2811C23.7765 21.3121 23.8135 21.3431 23.8755 21.3961C23.5285 21.5061 23.5175 21.9551 23.0915 22.0501C23.4045 20.8281 23.2245 19.6881 22.6875 18.5941C23.0795 18.5451 23.2365 18.6221 23.2015 18.8531C23.3495 18.9121 23.5015 18.9711 23.6995 19.0491C23.5865 19.0991 23.5205 19.1301 23.4265 19.1721C23.5895 19.2151 23.7275 19.2511 23.9085 19.2981C23.7635 19.3871 23.6495 19.4571 23.4805 19.5591C23.6905 19.5751 23.8405 19.5861 24.0765 19.6031C23.9055 19.7131 23.7975 19.7811 23.6505 19.8751C23.8305 19.8901 23.9745 19.9021 24.2065 19.9221C23.9815 20.0531 23.8305 20.1411 23.6135 20.2681C23.8215 20.2801 23.9565 20.2871 24.1715 20.2981ZM10.1505 22.2591C9.95251 22.4671 9.76551 22.6941 9.61251 22.9361C9.46151 23.1751 9.35851 23.4451 9.21751 23.7351C9.00051 23.4571 9.09851 23.1631 9.06451 22.8941C9.06151 22.8701 9.15351 22.8341 9.21551 22.7941C9.17751 22.7251 9.13551 22.6511 9.07451 22.5441C9.18351 22.5611 9.26451 22.5751 9.38351 22.5931C9.33651 22.4901 9.29751 22.4041 9.23651 22.2701C9.34151 22.2991 9.40851 22.3181 9.51751 22.3491C9.47551 22.2451 9.44051 22.1611 9.39551 22.0501C9.47751 22.0551 9.53651 22.0591 9.60751 22.0631C9.60251 22.0131 9.59751 21.9661 9.58951 21.8971C9.66651 21.9121 9.73751 21.9241 9.84451 21.9441C9.83051 21.8761 9.81951 21.8201 9.81251 21.7881C9.96351 21.7151 10.1035 21.6091 10.2535 21.5891C10.4155 21.5671 10.5875 21.6271 10.8275 21.6621C10.5685 21.8871 10.3425 22.0571 10.1505 22.2591ZM7.12751 21.6811C6.98151 21.6341 6.94751 21.5711 6.96851 21.4431C6.98451 21.3431 6.93651 21.2341 6.94951 21.1321C6.95851 21.0591 7.03851 20.9961 7.05351 20.9221C7.06951 20.8371 7.04951 20.7441 7.04451 20.6541C7.10151 20.6661 7.13251 20.6631 7.14851 20.6511C7.16451 20.6401 7.16551 20.6211 7.16051 20.5981C7.15051 20.5521 7.11951 20.4961 7.14551 20.4691C7.19551 20.4661 7.24551 20.4631 7.30251 20.4581C7.28351 20.3961 7.26551 20.3371 7.24951 20.2891C7.40551 20.1881 7.54851 20.0301 7.71151 20.0061C7.95051 19.9701 8.17351 19.5741 8.46451 19.9661C7.82451 20.3801 7.35451 20.9311 7.12751 21.6811ZM4.65051 18.5651C4.56251 18.5231 4.42051 18.5551 4.31651 18.5901C4.18151 18.6361 4.06151 18.7251 3.93051 18.7871C3.04351 19.2031 2.18651 19.1171 1.37151 18.6041C0.541512 18.0831 0.256512 17.2261 0.586512 16.3021C0.829512 15.6251 1.30851 15.1151 1.81951 14.6351C1.88551 14.5741 2.03551 14.6131 2.12051 14.5621C2.22451 14.5001 2.30151 14.3921 2.43951 14.3391C2.39151 14.5801 2.34151 14.8201 2.29251 15.0601C2.31251 15.0711 2.33351 15.0811 2.35351 15.0911C2.53451 14.8011 2.71451 14.5111 2.89551 14.2211C2.92651 14.2311 2.95751 14.2401 2.98951 14.2491V15.0781C3.01451 15.0801 3.03951 15.0821 3.06351 15.0831C3.14951 14.7861 3.23551 14.4891 3.32151 14.1911L3.38951 14.1881C3.46751 14.5191 3.54451 14.8501 3.62251 15.1811H3.67751C3.71951 14.8431 3.76151 14.5061 3.80351 14.1691C3.82451 14.1651 3.84551 14.1621 3.86651 14.1591L4.13151 15.0061C4.14451 15.0061 4.15751 15.0061 4.17051 15.0071V13.9391C4.41151 14.2311 4.39051 14.5401 4.59251 14.8511C4.55251 14.5021 4.52251 14.2361 4.49251 13.9691C4.51851 13.9621 4.54351 13.9551 4.56951 13.9471L4.99951 14.7641C5.01651 14.7591 5.03251 14.7541 5.04851 14.7491C4.99851 14.5161 4.94751 14.2841 4.89651 14.0511C4.91951 14.0441 4.94251 14.0351 4.96551 14.0261C5.12751 14.3471 5.28951 14.6691 5.45051 14.9911C5.46551 14.9841 5.48051 14.9771 5.49651 14.9701C5.45451 14.6921 5.41351 14.4141 5.37251 14.1341C5.39351 14.1271 5.41551 14.1181 5.43751 14.1091C5.55451 14.2941 5.67051 14.4771 5.78751 14.6611C5.80151 14.6571 5.81651 14.6521 5.83151 14.6481C5.78051 14.4631 5.73051 14.2761 5.68051 14.0901C5.70051 14.0771 5.72051 14.0641 5.74051 14.0501C5.97451 14.2951 6.20751 14.5381 6.44151 14.7811C6.46651 14.7621 6.49251 14.7431 6.51751 14.7231C6.38951 14.4941 6.26151 14.2631 6.13351 14.0331C6.54251 14.1771 6.85351 14.4281 7.14651 14.7021C7.66951 15.1911 8.01351 15.7921 8.18251 16.4871C8.32951 17.0891 8.17651 17.6111 7.72751 18.0371C7.27051 18.4691 6.72651 18.7111 6.09051 18.7211C5.60451 18.7291 5.11651 18.7871 4.65051 18.5651ZM10.7105 14.7901C10.4265 14.6741 10.1095 14.6391 9.78051 14.5631C9.86151 14.0231 10.5575 13.8331 10.9285 14.2421C11.2265 14.5701 11.4635 14.9111 11.5335 15.2811C11.2375 15.0991 10.9905 14.9041 10.7105 14.7901ZM34.4805 23.9131C34.4745 24.0881 34.5345 24.2651 34.5655 24.4421C34.5455 24.4651 34.5245 24.4891 34.5035 24.5111C34.3725 24.4181 34.2395 24.3241 34.1165 24.2351C34.1295 23.5461 34.1445 23.5221 34.6065 23.3981C34.5605 23.5771 34.4855 23.7441 34.4805 23.9131ZM32.9065 27.1001C32.4665 27.3681 32.1565 27.3041 31.8955 26.8371C32.4255 26.9561 32.7505 26.7051 33.0295 26.3631C33.2095 26.6351 33.1485 26.9531 32.9065 27.1001ZM35.2325 23.4391C33.6345 22.9201 32.1395 23.6771 31.6835 25.2211C31.2505 26.6871 32.2675 28.2381 33.7905 28.4271C33.9455 28.4471 34.1075 28.4471 34.2625 28.4231C34.5195 28.3861 34.7335 28.2651 34.8765 28.0371C34.9785 27.8741 34.9625 27.7281 34.8035 27.6261C34.6375 27.5201 34.4555 27.4411 34.2835 27.3431C34.0205 27.1951 33.7445 27.0631 33.5025 26.8851C33.1695 26.6401 33.0785 26.2921 33.2135 25.9001C33.3445 25.5191 33.5605 25.1901 33.8775 24.9371C34.2325 24.6541 34.6255 24.6141 35.0235 24.8201C35.2075 24.9151 35.3815 25.0501 35.5205 25.2031C36.2385 25.9861 36.6305 27.5191 35.6215 28.6741C33.9765 30.5581 31.9175 31.3971 29.4165 31.0461C28.9645 30.9821 28.5155 30.8761 28.0755 30.6551C28.1305 30.5421 28.0685 30.3811 28.2775 30.3921C28.3065 30.3941 28.3495 30.3621 28.3645 30.3351C28.4715 30.1351 28.6005 29.9411 28.6665 29.7281C28.7075 29.5921 28.8865 29.5931 28.8775 29.4051C28.8655 29.1461 28.9345 28.8831 28.9705 28.6221C29.1175 27.5631 28.3345 26.1661 26.9055 26.2241C26.6825 26.2341 26.4585 26.2551 26.2395 26.2971C25.5465 26.4281 24.9135 26.7211 24.2945 27.0481C24.1715 27.1121 24.0455 27.1721 23.9055 27.2421C23.0655 25.8561 22.6045 24.4431 23.0285 22.8371C23.1585 22.8121 23.2855 22.7801 23.4145 22.7651C24.8925 22.5971 26.3715 22.4321 27.8495 22.2671C28.6475 22.1781 29.4455 22.0801 30.2455 22.0071C30.5525 21.9801 30.7705 21.8551 30.9075 21.5901C31.1005 21.2171 31.3125 20.8501 31.4635 20.4601C31.8115 19.5581 31.9745 18.6091 32.0965 17.6541C32.1405 17.3061 32.1685 16.9561 32.2045 16.5971C31.9495 16.4791 31.7435 16.3551 31.5195 16.2891C31.3085 16.2251 31.0805 16.2011 30.8595 16.1981C30.6335 16.1951 30.4085 16.2391 30.1565 16.2651C30.3665 15.9121 30.5205 15.8441 31.0075 15.7941C31.1845 15.7751 31.3185 15.8401 31.4705 15.8981C31.6195 15.9561 31.8815 16.0911 31.9635 16.1891C32.0325 16.2711 32.1075 16.3481 32.1805 16.4281C32.2105 16.4171 32.2415 16.4051 32.2715 16.3931C32.2885 15.2771 32.3235 14.1601 32.3115 13.0441C32.3065 12.5581 32.1765 12.0811 31.9635 11.6341C31.8115 11.3151 31.5905 11.0741 31.2695 10.9071C31.0385 10.7871 30.8175 10.6301 30.6305 10.4491C29.7615 9.61412 29.0415 8.64712 28.4015 7.63712C27.9665 6.95012 27.4275 6.50012 26.6475 6.36012C26.3065 6.29912 26.1445 6.12412 25.9925 5.83712C24.9305 3.82612 23.3325 2.45812 21.1155 1.87012C20.6635 1.75012 20.2375 1.61012 19.8865 1.29112C19.8525 1.25912 19.8005 1.24912 19.7375 1.21912V1.46112C19.4665 1.20812 19.2275 0.985122 18.9885 0.762122L18.9565 0.800122C19.0205 0.962122 19.0845 1.12412 19.1485 1.28512C19.1265 1.29812 19.1055 1.31112 19.0835 1.32412C18.7305 1.00412 18.3765 0.684122 18.0235 0.364122C18.0675 0.653122 18.2925 0.837122 18.3685 1.17912C17.8395 0.753122 17.3745 0.377122 16.9085 0.00012207C16.8875 0.0171221 16.8665 0.0351221 16.8455 0.0521221C17.1155 0.454122 17.3855 0.854122 17.6555 1.25612C17.6345 1.27612 17.6125 1.29612 17.5915 1.31612C17.3335 1.16012 17.0775 1.00412 16.8195 0.847122C16.8055 0.864122 16.7905 0.882122 16.7755 0.898122C16.8525 1.05412 16.9285 1.21112 17.0405 1.43712C16.8425 1.35112 16.7195 1.29812 16.5455 1.22112C16.5975 1.35112 16.6325 1.44012 16.6825 1.56412C16.5415 1.55012 16.4345 1.54012 16.3195 1.52912C16.3415 1.62412 16.3585 1.69412 16.3775 1.77512C16.2175 1.79112 16.0805 1.80312 15.9265 1.81812C15.9675 1.93012 15.9985 2.01212 16.0385 2.12312C15.8675 2.20912 15.7035 2.28712 15.5435 2.37312C15.3695 2.46612 15.1955 2.56212 15.0285 2.66712C13.4415 3.66212 12.2615 5.04612 11.2665 6.60612C11.2305 6.66212 11.2035 6.72212 11.1735 6.78112C10.8805 7.36712 10.8805 7.94612 11.2175 8.51512C11.3585 8.75312 11.5235 8.97812 11.6485 9.22312C11.8515 9.62112 12.0725 10.0161 12.2095 10.4371C12.4865 11.2921 12.2705 11.9131 11.5495 12.4471C11.2645 12.6581 10.9515 12.8301 10.6495 13.0181C10.3485 13.2071 10.0355 13.3791 9.74751 13.5861C9.29451 13.9121 9.20151 14.2231 9.37551 14.7561C9.47051 15.0431 9.59051 15.3211 9.69751 15.6041C10.1635 16.8371 10.9015 17.8791 11.8745 18.7621C12.6585 19.4731 13.5745 19.8491 14.6285 19.8961C14.7085 19.8991 14.7885 19.9231 14.9585 19.9541C13.9635 20.5411 13.0495 21.0801 12.1155 21.6311C12.1805 22.0211 12.2195 22.3881 12.3055 22.7451C12.4455 23.3261 12.7415 23.8361 13.2055 24.3321C12.7645 24.3271 12.4955 24.1621 12.2285 23.9841C12.2805 23.9061 12.3125 23.8581 12.3675 23.7781H11.9945C11.9525 23.6901 11.9205 23.6241 11.8555 23.4871C11.9095 23.4521 12.0005 23.3941 12.1185 23.3181C11.9405 23.2951 11.8145 23.2771 11.6215 23.2511C11.7445 23.1571 11.8175 23.1001 11.9045 23.0351C11.7925 23.0151 11.7055 23.0011 11.5685 22.9781C11.6905 22.8771 11.7755 22.8061 11.8815 22.7191C11.7775 22.6991 11.7065 22.6841 11.6235 22.6691C11.7165 22.3661 11.8055 22.0751 11.8975 21.7751C11.7845 21.8271 11.6785 21.8751 11.5875 21.9171C10.1465 20.8801 8.72051 19.8531 7.28951 18.8231C7.51351 18.6531 7.73351 18.4871 7.95251 18.3191C8.63751 17.7901 8.76251 17.0931 8.54651 16.3001C8.30751 15.4181 7.84951 14.6891 7.06551 14.1821C6.00951 13.5011 5.05351 12.6961 4.18351 11.7891C4.04951 11.6501 3.89951 11.5271 3.76551 11.4051C3.72051 11.4351 3.70251 11.4401 3.69951 11.4501C3.41951 12.4231 2.80451 13.1621 2.06151 13.8201C1.74751 14.0981 1.44951 14.4011 1.17051 14.7151C0.704512 15.2431 0.324512 15.8241 0.145512 16.5191C0.124512 16.5991 0.0495117 16.6661 -0.000488281 16.7391V17.4511C0.0485117 17.5261 0.119512 17.5961 0.143512 17.6791C0.339512 18.3421 0.783512 18.7851 1.37951 19.0971C1.44751 19.1321 1.51051 19.1751 1.57851 19.2161C1.55251 19.3251 1.52451 19.4121 1.51151 19.5011C1.45951 19.8601 1.57751 20.0081 1.94751 20.0531C2.01351 20.0611 2.07951 20.0561 2.14551 20.0641C2.16451 20.0661 2.18151 20.0911 2.19951 20.1061C2.13751 20.1981 2.07451 20.2901 2.01251 20.3791C2.28751 20.6111 2.65651 20.7231 3.10051 20.6471C3.65651 20.5521 4.22651 20.4691 4.74951 20.2731C5.19651 20.1071 5.44651 20.2011 5.75751 20.5311C7.21251 22.0751 8.69751 23.5901 10.1655 25.1221C10.3725 25.3391 10.6035 25.4651 10.8995 25.4161C11.0795 25.3861 11.2575 25.3291 11.4265 25.2611C12.5255 24.8211 13.6225 24.3731 14.7205 23.9301C14.8375 23.8831 14.9615 23.8521 15.1305 23.7981C15.0955 24.3371 15.0515 24.8191 15.0355 25.3011C15.0195 25.7841 15.0315 26.2671 15.0315 26.7741C14.9105 26.7281 14.7895 26.6841 14.6705 26.6361C14.1055 26.4101 13.5335 26.2211 12.9145 26.2211C11.7015 26.2231 10.8505 27.0811 10.8525 28.2911C10.8535 28.9071 11.1525 29.4281 11.3565 29.9811C11.3655 30.0051 11.3895 30.0461 11.3995 30.0441C11.6095 30.0071 11.6065 30.2581 11.7275 30.2951C11.9055 30.3481 11.9645 30.4851 12.0575 30.6061C12.0795 30.6331 12.1335 30.6741 12.1405 30.6691C12.3215 30.5221 12.3525 30.7951 12.4425 30.7831C12.6035 30.7641 12.6725 30.8561 12.7775 30.9341C12.8855 31.0151 13.0245 31.0821 13.1575 31.1001C13.6555 31.1711 14.0165 31.4981 14.5155 31.7421C14.3075 31.8511 14.1685 31.9171 14.0365 31.9951C13.5515 32.2861 13.0615 32.5681 12.5905 32.8811C12.4225 32.9941 12.2795 33.1691 12.1725 33.3441C12.0255 33.5871 12.1025 33.8021 12.3315 33.9511C12.4165 34.0071 12.5045 34.0641 12.5745 34.1371C12.7295 34.3041 12.9165 34.3731 13.1405 34.3651C13.2305 34.3611 13.3525 34.3351 13.4065 34.3821C13.6855 34.6191 13.9825 34.5281 14.2685 34.4441C14.6845 34.3201 15.0895 34.1601 15.5015 34.0231C15.6695 33.9671 15.8455 33.9311 16.0485 33.8791C16.0485 33.9781 16.0425 34.0281 16.0495 34.0771C16.1035 34.4911 16.4975 34.6671 16.8315 34.4231C16.9365 34.3451 17.0295 34.2511 17.1325 34.1681C17.4505 33.9101 17.7765 33.6741 18.1795 33.5511C18.9465 33.3171 19.1375 32.5531 18.5865 31.9771C18.4935 31.8791 18.4075 31.7741 18.3175 31.6721C18.7795 31.7691 19.1875 31.9441 19.6115 32.0591C20.0505 32.1791 20.5055 32.2421 20.9515 32.3301C20.8505 33.0541 21.0895 33.3981 21.7875 33.5821C21.9515 33.6251 22.1165 33.6871 22.2605 33.7731C22.4405 33.8821 22.5965 34.0261 22.7665 34.1501C23.0365 34.3471 23.3535 34.3671 23.5545 34.1321C23.7205 33.9361 23.8775 33.9451 24.0745 34.0051C24.5525 34.1501 25.0385 34.2761 25.5065 34.4491C26.0455 34.6471 26.5165 34.3181 27.0245 34.2961C27.0995 34.2921 27.1735 34.1961 27.2435 34.1371C27.3035 34.0881 27.3495 34.0201 27.4135 33.9771C27.7735 33.7381 27.8375 33.4901 27.5445 33.1841C27.3015 32.9301 27.0005 32.7311 26.7205 32.5141C26.6155 32.4321 26.4975 32.3681 26.3845 32.2951C26.5555 32.2691 26.6905 32.3081 26.8255 32.3511C28.3285 32.8351 29.8595 33.1311 31.4485 33.0201C32.4505 32.9501 33.4125 32.7111 34.2395 32.1301C35.6725 31.1211 36.6745 29.7781 37.1825 28.0871C37.2845 27.7481 37.1305 27.5311 36.7725 27.5121C36.6215 27.5051 36.4665 27.5401 36.3095 27.5561C36.3575 27.3561 36.4725 27.1671 36.5815 27.1691C36.8545 27.1731 37.1405 27.1751 37.2855 27.5261C37.4165 26.9631 37.4325 26.4581 37.3075 25.8651C37.0575 24.6831 36.4125 23.8231 35.2325 23.4391Z" fill="#DA4B32"/>
</g>
</svg>