<svg width="42" height="38" viewBox="0 0 42 38" fill="none" xmlns="http://www.w3.org/2000/svg">
<path fill-rule="evenodd" clip-rule="evenodd" d="M5.34066 35.9273C7.66166 35.9273 9.56966 34.1193 9.72966 31.8383H0.95166C1.11166 34.1193 3.01966 35.9273 5.34066 35.9273Z" fill="#AA46C2"/>
<path fill-rule="evenodd" clip-rule="evenodd" d="M4.86407 30.8969L4.60707 30.2569C4.32507 29.7389 3.79007 29.1149 2.86607 29.2349C2.63707 29.2609 2.42407 29.1249 2.35607 28.9059C2.28907 28.6869 2.38907 28.4519 2.59307 28.3479L3.18507 28.0479C3.52407 27.8759 3.92107 27.8519 4.27107 27.9839C4.60307 28.1089 4.85807 28.3549 4.98607 28.6749L5.34107 29.5579L5.69507 28.6759C5.82407 28.3549 6.07807 28.1099 6.41007 27.9849C6.76007 27.8519 7.15707 27.8759 7.49707 28.0479L8.08807 28.3479C8.29207 28.4519 8.39207 28.6869 8.32507 28.9059C8.25807 29.1249 8.04507 29.2619 7.81507 29.2349C6.90107 29.1159 6.37007 29.7149 6.08607 30.2279L5.81707 30.8969H9.20307L5.32707 18.1959L1.47607 30.8969H4.86407Z" fill="white"/>
<path fill-rule="evenodd" clip-rule="evenodd" d="M19.2616 14.3842L19.4706 14.5242V31.7422C20.3086 31.5562 21.1896 31.5562 22.0236 31.7402V14.5262L22.2316 14.3862C23.7986 13.3332 24.8516 10.7292 24.8516 7.90321C24.8516 7.78121 24.8506 7.43321 24.8466 7.14621C23.7416 7.14521 22.4886 7.49121 21.0366 8.32021C20.9626 8.36321 20.8746 8.38121 20.7916 8.38221L20.7196 8.38021C20.6416 8.37821 20.5656 8.35721 20.4976 8.31921C19.0306 7.48121 17.7626 7.13621 16.6476 7.14621C16.6446 7.43321 16.6426 7.78121 16.6426 7.90321C16.6426 10.7282 17.6956 13.3312 19.2616 14.3842Z" fill="#AA46C2"/>
<path fill-rule="evenodd" clip-rule="evenodd" d="M22.3423 32.8022C21.3263 32.4502 20.1773 32.4492 19.1533 32.8032C17.2933 33.4342 16.0023 35.0942 15.8203 37.0202H25.6753C25.4913 35.0932 24.2003 33.4322 22.3423 32.8022Z" fill="#AA46C2"/>
<path fill-rule="evenodd" clip-rule="evenodd" d="M35.4527 30.2573C35.1697 29.7373 34.6327 29.1123 33.7117 29.2353C33.4827 29.2613 33.2687 29.1243 33.2017 28.9053C33.1347 28.6873 33.2337 28.4513 33.4377 28.3483L34.0297 28.0483C34.3697 27.8753 34.7657 27.8543 35.1167 27.9843C35.4487 28.1093 35.7027 28.3553 35.8317 28.6753L36.1857 29.5583L36.5397 28.6763C36.6687 28.3553 36.9237 28.1093 37.2557 27.9843C37.6057 27.8533 38.0027 27.8753 38.3427 28.0483L38.9327 28.3483C39.1377 28.4513 39.2377 28.6873 39.1697 28.9053C39.1017 29.1243 38.8907 29.2623 38.6607 29.2353C37.7447 29.1143 37.2147 29.7163 36.9307 30.2293L36.6627 30.8973H40.0497L36.1997 18.1953L32.3237 30.8973H35.7097L35.4527 30.2573Z" fill="white"/>
<path fill-rule="evenodd" clip-rule="evenodd" d="M36.1864 35.9273C38.5074 35.9273 40.4154 34.1193 40.5754 31.8383H31.7974C31.9574 34.1193 33.8654 35.9273 36.1864 35.9273Z" fill="#AA46C2"/>
<path fill-rule="evenodd" clip-rule="evenodd" d="M20.7466 0.940918C19.6936 0.940918 18.6086 1.82392 17.7876 3.30992C19.1616 4.11092 20.2436 5.20292 20.7646 5.78192C21.2816 5.20592 22.3526 4.12292 23.7146 3.32392C22.8916 1.82892 21.8036 0.940918 20.7466 0.940918Z" fill="#AA46C2"/>
<path fill-rule="evenodd" clip-rule="evenodd" d="M37.5975 15.8852C36.3375 15.2982 34.3145 13.4152 31.8465 7.76716C30.6535 5.03416 29.1655 3.53316 27.4265 3.30616C24.2805 2.88716 21.1975 6.72116 21.1655 6.76016C21.0755 6.87416 20.9455 6.93816 20.7875 6.93816L20.7215 6.93616C20.5815 6.93316 20.4505 6.86816 20.3635 6.75916C20.3325 6.72016 17.2405 2.89516 14.0865 3.30416C12.3455 3.53216 10.8585 5.03316 9.66548 7.76416C7.20048 13.4072 5.17848 15.2922 3.91748 15.8802C4.25948 16.0322 4.67948 16.1462 5.14048 16.1092C6.00748 16.0422 6.83948 15.4742 7.61248 14.4222C8.02448 13.8622 8.44348 13.2032 8.88648 12.5062C11.2075 8.86016 14.3775 3.87716 20.7695 7.39216C22.3015 6.54916 23.6495 6.19716 24.8425 6.19716C28.6185 6.19716 30.8635 9.73016 32.6185 12.4962C33.0645 13.1972 33.4855 13.8612 33.8995 14.4252C34.6755 15.4812 35.5095 16.0482 36.3805 16.1122C36.8435 16.1432 37.2585 16.0342 37.5975 15.8852Z" fill="#AA46C2"/>
<mask id="mask0" mask-type="alpha" maskUnits="userSpaceOnUse" x="16" y="0" width="9" height="4">
<path fill-rule="evenodd" clip-rule="evenodd" d="M16.9419 0.00012207H24.5579V3.32392H16.9419V0.00012207Z" fill="white"/>
</mask>
<g mask="url(#mask0)">
<path fill-rule="evenodd" clip-rule="evenodd" d="M20.7469 0.940878C21.8039 0.940878 22.8919 1.82888 23.7149 3.32388C23.9839 3.16488 24.2669 3.01888 24.5579 2.88888C23.5549 1.04688 22.1819 -0.00012207 20.7469 -0.00012207C19.3149 -0.00012207 17.9449 1.04388 16.9419 2.87888C17.2339 3.00788 17.5169 3.15188 17.7879 3.30988C18.6089 1.82388 19.6939 0.940878 20.7469 0.940878Z" fill="#333333"/>
</g>
<path fill-rule="evenodd" clip-rule="evenodd" d="M24.8514 7.90287C24.8514 10.7289 23.7984 13.3339 22.2314 14.3859L22.0234 14.5259V31.7409C22.2344 31.7879 22.4444 31.8409 22.6474 31.9119C22.7544 31.9489 22.8594 31.9909 22.9634 32.0339V15.0179C24.6894 13.7109 25.7924 10.9569 25.7924 7.90287C25.7924 7.79387 25.7904 7.50687 25.7884 7.23887C25.4864 7.17987 25.1734 7.14687 24.8464 7.14587C24.8504 7.43287 24.8514 7.78187 24.8514 7.90287Z" fill="#333333"/>
<path fill-rule="evenodd" clip-rule="evenodd" d="M19.4702 31.7426V14.5236L19.2612 14.3846C17.6952 13.3316 16.6422 10.7276 16.6422 7.90263C16.6422 7.78163 16.6442 7.43263 16.6472 7.14563C16.3212 7.14863 16.0072 7.18363 15.7052 7.24463C15.7022 7.51163 15.7002 7.79463 15.7002 7.90263C15.7002 10.9556 16.8032 13.7096 18.5292 15.0156V32.0356C18.6342 31.9926 18.7402 31.9496 18.8482 31.9126C19.0512 31.8426 19.2602 31.7886 19.4702 31.7426Z" fill="#333333"/>
<path fill-rule="evenodd" clip-rule="evenodd" d="M10.3026 31.3647L10.6766 31.3517L10.6606 30.8967H10.1876L10.2896 31.2337C10.3036 31.2767 10.3016 31.3207 10.3026 31.3647Z" fill="#333333"/>
<mask id="mask1" mask-type="alpha" maskUnits="userSpaceOnUse" x="0" y="30" width="11" height="7">
<path fill-rule="evenodd" clip-rule="evenodd" d="M0 30.8972H10.6815V36.8672H0V30.8972Z" fill="white"/>
</mask>
<g mask="url(#mask1)">
<path fill-rule="evenodd" clip-rule="evenodd" d="M5.34051 35.9272C3.01951 35.9272 1.11151 34.1192 0.951512 31.8382H9.72951C9.56951 34.1192 7.66151 35.9272 5.34051 35.9272ZM9.97751 31.8212C9.93151 31.8352 9.88551 31.8412 9.83951 31.8412C9.63851 31.8412 9.45151 31.7112 9.38951 31.5082L9.20251 30.8972H5.81751L5.79051 30.9632C5.71651 31.1462 5.54151 31.2582 5.35451 31.2582C5.34951 31.2582 5.34551 31.2562 5.34051 31.2562C5.33651 31.2562 5.33151 31.2582 5.32751 31.2582C5.14051 31.2582 4.96451 31.1462 4.89051 30.9632L4.86351 30.8972H1.47651L1.29151 31.5072C1.23051 31.7102 1.04351 31.8412 0.841512 31.8412C0.796512 31.8412 0.750512 31.8352 0.704512 31.8212C0.455512 31.7452 0.316512 31.4832 0.391512 31.2352L0.493512 30.8972H0.474512L0.0195117 30.9402L-0.000488281 31.5272C-0.000488281 34.4722 2.39651 36.8672 5.34051 36.8672C8.28551 36.8672 10.6815 34.4722 10.6815 31.5272C10.6815 31.4772 10.6795 31.4282 10.6775 31.3772L10.3035 31.3692C10.3035 31.5722 10.1805 31.7592 9.97751 31.8212Z" fill="#333333"/>
</g>
<path fill-rule="evenodd" clip-rule="evenodd" d="M5.32666 18.1957L9.20266 30.8967L9.38866 31.5087C9.45166 31.7117 9.63866 31.8417 9.83966 31.8417C9.88566 31.8417 9.93066 31.8357 9.97666 31.8207C10.1807 31.7587 10.3037 31.5717 10.3037 31.3697C10.3037 31.3677 10.3027 31.3667 10.3027 31.3647C10.3017 31.3207 10.3037 31.2767 10.2897 31.2337L10.1867 30.8967L5.91766 16.9067C5.84566 16.9287 5.77166 16.9507 5.69866 16.9677L5.32666 18.1957Z" fill="#333333"/>
<path fill-rule="evenodd" clip-rule="evenodd" d="M0.704774 31.8208C0.750774 31.8358 0.796774 31.8418 0.841774 31.8418C1.04377 31.8418 1.22977 31.7108 1.29177 31.5078L1.47577 30.8968L5.32677 18.1958L5.69877 16.9678C5.53477 17.0068 5.36877 17.0358 5.19977 17.0478C5.02477 17.0598 4.85677 17.0538 4.69377 17.0408L0.493774 30.8968L0.391774 31.2348C0.315774 31.4828 0.455774 31.7458 0.704774 31.8208Z" fill="#333333"/>
<path fill-rule="evenodd" clip-rule="evenodd" d="M7.81533 29.2349C8.04433 29.2619 8.25733 29.1249 8.32533 28.9059C8.39233 28.6869 8.29233 28.4519 8.08733 28.3479L7.49733 28.0479C7.15733 27.8759 6.76033 27.8519 6.41033 27.9849C6.07833 28.1099 5.82433 28.3549 5.69533 28.6759L5.34033 29.5579L5.45533 29.8409C5.61533 30.1389 5.72333 30.4319 5.78433 30.6729C5.84433 30.9139 5.70833 31.1599 5.47233 31.2359C5.42933 31.2499 5.38433 31.2559 5.34033 31.2559C5.34533 31.2559 5.34933 31.2579 5.35433 31.2579C5.54233 31.2579 5.71633 31.1459 5.79133 30.9639L5.81733 30.8969L6.08633 30.2279C6.37033 29.7149 6.90133 29.1159 7.81533 29.2349Z" fill="#333333"/>
<path fill-rule="evenodd" clip-rule="evenodd" d="M5.78414 30.6733C5.72314 30.4323 5.61514 30.1393 5.45514 29.8413L5.34114 29.5583L4.98614 28.6753C4.85814 28.3553 4.60314 28.1093 4.27114 27.9843C3.92114 27.8523 3.52414 27.8763 3.18514 28.0483L2.59414 28.3483C2.38914 28.4513 2.28914 28.6873 2.35614 28.9053C2.42414 29.1243 2.63814 29.2613 2.86614 29.2353C3.79014 29.1143 4.32514 29.7383 4.60714 30.2573L4.86414 30.8973L4.89014 30.9633C4.96514 31.1463 5.14014 31.2583 5.32814 31.2583C5.33214 31.2583 5.33714 31.2563 5.34114 31.2563C5.38514 31.2553 5.43014 31.2493 5.47214 31.2353C5.70814 31.1593 5.84514 30.9133 5.78414 30.6733Z" fill="#333333"/>
<mask id="mask2" mask-type="alpha" maskUnits="userSpaceOnUse" x="30" y="30" width="12" height="7">
<path fill-rule="evenodd" clip-rule="evenodd" d="M30.8452 30.8972H41.526V36.8672H30.8452V30.8972Z" fill="white"/>
</mask>
<g mask="url(#mask2)">
<path fill-rule="evenodd" clip-rule="evenodd" d="M36.1862 35.9272C33.8652 35.9272 31.9572 34.1192 31.7972 31.8382H40.5752C40.4152 34.1192 38.5072 35.9272 36.1862 35.9272ZM40.8212 31.8212C40.7762 31.8352 40.7302 31.8412 40.6852 31.8412C40.4832 31.8412 40.2962 31.7102 40.2352 31.5072L40.0492 30.8972H36.6632L36.6362 30.9632C36.5632 31.1462 36.3862 31.2582 36.1992 31.2582C36.1952 31.2582 36.1902 31.2562 36.1862 31.2562C36.1812 31.2562 36.1772 31.2582 36.1722 31.2582C35.9852 31.2582 35.8092 31.1462 35.7362 30.9632L35.7092 30.8972H32.3242L32.1372 31.5082C32.0752 31.7112 31.8882 31.8412 31.6872 31.8412C31.6412 31.8412 31.5952 31.8352 31.5492 31.8212C31.3012 31.7442 31.1612 31.4822 31.2372 31.2342L31.3392 30.8972H31.3202L30.8642 30.9352L30.8452 31.5272C30.8452 34.4722 33.2412 36.8672 36.1862 36.8672C39.1302 36.8672 41.5262 34.4722 41.5262 31.5272L41.5082 30.8972H41.0332L41.1352 31.2352C41.2102 31.4832 41.0702 31.7452 40.8212 31.8212Z" fill="#333333"/>
</g>
<path fill-rule="evenodd" clip-rule="evenodd" d="M31.237 31.2338C31.161 31.4818 31.301 31.7448 31.549 31.8208C31.595 31.8358 31.641 31.8408 31.687 31.8408C31.888 31.8408 32.075 31.7118 32.137 31.5078L32.324 30.8968L36.2 18.1958L35.83 16.9748C35.755 16.9588 35.681 16.9348 35.607 16.9128L31.34 30.8968L31.237 31.2338Z" fill="#333333"/>
<path fill-rule="evenodd" clip-rule="evenodd" d="M36.3111 17.0502C36.1491 17.0382 35.9891 17.0112 35.8301 16.9752L36.2001 18.1962L40.0491 30.8972L40.2351 31.5072C40.2961 31.7102 40.4831 31.8412 40.6851 31.8412C40.7301 31.8412 40.7761 31.8352 40.8211 31.8212C41.0701 31.7452 41.2101 31.4832 41.1351 31.2352L41.0331 30.8972L36.8311 17.0342C36.7361 17.0432 36.6451 17.0592 36.5461 17.0592C36.4691 17.0592 36.3911 17.0562 36.3111 17.0502Z" fill="#333333"/>
<path fill-rule="evenodd" clip-rule="evenodd" d="M35.743 30.6734C35.804 30.4324 35.912 30.1394 36.072 29.8414L36.186 29.5584L35.832 28.6754C35.703 28.3554 35.449 28.1094 35.117 27.9844C34.765 27.8544 34.37 27.8754 34.03 28.0484L33.438 28.3484C33.234 28.4514 33.135 28.6874 33.202 28.9054C33.269 29.1244 33.483 29.2614 33.712 29.2354C34.633 29.1124 35.17 29.7374 35.453 30.2574L35.71 30.8974L35.736 30.9634C35.809 31.1464 35.985 31.2584 36.173 31.2584C36.178 31.2584 36.181 31.2564 36.186 31.2564C36.142 31.2554 36.097 31.2494 36.055 31.2354C35.819 31.1594 35.682 30.9134 35.743 30.6734Z" fill="#333333"/>
<path fill-rule="evenodd" clip-rule="evenodd" d="M38.661 29.2349C38.89 29.2619 39.102 29.1249 39.17 28.9059C39.238 28.6869 39.138 28.4519 38.933 28.3479L38.343 28.0479C38.003 27.8759 37.606 27.8529 37.256 27.9839C36.924 28.1089 36.669 28.3549 36.54 28.6759L36.186 29.5579L36.072 29.8409C35.912 30.1389 35.804 30.4319 35.743 30.6729C35.682 30.9139 35.819 31.1599 36.055 31.2359C36.098 31.2499 36.142 31.2559 36.186 31.2559C36.19 31.2559 36.195 31.2579 36.199 31.2579C36.387 31.2579 36.563 31.1459 36.637 30.9639L36.663 30.8969L36.931 30.2289C37.215 29.7159 37.745 29.1149 38.661 29.2349Z" fill="#333333"/>
<path fill-rule="evenodd" clip-rule="evenodd" d="M33.899 14.4252C33.485 13.8612 33.064 13.1972 32.619 12.4962C30.863 9.73019 28.619 6.19619 24.842 6.19619C23.649 6.19619 22.301 6.54919 20.769 7.39219C14.378 3.87719 11.208 8.86019 8.88602 12.5062C8.44302 13.2032 8.02402 13.8622 7.61202 14.4222C6.83902 15.4742 6.00702 16.0422 5.14002 16.1092C4.67902 16.1462 4.25902 16.0322 3.91802 15.8802C5.17802 15.2922 7.20002 13.4072 9.66602 7.76419C10.858 5.03319 12.345 3.53219 14.087 3.30419C17.24 2.89519 20.333 6.72019 20.363 6.75919C20.45 6.86819 20.582 6.93319 20.721 6.93619L20.788 6.93819C20.945 6.93819 21.075 6.87419 21.166 6.76019C21.197 6.72119 24.28 2.88719 27.426 3.30619C29.166 3.53319 30.653 5.03419 31.846 7.76719C34.314 13.4152 36.337 15.2982 37.597 15.8852C37.258 16.0342 36.843 16.1432 36.38 16.1122C35.509 16.0482 34.675 15.4812 33.899 14.4252ZM36.311 17.0502C36.391 17.0562 36.469 17.0592 36.546 17.0592C36.645 17.0592 36.736 17.0432 36.831 17.0342C38.181 16.9142 39.114 16.0032 39.157 15.9592C39.312 15.8032 39.348 15.5562 39.229 15.3702C39.11 15.1852 38.889 15.1042 38.682 15.1802C38.659 15.1842 36.324 15.6662 32.709 7.39019C31.374 4.33219 29.636 2.64519 27.545 2.37219C26.497 2.23619 25.481 2.47719 24.557 2.88919C24.266 3.01919 23.984 3.16419 23.714 3.32319C22.353 4.12219 21.282 5.20519 20.764 5.78119C20.244 5.20219 19.162 4.11119 17.788 3.31019C17.516 3.15219 17.234 3.00819 16.942 2.87919C16.022 2.47219 15.01 2.23619 13.967 2.37019C11.875 2.64419 10.137 4.33119 8.80302 7.38719C5.19302 15.6532 2.85902 15.1872 2.85102 15.1852C2.64402 15.1082 2.41302 15.1862 2.29402 15.3712C2.17402 15.5572 2.20002 15.8002 2.35402 15.9562C2.39802 16.0002 3.33402 16.9222 4.69402 17.0402C4.85702 17.0542 5.02502 17.0602 5.20002 17.0472C5.36902 17.0352 5.53502 17.0062 5.69902 16.9682C5.77202 16.9502 5.84502 16.9292 5.91802 16.9062C6.80002 16.6382 7.62402 15.9962 8.37102 14.9792C8.80002 14.3942 9.22802 13.7222 9.68002 13.0122C11.273 10.5092 13.009 7.78819 15.706 7.24419C16.007 7.18419 16.321 7.14919 16.647 7.14619C17.762 7.13619 19.03 7.48119 20.498 8.31919C20.565 8.35719 20.641 8.37819 20.719 8.38019L20.792 8.38219C20.875 8.38119 20.962 8.36319 21.037 8.32019C22.488 7.49119 23.742 7.14519 24.846 7.14619C25.173 7.14719 25.486 7.18019 25.788 7.23819C28.497 7.76619 30.233 10.4932 31.824 13.0002C32.279 13.7162 32.708 14.3922 33.141 14.9822C33.892 16.0032 34.719 16.6462 35.607 16.9122C35.681 16.9352 35.754 16.9582 35.83 16.9752C35.989 17.0112 36.149 17.0382 36.311 17.0502Z" fill="#333333"/>
<path fill-rule="evenodd" clip-rule="evenodd" d="M22.023 31.7407C21.189 31.5557 20.308 31.5557 19.47 31.7427C19.26 31.7887 19.051 31.8427 18.848 31.9127C18.74 31.9497 18.634 31.9927 18.529 32.0357C16.319 32.9297 14.854 35.0797 14.854 37.4907C14.854 37.2307 15.065 37.0197 15.325 37.0197H15.82C16.002 35.0947 17.294 33.4337 19.153 32.8027C20.177 32.4497 21.327 32.4507 22.342 32.8027C24.201 33.4317 25.492 35.0937 25.675 37.0197H26.169C26.43 37.0197 26.64 37.2307 26.64 37.4907C26.64 35.0777 25.174 32.9277 22.963 32.0337C22.859 31.9907 22.754 31.9487 22.647 31.9117C22.444 31.8417 22.234 31.7877 22.023 31.7407Z" fill="#333333"/>
<mask id="mask3" mask-type="alpha" maskUnits="userSpaceOnUse" x="14" y="36" width="13" height="2">
<path fill-rule="evenodd" clip-rule="evenodd" d="M14.8545 36.9905H26.6405V37.9611H14.8545V36.9905Z" fill="white"/>
</mask>
<g mask="url(#mask3)">
<path fill-rule="evenodd" clip-rule="evenodd" d="M26.1695 37.02H25.6755H15.8195H15.3245C15.0655 37.02 14.8545 37.231 14.8545 37.491C14.8545 37.75 15.0655 37.961 15.3245 37.961H26.1695C26.4305 37.961 26.6405 37.75 26.6405 37.491C26.6405 37.231 26.4305 37.02 26.1695 37.02Z" fill="#333333"/>
</g>
</svg>