<svg width="39" height="35" viewBox="0 0 39 35" fill="none" xmlns="http://www.w3.org/2000/svg">
<mask id="mask0" mask-type="alpha" maskUnits="userSpaceOnUse" x="0" y="0" width="39" height="35">
<path fill-rule="evenodd" clip-rule="evenodd" d="M0 0.000244141H38.048V34.6102H0V0.000244141Z" fill="white"/>
</mask>
<g mask="url(#mask0)">
<path fill-rule="evenodd" clip-rule="evenodd" d="M37.1608 20.9409C37.0708 21.0909 37.0258 21.1679 36.9608 21.2749C36.9348 21.1469 36.9168 21.0589 36.8908 20.9329C36.8048 21.0359 36.7348 21.1179 36.6388 21.2309C36.6158 21.1219 36.5988 21.0409 36.5738 20.9179C36.4888 21.0279 36.4308 21.1029 36.3368 21.2249V20.8989C36.3058 20.9009 36.2698 20.8929 36.2628 20.9039C36.2038 20.9989 36.1508 21.0959 36.0658 21.2469C36.0158 21.0669 35.9828 20.9469 35.9388 20.7929C35.8168 20.9349 35.7108 21.0589 35.5698 21.2229V20.7859C35.4328 20.9279 35.3308 21.0359 35.2108 21.1629C35.2538 20.6149 35.6388 20.1949 36.1098 20.1509C36.6658 20.0979 37.1768 20.5289 37.2968 21.2439C37.2548 21.1509 37.2128 21.0569 37.1608 20.9409ZM34.7538 24.0539C35.6268 23.6119 36.6978 23.9339 37.2168 24.8279C36.4008 24.3999 35.6218 24.0849 34.7538 24.0539ZM35.8608 27.1569C35.3978 26.3759 34.8428 25.7409 34.0508 25.2529C35.1048 25.3259 35.9768 26.2429 35.8608 27.1569ZM34.6198 20.2839C34.5918 21.0139 34.5158 21.6809 34.3048 22.3369C33.8288 21.8729 33.9888 20.6499 34.6198 20.2839ZM32.6868 24.5039C32.5978 23.6879 33.2668 22.9659 33.9798 23.1109C33.7948 23.7459 33.2388 24.3449 32.6868 24.5039ZM33.8378 28.6059C33.6658 28.1459 33.5318 27.6919 33.3298 27.2709C33.1298 26.8529 32.8608 26.4689 32.6148 26.0579C33.6668 26.4779 34.2628 27.7139 33.8378 28.6059ZM34.3598 17.5689C34.4838 18.0649 34.5858 18.5549 34.5418 19.0589C34.1508 18.5969 34.0508 18.1019 34.3598 17.5689ZM33.7928 15.5769C33.8238 15.5709 33.8538 15.5659 33.8838 15.5599C33.9898 15.9239 34.0968 16.2889 34.2158 16.7009C33.7918 16.4199 33.6828 16.0979 33.7928 15.5769ZM32.8238 11.3479C33.0908 10.9609 33.3128 10.8919 33.7398 11.0669C33.4358 11.1609 33.1528 11.2469 32.8238 11.3479ZM33.5518 9.9309C33.3188 10.0029 33.0858 10.0739 32.7858 10.1659C33.0148 9.8629 33.2548 9.8129 33.5518 9.9309ZM32.1758 7.1419C32.1978 7.1249 32.2198 7.1079 32.2418 7.0899C32.5248 7.2429 32.6548 7.5039 32.6898 7.8339C32.5178 7.6029 32.3478 7.3729 32.1758 7.1419ZM32.9178 6.7999C32.7518 6.5249 32.5858 6.2499 32.4078 5.9549C32.7758 6.0689 32.9418 6.3239 32.9178 6.7999ZM33.7188 8.8249C33.4868 8.8479 33.3208 8.8639 33.1448 8.8819C33.3478 8.6219 33.3858 8.6149 33.7188 8.8249ZM33.3328 4.3139C33.3578 4.3499 33.3958 4.3779 33.3998 4.4109C33.4628 5.0199 33.5218 5.6299 33.5838 6.2649C33.2338 5.7729 33.1368 4.9929 33.3328 4.3139ZM34.0658 3.4509C34.5028 4.0439 34.4498 5.7939 33.9108 6.3019C34.0888 5.3279 34.2108 4.4229 34.0658 3.4509ZM35.2168 5.3009C35.1878 5.7989 34.7768 6.3899 34.2858 6.5929C34.6128 6.1399 34.9128 5.7229 35.2168 5.3009ZM34.6838 6.8069C34.8918 6.6099 35.0988 6.4139 35.3578 6.1689C35.1788 6.5009 34.9708 6.6929 34.6838 6.8069ZM34.5598 8.40691L35.3008 7.89591C35.1478 8.2029 34.9048 8.3849 34.5598 8.40691ZM34.6988 7.3309C34.7838 7.2409 34.8688 7.1509 35.0128 6.9989C34.9808 7.2369 34.8498 7.2919 34.7618 7.3779C34.7408 7.3619 34.7198 7.3469 34.6988 7.3309ZM35.2918 7.26291C35.1648 7.61291 34.9238 7.81591 34.5398 7.8399C34.7908 7.6479 35.0408 7.4559 35.2918 7.26291ZM35.2968 14.0639C35.0928 14.1729 34.8968 14.2599 34.7198 14.3779C34.5468 14.4929 34.3928 14.6379 34.1758 14.8159C34.3778 14.0879 34.7528 13.8459 35.2968 14.0639ZM35.7268 15.0989C35.3678 15.3369 35.0148 15.5689 34.6698 15.7969C34.7898 15.1619 35.2368 14.8769 35.7268 15.0989ZM30.2568 25.5109C30.1828 25.0869 30.3848 24.7489 30.7798 24.6319C31.2388 24.4979 31.6548 24.6379 32.1468 24.8789C31.4918 25.2219 30.8948 25.4239 30.2568 25.5109ZM30.3828 29.5669C30.4038 29.4839 30.4148 29.4379 30.4298 29.3799H30.0398C30.2378 29.2689 30.3678 29.1959 30.5478 29.0939C30.3768 29.0569 30.2478 29.0289 30.0218 28.9789C30.2888 28.8839 30.4738 28.8189 30.7198 28.7319C30.4518 28.6589 30.2458 28.6019 30.0398 28.5459C30.0408 28.5249 30.0418 28.5039 30.0428 28.4829C30.2238 28.4489 30.4038 28.4139 30.5838 28.3779C30.5858 28.3599 30.5878 28.3419 30.5908 28.3239C30.3878 28.2569 30.1848 28.1899 29.9828 28.1239C29.9818 28.0999 29.9808 28.0769 29.9798 28.0529C30.2008 28.0219 30.4208 27.9909 30.7278 27.9479C30.4118 27.8359 30.1668 27.7489 29.9228 27.6619C29.9258 27.6369 29.9288 27.6129 29.9318 27.5879H30.6078C30.6138 27.5589 30.6198 27.5299 30.6258 27.4999L29.9168 27.2479C29.9198 27.2279 29.9228 27.2089 29.9258 27.1879H30.5258C30.5308 27.1679 30.5358 27.1459 30.5408 27.1249C30.3208 27.0359 30.0998 26.9469 29.8798 26.8579C29.8848 26.8389 29.8898 26.8219 29.8948 26.8029C30.0368 26.7969 30.1788 26.7909 30.3198 26.7839C30.3258 26.7699 30.3308 26.7559 30.3368 26.7429C30.1688 26.6729 30.0008 26.6049 29.7638 26.5069C29.9338 26.4849 30.0308 26.4719 30.1778 26.4529C30.0108 26.3629 29.8868 26.2959 29.7338 26.2139C30.6118 26.2139 31.3758 26.7259 31.5578 27.3969C31.7978 28.2839 31.2208 29.1609 30.3828 29.5669ZM30.0098 30.8159C30.3848 30.8949 30.7608 30.9729 31.1358 31.0519C30.7078 31.2219 30.3118 31.2199 30.0098 30.8159ZM33.9538 32.6159C33.9678 32.6489 33.9808 32.6819 33.9938 32.7139C33.8408 32.7739 33.6888 32.8329 33.5358 32.8909C33.5198 32.8579 33.5048 32.8259 33.4898 32.7929C33.6438 32.7329 33.7988 32.6739 33.9538 32.6159ZM33.5668 33.2739C33.7648 33.0409 33.7648 33.0409 34.0558 33.1059C33.9058 33.1579 33.7558 33.2099 33.5668 33.2739ZM34.5888 32.0919C34.6048 32.1189 34.6198 32.1459 34.6358 32.1719C34.5488 32.2199 34.4618 32.2679 34.3748 32.3149C34.3608 32.2929 34.3468 32.2699 34.3328 32.2469C34.4178 32.1949 34.5038 32.1439 34.5888 32.0919ZM34.8828 30.4189C34.6318 30.4459 34.5388 30.3429 34.4588 30.0919C34.6308 30.2239 34.7388 30.3069 34.8828 30.4189ZM34.8358 29.9499C34.9318 30.0169 35.0298 30.0849 35.1258 30.1519C35.1118 30.1749 35.0978 30.1989 35.0838 30.2209C34.9808 30.1629 34.8788 30.1039 34.7768 30.0449C34.7958 30.0129 34.8158 29.9819 34.8358 29.9499ZM34.7298 32.3749C34.7368 32.3989 34.7438 32.4229 34.7508 32.4489L34.5348 32.5569L34.4978 32.5189C34.5298 32.4799 34.5568 32.4319 34.5968 32.4059C34.6328 32.3829 34.6848 32.3839 34.7298 32.3749ZM32.7828 32.4009C33.0948 32.4069 33.1478 32.5789 33.1458 32.8049C33.0378 32.6859 32.9318 32.5659 32.7828 32.4009ZM32.5708 32.6619C32.7988 32.6869 32.9118 32.8169 32.9628 33.1239C32.8018 32.9339 32.6928 32.8049 32.5708 32.6619ZM27.7208 25.2459C28.1888 24.6919 28.7308 24.7779 29.4698 25.5479C28.8158 25.5849 28.2668 25.4619 27.7208 25.2459ZM27.5668 23.3889C27.5378 23.2729 27.5198 23.1999 27.4978 23.1069C27.4318 23.1419 27.3698 23.1749 27.2778 23.2249C27.3058 23.0799 27.3278 22.9569 27.3628 22.7759C27.2178 22.8879 27.1128 22.9689 26.9318 23.1099C27.0358 22.8559 27.1078 22.6819 27.1788 22.5079C27.1638 22.4909 27.1498 22.4729 27.1358 22.4559C26.9608 22.5729 26.7858 22.6909 26.6118 22.8079C26.5908 22.7959 26.5698 22.7849 26.5488 22.7729C26.6678 22.5329 26.7858 22.2929 26.9338 21.9909C26.5898 22.1219 26.3148 22.2259 25.9548 22.3629C26.1038 22.0889 26.2128 21.8899 26.3218 21.6909C26.3028 21.6789 26.2828 21.6679 26.2638 21.6559C26.0238 21.7819 25.7848 21.9069 25.5448 22.0329L25.4928 21.9829C25.6218 21.7809 25.7518 21.5799 25.9318 21.2989C25.5758 21.4299 25.2988 21.5319 24.9628 21.6559C25.0318 21.5299 25.0768 21.4489 25.1388 21.3359C25.0148 21.3619 24.9198 21.3829 24.8168 21.4059C24.8198 21.3719 24.8138 21.3409 24.8248 21.3319C25.1018 21.0779 25.4268 20.9069 25.7868 20.8109C26.6678 20.5779 27.5208 21.1759 27.6768 22.1289C27.7368 22.4929 27.6998 22.9619 27.5668 23.3889ZM26.2538 28.7549C27.0258 27.9919 27.3728 27.1289 27.1678 26.0829C28.0448 27.0309 27.5808 28.4319 26.2538 28.7549ZM27.5118 30.8359C27.2038 30.9839 27.1958 30.9829 26.9698 30.7239C27.1438 30.7599 27.3168 30.7949 27.5118 30.8359ZM27.7298 31.3159C27.2548 31.5969 27.0338 31.5539 26.7068 31.1199C27.0378 31.0579 27.5418 31.1549 27.7298 31.3159ZM26.2728 31.5039C26.5868 31.3159 26.7418 31.3559 27.0538 31.7069C26.7278 31.8949 26.4618 31.8259 26.2728 31.5039ZM25.5658 31.0409C25.8058 30.8709 26.0478 30.6999 26.2758 30.5389C26.2668 30.8899 26.0038 31.0859 25.5658 31.0409ZM23.8218 27.3509C24.7968 27.0379 25.5318 26.4799 25.8488 25.4239C26.1728 26.4749 25.3978 27.6109 23.8218 27.3509ZM25.0358 29.1309C25.2898 28.9619 25.2898 28.9619 25.5278 29.0639C25.4008 29.2699 25.2458 29.2309 25.0358 29.1309ZM24.9928 29.4659C25.1738 29.4939 25.2848 29.5099 25.4728 29.5389C25.2098 29.6589 25.2098 29.6589 24.9928 29.4659ZM24.7888 29.8469C24.8078 29.8249 24.8268 29.8029 24.8458 29.7819C24.9278 29.8369 25.0108 29.8929 25.1298 29.9729C24.9018 30.0199 24.9018 30.0199 24.7888 29.8469ZM22.1728 25.8769C23.6468 25.6369 23.9258 25.3669 24.6318 24.4519C24.6238 25.6409 23.5868 26.4869 22.1728 25.8769ZM20.2018 23.5399C20.3788 23.5569 20.5568 23.5749 20.7738 23.5959C20.6778 23.4219 20.5988 23.2809 20.5208 23.1389L20.5598 23.0979C20.7178 23.2029 20.8748 23.3059 21.0938 23.4509C21.0188 23.1849 20.9618 22.9819 20.9038 22.7779C20.9208 22.7609 20.9378 22.7449 20.9548 22.7269C21.1058 22.8649 21.2578 23.0019 21.4088 23.1389C21.4218 23.1289 21.4348 23.1189 21.4488 23.1079C21.3798 22.9149 21.3118 22.7209 21.2228 22.4699C21.4858 22.5749 21.5608 22.8119 21.8008 22.9379C21.7018 22.6569 21.6158 22.4149 21.5308 22.1709C21.5458 22.1589 21.5618 22.1459 21.5778 22.1329C21.7748 22.2709 21.9708 22.4089 22.2178 22.5819C22.1608 22.2309 22.1138 21.9389 22.0668 21.6459C22.0858 21.6339 22.1058 21.6229 22.1248 21.6099C22.2668 21.7839 22.4088 21.9579 22.6048 22.1989C22.5698 21.8389 22.5428 21.5689 22.5158 21.2969C22.5468 21.2949 22.5778 21.2919 22.6088 21.2889C22.9388 21.8389 23.1288 22.4299 22.8388 23.0569C22.5638 23.6519 22.0378 23.9039 21.3908 23.9049C20.9658 23.9059 20.5608 23.8159 20.2018 23.5399ZM18.6918 19.6489C19.6768 19.6229 20.6638 19.6299 21.4208 18.7819C21.3168 19.4099 20.8068 19.8879 20.1688 19.9789C19.6448 20.0539 19.1598 19.9129 18.6918 19.6489ZM19.9898 27.4619C19.9268 27.8689 19.7638 28.2419 19.5168 28.5979C19.4588 28.5529 19.4108 28.4889 19.3568 28.4829C19.2918 28.4749 19.2208 28.5159 19.0788 28.5579C19.2108 28.3739 19.2988 28.2499 19.4288 28.0669C19.1988 28.1499 19.0258 28.2119 18.8538 28.2749C18.8428 28.2609 18.8318 28.2479 18.8208 28.2339L19.3618 27.7619C19.3428 27.7339 19.3248 27.7059 19.3068 27.6759C19.0618 27.7229 18.8178 27.7699 18.5738 27.8169C18.5648 27.7989 18.5568 27.7809 18.5478 27.7629C18.7438 27.6239 18.9408 27.4849 19.1378 27.3449C19.1318 27.3309 19.1258 27.3159 19.1198 27.3009L18.2908 27.4129C18.2828 27.3939 18.2738 27.3759 18.2658 27.3559C18.3828 27.2839 18.4998 27.2099 18.6178 27.1379C18.7278 27.0709 18.8398 27.0049 18.9378 26.8769C18.6658 26.9069 18.3948 26.9369 18.0678 26.9729C18.2328 26.7179 18.5218 26.7169 18.7198 26.4769C18.3848 26.5069 18.1088 26.5339 17.8328 26.5589C17.8278 26.5359 17.8238 26.5119 17.8188 26.4879C18.0378 26.3779 18.2568 26.2689 18.4748 26.1599C18.4708 26.1439 18.4668 26.1279 18.4618 26.1129C18.1738 26.1449 17.8868 26.1779 17.5988 26.2109C17.5908 26.1919 17.5818 26.1719 17.5738 26.1539C17.7408 26.0719 17.9068 25.9889 18.1648 25.8619C17.9678 25.8619 17.8628 25.8569 17.7588 25.8629C17.6548 25.8689 17.5508 25.8859 17.3518 25.9099C17.5358 25.7979 17.6438 25.7319 17.8138 25.6279H17.2238C17.8328 25.2619 18.7888 25.2909 19.3108 25.6809C19.9078 26.1259 20.0998 26.7459 19.9898 27.4619ZM16.9468 24.8789C17.1548 24.5169 17.3738 24.2059 17.7658 24.1759C18.1338 24.1479 18.3268 24.4459 18.5358 24.8139C18.0748 24.8449 17.6838 24.8749 17.2938 24.8979C17.1938 24.9029 17.0938 24.8869 16.9468 24.8789ZM19.4678 24.0099C19.5948 24.2059 19.6798 24.3369 19.7938 24.5119C19.5778 24.5709 19.4128 24.6159 19.1518 24.6879C19.2728 24.4269 19.3548 24.2539 19.4678 24.0099ZM18.2028 17.2649C19.2258 17.7259 20.1628 18.2089 21.2878 17.6499C20.3698 18.7039 19.0198 18.4199 18.2028 17.2649ZM21.3148 16.7769C20.3268 17.1889 19.2958 16.4899 19.2478 15.4169C20.2848 16.5629 20.2848 16.5629 21.3148 16.7769ZM23.2418 12.6399C23.2418 12.6359 23.2408 12.6339 23.2408 12.6299C23.2508 12.6279 23.2618 12.6259 23.2718 12.6239C23.3488 12.5789 23.4258 12.5329 23.5018 12.4879C23.5118 12.5129 23.5218 12.5399 23.5318 12.5649L23.2718 12.6239C23.2638 12.6279 23.2548 12.6329 23.2468 12.6379C23.2448 12.6389 23.2438 12.6399 23.2418 12.6399C23.2428 12.6919 23.2548 12.7249 23.2758 12.7459C23.3338 12.7979 23.4488 12.7679 23.5228 12.8129C23.5378 12.8219 23.5518 12.8339 23.5618 12.8499C23.4118 12.8969 23.2688 12.9429 23.0728 13.0039C23.2398 13.0619 23.3658 13.1059 23.5218 13.1609C23.3488 13.3259 23.1328 13.2369 22.8928 13.3369C23.1278 13.4459 23.3188 13.5339 23.5538 13.6409C23.2848 13.8179 23.0108 13.6949 22.7398 13.7959C22.9238 14.0579 23.2478 14.1499 23.4718 14.4369H22.7318C22.7228 14.4619 22.7148 14.4859 22.7068 14.5099C22.9458 14.6509 23.1838 14.7919 23.4228 14.9309C23.4198 14.9499 23.4178 14.9679 23.4148 14.9859H22.7458C22.7348 15.0109 22.7228 15.0369 22.7108 15.0619C22.9308 15.2409 23.1498 15.4199 23.4338 15.6499C23.2418 15.6339 23.1328 15.6259 22.9678 15.6129C23.1138 15.7279 23.2218 15.8119 23.3478 15.9119C22.5628 15.8389 21.8498 15.1309 21.8168 14.4169C21.7788 13.6039 22.4268 12.7969 23.2418 12.6399ZM22.6628 19.4019C22.3898 19.0579 22.1868 18.2419 22.2438 17.7099C22.8058 18.0279 22.9528 18.6249 22.6628 19.4019ZM22.5408 16.9989C22.9368 16.6039 23.5418 16.6409 24.1248 17.0959C23.6008 17.5339 23.0008 17.4619 22.5408 16.9989ZM24.2488 20.0889C24.2228 20.3999 24.1428 20.5969 23.8738 20.9909C23.6968 20.3989 23.7968 20.1789 24.2488 20.0889ZM23.1998 17.9859C23.4668 17.9369 23.6958 17.8959 23.8978 17.8589C23.9408 18.4159 23.9818 18.9439 24.0228 19.4739C23.7838 19.6599 23.5298 19.8569 23.2538 20.0709C23.1388 20.0159 23.1498 19.8889 23.1768 19.7589C23.2118 19.5919 23.2578 19.4269 23.2878 19.2599C23.3638 18.8459 23.4548 18.4309 23.1998 17.9859ZM24.6288 17.6739C24.8898 18.1719 24.7358 18.5879 24.6128 19.0039C24.3838 18.5829 24.4498 18.1649 24.6288 17.6739ZM27.6178 15.2879C26.7058 15.7119 25.9138 16.2119 25.2338 16.9739C25.4488 15.6689 26.7478 14.9209 27.6178 15.2879ZM28.6028 17.6139C27.5968 17.5949 26.6538 17.7369 25.6988 18.1369C26.4088 17.1189 27.9018 16.8519 28.6028 17.6139ZM25.9968 19.2529C26.8478 18.5699 28.3678 18.9299 28.8668 19.9639C27.9118 19.5229 27.0028 19.2599 25.9968 19.2529ZM23.0548 32.4249C23.0358 32.4009 23.0158 32.3779 22.9978 32.3529L23.2508 32.1419C23.2708 32.1679 23.2918 32.1929 23.3118 32.2179C23.2258 32.2879 23.1398 32.3559 23.0548 32.4249ZM22.8478 32.0669C22.9598 31.9879 23.0718 31.9089 23.1828 31.8309C23.1998 31.8519 23.2158 31.8739 23.2328 31.8949L22.9078 32.1529C22.8878 32.1249 22.8688 32.0949 22.8478 32.0669ZM21.7358 30.4459C21.7218 30.4199 21.7068 30.3949 21.6928 30.3709C21.7918 30.3079 21.8898 30.2459 21.9898 30.1839C22.0108 30.2139 22.0328 30.2449 22.0548 30.2749C21.9478 30.3319 21.8418 30.3889 21.7358 30.4459ZM21.9488 29.9459C21.8718 30.1549 21.7808 30.2099 21.6068 30.1329C21.7008 30.0829 21.7948 30.0309 21.9488 29.9459ZM15.0188 29.4859C15.4008 28.8739 15.6618 28.2989 15.7608 27.6589C15.8578 27.0269 15.7738 26.4109 15.6238 25.7519C16.8648 26.6639 16.5568 28.6189 15.0188 29.4859ZM14.7318 24.6519C15.0118 24.3419 15.2858 24.1489 15.6518 24.1019C15.8538 24.0759 16.0198 24.1569 16.1168 24.3319C16.1968 24.4749 16.2418 24.6369 16.3168 24.8299C15.7648 24.8609 15.2828 24.7849 14.7318 24.6519ZM12.5898 29.0689C13.5808 28.0119 13.9138 26.8139 13.7808 25.4629C14.7818 26.8149 14.2998 28.3789 12.5898 29.0689ZM12.4098 22.9139C12.3928 22.9889 12.3648 23.0639 12.3308 23.1339C12.2858 23.2259 12.2288 23.3119 12.1438 23.4579C11.8008 23.1079 11.5618 22.7639 11.4188 22.3159C11.7188 22.2929 11.9648 22.3629 12.1998 22.4679C12.4118 22.5639 12.4608 22.6799 12.4098 22.9139ZM11.9608 25.1829C11.9028 26.0709 11.3878 26.6629 10.6068 27.0289C10.1108 27.2609 9.65076 27.1339 9.29676 26.7119C9.07876 26.4519 8.95076 26.1749 8.87776 25.7649C9.12976 25.9899 9.33876 26.1759 9.61076 26.4199C9.55576 26.1399 9.51676 25.9449 9.47776 25.7489L9.54376 25.7189C9.66076 25.9119 9.77776 26.1049 9.89376 26.2979C9.91476 26.2949 9.93576 26.2899 9.95676 26.2849C9.90576 26.0059 9.85376 25.7279 9.80276 25.4499L9.86376 25.4199C10.0348 25.6429 10.2038 25.8669 10.3738 26.0899C10.3898 26.0819 10.4048 26.0719 10.4188 26.0629L10.2828 25.1839L10.3418 25.1519C10.5108 25.3389 10.6808 25.5269 10.9028 25.7719C10.8658 25.4379 10.8388 25.1879 10.8108 24.9379C10.8368 24.9299 10.8618 24.9209 10.8878 24.9139C11.0318 25.1199 11.1758 25.3259 11.3188 25.5319C11.3408 25.5249 11.3618 25.5179 11.3828 25.5109L11.3278 24.4449C11.3488 24.4389 11.3698 24.4319 11.3908 24.4249C11.4738 24.5959 11.5568 24.7669 11.6388 24.9379C11.6558 24.9379 11.6728 24.9379 11.6898 24.9389V23.8379C11.7158 23.8339 11.7418 23.8289 11.7668 23.8239C11.8018 23.8989 11.8608 23.9709 11.8688 24.0489C11.9108 24.4269 11.9858 24.8089 11.9608 25.1829ZM9.87276 30.8309C9.54576 30.7979 9.28476 30.6919 9.15276 30.4229C9.04276 30.1989 9.03976 29.9459 9.29676 29.7369C9.63776 30.0419 9.82676 30.3769 9.87276 30.8309ZM10.1778 29.8839C9.83576 29.7599 9.65676 29.5489 9.58676 29.2289C10.0098 29.2199 10.1778 29.3959 10.1778 29.8839ZM8.69376 29.5159C8.79176 29.2089 8.86776 28.9709 8.94276 28.7339C9.03476 29.0219 9.03576 29.2889 8.69376 29.5159ZM8.10176 24.3099C8.48076 24.1949 8.78476 24.1219 9.07376 24.0079C9.36476 23.8949 9.64976 23.7569 9.92276 23.6029C10.2048 23.4419 10.4698 23.2489 10.8158 23.0199C10.2618 24.0149 9.23776 24.5039 8.10176 24.3099ZM7.59076 28.4209C7.73276 28.2529 7.86876 28.1599 8.07076 28.3349C7.93476 28.5249 7.78576 28.5449 7.59076 28.4209ZM7.60976 28.9059C7.83076 28.7579 7.83076 28.7579 8.02476 28.9059H7.60976ZM7.41676 29.1929C7.58976 29.1139 7.67976 29.1629 7.74376 29.3269C7.58376 29.3949 7.49576 29.3429 7.41676 29.1929ZM10.2138 22.1519C9.41976 22.8459 7.97076 22.9129 7.37276 22.2769C8.34876 22.4669 9.28276 22.3929 10.2138 22.1519ZM8.49476 20.4519C8.78976 20.5919 9.09776 20.7109 9.40876 20.8099C9.70576 20.9059 10.0148 20.9629 10.3188 21.0379C9.25276 21.3089 8.19576 20.8949 7.64476 19.9619C7.97676 20.1559 8.22676 20.3239 8.49476 20.4519ZM9.14276 16.9369C9.22676 16.7499 9.35576 16.5829 9.46376 16.4069C9.49376 16.4209 9.52376 16.4359 9.55476 16.4499C9.50376 16.5789 9.45276 16.7079 9.36976 16.9149C9.53376 16.7759 9.63976 16.6859 9.74476 16.5969C9.75776 16.6069 9.76976 16.6179 9.78376 16.6279L9.53976 17.1779C9.55276 17.1859 9.56476 17.1939 9.57776 17.2019C9.71376 17.0549 9.85076 16.9089 9.98776 16.7619C10.0058 16.7739 10.0238 16.7859 10.0408 16.7969C9.99176 16.9799 9.94276 17.1619 9.89276 17.3439C9.91876 17.3639 9.94476 17.3819 9.97076 17.4019C10.0628 17.2569 10.1548 17.1129 10.2468 16.9679C10.2848 16.9929 10.3228 17.0179 10.3598 17.0429C10.2958 17.2079 10.2308 17.3729 10.1658 17.5369C10.1798 17.5519 10.1938 17.5669 10.2068 17.5829C10.3858 17.4269 10.5648 17.2719 10.7438 17.1169C10.7628 17.1259 10.7808 17.1339 10.7998 17.1429C10.7518 17.2889 10.7048 17.4339 10.6338 17.6509C10.8308 17.4889 10.9748 17.3719 11.1938 17.1929C11.1158 17.4129 11.0688 17.5429 10.9928 17.7559C11.2858 17.5639 11.5198 17.4099 11.7728 17.2429C11.6378 17.6039 11.1918 17.9729 10.7588 18.0929C10.2868 18.2239 9.84376 18.1429 9.43376 17.8889C9.06976 17.6639 8.96576 17.3359 9.14276 16.9369ZM12.7188 14.9139C13.0098 15.0209 13.3148 15.0889 13.6908 15.1979C12.7318 15.5209 12.0308 15.2569 11.8688 14.5249C12.1658 14.6629 12.4348 14.8079 12.7188 14.9139ZM14.1838 16.3719C14.3028 16.7529 14.2778 17.0569 14.2048 17.3569C14.1648 17.5239 14.0308 17.6199 13.8658 17.6489C13.5738 17.7019 13.2788 17.7429 12.9858 17.7879C12.9668 17.7479 12.9478 17.7069 12.9288 17.6659C13.3318 17.2499 13.7358 16.8339 14.1838 16.3719ZM15.5598 13.5629C14.7968 13.9179 13.9368 13.5989 13.8448 12.9279C14.4158 13.1399 14.9988 13.3559 15.5598 13.5629ZM13.8138 7.6109C13.4638 7.48691 13.1108 7.5559 12.7588 7.6079C12.5638 7.6359 12.3708 7.6809 12.1768 7.7129C11.5518 7.8179 10.9438 7.75791 10.3578 7.5119C10.2528 7.4669 10.1558 7.4049 9.99276 7.31691C10.1158 7.2619 10.1748 7.2139 10.2338 7.2139C10.2948 7.2129 10.3558 7.25691 10.4158 7.28291C11.0288 7.54691 11.6598 7.6019 12.3088 7.46091C12.5018 7.4189 12.6958 7.3789 12.8918 7.3539C13.2858 7.3019 13.6698 7.3109 14.0578 7.4459C14.6948 7.6669 15.3578 7.7749 16.0328 7.8009C16.3978 7.81591 16.7568 7.7989 17.0898 7.4649C17.0198 7.7729 16.8348 7.86291 16.6498 7.8909C16.3278 7.9389 15.9948 7.97491 15.6718 7.9539C15.0418 7.9119 14.4148 7.8249 13.8138 7.6109ZM9.13976 5.55191C9.53776 5.6939 9.63676 5.94191 9.73276 6.2749C9.37376 6.14591 9.24776 5.9179 9.13976 5.55191ZM10.2308 5.6339C10.3328 5.7979 10.3988 5.90191 10.5038 6.0699C10.2168 5.9539 10.2168 5.9539 10.2308 5.6339ZM10.9278 5.6889C10.9848 5.7729 11.0418 5.8569 11.0988 5.9409C11.0688 5.9619 11.0378 5.9829 11.0068 6.0039C10.9498 5.9199 10.8928 5.8359 10.8358 5.7519C10.8668 5.7309 10.8968 5.7099 10.9278 5.6889ZM14.5058 6.0759C14.3058 5.9519 14.2598 6.1949 14.1258 6.23691C14.0918 5.9159 14.1728 5.7889 14.4228 5.74991C14.6978 5.7059 14.9148 5.8509 14.9428 6.0939C14.9688 6.3199 14.8428 6.46191 14.5418 6.5179C14.5728 6.3649 14.7138 6.2059 14.5058 6.0759ZM14.1898 5.5849C14.2988 5.3249 14.4048 5.2579 14.7018 5.2599C15.0418 5.2629 15.2738 5.4079 15.3858 5.6869C15.5088 5.9949 15.4358 6.2709 15.1198 6.5589C15.3568 5.7739 15.1888 5.2559 14.1898 5.5849ZM13.9288 4.8459C14.1498 4.7629 14.3878 4.7349 14.5348 4.6049C14.7368 4.4249 14.9778 4.7479 15.1158 4.4879C15.2188 4.5609 15.1468 4.7599 15.3538 4.7059C15.5178 4.6619 15.5538 4.9869 15.7648 4.8869C15.7568 5.0839 16.0788 5.0029 16.0518 5.2259C16.0488 5.2509 16.1178 5.2919 16.1588 5.3159C16.4308 5.4699 16.5638 5.7469 16.7998 5.9909C16.4318 6.0369 16.2058 5.8729 16.0078 5.6519C15.7218 5.3319 15.3818 5.1019 14.9668 4.9719C14.6188 4.8639 14.3208 4.8999 14.0728 5.1839C14.0488 5.2119 14.0118 5.2299 13.9788 5.2489C13.9688 5.2539 13.9528 5.2499 13.9288 5.2499V4.8459ZM17.3248 10.8569C17.2878 10.9549 17.2518 11.0509 17.1918 11.2129C17.4258 11.0369 17.6148 10.8939 17.8388 10.7239C17.5118 11.5259 16.5768 12.0219 15.8088 11.8409C15.2628 11.7119 15.0578 11.3469 15.2288 10.8039C15.2598 10.7049 15.3008 10.6069 15.3468 10.5119C15.3728 10.4569 15.4188 10.4099 15.4918 10.3109C15.5038 10.4679 15.5118 10.5689 15.5218 10.6899C15.5898 10.6449 15.6488 10.6059 15.7088 10.5659C15.7168 10.5789 15.7298 10.5899 15.7288 10.5999C15.7088 10.7259 15.6868 10.8519 15.7068 11.0009C15.8008 10.8749 15.8938 10.7479 15.9878 10.6219C16.0108 10.6259 16.0328 10.6289 16.0558 10.6329C16.0338 10.8239 16.0128 11.0129 15.9818 11.2919C16.1508 11.0529 16.2688 10.8859 16.3868 10.7199C16.4018 10.7249 16.4168 10.7309 16.4318 10.7369C16.4108 10.8979 16.3898 11.0599 16.3568 11.3079C16.5148 11.1429 16.6158 11.0369 16.7178 10.9299C16.7378 10.9359 16.7578 10.9429 16.7778 10.9489C16.7378 11.0729 16.6978 11.1959 16.6578 11.3199C16.6698 11.3349 16.6818 11.3499 16.6938 11.3649L17.2788 10.8369C17.2938 10.8439 17.3088 10.8499 17.3248 10.8569ZM16.7128 14.0279C16.9938 13.6729 17.2548 13.3409 17.5568 12.9589C17.6918 13.7629 17.4818 13.9969 16.7128 14.0279ZM15.5208 15.7819C15.3308 15.8249 15.1348 15.8389 14.8788 15.8759C14.9308 15.7769 14.9398 15.7369 14.9658 15.7129C15.3128 15.3959 15.6628 15.0819 16.0158 14.7629C16.1968 15.2399 15.9838 15.6759 15.5208 15.7819ZM11.9478 21.2489C11.7648 21.4349 11.5598 21.5869 11.2788 21.6899C11.1588 21.1919 11.2668 20.7579 11.4058 20.2559C11.6758 20.4449 11.8488 20.6329 11.9868 20.8559C12.0738 20.9949 12.0658 21.1289 11.9478 21.2489ZM12.5188 19.5309C12.2538 19.6469 11.9798 19.7179 11.6378 19.6539C11.8548 19.1579 12.1188 18.7299 12.4518 18.3059C12.6588 18.5889 12.7198 18.8779 12.7308 19.1809C12.7368 19.3389 12.6658 19.4659 12.5188 19.5309ZM13.7488 23.6189C14.0168 23.7259 14.1218 23.9999 14.1038 24.5129C13.5638 24.3659 13.0858 24.1729 12.5968 23.8329C12.9958 23.6029 13.3458 23.4569 13.7488 23.6189ZM7.28076 31.6859L7.29776 31.7559C7.19576 31.7889 7.09376 31.8199 6.99176 31.8509C6.97976 31.8199 6.96776 31.7889 6.95476 31.7559L7.28076 31.6859ZM7.41776 32.1349C7.34076 32.1469 7.26476 32.1589 7.18676 32.1689C7.17676 32.1699 7.16476 32.1559 7.13676 32.1399C7.16076 32.1079 7.16576 32.0889 7.17476 32.0879C7.24776 32.0799 7.32076 32.0709 7.39376 32.0689C7.40176 32.0689 7.40976 32.1119 7.41776 32.1349ZM5.07476 28.6819C5.18076 28.5539 5.26476 28.4509 5.37076 28.3229C5.36876 28.6229 5.36876 28.6229 5.07476 28.6819ZM5.09076 30.5489C5.05176 30.4679 5.01176 30.3869 4.97276 30.3059C5.00276 30.2949 5.03276 30.2819 5.06276 30.2689L5.15076 30.5239C5.13076 30.5319 5.11076 30.5409 5.09076 30.5489ZM4.80476 28.4209C4.90676 28.3029 4.99676 28.1969 5.10176 28.0749C5.12276 28.3729 5.11476 28.3809 4.80476 28.4209ZM4.76576 29.6449C4.70576 29.4689 4.66176 29.3389 4.61476 29.1989C4.84176 29.3309 4.84376 29.3309 4.76576 29.6449ZM4.78876 30.6529C4.72276 30.5579 4.65776 30.4639 4.59276 30.3699C4.62276 30.3499 4.65476 30.3309 4.68576 30.3099C4.74376 30.4099 4.80176 30.5079 4.85976 30.6069C4.83576 30.6229 4.81176 30.6369 4.78876 30.6529ZM4.44276 29.5959C4.39276 29.4669 4.34276 29.3369 4.29176 29.2089C4.32576 29.1969 4.35876 29.1839 4.39176 29.1709C4.43676 29.3019 4.48276 29.4329 4.52876 29.5639C4.49976 29.5749 4.47176 29.5859 4.44276 29.5959ZM6.37076 19.1159C6.39176 19.2659 6.40176 19.3389 6.41876 19.4559C6.24776 19.3639 6.25976 19.2879 6.37076 19.1159ZM5.93176 19.4159C5.81176 19.2609 5.80176 19.1359 6.03876 19.0099C5.99276 19.1869 5.96176 19.3009 5.93176 19.4159ZM5.42576 19.0349C5.41776 19.0009 5.41076 18.9659 5.40276 18.9309C5.48776 18.8399 5.57876 18.7769 5.78376 18.9189C5.62276 18.9709 5.52376 19.0039 5.42576 19.0349ZM5.74276 20.8879C5.52476 20.6509 5.49476 20.4299 5.46476 20.1519C5.74476 20.3409 5.79776 20.5619 5.74276 20.8879ZM4.82776 19.1679C4.98676 19.3129 5.12676 19.4419 5.26276 19.5669C4.87776 19.6249 4.77576 19.5359 4.82776 19.1679ZM5.19076 21.1619C4.95076 20.7859 4.93576 20.7149 5.00176 20.2969C5.24876 20.4759 5.31176 20.7649 5.19076 21.1619ZM4.39576 21.2339C4.06076 20.4949 4.05276 20.1419 4.46076 19.9899C4.74376 20.3259 4.73176 20.6419 4.39576 21.2339ZM3.85476 15.5619C4.01576 15.5789 4.13476 15.5899 4.32576 15.6099C4.11476 15.7669 3.99576 15.7659 3.85476 15.5619ZM4.26176 15.3399C4.04176 15.4349 4.04176 15.4349 3.90576 15.2689C4.01376 15.2909 4.12076 15.3119 4.26176 15.3399ZM2.98876 17.7209C3.22776 17.6799 3.34776 17.7519 3.43476 18.0179C3.25976 17.9019 3.14376 17.8249 2.98876 17.7209ZM2.82976 18.0309C3.07376 18.0119 3.21276 18.0599 3.24476 18.3309C3.09476 18.2209 2.98076 18.1389 2.82976 18.0309ZM2.61276 16.2799L2.54576 16.2239C2.60176 16.1629 2.65876 16.1019 2.71476 16.0409C2.73076 16.0529 2.74676 16.0669 2.76276 16.0799C2.71276 16.1459 2.66276 16.2119 2.61276 16.2799ZM2.30176 16.1009C2.27876 16.0809 2.25676 16.0589 2.23376 16.0379C2.29076 15.9679 2.34876 15.8999 2.40676 15.8309C2.44076 15.8689 2.47476 15.9069 2.50876 15.9439C2.43976 15.9969 2.37076 16.0489 2.30176 16.1009ZM12.1418 9.84991C12.0838 9.81291 12.0268 9.7759 11.9698 9.73991C11.9838 9.71791 11.9978 9.69791 12.0128 9.67591C12.0698 9.71191 12.1268 9.74691 12.1838 9.78191C12.1698 9.8049 12.1558 9.8279 12.1418 9.84991ZM11.7268 10.0849C11.6458 10.0429 11.5638 9.9999 11.4828 9.9579L11.5488 9.8459C11.6248 9.8959 11.7018 9.9449 11.7778 9.9939L11.7268 10.0849ZM11.2418 10.3199C11.1608 10.2799 11.0818 10.2399 10.9848 10.1909C11.1528 10.0439 11.1908 10.2079 11.2808 10.2189C11.2678 10.2529 11.2548 10.2869 11.2418 10.3199ZM7.73176 5.3529C7.60376 5.38791 7.45876 5.36191 7.32076 5.36191C7.30176 5.3279 7.28376 5.2939 7.26476 5.2599C7.34276 5.1479 7.40276 5.0149 7.50476 4.9329C7.56576 4.8839 7.70476 4.8859 7.78476 4.92091C7.84876 4.9509 7.92176 5.0719 7.90976 5.1369C7.89376 5.2199 7.80876 5.3309 7.73176 5.3529ZM18.6578 10.8979C18.6848 10.8959 18.7118 10.8939 18.7388 10.8919C18.8098 11.0799 18.8948 11.2629 18.9448 11.4559C18.9618 11.5229 18.9148 11.6479 18.8568 11.6869C18.6488 11.8299 18.4238 11.9459 18.2048 12.0729L18.1488 12.0079C18.3188 11.6379 18.4888 11.2679 18.6578 10.8979ZM20.0148 9.8029C19.9478 9.7129 19.8918 9.6369 19.8028 9.5179C20.1158 9.5439 20.3718 9.5699 20.6528 9.7789C20.2308 9.9029 19.8618 10.0119 19.4928 10.1219C19.4818 10.0949 19.4708 10.0679 19.4598 10.0419C19.6338 9.9659 19.8078 9.8919 20.0148 9.8029ZM19.6788 6.4649C20.1888 6.5429 20.6998 6.6209 21.2278 6.7019C20.9458 6.9499 20.2828 7.1289 19.7898 7.0779C19.9868 6.9789 20.1378 6.9009 20.3318 6.8029C20.0758 6.7039 19.8658 6.6229 19.6548 6.5409L19.6788 6.4649ZM21.2308 8.6219C20.9358 8.7909 20.5228 8.8669 20.0378 8.8209C20.2158 8.7299 20.3428 8.6629 20.4698 8.5979C20.2338 8.4139 20.0068 8.2359 19.7798 8.0589C19.7958 8.03391 19.8128 8.00791 19.8288 7.9829C20.2968 8.1959 20.7648 8.4099 21.2308 8.6219ZM36.0538 14.2169C35.6578 13.6269 35.2768 13.0249 34.9068 12.4179C34.5348 11.8089 34.2288 11.1679 34.0458 10.4729C33.9488 10.1029 33.8778 9.7299 33.9408 9.3369C34.0768 9.2519 34.2178 9.1779 34.3418 9.0819C34.7768 8.7419 35.2228 8.4139 35.6298 8.0439C35.9548 7.7479 36.1638 7.3609 36.2468 6.9179C36.2878 6.6989 36.2788 6.4909 36.1618 6.2599C35.9288 6.5089 35.7098 6.7079 35.3298 6.6869C35.9628 5.8639 36.1418 4.9969 35.8078 3.9709C35.6488 4.1479 35.5368 4.2739 35.4238 4.3979C35.3148 4.5179 35.2048 4.6369 35.0968 4.7569C35.0708 4.7459 35.0458 4.7349 35.0198 4.7239C35.0818 3.7039 34.9488 2.7379 34.3328 1.9089C34.0408 2.3909 33.7678 2.8399 33.4968 3.2899C33.2298 3.7319 32.9638 4.1739 32.6948 4.6219C32.6018 4.4569 32.5148 4.30391 32.4118 4.1209C32.1668 4.49391 32.1168 4.8629 32.0598 5.2249C32.0018 5.5959 31.9818 5.9739 31.9418 6.3789C31.5768 6.2649 31.4928 5.9159 31.2018 5.6449C31.2018 5.9019 31.1618 6.0919 31.2098 6.2549C31.2918 6.5289 31.4038 6.8019 31.5508 7.0469C31.7118 7.3159 31.9158 7.5629 32.1238 7.7999C32.3878 8.10291 32.5148 8.4459 32.5328 8.8439C32.5498 9.2439 32.5048 9.6319 32.3628 10.0069C32.3378 10.0759 32.2978 10.1509 32.2428 10.1939C31.7268 10.5959 31.6478 10.8959 31.9408 11.4789C32.0158 11.6299 32.0468 11.7669 32.0138 11.9309C31.9538 12.2199 32.0278 12.4889 32.2268 12.6999C32.3638 12.8439 32.4068 12.9939 32.4328 13.1859C32.4608 13.3979 32.5498 13.6199 32.6708 13.7949C32.7808 13.9529 32.8758 14.0749 32.8408 14.2849C32.7998 14.5309 32.9078 14.7489 33.0708 14.9339C33.1468 15.0209 33.2278 15.1039 33.2958 15.1759C33.1098 16.1179 33.1418 16.2979 33.6808 17.0429C33.7878 17.1899 33.8108 17.3179 33.7548 17.4789C33.5418 18.0879 33.5968 18.6679 33.9358 19.2229C34.0498 19.4089 34.1248 19.6189 34.2138 19.8099C33.3238 20.5779 33.4098 21.5199 33.6528 22.5079C32.7138 22.7019 32.3098 23.3819 32.0908 24.1909C31.7568 24.1369 31.4608 24.0719 31.1608 24.0449C30.8408 24.0169 30.5138 24.0689 30.2628 24.2779C30.0398 24.4629 29.8668 24.7099 29.6598 24.9419C29.1778 24.5449 28.6738 24.1799 27.8968 24.4309C28.0278 24.2249 28.1018 24.1059 28.1778 23.9879C28.8998 22.8719 29.3388 21.6589 29.4188 20.3259C29.5468 18.1879 28.9648 16.2329 27.8678 14.4209C27.6108 13.9979 27.2898 13.5999 26.9438 13.2439C25.7558 12.0179 24.2948 11.4729 22.6038 11.7319C19.0118 12.2819 16.5858 15.9569 17.4668 19.4829C17.7848 20.7539 18.3518 21.9309 18.9548 23.0889C19.0278 23.2269 19.0988 23.3649 19.1698 23.5009C19.0278 23.7139 18.9018 23.9059 18.7748 24.0979C18.0968 23.5569 17.6998 23.3119 16.7178 24.1739C16.1268 23.4299 15.7198 23.3509 14.6358 23.9269C14.5068 23.6079 14.3748 23.2579 14.0238 23.1479C13.6968 23.0449 13.3418 23.0289 12.9898 22.9719C12.9138 22.2409 12.9138 22.2409 12.1978 21.8469C12.7908 20.9959 12.6838 21.0759 12.2578 20.2049C12.6448 20.0829 13.0528 19.9839 13.2138 19.5409C13.3608 19.1339 13.2048 18.7449 13.1378 18.3379C13.4218 18.2889 13.6838 18.2589 13.9358 18.1939C14.5018 18.0479 14.7298 17.7789 14.7878 17.2009C14.8118 16.9549 14.8118 16.7059 14.8248 16.4409C15.0818 16.4029 15.3298 16.3769 15.5738 16.3299C16.2288 16.2019 16.4968 15.9199 16.6028 15.2559C16.6368 15.0519 16.6638 14.8469 16.6928 14.6479C16.8998 14.5979 17.0778 14.5559 17.2568 14.5129C17.8108 14.3789 18.1188 14.0339 18.1488 13.4579C18.1568 13.2989 18.1568 13.1409 18.1628 12.9839C18.1678 12.8809 18.1768 12.7799 18.1818 12.6949C18.4548 12.5519 18.7058 12.4349 18.9428 12.2949C19.5348 11.9409 19.6258 11.6669 19.3858 11.0099C19.3238 10.8419 19.2538 10.6769 19.1628 10.4499C19.6998 10.4549 20.1258 10.2709 20.5308 10.0199C20.6168 9.9669 20.7318 9.9619 20.8318 9.9309C20.9148 9.9059 20.9958 9.87491 21.1488 9.82191C20.8678 9.6229 20.6348 9.4589 20.4018 9.2949C21.2148 9.2519 21.8628 8.8399 22.6448 8.5249C22.1628 8.4069 21.7598 8.3469 21.3868 8.2059C20.9458 8.0399 20.5698 7.68391 20.4628 7.4429C21.4938 7.46691 22.3398 7.0739 22.5888 6.4729C22.3078 6.4419 22.0188 6.4289 21.7378 6.3759C21.3828 6.3079 21.0358 6.2989 20.6798 6.3599C20.5048 6.3899 20.2948 6.3969 20.1398 6.3269C19.5788 6.0789 19.0348 5.7929 18.4918 5.5249C18.5778 5.1729 18.6718 5.0639 18.9538 5.0449C19.1758 5.0309 19.4018 5.0499 19.6228 5.0759C20.1978 5.1419 20.7728 5.2169 21.3468 5.2969C21.6108 5.3339 21.8408 5.2559 22.0598 5.1249C22.1698 5.0589 22.2378 4.9669 22.1698 4.8289C22.0838 4.6549 21.8118 4.5449 21.6318 4.6159C21.5588 4.6449 21.4948 4.6979 21.4218 4.7229C21.1678 4.8109 20.9028 4.7659 20.8408 4.6329C20.7828 4.5079 20.8748 4.2769 21.0888 4.1369C21.3068 3.9929 21.5458 3.8769 21.7858 3.7729C22.2328 3.5779 22.6908 3.4109 23.1348 3.2119C23.3118 3.1319 23.4748 3.0109 23.6228 2.8839C23.7608 2.7649 23.7548 2.6079 23.6458 2.4579C23.2878 1.9629 22.5418 1.8949 22.1228 2.3459C21.9198 2.5659 21.7698 2.8349 21.5958 3.0819C21.4898 3.2329 21.3958 3.3939 21.2738 3.5299C21.1458 3.6719 20.9898 3.7079 20.8018 3.5299C20.9298 3.2979 21.0568 3.0659 21.1828 2.8369C20.8368 2.6449 20.6168 2.6559 20.3768 2.9319C20.1638 3.1779 19.9818 3.4599 19.8318 3.7489C19.6738 4.0549 19.4388 4.2349 19.1268 4.3369C18.6428 4.4969 18.1458 4.5419 17.6438 4.4819C17.2738 4.4369 16.9198 4.3319 16.6388 4.0639C16.3488 3.7889 16.3448 3.4879 16.6288 3.2049C16.6938 3.1409 16.7668 3.0809 16.8448 3.0329C17.3828 2.7059 17.9568 2.5669 18.5848 2.6919C18.7648 2.7279 18.9498 2.7789 19.1298 2.7709C19.2768 2.7639 19.4388 2.7059 19.5588 2.6219C19.6948 2.5259 19.7478 2.3469 19.6558 2.1959C19.5698 2.0569 19.4228 2.1249 19.2988 2.1719C19.2858 2.1769 19.2748 2.1829 19.2618 2.1859C19.1128 2.2159 18.9328 2.3139 18.8428 2.1219C18.7538 1.9299 18.8968 1.8019 19.0438 1.6989C19.1398 1.6309 19.2428 1.5699 19.3418 1.5049C19.5498 1.3659 19.7688 1.2409 19.9608 1.0829C20.0998 0.967905 20.2238 0.822905 20.3168 0.668905C20.4248 0.490905 20.3688 0.284905 20.2158 0.128905C20.0748 -0.0160953 19.9188 -0.0460953 19.7138 0.0759047C19.5568 0.168905 19.4028 0.281905 19.2848 0.417905C18.9918 0.755905 18.7228 1.1139 18.4408 1.4619C18.3288 1.6009 18.2518 1.7839 18.0058 1.8169C17.9598 1.7319 17.9018 1.6489 17.8698 1.5549C17.8408 1.4689 17.8458 1.3729 17.8258 1.2829C17.7928 1.1309 17.7898 0.941905 17.5828 0.923905C17.3498 0.902905 17.3238 1.1099 17.2688 1.2659C17.2248 1.3889 17.1918 1.5189 17.1738 1.6489C17.1078 2.1389 16.8228 2.4029 16.3578 2.5479C15.3858 2.8539 14.3948 3.0559 13.3818 3.1399C12.9108 3.1789 12.5538 3.3779 12.2878 3.7539C12.1818 3.9039 12.0738 4.0569 11.9958 4.2229C11.8218 4.5979 11.5208 4.7879 11.1288 4.8169C10.4868 4.8649 9.84276 4.8869 9.19876 4.9149C9.11476 4.9179 9.02976 4.8879 8.94476 4.8739C9.03876 4.3439 9.25976 4.1079 9.76476 4.0329C10.6428 3.9029 11.4308 3.5489 12.1698 3.0779C12.3998 2.9319 12.6178 2.7489 12.8018 2.5479C13.0938 2.2289 13.0448 1.9859 12.6768 1.7139C12.8728 2.1509 12.8448 2.2789 12.4638 2.6129C12.3548 2.7079 12.2408 2.7989 12.1188 2.8759C11.3788 3.3449 10.6058 3.7359 9.72176 3.8449C9.21876 3.9069 8.91076 4.1849 8.76176 4.6589C8.73576 4.7399 8.69076 4.81591 8.63976 4.9239C8.50376 4.8109 8.39876 4.7149 8.28576 4.6309C7.99976 4.4199 7.69476 4.3479 7.36076 4.5149C6.63776 4.8759 6.38576 5.7449 6.80476 6.4349C7.22276 7.1239 7.92776 7.4989 8.53976 8.0879C8.55376 7.78291 8.56276 7.5689 8.57576 7.2909C8.85576 7.5049 9.08676 7.6829 9.33876 7.8759C9.37276 7.7659 9.39276 7.6909 9.42076 7.6189C9.45076 7.5379 9.48676 7.4589 9.53276 7.3509C10.4948 8.18991 11.6218 8.0879 12.8178 7.9749C12.1508 8.5719 11.4758 8.9899 10.7058 9.2549C10.3118 9.3909 9.92876 9.3529 9.55076 9.1979C9.47176 9.1649 9.39476 9.1249 9.28376 9.0709C9.32376 9.3279 9.35776 9.5419 9.39076 9.7549L9.33676 9.7879C9.14476 9.5869 8.95276 9.3839 8.71776 9.1359C8.71776 9.5689 8.71476 9.9199 8.71876 10.2689C8.72076 10.5049 8.82476 10.6969 8.99276 10.8619C9.59976 11.4589 10.2848 11.9429 11.0588 12.2979C11.1608 12.3449 11.2748 12.3669 11.4548 12.4209C11.2688 12.1219 11.1238 11.8869 10.9278 11.5709C11.4008 11.6919 11.7758 11.7879 12.1758 11.8899C12.1008 11.6179 11.8438 11.4869 11.7998 11.2039C12.1448 11.2619 12.4548 11.3159 12.7948 11.3739C12.7218 11.1609 12.6688 11.0059 12.6038 10.8149C12.8658 10.8619 13.0778 10.8999 13.3178 10.9439C13.2648 10.7579 13.2238 10.6119 13.1718 10.4299C13.2818 10.4379 13.3568 10.4439 13.4318 10.4499C13.5168 10.4549 13.6018 10.4599 13.7088 10.4659C13.6638 10.2569 13.6278 10.0839 13.5878 9.8939C14.0178 9.8119 14.4088 9.7169 14.8718 9.71091C14.8348 9.8849 14.8228 10.0129 14.7808 10.1299C14.5468 10.7949 14.2538 11.4249 13.7258 11.9149C13.3788 12.2379 13.0358 12.5669 12.6658 12.8629C12.1618 13.2659 11.6328 13.6369 11.1188 14.0269C9.41876 15.3149 7.93076 16.7849 7.01876 18.7559C6.98176 18.8369 6.87176 18.9349 6.79576 18.9349C6.41176 18.9359 6.02376 18.9179 5.74676 18.5879C5.55976 18.3679 5.37276 18.1459 5.19176 17.9199C4.97776 17.6529 4.78676 17.3649 4.55576 17.1149C4.43176 16.9819 4.40776 16.8589 4.41276 16.6929C4.42576 16.2339 4.45276 15.7709 4.41676 15.3149C4.37476 14.7769 3.92576 14.1799 3.42976 13.9049C3.71376 14.9599 3.71976 15.0789 3.49076 15.6049C3.39576 15.3849 3.29676 15.2009 3.23676 15.0049C3.06276 14.4459 2.65676 14.1139 2.15576 13.8719C1.98176 13.7879 1.80176 13.6989 1.54676 13.8509C2.22576 14.2969 2.42076 15.0179 2.73376 15.6729C2.54776 15.5659 2.39276 15.4299 2.22676 15.3099C1.73776 14.9569 1.19976 14.8269 0.621756 15.0399C0.399756 15.1209 0.206756 15.2819 -0.000244141 15.4069V15.8019C0.0427559 15.7749 0.0957559 15.7559 0.126756 15.7189C0.366756 15.4329 0.507756 15.3869 0.836756 15.5259C0.981756 15.5869 1.11776 15.6699 1.25076 15.7539C1.58476 15.9649 1.90976 16.1909 2.24676 16.3949C2.63476 16.6289 2.84576 16.9409 2.76276 17.4099C2.73776 17.5519 2.73476 17.6989 2.70676 17.8399C2.63476 18.2159 2.52776 18.2939 2.14076 18.2789C1.94476 18.2719 1.74776 18.2779 1.55176 18.2779C1.75076 18.4349 1.95276 18.5299 2.15276 18.6279C2.76076 18.9249 3.13476 18.8329 3.54676 18.2809C3.55976 18.2629 3.59276 18.2619 3.63376 18.2479C4.00276 18.4719 4.23476 18.8059 4.36576 19.2249C4.44376 19.4739 4.45176 19.6669 4.19176 19.8339C3.91576 20.0119 3.79676 20.2799 3.92376 20.6229C4.09876 21.0969 4.28576 21.5709 4.22676 22.1009C4.77376 21.9569 4.60876 21.4159 4.82276 21.1189C5.20076 21.3389 4.94676 21.6729 4.99276 21.9319C5.34376 21.7399 5.51876 21.4389 5.53476 20.9939C5.68676 21.1339 5.79376 21.2339 5.96476 21.3919C5.99876 20.9739 6.02776 20.6269 6.05876 20.2429C6.22476 20.3049 6.38976 20.3659 6.55076 20.4259C6.53476 20.6759 6.51176 20.8849 6.50776 21.0949C6.48676 22.2459 6.72276 23.3449 7.16676 24.4029C7.22676 24.5459 7.29976 24.6769 7.20976 24.8479C7.03176 25.1889 7.03676 25.5479 7.09776 25.9259C7.23176 26.7579 7.34976 27.5939 7.30776 28.4419C7.27976 29.0109 6.87976 29.5389 6.34676 29.7129C6.28876 29.7329 6.21976 29.7159 6.12176 29.7159C6.03576 29.4169 5.95376 29.1139 5.85976 28.8159C5.59476 27.9709 4.94176 27.4549 4.06976 27.3929C3.86476 27.3779 3.67376 27.4119 3.52276 27.5639C3.33976 27.7499 3.20476 27.9619 3.11076 28.2449C3.86676 27.9259 4.51576 28.1659 4.76876 28.8369C4.70476 28.8489 4.64476 28.8649 4.58376 28.8739C4.23176 28.9199 3.87676 28.9509 3.52676 29.0099C3.03276 29.0949 2.80576 29.3709 2.76076 29.9369C2.87776 29.8389 2.97776 29.7599 3.07276 29.6759C3.23776 29.5299 3.42576 29.5039 3.62676 29.5709C4.04676 29.7119 4.46476 29.8619 4.92576 30.0219C4.80576 30.0679 4.71176 30.0999 4.61976 30.1379C4.26876 30.2849 3.90176 30.4029 3.57176 30.5869C3.14976 30.8239 2.97576 31.2639 3.07176 31.7169C3.47476 31.3319 3.93176 31.0519 4.46976 30.9289C5.46876 30.6999 5.80976 30.6919 6.56276 31.7659C6.87176 32.2069 6.76876 32.8329 6.37176 33.2029C6.31076 33.2589 6.25276 33.3189 6.18176 33.3879C6.47276 33.4969 6.72876 33.5289 6.97876 33.3869C7.58476 33.0429 7.81076 32.2389 7.46976 31.6319C7.35976 31.4369 7.22276 31.2569 7.11776 31.0599C6.96776 30.7769 6.99976 30.6339 7.25176 30.4489C7.62176 30.1739 8.04376 30.0539 8.49576 30.0349C8.52776 30.0849 8.55676 30.1139 8.56876 30.1489C8.74976 30.6579 9.02676 31.0629 9.59776 31.1989C9.81076 31.2499 9.91376 31.4209 9.89776 31.6509C9.89276 31.7249 9.89676 31.7999 9.89676 31.8829C10.2168 31.7519 10.2988 31.6669 10.2708 31.3559C10.2378 30.9829 10.1568 30.6149 10.0928 30.2269C10.1938 30.3199 10.2908 30.4079 10.4028 30.5109C10.5908 30.0799 10.3788 29.7339 10.2758 29.3749C10.1548 28.9529 9.76376 28.8859 9.38676 28.7289C9.44476 28.4339 9.50076 28.1479 9.57076 27.7919C9.74676 27.9319 9.85776 28.0199 9.96876 28.1079C11.3708 29.2169 12.9448 29.8809 14.7458 29.9729C16.2328 30.0489 17.6888 29.8449 19.1308 29.5109C20.4308 29.2109 21.6878 28.7819 22.9008 28.2239C23.0378 28.1609 23.1668 28.0619 23.3408 28.1709C23.7318 28.4169 24.1388 28.6339 24.5288 28.8779C24.8138 29.0559 24.8508 29.4769 24.6018 29.6869C24.2268 30.0039 23.8138 30.2599 23.3408 30.4079C22.9448 30.5309 22.5838 30.4619 22.2788 30.1719C22.1548 30.0539 22.0398 29.9259 21.9228 29.8009C21.5788 29.4319 21.1248 29.3649 20.6578 29.3589C20.5468 29.3569 20.4358 29.4439 20.2638 29.5149C20.8388 29.6429 21.3678 30.1209 21.3958 30.4889C21.0738 30.4359 20.7538 30.3729 20.4308 30.3349C19.9758 30.2829 19.7568 30.3729 19.6088 30.6379C20.0648 30.6709 20.5018 30.7739 20.9608 31.0149C20.4008 31.2749 19.7258 31.2199 19.4258 31.9139C19.6238 31.8429 19.7568 31.7859 19.8948 31.7499C20.9838 31.4639 21.9798 31.5499 22.7858 32.4509C23.1418 32.8489 23.1878 33.0809 22.9498 33.5539C22.8948 33.6629 22.8398 33.7709 22.7848 33.8789C22.8068 33.8979 22.8278 33.9169 22.8498 33.9349C22.9828 33.8379 23.1468 33.7669 23.2418 33.6419C23.4158 33.4139 23.5558 33.1579 23.6998 32.9069C23.8338 32.6709 23.8298 32.4319 23.6948 32.1929C23.5788 31.9899 23.4758 31.7809 23.3598 31.5569C23.7428 31.3779 24.1178 31.3979 24.4728 31.4659C24.9668 31.5599 25.4508 31.6749 25.9198 31.4799C26.2998 31.9839 26.3018 31.9799 26.9038 31.9409C27.3108 31.9149 27.7238 31.8809 28.0408 32.2519C28.1188 31.9549 27.8848 31.8029 27.7618 31.5579C27.9268 31.5159 28.0678 31.4799 28.2508 31.4329C28.1618 31.2839 28.0788 31.1439 27.9828 30.9819C28.1168 30.9229 28.2388 30.8699 28.3638 30.8149C28.3008 30.5659 28.1388 30.5119 27.9358 30.5489C27.8068 30.5729 27.6848 30.6309 27.5558 30.6549C27.3518 30.6909 27.2008 30.5839 27.0758 30.4379C26.9628 30.3089 27.0568 30.1899 27.1118 30.0749C27.1488 29.9939 27.1988 29.9189 27.2438 29.8409C27.7328 29.9019 28.2018 29.9739 28.6728 30.0109C28.8808 30.0279 28.9948 30.1099 29.1118 30.2779C29.3288 30.5889 29.5638 30.8929 29.8308 31.1619C30.0728 31.4049 30.3878 31.4989 30.7418 31.3979C31.1338 31.2869 31.5328 31.1999 31.9228 31.0829C32.3718 30.9489 32.7168 31.0459 33.0038 31.4179C33.2248 31.7039 33.2168 31.8629 32.9178 32.0669C32.2178 32.5449 32.0958 33.2229 32.2468 33.9849C32.3498 34.5059 32.6778 34.6879 33.2258 34.5809C32.7868 34.0319 32.7998 33.3779 33.2438 33.0989C33.3318 33.3839 33.3998 33.6809 33.5158 33.9579C33.7358 34.4819 34.2908 34.6409 34.8078 34.3509C34.8018 34.3389 34.7988 34.3239 34.7898 34.3179C34.7568 34.2949 34.7248 34.2689 34.6888 34.2549C34.3348 34.1219 34.2348 33.8559 34.2658 33.4999C34.2818 33.3189 34.2438 33.1329 34.2358 32.9499C34.2328 32.8709 34.2468 32.7909 34.2568 32.6699C35.0358 33.7479 35.4048 33.8989 36.2598 33.4999C36.1708 33.4459 36.0988 33.3979 36.0238 33.3569C35.4688 33.0579 35.0898 32.5959 34.8078 32.0449C34.6678 31.7709 34.6408 31.4879 34.7648 31.2059C34.8648 30.9769 34.9658 30.7449 35.1018 30.5389C35.4108 30.0709 35.7368 30.0099 36.2098 30.3009C36.2528 30.3279 36.2948 30.3559 36.3738 30.4069C36.3188 30.0209 36.1708 29.7529 35.8268 29.6249C35.2538 29.4109 34.7298 29.4869 34.3028 29.9379C33.8158 30.4519 33.2238 30.4909 32.5908 30.3589C32.3468 30.3079 32.1778 30.1579 32.1238 29.8679C32.2728 29.8369 32.3998 29.8109 32.5268 29.7869C34.6648 29.3789 36.2398 28.2339 37.1698 26.2439C37.4558 25.6319 37.6578 24.9929 37.7888 24.3319C38.0858 22.8459 38.1078 21.3489 37.9558 19.8469C37.7508 17.8269 37.1978 15.9219 36.0538 14.2169Z" fill="#DA4B32"/>
</g>
</svg>