<svg width="24" height="39" viewBox="0 0 24 39" fill="none" xmlns="http://www.w3.org/2000/svg">
<mask id="mask0" mask-type="alpha" maskUnits="userSpaceOnUse" x="0" y="-1" width="24" height="40">
<path fill-rule="evenodd" clip-rule="evenodd" d="M0.000244141 -0.00012207H23.6661V38.2938H0.000244141V-0.00012207Z" fill="white"/>
</mask>
<g mask="url(#mask0)">
<path fill-rule="evenodd" clip-rule="evenodd" d="M17.8192 13.7783C17.0462 14.4023 15.4842 14.1183 14.7982 13.1993C15.8322 13.3973 16.8292 13.5893 17.8192 13.7783ZM13.1252 8.75332C12.9782 6.67632 15.3072 4.59932 17.3042 5.04132C17.2682 5.98332 16.9942 6.80132 16.3132 7.51832C16.2332 7.30532 16.1842 7.13132 16.1042 6.97332C15.9852 6.74032 15.8692 6.49832 15.7052 6.29932C15.4832 6.03232 15.2272 6.03232 14.9382 6.24132C14.3652 6.65432 14.2892 7.27032 14.7462 7.81032C14.8812 7.96832 15.0252 8.11832 15.1882 8.29732C14.5362 8.60332 13.8482 8.74332 13.1252 8.75332ZM12.5672 8.15732C12.5492 8.25832 12.5262 8.35932 12.5042 8.45932C12.4762 8.45832 12.4482 8.45732 12.4212 8.45532C12.3442 7.51032 12.3602 6.57132 12.7352 5.67532C13.0822 4.84932 13.6912 4.30532 14.5612 4.06532C15.4322 3.82432 16.2972 3.88632 17.1592 4.17432C17.0382 4.17432 16.9162 4.17432 16.7942 4.17432C15.0812 4.16332 13.8592 4.94232 13.1062 6.47232C12.8422 7.00732 12.6742 7.57332 12.5672 8.15732ZM12.3392 10.9503C12.2362 11.0403 12.0992 11.0903 11.9962 11.1483C11.8832 11.1153 11.7922 11.1123 11.7382 11.0653C11.6562 10.9953 11.5582 10.9003 11.5452 10.8043C11.5242 10.6583 11.6722 10.6183 11.7892 10.6113C11.9432 10.6013 12.1042 10.6013 12.2542 10.6323C12.4332 10.6713 12.4762 10.8293 12.3392 10.9503ZM11.4772 3.02832C11.5352 3.18832 11.5852 3.32432 11.6352 3.46132C11.6602 3.46432 11.6862 3.46732 11.7112 3.47032C11.7462 3.33332 11.7812 3.19632 11.8172 3.06032C11.8982 3.16932 11.9582 3.28132 11.9952 3.39432C12.1072 3.73432 12.0172 4.08132 11.7232 4.36732C11.2362 4.03932 11.1532 3.60432 11.4772 3.02832ZM10.0272 3.24732C10.1292 2.71932 10.5282 2.47732 11.1852 2.57932C11.0582 2.69432 10.9512 2.79032 10.8442 2.88732C10.8492 2.91132 10.8542 2.93532 10.8602 2.95932C10.9972 2.94832 11.1342 2.93932 11.2852 2.92732C10.9012 3.40632 10.4642 3.51332 10.0272 3.24732ZM11.0362 8.31332C11.0292 8.36432 11.0082 8.41432 10.9872 8.46332C10.9792 8.48432 10.9552 8.50032 10.9142 8.54532C10.9012 7.30132 10.5992 6.18432 9.70517 5.29932C8.82117 4.42432 7.70317 4.07632 6.51017 3.89032C7.36117 3.67732 8.20817 3.62432 9.04917 3.86332C9.99717 4.13332 10.6062 4.76332 10.9032 5.69532C11.1782 6.55532 11.1642 7.43232 11.0362 8.31332ZM8.05717 8.23232C8.20317 8.08332 8.35717 7.94232 8.49217 7.78532C8.93417 7.27032 8.86017 6.67732 8.31117 6.28632C8.03517 6.09032 7.78917 6.09132 7.58217 6.35632C7.40717 6.58032 7.29317 6.85232 7.16217 7.10732C7.10317 7.22132 7.06717 7.34632 7.00317 7.51432C6.32317 6.78732 6.03817 5.96832 6.02617 5.03832C8.02817 4.60432 10.2572 6.59032 10.2062 8.71732C9.66017 8.80432 8.57817 8.56232 8.05717 8.23232ZM10.7822 1.11732C11.3232 1.18732 11.5602 1.50632 11.5632 2.22232C11.4232 2.09732 11.3092 1.99432 11.1422 1.84432C11.1672 2.04932 11.1842 2.18232 11.2062 2.36632C10.6642 1.91532 10.5592 1.57432 10.7822 1.11732ZM12.7412 1.27632C12.8702 1.79932 12.6612 2.13432 11.9712 2.42532C12.0562 2.22832 12.1162 2.09032 12.2092 1.87632C12.0252 1.96832 11.9072 2.02632 11.7902 2.08432C11.8412 1.54832 12.2432 1.20732 12.7412 1.27632ZM13.3132 3.13132C12.9212 3.48832 12.4522 3.41932 12.0122 2.91032C12.1782 2.90032 12.3222 2.89032 12.5412 2.87632C12.4042 2.76732 12.3062 2.69032 12.2132 2.61632C12.1982 2.60432 12.1832 2.59232 12.1692 2.58132C12.5382 2.46332 12.8852 2.55632 13.1192 2.81632C13.1972 2.90332 13.2632 3.00832 13.3132 3.13132ZM19.7002 4.30532C19.7192 4.11632 19.7232 3.92532 19.7362 3.67232C19.9182 3.93232 19.9702 4.17132 20.0042 4.41532C20.0932 5.05832 19.9802 5.67132 19.7132 6.25932C19.4262 6.89032 19.0372 7.45632 18.5372 7.92632C17.9832 8.44832 17.3822 8.92032 16.7992 9.41132C16.7352 9.46532 16.6522 9.49632 16.5412 9.49232C16.6322 9.39032 16.7212 9.28632 16.8162 9.18732C17.5692 8.39232 18.2612 7.55032 18.8272 6.61032C19.2572 5.89532 19.6142 5.15032 19.7002 4.30532ZM20.3252 11.5633C20.3612 11.2093 20.3962 10.8543 20.4322 10.5003C20.4582 10.5013 20.4852 10.5023 20.5112 10.5023C20.5432 10.6993 20.5752 10.8963 20.6072 11.0933C20.6302 11.0963 20.6522 11.1003 20.6742 11.1033C20.7442 10.8293 20.8142 10.5533 20.8832 10.2783C20.9012 10.2803 20.9202 10.2833 20.9382 10.2853V10.7783C20.9622 10.7853 20.9852 10.7923 21.0092 10.7993C21.1152 10.5413 21.2222 10.2833 21.3282 10.0253C21.3532 10.0363 21.3782 10.0473 21.4022 10.0583C21.2742 11.0273 21.0072 11.9393 20.2322 12.6193C19.7052 13.0813 19.0722 13.1443 18.4082 13.0353C17.4822 12.8823 16.7562 12.4553 16.4032 11.5153C16.4922 11.6083 16.5812 11.7013 16.6682 11.7953C16.7552 11.8893 16.8402 11.9853 16.9812 12.1403C16.9452 11.8683 16.9212 11.6743 16.8952 11.4793C16.9162 11.4713 16.9362 11.4633 16.9572 11.4553C17.0812 11.6313 17.2052 11.8053 17.3292 11.9813C17.3492 11.9753 17.3692 11.9693 17.3902 11.9643C17.3682 11.7353 17.3472 11.5073 17.3262 11.2803C17.3442 11.2713 17.3632 11.2613 17.3812 11.2533C17.5192 11.5023 17.6572 11.7513 17.7952 12.0003C17.8132 11.9923 17.8312 11.9853 17.8492 11.9773C17.8192 11.7223 17.7902 11.4673 17.7612 11.2123L17.8362 11.1853C17.9792 11.4823 18.1222 11.7793 18.2662 12.0763L18.3292 12.0523C18.2822 11.7203 18.2362 11.3883 18.1902 11.0573L18.2512 11.0373C18.4152 11.4193 18.5792 11.8013 18.7422 12.1833C18.7652 12.1823 18.7872 12.1823 18.8092 12.1813V10.8613C18.8442 10.8573 18.8802 10.8523 18.9152 10.8483C19.0312 11.2823 19.1482 11.7163 19.2642 12.1513C19.2842 12.1503 19.3032 12.1493 19.3232 12.1493C19.3482 11.6693 19.3732 11.1893 19.3982 10.7093C19.4302 10.7053 19.4632 10.7003 19.4952 10.6963C19.6122 11.0833 19.7302 11.4693 19.8482 11.8563C19.8672 11.8553 19.8862 11.8533 19.9062 11.8513V10.5493C19.9322 10.5463 19.9592 10.5423 19.9862 10.5383C20.0792 10.8803 20.1732 11.2223 20.2662 11.5643C20.2852 11.5643 20.3052 11.5633 20.3252 11.5633ZM20.1262 19.2833C19.8512 19.2513 19.6202 19.2243 19.3362 19.1923C19.4352 19.3743 19.5082 19.5073 19.5822 19.6403C19.5702 19.6563 19.5592 19.6723 19.5482 19.6883C19.3932 19.5883 19.2382 19.4873 19.0192 19.3453C19.1132 19.6093 19.1842 19.8093 19.2562 20.0103C19.2382 20.0233 19.2212 20.0373 19.2042 20.0503C18.9712 19.8893 18.7382 19.7273 18.5062 19.5663C18.4872 19.5773 18.4682 19.5883 18.4492 19.5983C18.5742 19.8703 18.6982 20.1413 18.8422 20.4543C18.4902 20.4223 18.2752 20.1563 17.9072 20.0613C18.1012 20.3433 18.2512 20.5633 18.4012 20.7833C18.3812 20.8013 18.3622 20.8203 18.3422 20.8403C18.1562 20.7193 17.9692 20.5993 17.6952 20.4243C17.8172 20.6693 17.8982 20.8313 17.9782 20.9933C17.9652 21.0023 17.9522 21.0113 17.9402 21.0203C17.8492 20.9363 17.7592 20.8523 17.6422 20.7443C17.6622 20.9373 17.6772 21.0903 17.6932 21.2433C17.4312 21.2343 17.6112 21.4803 17.5112 21.5663C17.0862 20.7983 17.2372 19.6923 17.8372 19.2313C18.4952 18.7243 19.6792 18.6993 20.1262 19.2833ZM20.7262 23.2343C20.9402 23.2083 21.1762 23.2393 21.3822 23.3063C21.8612 23.4623 22.3902 23.9823 22.6872 24.5873C21.5622 23.5403 20.4892 23.4653 19.4082 24.5193C19.5552 23.9333 20.1942 23.3013 20.7262 23.2343ZM20.3072 31.0503C20.3292 30.8283 20.3422 30.6893 20.3592 30.5143C20.2422 30.6173 20.1472 30.7003 19.9942 30.8343C20.0672 30.5903 20.1192 30.4143 20.1862 30.1903C19.9262 30.2973 19.7152 30.3823 19.5032 30.4693C19.4862 30.4523 19.4702 30.4353 19.4532 30.4193C19.5962 30.1473 19.7392 29.8773 19.9302 29.5133C19.5232 29.6843 19.1952 29.8223 18.8672 29.9603C18.8532 29.9393 18.8392 29.9203 18.8242 29.9003C18.9922 29.6803 19.1602 29.4613 19.3282 29.2413L19.2872 29.1913C19.0502 29.3433 18.8142 29.4973 18.5072 29.6953C18.6292 29.3293 18.9122 29.1543 19.0512 28.7993C18.6332 28.9603 18.2762 29.0963 17.9182 29.2333C17.8922 29.1973 17.8652 29.1613 17.8392 29.1253C18.0062 29.0193 18.1722 28.9133 18.3392 28.8063C18.3172 28.7723 18.2962 28.7393 18.2742 28.7053L17.3832 28.8373C17.3782 28.8213 17.3722 28.8053 17.3662 28.7903C17.4262 28.7463 17.4822 28.6913 17.5482 28.6593C18.0652 28.4073 18.6042 28.2513 19.1862 28.3473C19.3402 28.3743 19.4922 28.4273 19.6322 28.4953C20.3162 28.8203 20.8922 30.1633 20.3072 31.0503ZM13.5682 28.5683C12.3932 27.6033 11.9702 26.3853 12.3872 24.9033C12.4052 24.8403 12.4242 24.7773 12.4442 24.7153C12.8512 23.4543 13.5982 22.3923 14.3912 21.3343C15.3942 21.6133 16.2882 21.9853 17.0422 22.6373C17.9622 23.4333 18.4532 24.4373 18.4022 25.6603C18.3552 26.7733 17.9152 27.7293 17.0842 28.4823C16.0212 29.4473 14.6782 29.4803 13.5682 28.5683ZM16.3942 33.7343C16.2772 33.4433 16.3672 33.1603 16.3332 32.8893C16.2962 32.6033 16.2802 32.3143 16.2342 32.0303C16.1882 31.7463 16.1222 31.4653 16.0512 31.1853C15.9822 30.9083 15.8952 30.6353 15.7962 30.2943C16.9812 31.0333 17.2372 32.5643 16.3942 33.7343ZM9.02917 31.4653C10.4642 31.3673 11.8702 31.1903 12.9372 29.9843C12.4792 31.4713 10.6312 32.0183 9.02917 31.4653ZM8.08117 29.3153C7.75817 29.0993 7.50517 28.8243 7.31317 28.4033C7.72917 28.5383 7.99017 28.8353 8.38117 28.9833C8.33517 28.6853 8.29617 28.4303 8.25617 28.1743C8.27717 28.1643 8.29817 28.1533 8.32017 28.1423C8.47717 28.4043 8.63317 28.6653 8.79117 28.9253C8.81017 28.9243 8.82917 28.9213 8.84817 28.9193V27.9453C8.87917 27.9343 8.90917 27.9243 8.94017 27.9133C9.17617 28.2713 9.41217 28.6303 9.64817 28.9893C9.67117 28.9803 9.69317 28.9723 9.71517 28.9653C9.68817 28.5043 9.66017 28.0443 9.63217 27.5833C9.65917 27.5713 9.68717 27.5593 9.71517 27.5483C10.0032 27.9143 10.2902 28.2793 10.5782 28.6443C10.6032 28.6343 10.6282 28.6253 10.6532 28.6143C10.6012 28.3973 10.5492 28.1803 10.4982 27.9643C10.4472 27.7513 10.3972 27.5383 10.3462 27.3263C10.3692 27.3153 10.3912 27.3043 10.4142 27.2943C10.6282 27.6023 10.8412 27.9103 11.0552 28.2183C11.0772 28.2123 11.0992 28.2063 11.1222 28.2003C11.0752 27.8763 11.0292 27.5513 10.9832 27.2273C11.0002 27.2233 11.0162 27.2183 11.0332 27.2143C11.1222 27.4333 11.2122 27.6543 11.3322 27.9523C11.4112 27.5463 11.4742 27.2213 11.5372 26.8973C11.5552 26.8993 11.5742 26.9003 11.5922 26.9023C11.6012 27.0803 11.6112 27.2583 11.6202 27.4363C11.6332 27.4413 11.6462 27.4453 11.6592 27.4493C11.7382 27.2293 11.8172 27.0093 11.8962 26.7913C11.9242 26.7953 11.9512 26.7993 11.9792 26.8033C11.9672 26.9363 11.9582 27.0693 11.9432 27.2023C11.8782 27.7583 11.7242 28.2873 11.4312 28.7663C11.0362 29.4113 10.4682 29.7553 9.69717 29.7493C9.11817 29.7453 8.57017 29.6433 8.08117 29.3153ZM11.6192 24.8893C11.4482 25.4203 10.6392 26.0463 9.97417 26.1333C9.10517 26.2483 8.51817 25.7613 8.00617 25.1333C9.24517 25.4663 10.4612 25.7413 11.6192 24.8893ZM8.55317 17.0273C8.60817 17.9833 9.16217 18.4803 9.90817 18.8463C9.81217 19.0003 9.73817 19.1173 9.66917 19.2263C8.71717 18.9923 8.18517 18.0043 8.55317 17.0273ZM11.7712 23.6703C10.4432 24.6283 9.12617 24.1693 8.85417 22.5033C9.61417 23.5443 10.5532 23.9723 11.7712 23.6703ZM10.2972 20.2543C10.4842 20.7993 10.7852 21.2733 11.2662 21.5753C11.7232 21.8633 12.2272 22.0783 12.7002 22.3203C11.1752 22.8173 10.0612 21.8763 10.2972 20.2543ZM11.1972 17.0083C11.2262 17.0083 11.2552 17.0093 11.2842 17.0103V17.6653C11.3112 17.6733 11.3372 17.6793 11.3642 17.6873C11.4542 17.5423 11.5442 17.3973 11.6332 17.2533C11.6592 17.2573 11.6842 17.2623 11.7092 17.2673C11.6952 17.4743 11.6812 17.6803 11.6612 17.9723C11.8362 17.7113 11.9632 17.5213 12.0902 17.3323C12.1092 17.3413 12.1282 17.3513 12.1462 17.3623C12.0992 17.6033 12.0522 17.8443 12.0062 18.0873L12.0702 18.1223C12.1952 17.9253 12.3202 17.7283 12.4452 17.5323C12.4682 17.5413 12.4912 17.5493 12.5142 17.5573C12.4282 17.9163 12.3412 18.2743 12.2562 18.6323C12.2722 18.6423 12.2892 18.6513 12.3052 18.6613C12.5402 18.3563 12.7752 18.0503 13.0092 17.7463L13.0802 17.7843C13.0102 18.2573 12.9412 18.7313 12.8712 19.2053C12.8952 19.2183 12.9182 19.2313 12.9422 19.2453L13.9242 18.1553C13.9512 18.1713 13.9782 18.1873 14.0062 18.2043C13.8712 18.5353 13.7362 18.8673 13.6022 19.1993C13.6212 19.2123 13.6402 19.2233 13.6592 19.2363C13.9042 18.9403 14.1502 18.6433 14.3952 18.3473C14.4192 18.3603 14.4442 18.3723 14.4672 18.3833C14.3622 18.6773 14.2562 18.9713 14.1502 19.2653C14.1672 19.2763 14.1842 19.2873 14.2002 19.2983C14.4792 19.0473 14.7572 18.7963 15.0362 18.5453C15.0592 18.5603 15.0822 18.5753 15.1052 18.5903C15.0242 18.7993 14.9432 19.0083 14.8332 19.2933C15.1742 19.1063 15.4422 18.9603 15.7322 18.8013C15.7222 18.8693 15.7272 18.9003 15.7142 18.9133C15.1262 19.4863 14.4572 19.9063 13.6262 20.0253C13.2762 20.0753 12.9422 20.0223 12.6242 19.8803C11.7352 19.4833 11.0722 18.3943 11.1252 17.4213C11.1332 17.2833 11.1722 17.1453 11.1972 17.0083ZM15.8462 16.8703C14.8132 17.3303 13.4072 16.7753 12.9342 15.8163C13.9092 16.1693 14.8652 16.5143 15.8462 16.8703ZM16.8042 15.3633C15.8242 15.8113 14.4002 15.3093 13.8972 14.3133C14.8732 14.6663 15.8212 15.0083 16.8042 15.3633ZM7.07017 21.3983C6.32717 21.8843 5.52917 22.1093 4.64217 21.8913C4.59117 21.8793 4.54317 21.8583 4.49417 21.8383C3.46417 21.4013 2.92417 19.8113 3.47617 18.8363C3.49217 18.8063 3.53017 18.7893 3.63517 18.7033V19.6033C3.85517 19.4713 4.02717 19.3673 4.28117 19.2153C4.17017 19.4783 4.09317 19.6623 4.01617 19.8453C4.03017 19.8593 4.04517 19.8733 4.06017 19.8853C4.19717 19.7723 4.33517 19.6593 4.47217 19.5463C4.48917 19.5593 4.50617 19.5743 4.52417 19.5883C4.36417 19.8823 4.20617 20.1783 4.04717 20.4743C4.05917 20.4943 4.07117 20.5143 4.08317 20.5343C4.42817 20.3713 4.77317 20.2073 5.11817 20.0443C5.13717 20.0583 5.15717 20.0743 5.17717 20.0893C4.98117 20.3923 4.78617 20.6953 4.59017 20.9983C4.60717 21.0153 4.62217 21.0323 4.63817 21.0493C4.98017 20.8223 5.32117 20.5943 5.66217 20.3673C5.68117 20.3853 5.70017 20.4033 5.72017 20.4223C5.53317 20.6743 5.34617 20.9263 5.15917 21.1783L5.20917 21.2343C5.49417 21.0273 5.78017 20.8213 6.06617 20.6143C6.08617 20.6323 6.10517 20.6493 6.12517 20.6673C6.02017 20.9433 5.91417 21.2203 5.78217 21.5643C6.24617 21.4833 6.66117 21.4113 7.08617 21.3363C7.07717 21.3753 7.07817 21.3923 7.07017 21.3983ZM5.63817 33.5243C5.59317 34.1513 5.05217 34.5193 4.37217 34.3863C4.78717 34.1043 5.21917 33.8093 5.63817 33.5243ZM4.09017 30.7963C3.77817 31.3783 3.33417 31.7913 2.63117 31.7643C1.88017 31.7363 1.24617 31.4633 0.863169 30.7653C0.851169 30.7423 0.842169 30.7163 0.836169 30.6913C0.830169 30.6683 0.829169 30.6433 0.819169 30.5713C0.938169 30.7103 1.03217 30.8213 1.18517 31.0013V30.5523L1.24417 30.5473C1.33417 30.6893 1.42417 30.8313 1.54717 31.0223C1.63117 30.7613 1.70017 30.5463 1.78717 30.2753C2.02217 30.5633 2.03917 30.9103 2.25517 31.2033C2.36417 30.8323 2.46217 30.4983 2.56117 30.1633C2.58717 30.1613 2.61417 30.1593 2.64117 30.1573C2.70817 30.4343 2.77517 30.7123 2.84217 30.9893C2.85617 30.9903 2.87117 30.9913 2.88517 30.9913C2.92517 30.6853 2.96517 30.3793 3.00517 30.0723C3.02417 30.0713 3.04217 30.0703 3.06117 30.0683C3.14017 30.3683 3.21917 30.6683 3.29917 30.9673C3.32017 30.9703 3.34217 30.9743 3.36417 30.9783C3.48117 30.6173 3.59717 30.2563 3.71417 29.8953C3.73517 29.8943 3.75617 29.8933 3.77617 29.8923C3.80617 30.0733 3.83617 30.2553 3.87917 30.5163C4.06517 30.2083 4.21517 29.9593 4.36517 29.7103C4.38917 29.7183 4.41217 29.7263 4.43617 29.7353C4.39817 29.9083 4.37417 30.0843 4.31917 30.2513C4.25717 30.4373 4.18317 30.6233 4.09017 30.7963ZM2.77817 25.2263C3.38317 25.4933 4.03017 25.5793 4.67617 25.6743C3.02617 26.2863 1.49217 25.4213 1.13917 24.0733C1.61717 24.5613 2.15517 24.9513 2.77817 25.2263ZM6.99217 34.7003C7.18717 35.2343 6.73017 35.7733 6.02517 35.8423C6.33817 35.4733 6.67017 35.0813 6.99217 34.7003ZM8.55417 35.4193C8.90617 35.8493 8.68417 36.4463 7.99717 36.8513C8.18617 36.3653 8.37317 35.8843 8.55417 35.4193ZM14.5252 12.1323C13.9772 13.0923 13.3612 14.0133 12.7802 14.9543C12.6702 15.1323 12.5332 15.1893 12.3242 15.1853C11.3332 15.1653 10.3512 15.2713 9.38317 15.4843C7.41717 15.9163 5.59917 16.6883 3.97017 17.8833C3.32517 18.3573 2.79317 18.9293 2.38017 19.6213C1.44117 21.1933 0.740169 22.8623 0.333169 24.6483C-0.0238313 26.2183 -0.124831 27.8013 0.184169 29.3933C0.616169 31.6193 1.75917 33.4233 3.49117 34.8593C5.23117 36.3023 7.22017 37.2773 9.39617 37.8653C11.8522 38.5273 14.2772 38.4543 16.6262 37.4223C19.1192 36.3273 20.9892 34.5153 22.4472 32.2473C22.4602 32.2263 22.4562 32.1943 22.4592 32.1683C22.3662 32.1873 22.3342 32.2453 22.2892 32.2933C21.4952 33.1483 20.5982 33.8783 19.5842 34.4583C17.3342 35.7453 14.9172 36.1993 12.3512 35.9023C10.7722 35.7193 9.29417 35.2363 7.94017 34.3943C7.12617 33.8883 6.41217 33.2683 5.85617 32.4823C5.14617 31.4783 4.79617 30.3723 4.94217 29.1323C4.99817 28.6623 5.04617 28.1903 5.12017 27.7223C5.31317 26.5083 5.61617 25.3243 6.14917 24.2103C6.55717 23.3553 7.09017 22.5933 7.83117 21.9923C7.91217 21.9263 8.00717 21.8803 8.11417 21.8123C8.11417 21.8903 8.12217 21.9193 8.11317 21.9403C8.05617 22.0743 7.99517 22.2053 7.93617 22.3383C7.43117 23.4723 7.03517 24.6423 6.83717 25.8733C6.63117 27.1493 6.65317 28.4133 6.99617 29.6713C7.80117 32.6263 11.1562 35.1203 14.7942 34.6543C17.3412 34.3283 19.5442 33.2683 21.3142 31.4083C23.6862 28.9163 24.2882 26.0323 23.0112 22.8073C22.3862 21.2283 21.4032 19.8753 20.2112 18.6813C19.5902 18.0603 18.8952 17.5123 18.1922 16.8953C18.4682 16.5653 18.7662 16.2153 19.0592 15.8593C19.8982 14.8423 20.7012 13.7993 21.3382 12.6373C22.2522 10.9703 22.4822 9.20732 22.0692 7.36032C21.5902 5.22132 20.4972 3.41432 19.0632 1.78732C18.5692 1.22732 17.9642 0.854316 17.2702 0.605316C16.3572 0.278316 15.4082 0.139316 14.4472 0.0623162C13.0232 -0.0516838 11.6032 -0.00268383 10.1862 0.153316C9.12317 0.269316 8.07617 0.469316 7.07317 0.855316C6.45417 1.09332 5.87217 1.39632 5.38017 1.85032C4.74817 2.43432 4.41717 3.15132 4.41717 4.02132C4.41717 4.69432 4.58917 5.32632 4.85517 5.93232C5.67517 7.79732 7.01317 9.22432 8.66417 10.3763C9.44817 10.9233 10.2952 11.3413 11.2422 11.5313C11.2892 11.5403 11.3312 11.5733 11.4492 11.6323C9.46117 12.3153 7.52717 12.9203 5.54817 13.4223H6.85117C6.85717 13.4443 6.86117 13.4663 6.86717 13.4893C6.44817 13.7513 6.02917 14.0113 5.61117 14.2733C5.77617 14.2683 5.91817 14.2153 6.05917 14.1603C8.10317 13.3473 10.1462 12.5353 12.1892 11.7233C12.2872 11.6843 12.3842 11.6293 12.4862 11.6173C13.3832 11.5113 14.1212 11.0623 14.8292 10.5453C14.9232 10.4763 15.0212 10.4163 15.1612 10.3223C15.1462 10.4633 15.1542 10.5563 15.1252 10.6353C14.9332 11.1383 14.7892 11.6703 14.5252 12.1323Z" fill="#DA4B32"/>
</g>
</svg>