<svg width="38" height="33" viewBox="0 0 38 33" fill="none" xmlns="http://www.w3.org/2000/svg">
<mask id="mask0" mask-type="alpha" maskUnits="userSpaceOnUse" x="0" y="0" width="38" height="33">
<path fill-rule="evenodd" clip-rule="evenodd" d="M0 0H37.3167V32.2649H0V0Z" fill="white"/>
</mask>
<g mask="url(#mask0)">
<path fill-rule="evenodd" clip-rule="evenodd" d="M33.2496 15.218C33.2466 15.199 33.2706 15.177 33.2996 15.127C33.3806 15.219 33.4746 15.293 33.5246 15.39C33.5816 15.498 33.6036 15.626 33.6316 15.748C33.6566 15.858 33.6566 15.975 33.6906 16.081C33.7256 16.188 33.7646 16.269 33.6426 16.356C33.6096 16.378 33.8776 16.493 33.6396 16.612C33.7036 16.705 33.7676 16.796 33.8596 16.931C33.7616 16.923 33.6976 16.917 33.5876 16.907C33.6616 17.006 33.7196 17.082 33.8146 17.208C33.6636 17.19 33.5706 17.178 33.4496 17.163C33.5686 17.297 33.6746 17.415 33.7786 17.534C33.7696 17.548 33.7606 17.562 33.7506 17.576C33.6216 17.53 33.4926 17.483 33.3636 17.437C33.3536 17.449 33.3416 17.462 33.3306 17.476C33.4386 17.605 33.5486 17.734 33.6576 17.863C33.6426 17.879 33.6266 17.895 33.6106 17.911L33.4376 17.832C33.3916 17.81 33.3456 17.786 33.2186 17.724C33.3076 17.868 33.3536 17.947 33.4046 18.026C33.4526 18.099 33.5026 18.17 33.5206 18.286C33.3816 18.215 33.2426 18.144 33.1036 18.072L33.0676 18.116C33.1606 18.265 33.2546 18.413 33.3476 18.563C33.3376 18.576 33.3266 18.59 33.3166 18.604C33.1906 18.533 33.0656 18.462 32.9396 18.392C32.9236 18.403 32.9076 18.413 32.8916 18.424C32.9826 18.586 33.0746 18.748 33.1676 18.909C33.1556 18.926 33.1446 18.943 33.1336 18.958C32.9706 18.853 32.8086 18.747 32.6456 18.642C32.6336 18.654 32.6216 18.666 32.6096 18.678C32.7126 18.849 32.8136 19.02 32.9166 19.191C32.9016 19.205 32.8876 19.219 32.8736 19.234C32.7006 19.113 32.5286 18.991 32.3566 18.87C32.3456 18.88 32.3346 18.891 32.3226 18.901L32.6626 19.44C32.6456 19.456 32.6296 19.474 32.6126 19.491C32.4456 19.385 32.2786 19.279 32.1126 19.172C32.1036 19.183 32.0936 19.193 32.0836 19.203C32.1896 19.355 32.2976 19.505 32.4046 19.656C32.3926 19.671 32.3796 19.687 32.3666 19.701C32.2186 19.613 32.0696 19.525 31.9216 19.437C31.9076 19.447 31.8946 19.458 31.8806 19.47C31.9746 19.616 32.0676 19.764 32.1876 19.952C31.8966 19.912 31.7316 19.696 31.4426 19.606C31.5676 19.798 31.6636 19.946 31.7606 20.092C31.7496 20.11 31.7376 20.127 31.7276 20.145C31.5746 20.049 31.4226 19.952 31.2106 19.82C31.3026 19.999 31.3686 20.127 31.4686 20.321C31.2856 20.233 31.1646 20.174 31.0136 20.102C31.0606 20.194 31.0916 20.257 31.1316 20.337C31.0836 20.341 31.0486 20.353 31.0176 20.346C30.8906 20.317 30.7656 20.125 30.6356 20.347C30.6276 20.361 30.5576 20.353 30.5256 20.335C30.3826 20.254 30.2426 20.167 30.0566 20.054C30.2056 19.942 30.3056 19.863 30.4086 19.79C31.1456 19.274 31.8166 18.686 32.3626 17.965C32.9776 17.154 33.3606 16.266 33.2496 15.218ZM34.8047 28.369C34.7287 28.908 34.5897 29.389 34.4047 29.866V29.341C34.3867 29.336 34.3687 29.332 34.3507 29.327C34.2787 29.499 34.2067 29.671 34.1357 29.843C34.1207 29.84 34.1067 29.837 34.0927 29.833C34.1127 29.644 34.1347 29.454 34.1547 29.264C34.1377 29.256 34.1197 29.247 34.1017 29.239C33.9837 29.468 33.8657 29.697 33.7477 29.925C33.7297 29.918 33.7117 29.91 33.6927 29.904C33.7517 29.666 33.8107 29.428 33.8687 29.191C33.8537 29.182 33.8387 29.172 33.8237 29.163C33.6657 29.403 33.5077 29.643 33.3497 29.882C33.3267 29.872 33.3037 29.864 33.2797 29.854C33.3537 29.643 33.4267 29.432 33.4997 29.222C33.4837 29.213 33.4677 29.204 33.4517 29.196C33.2877 29.409 33.1247 29.623 32.9607 29.838C32.9407 29.827 32.9227 29.817 32.9027 29.805C32.9767 29.63 33.0507 29.455 33.1247 29.28C33.1057 29.266 33.0887 29.252 33.0697 29.239C32.9127 29.413 32.7547 29.587 32.5977 29.762C32.5827 29.753 32.5677 29.745 32.5537 29.738C32.7727 29.238 32.9927 28.738 33.2257 28.21C33.7227 28.368 34.2267 28.501 34.8047 28.369ZM29.9076 18.857C29.7226 18.672 29.5376 18.488 29.3526 18.304C29.3366 18.314 29.3206 18.322 29.3056 18.332C29.4166 18.577 29.5286 18.822 29.6706 19.133C29.3296 18.985 29.1736 18.69 28.8216 18.512C28.9476 18.795 29.0416 19.004 29.1686 19.286C28.8626 19.127 28.7506 18.859 28.4816 18.688C28.5626 18.914 28.6276 19.1 28.7266 19.377C28.5266 19.228 28.3996 19.134 28.2386 19.013C28.2666 19.136 28.2846 19.218 28.3196 19.371C28.1266 19.245 27.9796 19.15 27.8076 19.037C27.7966 19.111 27.7876 19.172 27.7746 19.261C27.5076 19.147 27.3036 18.981 27.1396 18.711C27.2846 18.645 27.4136 18.585 27.5436 18.528C28.6196 18.043 29.6246 17.447 30.4786 16.621C31.1836 15.939 31.7166 15.152 31.8946 14.164C31.9246 13.998 31.9396 13.829 31.9706 13.601C32.1526 13.853 32.3286 14.016 32.2546 14.34C32.2016 14.574 32.2796 14.839 32.2996 15.098C32.2576 15.102 32.2006 15.107 32.1227 15.114C32.1956 15.239 32.2606 15.35 32.3436 15.491C32.2506 15.485 32.1916 15.48 32.0956 15.472C32.1666 15.624 32.2306 15.76 32.3216 15.951C32.1847 15.886 32.0876 15.841 31.9246 15.765C32.0346 15.949 32.1106 16.075 32.1876 16.202C32.1756 16.219 32.1636 16.236 32.1516 16.251C32.0226 16.189 31.8946 16.125 31.6826 16.022C31.8536 16.27 31.9696 16.438 32.0846 16.606C32.0726 16.622 32.0606 16.639 32.0486 16.656C31.8796 16.552 31.7106 16.447 31.5416 16.342C31.5266 16.354 31.5136 16.364 31.4986 16.376C31.6176 16.579 31.7356 16.782 31.8546 16.986L31.8116 17.024C31.6626 16.916 31.5146 16.808 31.3656 16.699C31.3536 16.71 31.3416 16.721 31.3286 16.732C31.4326 16.948 31.5356 17.165 31.6406 17.382C31.6196 17.398 31.6006 17.414 31.5806 17.43L31.0536 16.967C31.0396 16.978 31.0256 16.989 31.0136 16.999C31.1296 17.258 31.2456 17.518 31.3826 17.822C31.1996 17.779 31.1396 17.643 31.0486 17.554C30.9556 17.463 30.8716 17.364 30.7286 17.294C30.8356 17.572 30.9436 17.849 31.0516 18.126C31.0306 18.14 31.0116 18.154 30.9906 18.167C30.8026 17.965 30.6136 17.764 30.4246 17.562L30.3716 17.6C30.4246 17.73 30.4786 17.86 30.5306 17.99C30.5836 18.119 30.6356 18.249 30.6226 18.42C30.5296 18.321 30.4376 18.22 30.3446 18.119C30.2466 18.015 30.1486 17.911 30.0036 17.834C30.1216 18.114 30.2396 18.395 30.3576 18.674C30.3356 18.689 30.3136 18.702 30.2926 18.717C30.0886 18.502 29.8846 18.288 29.6806 18.074C29.6636 18.082 29.6476 18.091 29.6326 18.1C29.7456 18.334 29.8586 18.569 29.9736 18.802C29.9516 18.821 29.9296 18.838 29.9076 18.857ZM28.8287 28.737C28.7747 28.656 28.7557 28.625 28.7297 28.586C28.6607 28.679 28.5987 28.762 28.5357 28.845C28.4707 28.811 28.4107 28.78 28.3337 28.739C28.3887 28.601 28.4487 28.446 28.5107 28.29C28.4997 28.282 28.4877 28.274 28.4777 28.266C28.3807 28.387 28.2837 28.508 28.1877 28.629C28.1667 28.619 28.1457 28.61 28.1257 28.599C28.2007 28.414 28.2767 28.23 28.3537 28.045C28.3397 28.037 28.3247 28.03 28.3117 28.022C28.1687 28.211 28.0267 28.401 27.8847 28.591C27.8677 28.581 27.8517 28.572 27.8347 28.564C27.8837 28.438 27.9327 28.313 27.9817 28.188L27.9407 28.164C27.8677 28.244 27.7957 28.323 27.7287 28.397C27.5697 28.343 27.8887 28.163 27.6417 28.145C27.6707 28.045 27.6907 27.943 27.7317 27.848C27.7777 27.739 27.8477 27.641 27.8957 27.534C27.9897 27.333 28.0757 27.128 28.1737 26.907C28.6357 27.061 29.0897 27.212 29.5917 27.38C29.3447 27.821 29.0967 28.261 28.8287 28.737ZM26.6937 13.802C26.8167 13.834 26.9157 13.86 27.0377 13.891C26.9767 14.013 26.9167 14.131 26.8437 14.275C27.1087 14.238 27.3417 14.205 27.5597 14.175C27.6417 14.283 27.7207 14.369 27.7757 14.469C27.8017 14.514 27.8017 14.6 27.7737 14.642C27.6637 14.816 27.5667 15.016 27.4117 15.14C27.0437 15.433 26.6017 15.542 26.0907 15.559C26.0737 14.872 26.1667 14.264 26.6937 13.802ZM25.5477 14.267C25.2427 14.074 25.1967 13.828 25.3957 13.531C25.5577 13.286 25.6837 13.272 25.9317 13.45C26.0577 13.542 26.1937 13.617 26.3447 13.712C26.1867 13.952 26.0447 14.169 25.8807 14.419C25.7757 14.372 25.6527 14.333 25.5477 14.267ZM24.5877 17.153C24.4467 17.075 24.3677 16.966 24.4727 16.774C24.5207 16.782 24.5787 16.792 24.6817 16.811C24.5107 16.536 24.5937 16.34 24.8747 16.189C25.4197 16.309 25.5497 16.77 25.6917 17.302C25.2697 17.38 24.9197 17.333 24.5877 17.153ZM24.3717 15.082C24.6997 14.779 25.0997 14.768 25.5317 14.827C25.4827 15.23 25.3567 15.566 25.0747 15.829C24.9807 15.917 24.8717 15.969 24.7637 15.864C24.7257 15.827 24.7267 15.75 24.6977 15.652C24.6747 15.652 24.6017 15.664 24.5347 15.649C24.2497 15.582 24.1567 15.281 24.3717 15.082ZM26.9067 12.08C27.1297 12.168 27.1317 12.192 27.1657 12.613C27.0437 12.571 26.9257 12.53 26.7847 12.483C26.7737 12.551 26.7877 12.6 26.8107 12.643C26.8437 12.708 26.8987 12.754 26.9477 12.803C26.9527 12.8 26.9577 12.8 26.9627 12.798L26.9977 13.164C27.0127 13.319 26.7007 13.239 26.7877 13.462C26.7367 13.471 26.6797 13.5 26.6367 13.487C26.4287 13.416 26.1987 13.372 26.0247 13.25C25.6487 12.987 25.4597 12.578 25.2617 12.131C25.8347 11.946 26.3657 11.865 26.9067 12.08ZM26.2567 10.834C26.4687 10.714 26.7557 10.781 26.9967 11.008C26.9497 11.247 26.9027 11.488 26.8547 11.733C26.5987 11.686 26.3447 11.641 26.0867 11.594C25.9867 11.293 26.0627 10.944 26.2567 10.834ZM27.3967 10.814C27.5417 10.583 27.7087 10.368 27.8657 10.147C28.3927 10.528 28.6817 11.206 28.6137 11.863C28.5147 11.919 28.4067 11.981 28.2877 12.05C28.2737 11.874 28.2617 11.712 28.2427 11.485C28.1487 11.598 28.1037 11.654 28.0307 11.739C28.0027 11.645 27.9787 11.568 27.9527 11.481C27.9377 11.501 27.9127 11.517 27.9127 11.533C27.9107 11.756 27.9247 11.984 27.7097 12.167C27.6537 12.136 27.5897 12.07 27.5257 12.072C27.2087 12.077 27.2017 11.852 27.1817 11.636C27.1527 11.336 27.2417 11.062 27.3967 10.814ZM28.4667 15.7C28.3957 15.783 28.3227 15.891 28.2287 15.973C27.9447 16.218 27.6907 16.189 27.4617 15.895C27.2927 15.677 27.3107 15.555 27.5347 15.386C27.6067 15.331 27.6797 15.276 27.7457 15.213C27.8017 15.161 27.8487 15.1 27.9037 15.035C28.0977 15.264 28.2697 15.467 28.4667 15.7ZM28.8797 13.881C29.2087 13.816 29.3337 13.841 29.4697 14.121C29.5817 14.351 29.6537 14.614 29.6827 14.868C29.7117 15.137 29.6667 15.412 29.6517 15.736C28.9497 15.538 28.3637 15.293 28.0867 14.616C28.1607 14.515 28.2217 14.43 28.2797 14.349C28.3777 14.451 28.4737 14.552 28.5737 14.659C28.7767 14.426 28.6877 14.183 28.6507 13.921C28.7357 13.906 28.8087 13.896 28.8797 13.881ZM30.5477 14.171C30.5167 14.226 30.4777 14.273 30.4297 14.312C30.2877 14.429 30.0757 14.474 29.8357 14.432L29.5397 13.755C29.7807 13.65 30.0257 13.543 30.2757 13.434C30.5357 13.682 30.6497 13.987 30.5477 14.171ZM29.3437 11.975C29.8597 11.903 30.3227 12.069 30.8137 12.331C30.4187 12.892 30.0287 13.387 29.3157 13.489C29.2267 13.387 29.1457 13.295 29.0477 13.184C29.2027 13.121 29.3417 13.065 29.5527 12.98C29.3907 12.934 29.3027 12.908 29.1847 12.874C29.3517 12.798 29.4917 12.734 29.6657 12.655C29.3697 12.697 29.1097 12.733 28.8527 12.769C28.7507 12.237 28.8737 12.039 29.3437 11.975ZM29.6297 10.896C29.8047 11.048 29.8337 11.361 29.6957 11.656C29.4337 11.689 29.2007 11.717 28.9557 11.746C28.9267 11.498 28.8957 11.243 28.8647 10.98C29.1097 10.78 29.4497 10.739 29.6297 10.896ZM24.1027 17.535C23.9347 17.7939 23.7007 17.9799 23.3717 18.1239C23.2127 17.7459 23.1007 17.4019 23.2197 17.0259C23.2927 16.7939 23.3447 16.7959 23.5707 16.8969C23.6787 16.945 23.8247 16.9049 24.0157 16.9049C24.2487 17.0819 24.2907 17.2449 24.1027 17.535ZM22.7107 16.661C22.4127 16.572 22.1807 16.388 21.9467 16.133C22.2567 15.876 22.5467 15.705 22.9007 15.677C23.1197 15.66 23.1387 15.68 23.2637 15.935C23.1947 15.957 23.1277 15.98 22.9647 16.032C23.1087 16.17 23.2097 16.266 23.3237 16.374C23.1937 16.713 23.0847 16.773 22.7107 16.661ZM22.0377 19.482C21.9127 19.787 21.9247 20.156 21.6437 20.401C21.4847 20.538 21.3167 20.609 21.0547 20.607C21.2697 19.86 21.5827 19.144 21.4377 18.345C21.8107 18.554 22.1697 19.162 22.0377 19.482ZM23.1237 14.166C23.5057 14.333 23.7927 14.546 23.9667 14.889C24.0477 15.05 24.0517 15.192 23.8477 15.265C23.8037 15.218 23.7617 15.173 23.6867 15.095C23.6327 15.248 23.5877 15.374 23.5417 15.5C23.3417 15.527 23.2187 15.526 23.1367 15.471C23.1167 15.458 23.1007 15.442 23.0857 15.423C23.0847 15.421 23.0827 15.42 23.0817 15.419C23.0647 15.399 23.0517 15.374 23.0387 15.346C23.0127 15.288 22.9927 15.215 22.9737 15.122C22.9057 14.801 22.9827 14.5 23.1237 14.166ZM20.3876 18.406C20.3756 18.426 20.3626 18.445 20.3516 18.464C20.2676 18.448 20.1836 18.434 20.0076 18.402C20.1876 18.525 20.3076 18.605 20.4256 18.684L20.3546 18.772C20.2306 18.748 20.1066 18.725 19.8956 18.685C20.0626 18.83 20.1646 18.918 20.3226 19.057C20.1126 19.022 19.9726 18.998 19.7626 18.962C19.9606 19.119 20.1026 19.232 20.2436 19.345C20.2376 19.361 20.2316 19.377 20.2266 19.394C20.0746 19.353 19.9226 19.311 19.7706 19.27C19.7616 19.282 19.7526 19.294 19.7426 19.307C19.8816 19.425 20.0206 19.543 20.1596 19.662C20.1536 19.678 20.1476 19.694 20.1436 19.708C19.9916 19.667 19.8406 19.626 19.5976 19.56C19.7996 19.727 19.9316 19.835 20.0626 19.945L20.0426 19.991C19.8956 19.957 19.7506 19.923 19.6046 19.889L19.5846 19.93C19.6986 20.024 19.8126 20.117 20.0006 20.272C19.7446 20.23 19.5756 20.202 19.3256 20.16C19.5156 20.288 19.6386 20.371 19.7616 20.453C19.7556 20.471 19.7506 20.488 19.7446 20.504C19.5496 20.488 19.3536 20.472 19.0846 20.448C19.2776 20.587 19.4106 20.682 19.5426 20.777L19.5216 20.826C19.3556 20.809 19.1896 20.792 18.9546 20.768C19.0946 20.864 19.1816 20.926 19.2686 20.987C19.2546 21.011 19.2446 21.047 19.2336 21.048C19.1166 21.052 18.9986 21.05 18.8216 21.125C18.9066 21.124 18.9916 21.123 19.0776 21.122C19.0506 21.167 19.0226 21.213 18.9966 21.259C18.8686 21.283 18.7406 21.308 18.6006 21.334C18.6606 21.379 18.7096 21.416 18.7616 21.454C18.4886 21.594 18.0566 21.594 17.5046 21.442C19.1736 20.063 19.7176 18.298 19.3096 16.167C19.9576 16.548 19.9316 17.237 20.2666 17.722C20.1946 17.716 20.1346 17.71 20.0176 17.699C20.1546 17.847 20.2656 17.964 20.4296 18.139C20.2556 18.1 20.1516 18.076 20.0476 18.053C20.0346 18.071 20.0216 18.087 20.0096 18.105L20.3876 18.406ZM17.3896 19.528C17.3746 19.538 17.3596 19.548 17.3466 19.559C17.2466 19.491 17.1466 19.424 17.0476 19.358C17.0346 19.368 17.0206 19.38 17.0086 19.391C17.0726 19.511 17.1386 19.63 17.2466 19.828C17.0626 19.724 16.9486 19.658 16.7556 19.547C16.8636 19.737 16.9346 19.861 17.0056 19.984C16.9926 19.996 16.9796 20.008 16.9676 20.02C16.8296 19.941 16.6906 19.862 16.4746 19.737C16.6026 19.921 16.6796 20.031 16.8096 20.219C16.6236 20.147 16.5226 20.108 16.3746 20.051C16.4486 20.158 16.4956 20.227 16.5896 20.365C16.3816 20.298 16.2596 20.258 16.0956 20.205C16.1486 20.288 16.1836 20.342 16.2466 20.442C16.0816 20.419 15.9506 20.402 15.8126 20.382C15.8386 20.443 15.8626 20.498 15.8906 20.56C15.4966 20.493 15.0836 20.747 14.6866 20.42C14.7706 20.346 14.8486 20.268 14.9356 20.203C15.5636 19.74 16.1386 19.22 16.6286 18.612C17.1976 17.906 17.6396 17.137 17.8036 16.23C17.8136 16.169 17.8496 16.113 17.8776 16.042C18.1476 16.407 18.1926 16.676 18.1016 17.07C18.0756 17.177 18.1256 17.303 18.1456 17.419C18.1646 17.531 18.1896 17.64 18.2196 17.781C18.1446 17.747 18.0736 17.715 17.9536 17.661C18.0416 17.844 18.1116 17.99 18.2256 18.225C18.0726 18.136 17.9956 18.09 17.8706 18.018C17.9446 18.193 18.0036 18.329 18.0836 18.518C17.9786 18.475 17.9066 18.445 17.7996 18.401C17.8516 18.53 17.8936 18.637 17.9626 18.81C17.7946 18.71 17.6866 18.647 17.5106 18.542C17.6116 18.724 17.6816 18.848 17.7776 19.022C17.6346 18.958 17.5306 18.912 17.3546 18.833C17.4566 19.022 17.5256 19.149 17.5946 19.275C17.5796 19.286 17.5646 19.298 17.5516 19.309C17.4296 19.219 17.3066 19.129 17.1196 18.992C17.2286 19.211 17.3096 19.369 17.3896 19.528ZM16.6667 29.375L16.6257 29.378C16.6097 29.266 16.5937 29.153 16.5657 28.965C16.5307 29.128 16.5107 29.221 16.4857 29.329C16.4437 29.262 16.4107 29.209 16.3497 29.11C16.3117 29.275 16.2827 29.403 16.2337 29.617C16.2127 29.348 16.1977 29.163 16.1777 28.906C16.1177 29.192 16.0717 29.405 16.0267 29.618C16.0117 29.617 15.9947 29.616 15.9787 29.615V28.932C15.9617 28.929 15.9447 28.927 15.9277 28.924C15.8797 29.111 15.8317 29.296 15.7827 29.483C15.7737 29.481 15.7657 29.478 15.7567 29.476V28.783C15.6827 29.036 15.6167 29.257 15.5527 29.479C15.5347 29.478 15.5177 29.477 15.5007 29.477C15.4567 28.915 15.4127 28.355 15.3687 27.794V27.793C15.7957 27.794 16.2217 27.794 16.6667 27.794V29.375ZM14.6287 18.653C14.4397 18.447 14.2517 18.24 14.0627 18.035C14.0437 18.045 14.0247 18.055 14.0057 18.065C14.1337 18.333 14.2627 18.601 14.3917 18.869C14.3687 18.884 14.3467 18.899 14.3237 18.914C14.1187 18.671 13.9147 18.429 13.7097 18.187C13.6927 18.194 13.6767 18.201 13.6587 18.208C13.7937 18.533 13.9277 18.858 14.0617 19.183C14.0407 19.198 14.0207 19.214 14.0007 19.229C13.8167 19.024 13.6347 18.819 13.4517 18.614C13.4367 18.621 13.4217 18.628 13.4057 18.636C13.4997 18.829 13.5927 19.023 13.6867 19.215C13.6677 19.231 13.6477 19.245 13.6287 19.261C13.4587 19.1 13.2887 18.94 13.1187 18.779C13.1057 18.79 13.0927 18.801 13.0797 18.813C13.2057 19.014 13.3317 19.216 13.4577 19.418C13.4377 19.435 13.4177 19.451 13.3967 19.469C13.1797 19.291 12.9617 19.114 12.7427 18.936C12.7297 18.947 12.7167 18.958 12.7027 18.969C12.8187 19.128 12.9347 19.287 13.0497 19.446C13.0367 19.463 13.0237 19.481 13.0117 19.497C12.8657 19.426 12.7207 19.355 12.5027 19.248C12.5957 19.374 12.6477 19.446 12.7597 19.597C12.1207 19.456 11.6567 19.19 11.2107 18.766C11.3957 18.676 11.5307 18.608 11.6697 18.544C13.3627 17.768 14.6037 16.559 15.2407 14.783C15.6627 13.609 15.7497 12.396 15.5937 11.162C15.5857 11.099 15.5817 11.034 15.5697 10.915C15.9467 11.065 15.9657 11.428 16.1787 11.64C16.3537 11.816 16.2977 12.143 16.6037 12.318H16.2757C16.4097 12.412 16.5027 12.478 16.6477 12.58C16.5877 12.597 16.5397 12.61 16.4847 12.625C16.5577 12.706 16.6047 12.76 16.6877 12.853C16.5347 12.834 16.4287 12.822 16.2737 12.803C16.4557 12.948 16.5987 13.063 16.7397 13.177C16.7347 13.193 16.7287 13.207 16.7237 13.223C16.6097 13.194 16.4977 13.163 16.3127 13.115C16.5147 13.302 16.6567 13.434 16.8537 13.615C16.7267 13.601 16.6617 13.594 16.5387 13.58C16.6517 13.706 16.7397 13.805 16.8787 13.958C16.6947 13.907 16.5767 13.874 16.3757 13.818C16.5587 13.982 16.6847 14.096 16.8117 14.209C16.8037 14.231 16.7967 14.251 16.7887 14.273C16.6397 14.229 16.4897 14.184 16.2567 14.114C16.4557 14.289 16.5967 14.412 16.7377 14.536C16.7287 14.551 16.7207 14.567 16.7107 14.581C16.5307 14.519 16.3507 14.457 16.1697 14.395L16.1357 14.429C16.3137 14.62 16.4937 14.813 16.6727 15.004C16.6617 15.021 16.6507 15.038 16.6407 15.055C16.5147 15.006 16.3897 14.957 16.2647 14.908C16.2537 14.921 16.2427 14.934 16.2317 14.946C16.3417 15.072 16.4507 15.197 16.5607 15.322L16.5307 15.363C16.3947 15.297 16.2587 15.233 16.1227 15.167C16.1077 15.18 16.0937 15.194 16.0787 15.206C16.2297 15.366 16.3817 15.526 16.5317 15.686C16.5207 15.703 16.5107 15.72 16.4997 15.738C16.2927 15.649 16.0857 15.56 15.8797 15.472C15.8647 15.49 15.8517 15.509 15.8377 15.529C16.0177 15.672 16.1967 15.817 16.3767 15.961C16.3507 15.996 16.3237 16.032 16.2977 16.069C16.1037 15.972 15.9077 15.875 15.7137 15.78C15.7017 15.795 15.6897 15.812 15.6777 15.827C15.8427 16.034 16.0067 16.24 16.1717 16.447L16.1217 16.503C15.9207 16.368 15.7197 16.233 15.5187 16.098C15.5017 16.111 15.4847 16.124 15.4687 16.138C15.6347 16.355 15.7997 16.572 15.9657 16.789C15.9497 16.81 15.9337 16.83 15.9177 16.852C15.7477 16.736 15.5787 16.62 15.3527 16.466C15.4397 16.78 15.6857 16.926 15.8097 17.239C15.6127 17.104 15.4727 17.007 15.3317 16.91C15.3167 16.92 15.3017 16.93 15.2867 16.941L15.6177 17.406C15.6027 17.423 15.5857 17.439 15.5697 17.454C15.3967 17.325 15.2237 17.197 15.0497 17.067L15.0057 17.099C15.1397 17.292 15.2737 17.486 15.4077 17.679C15.3907 17.697 15.3727 17.713 15.3557 17.731L14.7587 17.259C14.7417 17.27 14.7257 17.281 14.7077 17.292C14.8707 17.545 15.0337 17.799 15.1957 18.052C15.1777 18.071 15.1587 18.088 15.1407 18.107C14.9687 17.949 14.7967 17.791 14.6247 17.634C14.6107 17.646 14.5967 17.657 14.5817 17.669C14.7197 17.898 14.8557 18.126 14.9937 18.355L14.9467 18.399C14.7327 18.199 14.5197 18.001 14.3057 17.802C14.2887 17.812 14.2707 17.821 14.2547 17.83C14.3967 18.09 14.5397 18.351 14.6817 18.611C14.6637 18.624 14.6457 18.638 14.6287 18.653ZM12.6367 28.331C12.6177 28.326 12.5986 28.322 12.5787 28.319C12.5877 28.192 12.5957 28.065 12.6037 27.938C12.5927 27.933 12.5817 27.927 12.5707 27.922C12.4917 28.128 12.4117 28.335 12.3327 28.541L12.2947 28.538C12.3047 28.398 12.3137 28.258 12.3237 28.118L12.2826 28.11C12.2167 28.262 12.1507 28.413 12.0847 28.565C12.0707 28.563 12.0587 28.561 12.0457 28.558C12.0627 28.364 12.0796 28.169 12.0977 27.975C12.0787 27.97 12.0617 27.965 12.0437 27.961C11.9756 28.126 11.9076 28.292 11.8407 28.457C11.8277 28.456 11.8156 28.455 11.8036 28.454C11.8187 28.292 11.8337 28.13 11.8486 27.969C11.8347 27.964 11.8207 27.96 11.8077 27.956C11.7597 28.043 11.7116 28.129 11.6617 28.22C11.4887 27.84 11.4876 27.84 11.5796 27.505C11.6377 27.294 11.6976 27.084 11.7597 26.864C12.1817 27.01 12.5627 27.141 12.9997 27.291C12.8737 27.654 12.7557 27.992 12.6367 28.331ZM10.9817 17.076C10.7667 16.903 10.5507 16.728 10.3347 16.554C10.3237 16.564 10.3127 16.574 10.3027 16.585C10.4287 16.761 10.5537 16.936 10.6897 17.127C10.2567 17.104 9.8877 16.708 9.7157 16.097C12.7827 14.775 13.8797 12.394 13.4157 9.13098C13.5247 9.25598 13.6477 9.37198 13.7397 9.50898C13.8347 9.64898 13.9037 9.80698 13.9787 9.95998C13.9987 10.003 14.0207 10.044 14.0407 10.083C14.0827 10.159 14.1247 10.227 14.1637 10.276C14.1837 10.3 14.2027 10.32 14.2207 10.334C14.2177 10.346 14.2107 10.358 14.2117 10.368C14.2387 10.652 14.2587 10.717 14.3647 10.854C14.2517 10.842 14.1617 10.833 14.0067 10.818C14.1717 10.948 14.2827 11.038 14.4577 11.177C14.3047 11.159 14.2257 11.151 14.1047 11.137C14.2587 11.256 14.3877 11.357 14.5157 11.456C14.4967 11.481 14.4777 11.505 14.4587 11.53H14.2617C14.3377 11.623 14.4007 11.699 14.5057 11.827C14.3417 11.788 14.2357 11.763 14.0697 11.724C14.2377 11.864 14.3567 11.965 14.5337 12.114C14.3557 12.094 14.2437 12.08 14.0747 12.062C14.1987 12.174 14.2817 12.249 14.3647 12.324C14.3567 12.341 14.3507 12.358 14.3437 12.374C14.2027 12.338 14.0627 12.302 13.8527 12.247C14.0497 12.463 14.2007 12.628 14.3527 12.794C14.3417 12.809 14.3297 12.824 14.3187 12.84C14.2067 12.793 14.0947 12.747 13.9807 12.7C13.9717 12.714 13.9617 12.727 13.9517 12.74C14.0397 12.839 14.1267 12.937 14.2137 13.035C14.2047 13.051 14.1957 13.068 14.1867 13.083C14.0767 13.038 13.9667 12.993 13.8567 12.948L13.8337 12.989C13.9557 13.118 14.0787 13.247 14.2007 13.376C14.1897 13.394 14.1797 13.411 14.1677 13.429C13.9927 13.361 13.8177 13.291 13.6427 13.223C13.6337 13.233 13.6237 13.243 13.6137 13.253C13.7627 13.406 13.9107 13.557 14.0597 13.708C14.0497 13.724 14.0387 13.739 14.0287 13.755C13.8587 13.673 13.6897 13.591 13.4377 13.468C13.5857 13.746 13.7867 13.895 13.8767 14.138C13.7057 14.036 13.5357 13.935 13.3647 13.833C13.3527 13.851 13.3397 13.867 13.3277 13.885C13.4477 14.046 13.5687 14.207 13.6887 14.368C13.6717 14.386 13.6537 14.404 13.6367 14.422C13.5117 14.348 13.3877 14.275 13.2637 14.201C13.2507 14.214 13.2367 14.228 13.2247 14.241L13.5147 14.678C13.5057 14.694 13.4967 14.708 13.4867 14.723C13.3657 14.654 13.2447 14.584 13.0437 14.47C13.2007 14.673 13.3027 14.804 13.4037 14.935C13.3907 14.954 13.3777 14.974 13.3647 14.993L12.8987 14.671C12.8887 14.682 12.8787 14.694 12.8677 14.704C12.9767 14.858 13.0857 15.012 13.1937 15.166C13.1807 15.183 13.1677 15.199 13.1547 15.216C13.0127 15.119 12.8697 15.022 12.7267 14.925L12.6767 14.951C12.7747 15.128 12.8727 15.305 12.9717 15.483C12.9547 15.497 12.9377 15.513 12.9217 15.529C12.7817 15.407 12.6437 15.286 12.5037 15.166C12.4937 15.174 12.4827 15.182 12.4727 15.19C12.5977 15.396 12.7217 15.602 12.8467 15.808C12.8327 15.822 12.8187 15.835 12.8057 15.85C12.6177 15.685 12.4317 15.521 12.2437 15.357C12.2297 15.366 12.2177 15.377 12.2037 15.387C12.3197 15.597 12.4367 15.806 12.5527 16.016C12.5447 16.021 12.5367 16.027 12.5287 16.031L12.1217 15.595C12.0967 15.614 12.0707 15.635 12.0457 15.655C12.0507 15.899 12.2687 16.067 12.3187 16.355C12.0587 16.161 11.9187 15.912 11.6677 15.742C11.7237 15.873 11.7797 16.003 11.8357 16.134C11.8957 16.277 11.9547 16.42 12.0147 16.563C11.9937 16.579 11.9737 16.595 11.9517 16.612L11.4827 16.087C11.4667 16.097 11.4507 16.107 11.4347 16.116C11.5347 16.304 11.6357 16.491 11.7357 16.678C11.7207 16.694 11.7047 16.709 11.6877 16.725C11.5267 16.57 11.3657 16.413 11.2047 16.258L11.1487 16.29C11.2507 16.486 11.3527 16.682 11.4527 16.877C11.4367 16.89 11.4197 16.904 11.4017 16.916C11.1817 16.723 10.9597 16.53 10.7387 16.335C10.7207 16.347 10.7017 16.359 10.6847 16.37L11.0327 17.03C11.0167 17.045 10.9997 17.061 10.9817 17.076ZM9.46872 13.956C9.32772 13.956 9.16472 14.006 9.06572 13.947C8.76372 13.766 8.58272 13.483 8.51672 13.102C10.9577 12.514 12.0497 10.886 12.1347 8.45703C12.3997 8.79003 12.4817 9.16903 12.5717 9.55303C12.6067 9.70203 12.3627 9.82603 12.5647 9.96003C12.4817 10.094 12.5697 10.208 12.5947 10.333C12.6017 10.367 12.6507 10.574 12.4537 10.514C12.4437 10.583 12.4347 10.654 12.4247 10.723C12.4157 10.781 12.4067 10.838 12.3957 10.916C12.3517 10.909 12.2817 10.899 12.1667 10.881C12.2377 11.011 12.2977 11.118 12.3927 11.29C12.2697 11.229 12.2067 11.198 12.0957 11.143C12.1587 11.258 12.2027 11.338 12.2587 11.44C12.1707 11.418 12.1117 11.404 12.0357 11.385C12.0767 11.473 12.1127 11.55 12.1757 11.683C12.0457 11.624 11.9677 11.589 11.8587 11.54C11.8897 11.637 11.9137 11.714 11.9487 11.826C11.8637 11.801 11.8057 11.783 11.7187 11.757C11.7397 11.854 11.7577 11.935 11.7857 12.06C11.7127 12.037 11.6587 12.022 11.5757 11.997C11.5917 12.098 11.6047 12.187 11.6257 12.314C11.5227 12.248 11.4597 12.207 11.3467 12.135C11.4187 12.301 11.4727 12.426 11.5417 12.587C11.4547 12.545 11.4097 12.523 11.3417 12.489C11.3457 12.561 11.3497 12.622 11.3537 12.695C11.2907 12.671 11.2327 12.65 11.1567 12.622C11.1717 12.706 11.1837 12.778 11.2017 12.891C11.0997 12.817 11.0237 12.762 10.9017 12.673C10.9417 12.825 10.9677 12.922 11.0037 13.062C10.9067 13.001 10.8477 12.964 10.7667 12.914C10.7887 13.016 10.8077 13.1 10.8427 13.265C10.7427 13.121 10.6827 13.034 10.6217 12.948C10.5947 12.967 10.5657 12.986 10.5387 13.004C10.5547 13.106 10.5697 13.207 10.5857 13.312C10.5627 13.315 10.5297 13.325 10.5217 13.317C10.4547 13.239 10.3917 13.156 10.2907 13.03C10.3247 13.198 10.3487 13.31 10.3707 13.421C10.3557 13.432 10.3407 13.442 10.3257 13.452C10.2437 13.36 10.1627 13.268 10.0427 13.132C10.0887 13.36 10.1237 13.534 10.1747 13.788C10.0517 13.658 9.98672 13.59 9.91272 13.512C9.89472 13.586 9.88172 13.635 9.85872 13.72C9.76772 13.62 9.69372 13.539 9.56972 13.403C9.62672 13.597 9.66572 13.727 9.72972 13.946C9.57872 13.8 9.48672 13.711 9.34672 13.574C9.39572 13.728 9.42672 13.826 9.46872 13.956ZM7.96573 5.72195C7.73073 5.44095 7.78873 5.06595 7.58773 4.71795C7.60373 5.02095 7.61574 5.26295 7.62873 5.50495C7.61574 5.50695 7.60373 5.50895 7.59173 5.51195C7.52773 5.25995 7.46573 5.00895 7.40273 4.75795H7.36073V5.26895C7.34173 5.27095 7.32273 5.27395 7.30473 5.27595C7.25273 5.08495 7.20174 4.89395 7.13373 4.64295C7.15473 4.91795 7.17273 5.13295 7.18874 5.34895C7.16973 5.35395 7.14874 5.35895 7.12973 5.36295C7.09473 5.22395 7.05873 5.08495 7.02374 4.94595C6.98873 4.80595 6.95673 4.66595 6.89174 4.52995C6.90773 4.75395 6.92573 4.97995 6.94173 5.20395C6.92973 5.20595 6.91773 5.20795 6.90473 5.20995C6.85673 5.03495 6.80973 4.86095 6.74373 4.61995C6.72473 4.80395 6.71173 4.92495 6.69273 5.09795C6.65473 4.98495 6.63273 4.91695 6.58673 4.78395C6.56374 4.96295 6.54873 5.08095 6.52273 5.27995C6.32273 4.73895 6.31073 4.24195 6.26273 3.75795C6.21373 3.27495 6.13473 2.77395 6.37673 2.19995C6.56173 2.36895 6.69473 2.45595 6.78273 2.57695C7.37173 3.37895 7.82273 4.25295 8.10273 5.20995C8.15273 5.38495 8.24273 5.59595 7.96573 5.72195ZM5.13868 8.34104C4.62568 8.23504 4.51768 8.28504 4.23568 8.73904C4.21768 8.77104 4.18768 8.79604 4.12668 8.86804C4.09768 8.43104 4.22568 8.19804 4.53968 8.06304C4.91768 7.90104 5.35068 8.04104 5.76968 8.49904C5.52268 8.43704 5.33268 8.38204 5.13868 8.34104ZM5.24665 9.43997C5.15765 9.14297 5.21265 8.81497 4.82165 8.75697C4.61365 8.72697 4.50565 8.86597 4.38865 9.27397C4.24165 9.17697 4.20965 9.02597 4.29065 8.90197C4.37865 8.76797 4.50965 8.62397 4.65165 8.57597C4.79865 8.52697 4.98865 8.56397 5.14765 8.60797C5.30865 8.65297 5.45265 8.75197 5.63665 8.84397C5.49665 9.05697 5.37165 9.24797 5.24665 9.43997ZM4.19375 2.979C4.77975 3.69 5.32575 4.326 5.76275 5.083C5.50575 5.064 5.27275 5.046 5.02075 5.028C4.99675 5.191 4.97775 5.328 4.95675 5.475C4.67475 5.253 4.15575 3.605 4.19375 2.979ZM2.4977 12.629C2.4867 12.603 2.4767 12.576 2.4657 12.549C2.9317 12.361 3.3977 12.172 3.8637 11.983C3.8727 12.008 3.8807 12.033 3.8887 12.059C3.4587 12.333 3.0077 12.555 2.4977 12.629ZM36.7358 6.829C36.8288 6.285 36.9068 5.821 36.9908 5.329C36.7918 5.355 36.6528 5.372 36.4908 5.394C36.4718 4.808 36.6428 4.252 36.5898 3.627C36.4178 3.836 36.2958 3.986 36.1728 4.135L36.0908 4.12C36.0708 3.624 36.0508 3.128 36.0298 2.632C36.0128 2.631 35.9958 2.63 35.9788 2.629C35.8928 2.807 35.8068 2.984 35.7198 3.161C35.6958 3.154 35.6728 3.146 35.6488 3.137C35.6148 2.729 35.5818 2.321 35.5488 1.912C35.5298 1.911 35.5128 1.909 35.4938 1.907C35.4048 2.101 35.3158 2.294 35.2278 2.487C35.1978 2.483 35.1688 2.478 35.1398 2.473C35.0468 1.99 34.9538 1.508 34.8608 1.025C34.8468 1.026 34.8308 1.028 34.8148 1.029C34.7608 1.317 34.7058 1.605 34.6498 1.894L34.5738 1.903C34.3538 1.447 34.1348 0.993 33.9138 0.538C33.8918 0.544 33.8688 0.55 33.8458 0.556C33.8608 0.853 33.8768 1.149 33.8918 1.446C33.5398 1.068 33.3518 0.606 32.9738 0.247V1.006C32.9488 1.014 32.9248 1.022 32.8998 1.03C32.7068 0.786 32.5138 0.543 32.3208 0.3L32.2658 0.338C32.2888 0.486 32.3128 0.634 32.3348 0.782L32.2788 0.812C32.0548 0.564 31.8308 0.316 31.6058 0.069C31.5898 0.078 31.5728 0.089 31.5568 0.1C31.6098 0.295 31.6628 0.491 31.7168 0.688C31.6968 0.702 31.6788 0.717 31.6588 0.733C31.3278 0.498 30.9958 0.264 30.6648 0.03L30.6118 0.088C30.7068 0.28 30.8028 0.47 30.8978 0.661C30.8808 0.68 30.8638 0.698 30.8468 0.717C30.4708 0.478 30.0948 0.239 29.7188 0C29.7038 0.02 29.6878 0.04 29.6738 0.06C29.8058 0.276 29.9368 0.491 30.0678 0.706C30.0468 0.729 30.0258 0.751 30.0058 0.775C29.5788 0.584 29.1508 0.395 28.7248 0.205C28.7128 0.225 28.7008 0.245 28.6888 0.265C28.8368 0.462 28.9828 0.659 29.1308 0.857C29.1168 0.88 29.1038 0.904 29.0908 0.927C28.6218 0.801 28.1528 0.674 27.6848 0.548C27.6758 0.564 27.6678 0.579 27.6588 0.595C27.8428 0.78 28.0248 0.964 28.2088 1.148C28.1918 1.166 28.1768 1.185 28.1598 1.203C27.7288 1.081 27.2968 0.959 26.8248 0.825C27.0088 1.174 27.3408 1.34 27.4748 1.687C27.0828 1.71 26.7238 1.733 26.2708 1.761C26.5118 1.973 26.6768 2.117 26.8658 2.284C26.5888 2.554 26.3498 2.785 26.0448 3.081C26.3898 3.094 26.6378 3.104 26.9758 3.116C26.5908 3.484 26.2828 3.777 25.9338 4.11C26.1688 4.136 26.3268 4.155 26.5208 4.177C26.3958 4.436 26.2908 4.655 26.1778 4.889C26.2718 4.895 26.3328 4.899 26.4218 4.904C26.4008 5.103 26.3808 5.297 26.3648 5.443C26.4668 5.6 26.5668 5.714 26.6228 5.848C26.8318 6.345 27.1478 6.76 27.5488 7.113C27.6198 7.175 27.7078 7.219 27.7968 7.278C27.8298 7.18 27.8548 7.119 27.8708 7.056C28.2188 5.653 29.7118 4.935 30.9858 5.247C32.2048 5.546 33.3158 6.951 32.6608 8.447C32.2678 9.345 31.5768 9.985 30.8258 10.568C30.6388 10.487 30.4848 10.409 30.3248 10.352C29.9178 10.203 29.5188 10.013 29.0978 9.93C27.8798 9.688 26.6578 9.787 25.4408 9.972C24.1878 10.161 22.9738 10.513 21.7508 10.83C21.4088 10.919 21.0538 11.009 20.7048 11.011C19.7568 11.015 18.8078 10.983 17.8598 10.945C16.6128 10.894 15.4978 10.531 14.5508 9.656C13.7978 8.96 12.9778 8.334 12.1698 7.699C11.7358 7.358 11.2778 7.044 10.8068 6.757C10.5948 6.628 10.4328 6.493 10.3128 6.277C9.34376 4.517 8.07776 2.99 6.61476 1.623C6.46076 1.479 6.29476 1.298 6.06676 1.389C5.83376 1.482 5.84876 1.732 5.85276 1.94C5.86076 2.466 5.88676 2.992 5.90276 3.519C5.90576 3.6 5.89576 3.682 5.88876 3.81C5.74676 3.708 5.64976 3.644 5.55976 3.572C5.13676 3.236 4.71876 2.894 4.29176 2.563C4.16376 2.464 4.01476 2.395 3.87476 2.312C3.84676 2.331 3.81776 2.35 3.78976 2.368C3.80876 2.516 3.80976 2.667 3.84776 2.809C4.08376 3.686 4.32976 4.56 4.56976 5.436C4.62476 5.636 4.66976 5.839 4.71776 6.036C4.65576 6.088 4.61876 6.127 4.57476 6.154C3.79276 6.629 3.33276 7.303 3.23476 8.228C3.18976 8.651 2.96076 8.975 2.60376 9.232C2.01576 9.655 1.44676 10.105 0.885756 10.562C0.663756 10.741 0.493756 10.987 0.167756 10.993C0.117756 10.995 0.0687559 11.068 -0.000244141 11.122C0.0707559 11.232 0.133756 11.327 0.195756 11.422C0.178756 11.083 0.226756 11.011 0.531756 11.006C0.710756 11.003 0.895756 11.027 1.06776 11.076C1.14576 11.099 1.19676 11.215 1.26076 11.288C1.18276 11.342 1.10876 11.431 1.02476 11.442C0.782756 11.475 0.535756 11.477 0.290756 11.49C0.465756 11.616 0.580756 11.773 0.659756 11.984C0.843756 12.476 1.21776 12.733 1.75076 12.745C1.85376 12.747 1.95576 12.757 2.06976 12.765C2.27876 13.387 2.74876 13.535 3.32976 13.466C3.57776 13.437 3.82276 13.388 4.06876 13.344C4.65176 13.239 5.23076 13.106 5.81776 13.033C6.98476 12.89 7.91876 13.284 8.52976 14.322C8.68976 14.593 8.83676 14.877 8.94576 15.171C9.14576 15.714 9.32076 16.267 9.49576 16.819C9.75876 17.651 10.0728 18.458 10.5298 19.205C10.8478 19.725 11.2028 20.221 11.7038 20.578C11.9188 20.732 11.9648 20.903 11.9598 21.143C11.9468 21.827 11.9598 22.513 11.9498 23.198C11.9448 23.539 11.9298 23.883 11.8888 24.221C11.8128 24.835 11.7258 25.448 11.6218 26.058C11.5038 26.759 11.3548 27.454 11.2328 28.155C11.1778 28.47 11.0188 28.667 10.7188 28.786C10.4258 28.902 10.1458 29.055 9.86776 29.204C9.72976 29.278 9.59576 29.367 9.47876 29.473C9.24976 29.681 9.26276 29.909 9.50476 30.108C9.57476 30.166 9.65476 30.218 9.73876 30.252C10.6888 30.636 11.5978 30.489 12.4688 30.008C12.6988 29.88 12.8188 29.661 12.8088 29.381C12.7998 29.171 12.7918 28.958 12.8098 28.749C12.8538 28.219 12.9378 27.689 13.3028 27.278C13.5208 27.032 13.6798 26.769 13.7688 26.464C13.9568 25.821 14.1278 25.172 14.3058 24.525C14.3448 24.384 14.3818 24.243 14.4198 24.103C14.4478 24.103 14.4778 24.104 14.5058 24.104C14.5838 24.35 14.6718 24.593 14.7388 24.842C14.9238 25.528 15.1318 26.204 15.1088 26.933C15.0908 27.496 15.1478 28.063 15.1708 28.627C15.1778 28.785 15.1848 28.944 15.1788 29.102C15.1588 29.617 14.9618 30.045 14.5398 30.359C14.3388 30.508 14.1378 30.657 13.9428 30.814C13.7108 31 13.5468 31.237 13.4788 31.53C13.4068 31.834 13.5108 32.059 13.8088 32.156C14.0178 32.225 14.2468 32.272 14.4648 32.264C15.2348 32.238 15.9798 32.074 16.6808 31.743C17.1998 31.498 17.3028 31.252 17.1568 30.692C17.0948 30.45 16.9898 30.207 16.9878 29.965C16.9828 29.03 16.9648 28.091 17.0388 27.16C17.1468 25.796 17.3298 24.437 17.4858 23.076C17.5148 22.832 17.5668 22.591 17.6098 22.334C17.7748 22.325 17.9058 22.326 18.0348 22.312C18.6758 22.239 19.3178 22.179 19.9548 22.084C20.4178 22.016 20.8178 21.807 21.1928 21.512C21.8868 20.966 22.6098 20.459 23.3268 19.946C23.5298 19.801 23.7538 19.684 23.9718 19.563C24.1458 19.466 24.3198 19.452 24.5138 19.626C24.5138 20.046 24.4798 20.494 24.5208 20.937C24.6088 21.9 24.9818 22.702 25.8508 23.238C26.3638 23.554 26.8498 23.925 27.3158 24.31C27.5858 24.532 27.8148 24.815 28.0218 25.101C28.2108 25.362 28.3008 25.684 28.1998 26.003C27.9378 26.833 27.6348 27.648 27.1688 28.39C27.0098 28.644 26.7868 28.813 26.5038 28.921C26.1598 29.052 25.8228 29.205 25.4918 29.365C25.3638 29.427 25.2448 29.52 25.1458 29.621C25.0218 29.745 25.0378 29.888 25.1768 29.996C25.2588 30.06 25.3538 30.112 25.4488 30.155C26.1018 30.45 26.7868 30.541 27.4948 30.461C27.9078 30.415 28.2478 30.241 28.4608 29.861C28.5818 29.643 28.7288 29.438 28.8478 29.218C29.3948 28.211 29.9398 27.203 30.4788 26.192C30.6668 25.837 30.6428 25.49 30.4048 25.151C30.2638 24.947 30.1318 24.728 30.0468 24.497C29.8328 23.912 29.7338 23.301 29.7178 22.678C29.7148 22.579 29.7378 22.481 29.7498 22.372C29.8158 22.382 29.8588 22.378 29.8908 22.394C30.6628 22.796 31.4258 23.215 32.0948 23.778C32.2498 23.908 32.4138 24.083 32.4688 24.27C32.6538 24.9 32.8048 25.54 32.9458 26.183C33.0748 26.764 33.1268 27.354 33.0088 27.947C32.8428 28.779 32.3828 29.446 31.8188 30.052C31.5508 30.342 31.2588 30.611 31.0028 30.911C30.6578 31.318 30.7598 31.661 31.2628 31.851C31.6038 31.98 31.9648 32.022 32.3128 31.932C32.7698 31.814 33.2118 31.64 33.6628 31.498C34.2008 31.328 34.4368 30.952 34.5478 30.406C34.8898 28.73 35.2628 27.059 35.6518 25.393C35.7348 25.037 35.6928 24.748 35.5048 24.459C35.2448 24.062 34.9668 23.676 34.7318 23.264C34.4348 22.739 34.1638 22.197 33.9018 21.652C33.8378 21.519 33.8038 21.334 33.8408 21.197C34.0408 20.433 34.2678 19.677 34.4858 18.918C34.5518 18.692 34.6478 18.47 34.6798 18.239C34.7798 17.491 34.7698 16.739 34.6648 15.993C34.4458 14.426 33.7848 13.054 32.7918 11.833C32.7708 11.807 32.7678 11.766 32.7518 11.721C33.0808 11.527 33.4038 11.371 33.7958 11.411C34.0038 11.432 34.2158 11.417 34.4718 11.389C34.3218 11.263 34.2268 11.182 34.1258 11.097C34.5128 10.748 34.9778 10.658 35.4418 10.548C35.3788 10.463 35.3358 10.405 35.2928 10.347C35.7448 9.875 36.3948 9.788 36.9758 9.408C36.6668 9.395 36.4418 9.384 36.1638 9.371C36.4228 8.814 36.9068 8.509 37.2018 8.008C36.9938 8.079 36.8418 8.131 36.6168 8.207C36.8598 7.602 37.0708 7.073 37.3168 6.46C37.0928 6.603 36.9528 6.692 36.7358 6.829Z" fill="#DA4B32"/>
</g>
</svg>