<svg width="37" height="38" viewBox="0 0 37 38" fill="none" xmlns="http://www.w3.org/2000/svg">
<mask id="mask0" mask-type="alpha" maskUnits="userSpaceOnUse" x="0" y="0" width="37" height="38">
<path fill-rule="evenodd" clip-rule="evenodd" d="M0 0.000488281H36.0932V37.2652H0V0.000488281Z" fill="white"/>
</mask>
<g mask="url(#mask0)">
<path fill-rule="evenodd" clip-rule="evenodd" d="M4.35076 6.90667C4.88776 6.90667 5.39076 7.20867 5.52576 7.61367C5.66176 8.01567 5.45876 8.59867 5.06976 8.91667C4.69776 9.22067 4.26776 9.30367 3.80976 9.19667C3.45176 9.11167 3.21676 8.87867 3.12476 8.51067C2.92176 7.70067 3.52576 6.90667 4.35076 6.90667ZM6.16376 7.84467C7.28776 8.13567 8.36276 8.41467 9.43876 8.69267C9.43476 8.71967 9.43076 8.74667 9.42676 8.77367C8.58876 8.73467 7.74976 8.69667 6.91176 8.65667C6.89976 8.67867 6.88876 8.70167 6.87676 8.72367C7.35676 9.07067 7.83776 9.41767 8.31776 9.76467C8.30776 9.78767 8.29676 9.80967 8.28776 9.83267C7.66476 9.65667 7.04276 9.47867 6.33476 9.27767C6.54276 9.61067 6.71076 9.87867 6.87876 10.1467L6.81676 10.2097C6.37076 9.94367 5.92376 9.67867 5.44276 9.39267C5.85976 8.94367 6.18976 8.48967 6.16376 7.84467ZM13.5858 6.56367C14.3108 6.73267 14.8858 7.12267 15.3088 7.73467C15.3568 7.80367 15.3868 7.88567 15.4018 7.98967C14.8098 7.46867 14.1618 7.08767 13.3618 7.08367C12.5068 7.07967 11.9668 7.59967 11.5168 8.33867C11.5188 7.23067 12.6148 6.33867 13.5858 6.56367ZM12.2868 5.86567C12.4898 6.05267 12.6428 6.19867 12.6648 6.44567C12.3138 6.31267 12.2608 6.23667 12.2868 5.86567ZM12.7518 5.74767C12.9308 5.92467 12.9428 6.11167 12.8748 6.32667C12.6438 6.11367 12.6318 6.06367 12.7518 5.74767ZM13.2598 5.64367C13.3478 5.94567 13.3478 6.15567 13.1638 6.40667C13.0008 6.12067 13.0918 5.92167 13.2598 5.64367ZM13.7498 5.74567C13.8208 5.99467 13.7248 6.16467 13.5368 6.39167C13.5388 5.99667 13.5388 5.99667 13.7498 5.74567ZM14.3788 5.89567C14.3748 6.18767 14.3138 6.26967 13.9608 6.43067C14.0028 6.15267 14.1348 5.98967 14.3788 5.89567ZM14.0288 2.52067C14.2468 1.33567 15.7208 0.770672 16.7028 1.46967C17.0848 1.74067 17.2728 2.11367 17.2438 2.58667C17.2168 3.02667 16.9848 3.64767 16.6898 4.06867C16.5658 4.02067 16.4348 3.97067 16.2858 3.91367C16.3028 3.79667 16.3168 3.69667 16.3238 3.64967C16.1818 3.58567 16.0478 3.52467 15.9138 3.46467C15.9138 3.46467 15.5578 3.56967 15.5288 3.57767C15.5328 3.52367 15.5348 3.48067 15.5388 3.43667C15.5438 3.39867 15.5518 3.36167 15.5668 3.27167C15.4828 3.36967 15.4298 3.43067 15.3528 3.52167C15.3278 3.41367 15.3098 3.34067 15.2818 3.21767C15.2128 3.33367 15.1598 3.42367 15.0828 3.55367C15.0468 3.43367 15.0248 3.35767 14.9998 3.27567C14.9498 3.34067 14.9058 3.39967 14.8358 3.49067C14.8088 3.38767 14.7938 3.32567 14.7588 3.18567C14.7228 3.34867 14.7008 3.44467 14.6688 3.58867C14.5828 3.48867 14.5288 3.42567 14.4188 3.29867C14.4658 3.52167 14.4968 3.66767 14.5268 3.81267C14.1948 3.95467 14.1138 3.93367 14.0738 3.61667C14.0278 3.25367 13.9638 2.87167 14.0288 2.52067ZM16.2418 7.85467C16.0938 7.79467 15.9458 7.73367 15.7488 7.65267C16.0718 7.57567 16.0718 7.57567 16.2418 7.85467ZM16.0178 7.45067C15.7928 7.43067 15.5678 7.41067 15.3108 7.38767C15.6008 7.16467 15.7218 7.16767 16.0178 7.45067ZM15.8898 6.93867C15.5748 7.08567 15.3088 7.11167 14.9658 7.04067C15.2798 6.86467 15.5398 6.79767 15.8898 6.93867ZM14.4378 6.55667C14.6458 6.23667 14.7408 6.18167 15.0578 6.19967C14.8248 6.48367 14.7748 6.51167 14.4378 6.55667ZM15.5798 6.45767C15.3438 6.77267 15.1488 6.84667 14.7618 6.82667C14.7568 6.79967 14.7528 6.77067 14.7478 6.74267C14.9988 6.65667 15.2488 6.57167 15.5798 6.45767ZM17.7008 14.3527C17.8478 14.5167 17.9938 14.6817 18.1408 14.8457C18.1578 14.8387 18.1748 14.8317 18.1908 14.8237C18.1238 14.6377 18.0558 14.4507 17.9878 14.2637C18.0068 14.2527 18.0258 14.2417 18.0448 14.2307C18.1788 14.3987 18.3128 14.5677 18.4468 14.7357L18.4928 14.7167C18.4178 14.4917 18.3448 14.2667 18.2698 14.0427C18.2908 14.0267 18.3118 14.0107 18.3318 13.9937C18.5138 14.1827 18.6948 14.3727 18.8758 14.5617C18.8948 14.5527 18.9138 14.5447 18.9328 14.5357C18.8328 14.3127 18.7338 14.0887 18.6348 13.8647C18.6518 13.8477 18.6688 13.8317 18.6858 13.8147L19.1528 14.2657C19.1668 14.2557 19.1808 14.2447 19.1938 14.2347C19.0998 14.0257 19.0048 13.8167 18.9108 13.6077C18.9218 13.5917 18.9338 13.5747 18.9448 13.5587C19.0348 13.6147 19.1248 13.6677 19.2128 13.7257C19.2978 13.7817 19.3808 13.8417 19.5038 13.8667C19.4178 13.7347 19.3318 13.6017 19.2458 13.4697C19.2578 13.4557 19.2698 13.4427 19.2818 13.4287L19.7048 13.7237C19.7178 13.7137 19.7298 13.7037 19.7418 13.6937C19.6738 13.5807 19.6058 13.4687 19.5388 13.3567C19.5508 13.3437 19.5638 13.3297 19.5758 13.3167C19.6498 13.3567 19.7238 13.3957 19.8438 13.4607C19.7868 13.3247 19.7458 13.2267 19.6668 13.0387C20.1118 13.2967 20.4908 13.5157 20.8888 13.7467C20.8288 13.8187 20.7928 13.8737 20.7458 13.9157C19.6608 14.8897 18.4878 15.7297 17.1298 16.2857C16.4668 16.5577 15.7828 16.7367 15.0588 16.7237C14.9688 16.7217 14.8788 16.7097 14.7858 16.7007C14.7418 16.3087 14.7008 15.9367 14.6478 15.4597C14.8418 15.7157 14.9848 15.9037 15.1278 16.0917C15.1458 16.0857 15.1648 16.0797 15.1828 16.0737C15.1328 15.7607 15.0828 15.4477 15.0338 15.1337C15.0548 15.1237 15.0748 15.1147 15.0958 15.1037C15.2348 15.3317 15.3728 15.5597 15.5128 15.7877C15.5338 15.7817 15.5558 15.7747 15.5778 15.7687L15.3958 15.0247C15.4168 15.0127 15.4378 15.0017 15.4588 14.9897C15.6588 15.3137 15.8588 15.6377 16.0588 15.9617C16.0768 15.9557 16.0948 15.9507 16.1128 15.9447C16.0618 15.5697 16.0108 15.1937 15.9598 14.8177C15.9858 14.8067 16.0128 14.7967 16.0388 14.7857C16.1538 15.0067 16.2678 15.2267 16.3828 15.4477C16.3988 15.4447 16.4158 15.4407 16.4328 15.4377C16.4098 15.2637 16.3868 15.0907 16.3648 14.9167C16.3868 14.9067 16.4098 14.8967 16.4318 14.8857C16.6028 15.1077 16.7738 15.3287 16.9448 15.5497C16.9608 15.5407 16.9778 15.5317 16.9938 15.5227C16.9168 15.2547 16.8398 14.9857 16.7618 14.7177C16.7848 14.7057 16.8078 14.6957 16.8298 14.6847C17.0228 14.9107 17.2158 15.1377 17.4098 15.3637C17.4248 15.3557 17.4408 15.3477 17.4568 15.3397C17.3578 15.0787 17.2578 14.8187 17.1588 14.5577C17.1788 14.5477 17.1988 14.5367 17.2188 14.5267C17.4378 14.7477 17.6558 14.9697 17.8748 15.1897C17.8908 15.1837 17.9078 15.1777 17.9238 15.1717C17.8318 14.9077 17.7388 14.6437 17.6468 14.3787C17.6648 14.3697 17.6828 14.3617 17.7008 14.3527ZM18.4538 4.76567C18.8218 4.00667 19.6188 3.62167 20.4528 3.75067C21.2038 3.86667 21.6098 4.29967 21.7728 5.01467C21.9188 5.65567 21.7308 6.15367 21.1808 6.51167C20.7888 6.76767 20.3498 6.89467 19.8468 6.98067C19.8118 6.87067 19.7858 6.78667 19.7538 6.68467C19.8748 6.61267 19.9828 6.54667 20.0918 6.48167C20.0328 6.34467 19.9838 6.20267 19.9368 6.06567C19.8948 5.94667 19.6598 5.89467 19.4908 5.80267C19.5708 5.73067 19.6348 5.67167 19.7308 5.58467C19.5918 5.59867 19.4868 5.60967 19.3308 5.62567C19.4288 5.51167 19.4938 5.43767 19.5918 5.32367C19.4468 5.34267 19.3488 5.35567 19.2058 5.37467C19.2888 5.27567 19.3498 5.20167 19.4368 5.09767C19.3028 5.11667 19.2048 5.13167 19.0578 5.15267C19.1448 5.02567 19.2098 4.92967 19.3208 4.76767C19.1448 4.86567 19.0358 4.92667 18.8718 5.01867C18.9168 4.87567 18.9468 4.78167 18.9768 4.68667L18.9258 4.65467C18.7998 4.79867 18.6728 4.94367 18.5428 5.09167C18.3178 5.03867 18.3878 4.90167 18.4538 4.76567ZM21.7828 26.3897C21.9308 26.4967 22.0668 26.6197 22.2658 26.6957C22.1198 26.4677 21.9748 26.2397 21.8288 26.0117C22.2188 26.1597 22.4398 26.5097 22.8098 26.7057C22.6358 26.4227 22.4608 26.1377 22.2868 25.8547L22.3588 25.7957C22.6068 26.0457 22.8548 26.2947 23.1028 26.5437C23.1178 26.5337 23.1338 26.5247 23.1488 26.5147L22.6598 25.5157C22.6818 25.5017 22.7028 25.4887 22.7238 25.4747C22.9048 25.7077 23.0848 25.9407 23.2658 26.1737L23.3178 26.1457L23.0178 25.4537C23.0378 25.4437 23.0568 25.4327 23.0758 25.4227C23.2228 25.6147 23.3698 25.8077 23.5168 26.0007C23.5368 25.9917 23.5568 25.9827 23.5758 25.9737C23.4698 25.6897 23.3638 25.4057 23.2578 25.1217C23.2778 25.1087 23.2978 25.0957 23.3178 25.0837C23.4878 25.3317 23.6578 25.5787 23.8278 25.8267L23.8788 25.8047C23.7768 25.5227 23.6738 25.2397 23.5708 24.9577C23.5908 24.9487 23.6108 24.9407 23.6308 24.9317C23.7758 25.1707 23.9198 25.4097 24.0648 25.6487L24.1128 25.6247C24.0138 25.3317 23.9138 25.0377 23.8148 24.7447C23.8378 24.7347 23.8608 24.7237 23.8838 24.7147C24.1498 25.2667 24.4158 25.8197 24.6708 26.3507C24.6458 26.3987 24.6428 26.4147 24.6338 26.4217C23.4338 27.2927 22.1738 28.0437 20.7298 28.4477C20.4748 28.5187 20.2848 28.4817 20.0828 28.3057C19.6598 27.9347 19.2148 27.5877 18.7788 27.2307C18.7978 27.2117 18.8168 27.1927 18.8358 27.1727C19.0758 27.3227 19.3158 27.4707 19.5558 27.6207C19.5718 27.6007 19.5878 27.5807 19.6038 27.5607C19.4128 27.4137 19.2208 27.2677 19.0288 27.1207C19.0588 27.0867 19.0898 27.0527 19.1198 27.0177C19.3388 27.0427 19.4748 27.2287 19.6498 27.3347C19.8238 27.4397 19.9858 27.5667 20.1978 27.6307C19.9788 27.3847 19.7608 27.1387 19.5418 26.8927C19.5618 26.8717 19.5808 26.8507 19.6008 26.8287C19.9308 27.0767 20.2608 27.3247 20.5908 27.5727L20.6368 27.5357L19.8488 26.5997L19.9068 26.5307C20.2948 26.7997 20.6838 27.0687 21.0718 27.3377C21.0858 27.3237 21.1008 27.3107 21.1148 27.2977C20.8898 27.0357 20.6638 26.7737 20.4378 26.5117C20.4548 26.4917 20.4708 26.4707 20.4868 26.4507C20.7798 26.6677 21.0728 26.8847 21.3658 27.1007C21.3838 27.0857 21.4008 27.0717 21.4188 27.0557C21.2218 26.8097 21.0238 26.5627 20.8258 26.3157C21.2418 26.4667 21.5248 26.7997 21.9298 26.9897C21.7248 26.6997 21.5198 26.4097 21.2768 26.0657C21.5288 26.1177 21.6388 26.2847 21.7828 26.3897ZM21.6308 16.4917C21.7568 16.5437 21.8318 16.5737 21.9458 16.6207C21.9118 16.5427 21.8898 16.4917 21.8328 16.3637C22.0958 16.5137 22.3008 16.6317 22.5058 16.7487C22.5178 16.7387 22.5318 16.7277 22.5438 16.7167C22.3618 16.5287 22.1798 16.3407 21.9968 16.1527C22.0068 16.1357 22.0178 16.1197 22.0278 16.1037C22.2468 16.2187 22.4668 16.3347 22.6868 16.4497C22.6968 16.4357 22.7058 16.4207 22.7148 16.4057L22.2408 15.9717C22.2528 15.9507 22.2648 15.9287 22.2768 15.9067C22.5508 16.0147 22.8248 16.1237 23.0988 16.2317C23.1108 16.2127 23.1228 16.1937 23.1348 16.1757C23.0328 16.0957 22.9308 16.0157 22.8298 15.9367C22.7278 15.8577 22.6268 15.7777 22.5518 15.6347C22.7838 15.7177 23.0158 15.8007 23.2468 15.8837C23.2538 15.8677 23.2608 15.8517 23.2678 15.8357C23.1098 15.7257 22.9528 15.6157 22.7488 15.4737C23.0508 15.3957 23.2468 15.5907 23.5468 15.5737C23.3078 15.4277 23.1208 15.3127 22.9328 15.1977C22.9368 15.1787 22.9418 15.1597 22.9468 15.1407C23.0988 15.1607 23.2508 15.1817 23.4028 15.2027L23.3858 15.1447L23.0218 14.9397C23.0288 14.9207 23.0358 14.9027 23.0418 14.8847L23.6128 14.9587C23.6178 14.9457 23.6218 14.9317 23.6268 14.9177L23.2108 14.7197C23.5948 14.7087 23.9558 14.7927 24.3088 14.8937C24.2408 16.1307 23.3708 17.4357 22.4848 17.6867C22.1688 17.3787 21.8588 17.0767 21.5218 16.7477C21.6278 16.7587 21.7138 16.7667 21.8348 16.7787C21.7678 16.6847 21.7188 16.6147 21.6308 16.4917ZM24.7268 18.7487C25.0318 18.8617 25.3348 18.9737 25.6398 19.0857L25.6718 19.0247C25.3648 18.8157 25.0578 18.6067 24.7508 18.3977C24.7618 18.3727 24.7728 18.3477 24.7838 18.3227C25.0658 18.4207 25.3478 18.5187 25.6298 18.6167C25.6378 18.5977 25.6448 18.5777 25.6528 18.5587C25.4238 18.4187 25.1948 18.2777 24.9658 18.1377C24.9768 18.1117 24.9888 18.0847 24.9998 18.0587C25.4448 18.1907 25.8908 18.3217 26.3348 18.4527C26.3448 18.4317 26.3538 18.4107 26.3638 18.3897C26.0668 18.2077 25.7698 18.0257 25.4728 17.8437C25.4818 17.8217 25.4908 17.7997 25.4998 17.7767C25.8968 17.9327 26.2928 18.0877 26.6898 18.2427C26.7008 18.2267 26.7108 18.2107 26.7218 18.1947C26.4458 17.9617 26.1698 17.7287 25.8328 17.4457C26.2018 17.4807 26.3928 17.7257 26.6968 17.7517C26.5938 17.6587 26.4918 17.5647 26.3878 17.4717C26.2728 17.3707 26.1578 17.2707 26.0758 17.1147C26.2478 17.1877 26.4208 17.2597 26.5928 17.3327C26.6008 17.3187 26.6098 17.3037 26.6178 17.2907C26.5038 17.1957 26.3908 17.0997 26.2468 16.9797C26.5008 16.9117 26.6328 17.1657 26.8698 17.1277C26.6378 16.9447 26.4248 16.7777 26.2118 16.6097C26.2258 16.5837 26.2408 16.5577 26.2548 16.5317C26.6758 16.6647 27.0968 16.7977 27.5178 16.9307C27.5288 16.9117 27.5398 16.8917 27.5508 16.8727C27.1878 16.6327 26.8258 16.3917 26.4638 16.1517C26.4758 16.1267 26.4868 16.1017 26.4988 16.0767C26.8758 16.2027 27.2538 16.3287 27.6308 16.4557C27.6398 16.4397 27.6488 16.4247 27.6578 16.4087C27.3228 16.2197 26.9888 16.0307 26.6548 15.8417C26.6638 15.8207 26.6738 15.8007 26.6838 15.7797C27.1148 15.8787 27.5458 15.9777 27.9768 16.0777C27.9868 16.0557 27.9958 16.0347 28.0038 16.0127C27.6148 15.8227 27.2258 15.6317 26.7978 15.4227C27.3948 15.3687 28.6438 15.7927 28.9998 16.1767C27.5588 18.3387 26.0928 20.4837 23.7918 21.8737C23.5658 21.6257 23.2338 20.9377 23.1388 20.5287C23.3008 20.6507 23.4408 20.7577 23.5818 20.8647C23.5988 20.8507 23.6158 20.8377 23.6328 20.8237C23.4498 20.5787 23.2678 20.3347 23.0848 20.0897C23.3608 20.1117 23.4918 20.3437 23.7378 20.4237C23.5798 20.2317 23.4218 20.0397 23.2638 19.8477C23.6728 19.9507 23.9938 20.2127 24.4018 20.3467C24.1498 20.1047 23.8968 19.8617 23.6448 19.6177L23.6978 19.5447C24.0148 19.7187 24.3308 19.8927 24.6468 20.0667C24.4338 19.7697 24.1218 19.5707 23.9078 19.2507C24.3368 19.4287 24.7658 19.6057 25.1938 19.7837C25.2048 19.7647 25.2168 19.7467 25.2268 19.7287C24.8978 19.4837 24.5678 19.2397 24.2388 18.9947C24.2508 18.9707 24.2628 18.9467 24.2748 18.9227C24.6208 19.0547 24.9668 19.1867 25.3128 19.3197C25.3198 19.3017 25.3278 19.2837 25.3358 19.2657C25.1218 19.1187 24.9078 18.9717 24.6948 18.8247C24.7048 18.7997 24.7168 18.7747 24.7268 18.7487ZM30.0778 19.4657C30.4848 19.6757 30.8158 19.9677 31.0648 20.3517C31.3758 20.8317 31.2938 21.3347 31.1338 21.8347C31.0378 22.1337 30.8898 22.4057 30.5698 22.6637C30.6318 22.3687 30.6778 22.1547 30.7218 21.9397C30.7648 21.7247 30.7808 21.5107 30.6568 21.2857C30.5338 21.6047 30.4118 21.9227 30.2888 22.2407C30.2668 22.2357 30.2448 22.2307 30.2238 22.2247V21.6937C30.2048 21.6897 30.1858 21.6867 30.1668 21.6827C30.1108 21.8667 30.0538 22.0517 29.9968 22.2357C29.9698 22.2307 29.9418 22.2257 29.9148 22.2197C29.9008 21.9697 29.8858 21.7197 29.8718 21.4687C29.8588 21.4677 29.8458 21.4667 29.8328 21.4657C29.7958 21.6817 29.7588 21.8987 29.7218 22.1147C29.7048 22.1207 29.6868 22.1257 29.6688 22.1307C29.6408 22.0197 29.6098 21.9097 29.5848 21.7987C29.5598 21.6887 29.5418 21.5777 29.4618 21.4697C29.4138 21.6537 29.3658 21.8377 29.2938 22.1107C29.2258 21.8767 29.1818 21.7227 29.1368 21.5687C29.1198 21.5677 29.1028 21.5657 29.0858 21.5637C29.0658 21.7387 29.0468 21.9137 29.0178 22.1767C28.9118 21.9917 28.8418 21.8677 28.7308 21.6747C28.7308 21.8727 28.7218 22.0057 28.7338 22.1357C28.7468 22.2777 28.7818 22.4177 28.8208 22.6367C28.7058 22.5337 28.6378 22.4877 28.5888 22.4257C28.0938 21.7947 28.0508 21.0957 28.4638 20.4047C28.6828 20.0377 28.9648 19.7287 29.3288 19.4997C29.5728 19.3467 29.8188 19.3317 30.0778 19.4657ZM32.4948 21.7257C33.0198 21.7277 33.5028 21.8857 33.9398 22.1807C34.2428 22.3857 34.3888 22.6517 34.2888 23.0227C34.2618 23.1237 34.2508 23.2297 34.2218 23.3307C33.8628 24.5867 32.8978 24.8667 31.7798 24.5537C31.7228 24.5377 31.6718 24.4947 31.5678 24.4367C31.9738 24.2777 32.3618 24.2657 32.6658 23.9267C32.3468 23.9717 32.0838 24.0097 31.8218 24.0477C31.8138 24.0277 31.8058 24.0077 31.7978 23.9877C31.8828 23.9227 31.9678 23.8577 32.0588 23.7877C31.9908 23.7597 31.9338 23.7367 31.8488 23.7017C32.0248 23.6257 32.1748 23.5597 32.3258 23.4947C32.3228 23.4817 32.3198 23.4697 32.3168 23.4567C32.1428 23.4737 31.9688 23.4897 31.7938 23.5067C31.7868 23.4857 31.7788 23.4657 31.7708 23.4457C31.9518 23.3547 32.1318 23.2637 32.3128 23.1737C32.3128 23.1547 32.3128 23.1357 32.3128 23.1167C32.1458 23.1097 31.9788 23.1017 31.7278 23.0897C31.9148 22.9837 32.0328 22.9177 32.1498 22.8507C32.1458 22.8297 32.1418 22.8097 32.1378 22.7887C31.8938 22.8317 31.6518 22.8757 31.3788 22.9237C31.4378 22.8297 31.4878 22.7497 31.5688 22.6207C31.3678 22.6837 31.2118 22.7337 31.0498 22.7847C31.2308 22.1677 31.8288 21.7237 32.4948 21.7257ZM33.0078 21.0307C32.6198 21.0527 32.2328 21.0737 31.8158 21.0967C31.7828 20.7467 31.7508 20.4137 31.7188 20.0767C32.4228 20.1497 32.9308 20.5237 33.0078 21.0307ZM33.7898 26.1607C33.7158 25.9527 33.6748 25.7567 33.5798 25.5907C33.4858 25.4247 33.3388 25.2887 33.2158 25.1397C33.5888 24.9887 33.9588 24.8387 34.3308 24.6877C34.5738 25.2177 34.3528 25.8777 33.7898 26.1607ZM33.0688 27.5027C32.9938 27.7847 32.8138 27.9547 32.5278 28.0117C32.1618 28.0857 31.7938 28.0947 31.4318 28.0047C30.6858 27.8197 30.1508 26.9127 30.3228 26.1147C30.5688 26.3707 30.8088 26.6197 31.0468 26.8687C31.0738 26.8497 31.0998 26.8307 31.1248 26.8117C31.0008 26.6037 30.8758 26.3967 30.7508 26.1887C30.7698 26.1707 30.7888 26.1527 30.8088 26.1347C31.0118 26.2947 31.2148 26.4547 31.4168 26.6147C31.4308 26.6017 31.4438 26.5907 31.4568 26.5777C31.3268 26.3767 31.1958 26.1757 31.0658 25.9737C31.0818 25.9547 31.0978 25.9367 31.1138 25.9187C31.3098 26.0557 31.5058 26.1927 31.7018 26.3297C31.7188 26.3177 31.7348 26.3057 31.7508 26.2947C31.6538 26.1577 31.5568 26.0217 31.4578 25.8837C31.4888 25.8097 31.5188 25.7357 31.5548 25.6497C31.6258 25.6677 31.6988 25.6847 31.8208 25.7147C31.7398 25.6077 31.6818 25.5327 31.5988 25.4237C31.7318 25.4377 31.8358 25.4487 31.9388 25.4587C31.9588 25.4367 31.9788 25.4147 31.9988 25.3927C31.8558 25.2907 31.7128 25.1887 31.5088 25.0437C32.2318 25.0417 32.7728 25.3907 32.9998 25.9537C33.2038 26.4597 33.2058 26.9787 33.0688 27.5027ZM29.4318 28.5487C29.5868 28.4037 29.7258 28.2967 29.8358 28.1657C29.9528 28.0287 30.0428 27.8677 30.1428 27.7187C30.3928 27.9317 30.6268 28.1307 30.8918 28.3557C30.4468 28.7007 29.9848 28.7217 29.4318 28.5487ZM29.1208 24.2877C29.1248 23.9787 29.4448 23.6877 29.7868 23.6807C30.1078 23.6757 30.3238 23.9177 30.3178 24.2807C30.3128 24.6407 30.0478 24.8917 29.6818 24.8807C29.3698 24.8717 29.1148 24.6027 29.1208 24.2877ZM27.8618 28.4117C27.5758 28.4427 27.3248 28.3527 27.1988 28.0857C27.0488 27.7677 26.8798 27.4427 26.8218 27.1027C26.6818 26.2817 27.3418 25.4427 28.2378 25.2817C28.1268 25.4697 28.0238 25.6297 27.9368 25.7987C27.8488 25.9697 27.7768 26.1497 27.6978 26.3257C27.7248 26.3437 27.7508 26.3607 27.7778 26.3777L28.2978 25.7067C28.3208 25.7187 28.3428 25.7297 28.3658 25.7407C28.3298 25.8817 28.2928 26.0217 28.2368 26.2397C28.3738 26.0807 28.4648 25.9757 28.5558 25.8697C28.5728 25.8767 28.5898 25.8827 28.6078 25.8877C28.5418 26.1807 28.4758 26.4737 28.4098 26.7667C28.4268 26.7747 28.4448 26.7837 28.4618 26.7917C28.5938 26.5997 28.7248 26.4077 28.8558 26.2177C29.0928 26.3427 29.0928 26.3427 29.1298 26.5807C29.1868 26.4987 29.2338 26.4317 29.3128 26.3197C29.3328 26.4457 29.3468 26.5337 29.3728 26.6987C29.4868 26.4787 29.5678 26.3237 29.6548 26.1547C29.9038 26.6867 29.7628 27.3777 29.3218 27.7837C28.9108 28.1627 28.4128 28.3537 27.8618 28.4117ZM26.5868 25.5707C26.2468 25.8437 26.0898 26.2057 26.0148 26.6107C25.5578 26.3647 25.3788 25.8797 25.4868 25.2107C25.8618 25.3327 26.2048 25.4457 26.5868 25.5707ZM26.3798 21.3517C26.4918 20.6337 26.9098 20.3257 27.5138 20.4497C27.4878 20.7847 27.4618 21.1177 27.4348 21.4687C27.1178 21.3287 26.7858 21.1027 26.3798 21.3517ZM28.2548 22.8167C28.2768 22.8447 28.2848 22.8847 28.3158 22.9557C27.9278 22.9227 27.5808 22.8927 27.2358 22.8637C27.2278 22.8937 27.2218 22.9237 27.2138 22.9527C27.4468 23.0367 27.6798 23.1207 27.9128 23.2047C27.9078 23.2247 27.9038 23.2437 27.8998 23.2627C27.7628 23.2707 27.6248 23.2787 27.4208 23.2907C27.5708 23.3667 27.6668 23.4147 27.7638 23.4637C27.7588 23.4787 27.7548 23.4927 27.7498 23.5087H27.3138C27.4848 23.5997 27.5778 23.6507 27.6888 23.7107C27.6568 23.7377 27.6328 23.7737 27.6058 23.7767C27.4648 23.7907 27.3238 23.7957 27.1698 23.8517C27.3388 23.9267 27.5068 24.0017 27.7608 24.1137C27.5598 24.1317 27.4518 24.1407 27.2598 24.1567C27.4618 24.2357 27.5938 24.2857 27.7838 24.3597C27.6158 24.4127 27.4968 24.4507 27.2908 24.5167C27.5808 24.5897 27.7958 24.6437 28.0128 24.6987C27.5948 25.1457 26.7318 25.2127 26.2608 24.9517C25.7618 24.6757 25.3898 24.2827 25.1388 23.7727C24.9908 23.4707 25.0118 23.1867 25.2348 22.9287C25.3458 22.8007 25.4568 22.6687 25.5848 22.5567C26.4278 21.8167 27.5608 21.9287 28.2548 22.8167ZM26.9488 30.0987C26.5618 30.4917 26.0798 30.6817 25.5368 30.7237C25.0178 30.7637 24.5108 30.6937 24.0178 30.5367C23.3528 30.3257 22.7218 30.0437 22.1588 29.6107L23.9848 30.2827C23.9968 30.2587 24.0088 30.2347 24.0198 30.2117C23.6138 29.9737 23.2078 29.7357 22.8018 29.4987C22.8138 29.4707 22.8268 29.4427 22.8388 29.4147C23.3048 29.5737 23.7698 29.7337 24.2368 29.8927C24.2458 29.8767 24.2548 29.8617 24.2648 29.8457C23.9288 29.6537 23.5918 29.4607 23.2558 29.2687C23.2658 29.2477 23.2748 29.2267 23.2838 29.2057C23.5678 29.2957 23.8518 29.3857 24.1358 29.4757C24.4088 29.5637 24.6818 29.6517 24.9818 29.6887C24.6648 29.4967 24.3478 29.3057 24.0308 29.1147C24.0408 29.0917 24.0518 29.0677 24.0618 29.0447C24.4538 29.2037 24.8448 29.3627 25.2358 29.5217C25.2488 29.4997 25.2618 29.4777 25.2748 29.4557C24.9848 29.2627 24.6948 29.0707 24.4048 28.8777C24.4168 28.8557 24.4288 28.8347 24.4398 28.8127C24.7608 28.9407 25.0818 29.0687 25.4028 29.1957C25.4118 29.1797 25.4198 29.1637 25.4278 29.1487C25.2468 29.0087 25.0658 28.8687 24.8848 28.7297C24.8948 28.7107 24.9058 28.6917 24.9158 28.6727C25.2608 28.8457 25.6038 29.0177 26.0038 29.2187C25.7578 28.9877 25.5578 28.7997 25.3578 28.6117C25.6468 28.5937 26.5878 29.2377 27.1938 29.7767C27.1158 29.8817 27.0438 30.0017 26.9488 30.0987ZM17.6568 19.8037C17.9048 18.7637 19.2708 18.3007 20.2918 18.9317C19.3088 18.9907 18.4218 19.1827 17.6568 19.8037ZM13.5098 10.8717C12.9078 10.8167 12.4028 10.5797 12.0618 10.0657C12.0758 10.0397 12.0898 10.0137 12.1028 9.98767C12.2098 10.0277 12.3148 10.0727 12.4228 10.1067C12.7608 10.2137 13.0968 10.3277 13.4388 10.4167C13.8188 10.5157 14.1768 10.4387 14.4748 10.1807C14.7028 9.98467 14.9088 9.76267 15.1228 9.54967C15.2018 9.47067 15.2748 9.38667 15.3748 9.32267C15.3318 9.78667 15.1648 10.1887 14.8348 10.5137C14.4618 10.8817 13.9928 10.9167 13.5098 10.8717ZM13.8108 8.98267C13.7508 8.61167 13.5118 8.36167 13.1428 8.28367C12.6358 8.17767 12.3238 8.46067 12.0828 8.92067C11.9868 8.79567 11.9138 8.70067 11.8338 8.59567C11.9188 8.46467 11.9828 8.35067 12.0608 8.24667C12.7648 7.31567 13.6838 7.19867 14.5948 7.92267C14.6458 7.96367 14.6958 8.00667 14.7458 8.05067C15.1968 8.44867 15.2178 8.49567 14.9148 9.00067C14.7618 9.25767 14.5728 9.50367 14.3578 9.71067C14.0138 10.0407 13.6618 10.1207 13.1398 10.0277C13.5818 9.80967 13.8958 9.51067 13.8108 8.98267ZM2.33276 8.49867C2.46476 8.49967 2.61876 8.45867 2.76476 8.63867C2.10676 8.86467 1.47976 9.07867 0.852756 9.29367C0.953756 9.33367 1.04276 9.33067 1.13076 9.31967C1.63976 9.25467 2.14776 9.18367 2.65876 9.12567C2.78676 9.11167 2.94576 9.03967 3.05876 9.25067C2.70876 9.52967 2.35876 9.80767 2.00976 10.0867C2.02376 10.1097 2.03776 10.1337 2.05176 10.1567C2.53676 9.99767 3.02676 9.85367 3.50476 9.67567C3.77576 9.57467 4.01476 9.58067 4.25176 9.73667C4.71376 10.0387 5.21876 10.2937 5.62476 10.6577C6.26076 11.2267 6.84176 11.8597 7.42276 12.4867C7.84376 12.9407 8.22076 13.4347 8.62976 13.8987C9.17676 14.5197 9.85876 14.9337 10.6628 15.1227C11.1618 15.2397 11.6688 15.3297 12.1768 15.3917C12.5618 15.4387 12.8228 15.6387 12.9698 15.9617C13.1158 16.2817 13.2408 16.6237 13.2928 16.9687C13.4058 17.7097 13.4668 18.4597 13.5448 19.2057C13.5508 19.2647 13.5308 19.3267 13.5218 19.3937C13.4218 19.4057 13.3448 19.4157 13.2678 19.4247C12.3908 19.5317 11.5668 19.7757 10.8608 20.3357C10.4738 20.6427 10.2378 21.0437 10.1148 21.5147C10.0848 21.6317 10.0868 21.7577 10.0748 21.8787C10.2248 21.7977 10.2938 21.6927 10.3708 21.5937C10.4498 21.4917 10.5368 21.3967 10.6198 21.2987C10.4638 22.0877 10.4638 22.1077 10.6398 22.4387C10.8608 22.1287 10.8808 21.6887 11.2758 21.4717C11.1008 22.5607 11.1008 22.5607 11.3698 22.7577C11.3998 22.5997 11.4328 22.4457 11.4588 22.2907C11.5188 21.9457 11.7118 21.7277 12.0528 21.6277C12.5658 21.4757 13.0798 21.4197 13.6128 21.5137C14.1248 21.6047 14.1268 21.5937 14.2108 22.1387C14.0768 22.2267 13.9338 22.3187 13.7928 22.4117C13.0448 22.9097 12.4238 23.5207 12.0388 24.3497C11.8248 24.8107 11.7908 25.2877 11.8858 25.7767C11.9158 25.9327 11.9468 26.1037 12.1258 26.2077C12.2128 25.9207 12.0938 25.6217 12.3078 25.3717C12.4108 25.7507 12.3678 26.1817 12.8178 26.4147C12.8088 26.1897 12.7878 26.0077 12.7958 25.8257C12.8038 25.6477 12.7298 25.4437 12.9108 25.2817C13.2678 26.2757 13.2678 26.2757 13.5918 26.3227C13.5338 26.1067 13.4748 25.8947 13.4198 25.6807C13.3708 25.4897 13.4148 25.3167 13.5398 25.1627C13.9308 24.6817 14.4178 24.3457 15.0208 24.1537C15.2968 24.6227 15.5508 25.0827 15.8328 25.5247C16.1128 25.9607 16.4218 26.3767 16.7458 26.8427C15.7008 26.9547 14.8988 27.3277 14.5908 28.4167C14.8028 28.3507 14.9308 28.1267 15.1628 28.2007C15.1148 28.4037 14.9208 28.5257 14.9468 28.7597C15.1928 28.6457 15.3448 28.4087 15.6358 28.4147C15.5878 28.5957 15.5478 28.7497 15.5078 28.9037C15.8018 28.8387 16.0548 28.7427 16.3108 28.7347C16.9948 28.7107 17.6808 28.7157 18.3648 28.7317C18.4928 28.7347 18.6368 28.8167 18.7438 28.8997C19.0448 29.1347 19.3328 29.3847 19.6208 29.6367C19.7068 29.7117 19.8088 29.8017 19.8378 29.9027C19.9268 30.2187 19.9968 30.5417 20.0498 30.8657C20.0998 31.1657 20.0058 31.2737 19.7018 31.3127C19.6108 31.3247 19.5168 31.3277 19.4258 31.3177C18.9408 31.2637 18.4588 31.1907 17.9738 31.1517C17.3448 31.0997 16.7118 31.0217 16.0848 31.0497C15.2168 31.0877 14.5048 31.4457 14.1548 32.3127C14.1258 32.3847 14.1188 32.4657 14.0998 32.5497C14.2878 32.4667 14.4448 32.3967 14.6688 32.2977C14.5538 32.5487 14.4788 32.7117 14.3698 32.9497C14.6718 32.8037 14.8298 32.5827 15.1168 32.5757C15.0598 32.7697 15.0158 32.9247 14.9738 33.0727C15.2758 33.0097 15.5418 32.9397 15.8128 32.9027C16.7208 32.7777 17.6268 32.8927 18.5338 32.9437C19.2428 32.9827 19.8988 33.1907 20.5398 33.4837C20.9098 33.6527 21.2958 33.7977 21.6898 33.8987C22.0168 33.9817 22.3668 34.0277 22.7028 34.0127C23.4148 33.9797 23.8428 33.3947 23.6948 32.6987C23.6488 32.4807 23.5608 32.2717 23.4928 32.0587C23.4538 31.9387 23.4148 31.8187 23.3538 31.6297C26.5168 32.4987 29.3888 31.8917 32.1298 30.1737C31.9888 30.7837 31.7418 31.2587 31.4518 31.7107C30.4748 33.2397 29.0698 34.2187 27.3888 34.8257C25.3158 35.5747 23.1698 35.7017 20.9968 35.5137C19.1948 35.3567 17.4248 34.9957 15.6988 34.4647C13.4848 33.7837 11.2878 33.0497 9.08376 32.3337C7.85676 31.9347 6.63276 31.5217 5.33976 31.3887C4.57376 31.3107 3.81276 31.3087 3.07576 31.5767C2.56576 31.7627 2.14576 32.0587 1.89576 32.5817C2.24476 32.4707 2.55876 32.3437 2.88676 32.2727C3.58576 32.1207 4.27776 32.2467 4.96076 32.3967C6.34676 32.7007 7.64376 33.2517 8.90676 33.8827C10.6078 34.7317 12.3648 35.4367 14.1898 35.9677C17.5268 36.9387 20.9188 37.4827 24.4078 37.1827C25.5008 37.0897 26.5818 36.9077 27.5968 36.4777C29.6638 35.5997 31.5558 34.4457 33.1368 32.8277C34.9498 30.9727 35.9668 28.7647 36.0818 26.1557C36.1358 24.9487 35.9968 23.7637 35.7328 22.5897C35.0678 19.6177 33.4008 17.3887 30.7578 15.8847C29.4548 15.1427 28.0608 14.6287 26.6088 14.2777C25.5218 14.0147 24.4198 13.8147 23.3308 13.5577C22.0858 13.2647 21.1628 12.5247 20.5018 11.4377C20.3698 11.2207 20.3388 11.0167 20.4078 10.7677C20.5608 10.2167 20.6008 9.65167 20.4878 9.08567C20.4198 8.74167 20.3368 8.40067 20.2608 8.05967C20.7388 7.90667 21.2038 7.76667 21.6628 7.60967C22.1908 7.42867 22.5488 7.05767 22.7798 6.55567C23.3588 5.29867 22.8918 3.76767 21.6868 3.08267C20.7438 2.54667 19.7468 2.44867 18.7218 2.85467C18.6548 2.88167 18.5838 2.89367 18.4878 2.92067C18.5018 2.75567 18.5138 2.62567 18.5228 2.49567C18.5478 2.14667 18.4918 1.80967 18.3288 1.49967C17.8788 0.646672 17.1688 0.162672 16.2148 0.0236716C14.4758 -0.228328 12.5238 1.54767 12.8588 3.62867C12.8858 3.79267 12.9098 3.95667 12.9358 4.12567C12.8178 4.15267 12.7428 4.17567 12.6648 4.18667C11.5798 4.34967 10.5908 4.76967 9.65076 5.31767C9.18476 5.58967 8.72376 5.87067 8.26276 6.15267C7.78176 6.44667 7.27476 6.64467 6.69876 6.62667C6.46176 6.61967 6.22476 6.63767 5.98876 6.62667C5.52876 6.60567 5.06876 6.57267 4.60876 6.54167C3.88976 6.49267 3.08476 6.73667 2.81876 7.74867C2.79576 7.83567 2.76076 7.91867 2.72776 8.01367C1.80976 8.15567 0.904756 8.29467 -0.000244141 8.43467C0.148756 8.49367 0.291756 8.49367 0.435756 8.49367C1.06776 8.49367 1.70076 8.49067 2.33276 8.49867Z" fill="#DA4B32"/>
</g>
</svg>