<svg width="32" height="40" viewBox="0 0 32 40" fill="none" xmlns="http://www.w3.org/2000/svg">
<path fill-rule="evenodd" clip-rule="evenodd" d="M17.7228 23.8782C17.2738 24.2762 16.8548 24.4782 16.4728 24.4782C16.3488 24.4782 16.2278 24.4562 16.1118 24.4132C15.4288 24.1622 15.2868 23.3022 15.2738 23.2042C15.2368 22.9462 15.4158 22.7092 15.6728 22.6722C15.9268 22.6362 16.1668 22.8142 16.2038 23.0692C16.2338 23.2552 16.3408 23.4962 16.4368 23.5302C16.5068 23.5562 16.7228 23.5072 17.0988 23.1742C18.4498 21.9772 19.3148 20.0792 19.1128 18.7602C19.0728 18.5032 19.2488 18.2642 19.5058 18.2242C19.7608 18.1852 20.0028 18.3602 20.0418 18.6172C20.2928 20.2512 19.3178 22.4642 17.7228 23.8782ZM16.7628 21.6932C17.0228 21.6932 17.2338 21.9032 17.2338 22.1632C17.2338 22.4242 17.0228 22.6342 16.7628 22.6342C16.5028 22.6342 16.2918 22.4242 16.2918 22.1632C16.2918 21.9032 16.5028 21.6932 16.7628 21.6932ZM8.11385 15.6492C8.05285 15.6762 7.98985 15.6892 7.92685 15.6892C7.77285 15.6892 7.62185 15.6112 7.53385 15.4752C6.96985 14.6122 6.06285 14.6072 5.42485 14.7422L4.63985 15.0072C4.40685 15.0872 4.14985 14.9702 4.05485 14.7412C3.95985 14.5132 4.05885 14.2502 4.28085 14.1402C4.52085 14.0212 4.83685 13.9042 5.19285 13.8282L6.48285 13.3952C6.82685 13.2782 7.19785 13.3142 7.52385 13.4942C7.86885 13.6862 8.12085 14.0192 8.21585 14.4092L8.38385 15.1072C8.43885 15.3302 8.32385 15.5592 8.11385 15.6492ZM7.75985 18.0452L5.56785 18.3482C5.54585 18.3512 5.52485 18.3522 5.50285 18.3522C5.27185 18.3522 5.07085 18.1822 5.03685 17.9452C5.00185 17.6892 5.18185 17.4512 5.43985 17.4162L5.82985 17.3612C4.54485 16.7512 4.21785 16.2502 4.15485 16.1302C4.03385 15.9002 4.12185 15.6152 4.35185 15.4952C4.57685 15.3772 4.85185 15.4572 4.97685 15.6742C5.00785 15.7162 5.52085 16.3882 7.83985 17.1312C8.04885 17.1982 8.18385 17.4012 8.16385 17.6202C8.14585 17.8392 7.97785 18.0162 7.75985 18.0452ZM22.2778 20.5182C22.0208 20.4762 21.8468 20.2332 21.8888 19.9782C21.9308 19.7222 22.1698 19.5482 22.4288 19.5892C22.6088 19.6172 26.6868 20.2122 29.5958 16.4612C29.9608 15.6132 30.2508 14.6782 30.4338 13.6452C27.8078 16.2082 24.5868 16.4582 23.4338 16.4582C23.1888 16.4582 23.0368 16.4462 23.0038 16.4442C22.7448 16.4222 22.5528 16.1952 22.5748 15.9372C22.5948 15.6792 22.8238 15.4902 23.0798 15.5062C23.1288 15.5122 27.7498 15.8262 30.6888 11.9292C30.8258 10.8052 30.8808 9.83524 30.8718 8.99924C28.4438 11.5952 25.4678 11.9402 24.0848 11.9402C23.6428 11.9402 23.3638 11.9052 23.3178 11.8992C23.0598 11.8642 22.8798 11.6292 22.9138 11.3722C22.9478 11.1142 23.1868 10.9302 23.4408 10.9672C23.6218 10.9902 27.8718 11.4842 30.7948 7.63324C30.4718 4.72424 29.2348 3.94124 28.5838 3.53124L28.5218 3.49124C27.7608 3.01124 26.2948 2.82024 25.6358 3.73724C25.4158 4.04224 25.3938 4.65824 25.7398 5.12324C26.2288 5.78124 27.2708 5.89724 28.5968 5.43924C28.8428 5.35424 29.1098 5.48424 29.1948 5.73024C29.2798 5.97624 29.1488 6.24324 28.9038 6.32824C26.4308 7.18024 25.3388 6.16124 24.9848 5.68524C24.5378 5.08424 24.4268 4.27224 24.6558 3.62324C22.2708 2.10424 16.9128 1.25124 16.8568 1.24224C12.4438 0.539239 9.40285 1.05624 7.81485 2.78024C6.38485 4.33324 6.56085 6.49024 6.67885 7.25124L13.3898 8.72524C13.9488 8.84824 14.3358 9.35124 14.3138 9.92124L14.1068 15.1072C14.1038 15.1742 14.1288 15.2382 14.1768 15.2852L18.3808 19.4112C18.5668 19.5942 18.5698 19.8922 18.3868 20.0762C18.2948 20.1712 18.1728 20.2182 18.0508 20.2182C17.9328 20.2182 17.8138 20.1732 17.7218 20.0832L13.5178 15.9562C13.2808 15.7242 13.1528 15.4002 13.1658 15.0692L13.3728 9.88324C13.3778 9.76924 13.2998 9.66824 13.1878 9.64424L6.49585 8.17424L4.20385 11.8172C3.55285 12.8532 3.34885 14.1272 3.64485 15.3142L3.87985 16.2572C3.91585 16.4042 3.87985 16.5612 3.78285 16.6762L0.943848 20.0152C0.961848 20.3182 1.10285 21.0292 1.99685 21.3952C2.09785 21.4372 2.18085 21.5112 2.23285 21.6072C2.27185 21.6782 2.60485 22.3232 2.32985 22.8932C2.24285 23.0762 2.06585 23.3022 1.71385 23.4392C2.08385 23.7042 2.75385 24.0512 3.29785 24.1822C3.46285 24.2222 3.90185 24.3262 3.82685 24.7682C3.75085 25.2102 3.32585 25.1662 3.04385 25.1372C2.31485 25.0622 1.86585 25.0482 1.58785 25.0622C1.91785 25.2982 2.33285 25.6622 2.48285 26.0792C2.62085 26.4672 2.38085 26.8022 2.16885 27.0982C1.79985 27.6112 1.69385 27.8412 2.04385 28.2162C2.29085 28.4812 2.64585 28.6482 3.04085 28.6872L6.74285 29.0492C7.98185 29.1702 9.08485 29.8912 9.69585 30.9772C10.5178 32.4372 11.4078 36.6072 11.3748 38.5612H22.4188C17.7398 31.2612 20.6168 24.4922 20.6478 24.4222C20.7818 24.1162 21.0408 23.8812 21.3598 23.7772C22.2378 23.4912 25.5078 22.2612 27.9218 19.2432C26.1118 20.3722 24.2988 20.5802 23.2318 20.5802C22.6808 20.5802 22.3288 20.5262 22.2778 20.5182Z" fill="#FEA628"/>
<path fill-rule="evenodd" clip-rule="evenodd" d="M8.21607 14.4095C8.12107 14.0185 7.86907 13.6855 7.52407 13.4945C7.19707 13.3135 6.82707 13.2785 6.48307 13.3945L5.19307 13.8285C4.83707 13.9045 4.52107 14.0205 4.28007 14.1395C4.05907 14.2505 3.96007 14.5135 4.05507 14.7415C4.15007 14.9705 4.40607 15.0875 4.64007 15.0075L5.42507 14.7425C6.06307 14.6065 6.97007 14.6125 7.53307 15.4745C7.62207 15.6115 7.77307 15.6885 7.92707 15.6885C7.98907 15.6885 8.05307 15.6765 8.11307 15.6495C8.32307 15.5585 8.43907 15.3305 8.38407 15.1075L8.21607 14.4095Z" fill="#333333"/>
<mask id="mask0" mask-type="alpha" maskUnits="userSpaceOnUse" x="9" y="38" width="2" height="2">
<path fill-rule="evenodd" clip-rule="evenodd" d="M9.99219 38.7943H10.9922V39.5023H9.99219V38.7943Z" fill="white"/>
</mask>
<g mask="url(#mask0)">
<path fill-rule="evenodd" clip-rule="evenodd" d="M10.5187 39.3343C10.4977 39.3103 10.4807 39.2823 10.4657 39.2543C10.4817 39.2833 10.4977 39.3093 10.5187 39.3343Z" fill="#333333"/>
</g>
<path fill-rule="evenodd" clip-rule="evenodd" d="M10.8722 38.561H11.3752C11.4072 36.607 10.5182 32.437 9.69519 30.977C9.08519 29.891 7.98119 29.17 6.74219 29.049L3.04119 28.687C2.64519 28.648 2.29119 28.481 2.04419 28.216C1.69319 27.841 1.80019 27.612 2.16919 27.098C2.38119 26.802 2.62119 26.467 2.48219 26.08C2.33319 25.663 1.91819 25.298 1.58819 25.062C1.86519 25.048 2.31419 25.062 3.04419 25.137C3.32519 25.166 3.75119 25.21 3.82619 24.768C3.90119 24.327 3.46319 24.222 3.29819 24.182C2.75419 24.051 2.08419 23.705 1.71419 23.439C2.06519 23.302 2.24219 23.077 2.33019 22.893C2.60419 22.324 2.27119 21.678 2.23219 21.607C2.18119 21.511 2.09819 21.437 1.99719 21.395C1.10219 21.03 0.962187 20.319 0.943187 20.015L3.78219 16.676C3.88019 16.561 3.91619 16.405 3.88019 16.257L3.64419 15.314C3.34919 14.127 3.55319 12.853 4.20419 11.818L6.49619 8.17396L6.17419 8.10296C6.16519 8.10096 6.15919 8.09496 6.15019 8.09296C6.11019 8.08196 6.07419 8.06496 6.03819 8.04296C6.02419 8.03596 6.00919 8.03096 5.99619 8.02096C5.95119 7.98796 5.91119 7.94796 5.88019 7.89996C5.87419 7.88996 5.87219 7.87896 5.86719 7.86996C5.84819 7.83396 5.82819 7.79796 5.81719 7.75696C5.81319 7.73996 5.79719 7.66696 5.77519 7.55396L3.40719 11.318C2.62019 12.568 2.37419 14.108 2.73119 15.542L2.90819 16.25L0.116187 19.537C0.0531873 19.611 0.0141873 19.704 0.00618735 19.801C-0.0428126 20.374 0.206187 21.575 1.45819 22.184C1.49119 22.29 1.51519 22.418 1.48219 22.486C1.45919 22.534 1.36519 22.577 1.23119 22.6C0.609187 22.712 0.531187 23.108 0.526187 23.272C0.518187 23.596 0.771187 23.905 1.12819 24.174C0.784187 24.243 0.548187 24.376 0.423187 24.603C0.337187 24.759 0.241187 25.082 0.564187 25.493C0.603187 25.541 0.651187 25.582 0.706187 25.613C0.993187 25.772 1.41619 26.088 1.55919 26.322C1.52019 26.386 1.45319 26.481 1.40419 26.549C1.09419 26.982 0.446187 27.884 1.35519 28.858C1.76019 29.291 2.32619 29.563 2.94919 29.623L6.65019 29.986C7.58419 30.078 8.41519 30.621 8.87619 31.438C9.74119 32.977 10.6212 37.683 10.4072 38.954C10.4052 38.968 10.4102 38.981 10.4092 38.996C10.4292 38.753 10.6252 38.561 10.8722 38.561Z" fill="#333333"/>
<mask id="mask1" mask-type="alpha" maskUnits="userSpaceOnUse" x="9" y="38" width="2" height="2">
<path fill-rule="evenodd" clip-rule="evenodd" d="M9.92139 38.6311H10.9214V39.5024H9.92139V38.6311Z" fill="white"/>
</mask>
<g mask="url(#mask1)">
<path fill-rule="evenodd" clip-rule="evenodd" d="M10.4319 39.1801C10.4209 39.1491 10.4149 39.1161 10.4109 39.0821C10.4149 39.1161 10.4209 39.1481 10.4319 39.1801Z" fill="#333333"/>
</g>
<mask id="mask2" mask-type="alpha" maskUnits="userSpaceOnUse" x="10" y="38" width="2" height="2">
<path fill-rule="evenodd" clip-rule="evenodd" d="M10.3071 38.9884H11.3071V39.5023H10.3071V38.9884Z" fill="white"/>
</mask>
<g mask="url(#mask2)">
<path fill-rule="evenodd" clip-rule="evenodd" d="M10.7396 39.4749C10.7586 39.4809 10.7736 39.4929 10.7936 39.4959C10.8196 39.4999 10.8456 39.5019 10.8726 39.5019H10.8746H10.8726C10.8246 39.5019 10.7826 39.4879 10.7396 39.4749Z" fill="#333333"/>
</g>
<mask id="mask3" mask-type="alpha" maskUnits="userSpaceOnUse" x="10" y="38" width="2" height="2">
<path fill-rule="evenodd" clip-rule="evenodd" d="M10.1177 38.9173H11.1177V39.5024H10.1177V38.9173Z" fill="white"/>
</mask>
<g mask="url(#mask3)">
<path fill-rule="evenodd" clip-rule="evenodd" d="M10.6572 39.4437C10.6292 39.4287 10.6032 39.4107 10.5782 39.3907C10.6032 39.4107 10.6292 39.4287 10.6572 39.4437Z" fill="#333333"/>
</g>
<path fill-rule="evenodd" clip-rule="evenodd" d="M13.3734 9.88322L13.1664 15.0702C13.1524 15.4012 13.2804 15.7242 13.5184 15.9562L17.7224 20.0832C17.8134 20.1732 17.9334 20.2182 18.0514 20.2182C18.1734 20.2182 18.2954 20.1712 18.3874 20.0762C18.5694 19.8922 18.5664 19.5942 18.3814 19.4112L14.1774 15.2852C14.1294 15.2382 14.1034 15.1742 14.1064 15.1082L14.3134 9.92122C14.3364 9.35122 13.9484 8.84822 13.3904 8.72522L6.67939 7.25122C6.70639 7.42422 6.72939 7.52622 6.73139 7.53022C6.79339 7.78222 6.63939 8.03822 6.38739 8.10022C6.34939 8.11022 6.31139 8.11322 6.27339 8.11322C6.23139 8.11322 6.19039 8.10422 6.15039 8.09322C6.15939 8.09522 6.16539 8.10122 6.17439 8.10322L6.49639 8.17422L13.1874 9.64422C13.3004 9.66822 13.3784 9.76922 13.3734 9.88322Z" fill="#333333"/>
<path fill-rule="evenodd" clip-rule="evenodd" d="M6.03809 8.04335C6.02409 8.03535 6.00909 8.03035 5.99609 8.02135C6.00909 8.03035 6.02409 8.03535 6.03809 8.04335Z" fill="#333333"/>
<path fill-rule="evenodd" clip-rule="evenodd" d="M5.88004 7.89977C5.87404 7.89077 5.87204 7.87877 5.86704 7.86977C5.87204 7.87877 5.87404 7.88977 5.88004 7.89977Z" fill="#333333"/>
<path fill-rule="evenodd" clip-rule="evenodd" d="M7.84017 17.1313C5.52117 16.3883 5.00817 15.7163 4.97717 15.6743C4.85217 15.4573 4.57617 15.3773 4.35217 15.4953C4.12217 15.6153 4.03317 15.9013 4.15417 16.1303C4.21817 16.2503 4.54517 16.7513 5.83017 17.3613L5.44017 17.4163C5.18217 17.4513 5.00217 17.6893 5.03717 17.9453C5.07017 18.1823 5.27217 18.3523 5.50317 18.3523C5.52517 18.3523 5.54617 18.3513 5.56817 18.3483L7.76017 18.0453C7.97817 18.0163 8.14617 17.8393 8.16417 17.6203C8.18417 17.4023 8.04917 17.1983 7.84017 17.1313Z" fill="#333333"/>
<path fill-rule="evenodd" clip-rule="evenodd" d="M19.5061 18.2239C19.2491 18.2639 19.0721 18.5029 19.1121 18.7599C19.3151 20.0789 18.4491 21.9769 17.0991 23.1739C16.7231 23.5069 16.5071 23.5559 16.4371 23.5309C16.3411 23.4959 16.2341 23.2549 16.2041 23.0699C16.1671 22.8139 15.9271 22.6359 15.6731 22.6719C15.4161 22.7089 15.2361 22.9469 15.2741 23.2039C15.2871 23.3019 15.4291 24.1619 16.1111 24.4129C16.2281 24.4559 16.3491 24.4779 16.4731 24.4779C16.8551 24.4779 17.2741 24.2769 17.7231 23.8779C19.3181 22.4639 20.2931 20.2509 20.0421 18.6179C20.0031 18.3609 19.7611 18.1849 19.5061 18.2239Z" fill="#333333"/>
<mask id="mask4" mask-type="alpha" maskUnits="userSpaceOnUse" x="5" y="0" width="21" height="9">
<path fill-rule="evenodd" clip-rule="evenodd" d="M5.65527 0.000366211H25.1826V8.11357H5.65527V0.000366211Z" fill="white"/>
</mask>
<g mask="url(#mask4)">
<path fill-rule="evenodd" clip-rule="evenodd" d="M5.86758 7.86961C5.87258 7.87961 5.87458 7.89061 5.88058 7.89961C5.91158 7.94761 5.95158 7.98761 5.99658 8.02061C6.00958 8.03061 6.02458 8.03561 6.03858 8.04361C6.07458 8.06461 6.11058 8.08261 6.15058 8.09361C6.19058 8.10361 6.23158 8.11361 6.27358 8.11361C6.31158 8.11361 6.34858 8.10961 6.38758 8.09961C6.63858 8.03861 6.79358 7.78261 6.73158 7.53061C6.72958 7.52561 6.70658 7.42461 6.67958 7.25161C6.56058 6.49061 6.38558 4.33361 7.81458 2.78061C9.40258 1.05661 12.4436 0.539606 16.8566 1.24261C16.9136 1.25161 22.2706 2.10361 24.6556 3.62361C24.7096 3.46861 24.7776 3.31961 24.8726 3.18861C24.9656 3.05961 25.0706 2.94761 25.1826 2.84461C22.6236 1.20661 17.2406 0.349606 17.0036 0.313606C12.2556 -0.444394 8.92958 0.174606 7.11558 2.15061C5.29558 4.13461 5.63358 6.80161 5.77558 7.55461C5.79758 7.66761 5.81358 7.73961 5.81758 7.75761C5.82858 7.79861 5.84758 7.83461 5.86758 7.86961Z" fill="#333333"/>
</g>
<mask id="mask5" mask-type="alpha" maskUnits="userSpaceOnUse" x="22" y="38" width="2" height="2">
<path fill-rule="evenodd" clip-rule="evenodd" d="M22.8862 38.9854H23.8862V39.5024H22.8862V38.9854Z" fill="white"/>
</mask>
<g mask="url(#mask5)">
<path fill-rule="evenodd" clip-rule="evenodd" d="M23.3027 39.5024H23.3047C23.3607 39.5024 23.4157 39.4884 23.4697 39.4684C23.4177 39.4874 23.3637 39.5024 23.3047 39.5024H23.3027Z" fill="#333333"/>
</g>
<path fill-rule="evenodd" clip-rule="evenodd" d="M23.7473 38.893C23.7563 38.921 23.7623 38.951 23.7653 38.981C23.7623 38.951 23.7563 38.922 23.7473 38.893Z" fill="#333333"/>
<mask id="mask6" mask-type="alpha" maskUnits="userSpaceOnUse" x="23" y="38" width="2" height="2">
<path fill-rule="evenodd" clip-rule="evenodd" d="M23.1929 38.781H24.1929V39.5024H23.1929V38.781Z" fill="white"/>
</mask>
<g mask="url(#mask6)">
<path fill-rule="evenodd" clip-rule="evenodd" d="M23.7169 39.2455C23.7029 39.2715 23.6869 39.2945 23.6689 39.3165C23.6869 39.2935 23.7039 39.2715 23.7169 39.2455Z" fill="#333333"/>
</g>
<path fill-rule="evenodd" clip-rule="evenodd" d="M21.6513 24.6722C22.8313 24.2872 28.0523 22.3092 30.4213 16.9282C29.6413 17.9612 28.7833 18.7072 27.9223 19.2432C25.5073 22.2612 22.2373 23.4912 21.3593 23.7772C21.0413 23.8812 20.7813 24.1162 20.6473 24.4222C20.6163 24.4922 17.7393 31.2612 22.4193 38.5612H23.3043C23.4783 38.5612 23.6253 38.6602 23.7063 38.8012C23.6983 38.7872 23.6963 38.7722 23.6873 38.7592C18.6123 31.6122 21.4783 24.8672 21.5073 24.8012C21.5353 24.7392 21.5863 24.6932 21.6513 24.6722Z" fill="#333333"/>
<mask id="mask7" mask-type="alpha" maskUnits="userSpaceOnUse" x="23" y="38" width="2" height="2">
<path fill-rule="evenodd" clip-rule="evenodd" d="M23.2578 38.6162H24.2578V39.5024H23.2578V38.6162Z" fill="white"/>
</mask>
<g mask="url(#mask7)">
<path fill-rule="evenodd" clip-rule="evenodd" d="M23.7668 39.0707C23.7638 39.1017 23.7568 39.1327 23.7488 39.1617C23.7578 39.1317 23.7648 39.1017 23.7668 39.0707Z" fill="#333333"/>
</g>
<mask id="mask8" mask-type="alpha" maskUnits="userSpaceOnUse" x="23" y="38" width="2" height="2">
<path fill-rule="evenodd" clip-rule="evenodd" d="M23.0591 38.9159H24.0591V39.5023H23.0591V38.9159Z" fill="white"/>
</mask>
<g mask="url(#mask8)">
<path fill-rule="evenodd" clip-rule="evenodd" d="M23.5761 39.4154C23.5871 39.4074 23.5931 39.3954 23.6021 39.3874C23.5761 39.4094 23.5481 39.4294 23.5161 39.4444C23.5371 39.4354 23.5571 39.4294 23.5761 39.4154Z" fill="#333333"/>
</g>
<mask id="mask9" mask-type="alpha" maskUnits="userSpaceOnUse" x="24" y="2" width="8" height="15">
<path fill-rule="evenodd" clip-rule="evenodd" d="M24.54 2.15381H31.8112V16.5218H24.54V2.15381Z" fill="white"/>
</mask>
<g mask="url(#mask9)">
<path fill-rule="evenodd" clip-rule="evenodd" d="M24.8722 3.18885C24.7772 3.31985 24.7092 3.46785 24.6552 3.62385C24.4272 4.27185 24.5382 5.08485 24.9842 5.68485C25.3392 6.16185 26.4312 7.17985 28.9032 6.32885C29.1482 6.24385 29.2792 5.97585 29.1942 5.72985C29.1092 5.48485 28.8432 5.35385 28.5972 5.43885C27.2702 5.89685 26.2282 5.78185 25.7392 5.12385C25.3932 4.65885 25.4162 4.04285 25.6362 3.73785C26.2952 2.82085 27.7612 3.01085 28.5212 3.49185L28.5842 3.53185C29.2342 3.94085 30.4722 4.72385 30.7952 7.63285C30.8262 7.59185 30.8582 7.55785 30.8902 7.51685C31.0432 7.30785 31.3372 7.26085 31.5472 7.41585C31.7572 7.56985 31.8022 7.86385 31.6482 8.07385C31.3982 8.41385 31.1382 8.71585 30.8722 8.99985C30.8812 9.83485 30.8252 10.8048 30.6882 11.9288C30.7132 11.8968 30.7382 11.8668 30.7622 11.8338C30.9162 11.6248 31.2102 11.5788 31.4202 11.7328C31.6292 11.8868 31.6752 12.1808 31.5202 12.3908C31.1762 12.8608 30.8102 13.2758 30.4342 13.6448C30.2512 14.6778 29.9612 15.6138 29.5962 16.4608C29.6472 16.3948 29.6992 16.3308 29.7502 16.2608C29.9032 16.0518 30.1972 16.0058 30.4072 16.1598C30.5272 16.2488 30.5872 16.3828 30.5922 16.5218C30.9332 15.6698 31.2042 14.7398 31.3782 13.7188C32.8452 5.09985 30.2102 3.44285 29.0852 2.73585L29.0242 2.69685C27.8912 1.97985 26.1852 1.91785 25.1832 2.84385C25.0702 2.94785 24.9652 3.05985 24.8722 3.18885Z" fill="#333333"/>
</g>
<path fill-rule="evenodd" clip-rule="evenodd" d="M23.4405 10.9672C23.1865 10.9302 22.9475 11.1142 22.9145 11.3722C22.8795 11.6292 23.0595 11.8642 23.3175 11.9002C23.3635 11.9052 23.6425 11.9402 24.0855 11.9402C25.4675 11.9402 28.4435 11.5952 30.8725 8.99916C31.1375 8.71616 31.3985 8.41316 31.6485 8.07316C31.8015 7.86316 31.7565 7.57016 31.5465 7.41516C31.3365 7.26116 31.0435 7.30816 30.8895 7.51716C30.8585 7.55816 30.8265 7.59216 30.7945 7.63316C27.8725 11.4852 23.6225 10.9902 23.4405 10.9672Z" fill="#333333"/>
<path fill-rule="evenodd" clip-rule="evenodd" d="M23.0803 15.5063C22.8233 15.4903 22.5953 15.6793 22.5743 15.9373C22.5533 16.1953 22.7453 16.4223 23.0043 16.4443C23.0373 16.4463 23.1883 16.4583 23.4343 16.4583C24.5873 16.4583 27.8083 16.2083 30.4343 13.6453C30.8103 13.2763 31.1763 12.8603 31.5203 12.3913C31.6753 12.1813 31.6293 11.8873 31.4203 11.7333C31.2103 11.5783 30.9163 11.6243 30.7623 11.8333C30.7383 11.8663 30.7133 11.8973 30.6883 11.9293C27.7503 15.8263 23.1293 15.5123 23.0803 15.5063Z" fill="#333333"/>
<path fill-rule="evenodd" clip-rule="evenodd" d="M30.4076 16.1596C30.1976 16.0066 29.9036 16.0526 29.7506 16.2616C29.6996 16.3306 29.6476 16.3946 29.5956 16.4616C26.6866 20.2126 22.6086 19.6176 22.4286 19.5896C22.1706 19.5486 21.9306 19.7226 21.8886 19.9776C21.8466 20.2336 22.0206 20.4756 22.2776 20.5176C22.3296 20.5266 22.6806 20.5806 23.2316 20.5806C24.2996 20.5806 26.1116 20.3726 27.9226 19.2436C28.7836 18.7076 29.6416 17.9616 30.4216 16.9286C30.4506 16.8896 30.4796 16.8566 30.5096 16.8176C30.5746 16.7286 30.5956 16.6246 30.5926 16.5216C30.5876 16.3836 30.5276 16.2486 30.4076 16.1596Z" fill="#333333"/>
<path fill-rule="evenodd" clip-rule="evenodd" d="M16.7627 22.6342C17.0227 22.6342 17.2337 22.4242 17.2337 22.1632C17.2337 21.9042 17.0227 21.6942 16.7627 21.6942C16.5027 21.6942 16.2917 21.9042 16.2917 22.1632C16.2917 22.4242 16.5027 22.6342 16.7627 22.6342Z" fill="#333333"/>
<mask id="mask10" mask-type="alpha" maskUnits="userSpaceOnUse" x="10" y="38" width="14" height="2">
<path fill-rule="evenodd" clip-rule="evenodd" d="M10.4019 38.5315H23.7749V39.5024H10.4019V38.5315Z" fill="white"/>
</mask>
<g mask="url(#mask10)">
<path fill-rule="evenodd" clip-rule="evenodd" d="M23.3049 38.561H22.4189H11.3749H10.8719C10.6249 38.561 10.4289 38.753 10.4089 38.996C10.4079 39.008 10.4019 39.019 10.4019 39.032C10.4019 39.049 10.4089 39.065 10.4109 39.082C10.4149 39.116 10.4209 39.149 10.4319 39.18C10.4409 39.207 10.4519 39.231 10.4659 39.254C10.4809 39.283 10.4979 39.31 10.5189 39.334C10.5369 39.355 10.5569 39.373 10.5779 39.391C10.6039 39.411 10.6289 39.429 10.6579 39.444C10.6839 39.457 10.7099 39.466 10.7399 39.475C10.7829 39.488 10.8249 39.502 10.8719 39.502H10.8739H23.3029H23.3049C23.3639 39.502 23.4179 39.488 23.4699 39.468C23.4869 39.462 23.5009 39.454 23.5169 39.445C23.5479 39.429 23.5759 39.41 23.6029 39.387C23.6279 39.366 23.6489 39.343 23.6689 39.317C23.6869 39.294 23.7029 39.272 23.7169 39.246C23.7309 39.219 23.7409 39.191 23.7489 39.162C23.7569 39.132 23.7639 39.102 23.7669 39.071C23.7689 39.057 23.7749 39.045 23.7749 39.032C23.7749 39.013 23.7669 38.998 23.7649 38.981C23.7619 38.951 23.7559 38.921 23.7469 38.893C23.7369 38.86 23.7229 38.831 23.7059 38.801C23.6249 38.661 23.4789 38.561 23.3049 38.561Z" fill="#333333"/>
</g>
</svg>